<?xml version="1.0" encoding="UTF-8" standalone="no"?>
<!DOCTYPE svg PUBLIC "-//W3C//DTD SVG 1.1//EN"
 "http://www.w3.org/Graphics/SVG/1.1/DTD/svg11.dtd">
<!-- Generated by graphviz version 5.0.1 (20220820.1526)
 -->
<!-- Title: uxn::patl::aux::win32_exception Pages: 1 -->
<svg width="226pt" height="447pt"
 viewBox="0.00 0.00 226.00 447.00" xmlns="http://www.w3.org/2000/svg" xmlns:xlink="http://www.w3.org/1999/xlink">
<g id="graph0" class="graph" transform="scale(1 1) rotate(0) translate(4 443)">
<title>uxn::patl::aux::win32_exception</title>
<!-- Node1 -->
<g id="node1" class="node">
<title>Node1</title>
<g id="a_node1"><a xlink:title=" ">
<polygon fill="#bfbfbf" stroke="black" points="10,-0.5 10,-123.5 150,-123.5 150,-0.5 10,-0.5"/>
<text text-anchor="start" x="18" y="-111.5" font-family="Helvetica,sans-Serif" font-size="10.00">uxn::patl::aux::win32</text>
<text text-anchor="middle" x="80" y="-100.5" font-family="Helvetica,sans-Serif" font-size="10.00">_exception</text>
<polyline fill="none" stroke="black" points="10,-93.5 150,-93.5"/>
<text text-anchor="middle" x="80" y="-81.5" font-family="Helvetica,sans-Serif" font-size="10.00"> </text>
<polyline fill="none" stroke="black" points="10,-74.5 150,-74.5"/>
<text text-anchor="start" x="18" y="-62.5" font-family="Helvetica,sans-Serif" font-size="10.00">+ win32_exception(const</text>
<text text-anchor="start" x="18" y="-51.5" font-family="Helvetica,sans-Serif" font-size="10.00"> char *fun_name, const</text>
<text text-anchor="start" x="18" y="-40.5" font-family="Helvetica,sans-Serif" font-size="10.00"> char *fname, int loc)</text>
<text text-anchor="start" x="18" y="-29.5" font-family="Helvetica,sans-Serif" font-size="10.00">+ ~win32_exception()</text>
<text text-anchor="start" x="18" y="-18.5" font-family="Helvetica,sans-Serif" font-size="10.00">+ const char * what()</text>
<text text-anchor="start" x="18" y="-7.5" font-family="Helvetica,sans-Serif" font-size="10.00"> const</text>
</a>
</g>
</g>
<!-- Node2 -->
<g id="node2" class="node">
<title>Node2</title>
<g id="a_node2"><a xlink:title=" ">
<polygon fill="none" stroke="black" points="0,-171.5 0,-228.5 86,-228.5 86,-171.5 0,-171.5"/>
<text text-anchor="middle" x="43" y="-216.5" font-family="Helvetica,sans-Serif" font-size="10.00">std::exception</text>
<polyline fill="none" stroke="black" points="0,-209.5 86,-209.5"/>
<text text-anchor="middle" x="43" y="-197.5" font-family="Helvetica,sans-Serif" font-size="10.00"> </text>
<polyline fill="none" stroke="black" points="0,-190.5 86,-190.5"/>
<text text-anchor="middle" x="43" y="-178.5" font-family="Helvetica,sans-Serif" font-size="10.00"> </text>
</a>
</g>
</g>
<!-- Node2&#45;&gt;Node1 -->
<g id="edge1" class="edge">
<title>Node2&#45;&gt;Node1</title>
<path fill="none" stroke="midnightblue" d="M53.18,-161.6C56.37,-149.85 59.99,-136.55 63.51,-123.62"/>
<polygon fill="none" stroke="midnightblue" points="49.74,-160.91 50.49,-171.48 56.49,-162.75 49.74,-160.91"/>
</g>
<!-- Node3 -->
<g id="node3" class="node">
<title>Node3</title>
<g id="a_node3"><a xlink:title=" ">
<polygon fill="none" stroke="black" points="104,-171.5 104,-228.5 216,-228.5 216,-171.5 104,-171.5"/>
<text text-anchor="middle" x="160" y="-216.5" font-family="Helvetica,sans-Serif" font-size="10.00">std::vector&lt; char &gt;</text>
<polyline fill="none" stroke="black" points="104,-209.5 216,-209.5"/>
<text text-anchor="start" x="112" y="-197.5" font-family="Helvetica,sans-Serif" font-size="10.00">+ char elements</text>
<polyline fill="none" stroke="black" points="104,-190.5 216,-190.5"/>
<text text-anchor="middle" x="160" y="-178.5" font-family="Helvetica,sans-Serif" font-size="10.00"> </text>
</a>
</g>
</g>
<!-- Node3&#45;&gt;Node1 -->
<g id="edge2" class="edge">
<title>Node3&#45;&gt;Node1</title>
<path fill="none" stroke="#404040" d="M143.81,-171.48C137.4,-160.58 129.7,-147.49 121.91,-134.24"/>
<polygon fill="none" stroke="#404040" points="121.74,-133.97 115.26,-130.82 115.66,-123.62 122.15,-126.77 121.74,-133.97"/>
<text text-anchor="middle" x="150.5" y="-145" font-family="Helvetica,sans-Serif" font-size="10.00"> &#45;mess_</text>
</g>
<!-- Node4 -->
<g id="node4" class="node">
<title>Node4</title>
<g id="a_node4"><a xlink:title=" ">
<polygon fill="none" stroke="black" points="111.5,-276.5 111.5,-333.5 208.5,-333.5 208.5,-276.5 111.5,-276.5"/>
<text text-anchor="middle" x="160" y="-321.5" font-family="Helvetica,sans-Serif" font-size="10.00">std::vector&lt; T &gt;</text>
<polyline fill="none" stroke="black" points="111.5,-314.5 208.5,-314.5"/>
<text text-anchor="middle" x="160" y="-302.5" font-family="Helvetica,sans-Serif" font-size="10.00"> </text>
<polyline fill="none" stroke="black" points="111.5,-295.5 208.5,-295.5"/>
<text text-anchor="middle" x="160" y="-283.5" font-family="Helvetica,sans-Serif" font-size="10.00"> </text>
</a>
</g>
</g>
<!-- Node4&#45;&gt;Node3 -->
<g id="edge3" class="edge">
<title>Node4&#45;&gt;Node3</title>
<path fill="none" stroke="orange" d="M160,-266.29C160,-253.84 160,-240.23 160,-228.68"/>
<polygon fill="orange" stroke="orange" points="156.5,-266.4 160,-276.4 163.5,-266.4 156.5,-266.4"/>
<text text-anchor="middle" x="183.5" y="-250" font-family="Helvetica,sans-Serif" font-size="10.00"> &lt; char &gt;</text>
</g>
<!-- Node5 -->
<g id="node5" class="node">
<title>Node5</title>
<g id="a_node5"><a xlink:title=" ">
<polygon fill="none" stroke="black" points="145.5,-381.5 145.5,-438.5 174.5,-438.5 174.5,-381.5 145.5,-381.5"/>
<text text-anchor="middle" x="160" y="-426.5" font-family="Helvetica,sans-Serif" font-size="10.00">T</text>
<polyline fill="none" stroke="black" points="145.5,-419.5 174.5,-419.5"/>
<text text-anchor="middle" x="160" y="-407.5" font-family="Helvetica,sans-Serif" font-size="10.00"> </text>
<polyline fill="none" stroke="black" points="145.5,-400.5 174.5,-400.5"/>
<text text-anchor="middle" x="160" y="-388.5" font-family="Helvetica,sans-Serif" font-size="10.00"> </text>
</a>
</g>
</g>
<!-- Node5&#45;&gt;Node4 -->
<g id="edge4" class="edge">
<title>Node5&#45;&gt;Node4</title>
<path fill="none" stroke="#404040" d="M160,-381.4C160,-370.55 160,-357.87 160,-346.05"/>
<polygon fill="none" stroke="#404040" points="160,-345.68 156,-339.68 160,-333.68 164,-339.68 160,-345.68"/>
<text text-anchor="middle" x="189" y="-355" font-family="Helvetica,sans-Serif" font-size="10.00"> +elements</text>
</g>
</g>
</svg>
