<?xml version="1.0" encoding="UTF-8" standalone="no"?>
<!DOCTYPE svg PUBLIC "-//W3C//DTD SVG 1.1//EN"
 "http://www.w3.org/Graphics/SVG/1.1/DTD/svg11.dtd">
<!-- Generated by graphviz version 5.0.1 (20220820.1526)
 -->
<!-- Title: uxn/demos/usort3/usort3.cpp Pages: 1 -->
<!--zoomable 386 -->
<svg id="main" version="1.1" xmlns="http://www.w3.org/2000/svg" xmlns:xlink="http://www.w3.org/1999/xlink" xml:space="preserve" onload="init(evt)">
<style type="text/css"><![CDATA[
.edge:hover path { stroke: red; }
.edge:hover polygon { stroke: red; fill: red; }
]]></style>
<script type="text/javascript"><![CDATA[
var edges = document.getElementsByTagName('g');
if (edges && edges.length) {
  for (var i=0;i<edges.length;i++) {
    if (edges[i].id.substr(0,4)=='edge') {
      edges[i].setAttribute('class','edge');
    }
  }
}
]]></script>
        <defs>
                <circle id="rim" cx="0" cy="0" r="7"/>
                <circle id="rim2" cx="0" cy="0" r="3.5"/>
                <g id="zoomPlus">
                        <use xlink:href="#rim" fill="#404040">
                                <set attributeName="fill" to="#808080" begin="zoomplus.mouseover" end="zoomplus.mouseout"/>
                        </use>
                        <path d="M-4,0h8M0,-4v8" fill="none" stroke="white" stroke-width="1.5" pointer-events="none"/>
                </g>
                <g id="zoomMin">
                        <use xlink:href="#rim" fill="#404040">
                                <set attributeName="fill" to="#808080" begin="zoomminus.mouseover" end="zoomminus.mouseout"/>
                        </use>
                        <path d="M-4,0h8" fill="none" stroke="white" stroke-width="1.5" pointer-events="none"/>
                </g>
                <g id="dirArrow">
                        <path fill="none" stroke="white" stroke-width="1.5" d="M0,-3.0v7 M-2.5,-0.5L0,-3.0L2.5,-0.5"/>
                </g>
               <g id="resetDef">
                       <use xlink:href="#rim2" fill="#404040">
                               <set attributeName="fill" to="#808080" begin="reset.mouseover" end="reset.mouseout"/>
                       </use>
               </g>
        </defs>

<script type="text/javascript">
var viewWidth = 1307;
var viewHeight = 386;
var sectionId = 'dynsection-0';
</script>
<script xlink:href="../../svgpan.js"/>
<svg id="graph" class="graph">
<g id="viewport">
<title>uxn/demos/usort3/usort3.cpp</title>
<!-- Node1 -->
<g id="node1" class="node">
<title>Node1</title>
<g id="a_node1"><a xlink:title=" ">
<polygon fill="#bfbfbf" stroke="black" points="65,-358.5 65,-377.5 223,-377.5 223,-358.5 65,-358.5"/>
<text text-anchor="middle" x="144" y="-365.5" font-family="Helvetica,sans-Serif" font-size="10.00">uxn/demos/usort3/usort3.cpp</text>
</a>
</g>
</g>
<!-- Node2 -->
<g id="node2" class="node">
<title>Node2</title>
<g id="a_node2"><a xlink:href="../../d2/d6c/buffered__io_8hpp.html" target="_top" xlink:title=" ">
<polygon fill="none" stroke="black" points="0,-168.5 0,-198.5 126,-198.5 126,-168.5 0,-168.5"/>
<text text-anchor="start" x="8" y="-186.5" font-family="Helvetica,sans-Serif" font-size="10.00">uxn/patl/aux_/buffered</text>
<text text-anchor="middle" x="63" y="-175.5" font-family="Helvetica,sans-Serif" font-size="10.00">_io.hpp</text>
</a>
</g>
</g>
<!-- Node1&#45;&gt;Node2 -->
<g id="edge1" class="edge">
<title>Node1&#45;&gt;Node2</title>
<path fill="none" stroke="midnightblue" d="M125.03,-358.44C110.75,-350.95 91.99,-338.65 82,-322 60.9,-286.81 59.46,-237.61 60.87,-208.6"/>
<polygon fill="midnightblue" stroke="midnightblue" points="64.36,-208.75 61.51,-198.54 57.38,-208.3 64.36,-208.75"/>
</g>
<!-- Node10 -->
<g id="node10" class="node">
<title>Node10</title>
<g id="a_node10"><a xlink:href="../../d9/df3/perf__timer_8hpp.html" target="_top" xlink:title=" ">
<polygon fill="none" stroke="black" points="91.5,-291.5 91.5,-321.5 196.5,-321.5 196.5,-291.5 91.5,-291.5"/>
<text text-anchor="start" x="99.5" y="-309.5" font-family="Helvetica,sans-Serif" font-size="10.00">uxn/patl/aux_/perf</text>
<text text-anchor="middle" x="144" y="-298.5" font-family="Helvetica,sans-Serif" font-size="10.00">_timer.hpp</text>
</a>
</g>
</g>
<!-- Node1&#45;&gt;Node10 -->
<g id="edge11" class="edge">
<title>Node1&#45;&gt;Node10</title>
<path fill="none" stroke="midnightblue" d="M144,-358.48C144,-351.47 144,-341.19 144,-331.7"/>
<polygon fill="midnightblue" stroke="midnightblue" points="147.5,-331.52 144,-321.52 140.5,-331.52 147.5,-331.52"/>
</g>
<!-- Node12 -->
<g id="node12" class="node">
<title>Node12</title>
<g id="a_node12"><a xlink:href="../../d4/dc0/suffix__set_8hpp.html" target="_top" xlink:title=" ">
<polygon fill="none" stroke="black" points="215,-297 215,-316 343,-316 343,-297 215,-297"/>
<text text-anchor="middle" x="279" y="-304" font-family="Helvetica,sans-Serif" font-size="10.00">uxn/patl/suffix_set.hpp</text>
</a>
</g>
</g>
<!-- Node1&#45;&gt;Node12 -->
<g id="edge13" class="edge">
<title>Node1&#45;&gt;Node12</title>
<path fill="none" stroke="midnightblue" d="M163.34,-358.48C186.1,-348.45 224.09,-331.7 250.29,-320.15"/>
<polygon fill="midnightblue" stroke="midnightblue" points="251.95,-323.24 259.69,-316.01 249.13,-316.84 251.95,-323.24"/>
</g>
<!-- Node3 -->
<g id="node3" class="node">
<title>Node3</title>
<g id="a_node3"><a xlink:href="../../d8/dfd/config_8hpp.html" target="_top" xlink:title=" ">
<polygon fill="none" stroke="black" points="339,-0.5 339,-19.5 415,-19.5 415,-0.5 339,-0.5"/>
<text text-anchor="middle" x="377" y="-7.5" font-family="Helvetica,sans-Serif" font-size="10.00">../config.hpp</text>
</a>
</g>
</g>
<!-- Node2&#45;&gt;Node3 -->
<g id="edge2" class="edge">
<title>Node2&#45;&gt;Node3</title>
<path fill="none" stroke="midnightblue" d="M44.29,-168.33C33.86,-159.23 21.83,-146.44 16,-132 3.35,-100.68 -7.36,-81.32 15,-56 35.46,-32.84 235.15,-18.84 328.88,-13.49"/>
<polygon fill="midnightblue" stroke="midnightblue" points="329.17,-16.98 338.96,-12.93 328.78,-9.99 329.17,-16.98"/>
</g>
<!-- Node4 -->
<g id="node4" class="node">
<title>Node4</title>
<g id="a_node4"><a xlink:href="../../d9/df1/file__utils_8hpp.html" target="_top" xlink:title=" ">
<polygon fill="none" stroke="black" points="113.5,-112.5 113.5,-131.5 192.5,-131.5 192.5,-112.5 113.5,-112.5"/>
<text text-anchor="middle" x="153" y="-119.5" font-family="Helvetica,sans-Serif" font-size="10.00">file_utils.hpp</text>
</a>
</g>
</g>
<!-- Node2&#45;&gt;Node4 -->
<g id="edge3" class="edge">
<title>Node2&#45;&gt;Node4</title>
<path fill="none" stroke="midnightblue" d="M84.33,-168.4C98.49,-159.04 117.01,-146.79 131.25,-137.38"/>
<polygon fill="midnightblue" stroke="midnightblue" points="133.49,-140.09 139.9,-131.66 129.63,-134.25 133.49,-140.09"/>
</g>
<!-- Node7 -->
<g id="node7" class="node">
<title>Node7</title>
<g id="a_node7"><a xlink:title=" ">
<polygon fill="none" stroke="#bfbfbf" points="24,-56.5 24,-75.5 92,-75.5 92,-56.5 24,-56.5"/>
<text text-anchor="middle" x="58" y="-63.5" font-family="Helvetica,sans-Serif" font-size="10.00">windows.h</text>
</a>
</g>
</g>
<!-- Node2&#45;&gt;Node7 -->
<g id="edge10" class="edge">
<title>Node2&#45;&gt;Node7</title>
<path fill="none" stroke="midnightblue" d="M46.59,-168.4C37.12,-159.14 26.12,-146.16 21,-132 14.57,-114.2 27.45,-95.6 39.74,-82.88"/>
<polygon fill="midnightblue" stroke="midnightblue" points="42.35,-85.23 47.14,-75.78 37.5,-80.18 42.35,-85.23"/>
</g>
<!-- Node8 -->
<g id="node8" class="node">
<title>Node8</title>
<g id="a_node8"><a xlink:title=" ">
<polygon fill="none" stroke="#bfbfbf" points="312,-112.5 312,-131.5 376,-131.5 376,-112.5 312,-112.5"/>
<text text-anchor="middle" x="344" y="-119.5" font-family="Helvetica,sans-Serif" font-size="10.00">algorithm</text>
</a>
</g>
</g>
<!-- Node2&#45;&gt;Node8 -->
<g id="edge8" class="edge">
<title>Node2&#45;&gt;Node8</title>
<path fill="none" stroke="midnightblue" d="M126.2,-169.36C172.25,-159.75 236.42,-146.28 301.71,-132.26"/>
<polygon fill="midnightblue" stroke="midnightblue" points="302.74,-135.62 311.78,-130.1 301.26,-128.78 302.74,-135.62"/>
</g>
<!-- Node9 -->
<g id="node9" class="node">
<title>Node9</title>
<g id="a_node9"><a xlink:title=" ">
<polygon fill="none" stroke="#bfbfbf" points="30.5,-112.5 30.5,-131.5 95.5,-131.5 95.5,-112.5 30.5,-112.5"/>
<text text-anchor="middle" x="63" y="-119.5" font-family="Helvetica,sans-Serif" font-size="10.00">exception</text>
</a>
</g>
</g>
<!-- Node2&#45;&gt;Node9 -->
<g id="edge9" class="edge">
<title>Node2&#45;&gt;Node9</title>
<path fill="none" stroke="midnightblue" d="M63,-168.4C63,-160.47 63,-150.46 63,-141.86"/>
<polygon fill="midnightblue" stroke="midnightblue" points="66.5,-141.66 63,-131.66 59.5,-141.66 66.5,-141.66"/>
</g>
<!-- Node4&#45;&gt;Node3 -->
<g id="edge4" class="edge">
<title>Node4&#45;&gt;Node3</title>
<path fill="none" stroke="midnightblue" d="M151.66,-112.07C150.11,-98.12 149.41,-71.19 164,-56 186.3,-32.77 273.28,-20.53 328.96,-14.94"/>
<polygon fill="midnightblue" stroke="midnightblue" points="329.35,-18.42 338.97,-13.97 328.68,-11.45 329.35,-18.42"/>
</g>
<!-- Node5 -->
<g id="node5" class="node">
<title>Node5</title>
<g id="a_node5"><a xlink:title=" ">
<polygon fill="none" stroke="#bfbfbf" points="173,-56.5 173,-75.5 217,-75.5 217,-56.5 173,-56.5"/>
<text text-anchor="middle" x="195" y="-63.5" font-family="Helvetica,sans-Serif" font-size="10.00">string</text>
</a>
</g>
</g>
<!-- Node4&#45;&gt;Node5 -->
<g id="edge5" class="edge">
<title>Node4&#45;&gt;Node5</title>
<path fill="none" stroke="midnightblue" d="M159.94,-112.08C165.93,-104.38 174.75,-93.03 182.05,-83.65"/>
<polygon fill="midnightblue" stroke="midnightblue" points="184.82,-85.79 188.19,-75.75 179.29,-81.5 184.82,-85.79"/>
</g>
<!-- Node6 -->
<g id="node6" class="node">
<title>Node6</title>
<g id="a_node6"><a xlink:title=" ">
<polygon fill="none" stroke="#bfbfbf" points="235.5,-56.5 235.5,-75.5 282.5,-75.5 282.5,-56.5 235.5,-56.5"/>
<text text-anchor="middle" x="259" y="-63.5" font-family="Helvetica,sans-Serif" font-size="10.00">vector</text>
</a>
</g>
</g>
<!-- Node4&#45;&gt;Node6 -->
<g id="edge6" class="edge">
<title>Node4&#45;&gt;Node6</title>
<path fill="none" stroke="midnightblue" d="M170.03,-112.32C187.03,-103.66 213.38,-90.24 232.99,-80.25"/>
<polygon fill="midnightblue" stroke="midnightblue" points="234.69,-83.31 242.01,-75.65 231.51,-77.08 234.69,-83.31"/>
</g>
<!-- Node4&#45;&gt;Node7 -->
<g id="edge7" class="edge">
<title>Node4&#45;&gt;Node7</title>
<path fill="none" stroke="midnightblue" d="M137.74,-112.32C122.78,-103.82 99.75,-90.73 82.27,-80.8"/>
<polygon fill="midnightblue" stroke="midnightblue" points="83.65,-77.55 73.23,-75.65 80.19,-83.64 83.65,-77.55"/>
</g>
<!-- Node11 -->
<g id="node11" class="node">
<title>Node11</title>
<g id="a_node11"><a xlink:title=" ">
<polygon fill="none" stroke="#bfbfbf" points="113,-235.5 113,-254.5 175,-254.5 175,-235.5 113,-235.5"/>
<text text-anchor="middle" x="144" y="-242.5" font-family="Helvetica,sans-Serif" font-size="10.00">cinttypes</text>
</a>
</g>
</g>
<!-- Node10&#45;&gt;Node11 -->
<g id="edge12" class="edge">
<title>Node10&#45;&gt;Node11</title>
<path fill="none" stroke="midnightblue" d="M144,-291.4C144,-283.47 144,-273.46 144,-264.86"/>
<polygon fill="midnightblue" stroke="midnightblue" points="147.5,-264.66 144,-254.66 140.5,-264.66 147.5,-264.66"/>
</g>
<!-- Node13 -->
<g id="node13" class="node">
<title>Node13</title>
<g id="a_node13"><a xlink:href="../../d5/dfc/suffix__generic_8hpp.html" target="_top" xlink:title=" ">
<polygon fill="none" stroke="black" points="481.5,-235.5 481.5,-254.5 612.5,-254.5 612.5,-235.5 481.5,-235.5"/>
<text text-anchor="middle" x="547" y="-242.5" font-family="Helvetica,sans-Serif" font-size="10.00">impl/suffix_generic.hpp</text>
</a>
</g>
</g>
<!-- Node12&#45;&gt;Node13 -->
<g id="edge14" class="edge">
<title>Node12&#45;&gt;Node13</title>
<path fill="none" stroke="midnightblue" d="M317.4,-296.98C365.16,-286.37 446.74,-268.26 498.7,-256.72"/>
<polygon fill="midnightblue" stroke="midnightblue" points="499.67,-260.09 508.67,-254.51 498.15,-253.26 499.67,-260.09"/>
</g>
<!-- Node32 -->
<g id="node32" class="node">
<title>Node32</title>
<g id="a_node32"><a xlink:href="../../d1/dff/bit__comp_8hpp.html" target="_top" xlink:title=" ">
<polygon fill="none" stroke="black" points="210.5,-112.5 210.5,-131.5 293.5,-131.5 293.5,-112.5 210.5,-112.5"/>
<text text-anchor="middle" x="252" y="-119.5" font-family="Helvetica,sans-Serif" font-size="10.00">bit_comp.hpp</text>
</a>
</g>
</g>
<!-- Node12&#45;&gt;Node32 -->
<g id="edge43" class="edge">
<title>Node12&#45;&gt;Node32</title>
<path fill="none" stroke="midnightblue" d="M277.7,-296.7C273.54,-268.57 260.5,-180.46 254.76,-141.66"/>
<polygon fill="midnightblue" stroke="midnightblue" points="258.22,-141.09 253.29,-131.71 251.29,-142.12 258.22,-141.09"/>
</g>
<!-- Node14 -->
<g id="node14" class="node">
<title>Node14</title>
<g id="a_node14"><a xlink:title=" ">
<polygon fill="none" stroke="#bfbfbf" points="776.5,-56.5 776.5,-75.5 829.5,-75.5 829.5,-56.5 776.5,-56.5"/>
<text text-anchor="middle" x="803" y="-63.5" font-family="Helvetica,sans-Serif" font-size="10.00">iterator</text>
</a>
</g>
</g>
<!-- Node13&#45;&gt;Node14 -->
<g id="edge15" class="edge">
<title>Node13&#45;&gt;Node14</title>
<path fill="none" stroke="midnightblue" d="M564.44,-235.39C578.79,-227.56 598.84,-214.83 612,-199 639.08,-166.41 619.1,-139.9 651,-112 683.25,-83.8 732.47,-73.26 766.11,-69.32"/>
<polygon fill="midnightblue" stroke="midnightblue" points="766.85,-72.77 776.44,-68.26 766.14,-65.8 766.85,-72.77"/>
</g>
<!-- Node15 -->
<g id="node15" class="node">
<title>Node15</title>
<g id="a_node15"><a xlink:href="../../d3/d09/node_8hpp.html" target="_top" xlink:title=" ">
<polygon fill="none" stroke="black" points="304,-174 304,-193 366,-193 366,-174 304,-174"/>
<text text-anchor="middle" x="335" y="-181" font-family="Helvetica,sans-Serif" font-size="10.00">node.hpp</text>
</a>
</g>
</g>
<!-- Node13&#45;&gt;Node15 -->
<g id="edge16" class="edge">
<title>Node13&#45;&gt;Node15</title>
<path fill="none" stroke="midnightblue" d="M511.06,-235.46C476.29,-226.98 422.21,-213.22 376,-199 373.38,-198.19 370.69,-197.33 367.98,-196.43"/>
<polygon fill="midnightblue" stroke="midnightblue" points="368.9,-193.04 358.31,-193.12 366.63,-199.67 368.9,-193.04"/>
</g>
<!-- Node16 -->
<g id="node16" class="node">
<title>Node16</title>
<g id="a_node16"><a xlink:href="../../d0/dd1/core__algorithm_8hpp.html" target="_top" xlink:title=" ">
<polygon fill="none" stroke="black" points="491.5,-174 491.5,-193 602.5,-193 602.5,-174 491.5,-174"/>
<text text-anchor="middle" x="547" y="-181" font-family="Helvetica,sans-Serif" font-size="10.00">core_algorithm.hpp</text>
</a>
</g>
</g>
<!-- Node13&#45;&gt;Node16 -->
<g id="edge19" class="edge">
<title>Node13&#45;&gt;Node16</title>
<path fill="none" stroke="midnightblue" d="M547,-235.48C547,-227.08 547,-213.98 547,-203.16"/>
<polygon fill="midnightblue" stroke="midnightblue" points="550.5,-203.01 547,-193.01 543.5,-203.01 550.5,-203.01"/>
</g>
<!-- Node22 -->
<g id="node22" class="node">
<title>Node22</title>
<g id="a_node22"><a xlink:href="../../d3/dcf/ring__buffer_8hpp.html" target="_top" xlink:title=" ">
<polygon fill="none" stroke="black" points="384.5,-174 384.5,-193 473.5,-193 473.5,-174 384.5,-174"/>
<text text-anchor="middle" x="429" y="-181" font-family="Helvetica,sans-Serif" font-size="10.00">ring_buffer.hpp</text>
</a>
</g>
</g>
<!-- Node13&#45;&gt;Node22 -->
<g id="edge27" class="edge">
<title>Node13&#45;&gt;Node22</title>
<path fill="none" stroke="midnightblue" d="M530.09,-235.48C510.47,-225.58 477.87,-209.14 455.01,-197.62"/>
<polygon fill="midnightblue" stroke="midnightblue" points="456.38,-194.39 445.88,-193.01 453.23,-200.64 456.38,-194.39"/>
</g>
<!-- Node23 -->
<g id="node23" class="node">
<title>Node23</title>
<g id="a_node23"><a xlink:href="../../de/d50/assoc__generic_8hpp.html" target="_top" xlink:title=" ">
<polygon fill="none" stroke="black" points="866.5,-174 866.5,-193 973.5,-193 973.5,-174 866.5,-174"/>
<text text-anchor="middle" x="920" y="-181" font-family="Helvetica,sans-Serif" font-size="10.00">assoc_generic.hpp</text>
</a>
</g>
</g>
<!-- Node13&#45;&gt;Node23 -->
<g id="edge28" class="edge">
<title>Node13&#45;&gt;Node23</title>
<path fill="none" stroke="midnightblue" d="M600.44,-235.48C668.03,-224.69 784.25,-206.15 856.35,-194.65"/>
<polygon fill="midnightblue" stroke="midnightblue" points="857.33,-198.04 866.66,-193.01 856.23,-191.13 857.33,-198.04"/>
</g>
<!-- Node30 -->
<g id="node30" class="node">
<title>Node30</title>
<g id="a_node30"><a xlink:href="../../d7/dd8/core__prefix_8hpp.html" target="_top" xlink:title=" ">
<polygon fill="none" stroke="black" points="1106,-174 1106,-193 1198,-193 1198,-174 1106,-174"/>
<text text-anchor="middle" x="1152" y="-181" font-family="Helvetica,sans-Serif" font-size="10.00">core_prefix.hpp</text>
</a>
</g>
</g>
<!-- Node13&#45;&gt;Node30 -->
<g id="edge41" class="edge">
<title>Node13&#45;&gt;Node30</title>
<path fill="none" stroke="midnightblue" d="M612.61,-237.55C732.15,-225.79 983.45,-201.08 1095.73,-190.03"/>
<polygon fill="midnightblue" stroke="midnightblue" points="1096.22,-193.5 1105.83,-189.04 1095.54,-186.54 1096.22,-193.5"/>
</g>
<!-- Node15&#45;&gt;Node3 -->
<g id="edge18" class="edge">
<title>Node15&#45;&gt;Node3</title>
<path fill="none" stroke="midnightblue" d="M348.11,-173.89C360.28,-165.04 377.58,-150.03 385,-132 399.03,-97.89 390.11,-53.81 383.08,-29.37"/>
<polygon fill="midnightblue" stroke="midnightblue" points="386.37,-28.15 380.08,-19.63 379.68,-30.22 386.37,-28.15"/>
</g>
<!-- Node15&#45;&gt;Node8 -->
<g id="edge17" class="edge">
<title>Node15&#45;&gt;Node8</title>
<path fill="none" stroke="midnightblue" d="M336.29,-173.98C337.56,-165.58 339.54,-152.48 341.18,-141.66"/>
<polygon fill="midnightblue" stroke="midnightblue" points="344.68,-141.92 342.71,-131.51 337.76,-140.87 344.68,-141.92"/>
</g>
<!-- Node17 -->
<g id="node17" class="node">
<title>Node17</title>
<g id="a_node17"><a xlink:href="../../de/d55/algorithm_8hpp.html" target="_top" xlink:title=" ">
<polygon fill="none" stroke="black" points="460.5,-112.5 460.5,-131.5 545.5,-131.5 545.5,-112.5 460.5,-112.5"/>
<text text-anchor="middle" x="503" y="-119.5" font-family="Helvetica,sans-Serif" font-size="10.00">algorithm.hpp</text>
</a>
</g>
</g>
<!-- Node16&#45;&gt;Node17 -->
<g id="edge20" class="edge">
<title>Node16&#45;&gt;Node17</title>
<path fill="none" stroke="midnightblue" d="M540.7,-173.98C534.1,-165.05 523.56,-150.81 515.31,-139.64"/>
<polygon fill="midnightblue" stroke="midnightblue" points="518.05,-137.47 509.29,-131.51 512.42,-141.63 518.05,-137.47"/>
</g>
<!-- Node17&#45;&gt;Node3 -->
<g id="edge21" class="edge">
<title>Node17&#45;&gt;Node3</title>
<path fill="none" stroke="midnightblue" d="M493.11,-112.37C471.86,-93.81 421.57,-49.91 394.68,-26.44"/>
<polygon fill="midnightblue" stroke="midnightblue" points="396.68,-23.53 386.84,-19.59 392.07,-28.8 396.68,-23.53"/>
</g>
<!-- Node18 -->
<g id="node18" class="node">
<title>Node18</title>
<g id="a_node18"><a xlink:href="../../d9/d3a/trivial_8hpp.html" target="_top" xlink:title=" ">
<polygon fill="none" stroke="black" points="470,-56.5 470,-75.5 536,-75.5 536,-56.5 470,-56.5"/>
<text text-anchor="middle" x="503" y="-63.5" font-family="Helvetica,sans-Serif" font-size="10.00">trivial.hpp</text>
</a>
</g>
</g>
<!-- Node17&#45;&gt;Node18 -->
<g id="edge22" class="edge">
<title>Node17&#45;&gt;Node18</title>
<path fill="none" stroke="midnightblue" d="M503,-112.08C503,-105.01 503,-94.86 503,-85.99"/>
<polygon fill="midnightblue" stroke="midnightblue" points="506.5,-85.75 503,-75.75 499.5,-85.75 506.5,-85.75"/>
</g>
<!-- Node18&#45;&gt;Node3 -->
<g id="edge23" class="edge">
<title>Node18&#45;&gt;Node3</title>
<path fill="none" stroke="midnightblue" d="M483.03,-56.44C462.39,-47.6 429.94,-33.69 406.37,-23.59"/>
<polygon fill="midnightblue" stroke="midnightblue" points="407.44,-20.24 396.87,-19.52 404.68,-26.67 407.44,-20.24"/>
</g>
<!-- Node19 -->
<g id="node19" class="node">
<title>Node19</title>
<g id="a_node19"><a xlink:title=" ">
<polygon fill="none" stroke="#bfbfbf" points="572.5,-0.5 572.5,-19.5 641.5,-19.5 641.5,-0.5 572.5,-0.5"/>
<text text-anchor="middle" x="607" y="-7.5" font-family="Helvetica,sans-Serif" font-size="10.00">type_traits</text>
</a>
</g>
</g>
<!-- Node18&#45;&gt;Node19 -->
<g id="edge24" class="edge">
<title>Node18&#45;&gt;Node19</title>
<path fill="none" stroke="midnightblue" d="M519.71,-56.32C536.31,-47.7 562,-34.36 581.22,-24.39"/>
<polygon fill="midnightblue" stroke="midnightblue" points="583.07,-27.37 590.33,-19.65 579.84,-21.16 583.07,-27.37"/>
</g>
<!-- Node20 -->
<g id="node20" class="node">
<title>Node20</title>
<g id="a_node20"><a xlink:title=" ">
<polygon fill="none" stroke="#bfbfbf" points="433,-0.5 433,-19.5 485,-19.5 485,-0.5 433,-0.5"/>
<text text-anchor="middle" x="459" y="-7.5" font-family="Helvetica,sans-Serif" font-size="10.00">cassert</text>
</a>
</g>
</g>
<!-- Node18&#45;&gt;Node20 -->
<g id="edge25" class="edge">
<title>Node18&#45;&gt;Node20</title>
<path fill="none" stroke="midnightblue" d="M495.73,-56.08C489.46,-48.38 480.21,-37.03 472.57,-27.65"/>
<polygon fill="midnightblue" stroke="midnightblue" points="475.16,-25.29 466.13,-19.75 469.73,-29.71 475.16,-25.29"/>
</g>
<!-- Node21 -->
<g id="node21" class="node">
<title>Node21</title>
<g id="a_node21"><a xlink:title=" ">
<polygon fill="none" stroke="#bfbfbf" points="503.5,-0.5 503.5,-19.5 554.5,-19.5 554.5,-0.5 503.5,-0.5"/>
<text text-anchor="middle" x="529" y="-7.5" font-family="Helvetica,sans-Serif" font-size="10.00">intrin.h</text>
</a>
</g>
</g>
<!-- Node18&#45;&gt;Node21 -->
<g id="edge26" class="edge">
<title>Node18&#45;&gt;Node21</title>
<path fill="none" stroke="midnightblue" d="M507.29,-56.08C510.85,-48.69 516.02,-37.95 520.42,-28.81"/>
<polygon fill="midnightblue" stroke="midnightblue" points="523.6,-30.28 524.79,-19.75 517.29,-27.24 523.6,-30.28"/>
</g>
<!-- Node24 -->
<g id="node24" class="node">
<title>Node24</title>
<g id="a_node24"><a xlink:href="../../d5/db7/preorder__iterator_8hpp.html" target="_top" xlink:title=" ">
<polygon fill="none" stroke="black" points="1057.5,-112.5 1057.5,-131.5 1176.5,-131.5 1176.5,-112.5 1057.5,-112.5"/>
<text text-anchor="middle" x="1117" y="-119.5" font-family="Helvetica,sans-Serif" font-size="10.00">preorder_iterator.hpp</text>
</a>
</g>
</g>
<!-- Node23&#45;&gt;Node24 -->
<g id="edge29" class="edge">
<title>Node23&#45;&gt;Node24</title>
<path fill="none" stroke="midnightblue" d="M948.23,-173.98C982.6,-163.59 1040.81,-146.01 1079.08,-134.45"/>
<polygon fill="midnightblue" stroke="midnightblue" points="1080.27,-137.75 1088.83,-131.51 1078.24,-131.05 1080.27,-137.75"/>
</g>
<!-- Node25 -->
<g id="node25" class="node">
<title>Node25</title>
<g id="a_node25"><a xlink:href="../../d1/d2d/vertex_8hpp.html" target="_top" xlink:title=" ">
<polygon fill="none" stroke="black" points="1082.5,-56.5 1082.5,-75.5 1151.5,-75.5 1151.5,-56.5 1082.5,-56.5"/>
<text text-anchor="middle" x="1117" y="-63.5" font-family="Helvetica,sans-Serif" font-size="10.00">vertex.hpp</text>
</a>
</g>
</g>
<!-- Node23&#45;&gt;Node25 -->
<g id="edge39" class="edge">
<title>Node23&#45;&gt;Node25</title>
<path fill="none" stroke="midnightblue" d="M973.67,-180.14C1043.46,-175.82 1159.58,-163.91 1186,-132 1202.45,-112.13 1172.89,-92.22 1147.49,-79.77"/>
<polygon fill="midnightblue" stroke="midnightblue" points="1148.96,-76.6 1138.42,-75.54 1146,-82.94 1148.96,-76.6"/>
</g>
<!-- Node26 -->
<g id="node26" class="node">
<title>Node26</title>
<g id="a_node26"><a xlink:href="../../df/d24/postorder__iterator_8hpp.html" target="_top" xlink:title=" ">
<polygon fill="none" stroke="black" points="857.5,-112.5 857.5,-131.5 982.5,-131.5 982.5,-112.5 857.5,-112.5"/>
<text text-anchor="middle" x="920" y="-119.5" font-family="Helvetica,sans-Serif" font-size="10.00">postorder_iterator.hpp</text>
</a>
</g>
</g>
<!-- Node23&#45;&gt;Node26 -->
<g id="edge32" class="edge">
<title>Node23&#45;&gt;Node26</title>
<path fill="none" stroke="midnightblue" d="M920,-173.98C920,-165.58 920,-152.48 920,-141.66"/>
<polygon fill="midnightblue" stroke="midnightblue" points="923.5,-141.51 920,-131.51 916.5,-141.51 923.5,-141.51"/>
</g>
<!-- Node27 -->
<g id="node27" class="node">
<title>Node27</title>
<g id="a_node27"><a xlink:href="../../d9/dde/iterator_8hpp.html" target="_top" xlink:title=" ">
<polygon fill="none" stroke="black" points="766.5,-112.5 766.5,-131.5 839.5,-131.5 839.5,-112.5 766.5,-112.5"/>
<text text-anchor="middle" x="803" y="-119.5" font-family="Helvetica,sans-Serif" font-size="10.00">iterator.hpp</text>
</a>
</g>
</g>
<!-- Node23&#45;&gt;Node27 -->
<g id="edge35" class="edge">
<title>Node23&#45;&gt;Node27</title>
<path fill="none" stroke="midnightblue" d="M903.24,-173.98C883.78,-164.08 851.45,-147.64 828.79,-136.12"/>
<polygon fill="midnightblue" stroke="midnightblue" points="830.23,-132.92 819.73,-131.51 827.06,-139.16 830.23,-132.92"/>
</g>
<!-- Node28 -->
<g id="node28" class="node">
<title>Node28</title>
<g id="a_node28"><a xlink:href="../../d7/d8f/partimator_8hpp.html" target="_top" xlink:title=" ">
<polygon fill="none" stroke="black" points="659.5,-112.5 659.5,-131.5 748.5,-131.5 748.5,-112.5 659.5,-112.5"/>
<text text-anchor="middle" x="704" y="-119.5" font-family="Helvetica,sans-Serif" font-size="10.00">partimator.hpp</text>
</a>
</g>
</g>
<!-- Node23&#45;&gt;Node28 -->
<g id="edge37" class="edge">
<title>Node23&#45;&gt;Node28</title>
<path fill="none" stroke="midnightblue" d="M889.05,-173.98C851.12,-163.53 786.72,-145.79 744.78,-134.23"/>
<polygon fill="midnightblue" stroke="midnightblue" points="745.46,-130.79 734.89,-131.51 743.6,-137.54 745.46,-130.79"/>
</g>
<!-- Node29 -->
<g id="node29" class="node">
<title>Node29</title>
<g id="a_node29"><a xlink:title=" ">
<polygon fill="none" stroke="#bfbfbf" points="1001,-112.5 1001,-131.5 1039,-131.5 1039,-112.5 1001,-112.5"/>
<text text-anchor="middle" x="1020" y="-119.5" font-family="Helvetica,sans-Serif" font-size="10.00">map</text>
</a>
</g>
</g>
<!-- Node23&#45;&gt;Node29 -->
<g id="edge40" class="edge">
<title>Node23&#45;&gt;Node29</title>
<path fill="none" stroke="midnightblue" d="M934.33,-173.98C950.66,-164.25 977.6,-148.23 996.91,-136.74"/>
<polygon fill="midnightblue" stroke="midnightblue" points="998.89,-139.63 1005.7,-131.51 995.32,-133.61 998.89,-139.63"/>
</g>
<!-- Node24&#45;&gt;Node14 -->
<g id="edge31" class="edge">
<title>Node24&#45;&gt;Node14</title>
<path fill="none" stroke="midnightblue" d="M1067.25,-112.44C1003.92,-101.55 896,-82.99 839.67,-73.31"/>
<polygon fill="midnightblue" stroke="midnightblue" points="840.23,-69.85 829.78,-71.6 839.04,-76.75 840.23,-69.85"/>
</g>
<!-- Node24&#45;&gt;Node25 -->
<g id="edge30" class="edge">
<title>Node24&#45;&gt;Node25</title>
<path fill="none" stroke="midnightblue" d="M1117,-112.08C1117,-105.01 1117,-94.86 1117,-85.99"/>
<polygon fill="midnightblue" stroke="midnightblue" points="1120.5,-85.75 1117,-75.75 1113.5,-85.75 1120.5,-85.75"/>
</g>
<!-- Node26&#45;&gt;Node14 -->
<g id="edge34" class="edge">
<title>Node26&#45;&gt;Node14</title>
<path fill="none" stroke="midnightblue" d="M901.46,-112.44C882.38,-103.64 852.43,-89.81 830.56,-79.72"/>
<polygon fill="midnightblue" stroke="midnightblue" points="832,-76.53 821.45,-75.52 829.07,-82.88 832,-76.53"/>
</g>
<!-- Node26&#45;&gt;Node25 -->
<g id="edge33" class="edge">
<title>Node26&#45;&gt;Node25</title>
<path fill="none" stroke="midnightblue" d="M951.22,-112.44C984.93,-103.2 1038.8,-88.44 1075.93,-78.26"/>
<polygon fill="midnightblue" stroke="midnightblue" points="1077.21,-81.54 1085.93,-75.52 1075.36,-74.78 1077.21,-81.54"/>
</g>
<!-- Node27&#45;&gt;Node14 -->
<g id="edge36" class="edge">
<title>Node27&#45;&gt;Node14</title>
<path fill="none" stroke="midnightblue" d="M803,-112.08C803,-105.01 803,-94.86 803,-85.99"/>
<polygon fill="midnightblue" stroke="midnightblue" points="806.5,-85.75 803,-75.75 799.5,-85.75 806.5,-85.75"/>
</g>
<!-- Node28&#45;&gt;Node14 -->
<g id="edge38" class="edge">
<title>Node28&#45;&gt;Node14</title>
<path fill="none" stroke="midnightblue" d="M719.91,-112.32C735.64,-103.74 759.94,-90.49 778.21,-80.52"/>
<polygon fill="midnightblue" stroke="midnightblue" points="780.03,-83.52 787.13,-75.65 776.68,-77.37 780.03,-83.52"/>
</g>
<!-- Node31 -->
<g id="node31" class="node">
<title>Node31</title>
<g id="a_node31"><a xlink:href="../../d0/d34/prefix_8hpp.html" target="_top" xlink:title=" ">
<polygon fill="none" stroke="black" points="1233.5,-112.5 1233.5,-131.5 1298.5,-131.5 1298.5,-112.5 1233.5,-112.5"/>
<text text-anchor="middle" x="1266" y="-119.5" font-family="Helvetica,sans-Serif" font-size="10.00">prefix.hpp</text>
</a>
</g>
</g>
<!-- Node30&#45;&gt;Node31 -->
<g id="edge42" class="edge">
<title>Node30&#45;&gt;Node31</title>
<path fill="none" stroke="midnightblue" d="M1168.33,-173.98C1187.21,-164.12 1218.51,-147.79 1240.58,-136.27"/>
<polygon fill="midnightblue" stroke="midnightblue" points="1242.45,-139.24 1249.7,-131.51 1239.21,-133.03 1242.45,-139.24"/>
</g>
<!-- Node32&#45;&gt;Node5 -->
<g id="edge44" class="edge">
<title>Node32&#45;&gt;Node5</title>
<path fill="none" stroke="midnightblue" d="M242.84,-112.32C234.5,-104.42 221.97,-92.55 211.82,-82.94"/>
<polygon fill="midnightblue" stroke="midnightblue" points="213.99,-80.17 204.32,-75.83 209.18,-85.25 213.99,-80.17"/>
</g>
<!-- Node32&#45;&gt;Node6 -->
<g id="edge45" class="edge">
<title>Node32&#45;&gt;Node6</title>
<path fill="none" stroke="midnightblue" d="M253.16,-112.08C254.08,-104.93 255.42,-94.64 256.58,-85.69"/>
<polygon fill="midnightblue" stroke="midnightblue" points="260.05,-86.12 257.87,-75.75 253.11,-85.22 260.05,-86.12"/>
</g>
<!-- Node32&#45;&gt;Node18 -->
<g id="edge46" class="edge">
<title>Node32&#45;&gt;Node18</title>
<path fill="none" stroke="midnightblue" d="M291.77,-112.44C337.62,-102.58 412.7,-86.43 459.91,-76.27"/>
<polygon fill="midnightblue" stroke="midnightblue" points="460.79,-79.66 469.83,-74.14 459.31,-72.82 460.79,-79.66"/>
</g>
</g>
</svg>
        <g id="navigator" transform="translate(0 0)" fill="#404254">
                <rect fill="#f2f5e9" fill-opacity="0.5" stroke="#606060" stroke-width=".5" x="0" y="0" width="60" height="60"/>
                <use id="zoomplus" xlink:href="#zoomPlus" x="17" y="9" onmousedown="handleZoom(evt,'in')"/>
                <use id="zoomminus" xlink:href="#zoomMin" x="42" y="9" onmousedown="handleZoom(evt,'out')"/>
                <use id="reset" xlink:href="#resetDef" x="30" y="36" onmousedown="handleReset()"/>
                <g id="arrowUp" xlink:href="#dirArrow" transform="translate(30 24)" onmousedown="handlePan(0,-1)">
                  <use xlink:href="#rim" fill="#404040">
                        <set attributeName="fill" to="#808080" begin="arrowUp.mouseover" end="arrowUp.mouseout"/>
                  </use>
                  <path fill="none" stroke="white" stroke-width="1.5" d="M0,-3.0v7 M-2.5,-0.5L0,-3.0L2.5,-0.5"/>
                </g>
                <g id="arrowRight" xlink:href="#dirArrow" transform="rotate(90) translate(36 -43)" onmousedown="handlePan(1,0)">
                  <use xlink:href="#rim" fill="#404040">
                        <set attributeName="fill" to="#808080" begin="arrowRight.mouseover" end="arrowRight.mouseout"/>
                  </use>
                  <path fill="none" stroke="white" stroke-width="1.5" d="M0,-3.0v7 M-2.5,-0.5L0,-3.0L2.5,-0.5"/>
                </g>
                <g id="arrowDown" xlink:href="#dirArrow" transform="rotate(180) translate(-30 -48)" onmousedown="handlePan(0,1)">
                  <use xlink:href="#rim" fill="#404040">
                        <set attributeName="fill" to="#808080" begin="arrowDown.mouseover" end="arrowDown.mouseout"/>
                  </use>
                  <path fill="none" stroke="white" stroke-width="1.5" d="M0,-3.0v7 M-2.5,-0.5L0,-3.0L2.5,-0.5"/>
                </g>
                <g id="arrowLeft" xlink:href="#dirArrow" transform="rotate(270) translate(-36 17)" onmousedown="handlePan(-1,0)">
                  <use xlink:href="#rim" fill="#404040">
                        <set attributeName="fill" to="#808080" begin="arrowLeft.mouseover" end="arrowLeft.mouseout"/>
                  </use>
                  <path fill="none" stroke="white" stroke-width="1.5" d="M0,-3.0v7 M-2.5,-0.5L0,-3.0L2.5,-0.5"/>
                </g>
        </g>
        <svg viewBox="0 0 15 15" width="100%" height="30px" preserveAspectRatio="xMaxYMin meet">
         <g id="arrow_out" transform="scale(0.3 0.3)">
          <a xlink:href="usort3_8cpp__incl_org.svg" target="_base">
           <rect id="button" ry="5" rx="5" y="6" x="6" height="38" width="38"
                fill="#f2f5e9" fill-opacity="0.5" stroke="#606060" stroke-width="1.0"/>
           <path id="arrow"
             d="M 11.500037,31.436501 C 11.940474,20.09759 22.043105,11.32322 32.158766,21.979434 L 37.068811,17.246167 C 37.068811,17.246167 37.088388,32 37.088388,32 L 22.160133,31.978069 C 22.160133,31.978069 26.997745,27.140456 26.997745,27.140456 C 18.528582,18.264221 13.291696,25.230495 11.500037,31.436501 z"
             style="fill:#404040;"/>
          </a>
         </g>
        </svg>
</svg>
