<?xml version="1.0" encoding="UTF-8" standalone="no"?>
<!DOCTYPE svg PUBLIC "-//W3C//DTD SVG 1.1//EN"
 "http://www.w3.org/Graphics/SVG/1.1/DTD/svg11.dtd">
<!-- Generated by graphviz version 5.0.1 (20220820.1526)
 -->
<!-- Title: uxn::patl::impl::trie_generic&lt; T, 0 &gt;::void_merge_handler Pages: 1 -->
<svg width="151pt" height="215pt"
 viewBox="0.00 0.00 151.00 215.00" xmlns="http://www.w3.org/2000/svg" xmlns:xlink="http://www.w3.org/1999/xlink">
<g id="graph0" class="graph" transform="scale(1 1) rotate(0) translate(4 211)">
<title>uxn::patl::impl::trie_generic&lt; T, 0 &gt;::void_merge_handler</title>
<!-- Node1 -->
<g id="node1" class="node">
<title>Node1</title>
<g id="a_node1"><a xlink:title=" ">
<polygon fill="#bfbfbf" stroke="black" points="0,-0.5 0,-90.5 143,-90.5 143,-0.5 0,-0.5"/>
<text text-anchor="start" x="8" y="-78.5" font-family="Helvetica,sans-Serif" font-size="10.00">uxn::patl::impl::trie</text>
<text text-anchor="start" x="8" y="-67.5" font-family="Helvetica,sans-Serif" font-size="10.00">_generic&lt; T, 0 &gt;::void</text>
<text text-anchor="middle" x="71.5" y="-56.5" font-family="Helvetica,sans-Serif" font-size="10.00">_merge_handler</text>
<polyline fill="none" stroke="black" points="0,-49.5 143,-49.5"/>
<text text-anchor="middle" x="71.5" y="-37.5" font-family="Helvetica,sans-Serif" font-size="10.00"> </text>
<polyline fill="none" stroke="black" points="0,-30.5 143,-30.5"/>
<text text-anchor="start" x="8" y="-18.5" font-family="Helvetica,sans-Serif" font-size="10.00">+ void operator()(iterator,</text>
<text text-anchor="start" x="8" y="-7.5" font-family="Helvetica,sans-Serif" font-size="10.00"> const_iterator) const</text>
</a>
</g>
</g>
<!-- Node2 -->
<g id="node2" class="node">
<title>Node2</title>
<g id="a_node2"><a xlink:title=" ">
<polygon fill="none" stroke="black" points="1.5,-127.5 1.5,-206.5 141.5,-206.5 141.5,-127.5 1.5,-127.5"/>
<text text-anchor="start" x="9.5" y="-194.5" font-family="Helvetica,sans-Serif" font-size="10.00">std::binary_function</text>
<text text-anchor="start" x="9.5" y="-183.5" font-family="Helvetica,sans-Serif" font-size="10.00">&lt; iterator, const_iterator,</text>
<text text-anchor="middle" x="71.5" y="-172.5" font-family="Helvetica,sans-Serif" font-size="10.00"> void &gt;</text>
<polyline fill="none" stroke="black" points="1.5,-165.5 141.5,-165.5"/>
<text text-anchor="middle" x="71.5" y="-153.5" font-family="Helvetica,sans-Serif" font-size="10.00"> </text>
<polyline fill="none" stroke="black" points="1.5,-146.5 141.5,-146.5"/>
<text text-anchor="middle" x="71.5" y="-134.5" font-family="Helvetica,sans-Serif" font-size="10.00"> </text>
</a>
</g>
</g>
<!-- Node2&#45;&gt;Node1 -->
<g id="edge1" class="edge">
<title>Node2&#45;&gt;Node1</title>
<path fill="none" stroke="midnightblue" d="M71.5,-117.19C71.5,-108.49 71.5,-99.48 71.5,-90.91"/>
<polygon fill="none" stroke="midnightblue" points="68,-117.2 71.5,-127.2 75,-117.2 68,-117.2"/>
</g>
</g>
</svg>
