<?xml version="1.0" encoding="UTF-8" standalone="no"?>
<!DOCTYPE svg PUBLIC "-//W3C//DTD SVG 1.1//EN"
 "http://www.w3.org/Graphics/SVG/1.1/DTD/svg11.dtd">
<!-- Generated by graphviz version 5.0.1 (20220820.1526)
 -->
<!-- Title: uxn::patl::bit_comparator&lt; T, N &gt; Pages: 1 -->
<!--zoomable 625 -->
<svg id="main" version="1.1" xmlns="http://www.w3.org/2000/svg" xmlns:xlink="http://www.w3.org/1999/xlink" xml:space="preserve" onload="init(evt)">
<style type="text/css"><![CDATA[
.edge:hover path { stroke: red; }
.edge:hover polygon { stroke: red; fill: red; }
]]></style>
<script type="text/javascript"><![CDATA[
var edges = document.getElementsByTagName('g');
if (edges && edges.length) {
  for (var i=0;i<edges.length;i++) {
    if (edges[i].id.substr(0,4)=='edge') {
      edges[i].setAttribute('class','edge');
    }
  }
}
]]></script>
        <defs>
                <circle id="rim" cx="0" cy="0" r="7"/>
                <circle id="rim2" cx="0" cy="0" r="3.5"/>
                <g id="zoomPlus">
                        <use xlink:href="#rim" fill="#404040">
                                <set attributeName="fill" to="#808080" begin="zoomplus.mouseover" end="zoomplus.mouseout"/>
                        </use>
                        <path d="M-4,0h8M0,-4v8" fill="none" stroke="white" stroke-width="1.5" pointer-events="none"/>
                </g>
                <g id="zoomMin">
                        <use xlink:href="#rim" fill="#404040">
                                <set attributeName="fill" to="#808080" begin="zoomminus.mouseover" end="zoomminus.mouseout"/>
                        </use>
                        <path d="M-4,0h8" fill="none" stroke="white" stroke-width="1.5" pointer-events="none"/>
                </g>
                <g id="dirArrow">
                        <path fill="none" stroke="white" stroke-width="1.5" d="M0,-3.0v7 M-2.5,-0.5L0,-3.0L2.5,-0.5"/>
                </g>
               <g id="resetDef">
                       <use xlink:href="#rim2" fill="#404040">
                               <set attributeName="fill" to="#808080" begin="reset.mouseover" end="reset.mouseout"/>
                       </use>
               </g>
        </defs>

<script type="text/javascript">
var viewWidth = 722;
var viewHeight = 625;
var sectionId = 'dynsection-0';
</script>
<script xlink:href="../../svgpan.js"/>
<svg id="graph" class="graph">
<g id="viewport">
<title>uxn::patl::bit_comparator&lt; T, N &gt;</title>
<!-- Node1 -->
<g id="node1" class="node">
<title>Node1</title>
<g id="a_node1"><a xlink:title=" ">
<polygon fill="#bfbfbf" stroke="black" points="309.5,-548.5 309.5,-616.5 449.5,-616.5 449.5,-548.5 309.5,-548.5"/>
<text text-anchor="start" x="317.5" y="-604.5" font-family="Helvetica,sans-Serif" font-size="10.00">uxn::patl::bit_comparator</text>
<text text-anchor="middle" x="379.5" y="-593.5" font-family="Helvetica,sans-Serif" font-size="10.00">&lt; T, N &gt;</text>
<polyline fill="none" stroke="black" points="309.5,-586.5 449.5,-586.5"/>
<text text-anchor="middle" x="379.5" y="-574.5" font-family="Helvetica,sans-Serif" font-size="10.00"> </text>
<polyline fill="none" stroke="black" points="309.5,-567.5 449.5,-567.5"/>
<text text-anchor="middle" x="379.5" y="-555.5" font-family="Helvetica,sans-Serif" font-size="10.00"> </text>
</a>
</g>
</g>
<!-- Node2 -->
<g id="node2" class="node">
<title>Node2</title>
<g id="a_node2"><a xlink:href="../../dc/de3/classuxn_1_1patl_1_1bit__comparator_3_01piece_3_01T_01_4_01_4.html" target="_top" xlink:title="bit&#45;comparator for piece&lt;T&gt;">
<polygon fill="none" stroke="black" points="76.5,-300.5 76.5,-500.5 228.5,-500.5 228.5,-300.5 76.5,-300.5"/>
<text text-anchor="start" x="84.5" y="-488.5" font-family="Helvetica,sans-Serif" font-size="10.00">uxn::patl::bit_comparator</text>
<text text-anchor="middle" x="152.5" y="-477.5" font-family="Helvetica,sans-Serif" font-size="10.00">&lt; piece&lt; T &gt; &gt;</text>
<polyline fill="none" stroke="black" points="76.5,-470.5 228.5,-470.5"/>
<text text-anchor="start" x="84.5" y="-458.5" font-family="Helvetica,sans-Serif" font-size="10.00">+ static const word_t</text>
<text text-anchor="start" x="84.5" y="-447.5" font-family="Helvetica,sans-Serif" font-size="10.00"> bit_size</text>
<polyline fill="none" stroke="black" points="76.5,-440.5 228.5,-440.5"/>
<text text-anchor="start" x="84.5" y="-428.5" font-family="Helvetica,sans-Serif" font-size="10.00">+ word_t bit_length(const</text>
<text text-anchor="start" x="84.5" y="-417.5" font-family="Helvetica,sans-Serif" font-size="10.00"> value_type &amp;s) const</text>
<text text-anchor="start" x="84.5" y="-406.5" font-family="Helvetica,sans-Serif" font-size="10.00">+ word_t get_bit(const</text>
<text text-anchor="start" x="84.5" y="-395.5" font-family="Helvetica,sans-Serif" font-size="10.00"> value_type &amp;s, word</text>
<text text-anchor="start" x="84.5" y="-384.5" font-family="Helvetica,sans-Serif" font-size="10.00">_t id) const</text>
<text text-anchor="start" x="84.5" y="-373.5" font-family="Helvetica,sans-Serif" font-size="10.00">+ word_t bit_mismatch</text>
<text text-anchor="start" x="84.5" y="-362.5" font-family="Helvetica,sans-Serif" font-size="10.00">(const value_type &amp;a,</text>
<text text-anchor="start" x="84.5" y="-351.5" font-family="Helvetica,sans-Serif" font-size="10.00"> const value_type &amp;b)</text>
<text text-anchor="start" x="84.5" y="-340.5" font-family="Helvetica,sans-Serif" font-size="10.00"> const</text>
<text text-anchor="start" x="84.5" y="-329.5" font-family="Helvetica,sans-Serif" font-size="10.00">&#45; word_t mismatch_intern</text>
<text text-anchor="start" x="84.5" y="-318.5" font-family="Helvetica,sans-Serif" font-size="10.00">(const value_type &amp;a,</text>
<text text-anchor="start" x="84.5" y="-307.5" font-family="Helvetica,sans-Serif" font-size="10.00"> const value_type &amp;b) const</text>
</a>
</g>
</g>
<!-- Node1&#45;&gt;Node2 -->
<g id="edge1" class="edge">
<title>Node1&#45;&gt;Node2</title>
<path fill="none" stroke="midnightblue" d="M301.08,-543.46C279.47,-531.31 256.71,-516.85 237.5,-501 234.52,-498.54 231.56,-495.97 228.63,-493.32"/>
<polygon fill="none" stroke="midnightblue" points="299.48,-546.57 309.93,-548.34 302.87,-540.45 299.48,-546.57"/>
</g>
<!-- Node3 -->
<g id="node3" class="node">
<title>Node3</title>
<g id="a_node3"><a xlink:href="../../d2/db7/classuxn_1_1patl_1_1bit__comparator.html" target="_top" xlink:title=" ">
<polygon fill="none" stroke="black" points="246.5,-366.5 246.5,-434.5 386.5,-434.5 386.5,-366.5 246.5,-366.5"/>
<text text-anchor="start" x="254.5" y="-422.5" font-family="Helvetica,sans-Serif" font-size="10.00">uxn::patl::bit_comparator</text>
<text text-anchor="middle" x="316.5" y="-411.5" font-family="Helvetica,sans-Serif" font-size="10.00">&lt; word_t, 0 &gt;</text>
<polyline fill="none" stroke="black" points="246.5,-404.5 386.5,-404.5"/>
<text text-anchor="middle" x="316.5" y="-392.5" font-family="Helvetica,sans-Serif" font-size="10.00"> </text>
<polyline fill="none" stroke="black" points="246.5,-385.5 386.5,-385.5"/>
<text text-anchor="middle" x="316.5" y="-373.5" font-family="Helvetica,sans-Serif" font-size="10.00"> </text>
</a>
</g>
</g>
<!-- Node1&#45;&gt;Node3 -->
<g id="edge2" class="edge">
<title>Node1&#45;&gt;Node3</title>
<path fill="none" stroke="orange" d="M364.61,-538.97C353.44,-507.05 338.37,-463.98 328.09,-434.61"/>
<polygon fill="orange" stroke="orange" points="361.34,-540.2 367.94,-548.49 367.94,-537.89 361.34,-540.2"/>
<text text-anchor="middle" x="397" y="-522" font-family="Helvetica,sans-Serif" font-size="10.00"> &lt; word_t, 0 &gt;</text>
</g>
<!-- Node8 -->
<g id="node8" class="node">
<title>Node8</title>
<g id="a_node8"><a xlink:href="../../d2/db7/classuxn_1_1patl_1_1bit__comparator.html" target="_top" xlink:title=" ">
<polygon fill="none" stroke="black" points="404.5,-366.5 404.5,-434.5 544.5,-434.5 544.5,-366.5 404.5,-366.5"/>
<text text-anchor="start" x="412.5" y="-422.5" font-family="Helvetica,sans-Serif" font-size="10.00">uxn::patl::bit_comparator</text>
<text text-anchor="middle" x="474.5" y="-411.5" font-family="Helvetica,sans-Serif" font-size="10.00">&lt; char, 0 &gt;</text>
<polyline fill="none" stroke="black" points="404.5,-404.5 544.5,-404.5"/>
<text text-anchor="middle" x="474.5" y="-392.5" font-family="Helvetica,sans-Serif" font-size="10.00"> </text>
<polyline fill="none" stroke="black" points="404.5,-385.5 544.5,-385.5"/>
<text text-anchor="middle" x="474.5" y="-373.5" font-family="Helvetica,sans-Serif" font-size="10.00"> </text>
</a>
</g>
</g>
<!-- Node1&#45;&gt;Node8 -->
<g id="edge7" class="edge">
<title>Node1&#45;&gt;Node8</title>
<path fill="none" stroke="orange" d="M428.43,-540.99C431.38,-537.46 434.12,-533.78 436.5,-530 454.97,-500.66 464.81,-461.95 469.81,-434.71"/>
<polygon fill="orange" stroke="orange" points="425.77,-538.72 421.65,-548.48 430.96,-543.41 425.77,-538.72"/>
<text text-anchor="middle" x="472" y="-522" font-family="Helvetica,sans-Serif" font-size="10.00"> &lt; char, 0 &gt;</text>
</g>
<!-- Node10 -->
<g id="node10" class="node">
<title>Node10</title>
<g id="a_node10"><a xlink:href="../../d2/db7/classuxn_1_1patl_1_1bit__comparator.html" target="_top" xlink:title=" ">
<polygon fill="none" stroke="black" points="565.5,-366.5 565.5,-434.5 705.5,-434.5 705.5,-366.5 565.5,-366.5"/>
<text text-anchor="start" x="573.5" y="-422.5" font-family="Helvetica,sans-Serif" font-size="10.00">uxn::patl::bit_comparator</text>
<text text-anchor="middle" x="635.5" y="-411.5" font-family="Helvetica,sans-Serif" font-size="10.00">&lt; unsigned char, 0 &gt;</text>
<polyline fill="none" stroke="black" points="565.5,-404.5 705.5,-404.5"/>
<text text-anchor="middle" x="635.5" y="-392.5" font-family="Helvetica,sans-Serif" font-size="10.00"> </text>
<polyline fill="none" stroke="black" points="565.5,-385.5 705.5,-385.5"/>
<text text-anchor="middle" x="635.5" y="-373.5" font-family="Helvetica,sans-Serif" font-size="10.00"> </text>
</a>
</g>
</g>
<!-- Node1&#45;&gt;Node10 -->
<g id="edge9" class="edge">
<title>Node1&#45;&gt;Node10</title>
<path fill="none" stroke="orange" d="M459.59,-555.4C491.18,-542.45 526.34,-524.47 553.5,-501 576.03,-481.54 597.28,-455.44 612.5,-434.86"/>
<polygon fill="orange" stroke="orange" points="457.9,-552.3 449.91,-559.26 460.49,-558.81 457.9,-552.3"/>
<text text-anchor="middle" x="582.5" y="-522" font-family="Helvetica,sans-Serif" font-size="10.00"> &lt; unsigned char, 0 &gt;</text>
</g>
<!-- Node4 -->
<g id="node4" class="node">
<title>Node4</title>
<g id="a_node4"><a xlink:href="../../d3/df8/classuxn_1_1patl_1_1bit__comparator_3_01T_01_5_5_00_010_01_4.html" target="_top" xlink:title="simple infinite (T**) string (treat (T*) as word_t)">
<polygon fill="none" stroke="black" points="82.5,-117.5 82.5,-262.5 228.5,-262.5 228.5,-117.5 82.5,-117.5"/>
<text text-anchor="start" x="90.5" y="-250.5" font-family="Helvetica,sans-Serif" font-size="10.00">uxn::patl::bit_comparator</text>
<text text-anchor="middle" x="155.5" y="-239.5" font-family="Helvetica,sans-Serif" font-size="10.00">&lt; T **, 0 &gt;</text>
<polyline fill="none" stroke="black" points="82.5,-232.5 228.5,-232.5"/>
<text text-anchor="start" x="90.5" y="-220.5" font-family="Helvetica,sans-Serif" font-size="10.00">+ static const word_t</text>
<text text-anchor="start" x="90.5" y="-209.5" font-family="Helvetica,sans-Serif" font-size="10.00"> bit_size</text>
<polyline fill="none" stroke="black" points="82.5,-202.5 228.5,-202.5"/>
<text text-anchor="start" x="90.5" y="-190.5" font-family="Helvetica,sans-Serif" font-size="10.00">+ word_t bit_length(T</text>
<text text-anchor="start" x="90.5" y="-179.5" font-family="Helvetica,sans-Serif" font-size="10.00"> *const *) const</text>
<text text-anchor="start" x="90.5" y="-168.5" font-family="Helvetica,sans-Serif" font-size="10.00">+ word_t get_bit(T *const</text>
<text text-anchor="start" x="90.5" y="-157.5" font-family="Helvetica,sans-Serif" font-size="10.00"> *s, word_t id) const</text>
<text text-anchor="start" x="90.5" y="-146.5" font-family="Helvetica,sans-Serif" font-size="10.00">+ word_t bit_mismatch</text>
<text text-anchor="start" x="90.5" y="-135.5" font-family="Helvetica,sans-Serif" font-size="10.00">(T *const *ap, T *const</text>
<text text-anchor="start" x="90.5" y="-124.5" font-family="Helvetica,sans-Serif" font-size="10.00"> *bp, word_t skip=0) const</text>
</a>
</g>
</g>
<!-- Node3&#45;&gt;Node4 -->
<g id="edge3" class="edge">
<title>Node3&#45;&gt;Node4</title>
<path fill="none" stroke="midnightblue" d="M284.7,-358.32C263.67,-331.09 235.54,-294.65 210.89,-262.74"/>
<polygon fill="none" stroke="midnightblue" points="282.11,-360.69 290.99,-366.46 287.65,-356.41 282.11,-360.69"/>
</g>
<!-- Node7 -->
<g id="node7" class="node">
<title>Node7</title>
<g id="a_node7"><a xlink:href="../../de/db8/classuxn_1_1patl_1_1bit__comparator_3_01word__t_00_0116_01_4.html" target="_top" xlink:title=" ">
<polygon fill="none" stroke="black" points="246.5,-150.5 246.5,-229.5 386.5,-229.5 386.5,-150.5 246.5,-150.5"/>
<text text-anchor="start" x="254.5" y="-217.5" font-family="Helvetica,sans-Serif" font-size="10.00">uxn::patl::bit_comparator</text>
<text text-anchor="middle" x="316.5" y="-206.5" font-family="Helvetica,sans-Serif" font-size="10.00">&lt; word_t, 16 &gt;</text>
<polyline fill="none" stroke="black" points="246.5,-199.5 386.5,-199.5"/>
<text text-anchor="middle" x="316.5" y="-187.5" font-family="Helvetica,sans-Serif" font-size="10.00"> </text>
<polyline fill="none" stroke="black" points="246.5,-180.5 386.5,-180.5"/>
<text text-anchor="start" x="254.5" y="-168.5" font-family="Helvetica,sans-Serif" font-size="10.00">&#45; word_t get_bits(word</text>
<text text-anchor="start" x="254.5" y="-157.5" font-family="Helvetica,sans-Serif" font-size="10.00">_t val, word_t off) const</text>
</a>
</g>
</g>
<!-- Node3&#45;&gt;Node7 -->
<g id="edge6" class="edge">
<title>Node3&#45;&gt;Node7</title>
<path fill="none" stroke="midnightblue" d="M316.5,-356.39C316.5,-319.04 316.5,-265.5 316.5,-229.55"/>
<polygon fill="none" stroke="midnightblue" points="313,-356.46 316.5,-366.46 320,-356.46 313,-356.46"/>
</g>
<!-- Node5 -->
<g id="node5" class="node">
<title>Node5</title>
<g id="a_node5"><a xlink:href="../../d2/deb/classuxn_1_1patl_1_1bit__comparator_3_01T_01_5_5_00_0116_01_4.html" target="_top" xlink:title=" ">
<polygon fill="none" stroke="black" points="0,-0.5 0,-79.5 147,-79.5 147,-0.5 0,-0.5"/>
<text text-anchor="start" x="8" y="-67.5" font-family="Helvetica,sans-Serif" font-size="10.00">uxn::patl::bit_comparator</text>
<text text-anchor="middle" x="73.5" y="-56.5" font-family="Helvetica,sans-Serif" font-size="10.00">&lt; T **, 16 &gt;</text>
<polyline fill="none" stroke="black" points="0,-49.5 147,-49.5"/>
<text text-anchor="middle" x="73.5" y="-37.5" font-family="Helvetica,sans-Serif" font-size="10.00"> </text>
<polyline fill="none" stroke="black" points="0,-30.5 147,-30.5"/>
<text text-anchor="start" x="8" y="-18.5" font-family="Helvetica,sans-Serif" font-size="10.00">+ word_t get_bits(T *const</text>
<text text-anchor="start" x="8" y="-7.5" font-family="Helvetica,sans-Serif" font-size="10.00"> *s, word_t off) const</text>
</a>
</g>
</g>
<!-- Node4&#45;&gt;Node5 -->
<g id="edge4" class="edge">
<title>Node4&#45;&gt;Node5</title>
<path fill="none" stroke="midnightblue" d="M110.82,-108.36C105.29,-98.37 99.84,-88.54 94.89,-79.61"/>
<polygon fill="none" stroke="midnightblue" points="107.79,-110.12 115.7,-117.17 113.92,-106.72 107.79,-110.12"/>
</g>
<!-- Node6 -->
<g id="node6" class="node">
<title>Node6</title>
<g id="a_node6"><a xlink:href="../../d4/da8/classuxn_1_1patl_1_1bit__comparator_3_01T_01_5_5_00_018_01_4.html" target="_top" xlink:title=" ">
<polygon fill="none" stroke="black" points="165,-0.5 165,-79.5 312,-79.5 312,-0.5 165,-0.5"/>
<text text-anchor="start" x="173" y="-67.5" font-family="Helvetica,sans-Serif" font-size="10.00">uxn::patl::bit_comparator</text>
<text text-anchor="middle" x="238.5" y="-56.5" font-family="Helvetica,sans-Serif" font-size="10.00">&lt; T **, 8 &gt;</text>
<polyline fill="none" stroke="black" points="165,-49.5 312,-49.5"/>
<text text-anchor="middle" x="238.5" y="-37.5" font-family="Helvetica,sans-Serif" font-size="10.00"> </text>
<polyline fill="none" stroke="black" points="165,-30.5 312,-30.5"/>
<text text-anchor="start" x="173" y="-18.5" font-family="Helvetica,sans-Serif" font-size="10.00">+ word_t get_bits(T *const</text>
<text text-anchor="start" x="173" y="-7.5" font-family="Helvetica,sans-Serif" font-size="10.00"> *s, word_t off) const</text>
</a>
</g>
</g>
<!-- Node4&#45;&gt;Node6 -->
<g id="edge5" class="edge">
<title>Node4&#45;&gt;Node6</title>
<path fill="none" stroke="midnightblue" d="M200.72,-108.36C206.33,-98.37 211.84,-88.54 216.85,-79.61"/>
<polygon fill="none" stroke="midnightblue" points="197.62,-106.73 195.78,-117.17 203.73,-110.16 197.62,-106.73"/>
</g>
<!-- Node9 -->
<g id="node9" class="node">
<title>Node9</title>
<g id="a_node9"><a xlink:href="../../d3/d25/classuxn_1_1patl_1_1bit__comparator_3_01char_00_018_01_4.html" target="_top" xlink:title=" ">
<polygon fill="none" stroke="black" points="404.5,-150.5 404.5,-229.5 544.5,-229.5 544.5,-150.5 404.5,-150.5"/>
<text text-anchor="start" x="412.5" y="-217.5" font-family="Helvetica,sans-Serif" font-size="10.00">uxn::patl::bit_comparator</text>
<text text-anchor="middle" x="474.5" y="-206.5" font-family="Helvetica,sans-Serif" font-size="10.00">&lt; char, 8 &gt;</text>
<polyline fill="none" stroke="black" points="404.5,-199.5 544.5,-199.5"/>
<text text-anchor="middle" x="474.5" y="-187.5" font-family="Helvetica,sans-Serif" font-size="10.00"> </text>
<polyline fill="none" stroke="black" points="404.5,-180.5 544.5,-180.5"/>
<text text-anchor="start" x="412.5" y="-168.5" font-family="Helvetica,sans-Serif" font-size="10.00">+ word_t get_bits(char</text>
<text text-anchor="start" x="412.5" y="-157.5" font-family="Helvetica,sans-Serif" font-size="10.00"> val, word_t) const</text>
</a>
</g>
</g>
<!-- Node8&#45;&gt;Node9 -->
<g id="edge8" class="edge">
<title>Node8&#45;&gt;Node9</title>
<path fill="none" stroke="midnightblue" d="M474.5,-356.39C474.5,-319.04 474.5,-265.5 474.5,-229.55"/>
<polygon fill="none" stroke="midnightblue" points="471,-356.46 474.5,-366.46 478,-356.46 471,-356.46"/>
</g>
<!-- Node11 -->
<g id="node11" class="node">
<title>Node11</title>
<g id="a_node11"><a xlink:href="../../d5/dc5/classuxn_1_1patl_1_1bit__comparator_3_01unsigned_01char_00_018_01_4.html" target="_top" xlink:title=" ">
<polygon fill="none" stroke="black" points="563,-150.5 563,-229.5 714,-229.5 714,-150.5 563,-150.5"/>
<text text-anchor="start" x="571" y="-217.5" font-family="Helvetica,sans-Serif" font-size="10.00">uxn::patl::bit_comparator</text>
<text text-anchor="middle" x="638.5" y="-206.5" font-family="Helvetica,sans-Serif" font-size="10.00">&lt; unsigned char, 8 &gt;</text>
<polyline fill="none" stroke="black" points="563,-199.5 714,-199.5"/>
<text text-anchor="middle" x="638.5" y="-187.5" font-family="Helvetica,sans-Serif" font-size="10.00"> </text>
<polyline fill="none" stroke="black" points="563,-180.5 714,-180.5"/>
<text text-anchor="start" x="571" y="-168.5" font-family="Helvetica,sans-Serif" font-size="10.00">+ word_t get_bits(unsigned</text>
<text text-anchor="start" x="571" y="-157.5" font-family="Helvetica,sans-Serif" font-size="10.00"> char val, word_t) const</text>
</a>
</g>
</g>
<!-- Node10&#45;&gt;Node11 -->
<g id="edge10" class="edge">
<title>Node10&#45;&gt;Node11</title>
<path fill="none" stroke="midnightblue" d="M636.12,-356.39C636.66,-319.04 637.43,-265.5 637.95,-229.55"/>
<polygon fill="none" stroke="midnightblue" points="632.62,-356.41 635.98,-366.46 639.62,-356.51 632.62,-356.41"/>
</g>
</g>
</svg>
        <g id="navigator" transform="translate(0 0)" fill="#404254">
                <rect fill="#f2f5e9" fill-opacity="0.5" stroke="#606060" stroke-width=".5" x="0" y="0" width="60" height="60"/>
                <use id="zoomplus" xlink:href="#zoomPlus" x="17" y="9" onmousedown="handleZoom(evt,'in')"/>
                <use id="zoomminus" xlink:href="#zoomMin" x="42" y="9" onmousedown="handleZoom(evt,'out')"/>
                <use id="reset" xlink:href="#resetDef" x="30" y="36" onmousedown="handleReset()"/>
                <g id="arrowUp" xlink:href="#dirArrow" transform="translate(30 24)" onmousedown="handlePan(0,-1)">
                  <use xlink:href="#rim" fill="#404040">
                        <set attributeName="fill" to="#808080" begin="arrowUp.mouseover" end="arrowUp.mouseout"/>
                  </use>
                  <path fill="none" stroke="white" stroke-width="1.5" d="M0,-3.0v7 M-2.5,-0.5L0,-3.0L2.5,-0.5"/>
                </g>
                <g id="arrowRight" xlink:href="#dirArrow" transform="rotate(90) translate(36 -43)" onmousedown="handlePan(1,0)">
                  <use xlink:href="#rim" fill="#404040">
                        <set attributeName="fill" to="#808080" begin="arrowRight.mouseover" end="arrowRight.mouseout"/>
                  </use>
                  <path fill="none" stroke="white" stroke-width="1.5" d="M0,-3.0v7 M-2.5,-0.5L0,-3.0L2.5,-0.5"/>
                </g>
                <g id="arrowDown" xlink:href="#dirArrow" transform="rotate(180) translate(-30 -48)" onmousedown="handlePan(0,1)">
                  <use xlink:href="#rim" fill="#404040">
                        <set attributeName="fill" to="#808080" begin="arrowDown.mouseover" end="arrowDown.mouseout"/>
                  </use>
                  <path fill="none" stroke="white" stroke-width="1.5" d="M0,-3.0v7 M-2.5,-0.5L0,-3.0L2.5,-0.5"/>
                </g>
                <g id="arrowLeft" xlink:href="#dirArrow" transform="rotate(270) translate(-36 17)" onmousedown="handlePan(-1,0)">
                  <use xlink:href="#rim" fill="#404040">
                        <set attributeName="fill" to="#808080" begin="arrowLeft.mouseover" end="arrowLeft.mouseout"/>
                  </use>
                  <path fill="none" stroke="white" stroke-width="1.5" d="M0,-3.0v7 M-2.5,-0.5L0,-3.0L2.5,-0.5"/>
                </g>
        </g>
        <svg viewBox="0 0 15 15" width="100%" height="30px" preserveAspectRatio="xMaxYMin meet">
         <g id="arrow_out" transform="scale(0.3 0.3)">
          <a xlink:href="classuxn_1_1patl_1_1bit__comparator__inherit__graph_org.svg" target="_base">
           <rect id="button" ry="5" rx="5" y="6" x="6" height="38" width="38"
                fill="#f2f5e9" fill-opacity="0.5" stroke="#606060" stroke-width="1.0"/>
           <path id="arrow"
             d="M 11.500037,31.436501 C 11.940474,20.09759 22.043105,11.32322 32.158766,21.979434 L 37.068811,17.246167 C 37.068811,17.246167 37.088388,32 37.088388,32 L 22.160133,31.978069 C 22.160133,31.978069 26.997745,27.140456 26.997745,27.140456 C 18.528582,18.264221 13.291696,25.230495 11.500037,31.436501 z"
             style="fill:#404040;"/>
          </a>
         </g>
        </svg>
</svg>
