<?xml version="1.0" encoding="UTF-8" standalone="no"?>
<!DOCTYPE svg PUBLIC "-//W3C//DTD SVG 1.1//EN"
 "http://www.w3.org/Graphics/SVG/1.1/DTD/svg11.dtd">
<!-- Generated by graphviz version 5.0.1 (20220820.1526)
 -->
<!-- Title: uxn::patl::bit_comparator&lt; T, 0 &gt;::bit_mismatch Pages: 1 -->
<svg width="489pt" height="78pt"
 viewBox="0.00 0.00 489.00 77.50" xmlns="http://www.w3.org/2000/svg" xmlns:xlink="http://www.w3.org/1999/xlink">
<g id="graph0" class="graph" transform="scale(1 1) rotate(0) translate(4 73.5)">
<title>uxn::patl::bit_comparator&lt; T, 0 &gt;::bit_mismatch</title>
<!-- Node1 -->
<g id="node1" class="node">
<title>Node1</title>
<g id="a_node1"><a xlink:title="return id of first mismatch bit, ~word_t(0) if keys are equal">
<polygon fill="#bfbfbf" stroke="black" points="0,-17 0,-47 140,-47 140,-17 0,-17"/>
<text text-anchor="start" x="8" y="-35" font-family="Helvetica,sans-Serif" font-size="10.00">uxn::patl::bit_comparator</text>
<text text-anchor="middle" x="70" y="-24" font-family="Helvetica,sans-Serif" font-size="10.00">&lt; T, 0 &gt;::bit_mismatch</text>
</a>
</g>
</g>
<!-- Node2 -->
<g id="node2" class="node">
<title>Node2</title>
<g id="a_node2"><a xlink:href="../../dd/d0e/namespaceuxn_1_1patl_1_1impl.html#acbcc8d4c2223361c247be1441ccfe37d" target="_top" xlink:title=" ">
<polygon fill="none" stroke="black" points="176,-17 176,-47 282,-47 282,-17 176,-17"/>
<text text-anchor="start" x="184" y="-35" font-family="Helvetica,sans-Serif" font-size="10.00">uxn::patl::impl::bit</text>
<text text-anchor="middle" x="229" y="-24" font-family="Helvetica,sans-Serif" font-size="10.00">_mismatch_scalar</text>
</a>
</g>
</g>
<!-- Node1&#45;&gt;Node2 -->
<g id="edge1" class="edge">
<title>Node1&#45;&gt;Node2</title>
<path fill="none" stroke="midnightblue" d="M140.32,-32C148.64,-32 157.09,-32 165.31,-32"/>
<polygon fill="midnightblue" stroke="midnightblue" points="165.56,-35.5 175.56,-32 165.56,-28.5 165.56,-35.5"/>
</g>
<!-- Node3 -->
<g id="node3" class="node">
<title>Node3</title>
<g id="a_node3"><a xlink:href="../../dd/d0e/namespaceuxn_1_1patl_1_1impl.html#ad5c1d1bf1ee87d90001fa0941be4aa4b" target="_top" xlink:title=" ">
<polygon fill="none" stroke="black" points="345,-39 345,-69 454,-69 454,-39 345,-39"/>
<text text-anchor="start" x="353" y="-57" font-family="Helvetica,sans-Serif" font-size="10.00">uxn::patl::impl::get</text>
<text text-anchor="middle" x="399.5" y="-46" font-family="Helvetica,sans-Serif" font-size="10.00">_highest_bit_id</text>
</a>
</g>
</g>
<!-- Node2&#45;&gt;Node3 -->
<g id="edge2" class="edge">
<title>Node2&#45;&gt;Node3</title>
<path fill="none" stroke="midnightblue" d="M282.39,-38.84C299.03,-41.01 317.61,-43.44 334.94,-45.7"/>
<polygon fill="midnightblue" stroke="midnightblue" points="334.61,-49.19 344.98,-47.01 335.52,-42.25 334.61,-49.19"/>
</g>
<!-- Node4 -->
<g id="node4" class="node">
<title>Node4</title>
<g id="a_node4"><a xlink:href="../../dd/d0e/namespaceuxn_1_1patl_1_1impl.html#aee8c5d28b66c9414c5e96b1080abbc78" target="_top" xlink:title=" ">
<polygon fill="none" stroke="black" points="318,-0.5 318,-19.5 481,-19.5 481,-0.5 318,-0.5"/>
<text text-anchor="middle" x="399.5" y="-7.5" font-family="Helvetica,sans-Serif" font-size="10.00">uxn::patl::impl::unsigned_cast</text>
</a>
</g>
</g>
<!-- Node2&#45;&gt;Node4 -->
<g id="edge3" class="edge">
<title>Node2&#45;&gt;Node4</title>
<path fill="none" stroke="midnightblue" d="M282.39,-25.16C293,-23.77 304.4,-22.29 315.77,-20.8"/>
<polygon fill="midnightblue" stroke="midnightblue" points="316.26,-24.27 325.72,-19.5 315.35,-17.33 316.26,-24.27"/>
</g>
</g>
</svg>
