<?xml version="1.0" encoding="UTF-8" standalone="no"?>
<!DOCTYPE svg PUBLIC "-//W3C//DTD SVG 1.1//EN"
 "http://www.w3.org/Graphics/SVG/1.1/DTD/svg11.dtd">
<!-- Generated by graphviz version 5.0.1 (20220820.1526)
 -->
<!-- Title: uxn/demos/multi_align/multi_align.cpp Pages: 1 -->
<!--zoomable 386 -->
<svg id="main" version="1.1" xmlns="http://www.w3.org/2000/svg" xmlns:xlink="http://www.w3.org/1999/xlink" xml:space="preserve" onload="init(evt)">
<style type="text/css"><![CDATA[
.edge:hover path { stroke: red; }
.edge:hover polygon { stroke: red; fill: red; }
]]></style>
<script type="text/javascript"><![CDATA[
var edges = document.getElementsByTagName('g');
if (edges && edges.length) {
  for (var i=0;i<edges.length;i++) {
    if (edges[i].id.substr(0,4)=='edge') {
      edges[i].setAttribute('class','edge');
    }
  }
}
]]></script>
        <defs>
                <circle id="rim" cx="0" cy="0" r="7"/>
                <circle id="rim2" cx="0" cy="0" r="3.5"/>
                <g id="zoomPlus">
                        <use xlink:href="#rim" fill="#404040">
                                <set attributeName="fill" to="#808080" begin="zoomplus.mouseover" end="zoomplus.mouseout"/>
                        </use>
                        <path d="M-4,0h8M0,-4v8" fill="none" stroke="white" stroke-width="1.5" pointer-events="none"/>
                </g>
                <g id="zoomMin">
                        <use xlink:href="#rim" fill="#404040">
                                <set attributeName="fill" to="#808080" begin="zoomminus.mouseover" end="zoomminus.mouseout"/>
                        </use>
                        <path d="M-4,0h8" fill="none" stroke="white" stroke-width="1.5" pointer-events="none"/>
                </g>
                <g id="dirArrow">
                        <path fill="none" stroke="white" stroke-width="1.5" d="M0,-3.0v7 M-2.5,-0.5L0,-3.0L2.5,-0.5"/>
                </g>
               <g id="resetDef">
                       <use xlink:href="#rim2" fill="#404040">
                               <set attributeName="fill" to="#808080" begin="reset.mouseover" end="reset.mouseout"/>
                       </use>
               </g>
        </defs>

<script type="text/javascript">
var viewWidth = 1414;
var viewHeight = 386;
var sectionId = 'dynsection-0';
</script>
<script xlink:href="../../svgpan.js"/>
<svg id="graph" class="graph">
<g id="viewport">
<title>uxn/demos/multi_align/multi_align.cpp</title>
<!-- Node1 -->
<g id="node1" class="node">
<title>Node1</title>
<g id="a_node1"><a xlink:title=" ">
<polygon fill="#bfbfbf" stroke="black" points="1005.5,-347.5 1005.5,-377.5 1133.5,-377.5 1133.5,-347.5 1005.5,-347.5"/>
<text text-anchor="start" x="1013.5" y="-365.5" font-family="Helvetica,sans-Serif" font-size="10.00">uxn/demos/multi_align</text>
<text text-anchor="middle" x="1069.5" y="-354.5" font-family="Helvetica,sans-Serif" font-size="10.00">/multi_align.cpp</text>
</a>
</g>
</g>
<!-- Node2 -->
<g id="node2" class="node">
<title>Node2</title>
<g id="a_node2"><a xlink:href="../../d4/dc0/suffix__set_8hpp.html" target="_top" xlink:title=" ">
<polygon fill="none" stroke="black" points="482.5,-286 482.5,-305 610.5,-305 610.5,-286 482.5,-286"/>
<text text-anchor="middle" x="546.5" y="-293" font-family="Helvetica,sans-Serif" font-size="10.00">uxn/patl/suffix_set.hpp</text>
</a>
</g>
</g>
<!-- Node1&#45;&gt;Node2 -->
<g id="edge1" class="edge">
<title>Node1&#45;&gt;Node2</title>
<path fill="none" stroke="midnightblue" d="M1005.37,-353.53C908.09,-341.44 723.71,-318.52 620.75,-305.73"/>
<polygon fill="midnightblue" stroke="midnightblue" points="621.1,-302.24 610.74,-304.48 620.24,-309.19 621.1,-302.24"/>
</g>
<!-- Node21 -->
<g id="node21" class="node">
<title>Node21</title>
<g id="a_node21"><a xlink:title=" ">
<polygon fill="none" stroke="#bfbfbf" points="966.5,-112.5 966.5,-131.5 1004.5,-131.5 1004.5,-112.5 966.5,-112.5"/>
<text text-anchor="middle" x="985.5" y="-119.5" font-family="Helvetica,sans-Serif" font-size="10.00">map</text>
</a>
</g>
</g>
<!-- Node1&#45;&gt;Node21 -->
<g id="edge42" class="edge">
<title>Node1&#45;&gt;Node21</title>
<path fill="none" stroke="midnightblue" d="M1036.4,-347.45C1021.2,-339.18 1004.58,-327.13 995.5,-311 964.55,-256 974.6,-177 981.41,-141.51"/>
<polygon fill="midnightblue" stroke="midnightblue" points="984.86,-142.1 983.45,-131.6 978,-140.69 984.86,-142.1"/>
</g>
<!-- Node27 -->
<g id="node27" class="node">
<title>Node27</title>
<g id="a_node27"><a xlink:href="../../d2/df8/lca__oracle_8hpp.html" target="_top" xlink:title=" ">
<polygon fill="none" stroke="black" points="1004.5,-286 1004.5,-305 1134.5,-305 1134.5,-286 1004.5,-286"/>
<text text-anchor="middle" x="1069.5" y="-293" font-family="Helvetica,sans-Serif" font-size="10.00">uxn/patl/lca_oracle.hpp</text>
</a>
</g>
</g>
<!-- Node1&#45;&gt;Node27 -->
<g id="edge35" class="edge">
<title>Node1&#45;&gt;Node27</title>
<path fill="none" stroke="midnightblue" d="M1069.5,-347.4C1069.5,-338.06 1069.5,-325.71 1069.5,-315.52"/>
<polygon fill="midnightblue" stroke="midnightblue" points="1073,-315.19 1069.5,-305.19 1066,-315.19 1073,-315.19"/>
</g>
<!-- Node29 -->
<g id="node29" class="node">
<title>Node29</title>
<g id="a_node29"><a xlink:href="../../db/dcf/patricia__dot__creator_8hpp.html" target="_top" xlink:title=" ">
<polygon fill="none" stroke="black" points="1153,-280.5 1153,-310.5 1270,-310.5 1270,-280.5 1153,-280.5"/>
<text text-anchor="start" x="1161" y="-298.5" font-family="Helvetica,sans-Serif" font-size="10.00">uxn/patl/patricia_dot</text>
<text text-anchor="middle" x="1211.5" y="-287.5" font-family="Helvetica,sans-Serif" font-size="10.00">_creator.hpp</text>
</a>
</g>
</g>
<!-- Node1&#45;&gt;Node29 -->
<g id="edge38" class="edge">
<title>Node1&#45;&gt;Node29</title>
<path fill="none" stroke="midnightblue" d="M1100.31,-347.4C1121.15,-337.86 1148.88,-325.16 1171.43,-314.84"/>
<polygon fill="midnightblue" stroke="midnightblue" points="1173.11,-317.92 1180.75,-310.58 1170.2,-311.56 1173.11,-317.92"/>
</g>
<!-- Node33 -->
<g id="node33" class="node">
<title>Node33</title>
<g id="a_node33"><a xlink:title=" ">
<polygon fill="none" stroke="#bfbfbf" points="1288,-286 1288,-305 1343,-305 1343,-286 1288,-286"/>
<text text-anchor="middle" x="1315.5" y="-293" font-family="Helvetica,sans-Serif" font-size="10.00">fstream</text>
</a>
</g>
</g>
<!-- Node1&#45;&gt;Node33 -->
<g id="edge43" class="edge">
<title>Node1&#45;&gt;Node33</title>
<path fill="none" stroke="midnightblue" d="M1133.58,-348.65C1175.52,-339.62 1231.28,-326.42 1279.5,-311 1281.77,-310.27 1284.11,-309.47 1286.44,-308.62"/>
<polygon fill="midnightblue" stroke="midnightblue" points="1287.8,-311.85 1295.89,-305.01 1285.29,-305.32 1287.8,-311.85"/>
</g>
<!-- Node3 -->
<g id="node3" class="node">
<title>Node3</title>
<g id="a_node3"><a xlink:href="../../d5/dfc/suffix__generic_8hpp.html" target="_top" xlink:title=" ">
<polygon fill="none" stroke="black" points="481,-224.5 481,-243.5 612,-243.5 612,-224.5 481,-224.5"/>
<text text-anchor="middle" x="546.5" y="-231.5" font-family="Helvetica,sans-Serif" font-size="10.00">impl/suffix_generic.hpp</text>
</a>
</g>
</g>
<!-- Node2&#45;&gt;Node3 -->
<g id="edge2" class="edge">
<title>Node2&#45;&gt;Node3</title>
<path fill="none" stroke="midnightblue" d="M546.5,-285.98C546.5,-277.58 546.5,-264.48 546.5,-253.66"/>
<polygon fill="midnightblue" stroke="midnightblue" points="550,-253.51 546.5,-243.51 543,-253.51 550,-253.51"/>
</g>
<!-- Node24 -->
<g id="node24" class="node">
<title>Node24</title>
<g id="a_node24"><a xlink:href="../../d1/dff/bit__comp_8hpp.html" target="_top" xlink:title=" ">
<polygon fill="none" stroke="black" points="59,-224.5 59,-243.5 142,-243.5 142,-224.5 59,-224.5"/>
<text text-anchor="middle" x="100.5" y="-231.5" font-family="Helvetica,sans-Serif" font-size="10.00">bit_comp.hpp</text>
</a>
</g>
</g>
<!-- Node2&#45;&gt;Node24 -->
<g id="edge31" class="edge">
<title>Node2&#45;&gt;Node24</title>
<path fill="none" stroke="midnightblue" d="M482.6,-285.98C393.67,-274.11 234.3,-252.85 152.33,-241.91"/>
<polygon fill="midnightblue" stroke="midnightblue" points="152.62,-238.42 142.25,-240.57 151.7,-245.36 152.62,-238.42"/>
</g>
<!-- Node4 -->
<g id="node4" class="node">
<title>Node4</title>
<g id="a_node4"><a xlink:title=" ">
<polygon fill="none" stroke="#bfbfbf" points="740,-56.5 740,-75.5 793,-75.5 793,-56.5 740,-56.5"/>
<text text-anchor="middle" x="766.5" y="-63.5" font-family="Helvetica,sans-Serif" font-size="10.00">iterator</text>
</a>
</g>
</g>
<!-- Node3&#45;&gt;Node4 -->
<g id="edge3" class="edge">
<title>Node3&#45;&gt;Node4</title>
<path fill="none" stroke="midnightblue" d="M612.27,-225.53C709.9,-212.84 885.25,-183.32 918.5,-132 947.1,-87.85 856.84,-73.6 803.25,-69.07"/>
<polygon fill="midnightblue" stroke="midnightblue" points="803.31,-65.56 793.07,-68.28 802.77,-72.54 803.31,-65.56"/>
</g>
<!-- Node5 -->
<g id="node5" class="node">
<title>Node5</title>
<g id="a_node5"><a xlink:href="../../d3/d09/node_8hpp.html" target="_top" xlink:title=" ">
<polygon fill="none" stroke="black" points="275.5,-168.5 275.5,-187.5 337.5,-187.5 337.5,-168.5 275.5,-168.5"/>
<text text-anchor="middle" x="306.5" y="-175.5" font-family="Helvetica,sans-Serif" font-size="10.00">node.hpp</text>
</a>
</g>
</g>
<!-- Node3&#45;&gt;Node5 -->
<g id="edge4" class="edge">
<title>Node3&#45;&gt;Node5</title>
<path fill="none" stroke="midnightblue" d="M508.47,-224.44C464.6,-214.57 392.74,-198.4 347.61,-188.25"/>
<polygon fill="midnightblue" stroke="midnightblue" points="348.37,-184.83 337.85,-186.05 346.84,-191.66 348.37,-184.83"/>
</g>
<!-- Node8 -->
<g id="node8" class="node">
<title>Node8</title>
<g id="a_node8"><a xlink:href="../../d0/dd1/core__algorithm_8hpp.html" target="_top" xlink:title=" ">
<polygon fill="none" stroke="black" points="413,-168.5 413,-187.5 524,-187.5 524,-168.5 413,-168.5"/>
<text text-anchor="middle" x="468.5" y="-175.5" font-family="Helvetica,sans-Serif" font-size="10.00">core_algorithm.hpp</text>
</a>
</g>
</g>
<!-- Node3&#45;&gt;Node8 -->
<g id="edge7" class="edge">
<title>Node3&#45;&gt;Node8</title>
<path fill="none" stroke="midnightblue" d="M533.97,-224.32C521.91,-215.98 503.47,-203.21 489.23,-193.35"/>
<polygon fill="midnightblue" stroke="midnightblue" points="491.22,-190.47 481,-187.65 487.23,-196.22 491.22,-190.47"/>
</g>
<!-- Node14 -->
<g id="node14" class="node">
<title>Node14</title>
<g id="a_node14"><a xlink:href="../../d3/dcf/ring__buffer_8hpp.html" target="_top" xlink:title=" ">
<polygon fill="none" stroke="black" points="696,-168.5 696,-187.5 785,-187.5 785,-168.5 696,-168.5"/>
<text text-anchor="middle" x="740.5" y="-175.5" font-family="Helvetica,sans-Serif" font-size="10.00">ring_buffer.hpp</text>
</a>
</g>
</g>
<!-- Node3&#45;&gt;Node14 -->
<g id="edge15" class="edge">
<title>Node3&#45;&gt;Node14</title>
<path fill="none" stroke="midnightblue" d="M577.24,-224.44C610.44,-215.2 663.49,-200.44 700.06,-190.26"/>
<polygon fill="midnightblue" stroke="midnightblue" points="701.21,-193.57 709.9,-187.52 699.33,-186.83 701.21,-193.57"/>
</g>
<!-- Node15 -->
<g id="node15" class="node">
<title>Node15</title>
<g id="a_node15"><a xlink:href="../../de/d50/assoc__generic_8hpp.html" target="_top" xlink:title=" ">
<polygon fill="none" stroke="black" points="571,-168.5 571,-187.5 678,-187.5 678,-168.5 571,-168.5"/>
<text text-anchor="middle" x="624.5" y="-175.5" font-family="Helvetica,sans-Serif" font-size="10.00">assoc_generic.hpp</text>
</a>
</g>
</g>
<!-- Node3&#45;&gt;Node15 -->
<g id="edge16" class="edge">
<title>Node3&#45;&gt;Node15</title>
<path fill="none" stroke="midnightblue" d="M559.03,-224.32C571.09,-215.98 589.53,-203.21 603.77,-193.35"/>
<polygon fill="midnightblue" stroke="midnightblue" points="605.77,-196.22 612,-187.65 601.78,-190.47 605.77,-196.22"/>
</g>
<!-- Node22 -->
<g id="node22" class="node">
<title>Node22</title>
<g id="a_node22"><a xlink:href="../../d7/dd8/core__prefix_8hpp.html" target="_top" xlink:title=" ">
<polygon fill="none" stroke="black" points="165.5,-168.5 165.5,-187.5 257.5,-187.5 257.5,-168.5 165.5,-168.5"/>
<text text-anchor="middle" x="211.5" y="-175.5" font-family="Helvetica,sans-Serif" font-size="10.00">core_prefix.hpp</text>
</a>
</g>
</g>
<!-- Node3&#45;&gt;Node22 -->
<g id="edge29" class="edge">
<title>Node3&#45;&gt;Node22</title>
<path fill="none" stroke="midnightblue" d="M493.08,-224.46C438.87,-215.79 352.26,-201.9 267.74,-188.2"/>
<polygon fill="midnightblue" stroke="midnightblue" points="268.14,-184.72 257.71,-186.57 267.02,-191.63 268.14,-184.72"/>
</g>
<!-- Node6 -->
<g id="node6" class="node">
<title>Node6</title>
<g id="a_node6"><a xlink:title=" ">
<polygon fill="none" stroke="#bfbfbf" points="225.5,-112.5 225.5,-131.5 289.5,-131.5 289.5,-112.5 225.5,-112.5"/>
<text text-anchor="middle" x="257.5" y="-119.5" font-family="Helvetica,sans-Serif" font-size="10.00">algorithm</text>
</a>
</g>
</g>
<!-- Node5&#45;&gt;Node6 -->
<g id="edge5" class="edge">
<title>Node5&#45;&gt;Node6</title>
<path fill="none" stroke="midnightblue" d="M298.41,-168.08C291.34,-160.3 280.91,-148.8 272.35,-139.37"/>
<polygon fill="midnightblue" stroke="midnightblue" points="274.75,-136.8 265.44,-131.75 269.57,-141.51 274.75,-136.8"/>
</g>
<!-- Node7 -->
<g id="node7" class="node">
<title>Node7</title>
<g id="a_node7"><a xlink:href="../../d8/dfd/config_8hpp.html" target="_top" xlink:title=" ">
<polygon fill="none" stroke="black" points="281.5,-0.5 281.5,-19.5 357.5,-19.5 357.5,-0.5 281.5,-0.5"/>
<text text-anchor="middle" x="319.5" y="-7.5" font-family="Helvetica,sans-Serif" font-size="10.00">../config.hpp</text>
</a>
</g>
</g>
<!-- Node5&#45;&gt;Node7 -->
<g id="edge6" class="edge">
<title>Node5&#45;&gt;Node7</title>
<path fill="none" stroke="midnightblue" d="M275.24,-169.14C244.64,-159.62 204.26,-141.14 216.5,-112 232.65,-73.54 271.38,-42.38 296.48,-25.29"/>
<polygon fill="midnightblue" stroke="midnightblue" points="298.62,-28.07 305.04,-19.65 294.76,-22.23 298.62,-28.07"/>
</g>
<!-- Node9 -->
<g id="node9" class="node">
<title>Node9</title>
<g id="a_node9"><a xlink:href="../../de/d55/algorithm_8hpp.html" target="_top" xlink:title=" ">
<polygon fill="none" stroke="black" points="308,-112.5 308,-131.5 393,-131.5 393,-112.5 308,-112.5"/>
<text text-anchor="middle" x="350.5" y="-119.5" font-family="Helvetica,sans-Serif" font-size="10.00">algorithm.hpp</text>
</a>
</g>
</g>
<!-- Node8&#45;&gt;Node9 -->
<g id="edge8" class="edge">
<title>Node8&#45;&gt;Node9</title>
<path fill="none" stroke="midnightblue" d="M449.8,-168.44C430.56,-159.64 400.35,-145.81 378.3,-135.72"/>
<polygon fill="midnightblue" stroke="midnightblue" points="379.66,-132.5 369.11,-131.52 376.75,-138.86 379.66,-132.5"/>
</g>
<!-- Node9&#45;&gt;Node7 -->
<g id="edge9" class="edge">
<title>Node9&#45;&gt;Node7</title>
<path fill="none" stroke="midnightblue" d="M348.07,-112.37C343.04,-94.54 331.42,-53.3 324.65,-29.27"/>
<polygon fill="midnightblue" stroke="midnightblue" points="328,-28.27 321.92,-19.59 321.27,-30.17 328,-28.27"/>
</g>
<!-- Node10 -->
<g id="node10" class="node">
<title>Node10</title>
<g id="a_node10"><a xlink:href="../../d9/d3a/trivial_8hpp.html" target="_top" xlink:title=" ">
<polygon fill="none" stroke="black" points="103.5,-56.5 103.5,-75.5 169.5,-75.5 169.5,-56.5 103.5,-56.5"/>
<text text-anchor="middle" x="136.5" y="-63.5" font-family="Helvetica,sans-Serif" font-size="10.00">trivial.hpp</text>
</a>
</g>
</g>
<!-- Node9&#45;&gt;Node10 -->
<g id="edge10" class="edge">
<title>Node9&#45;&gt;Node10</title>
<path fill="none" stroke="midnightblue" d="M316.59,-112.44C279.43,-103.07 219.75,-88.01 179.37,-77.82"/>
<polygon fill="midnightblue" stroke="midnightblue" points="180.1,-74.39 169.55,-75.34 178.39,-81.18 180.1,-74.39"/>
</g>
<!-- Node10&#45;&gt;Node7 -->
<g id="edge11" class="edge">
<title>Node10&#45;&gt;Node7</title>
<path fill="none" stroke="midnightblue" d="M165.5,-56.44C196.68,-47.24 246.43,-32.56 280.91,-22.39"/>
<polygon fill="midnightblue" stroke="midnightblue" points="282.04,-25.7 290.64,-19.52 280.06,-18.99 282.04,-25.7"/>
</g>
<!-- Node11 -->
<g id="node11" class="node">
<title>Node11</title>
<g id="a_node11"><a xlink:title=" ">
<polygon fill="none" stroke="#bfbfbf" points="23,-0.5 23,-19.5 92,-19.5 92,-0.5 23,-0.5"/>
<text text-anchor="middle" x="57.5" y="-7.5" font-family="Helvetica,sans-Serif" font-size="10.00">type_traits</text>
</a>
</g>
</g>
<!-- Node10&#45;&gt;Node11 -->
<g id="edge12" class="edge">
<title>Node10&#45;&gt;Node11</title>
<path fill="none" stroke="midnightblue" d="M123.81,-56.32C111.6,-47.98 92.92,-35.21 78.5,-25.35"/>
<polygon fill="midnightblue" stroke="midnightblue" points="80.39,-22.41 70.16,-19.65 76.44,-28.19 80.39,-22.41"/>
</g>
<!-- Node12 -->
<g id="node12" class="node">
<title>Node12</title>
<g id="a_node12"><a xlink:title=" ">
<polygon fill="none" stroke="#bfbfbf" points="110.5,-0.5 110.5,-19.5 162.5,-19.5 162.5,-0.5 110.5,-0.5"/>
<text text-anchor="middle" x="136.5" y="-7.5" font-family="Helvetica,sans-Serif" font-size="10.00">cassert</text>
</a>
</g>
</g>
<!-- Node10&#45;&gt;Node12 -->
<g id="edge13" class="edge">
<title>Node10&#45;&gt;Node12</title>
<path fill="none" stroke="midnightblue" d="M136.5,-56.08C136.5,-49.01 136.5,-38.86 136.5,-29.99"/>
<polygon fill="midnightblue" stroke="midnightblue" points="140,-29.75 136.5,-19.75 133,-29.75 140,-29.75"/>
</g>
<!-- Node13 -->
<g id="node13" class="node">
<title>Node13</title>
<g id="a_node13"><a xlink:title=" ">
<polygon fill="none" stroke="#bfbfbf" points="181,-0.5 181,-19.5 232,-19.5 232,-0.5 181,-0.5"/>
<text text-anchor="middle" x="206.5" y="-7.5" font-family="Helvetica,sans-Serif" font-size="10.00">intrin.h</text>
</a>
</g>
</g>
<!-- Node10&#45;&gt;Node13 -->
<g id="edge14" class="edge">
<title>Node10&#45;&gt;Node13</title>
<path fill="none" stroke="midnightblue" d="M147.75,-56.32C158.3,-48.18 174.3,-35.84 186.94,-26.09"/>
<polygon fill="midnightblue" stroke="midnightblue" points="189.27,-28.71 195.05,-19.83 184.99,-23.17 189.27,-28.71"/>
</g>
<!-- Node16 -->
<g id="node16" class="node">
<title>Node16</title>
<g id="a_node16"><a xlink:href="../../d5/db7/preorder__iterator_8hpp.html" target="_top" xlink:title=" ">
<polygon fill="none" stroke="black" points="593,-112.5 593,-131.5 712,-131.5 712,-112.5 593,-112.5"/>
<text text-anchor="middle" x="652.5" y="-119.5" font-family="Helvetica,sans-Serif" font-size="10.00">preorder_iterator.hpp</text>
</a>
</g>
</g>
<!-- Node15&#45;&gt;Node16 -->
<g id="edge17" class="edge">
<title>Node15&#45;&gt;Node16</title>
<path fill="none" stroke="midnightblue" d="M629.12,-168.08C632.96,-160.69 638.52,-149.95 643.26,-140.81"/>
<polygon fill="midnightblue" stroke="midnightblue" points="646.47,-142.24 647.96,-131.75 640.25,-139.02 646.47,-142.24"/>
</g>
<!-- Node17 -->
<g id="node17" class="node">
<title>Node17</title>
<g id="a_node17"><a xlink:href="../../d1/d2d/vertex_8hpp.html" target="_top" xlink:title=" ">
<polygon fill="none" stroke="black" points="478,-56.5 478,-75.5 547,-75.5 547,-56.5 478,-56.5"/>
<text text-anchor="middle" x="512.5" y="-63.5" font-family="Helvetica,sans-Serif" font-size="10.00">vertex.hpp</text>
</a>
</g>
</g>
<!-- Node15&#45;&gt;Node17 -->
<g id="edge27" class="edge">
<title>Node15&#45;&gt;Node17</title>
<path fill="none" stroke="midnightblue" d="M570.84,-171.19C522.45,-164.71 456.49,-152.37 440.5,-132 424.39,-111.47 454.17,-91.98 480.18,-79.79"/>
<polygon fill="midnightblue" stroke="midnightblue" points="481.79,-82.9 489.5,-75.64 478.94,-76.51 481.79,-82.9"/>
</g>
<!-- Node18 -->
<g id="node18" class="node">
<title>Node18</title>
<g id="a_node18"><a xlink:href="../../df/d24/postorder__iterator_8hpp.html" target="_top" xlink:title=" ">
<polygon fill="none" stroke="black" points="450,-112.5 450,-131.5 575,-131.5 575,-112.5 450,-112.5"/>
<text text-anchor="middle" x="512.5" y="-119.5" font-family="Helvetica,sans-Serif" font-size="10.00">postorder_iterator.hpp</text>
</a>
</g>
</g>
<!-- Node15&#45;&gt;Node18 -->
<g id="edge20" class="edge">
<title>Node15&#45;&gt;Node18</title>
<path fill="none" stroke="midnightblue" d="M606.51,-168.32C588.46,-159.62 560.45,-146.12 539.7,-136.11"/>
<polygon fill="midnightblue" stroke="midnightblue" points="540.98,-132.84 530.45,-131.65 537.94,-139.15 540.98,-132.84"/>
</g>
<!-- Node19 -->
<g id="node19" class="node">
<title>Node19</title>
<g id="a_node19"><a xlink:href="../../d9/dde/iterator_8hpp.html" target="_top" xlink:title=" ">
<polygon fill="none" stroke="black" points="730,-112.5 730,-131.5 803,-131.5 803,-112.5 730,-112.5"/>
<text text-anchor="middle" x="766.5" y="-119.5" font-family="Helvetica,sans-Serif" font-size="10.00">iterator.hpp</text>
</a>
</g>
</g>
<!-- Node15&#45;&gt;Node19 -->
<g id="edge23" class="edge">
<title>Node15&#45;&gt;Node19</title>
<path fill="none" stroke="midnightblue" d="M647,-168.44C670.58,-159.48 707.82,-145.31 734.46,-135.18"/>
<polygon fill="midnightblue" stroke="midnightblue" points="736,-138.34 744.1,-131.52 733.51,-131.8 736,-138.34"/>
</g>
<!-- Node20 -->
<g id="node20" class="node">
<title>Node20</title>
<g id="a_node20"><a xlink:href="../../d7/d8f/partimator_8hpp.html" target="_top" xlink:title=" ">
<polygon fill="none" stroke="black" points="821,-112.5 821,-131.5 910,-131.5 910,-112.5 821,-112.5"/>
<text text-anchor="middle" x="865.5" y="-119.5" font-family="Helvetica,sans-Serif" font-size="10.00">partimator.hpp</text>
</a>
</g>
</g>
<!-- Node15&#45;&gt;Node20 -->
<g id="edge25" class="edge">
<title>Node15&#45;&gt;Node20</title>
<path fill="none" stroke="midnightblue" d="M662.69,-168.44C704.64,-159.04 772.09,-143.93 817.57,-133.74"/>
<polygon fill="midnightblue" stroke="midnightblue" points="818.5,-137.12 827.49,-131.52 816.97,-130.29 818.5,-137.12"/>
</g>
<!-- Node15&#45;&gt;Node21 -->
<g id="edge28" class="edge">
<title>Node15&#45;&gt;Node21</title>
<path fill="none" stroke="midnightblue" d="M678.16,-168.97C755.42,-157.42 895.39,-136.48 956.1,-127.4"/>
<polygon fill="midnightblue" stroke="midnightblue" points="956.77,-130.84 966.14,-125.9 955.73,-123.91 956.77,-130.84"/>
</g>
<!-- Node16&#45;&gt;Node4 -->
<g id="edge19" class="edge">
<title>Node16&#45;&gt;Node4</title>
<path fill="none" stroke="midnightblue" d="M670.56,-112.44C689.07,-103.68 718.08,-89.94 739.36,-79.86"/>
<polygon fill="midnightblue" stroke="midnightblue" points="740.98,-82.96 748.52,-75.52 737.99,-76.63 740.98,-82.96"/>
</g>
<!-- Node16&#45;&gt;Node17 -->
<g id="edge18" class="edge">
<title>Node16&#45;&gt;Node17</title>
<path fill="none" stroke="midnightblue" d="M630.32,-112.44C607.07,-103.48 570.35,-89.31 544.08,-79.18"/>
<polygon fill="midnightblue" stroke="midnightblue" points="545.17,-75.85 534.58,-75.52 542.65,-82.38 545.17,-75.85"/>
</g>
<!-- Node18&#45;&gt;Node4 -->
<g id="edge22" class="edge">
<title>Node18&#45;&gt;Node4</title>
<path fill="none" stroke="midnightblue" d="M552.75,-112.44C601.39,-102.1 682.54,-84.85 729.62,-74.84"/>
<polygon fill="midnightblue" stroke="midnightblue" points="730.63,-78.2 739.69,-72.7 729.18,-71.36 730.63,-78.2"/>
</g>
<!-- Node18&#45;&gt;Node17 -->
<g id="edge21" class="edge">
<title>Node18&#45;&gt;Node17</title>
<path fill="none" stroke="midnightblue" d="M512.5,-112.08C512.5,-105.01 512.5,-94.86 512.5,-85.99"/>
<polygon fill="midnightblue" stroke="midnightblue" points="516,-85.75 512.5,-75.75 509,-85.75 516,-85.75"/>
</g>
<!-- Node19&#45;&gt;Node4 -->
<g id="edge24" class="edge">
<title>Node19&#45;&gt;Node4</title>
<path fill="none" stroke="midnightblue" d="M766.5,-112.08C766.5,-105.01 766.5,-94.86 766.5,-85.99"/>
<polygon fill="midnightblue" stroke="midnightblue" points="770,-85.75 766.5,-75.75 763,-85.75 770,-85.75"/>
</g>
<!-- Node20&#45;&gt;Node4 -->
<g id="edge26" class="edge">
<title>Node20&#45;&gt;Node4</title>
<path fill="none" stroke="midnightblue" d="M849.59,-112.32C833.86,-103.74 809.56,-90.49 791.29,-80.52"/>
<polygon fill="midnightblue" stroke="midnightblue" points="792.82,-77.37 782.37,-75.65 789.47,-83.52 792.82,-77.37"/>
</g>
<!-- Node23 -->
<g id="node23" class="node">
<title>Node23</title>
<g id="a_node23"><a xlink:href="../../d0/d34/prefix_8hpp.html" target="_top" xlink:title=" ">
<polygon fill="none" stroke="black" points="104,-112.5 104,-131.5 169,-131.5 169,-112.5 104,-112.5"/>
<text text-anchor="middle" x="136.5" y="-119.5" font-family="Helvetica,sans-Serif" font-size="10.00">prefix.hpp</text>
</a>
</g>
</g>
<!-- Node22&#45;&gt;Node23 -->
<g id="edge30" class="edge">
<title>Node22&#45;&gt;Node23</title>
<path fill="none" stroke="midnightblue" d="M199.45,-168.32C188.04,-160.11 170.67,-147.6 157.07,-137.81"/>
<polygon fill="midnightblue" stroke="midnightblue" points="158.93,-134.84 148.77,-131.83 154.84,-140.52 158.93,-134.84"/>
</g>
<!-- Node24&#45;&gt;Node10 -->
<g id="edge34" class="edge">
<title>Node24&#45;&gt;Node10</title>
<path fill="none" stroke="midnightblue" d="M97.73,-224.4C91.66,-204.01 78.92,-151.53 94.5,-112 99.01,-100.55 107.97,-90.29 116.45,-82.47"/>
<polygon fill="midnightblue" stroke="midnightblue" points="118.97,-84.93 124.29,-75.76 114.41,-79.61 118.97,-84.93"/>
</g>
<!-- Node25 -->
<g id="node25" class="node">
<title>Node25</title>
<g id="a_node25"><a xlink:title=" ">
<polygon fill="none" stroke="#bfbfbf" points="103.5,-168.5 103.5,-187.5 147.5,-187.5 147.5,-168.5 103.5,-168.5"/>
<text text-anchor="middle" x="125.5" y="-175.5" font-family="Helvetica,sans-Serif" font-size="10.00">string</text>
</a>
</g>
</g>
<!-- Node24&#45;&gt;Node25 -->
<g id="edge32" class="edge">
<title>Node24&#45;&gt;Node25</title>
<path fill="none" stroke="midnightblue" d="M104.63,-224.08C108.01,-216.77 112.92,-206.18 117.12,-197.1"/>
<polygon fill="midnightblue" stroke="midnightblue" points="120.42,-198.3 121.45,-187.75 114.07,-195.36 120.42,-198.3"/>
</g>
<!-- Node26 -->
<g id="node26" class="node">
<title>Node26</title>
<g id="a_node26"><a xlink:title=" ">
<polygon fill="none" stroke="#bfbfbf" points="0,-168.5 0,-187.5 47,-187.5 47,-168.5 0,-168.5"/>
<text text-anchor="middle" x="23.5" y="-175.5" font-family="Helvetica,sans-Serif" font-size="10.00">vector</text>
</a>
</g>
</g>
<!-- Node24&#45;&gt;Node26 -->
<g id="edge33" class="edge">
<title>Node24&#45;&gt;Node26</title>
<path fill="none" stroke="midnightblue" d="M88.13,-224.32C76.34,-216.06 58.37,-203.45 44.36,-193.63"/>
<polygon fill="midnightblue" stroke="midnightblue" points="46.04,-190.53 35.84,-187.65 42.02,-196.26 46.04,-190.53"/>
</g>
<!-- Node28 -->
<g id="node28" class="node">
<title>Node28</title>
<g id="a_node28"><a xlink:href="../../dd/d42/lca__base_8hpp.html" target="_top" xlink:title=" ">
<polygon fill="none" stroke="black" points="914,-56.5 914,-75.5 1019,-75.5 1019,-56.5 914,-56.5"/>
<text text-anchor="middle" x="966.5" y="-63.5" font-family="Helvetica,sans-Serif" font-size="10.00">impl/lca_base.hpp</text>
</a>
</g>
</g>
<!-- Node27&#45;&gt;Node28 -->
<g id="edge36" class="edge">
<title>Node27&#45;&gt;Node28</title>
<path fill="none" stroke="midnightblue" d="M1068.43,-285.87C1064.71,-258.53 1050.54,-172.09 1013.5,-112 1006.44,-100.55 995.77,-90.01 986.39,-82.02"/>
<polygon fill="midnightblue" stroke="midnightblue" points="988.56,-79.27 978.59,-75.69 984.15,-84.71 988.56,-79.27"/>
</g>
<!-- Node28&#45;&gt;Node7 -->
<g id="edge37" class="edge">
<title>Node28&#45;&gt;Node7</title>
<path fill="none" stroke="midnightblue" d="M913.83,-60.6C790.83,-50.34 486.21,-24.91 367.73,-15.03"/>
<polygon fill="midnightblue" stroke="midnightblue" points="367.78,-11.52 357.52,-14.17 367.19,-18.49 367.78,-11.52"/>
</g>
<!-- Node30 -->
<g id="node30" class="node">
<title>Node30</title>
<g id="a_node30"><a xlink:href="../../d0/d4e/patricia__dot__base_8hpp.html" target="_top" xlink:title=" ">
<polygon fill="none" stroke="black" points="1257,-224.5 1257,-243.5 1406,-243.5 1406,-224.5 1257,-224.5"/>
<text text-anchor="middle" x="1331.5" y="-231.5" font-family="Helvetica,sans-Serif" font-size="10.00">impl/patricia_dot_base.hpp</text>
</a>
</g>
</g>
<!-- Node29&#45;&gt;Node30 -->
<g id="edge39" class="edge">
<title>Node29&#45;&gt;Node30</title>
<path fill="none" stroke="midnightblue" d="M1239.94,-280.4C1259.62,-270.64 1285.64,-257.74 1304.91,-248.18"/>
<polygon fill="midnightblue" stroke="midnightblue" points="1306.63,-251.24 1314.04,-243.66 1303.52,-244.96 1306.63,-251.24"/>
</g>
<!-- Node31 -->
<g id="node31" class="node">
<title>Node31</title>
<g id="a_node31"><a xlink:title=" ">
<polygon fill="none" stroke="#bfbfbf" points="1105.5,-224.5 1105.5,-243.5 1165.5,-243.5 1165.5,-224.5 1105.5,-224.5"/>
<text text-anchor="middle" x="1135.5" y="-231.5" font-family="Helvetica,sans-Serif" font-size="10.00">iostream</text>
</a>
</g>
</g>
<!-- Node29&#45;&gt;Node31 -->
<g id="edge40" class="edge">
<title>Node29&#45;&gt;Node31</title>
<path fill="none" stroke="midnightblue" d="M1193.49,-280.4C1181.76,-271.22 1166.48,-259.26 1154.56,-249.92"/>
<polygon fill="midnightblue" stroke="midnightblue" points="1156.59,-247.07 1146.56,-243.66 1152.28,-252.58 1156.59,-247.07"/>
</g>
<!-- Node32 -->
<g id="node32" class="node">
<title>Node32</title>
<g id="a_node32"><a xlink:title=" ">
<polygon fill="none" stroke="#bfbfbf" points="1183.5,-224.5 1183.5,-243.5 1239.5,-243.5 1239.5,-224.5 1183.5,-224.5"/>
<text text-anchor="middle" x="1211.5" y="-231.5" font-family="Helvetica,sans-Serif" font-size="10.00">iomanip</text>
</a>
</g>
</g>
<!-- Node29&#45;&gt;Node32 -->
<g id="edge41" class="edge">
<title>Node29&#45;&gt;Node32</title>
<path fill="none" stroke="midnightblue" d="M1211.5,-280.4C1211.5,-272.47 1211.5,-262.46 1211.5,-253.86"/>
<polygon fill="midnightblue" stroke="midnightblue" points="1215,-253.66 1211.5,-243.66 1208,-253.66 1215,-253.66"/>
</g>
</g>
</svg>
        <g id="navigator" transform="translate(0 0)" fill="#404254">
                <rect fill="#f2f5e9" fill-opacity="0.5" stroke="#606060" stroke-width=".5" x="0" y="0" width="60" height="60"/>
                <use id="zoomplus" xlink:href="#zoomPlus" x="17" y="9" onmousedown="handleZoom(evt,'in')"/>
                <use id="zoomminus" xlink:href="#zoomMin" x="42" y="9" onmousedown="handleZoom(evt,'out')"/>
                <use id="reset" xlink:href="#resetDef" x="30" y="36" onmousedown="handleReset()"/>
                <g id="arrowUp" xlink:href="#dirArrow" transform="translate(30 24)" onmousedown="handlePan(0,-1)">
                  <use xlink:href="#rim" fill="#404040">
                        <set attributeName="fill" to="#808080" begin="arrowUp.mouseover" end="arrowUp.mouseout"/>
                  </use>
                  <path fill="none" stroke="white" stroke-width="1.5" d="M0,-3.0v7 M-2.5,-0.5L0,-3.0L2.5,-0.5"/>
                </g>
                <g id="arrowRight" xlink:href="#dirArrow" transform="rotate(90) translate(36 -43)" onmousedown="handlePan(1,0)">
                  <use xlink:href="#rim" fill="#404040">
                        <set attributeName="fill" to="#808080" begin="arrowRight.mouseover" end="arrowRight.mouseout"/>
                  </use>
                  <path fill="none" stroke="white" stroke-width="1.5" d="M0,-3.0v7 M-2.5,-0.5L0,-3.0L2.5,-0.5"/>
                </g>
                <g id="arrowDown" xlink:href="#dirArrow" transform="rotate(180) translate(-30 -48)" onmousedown="handlePan(0,1)">
                  <use xlink:href="#rim" fill="#404040">
                        <set attributeName="fill" to="#808080" begin="arrowDown.mouseover" end="arrowDown.mouseout"/>
                  </use>
                  <path fill="none" stroke="white" stroke-width="1.5" d="M0,-3.0v7 M-2.5,-0.5L0,-3.0L2.5,-0.5"/>
                </g>
                <g id="arrowLeft" xlink:href="#dirArrow" transform="rotate(270) translate(-36 17)" onmousedown="handlePan(-1,0)">
                  <use xlink:href="#rim" fill="#404040">
                        <set attributeName="fill" to="#808080" begin="arrowLeft.mouseover" end="arrowLeft.mouseout"/>
                  </use>
                  <path fill="none" stroke="white" stroke-width="1.5" d="M0,-3.0v7 M-2.5,-0.5L0,-3.0L2.5,-0.5"/>
                </g>
        </g>
        <svg viewBox="0 0 15 15" width="100%" height="30px" preserveAspectRatio="xMaxYMin meet">
         <g id="arrow_out" transform="scale(0.3 0.3)">
          <a xlink:href="multi__align_8cpp__incl_org.svg" target="_base">
           <rect id="button" ry="5" rx="5" y="6" x="6" height="38" width="38"
                fill="#f2f5e9" fill-opacity="0.5" stroke="#606060" stroke-width="1.0"/>
           <path id="arrow"
             d="M 11.500037,31.436501 C 11.940474,20.09759 22.043105,11.32322 32.158766,21.979434 L 37.068811,17.246167 C 37.068811,17.246167 37.088388,32 37.088388,32 L 22.160133,31.978069 C 22.160133,31.978069 26.997745,27.140456 26.997745,27.140456 C 18.528582,18.264221 13.291696,25.230495 11.500037,31.436501 z"
             style="fill:#404040;"/>
          </a>
         </g>
        </svg>
</svg>
