<?xml version="1.0" encoding="UTF-8" standalone="no"?>
<!DOCTYPE svg PUBLIC "-//W3C//DTD SVG 1.1//EN"
 "http://www.w3.org/Graphics/SVG/1.1/DTD/svg11.dtd">
<!-- Generated by graphviz version 5.0.1 (20220820.1526)
 -->
<!-- Title: uxn/patl/impl/vertex.hpp Pages: 1 -->
<!--zoomable 408 -->
<svg id="main" version="1.1" xmlns="http://www.w3.org/2000/svg" xmlns:xlink="http://www.w3.org/1999/xlink" xml:space="preserve" onload="init(evt)">
<style type="text/css"><![CDATA[
.edge:hover path { stroke: red; }
.edge:hover polygon { stroke: red; fill: red; }
]]></style>
<script type="text/javascript"><![CDATA[
var edges = document.getElementsByTagName('g');
if (edges && edges.length) {
  for (var i=0;i<edges.length;i++) {
    if (edges[i].id.substr(0,4)=='edge') {
      edges[i].setAttribute('class','edge');
    }
  }
}
]]></script>
        <defs>
                <circle id="rim" cx="0" cy="0" r="7"/>
                <circle id="rim2" cx="0" cy="0" r="3.5"/>
                <g id="zoomPlus">
                        <use xlink:href="#rim" fill="#404040">
                                <set attributeName="fill" to="#808080" begin="zoomplus.mouseover" end="zoomplus.mouseout"/>
                        </use>
                        <path d="M-4,0h8M0,-4v8" fill="none" stroke="white" stroke-width="1.5" pointer-events="none"/>
                </g>
                <g id="zoomMin">
                        <use xlink:href="#rim" fill="#404040">
                                <set attributeName="fill" to="#808080" begin="zoomminus.mouseover" end="zoomminus.mouseout"/>
                        </use>
                        <path d="M-4,0h8" fill="none" stroke="white" stroke-width="1.5" pointer-events="none"/>
                </g>
                <g id="dirArrow">
                        <path fill="none" stroke="white" stroke-width="1.5" d="M0,-3.0v7 M-2.5,-0.5L0,-3.0L2.5,-0.5"/>
                </g>
               <g id="resetDef">
                       <use xlink:href="#rim2" fill="#404040">
                               <set attributeName="fill" to="#808080" begin="reset.mouseover" end="reset.mouseout"/>
                       </use>
               </g>
        </defs>

<script type="text/javascript">
var viewWidth = 1845;
var viewHeight = 408;
var sectionId = 'dynsection-0';
</script>
<script xlink:href="../../svgpan.js"/>
<svg id="graph" class="graph">
<g id="viewport">
<title>uxn/patl/impl/vertex.hpp</title>
<!-- Node1 -->
<g id="node1" class="node">
<title>Node1</title>
<g id="a_node1"><a xlink:title=" ">
<polygon fill="#bfbfbf" stroke="black" points="1041.41,-380.5 1041.41,-399.5 1178.41,-399.5 1178.41,-380.5 1041.41,-380.5"/>
<text text-anchor="middle" x="1109.91" y="-387.5" font-family="Helvetica,sans-Serif" font-size="10.00">uxn/patl/impl/vertex.hpp</text>
</a>
</g>
</g>
<!-- Node2 -->
<g id="node2" class="node">
<title>Node2</title>
<g id="a_node2"><a xlink:href="../../de/d50/assoc__generic_8hpp.html" target="_top" xlink:title=" ">
<polygon fill="none" stroke="black" points="1053.91,-246.5 1053.91,-276.5 1165.91,-276.5 1165.91,-246.5 1053.91,-246.5"/>
<text text-anchor="start" x="1061.91" y="-264.5" font-family="Helvetica,sans-Serif" font-size="10.00">uxn/patl/impl/assoc</text>
<text text-anchor="middle" x="1109.91" y="-253.5" font-family="Helvetica,sans-Serif" font-size="10.00">_generic.hpp</text>
</a>
</g>
</g>
<!-- Node1&#45;&gt;Node2 -->
<g id="edge1" class="edge">
<title>Node1&#45;&gt;Node2</title>
<path fill="none" stroke="midnightblue" d="M1073.2,-376.27C1058.58,-369.18 1043.26,-358.74 1034.91,-344 1028.13,-332.01 1028.44,-325.16 1034.91,-313 1043.54,-296.79 1059.95,-284.85 1075.22,-276.66"/>
<polygon fill="midnightblue" stroke="midnightblue" points="1072.07,-379.6 1082.63,-380.45 1074.91,-373.2 1072.07,-379.6"/>
</g>
<!-- Node24 -->
<g id="node24" class="node">
<title>Node24</title>
<g id="a_node24"><a xlink:href="../../df/d24/postorder__iterator_8hpp.html" target="_top" xlink:title=" ">
<polygon fill="none" stroke="black" points="1044.41,-313.5 1044.41,-343.5 1175.41,-343.5 1175.41,-313.5 1044.41,-313.5"/>
<text text-anchor="start" x="1052.41" y="-331.5" font-family="Helvetica,sans-Serif" font-size="10.00">uxn/patl/impl/postorder</text>
<text text-anchor="middle" x="1109.91" y="-320.5" font-family="Helvetica,sans-Serif" font-size="10.00">_iterator.hpp</text>
</a>
</g>
</g>
<!-- Node1&#45;&gt;Node24 -->
<g id="edge27" class="edge">
<title>Node1&#45;&gt;Node24</title>
<path fill="none" stroke="midnightblue" d="M1109.91,-370.23C1109.91,-361.59 1109.91,-351.5 1109.91,-343.52"/>
<polygon fill="midnightblue" stroke="midnightblue" points="1106.41,-370.48 1109.91,-380.48 1113.41,-370.48 1106.41,-370.48"/>
</g>
<!-- Node25 -->
<g id="node25" class="node">
<title>Node25</title>
<g id="a_node25"><a xlink:href="../../d5/db7/preorder__iterator_8hpp.html" target="_top" xlink:title=" ">
<polygon fill="none" stroke="black" points="1193.41,-313.5 1193.41,-343.5 1318.41,-343.5 1318.41,-313.5 1193.41,-313.5"/>
<text text-anchor="start" x="1201.41" y="-331.5" font-family="Helvetica,sans-Serif" font-size="10.00">uxn/patl/impl/preorder</text>
<text text-anchor="middle" x="1255.91" y="-320.5" font-family="Helvetica,sans-Serif" font-size="10.00">_iterator.hpp</text>
</a>
</g>
</g>
<!-- Node1&#45;&gt;Node25 -->
<g id="edge29" class="edge">
<title>Node1&#45;&gt;Node25</title>
<path fill="none" stroke="midnightblue" d="M1140.37,-376.59C1164.04,-366.94 1196.88,-353.56 1221.51,-343.52"/>
<polygon fill="midnightblue" stroke="midnightblue" points="1138.77,-373.46 1130.83,-380.48 1141.41,-379.94 1138.77,-373.46"/>
</g>
<!-- Node3 -->
<g id="node3" class="node">
<title>Node3</title>
<g id="a_node3"><a xlink:href="../../d5/dfc/suffix__generic_8hpp.html" target="_top" xlink:title=" ">
<polygon fill="none" stroke="black" points="1054.41,-179.5 1054.41,-209.5 1165.41,-209.5 1165.41,-179.5 1054.41,-179.5"/>
<text text-anchor="start" x="1062.41" y="-197.5" font-family="Helvetica,sans-Serif" font-size="10.00">uxn/patl/impl/suffix</text>
<text text-anchor="middle" x="1109.91" y="-186.5" font-family="Helvetica,sans-Serif" font-size="10.00">_generic.hpp</text>
</a>
</g>
</g>
<!-- Node2&#45;&gt;Node3 -->
<g id="edge2" class="edge">
<title>Node2&#45;&gt;Node3</title>
<path fill="none" stroke="midnightblue" d="M1109.91,-236.11C1109.91,-227.15 1109.91,-217.32 1109.91,-209.58"/>
<polygon fill="midnightblue" stroke="midnightblue" points="1106.41,-236.4 1109.91,-246.4 1113.41,-236.4 1106.41,-236.4"/>
</g>
<!-- Node14 -->
<g id="node14" class="node">
<title>Node14</title>
<g id="a_node14"><a xlink:href="../../d9/d25/trie__generic_8hpp.html" target="_top" xlink:title=" ">
<polygon fill="none" stroke="black" points="428.41,-179.5 428.41,-209.5 529.41,-209.5 529.41,-179.5 428.41,-179.5"/>
<text text-anchor="start" x="436.41" y="-197.5" font-family="Helvetica,sans-Serif" font-size="10.00">uxn/patl/impl/trie</text>
<text text-anchor="middle" x="478.91" y="-186.5" font-family="Helvetica,sans-Serif" font-size="10.00">_generic.hpp</text>
</a>
</g>
</g>
<!-- Node2&#45;&gt;Node14 -->
<g id="edge13" class="edge">
<title>Node2&#45;&gt;Node14</title>
<path fill="none" stroke="midnightblue" d="M1043.67,-253.68C916.94,-240.62 642.68,-212.37 529.42,-200.7"/>
<polygon fill="midnightblue" stroke="midnightblue" points="1043.33,-257.16 1053.64,-254.7 1044.05,-250.2 1043.33,-257.16"/>
</g>
<!-- Node23 -->
<g id="node23" class="node">
<title>Node23</title>
<g id="a_node23"><a xlink:href="../../d4/dca/ngram__stat_8hpp.html" target="_top" xlink:title=" ">
<polygon fill="none" stroke="black" points="1183.91,-185 1183.91,-204 1319.91,-204 1319.91,-185 1183.91,-185"/>
<text text-anchor="middle" x="1251.91" y="-192" font-family="Helvetica,sans-Serif" font-size="10.00">uxn/patl/ngram_stat.hpp</text>
</a>
</g>
</g>
<!-- Node2&#45;&gt;Node23 -->
<g id="edge26" class="edge">
<title>Node2&#45;&gt;Node23</title>
<path fill="none" stroke="midnightblue" d="M1150.04,-242.13C1177.37,-229.62 1212.29,-213.64 1233.33,-204.01"/>
<polygon fill="midnightblue" stroke="midnightblue" points="1148.36,-239.05 1140.73,-246.4 1151.28,-245.42 1148.36,-239.05"/>
</g>
<!-- Node4 -->
<g id="node4" class="node">
<title>Node4</title>
<g id="a_node4"><a xlink:href="../../d5/d01/suffix__map_8hpp.html" target="_top" xlink:title=" ">
<polygon fill="none" stroke="black" points="968.91,-123.5 968.91,-142.5 1102.91,-142.5 1102.91,-123.5 968.91,-123.5"/>
<text text-anchor="middle" x="1035.91" y="-130.5" font-family="Helvetica,sans-Serif" font-size="10.00">uxn/patl/suffix_map.hpp</text>
</a>
</g>
</g>
<!-- Node3&#45;&gt;Node4 -->
<g id="edge3" class="edge">
<title>Node3&#45;&gt;Node4</title>
<path fill="none" stroke="midnightblue" d="M1084.29,-172.89C1071.41,-162.54 1056.51,-150.56 1046.68,-142.66"/>
<polygon fill="midnightblue" stroke="midnightblue" points="1082.39,-175.86 1092.38,-179.4 1086.78,-170.41 1082.39,-175.86"/>
</g>
<!-- Node5 -->
<g id="node5" class="node">
<title>Node5</title>
<g id="a_node5"><a xlink:href="../../d4/dc0/suffix__set_8hpp.html" target="_top" xlink:title=" ">
<polygon fill="none" stroke="black" points="1120.91,-123.5 1120.91,-142.5 1248.91,-142.5 1248.91,-123.5 1120.91,-123.5"/>
<text text-anchor="middle" x="1184.91" y="-130.5" font-family="Helvetica,sans-Serif" font-size="10.00">uxn/patl/suffix_set.hpp</text>
</a>
</g>
</g>
<!-- Node3&#45;&gt;Node5 -->
<g id="edge4" class="edge">
<title>Node3&#45;&gt;Node5</title>
<path fill="none" stroke="midnightblue" d="M1135.89,-172.89C1148.94,-162.54 1164.04,-150.56 1174,-142.66"/>
<polygon fill="midnightblue" stroke="midnightblue" points="1133.35,-170.44 1127.69,-179.4 1137.7,-175.93 1133.35,-170.44"/>
</g>
<!-- Node13 -->
<g id="node13" class="node">
<title>Node13</title>
<g id="a_node13"><a xlink:href="../../d8/d0a/suffix__utils_8hpp.html" target="_top" xlink:title=" ">
<polygon fill="none" stroke="black" points="1266.91,-123.5 1266.91,-142.5 1400.91,-142.5 1400.91,-123.5 1266.91,-123.5"/>
<text text-anchor="middle" x="1333.91" y="-130.5" font-family="Helvetica,sans-Serif" font-size="10.00">uxn/patl/suffix_utils.hpp</text>
</a>
</g>
</g>
<!-- Node3&#45;&gt;Node13 -->
<g id="edge12" class="edge">
<title>Node3&#45;&gt;Node13</title>
<path fill="none" stroke="midnightblue" d="M1172.59,-176.85C1214.65,-165.68 1268.3,-151.43 1301.89,-142.51"/>
<polygon fill="midnightblue" stroke="midnightblue" points="1171.48,-173.52 1162.72,-179.47 1173.28,-180.29 1171.48,-173.52"/>
</g>
<!-- Node6 -->
<g id="node6" class="node">
<title>Node6</title>
<g id="a_node6"><a xlink:href="../../d1/db2/insider_8cpp.html" target="_top" xlink:title=" ">
<polygon fill="none" stroke="black" points="694.91,-62 694.91,-81 856.91,-81 856.91,-62 694.91,-62"/>
<text text-anchor="middle" x="775.91" y="-69" font-family="Helvetica,sans-Serif" font-size="10.00">uxn/demos/insider/insider.cpp</text>
</a>
</g>
</g>
<!-- Node5&#45;&gt;Node6 -->
<g id="edge5" class="edge">
<title>Node5&#45;&gt;Node6</title>
<path fill="none" stroke="midnightblue" d="M1111.81,-122.1C1047.12,-113.24 950.17,-99.73 865.91,-87 853.55,-85.13 840.25,-83.04 827.76,-81.03"/>
<polygon fill="midnightblue" stroke="midnightblue" points="1111.53,-125.6 1121.91,-123.48 1112.48,-118.66 1111.53,-125.6"/>
</g>
<!-- Node7 -->
<g id="node7" class="node">
<title>Node7</title>
<g id="a_node7"><a xlink:href="../../d3/d87/lz77_8cpp.html" target="_top" xlink:title=" ">
<polygon fill="none" stroke="black" points="1199.41,-62 1199.41,-81 1336.41,-81 1336.41,-62 1199.41,-62"/>
<text text-anchor="middle" x="1267.91" y="-69" font-family="Helvetica,sans-Serif" font-size="10.00">uxn/demos/lz77/lz77.cpp</text>
</a>
</g>
</g>
<!-- Node5&#45;&gt;Node7 -->
<g id="edge6" class="edge">
<title>Node5&#45;&gt;Node7</title>
<path fill="none" stroke="midnightblue" d="M1204.98,-117.61C1220.95,-106.17 1242.74,-90.55 1256.04,-81.01"/>
<polygon fill="midnightblue" stroke="midnightblue" points="1202.89,-114.8 1196.81,-123.48 1206.97,-120.49 1202.89,-114.8"/>
</g>
<!-- Node8 -->
<g id="node8" class="node">
<title>Node8</title>
<g id="a_node8"><a xlink:href="../../d7/d82/maxpals_8cpp.html" target="_top" xlink:title=" ">
<polygon fill="none" stroke="black" points="1354.41,-62 1354.41,-81 1535.41,-81 1535.41,-62 1354.41,-62"/>
<text text-anchor="middle" x="1444.91" y="-69" font-family="Helvetica,sans-Serif" font-size="10.00">uxn/demos/maxpals/maxpals.cpp</text>
</a>
</g>
</g>
<!-- Node5&#45;&gt;Node8 -->
<g id="edge7" class="edge">
<title>Node5&#45;&gt;Node8</title>
<path fill="none" stroke="midnightblue" d="M1232.17,-121.19C1282.62,-109.64 1361.52,-91.58 1407.73,-81.01"/>
<polygon fill="midnightblue" stroke="midnightblue" points="1231.13,-117.83 1222.17,-123.48 1232.69,-124.66 1231.13,-117.83"/>
</g>
<!-- Node9 -->
<g id="node9" class="node">
<title>Node9</title>
<g id="a_node9"><a xlink:href="../../d2/d55/multi__align_8cpp.html" target="_top" xlink:title=" ">
<polygon fill="none" stroke="black" points="1553.91,-56.5 1553.91,-86.5 1681.91,-86.5 1681.91,-56.5 1553.91,-56.5"/>
<text text-anchor="start" x="1561.91" y="-74.5" font-family="Helvetica,sans-Serif" font-size="10.00">uxn/demos/multi_align</text>
<text text-anchor="middle" x="1617.91" y="-63.5" font-family="Helvetica,sans-Serif" font-size="10.00">/multi_align.cpp</text>
</a>
</g>
</g>
<!-- Node5&#45;&gt;Node9 -->
<g id="edge8" class="edge">
<title>Node5&#45;&gt;Node9</title>
<path fill="none" stroke="midnightblue" d="M1259.4,-122.76C1362.77,-109.92 1537.92,-88.13 1544.91,-87 1547.85,-86.53 1550.84,-86.02 1553.87,-85.49"/>
<polygon fill="midnightblue" stroke="midnightblue" points="1258.82,-119.3 1249.32,-124.01 1259.68,-126.25 1258.82,-119.3"/>
</g>
<!-- Node10 -->
<g id="node10" class="node">
<title>Node10</title>
<g id="a_node10"><a xlink:href="../../d5/d74/multi__search_8cpp.html" target="_top" xlink:title=" ">
<polygon fill="none" stroke="black" points="1700.41,-56.5 1700.41,-86.5 1837.41,-86.5 1837.41,-56.5 1700.41,-56.5"/>
<text text-anchor="start" x="1708.41" y="-74.5" font-family="Helvetica,sans-Serif" font-size="10.00">uxn/demos/multi_search</text>
<text text-anchor="middle" x="1768.91" y="-63.5" font-family="Helvetica,sans-Serif" font-size="10.00">/multi_search.cpp</text>
</a>
</g>
</g>
<!-- Node5&#45;&gt;Node10 -->
<g id="edge9" class="edge">
<title>Node5&#45;&gt;Node10</title>
<path fill="none" stroke="midnightblue" d="M1259.17,-122.92C1451.74,-103.5 1502.79,-112.24 1690.91,-87 1693.92,-86.6 1696.98,-86.16 1700.07,-85.69"/>
<polygon fill="midnightblue" stroke="midnightblue" points="1258.58,-119.46 1248.99,-123.95 1259.3,-126.42 1258.58,-119.46"/>
</g>
<!-- Node11 -->
<g id="node11" class="node">
<title>Node11</title>
<g id="a_node11"><a xlink:href="../../d9/de5/usort3_8cpp.html" target="_top" xlink:title=" ">
<polygon fill="none" stroke="black" points="1022.91,-62 1022.91,-81 1180.91,-81 1180.91,-62 1022.91,-62"/>
<text text-anchor="middle" x="1101.91" y="-69" font-family="Helvetica,sans-Serif" font-size="10.00">uxn/demos/usort3/usort3.cpp</text>
</a>
</g>
</g>
<!-- Node5&#45;&gt;Node11 -->
<g id="edge10" class="edge">
<title>Node5&#45;&gt;Node11</title>
<path fill="none" stroke="midnightblue" d="M1164.84,-117.61C1148.88,-106.17 1127.09,-90.55 1113.78,-81.01"/>
<polygon fill="midnightblue" stroke="midnightblue" points="1162.86,-120.49 1173.02,-123.48 1166.93,-114.8 1162.86,-120.49"/>
</g>
<!-- Node12 -->
<g id="node12" class="node">
<title>Node12</title>
<g id="a_node12"><a xlink:href="../../d1/d40/word__suffix_8cpp.html" target="_top" xlink:title=" ">
<polygon fill="none" stroke="black" points="874.91,-56.5 874.91,-86.5 1004.91,-86.5 1004.91,-56.5 874.91,-56.5"/>
<text text-anchor="start" x="882.91" y="-74.5" font-family="Helvetica,sans-Serif" font-size="10.00">uxn/demos/word_suffix</text>
<text text-anchor="middle" x="939.91" y="-63.5" font-family="Helvetica,sans-Serif" font-size="10.00">/word_suffix.cpp</text>
</a>
</g>
</g>
<!-- Node5&#45;&gt;Node12 -->
<g id="edge11" class="edge">
<title>Node5&#45;&gt;Node12</title>
<path fill="none" stroke="midnightblue" d="M1140.06,-121.11C1100.03,-111.39 1041.19,-97.1 997.66,-86.52"/>
<polygon fill="midnightblue" stroke="midnightblue" points="1139.27,-124.52 1149.81,-123.48 1140.92,-117.71 1139.27,-124.52"/>
</g>
<!-- Node15 -->
<g id="node15" class="node">
<title>Node15</title>
<g id="a_node15"><a xlink:href="../../df/dc9/trie__map_8hpp.html" target="_top" xlink:title=" ">
<polygon fill="none" stroke="black" points="7.91,-123.5 7.91,-142.5 131.91,-142.5 131.91,-123.5 7.91,-123.5"/>
<text text-anchor="middle" x="69.91" y="-130.5" font-family="Helvetica,sans-Serif" font-size="10.00">uxn/patl/trie_map.hpp</text>
</a>
</g>
</g>
<!-- Node14&#45;&gt;Node15 -->
<g id="edge14" class="edge">
<title>Node14&#45;&gt;Node15</title>
<path fill="none" stroke="midnightblue" d="M418.2,-184.67C340.18,-173.32 205.64,-153.75 128.61,-142.54"/>
<polygon fill="midnightblue" stroke="midnightblue" points="417.95,-188.17 428.35,-186.14 418.96,-181.24 417.95,-188.17"/>
</g>
<!-- Node18 -->
<g id="node18" class="node">
<title>Node18</title>
<g id="a_node18"><a xlink:href="../../d4/db1/trie__set_8hpp.html" target="_top" xlink:title=" ">
<polygon fill="none" stroke="black" points="420.41,-123.5 420.41,-142.5 537.41,-142.5 537.41,-123.5 420.41,-123.5"/>
<text text-anchor="middle" x="478.91" y="-130.5" font-family="Helvetica,sans-Serif" font-size="10.00">uxn/patl/trie_set.hpp</text>
</a>
</g>
</g>
<!-- Node14&#45;&gt;Node18 -->
<g id="edge17" class="edge">
<title>Node14&#45;&gt;Node18</title>
<path fill="none" stroke="midnightblue" d="M478.91,-169.29C478.91,-159.86 478.91,-149.65 478.91,-142.66"/>
<polygon fill="midnightblue" stroke="midnightblue" points="475.41,-169.4 478.91,-179.4 482.41,-169.4 475.41,-169.4"/>
</g>
<!-- Node16 -->
<g id="node16" class="node">
<title>Node16</title>
<g id="a_node16"><a xlink:href="../../da/d22/sort__lin_8cpp.html" target="_top" xlink:title=" ">
<polygon fill="none" stroke="black" points="14.91,-56.5 14.91,-86.5 124.91,-86.5 124.91,-56.5 14.91,-56.5"/>
<text text-anchor="start" x="22.91" y="-74.5" font-family="Helvetica,sans-Serif" font-size="10.00">uxn/demos/sort_lin</text>
<text text-anchor="middle" x="69.91" y="-63.5" font-family="Helvetica,sans-Serif" font-size="10.00">/sort_lin.cpp</text>
</a>
</g>
</g>
<!-- Node15&#45;&gt;Node16 -->
<g id="edge15" class="edge">
<title>Node15&#45;&gt;Node16</title>
<path fill="none" stroke="midnightblue" d="M69.91,-113.23C69.91,-104.59 69.91,-94.5 69.91,-86.52"/>
<polygon fill="midnightblue" stroke="midnightblue" points="66.41,-113.48 69.91,-123.48 73.41,-113.48 66.41,-113.48"/>
</g>
<!-- Node17 -->
<g id="node17" class="node">
<title>Node17</title>
<g id="a_node17"><a xlink:href="../../d5/d3f/patcont_8cpp.html" target="_top" xlink:title=" ">
<polygon fill="none" stroke="black" points="244.91,-0.5 244.91,-19.5 360.91,-19.5 360.91,-0.5 244.91,-0.5"/>
<text text-anchor="middle" x="302.91" y="-7.5" font-family="Helvetica,sans-Serif" font-size="10.00">uxn/patl/patcont.cpp</text>
</a>
</g>
</g>
<!-- Node15&#45;&gt;Node17 -->
<g id="edge16" class="edge">
<title>Node15&#45;&gt;Node17</title>
<path fill="none" stroke="midnightblue" d="M39.36,-118.56C26.59,-111.22 13.07,-100.77 5.91,-87 -0.44,-74.77 -3.07,-66.45 5.91,-56 36.09,-20.91 167.2,-12.84 244.77,-11.2"/>
<polygon fill="midnightblue" stroke="midnightblue" points="37.96,-121.77 48.43,-123.36 41.23,-115.59 37.96,-121.77"/>
</g>
<!-- Node18&#45;&gt;Node6 -->
<g id="edge19" class="edge">
<title>Node18&#45;&gt;Node6</title>
<path fill="none" stroke="midnightblue" d="M531.46,-121.47C589.02,-109.94 680.22,-91.67 733.44,-81.01"/>
<polygon fill="midnightblue" stroke="midnightblue" points="530.58,-118.08 521.47,-123.48 531.96,-124.94 530.58,-118.08"/>
</g>
<!-- Node18&#45;&gt;Node12 -->
<g id="edge23" class="edge">
<title>Node18&#45;&gt;Node12</title>
<path fill="none" stroke="midnightblue" d="M547.58,-125.64C625.11,-118.09 754.94,-104.3 865.91,-87 868.76,-86.56 871.66,-86.08 874.59,-85.59"/>
<polygon fill="midnightblue" stroke="midnightblue" points="547.07,-122.18 537.46,-126.62 547.75,-129.14 547.07,-122.18"/>
</g>
<!-- Node18&#45;&gt;Node16 -->
<g id="edge22" class="edge">
<title>Node18&#45;&gt;Node16</title>
<path fill="none" stroke="midnightblue" d="M410.37,-124.96C340.54,-117.35 229.28,-103.98 133.91,-87 131,-86.48 128.01,-85.92 125.01,-85.32"/>
<polygon fill="midnightblue" stroke="midnightblue" points="410.05,-128.45 420.36,-126.04 410.8,-121.49 410.05,-128.45"/>
</g>
<!-- Node19 -->
<g id="node19" class="node">
<title>Node19</title>
<g id="a_node19"><a xlink:href="../../d5/d69/ins__test_8cpp.html" target="_top" xlink:title=" ">
<polygon fill="none" stroke="black" points="282.91,-56.5 282.91,-86.5 394.91,-86.5 394.91,-56.5 282.91,-56.5"/>
<text text-anchor="start" x="290.91" y="-74.5" font-family="Helvetica,sans-Serif" font-size="10.00">uxn/demos/ins_test</text>
<text text-anchor="middle" x="338.91" y="-63.5" font-family="Helvetica,sans-Serif" font-size="10.00">/ins_test.cpp</text>
</a>
</g>
</g>
<!-- Node18&#45;&gt;Node19 -->
<g id="edge18" class="edge">
<title>Node18&#45;&gt;Node19</title>
<path fill="none" stroke="midnightblue" d="M449.41,-119.46C426.73,-109.82 395.42,-96.51 371.91,-86.52"/>
<polygon fill="midnightblue" stroke="midnightblue" points="448.28,-122.78 458.86,-123.48 451.02,-116.34 448.28,-122.78"/>
</g>
<!-- Node20 -->
<g id="node20" class="node">
<title>Node20</title>
<g id="a_node20"><a xlink:href="../../de/dd6/levenshtein_8cpp.html" target="_top" xlink:title=" ">
<polygon fill="none" stroke="black" points="413.41,-56.5 413.41,-86.5 544.41,-86.5 544.41,-56.5 413.41,-56.5"/>
<text text-anchor="start" x="421.41" y="-74.5" font-family="Helvetica,sans-Serif" font-size="10.00">uxn/demos/levenshtein</text>
<text text-anchor="middle" x="478.91" y="-63.5" font-family="Helvetica,sans-Serif" font-size="10.00">/levenshtein.cpp</text>
</a>
</g>
</g>
<!-- Node18&#45;&gt;Node20 -->
<g id="edge20" class="edge">
<title>Node18&#45;&gt;Node20</title>
<path fill="none" stroke="midnightblue" d="M478.91,-113.23C478.91,-104.59 478.91,-94.5 478.91,-86.52"/>
<polygon fill="midnightblue" stroke="midnightblue" points="475.41,-113.48 478.91,-123.48 482.41,-113.48 475.41,-113.48"/>
</g>
<!-- Node21 -->
<g id="node21" class="node">
<title>Node21</title>
<g id="a_node21"><a xlink:href="../../d6/de8/muxoclon_8cpp.html" target="_top" xlink:title=" ">
<polygon fill="none" stroke="black" points="143.41,-56.5 143.41,-86.5 264.41,-86.5 264.41,-56.5 143.41,-56.5"/>
<text text-anchor="start" x="151.41" y="-74.5" font-family="Helvetica,sans-Serif" font-size="10.00">uxn/demos/muxoclon</text>
<text text-anchor="middle" x="203.91" y="-63.5" font-family="Helvetica,sans-Serif" font-size="10.00">/muxoclon.cpp</text>
</a>
</g>
</g>
<!-- Node18&#45;&gt;Node21 -->
<g id="edge21" class="edge">
<title>Node18&#45;&gt;Node21</title>
<path fill="none" stroke="midnightblue" d="M429.73,-121.36C383.49,-111.35 314.16,-96.35 264.53,-85.62"/>
<polygon fill="midnightblue" stroke="midnightblue" points="429,-124.78 439.51,-123.48 430.48,-117.94 429,-124.78"/>
</g>
<!-- Node22 -->
<g id="node22" class="node">
<title>Node22</title>
<g id="a_node22"><a xlink:href="../../db/d8f/priority_8hpp.html" target="_top" xlink:title=" ">
<polygon fill="none" stroke="black" points="562.91,-62 562.91,-81 676.91,-81 676.91,-62 562.91,-62"/>
<text text-anchor="middle" x="619.91" y="-69" font-family="Helvetica,sans-Serif" font-size="10.00">uxn/patl/priority.hpp</text>
</a>
</g>
</g>
<!-- Node18&#45;&gt;Node22 -->
<g id="edge24" class="edge">
<title>Node18&#45;&gt;Node22</title>
<path fill="none" stroke="midnightblue" d="M508.58,-119.48C535.97,-107.92 575.89,-91.08 599.75,-81.01"/>
<polygon fill="midnightblue" stroke="midnightblue" points="506.97,-116.36 499.12,-123.48 509.69,-122.81 506.97,-116.36"/>
</g>
<!-- Node22&#45;&gt;Node17 -->
<g id="edge25" class="edge">
<title>Node22&#45;&gt;Node17</title>
<path fill="none" stroke="midnightblue" d="M571.83,-59.88C565.48,-58.54 559.04,-57.21 552.91,-56 483.92,-42.33 403.85,-28.22 353.29,-19.53"/>
<polygon fill="midnightblue" stroke="midnightblue" points="571.19,-63.32 581.7,-61.99 572.65,-56.48 571.19,-63.32"/>
</g>
<!-- Node24&#45;&gt;Node2 -->
<g id="edge28" class="edge">
<title>Node24&#45;&gt;Node2</title>
<path fill="none" stroke="midnightblue" d="M1109.91,-303.11C1109.91,-294.15 1109.91,-284.32 1109.91,-276.58"/>
<polygon fill="midnightblue" stroke="midnightblue" points="1106.41,-303.4 1109.91,-313.4 1113.41,-303.4 1106.41,-303.4"/>
</g>
<!-- Node25&#45;&gt;Node2 -->
<g id="edge30" class="edge">
<title>Node25&#45;&gt;Node2</title>
<path fill="none" stroke="midnightblue" d="M1214.96,-309.27C1191.71,-298.92 1163.04,-286.15 1141.53,-276.58"/>
<polygon fill="midnightblue" stroke="midnightblue" points="1213.68,-312.53 1224.23,-313.4 1216.52,-306.13 1213.68,-312.53"/>
</g>
</g>
</svg>
        <g id="navigator" transform="translate(0 0)" fill="#404254">
                <rect fill="#f2f5e9" fill-opacity="0.5" stroke="#606060" stroke-width=".5" x="0" y="0" width="60" height="60"/>
                <use id="zoomplus" xlink:href="#zoomPlus" x="17" y="9" onmousedown="handleZoom(evt,'in')"/>
                <use id="zoomminus" xlink:href="#zoomMin" x="42" y="9" onmousedown="handleZoom(evt,'out')"/>
                <use id="reset" xlink:href="#resetDef" x="30" y="36" onmousedown="handleReset()"/>
                <g id="arrowUp" xlink:href="#dirArrow" transform="translate(30 24)" onmousedown="handlePan(0,-1)">
                  <use xlink:href="#rim" fill="#404040">
                        <set attributeName="fill" to="#808080" begin="arrowUp.mouseover" end="arrowUp.mouseout"/>
                  </use>
                  <path fill="none" stroke="white" stroke-width="1.5" d="M0,-3.0v7 M-2.5,-0.5L0,-3.0L2.5,-0.5"/>
                </g>
                <g id="arrowRight" xlink:href="#dirArrow" transform="rotate(90) translate(36 -43)" onmousedown="handlePan(1,0)">
                  <use xlink:href="#rim" fill="#404040">
                        <set attributeName="fill" to="#808080" begin="arrowRight.mouseover" end="arrowRight.mouseout"/>
                  </use>
                  <path fill="none" stroke="white" stroke-width="1.5" d="M0,-3.0v7 M-2.5,-0.5L0,-3.0L2.5,-0.5"/>
                </g>
                <g id="arrowDown" xlink:href="#dirArrow" transform="rotate(180) translate(-30 -48)" onmousedown="handlePan(0,1)">
                  <use xlink:href="#rim" fill="#404040">
                        <set attributeName="fill" to="#808080" begin="arrowDown.mouseover" end="arrowDown.mouseout"/>
                  </use>
                  <path fill="none" stroke="white" stroke-width="1.5" d="M0,-3.0v7 M-2.5,-0.5L0,-3.0L2.5,-0.5"/>
                </g>
                <g id="arrowLeft" xlink:href="#dirArrow" transform="rotate(270) translate(-36 17)" onmousedown="handlePan(-1,0)">
                  <use xlink:href="#rim" fill="#404040">
                        <set attributeName="fill" to="#808080" begin="arrowLeft.mouseover" end="arrowLeft.mouseout"/>
                  </use>
                  <path fill="none" stroke="white" stroke-width="1.5" d="M0,-3.0v7 M-2.5,-0.5L0,-3.0L2.5,-0.5"/>
                </g>
        </g>
        <svg viewBox="0 0 15 15" width="100%" height="30px" preserveAspectRatio="xMaxYMin meet">
         <g id="arrow_out" transform="scale(0.3 0.3)">
          <a xlink:href="vertex_8hpp__dep__incl_org.svg" target="_base">
           <rect id="button" ry="5" rx="5" y="6" x="6" height="38" width="38"
                fill="#f2f5e9" fill-opacity="0.5" stroke="#606060" stroke-width="1.0"/>
           <path id="arrow"
             d="M 11.500037,31.436501 C 11.940474,20.09759 22.043105,11.32322 32.158766,21.979434 L 37.068811,17.246167 C 37.068811,17.246167 37.088388,32 37.088388,32 L 22.160133,31.978069 C 22.160133,31.978069 26.997745,27.140456 26.997745,27.140456 C 18.528582,18.264221 13.291696,25.230495 11.500037,31.436501 z"
             style="fill:#404040;"/>
          </a>
         </g>
        </svg>
</svg>
