<?xml version="1.0" encoding="UTF-8" standalone="no"?>
<!DOCTYPE svg PUBLIC "-//W3C//DTD SVG 1.1//EN"
 "http://www.w3.org/Graphics/SVG/1.1/DTD/svg11.dtd">
<!-- Generated by graphviz version 5.0.1 (20220820.1526)
 -->
<!-- Title: uxn::patl::levenshtein_distance&lt; Container, SameLength &gt; Pages: 1 -->
<svg width="482pt" height="1219pt"
 viewBox="0.00 0.00 482.00 1219.00" xmlns="http://www.w3.org/2000/svg" xmlns:xlink="http://www.w3.org/1999/xlink">
<g id="graph0" class="graph" transform="scale(1 1) rotate(0) translate(4 1215)">
<title>uxn::patl::levenshtein_distance&lt; Container, SameLength &gt;</title>
<!-- Node1 -->
<g id="node1" class="node">
<title>Node1</title>
<g id="a_node1"><a xlink:title=" ">
<polygon fill="#bfbfbf" stroke="black" points="179,-0.5 179,-189.5 335,-189.5 335,-0.5 179,-0.5"/>
<text text-anchor="start" x="187" y="-177.5" font-family="Helvetica,sans-Serif" font-size="10.00">uxn::patl::levenshtein</text>
<text text-anchor="start" x="187" y="-166.5" font-family="Helvetica,sans-Serif" font-size="10.00">_distance&lt; Container,</text>
<text text-anchor="middle" x="257" y="-155.5" font-family="Helvetica,sans-Serif" font-size="10.00"> SameLength &gt;</text>
<polyline fill="none" stroke="black" points="179,-148.5 335,-148.5"/>
<text text-anchor="middle" x="257" y="-136.5" font-family="Helvetica,sans-Serif" font-size="10.00"> </text>
<polyline fill="none" stroke="black" points="179,-129.5 335,-129.5"/>
<text text-anchor="start" x="187" y="-117.5" font-family="Helvetica,sans-Serif" font-size="10.00">+ levenshtein_distance</text>
<text text-anchor="start" x="187" y="-106.5" font-family="Helvetica,sans-Serif" font-size="10.00">(const Container &amp;cont,</text>
<text text-anchor="start" x="187" y="-95.5" font-family="Helvetica,sans-Serif" font-size="10.00"> word_t dist, const key</text>
<text text-anchor="start" x="187" y="-84.5" font-family="Helvetica,sans-Serif" font-size="10.00">_type &amp;mask, word_t mask</text>
<text text-anchor="start" x="187" y="-73.5" font-family="Helvetica,sans-Serif" font-size="10.00">_len=~word_t(0), const char</text>
<text text-anchor="start" x="187" y="-62.5" font-family="Helvetica,sans-Serif" font-size="10.00">_type &amp;terminator=&#39;\0&#39;)</text>
<text text-anchor="start" x="187" y="-51.5" font-family="Helvetica,sans-Serif" font-size="10.00">+ void transitions(word</text>
<text text-anchor="start" x="187" y="-40.5" font-family="Helvetica,sans-Serif" font-size="10.00">_t i, word_t e, const</text>
<text text-anchor="start" x="187" y="-29.5" font-family="Helvetica,sans-Serif" font-size="10.00"> char_type ch, std::back</text>
<text text-anchor="start" x="187" y="-18.5" font-family="Helvetica,sans-Serif" font-size="10.00">_insert_iterator&lt; states</text>
<text text-anchor="start" x="187" y="-7.5" font-family="Helvetica,sans-Serif" font-size="10.00">_vector &gt; next)</text>
</a>
</g>
</g>
<!-- Node2 -->
<g id="node2" class="node">
<title>Node2</title>
<g id="a_node2"><a xlink:href="../../d9/db8/classuxn_1_1patl_1_1impl_1_1levenshtein__generic.html" target="_top" xlink:title=" ">
<polygon fill="none" stroke="black" points="151.5,-227.5 151.5,-427.5 362.5,-427.5 362.5,-227.5 151.5,-227.5"/>
<text text-anchor="start" x="159.5" y="-415.5" font-family="Helvetica,sans-Serif" font-size="10.00">uxn::patl::impl::levenshtein</text>
<text text-anchor="start" x="159.5" y="-404.5" font-family="Helvetica,sans-Serif" font-size="10.00">_generic&lt; levenshtein_distance</text>
<text text-anchor="middle" x="257" y="-393.5" font-family="Helvetica,sans-Serif" font-size="10.00">&lt; Container, false &gt;, Container, false &gt;</text>
<polyline fill="none" stroke="black" points="151.5,-386.5 362.5,-386.5"/>
<text text-anchor="start" x="159.5" y="-374.5" font-family="Helvetica,sans-Serif" font-size="10.00"># word_t dist_</text>
<text text-anchor="start" x="159.5" y="-363.5" font-family="Helvetica,sans-Serif" font-size="10.00">&#45; word_t cur_dist_</text>
<polyline fill="none" stroke="black" points="151.5,-356.5 362.5,-356.5"/>
<text text-anchor="start" x="159.5" y="-344.5" font-family="Helvetica,sans-Serif" font-size="10.00">+ levenshtein_generic</text>
<text text-anchor="start" x="159.5" y="-333.5" font-family="Helvetica,sans-Serif" font-size="10.00">(const Container &amp;cont,</text>
<text text-anchor="start" x="159.5" y="-322.5" font-family="Helvetica,sans-Serif" font-size="10.00"> word_t dist, const key</text>
<text text-anchor="start" x="159.5" y="-311.5" font-family="Helvetica,sans-Serif" font-size="10.00">_type &amp;mask, word_t mask</text>
<text text-anchor="start" x="159.5" y="-300.5" font-family="Helvetica,sans-Serif" font-size="10.00">_len=~word_t(0), const char</text>
<text text-anchor="start" x="159.5" y="-289.5" font-family="Helvetica,sans-Serif" font-size="10.00">_type &amp;terminator=char_type())</text>
<text text-anchor="start" x="159.5" y="-278.5" font-family="Helvetica,sans-Serif" font-size="10.00">+ void init()</text>
<text text-anchor="start" x="159.5" y="-267.5" font-family="Helvetica,sans-Serif" font-size="10.00">+ word_t distance() const</text>
<text text-anchor="start" x="159.5" y="-256.5" font-family="Helvetica,sans-Serif" font-size="10.00">+ bool operator()(word_t i)</text>
<text text-anchor="start" x="159.5" y="-245.5" font-family="Helvetica,sans-Serif" font-size="10.00">+ bool operator()(word</text>
<text text-anchor="start" x="159.5" y="-234.5" font-family="Helvetica,sans-Serif" font-size="10.00">_t, const char_type &amp;ch)</text>
</a>
</g>
</g>
<!-- Node2&#45;&gt;Node1 -->
<g id="edge1" class="edge">
<title>Node2&#45;&gt;Node1</title>
<path fill="none" stroke="midnightblue" d="M257,-217.35C257,-208.05 257,-198.7 257,-189.54"/>
<polygon fill="none" stroke="midnightblue" points="253.5,-217.41 257,-227.41 260.5,-217.41 253.5,-217.41"/>
</g>
<!-- Node3 -->
<g id="node3" class="node">
<title>Node3</title>
<g id="a_node3"><a xlink:href="../../d6/d28/classuxn_1_1patl_1_1impl_1_1partial__base.html" target="_top" xlink:title=" ">
<polygon fill="none" stroke="black" points="0,-745.5 0,-989.5 182,-989.5 182,-745.5 0,-745.5"/>
<text text-anchor="start" x="8" y="-977.5" font-family="Helvetica,sans-Serif" font-size="10.00">uxn::patl::impl::partial</text>
<text text-anchor="middle" x="91" y="-966.5" font-family="Helvetica,sans-Serif" font-size="10.00">_base&lt; Container, SameLength &gt;</text>
<polyline fill="none" stroke="black" points="0,-959.5 182,-959.5"/>
<text text-anchor="start" x="8" y="-947.5" font-family="Helvetica,sans-Serif" font-size="10.00">+ static const bool accept</text>
<text text-anchor="start" x="8" y="-936.5" font-family="Helvetica,sans-Serif" font-size="10.00">_subtree</text>
<text text-anchor="start" x="8" y="-925.5" font-family="Helvetica,sans-Serif" font-size="10.00"># key_type mask_</text>
<text text-anchor="start" x="8" y="-914.5" font-family="Helvetica,sans-Serif" font-size="10.00"># word_t mask_len_</text>
<text text-anchor="start" x="8" y="-903.5" font-family="Helvetica,sans-Serif" font-size="10.00"># word_t mask_bit_len_</text>
<text text-anchor="start" x="8" y="-892.5" font-family="Helvetica,sans-Serif" font-size="10.00"># char_type terminator_</text>
<text text-anchor="start" x="8" y="-881.5" font-family="Helvetica,sans-Serif" font-size="10.00"># bit_compare bit_comp_</text>
<polyline fill="none" stroke="black" points="0,-874.5 182,-874.5"/>
<text text-anchor="start" x="8" y="-862.5" font-family="Helvetica,sans-Serif" font-size="10.00">+ partial_base(const</text>
<text text-anchor="start" x="8" y="-851.5" font-family="Helvetica,sans-Serif" font-size="10.00"> Container &amp;cont, const</text>
<text text-anchor="start" x="8" y="-840.5" font-family="Helvetica,sans-Serif" font-size="10.00"> key_type &amp;mask, word_t</text>
<text text-anchor="start" x="8" y="-829.5" font-family="Helvetica,sans-Serif" font-size="10.00"> mask_len=~word_t(0), const</text>
<text text-anchor="start" x="8" y="-818.5" font-family="Helvetica,sans-Serif" font-size="10.00"> char_type &amp;terminator=&#39;\0&#39;)</text>
<text text-anchor="start" x="8" y="-807.5" font-family="Helvetica,sans-Serif" font-size="10.00">+ bool operator()(word</text>
<text text-anchor="start" x="8" y="-796.5" font-family="Helvetica,sans-Serif" font-size="10.00">_t i) const</text>
<text text-anchor="start" x="8" y="-785.5" font-family="Helvetica,sans-Serif" font-size="10.00">+ bool bit_level(word</text>
<text text-anchor="start" x="8" y="-774.5" font-family="Helvetica,sans-Serif" font-size="10.00">_t, word_t) const</text>
<text text-anchor="start" x="8" y="-763.5" font-family="Helvetica,sans-Serif" font-size="10.00">+ const key_type &amp; mask</text>
<text text-anchor="start" x="8" y="-752.5" font-family="Helvetica,sans-Serif" font-size="10.00">() const</text>
</a>
</g>
</g>
<!-- Node3&#45;&gt;Node2 -->
<g id="edge2" class="edge">
<title>Node3&#45;&gt;Node2</title>
<path fill="none" stroke="midnightblue" d="M74.59,-735.1C70.7,-662.38 74.59,-571.84 105,-497 115.75,-470.54 132.6,-445.55 151.24,-423.32"/>
<polygon fill="none" stroke="midnightblue" points="71.11,-735.47 75.19,-745.24 78.1,-735.05 71.11,-735.47"/>
</g>
<!-- Node8 -->
<g id="node8" class="node">
<title>Node8</title>
<g id="a_node8"><a xlink:href="../../d9/db8/classuxn_1_1patl_1_1impl_1_1levenshtein__generic.html" target="_top" xlink:title=" ">
<polygon fill="none" stroke="black" points="114.5,-497.5 114.5,-697.5 287.5,-697.5 287.5,-497.5 114.5,-497.5"/>
<text text-anchor="start" x="122.5" y="-685.5" font-family="Helvetica,sans-Serif" font-size="10.00">uxn::patl::impl::levenshtein</text>
<text text-anchor="start" x="122.5" y="-674.5" font-family="Helvetica,sans-Serif" font-size="10.00">_generic&lt; This, Container,</text>
<text text-anchor="middle" x="201" y="-663.5" font-family="Helvetica,sans-Serif" font-size="10.00"> SameLength &gt;</text>
<polyline fill="none" stroke="black" points="114.5,-656.5 287.5,-656.5"/>
<text text-anchor="start" x="122.5" y="-644.5" font-family="Helvetica,sans-Serif" font-size="10.00"># word_t dist_</text>
<text text-anchor="start" x="122.5" y="-633.5" font-family="Helvetica,sans-Serif" font-size="10.00">&#45; word_t cur_dist_</text>
<polyline fill="none" stroke="black" points="114.5,-626.5 287.5,-626.5"/>
<text text-anchor="start" x="122.5" y="-614.5" font-family="Helvetica,sans-Serif" font-size="10.00">+ levenshtein_generic</text>
<text text-anchor="start" x="122.5" y="-603.5" font-family="Helvetica,sans-Serif" font-size="10.00">(const Container &amp;cont,</text>
<text text-anchor="start" x="122.5" y="-592.5" font-family="Helvetica,sans-Serif" font-size="10.00"> word_t dist, const key</text>
<text text-anchor="start" x="122.5" y="-581.5" font-family="Helvetica,sans-Serif" font-size="10.00">_type &amp;mask, word_t mask</text>
<text text-anchor="start" x="122.5" y="-570.5" font-family="Helvetica,sans-Serif" font-size="10.00">_len=~word_t(0), const char</text>
<text text-anchor="start" x="122.5" y="-559.5" font-family="Helvetica,sans-Serif" font-size="10.00">_type &amp;terminator=char_type())</text>
<text text-anchor="start" x="122.5" y="-548.5" font-family="Helvetica,sans-Serif" font-size="10.00">+ void init()</text>
<text text-anchor="start" x="122.5" y="-537.5" font-family="Helvetica,sans-Serif" font-size="10.00">+ word_t distance() const</text>
<text text-anchor="start" x="122.5" y="-526.5" font-family="Helvetica,sans-Serif" font-size="10.00">+ bool operator()(word_t i)</text>
<text text-anchor="start" x="122.5" y="-515.5" font-family="Helvetica,sans-Serif" font-size="10.00">+ bool operator()(word</text>
<text text-anchor="start" x="122.5" y="-504.5" font-family="Helvetica,sans-Serif" font-size="10.00">_t, const char_type &amp;ch)</text>
</a>
</g>
</g>
<!-- Node3&#45;&gt;Node8 -->
<g id="edge9" class="edge">
<title>Node3&#45;&gt;Node8</title>
<path fill="none" stroke="midnightblue" d="M144.54,-736.07C149.82,-723.18 155.13,-710.25 160.26,-697.76"/>
<polygon fill="none" stroke="midnightblue" points="141.25,-734.86 140.69,-745.44 147.72,-737.52 141.25,-734.86"/>
</g>
<!-- Node4 -->
<g id="node4" class="node">
<title>Node4</title>
<g id="a_node4"><a xlink:title=" ">
<polygon fill="none" stroke="black" points="350,-839 350,-896 474,-896 474,-839 350,-839"/>
<text text-anchor="middle" x="412" y="-884" font-family="Helvetica,sans-Serif" font-size="10.00">std::vector&lt; word_t &gt;</text>
<polyline fill="none" stroke="black" points="350,-877 474,-877"/>
<text text-anchor="start" x="358" y="-865" font-family="Helvetica,sans-Serif" font-size="10.00">+ word_t elements</text>
<polyline fill="none" stroke="black" points="350,-858 474,-858"/>
<text text-anchor="middle" x="412" y="-846" font-family="Helvetica,sans-Serif" font-size="10.00"> </text>
</a>
</g>
</g>
<!-- Node4&#45;&gt;Node2 -->
<g id="edge3" class="edge">
<title>Node4&#45;&gt;Node2</title>
<path fill="none" stroke="#404040" d="M412.97,-838.61C414.27,-775.62 412.37,-618.35 368,-497 360.69,-477.01 350.6,-457.02 339.46,-438.16"/>
<polygon fill="none" stroke="#404040" points="339.4,-438.06 332.87,-435 333.18,-427.8 339.71,-430.85 339.4,-438.06"/>
<text text-anchor="middle" x="430.5" y="-595" font-family="Helvetica,sans-Serif" font-size="10.00"> &#45;begins_</text>
</g>
<!-- Node4&#45;&gt;Node8 -->
<g id="edge10" class="edge">
<title>Node4&#45;&gt;Node8</title>
<path fill="none" stroke="#404040" d="M398.21,-838.81C385.01,-813.4 363.79,-775.24 341,-745 327.39,-726.94 311.78,-708.71 296.04,-691.53"/>
<polygon fill="none" stroke="#404040" points="295.97,-691.45 288.96,-689.77 287.81,-682.65 294.82,-684.33 295.97,-691.45"/>
<text text-anchor="middle" x="345.5" y="-719" font-family="Helvetica,sans-Serif" font-size="10.00"> &#45;begins_</text>
</g>
<!-- Node5 -->
<g id="node5" class="node">
<title>Node5</title>
<g id="a_node5"><a xlink:title=" ">
<polygon fill="none" stroke="black" points="292.5,-1048.5 292.5,-1105.5 389.5,-1105.5 389.5,-1048.5 292.5,-1048.5"/>
<text text-anchor="middle" x="341" y="-1093.5" font-family="Helvetica,sans-Serif" font-size="10.00">std::vector&lt; T &gt;</text>
<polyline fill="none" stroke="black" points="292.5,-1086.5 389.5,-1086.5"/>
<text text-anchor="middle" x="341" y="-1074.5" font-family="Helvetica,sans-Serif" font-size="10.00"> </text>
<polyline fill="none" stroke="black" points="292.5,-1067.5 389.5,-1067.5"/>
<text text-anchor="middle" x="341" y="-1055.5" font-family="Helvetica,sans-Serif" font-size="10.00"> </text>
</a>
</g>
</g>
<!-- Node5&#45;&gt;Node4 -->
<g id="edge4" class="edge">
<title>Node5&#45;&gt;Node4</title>
<path fill="none" stroke="orange" d="M379.55,-1040.46C381.99,-1037.1 384.18,-1033.6 386,-1030 407.8,-986.76 412.09,-929.48 412.53,-896.04"/>
<polygon fill="orange" stroke="orange" points="376.64,-1038.49 373.08,-1048.48 382.08,-1042.89 376.64,-1038.49"/>
<text text-anchor="middle" x="423.5" y="-1016.5" font-family="Helvetica,sans-Serif" font-size="10.00"> &lt; word_t &gt;</text>
</g>
<!-- Node7 -->
<g id="node7" class="node">
<title>Node7</title>
<g id="a_node7"><a xlink:title=" ">
<polygon fill="none" stroke="black" points="210,-828 210,-907 332,-907 332,-828 210,-828"/>
<text text-anchor="start" x="218" y="-895" font-family="Helvetica,sans-Serif" font-size="10.00">std::vector&lt; std::pair</text>
<text text-anchor="middle" x="271" y="-884" font-family="Helvetica,sans-Serif" font-size="10.00">&lt; word_t, word_t &gt; &gt;</text>
<polyline fill="none" stroke="black" points="210,-877 332,-877"/>
<text text-anchor="start" x="218" y="-865" font-family="Helvetica,sans-Serif" font-size="10.00">+ std::pair&lt; word_t,</text>
<text text-anchor="start" x="218" y="-854" font-family="Helvetica,sans-Serif" font-size="10.00"> word_t &gt; elements</text>
<polyline fill="none" stroke="black" points="210,-847 332,-847"/>
<text text-anchor="middle" x="271" y="-835" font-family="Helvetica,sans-Serif" font-size="10.00"> </text>
</a>
</g>
</g>
<!-- Node5&#45;&gt;Node7 -->
<g id="edge7" class="edge">
<title>Node5&#45;&gt;Node7</title>
<path fill="none" stroke="orange" d="M291.24,-1040.77C288.47,-1037.39 286,-1033.79 284,-1030 263.83,-991.82 263.17,-941.36 265.88,-907.08"/>
<polygon fill="orange" stroke="orange" points="288.83,-1043.31 298.19,-1048.26 293.96,-1038.55 288.83,-1043.31"/>
<text text-anchor="start" x="284" y="-1022" font-family="Helvetica,sans-Serif" font-size="10.00"> &lt; std::pair&lt; word_t,</text>
<text text-anchor="middle" x="335" y="-1011" font-family="Helvetica,sans-Serif" font-size="10.00"> word_t &gt; &gt;</text>
</g>
<!-- Node6 -->
<g id="node6" class="node">
<title>Node6</title>
<g id="a_node6"><a xlink:title=" ">
<polygon fill="none" stroke="black" points="326.5,-1153.5 326.5,-1210.5 355.5,-1210.5 355.5,-1153.5 326.5,-1153.5"/>
<text text-anchor="middle" x="341" y="-1198.5" font-family="Helvetica,sans-Serif" font-size="10.00">T</text>
<polyline fill="none" stroke="black" points="326.5,-1191.5 355.5,-1191.5"/>
<text text-anchor="middle" x="341" y="-1179.5" font-family="Helvetica,sans-Serif" font-size="10.00"> </text>
<polyline fill="none" stroke="black" points="326.5,-1172.5 355.5,-1172.5"/>
<text text-anchor="middle" x="341" y="-1160.5" font-family="Helvetica,sans-Serif" font-size="10.00"> </text>
</a>
</g>
</g>
<!-- Node6&#45;&gt;Node5 -->
<g id="edge5" class="edge">
<title>Node6&#45;&gt;Node5</title>
<path fill="none" stroke="#404040" d="M341,-1153.4C341,-1142.55 341,-1129.87 341,-1118.05"/>
<polygon fill="none" stroke="#404040" points="341,-1117.68 337,-1111.68 341,-1105.68 345,-1111.68 341,-1117.68"/>
<text text-anchor="middle" x="370" y="-1127" font-family="Helvetica,sans-Serif" font-size="10.00"> +elements</text>
</g>
<!-- Node7&#45;&gt;Node2 -->
<g id="edge6" class="edge">
<title>Node7&#45;&gt;Node2</title>
<path fill="none" stroke="#404040" d="M282.33,-827.77C302.48,-753.09 339.76,-584.34 310,-446 309.51,-443.7 308.96,-441.4 308.38,-439.09"/>
<polygon fill="none" stroke="#404040" points="308.37,-439.06 302.89,-434.38 305.1,-427.51 310.58,-432.2 308.37,-439.06"/>
<text text-anchor="middle" x="342.5" y="-595" font-family="Helvetica,sans-Serif" font-size="10.00"> &#45;states_</text>
</g>
<!-- Node7&#45;&gt;Node8 -->
<g id="edge11" class="edge">
<title>Node7&#45;&gt;Node8</title>
<path fill="none" stroke="#404040" d="M260.9,-827.82C252.78,-796.75 240.96,-751.5 229.96,-709.39"/>
<polygon fill="none" stroke="#404040" points="229.92,-709.22 224.53,-704.43 226.89,-697.61 232.27,-702.41 229.92,-709.22"/>
<text text-anchor="middle" x="254.5" y="-719" font-family="Helvetica,sans-Serif" font-size="10.00"> &#45;states_</text>
</g>
<!-- Node8&#45;&gt;Node2 -->
<g id="edge8" class="edge">
<title>Node8&#45;&gt;Node2</title>
<path fill="none" stroke="orange" d="M186.48,-487.13C186.96,-473.16 188.6,-459.15 192,-446 193.57,-439.91 195.54,-433.79 197.79,-427.72"/>
<polygon fill="orange" stroke="orange" points="182.98,-487.24 186.34,-497.29 189.98,-487.34 182.98,-487.24"/>
<text text-anchor="start" x="192" y="-471" font-family="Helvetica,sans-Serif" font-size="10.00"> &lt; levenshtein_distance</text>
<text text-anchor="start" x="192" y="-460" font-family="Helvetica,sans-Serif" font-size="10.00">&lt; Container, false &gt;,</text>
<text text-anchor="middle" x="251" y="-449" font-family="Helvetica,sans-Serif" font-size="10.00"> Container, false &gt;</text>
</g>
</g>
</svg>
