<?xml version="1.0" encoding="UTF-8" standalone="no"?>
<!DOCTYPE svg PUBLIC "-//W3C//DTD SVG 1.1//EN"
 "http://www.w3.org/Graphics/SVG/1.1/DTD/svg11.dtd">
<!-- Generated by graphviz version 5.0.1 (20220820.1526)
 -->
<!-- Title: uxn::patl::lca_oracle::get_by Pages: 1 -->
<svg width="425pt" height="88pt"
 viewBox="0.00 0.00 425.00 88.00" xmlns="http://www.w3.org/2000/svg" xmlns:xlink="http://www.w3.org/1999/xlink">
<g id="graph0" class="graph" transform="scale(1 1) rotate(0) translate(4 84)">
<title>uxn::patl::lca_oracle::get_by</title>
<!-- Node1 -->
<g id="node1" class="node">
<title>Node1</title>
<g id="a_node1"><a xlink:title="utility func">
<polygon fill="#bfbfbf" stroke="black" points="302,-24.5 302,-54.5 417,-54.5 417,-24.5 302,-24.5"/>
<text text-anchor="start" x="310" y="-42.5" font-family="Helvetica,sans-Serif" font-size="10.00">uxn::patl::lca_oracle</text>
<text text-anchor="middle" x="359.5" y="-31.5" font-family="Helvetica,sans-Serif" font-size="10.00">::get_by</text>
</a>
</g>
</g>
<!-- Node2 -->
<g id="node2" class="node">
<title>Node2</title>
<g id="a_node2"><a xlink:href="../../da/dd4/classuxn_1_1patl_1_1lca__oracle.html#a3fcbb3309989696abb5902827675ef3e" target="_top" xlink:title=" ">
<polygon fill="none" stroke="black" points="151,-49.5 151,-79.5 266,-79.5 266,-49.5 151,-49.5"/>
<text text-anchor="start" x="159" y="-67.5" font-family="Helvetica,sans-Serif" font-size="10.00">uxn::patl::lca_oracle</text>
<text text-anchor="middle" x="208.5" y="-56.5" font-family="Helvetica,sans-Serif" font-size="10.00">::init</text>
</a>
</g>
</g>
<!-- Node1&#45;&gt;Node2 -->
<g id="edge1" class="edge">
<title>Node1&#45;&gt;Node2</title>
<path fill="none" stroke="midnightblue" d="M291.77,-50.7C283.2,-52.13 274.49,-53.6 266.1,-55"/>
<polygon fill="midnightblue" stroke="midnightblue" points="292.46,-54.13 301.74,-49.02 291.3,-47.23 292.46,-54.13"/>
</g>
<!-- Node4 -->
<g id="node4" class="node">
<title>Node4</title>
<g id="a_node4"><a xlink:href="../../da/dd4/classuxn_1_1patl_1_1lca__oracle.html#ad7b6f03a0f25ab9fbe69b78d3f772ee3" target="_top" xlink:title="return LCA(vx, vy)">
<polygon fill="none" stroke="black" points="151,-0.5 151,-30.5 266,-30.5 266,-0.5 151,-0.5"/>
<text text-anchor="start" x="159" y="-18.5" font-family="Helvetica,sans-Serif" font-size="10.00">uxn::patl::lca_oracle</text>
<text text-anchor="middle" x="208.5" y="-7.5" font-family="Helvetica,sans-Serif" font-size="10.00">::operator()</text>
</a>
</g>
</g>
<!-- Node1&#45;&gt;Node4 -->
<g id="edge3" class="edge">
<title>Node1&#45;&gt;Node4</title>
<path fill="none" stroke="midnightblue" d="M291.77,-28.75C283.2,-27.37 274.49,-25.97 266.1,-24.62"/>
<polygon fill="midnightblue" stroke="midnightblue" points="291.32,-32.22 301.74,-30.36 292.43,-25.31 291.32,-32.22"/>
</g>
<!-- Node3 -->
<g id="node3" class="node">
<title>Node3</title>
<g id="a_node3"><a xlink:href="../../da/dd4/classuxn_1_1patl_1_1lca__oracle.html#a71f8a48399f1618a14849c8a3006fbfe" target="_top" xlink:title="ctor">
<polygon fill="none" stroke="black" points="0,-49.5 0,-79.5 115,-79.5 115,-49.5 0,-49.5"/>
<text text-anchor="start" x="8" y="-67.5" font-family="Helvetica,sans-Serif" font-size="10.00">uxn::patl::lca_oracle</text>
<text text-anchor="middle" x="57.5" y="-56.5" font-family="Helvetica,sans-Serif" font-size="10.00">::lca_oracle</text>
</a>
</g>
</g>
<!-- Node2&#45;&gt;Node3 -->
<g id="edge2" class="edge">
<title>Node2&#45;&gt;Node3</title>
<path fill="none" stroke="midnightblue" d="M140.49,-64.5C132.01,-64.5 123.4,-64.5 115.1,-64.5"/>
<polygon fill="midnightblue" stroke="midnightblue" points="140.74,-68 150.74,-64.5 140.74,-61 140.74,-68"/>
</g>
</g>
</svg>
