<?xml version="1.0" encoding="UTF-8" standalone="no"?>
<!DOCTYPE svg PUBLIC "-//W3C//DTD SVG 1.1//EN"
 "http://www.w3.org/Graphics/SVG/1.1/DTD/svg11.dtd">
<!-- Generated by graphviz version 5.0.1 (20220820.1526)
 -->
<!-- Title: uxn::patl::lca_oracle::lca_oracle Pages: 1 -->
<svg width="713pt" height="374pt"
 viewBox="0.00 0.00 713.00 374.00" xmlns="http://www.w3.org/2000/svg" xmlns:xlink="http://www.w3.org/1999/xlink">
<g id="graph0" class="graph" transform="scale(1 1) rotate(0) translate(4 370)">
<title>uxn::patl::lca_oracle::lca_oracle</title>
<!-- Node1 -->
<g id="node1" class="node">
<title>Node1</title>
<g id="a_node1"><a xlink:title="ctor">
<polygon fill="#bfbfbf" stroke="black" points="0,-193.5 0,-223.5 115,-223.5 115,-193.5 0,-193.5"/>
<text text-anchor="start" x="8" y="-211.5" font-family="Helvetica,sans-Serif" font-size="10.00">uxn::patl::lca_oracle</text>
<text text-anchor="middle" x="57.5" y="-200.5" font-family="Helvetica,sans-Serif" font-size="10.00">::lca_oracle</text>
</a>
</g>
</g>
<!-- Node2 -->
<g id="node2" class="node">
<title>Node2</title>
<g id="a_node2"><a xlink:href="../../da/dd4/classuxn_1_1patl_1_1lca__oracle.html#a3fcbb3309989696abb5902827675ef3e" target="_top" xlink:title=" ">
<polygon fill="none" stroke="black" points="151,-193.5 151,-223.5 266,-223.5 266,-193.5 151,-193.5"/>
<text text-anchor="start" x="159" y="-211.5" font-family="Helvetica,sans-Serif" font-size="10.00">uxn::patl::lca_oracle</text>
<text text-anchor="middle" x="208.5" y="-200.5" font-family="Helvetica,sans-Serif" font-size="10.00">::init</text>
</a>
</g>
</g>
<!-- Node1&#45;&gt;Node2 -->
<g id="edge1" class="edge">
<title>Node1&#45;&gt;Node2</title>
<path fill="none" stroke="midnightblue" d="M115.26,-208.5C123.56,-208.5 132.17,-208.5 140.65,-208.5"/>
<polygon fill="midnightblue" stroke="midnightblue" points="140.9,-212 150.9,-208.5 140.9,-205 140.9,-212"/>
</g>
<!-- Node3 -->
<g id="node3" class="node">
<title>Node3</title>
<g id="a_node3"><a xlink:href="../../da/dd4/classuxn_1_1patl_1_1lca__oracle.html#af68c042a4d4a65c8abb95a944e1a3973" target="_top" xlink:title="utility func">
<polygon fill="none" stroke="black" points="302,-335.5 302,-365.5 417,-365.5 417,-335.5 302,-335.5"/>
<text text-anchor="start" x="310" y="-353.5" font-family="Helvetica,sans-Serif" font-size="10.00">uxn::patl::lca_oracle</text>
<text text-anchor="middle" x="359.5" y="-342.5" font-family="Helvetica,sans-Serif" font-size="10.00">::get_by</text>
</a>
</g>
</g>
<!-- Node2&#45;&gt;Node3 -->
<g id="edge2" class="edge">
<title>Node2&#45;&gt;Node3</title>
<path fill="none" stroke="midnightblue" d="M217.85,-223.54C232.15,-248.1 263.57,-297.05 302,-326.5 303.79,-327.87 305.66,-329.18 307.6,-330.42"/>
<polygon fill="midnightblue" stroke="midnightblue" points="306.01,-333.54 316.43,-335.49 309.5,-327.47 306.01,-333.54"/>
</g>
<!-- Node4 -->
<g id="node4" class="node">
<title>Node4</title>
<g id="a_node4"><a xlink:href="../../dd/d0e/namespaceuxn_1_1patl_1_1impl.html#ad5c1d1bf1ee87d90001fa0941be4aa4b" target="_top" xlink:title=" ">
<polygon fill="none" stroke="black" points="305,-286.5 305,-316.5 414,-316.5 414,-286.5 305,-286.5"/>
<text text-anchor="start" x="313" y="-304.5" font-family="Helvetica,sans-Serif" font-size="10.00">uxn::patl::impl::get</text>
<text text-anchor="middle" x="359.5" y="-293.5" font-family="Helvetica,sans-Serif" font-size="10.00">_highest_bit_id</text>
</a>
</g>
</g>
<!-- Node2&#45;&gt;Node4 -->
<g id="edge3" class="edge">
<title>Node2&#45;&gt;Node4</title>
<path fill="none" stroke="midnightblue" d="M227.04,-223.6C245.02,-238.57 274.2,-261.54 302,-277.5 304.69,-279.04 307.49,-280.54 310.35,-281.99"/>
<polygon fill="midnightblue" stroke="midnightblue" points="309.08,-285.26 319.61,-286.44 312.11,-278.95 309.08,-285.26"/>
</g>
<!-- Node5 -->
<g id="node5" class="node">
<title>Node5</title>
<g id="a_node5"><a xlink:href="../../d3/d99/classuxn_1_1patl_1_1impl_1_1lca__base.html#a0c6ef5f05385f5a1bcd77224441dcc0b" target="_top" xlink:title=" ">
<polygon fill="none" stroke="black" points="306,-237.5 306,-267.5 413,-267.5 413,-237.5 306,-237.5"/>
<text text-anchor="start" x="314" y="-255.5" font-family="Helvetica,sans-Serif" font-size="10.00">uxn::patl::impl::lca</text>
<text text-anchor="middle" x="359.5" y="-244.5" font-family="Helvetica,sans-Serif" font-size="10.00">_base::numerate</text>
</a>
</g>
</g>
<!-- Node2&#45;&gt;Node5 -->
<g id="edge4" class="edge">
<title>Node2&#45;&gt;Node5</title>
<path fill="none" stroke="midnightblue" d="M260.36,-223.52C272.4,-227.07 285.36,-230.9 297.79,-234.57"/>
<polygon fill="midnightblue" stroke="midnightblue" points="297.03,-238 307.62,-237.47 299.02,-231.28 297.03,-238"/>
</g>
<!-- Node6 -->
<g id="node6" class="node">
<title>Node6</title>
<g id="a_node6"><a xlink:href="../../d3/d99/classuxn_1_1patl_1_1impl_1_1lca__base.html#ac9e29e943fcc064096d7afcbe5a49741" target="_top" xlink:title=" ">
<polygon fill="none" stroke="black" points="453,-196.5 453,-226.5 560,-226.5 560,-196.5 453,-196.5"/>
<text text-anchor="start" x="461" y="-214.5" font-family="Helvetica,sans-Serif" font-size="10.00">uxn::patl::impl::lca</text>
<text text-anchor="middle" x="506.5" y="-203.5" font-family="Helvetica,sans-Serif" font-size="10.00">_base::set_inode</text>
</a>
</g>
</g>
<!-- Node2&#45;&gt;Node6 -->
<g id="edge5" class="edge">
<title>Node2&#45;&gt;Node6</title>
<path fill="none" stroke="midnightblue" d="M266.22,-209.07C316.74,-209.59 390.54,-210.33 442.79,-210.86"/>
<polygon fill="midnightblue" stroke="midnightblue" points="442.91,-214.37 452.94,-210.97 442.98,-207.37 442.91,-214.37"/>
</g>
<!-- Node7 -->
<g id="node7" class="node">
<title>Node7</title>
<g id="a_node7"><a xlink:href="../../d3/d99/classuxn_1_1patl_1_1impl_1_1lca__base.html#a3540be4c43efc2d73e6eb4fff29ca02f" target="_top" xlink:title=" ">
<polygon fill="none" stroke="black" points="306,-100.5 306,-130.5 413,-130.5 413,-100.5 306,-100.5"/>
<text text-anchor="start" x="314" y="-118.5" font-family="Helvetica,sans-Serif" font-size="10.00">uxn::patl::impl::lca</text>
<text text-anchor="middle" x="359.5" y="-107.5" font-family="Helvetica,sans-Serif" font-size="10.00">_base::set_root_a</text>
</a>
</g>
</g>
<!-- Node2&#45;&gt;Node7 -->
<g id="edge6" class="edge">
<title>Node2&#45;&gt;Node7</title>
<path fill="none" stroke="midnightblue" d="M227.04,-193.4C245.02,-178.43 274.2,-155.46 302,-139.5 304.69,-137.96 307.49,-136.46 310.35,-135.01"/>
<polygon fill="midnightblue" stroke="midnightblue" points="312.11,-138.05 319.61,-130.56 309.08,-131.74 312.11,-138.05"/>
</g>
<!-- Node12 -->
<g id="node12" class="node">
<title>Node12</title>
<g id="a_node12"><a xlink:href="../../d3/d99/classuxn_1_1patl_1_1impl_1_1lca__base.html#a07985b19f37045ac194dfd36e51c98a8" target="_top" xlink:title=" ">
<polygon fill="none" stroke="black" points="306,-149.5 306,-179.5 413,-179.5 413,-149.5 306,-149.5"/>
<text text-anchor="start" x="314" y="-167.5" font-family="Helvetica,sans-Serif" font-size="10.00">uxn::patl::impl::lca</text>
<text text-anchor="middle" x="359.5" y="-156.5" font-family="Helvetica,sans-Serif" font-size="10.00">_base::setup_a</text>
</a>
</g>
</g>
<!-- Node2&#45;&gt;Node12 -->
<g id="edge11" class="edge">
<title>Node2&#45;&gt;Node12</title>
<path fill="none" stroke="midnightblue" d="M260.36,-193.48C272.4,-189.93 285.36,-186.1 297.79,-182.43"/>
<polygon fill="midnightblue" stroke="midnightblue" points="299.02,-185.72 307.62,-179.53 297.03,-179 299.02,-185.72"/>
</g>
<!-- Node13 -->
<g id="node13" class="node">
<title>Node13</title>
<g id="a_node13"><a xlink:href="../../d3/d99/classuxn_1_1patl_1_1impl_1_1lca__base.html#a0e8bd2ff48e9664e8c8346a330b574e4" target="_top" xlink:title=" ">
<polygon fill="none" stroke="black" points="306,-51.5 306,-81.5 413,-81.5 413,-51.5 306,-51.5"/>
<text text-anchor="start" x="314" y="-69.5" font-family="Helvetica,sans-Serif" font-size="10.00">uxn::patl::impl::lca</text>
<text text-anchor="middle" x="359.5" y="-58.5" font-family="Helvetica,sans-Serif" font-size="10.00">_base::setup_i</text>
</a>
</g>
</g>
<!-- Node2&#45;&gt;Node13 -->
<g id="edge14" class="edge">
<title>Node2&#45;&gt;Node13</title>
<path fill="none" stroke="midnightblue" d="M217.85,-193.46C232.15,-168.9 263.57,-119.95 302,-90.5 303.79,-89.13 305.66,-87.82 307.6,-86.58"/>
<polygon fill="midnightblue" stroke="midnightblue" points="309.5,-89.53 316.43,-81.51 306.01,-83.46 309.5,-89.53"/>
</g>
<!-- Node8 -->
<g id="node8" class="node">
<title>Node8</title>
<g id="a_node8"><a xlink:href="../../d3/d99/classuxn_1_1patl_1_1impl_1_1lca__base.html#afe6df803ecff06f201f1857c8a53e52e" target="_top" xlink:title=" ">
<polygon fill="none" stroke="black" points="453,-98.5 453,-128.5 560,-128.5 560,-98.5 453,-98.5"/>
<text text-anchor="start" x="461" y="-116.5" font-family="Helvetica,sans-Serif" font-size="10.00">uxn::patl::impl::lca</text>
<text text-anchor="middle" x="506.5" y="-105.5" font-family="Helvetica,sans-Serif" font-size="10.00">_base::get_i</text>
</a>
</g>
</g>
<!-- Node7&#45;&gt;Node8 -->
<g id="edge7" class="edge">
<title>Node7&#45;&gt;Node8</title>
<path fill="none" stroke="midnightblue" d="M413.26,-114.77C422.75,-114.64 432.74,-114.5 442.49,-114.37"/>
<polygon fill="midnightblue" stroke="midnightblue" points="442.59,-117.87 452.54,-114.23 442.49,-110.87 442.59,-117.87"/>
</g>
<!-- Node10 -->
<g id="node10" class="node">
<title>Node10</title>
<g id="a_node10"><a xlink:href="../../d3/d99/classuxn_1_1patl_1_1impl_1_1lca__base.html#a7831e83952fd7bae4bac103e7fb38b07" target="_top" xlink:title=" ">
<polygon fill="none" stroke="black" points="453,-147.5 453,-177.5 560,-177.5 560,-147.5 453,-147.5"/>
<text text-anchor="start" x="461" y="-165.5" font-family="Helvetica,sans-Serif" font-size="10.00">uxn::patl::impl::lca</text>
<text text-anchor="middle" x="506.5" y="-154.5" font-family="Helvetica,sans-Serif" font-size="10.00">_base::height</text>
</a>
</g>
</g>
<!-- Node7&#45;&gt;Node10 -->
<g id="edge9" class="edge">
<title>Node7&#45;&gt;Node10</title>
<path fill="none" stroke="midnightblue" d="M406.78,-130.5C420.38,-134.91 435.41,-139.78 449.55,-144.36"/>
<polygon fill="midnightblue" stroke="midnightblue" points="448.57,-147.73 459.16,-147.48 450.73,-141.07 448.57,-147.73"/>
</g>
<!-- Node9 -->
<g id="node9" class="node">
<title>Node9</title>
<g id="a_node9"><a xlink:href="../../d3/d99/classuxn_1_1patl_1_1impl_1_1lca__base.html#ae9986af28eb6d3033f21801e71820054" target="_top" xlink:title=" ">
<polygon fill="none" stroke="black" points="597,-98.5 597,-128.5 704,-128.5 704,-98.5 597,-98.5"/>
<text text-anchor="start" x="605" y="-116.5" font-family="Helvetica,sans-Serif" font-size="10.00">uxn::patl::impl::lca</text>
<text text-anchor="middle" x="650.5" y="-105.5" font-family="Helvetica,sans-Serif" font-size="10.00">_base::is_inode</text>
</a>
</g>
</g>
<!-- Node8&#45;&gt;Node9 -->
<g id="edge8" class="edge">
<title>Node8&#45;&gt;Node9</title>
<path fill="none" stroke="midnightblue" d="M560.38,-113.5C568.88,-113.5 577.75,-113.5 586.46,-113.5"/>
<polygon fill="midnightblue" stroke="midnightblue" points="586.58,-117 596.58,-113.5 586.58,-110 586.58,-117"/>
</g>
<!-- Node11 -->
<g id="node11" class="node">
<title>Node11</title>
<g id="a_node11"><a xlink:href="../../dd/d0e/namespaceuxn_1_1patl_1_1impl.html#a7be41e4ec37eaed94f586793719618cd" target="_top" xlink:title=" ">
<polygon fill="none" stroke="black" points="596,-147.5 596,-177.5 705,-177.5 705,-147.5 596,-147.5"/>
<text text-anchor="start" x="604" y="-165.5" font-family="Helvetica,sans-Serif" font-size="10.00">uxn::patl::impl::get</text>
<text text-anchor="middle" x="650.5" y="-154.5" font-family="Helvetica,sans-Serif" font-size="10.00">_lowest_bit_id</text>
</a>
</g>
</g>
<!-- Node10&#45;&gt;Node11 -->
<g id="edge10" class="edge">
<title>Node10&#45;&gt;Node11</title>
<path fill="none" stroke="midnightblue" d="M560.38,-162.5C568.56,-162.5 577.09,-162.5 585.49,-162.5"/>
<polygon fill="midnightblue" stroke="midnightblue" points="585.63,-166 595.63,-162.5 585.63,-159 585.63,-166"/>
</g>
<!-- Node12&#45;&gt;Node8 -->
<g id="edge12" class="edge">
<title>Node12&#45;&gt;Node8</title>
<path fill="none" stroke="midnightblue" d="M403.22,-149.47C418.86,-143.97 436.74,-137.68 453.13,-131.92"/>
<polygon fill="midnightblue" stroke="midnightblue" points="454.31,-135.21 462.58,-128.59 451.99,-128.61 454.31,-135.21"/>
</g>
<!-- Node12&#45;&gt;Node10 -->
<g id="edge13" class="edge">
<title>Node12&#45;&gt;Node10</title>
<path fill="none" stroke="midnightblue" d="M413.26,-163.77C422.75,-163.64 432.74,-163.5 442.49,-163.37"/>
<polygon fill="midnightblue" stroke="midnightblue" points="442.59,-166.87 452.54,-163.23 442.49,-159.87 442.59,-166.87"/>
</g>
<!-- Node13&#45;&gt;Node6 -->
<g id="edge18" class="edge">
<title>Node13&#45;&gt;Node6</title>
<path fill="none" stroke="midnightblue" d="M405.9,-81.64C409.97,-84.17 413.76,-87.11 417,-90.5 448.75,-123.76 421.7,-153.81 453,-187.5 453.88,-188.45 454.81,-189.36 455.78,-190.25"/>
<polygon fill="midnightblue" stroke="midnightblue" points="453.73,-193.09 463.81,-196.36 457.97,-187.52 453.73,-193.09"/>
</g>
<!-- Node13&#45;&gt;Node8 -->
<g id="edge15" class="edge">
<title>Node13&#45;&gt;Node8</title>
<path fill="none" stroke="midnightblue" d="M406.78,-81.5C420.38,-85.91 435.41,-90.78 449.55,-95.36"/>
<polygon fill="midnightblue" stroke="midnightblue" points="448.57,-98.73 459.16,-98.48 450.73,-92.07 448.57,-98.73"/>
</g>
<!-- Node13&#45;&gt;Node10 -->
<g id="edge16" class="edge">
<title>Node13&#45;&gt;Node10</title>
<path fill="none" stroke="midnightblue" d="M402.9,-81.62C407.88,-84.21 412.7,-87.17 417,-90.5 437.8,-106.62 432.55,-120.94 453,-137.5 454.99,-139.11 457.1,-140.65 459.29,-142.11"/>
<polygon fill="midnightblue" stroke="midnightblue" points="457.66,-145.22 468.03,-147.38 461.27,-139.22 457.66,-145.22"/>
</g>
<!-- Node14 -->
<g id="node14" class="node">
<title>Node14</title>
<g id="a_node14"><a xlink:href="../../d3/d99/classuxn_1_1patl_1_1impl_1_1lca__base.html#ac927d1598282aa180fedc5d441f7affb" target="_top" xlink:title=" ">
<polygon fill="none" stroke="black" points="453,-0.5 453,-30.5 560,-30.5 560,-0.5 453,-0.5"/>
<text text-anchor="start" x="461" y="-18.5" font-family="Helvetica,sans-Serif" font-size="10.00">uxn::patl::impl::lca</text>
<text text-anchor="middle" x="506.5" y="-7.5" font-family="Helvetica,sans-Serif" font-size="10.00">_base::set_i</text>
</a>
</g>
</g>
<!-- Node13&#45;&gt;Node14 -->
<g id="edge17" class="edge">
<title>Node13&#45;&gt;Node14</title>
<path fill="none" stroke="midnightblue" d="M403.22,-51.47C418.86,-45.97 436.74,-39.68 453.13,-33.92"/>
<polygon fill="midnightblue" stroke="midnightblue" points="454.31,-37.21 462.58,-30.59 451.99,-30.61 454.31,-37.21"/>
</g>
<!-- Node15 -->
<g id="node15" class="node">
<title>Node15</title>
<g id="a_node15"><a xlink:href="../../d3/d99/classuxn_1_1patl_1_1impl_1_1lca__base.html#a528df1ae1e7b91c5a6e87c7596f1f43a" target="_top" xlink:title=" ">
<polygon fill="none" stroke="black" points="453,-49.5 453,-79.5 560,-79.5 560,-49.5 453,-49.5"/>
<text text-anchor="start" x="461" y="-67.5" font-family="Helvetica,sans-Serif" font-size="10.00">uxn::patl::impl::lca</text>
<text text-anchor="middle" x="506.5" y="-56.5" font-family="Helvetica,sans-Serif" font-size="10.00">_base::set_l</text>
</a>
</g>
</g>
<!-- Node13&#45;&gt;Node15 -->
<g id="edge19" class="edge">
<title>Node13&#45;&gt;Node15</title>
<path fill="none" stroke="midnightblue" d="M413.26,-65.77C422.75,-65.64 432.74,-65.5 442.49,-65.37"/>
<polygon fill="midnightblue" stroke="midnightblue" points="442.59,-68.87 452.54,-65.23 442.49,-61.87 442.59,-68.87"/>
</g>
</g>
</svg>
