<?xml version="1.0" encoding="UTF-8" standalone="no"?>
<!DOCTYPE svg PUBLIC "-//W3C//DTD SVG 1.1//EN"
 "http://www.w3.org/Graphics/SVG/1.1/DTD/svg11.dtd">
<!-- Generated by graphviz version 5.0.1 (20220820.1526)
 -->
<!-- Title: uxn::patl::lca_oracle::operator() Pages: 1 -->
<svg width="443pt" height="411pt"
 viewBox="0.00 0.00 443.00 411.00" xmlns="http://www.w3.org/2000/svg" xmlns:xlink="http://www.w3.org/1999/xlink">
<g id="graph0" class="graph" transform="scale(1 1) rotate(0) translate(4 407)">
<title>uxn::patl::lca_oracle::operator()</title>
<!-- Node1 -->
<g id="node1" class="node">
<title>Node1</title>
<g id="a_node1"><a xlink:title="return LCA(vx, vy)">
<polygon fill="#bfbfbf" stroke="black" points="0,-196.5 0,-226.5 115,-226.5 115,-196.5 0,-196.5"/>
<text text-anchor="start" x="8" y="-214.5" font-family="Helvetica,sans-Serif" font-size="10.00">uxn::patl::lca_oracle</text>
<text text-anchor="middle" x="57.5" y="-203.5" font-family="Helvetica,sans-Serif" font-size="10.00">::operator()</text>
</a>
</g>
</g>
<!-- Node2 -->
<g id="node2" class="node">
<title>Node2</title>
<g id="a_node2"><a xlink:href="../../d3/d99/classuxn_1_1patl_1_1impl_1_1lca__base.html#a4ae62c11cafacbd2c9535e9a3a9f6286" target="_top" xlink:title=" ">
<polygon fill="none" stroke="black" points="155,-372.5 155,-402.5 262,-402.5 262,-372.5 155,-372.5"/>
<text text-anchor="start" x="163" y="-390.5" font-family="Helvetica,sans-Serif" font-size="10.00">uxn::patl::impl::lca</text>
<text text-anchor="middle" x="208.5" y="-379.5" font-family="Helvetica,sans-Serif" font-size="10.00">_base::get_a</text>
</a>
</g>
</g>
<!-- Node1&#45;&gt;Node2 -->
<g id="edge1" class="edge">
<title>Node1&#45;&gt;Node2</title>
<path fill="none" stroke="midnightblue" d="M64.83,-226.52C77.51,-255.15 108.51,-318.15 151,-357.5 154.77,-361 159.03,-364.21 163.47,-367.12"/>
<polygon fill="midnightblue" stroke="midnightblue" points="161.8,-370.2 172.17,-372.37 165.41,-364.21 161.8,-370.2"/>
</g>
<!-- Node3 -->
<g id="node3" class="node">
<title>Node3</title>
<g id="a_node3"><a xlink:href="../../dd/d0e/namespaceuxn_1_1patl_1_1impl.html#ab8658e1567a49e276e6cf8eae9b9192b" target="_top" xlink:title=" ">
<polygon fill="none" stroke="black" points="154,-284.5 154,-314.5 263,-314.5 263,-284.5 154,-284.5"/>
<text text-anchor="start" x="162" y="-302.5" font-family="Helvetica,sans-Serif" font-size="10.00">uxn::patl::impl::get</text>
<text text-anchor="middle" x="208.5" y="-291.5" font-family="Helvetica,sans-Serif" font-size="10.00">_binary_lca</text>
</a>
</g>
</g>
<!-- Node1&#45;&gt;Node3 -->
<g id="edge2" class="edge">
<title>Node1&#45;&gt;Node3</title>
<path fill="none" stroke="midnightblue" d="M81.41,-226.51C99.96,-238.5 126.88,-255.56 151,-269.5 156.88,-272.9 163.17,-276.38 169.35,-279.72"/>
<polygon fill="midnightblue" stroke="midnightblue" points="167.78,-282.85 178.25,-284.48 171.08,-276.68 167.78,-282.85"/>
</g>
<!-- Node4 -->
<g id="node4" class="node">
<title>Node4</title>
<g id="a_node4"><a xlink:href="../../dd/d0e/namespaceuxn_1_1patl_1_1impl.html#ad5c1d1bf1ee87d90001fa0941be4aa4b" target="_top" xlink:title=" ">
<polygon fill="none" stroke="black" points="314,-328.5 314,-358.5 423,-358.5 423,-328.5 314,-328.5"/>
<text text-anchor="start" x="322" y="-346.5" font-family="Helvetica,sans-Serif" font-size="10.00">uxn::patl::impl::get</text>
<text text-anchor="middle" x="368.5" y="-335.5" font-family="Helvetica,sans-Serif" font-size="10.00">_highest_bit_id</text>
</a>
</g>
</g>
<!-- Node1&#45;&gt;Node4 -->
<g id="edge7" class="edge">
<title>Node1&#45;&gt;Node4</title>
<path fill="none" stroke="midnightblue" d="M65.9,-226.87C79.05,-252.26 109.08,-302.35 151,-324.5 197.89,-349.28 258.55,-352.58 303.73,-350.51"/>
<polygon fill="midnightblue" stroke="midnightblue" points="304.2,-353.99 313.99,-349.94 303.81,-347 304.2,-353.99"/>
</g>
<!-- Node5 -->
<g id="node5" class="node">
<title>Node5</title>
<g id="a_node5"><a xlink:href="../../dd/d0e/namespaceuxn_1_1patl_1_1impl.html#a7be41e4ec37eaed94f586793719618cd" target="_top" xlink:title=" ">
<polygon fill="none" stroke="black" points="314,-240.5 314,-270.5 423,-270.5 423,-240.5 314,-240.5"/>
<text text-anchor="start" x="322" y="-258.5" font-family="Helvetica,sans-Serif" font-size="10.00">uxn::patl::impl::get</text>
<text text-anchor="middle" x="368.5" y="-247.5" font-family="Helvetica,sans-Serif" font-size="10.00">_lowest_bit_id</text>
</a>
</g>
</g>
<!-- Node1&#45;&gt;Node5 -->
<g id="edge12" class="edge">
<title>Node1&#45;&gt;Node5</title>
<path fill="none" stroke="midnightblue" d="M108.06,-226.62C121.85,-230.36 136.91,-234 151,-236.5 201.9,-245.54 260.33,-250.35 303.66,-252.86"/>
<polygon fill="midnightblue" stroke="midnightblue" points="303.59,-256.36 313.77,-253.42 303.98,-249.37 303.59,-256.36"/>
</g>
<!-- Node7 -->
<g id="node7" class="node">
<title>Node7</title>
<g id="a_node7"><a xlink:href="../../da/dd4/classuxn_1_1patl_1_1lca__oracle.html#af68c042a4d4a65c8abb95a944e1a3973" target="_top" xlink:title="utility func">
<polygon fill="none" stroke="black" points="151,-196.5 151,-226.5 266,-226.5 266,-196.5 151,-196.5"/>
<text text-anchor="start" x="159" y="-214.5" font-family="Helvetica,sans-Serif" font-size="10.00">uxn::patl::lca_oracle</text>
<text text-anchor="middle" x="208.5" y="-203.5" font-family="Helvetica,sans-Serif" font-size="10.00">::get_by</text>
</a>
</g>
</g>
<!-- Node1&#45;&gt;Node7 -->
<g id="edge6" class="edge">
<title>Node1&#45;&gt;Node7</title>
<path fill="none" stroke="midnightblue" d="M115.26,-211.5C123.56,-211.5 132.17,-211.5 140.65,-211.5"/>
<polygon fill="midnightblue" stroke="midnightblue" points="140.9,-215 150.9,-211.5 140.9,-208 140.9,-215"/>
</g>
<!-- Node8 -->
<g id="node8" class="node">
<title>Node8</title>
<g id="a_node8"><a xlink:href="../../d3/d99/classuxn_1_1patl_1_1impl_1_1lca__base.html#afe6df803ecff06f201f1857c8a53e52e" target="_top" xlink:title=" ">
<polygon fill="none" stroke="black" points="155,-147.5 155,-177.5 262,-177.5 262,-147.5 155,-147.5"/>
<text text-anchor="start" x="163" y="-165.5" font-family="Helvetica,sans-Serif" font-size="10.00">uxn::patl::impl::lca</text>
<text text-anchor="middle" x="208.5" y="-154.5" font-family="Helvetica,sans-Serif" font-size="10.00">_base::get_i</text>
</a>
</g>
</g>
<!-- Node1&#45;&gt;Node8 -->
<g id="edge8" class="edge">
<title>Node1&#45;&gt;Node8</title>
<path fill="none" stroke="midnightblue" d="M104.42,-196.4C119.5,-191.44 136.43,-185.87 152.14,-180.71"/>
<polygon fill="midnightblue" stroke="midnightblue" points="153.32,-184 161.73,-177.55 151.14,-177.35 153.32,-184"/>
</g>
<!-- Node10 -->
<g id="node10" class="node">
<title>Node10</title>
<g id="a_node10"><a xlink:href="../../d3/d99/classuxn_1_1patl_1_1impl_1_1lca__base.html#a33c625fdec108b07361c5392264593d1" target="_top" xlink:title=" ">
<polygon fill="none" stroke="black" points="155,-98.5 155,-128.5 262,-128.5 262,-98.5 155,-98.5"/>
<text text-anchor="start" x="163" y="-116.5" font-family="Helvetica,sans-Serif" font-size="10.00">uxn::patl::impl::lca</text>
<text text-anchor="middle" x="208.5" y="-105.5" font-family="Helvetica,sans-Serif" font-size="10.00">_base::get_l_i</text>
</a>
</g>
</g>
<!-- Node1&#45;&gt;Node10 -->
<g id="edge10" class="edge">
<title>Node1&#45;&gt;Node10</title>
<path fill="none" stroke="midnightblue" d="M74.53,-196.4C92.22,-180.3 122.04,-154.79 151,-137.5 153.62,-135.94 156.35,-134.43 159.15,-132.97"/>
<polygon fill="midnightblue" stroke="midnightblue" points="160.77,-136.08 168.21,-128.54 157.69,-129.79 160.77,-136.08"/>
</g>
<!-- Node11 -->
<g id="node11" class="node">
<title>Node11</title>
<g id="a_node11"><a xlink:href="../../da/dd4/classuxn_1_1patl_1_1lca__oracle.html#a2b113931df4e1ff79add30f291e7f620" target="_top" xlink:title="utility func">
<polygon fill="none" stroke="black" points="151,-49.5 151,-79.5 266,-79.5 266,-49.5 151,-49.5"/>
<text text-anchor="start" x="159" y="-67.5" font-family="Helvetica,sans-Serif" font-size="10.00">uxn::patl::lca_oracle</text>
<text text-anchor="middle" x="208.5" y="-56.5" font-family="Helvetica,sans-Serif" font-size="10.00">::new_algo</text>
</a>
</g>
</g>
<!-- Node1&#45;&gt;Node11 -->
<g id="edge13" class="edge">
<title>Node1&#45;&gt;Node11</title>
<path fill="none" stroke="midnightblue" d="M66.46,-196.22C80.43,-170.73 111.65,-119.29 151,-88.5 152.61,-87.24 154.29,-86.04 156.02,-84.89"/>
<polygon fill="midnightblue" stroke="midnightblue" points="158.22,-87.66 165.07,-79.58 154.67,-81.63 158.22,-87.66"/>
</g>
<!-- Node12 -->
<g id="node12" class="node">
<title>Node12</title>
<g id="a_node12"><a xlink:href="../../d3/d99/classuxn_1_1patl_1_1impl_1_1lca__base.html#a4db269d7562dfa6e59e760aff57b57a6" target="_top" xlink:title=" ">
<polygon fill="none" stroke="black" points="155,-0.5 155,-30.5 262,-30.5 262,-0.5 155,-0.5"/>
<text text-anchor="start" x="163" y="-18.5" font-family="Helvetica,sans-Serif" font-size="10.00">uxn::patl::impl::lca</text>
<text text-anchor="middle" x="208.5" y="-7.5" font-family="Helvetica,sans-Serif" font-size="10.00">_base::number</text>
</a>
</g>
</g>
<!-- Node1&#45;&gt;Node12 -->
<g id="edge14" class="edge">
<title>Node1&#45;&gt;Node12</title>
<path fill="none" stroke="midnightblue" d="M62.8,-196.48C72.91,-163.68 101.15,-84.97 151,-39.5 152.27,-38.34 153.61,-37.23 155,-36.17"/>
<polygon fill="midnightblue" stroke="midnightblue" points="156.99,-39.05 163.41,-30.62 153.14,-33.2 156.99,-39.05"/>
</g>
<!-- Node3&#45;&gt;Node4 -->
<g id="edge3" class="edge">
<title>Node3&#45;&gt;Node4</title>
<path fill="none" stroke="midnightblue" d="M263.43,-314.52C276.53,-318.17 290.64,-322.1 304.13,-325.85"/>
<polygon fill="midnightblue" stroke="midnightblue" points="303.24,-329.24 313.81,-328.55 305.12,-322.49 303.24,-329.24"/>
</g>
<!-- Node3&#45;&gt;Node5 -->
<g id="edge4" class="edge">
<title>Node3&#45;&gt;Node5</title>
<path fill="none" stroke="midnightblue" d="M263.43,-284.48C276.53,-280.83 290.64,-276.9 304.13,-273.15"/>
<polygon fill="midnightblue" stroke="midnightblue" points="305.12,-276.51 313.81,-270.45 303.24,-269.76 305.12,-276.51"/>
</g>
<!-- Node6 -->
<g id="node6" class="node">
<title>Node6</title>
<g id="a_node6"><a xlink:href="../../dd/d0e/namespaceuxn_1_1patl_1_1impl.html#ac8acd4c59fec5857a380b4885796f019" target="_top" xlink:title=" ">
<polygon fill="none" stroke="black" points="302,-290 302,-309 435,-309 435,-290 302,-290"/>
<text text-anchor="middle" x="368.5" y="-297" font-family="Helvetica,sans-Serif" font-size="10.00">uxn::patl::impl::get_min</text>
</a>
</g>
</g>
<!-- Node3&#45;&gt;Node6 -->
<g id="edge5" class="edge">
<title>Node3&#45;&gt;Node6</title>
<path fill="none" stroke="midnightblue" d="M263.43,-299.5C272.49,-299.5 282.04,-299.5 291.54,-299.5"/>
<polygon fill="midnightblue" stroke="midnightblue" points="291.79,-303 301.79,-299.5 291.79,-296 291.79,-303"/>
</g>
<!-- Node9 -->
<g id="node9" class="node">
<title>Node9</title>
<g id="a_node9"><a xlink:href="../../d3/d99/classuxn_1_1patl_1_1impl_1_1lca__base.html#ae9986af28eb6d3033f21801e71820054" target="_top" xlink:title=" ">
<polygon fill="none" stroke="black" points="315,-123.5 315,-153.5 422,-153.5 422,-123.5 315,-123.5"/>
<text text-anchor="start" x="323" y="-141.5" font-family="Helvetica,sans-Serif" font-size="10.00">uxn::patl::impl::lca</text>
<text text-anchor="middle" x="368.5" y="-130.5" font-family="Helvetica,sans-Serif" font-size="10.00">_base::is_inode</text>
</a>
</g>
</g>
<!-- Node8&#45;&gt;Node9 -->
<g id="edge9" class="edge">
<title>Node8&#45;&gt;Node9</title>
<path fill="none" stroke="midnightblue" d="M262.11,-154.51C275.76,-152.43 290.61,-150.18 304.72,-148.04"/>
<polygon fill="midnightblue" stroke="midnightblue" points="305.49,-151.46 314.85,-146.5 304.44,-144.54 305.49,-151.46"/>
</g>
<!-- Node10&#45;&gt;Node9 -->
<g id="edge11" class="edge">
<title>Node10&#45;&gt;Node9</title>
<path fill="none" stroke="midnightblue" d="M262.11,-121.82C275.76,-123.98 290.61,-126.33 304.72,-128.57"/>
<polygon fill="midnightblue" stroke="midnightblue" points="304.42,-132.06 314.85,-130.17 305.52,-125.15 304.42,-132.06"/>
</g>
</g>
</svg>
