<?xml version="1.0" encoding="UTF-8" standalone="no"?>
<!DOCTYPE svg PUBLIC "-//W3C//DTD SVG 1.1//EN"
 "http://www.w3.org/Graphics/SVG/1.1/DTD/svg11.dtd">
<!-- Generated by graphviz version 5.0.1 (20220820.1526)
 -->
<!-- Title: uxn::patl::lca_oracle::init Pages: 1 -->
<!--zoomable 374 -->
<svg id="main" version="1.1" xmlns="http://www.w3.org/2000/svg" xmlns:xlink="http://www.w3.org/1999/xlink" xml:space="preserve" onload="init(evt)">
<style type="text/css"><![CDATA[
.edge:hover path { stroke: red; }
.edge:hover polygon { stroke: red; fill: red; }
]]></style>
<script type="text/javascript"><![CDATA[
var edges = document.getElementsByTagName('g');
if (edges && edges.length) {
  for (var i=0;i<edges.length;i++) {
    if (edges[i].id.substr(0,4)=='edge') {
      edges[i].setAttribute('class','edge');
    }
  }
}
]]></script>
        <defs>
                <circle id="rim" cx="0" cy="0" r="7"/>
                <circle id="rim2" cx="0" cy="0" r="3.5"/>
                <g id="zoomPlus">
                        <use xlink:href="#rim" fill="#404040">
                                <set attributeName="fill" to="#808080" begin="zoomplus.mouseover" end="zoomplus.mouseout"/>
                        </use>
                        <path d="M-4,0h8M0,-4v8" fill="none" stroke="white" stroke-width="1.5" pointer-events="none"/>
                </g>
                <g id="zoomMin">
                        <use xlink:href="#rim" fill="#404040">
                                <set attributeName="fill" to="#808080" begin="zoomminus.mouseover" end="zoomminus.mouseout"/>
                        </use>
                        <path d="M-4,0h8" fill="none" stroke="white" stroke-width="1.5" pointer-events="none"/>
                </g>
                <g id="dirArrow">
                        <path fill="none" stroke="white" stroke-width="1.5" d="M0,-3.0v7 M-2.5,-0.5L0,-3.0L2.5,-0.5"/>
                </g>
               <g id="resetDef">
                       <use xlink:href="#rim2" fill="#404040">
                               <set attributeName="fill" to="#808080" begin="reset.mouseover" end="reset.mouseout"/>
                       </use>
               </g>
        </defs>

<script type="text/javascript">
var viewWidth = 562;
var viewHeight = 374;
var sectionId = 'dynsection-3';
</script>
<script xlink:href="../../svgpan.js"/>
<svg id="graph" class="graph">
<g id="viewport">
<title>uxn::patl::lca_oracle::init</title>
<!-- Node1 -->
<g id="node1" class="node">
<title>Node1</title>
<g id="a_node1"><a xlink:title=" ">
<polygon fill="#bfbfbf" stroke="black" points="0,-193.5 0,-223.5 115,-223.5 115,-193.5 0,-193.5"/>
<text text-anchor="start" x="8" y="-211.5" font-family="Helvetica,sans-Serif" font-size="10.00">uxn::patl::lca_oracle</text>
<text text-anchor="middle" x="57.5" y="-200.5" font-family="Helvetica,sans-Serif" font-size="10.00">::init</text>
</a>
</g>
</g>
<!-- Node2 -->
<g id="node2" class="node">
<title>Node2</title>
<g id="a_node2"><a xlink:href="../../da/dd4/classuxn_1_1patl_1_1lca__oracle.html#af68c042a4d4a65c8abb95a944e1a3973" target="_top" xlink:title="utility func">
<polygon fill="none" stroke="black" points="151,-335.5 151,-365.5 266,-365.5 266,-335.5 151,-335.5"/>
<text text-anchor="start" x="159" y="-353.5" font-family="Helvetica,sans-Serif" font-size="10.00">uxn::patl::lca_oracle</text>
<text text-anchor="middle" x="208.5" y="-342.5" font-family="Helvetica,sans-Serif" font-size="10.00">::get_by</text>
</a>
</g>
</g>
<!-- Node1&#45;&gt;Node2 -->
<g id="edge1" class="edge">
<title>Node1&#45;&gt;Node2</title>
<path fill="none" stroke="midnightblue" d="M66.85,-223.54C81.15,-248.1 112.57,-297.05 151,-326.5 152.79,-327.87 154.66,-329.18 156.6,-330.42"/>
<polygon fill="midnightblue" stroke="midnightblue" points="155.01,-333.54 165.43,-335.49 158.5,-327.47 155.01,-333.54"/>
</g>
<!-- Node3 -->
<g id="node3" class="node">
<title>Node3</title>
<g id="a_node3"><a xlink:href="../../dd/d0e/namespaceuxn_1_1patl_1_1impl.html#ad5c1d1bf1ee87d90001fa0941be4aa4b" target="_top" xlink:title=" ">
<polygon fill="none" stroke="black" points="154,-286.5 154,-316.5 263,-316.5 263,-286.5 154,-286.5"/>
<text text-anchor="start" x="162" y="-304.5" font-family="Helvetica,sans-Serif" font-size="10.00">uxn::patl::impl::get</text>
<text text-anchor="middle" x="208.5" y="-293.5" font-family="Helvetica,sans-Serif" font-size="10.00">_highest_bit_id</text>
</a>
</g>
</g>
<!-- Node1&#45;&gt;Node3 -->
<g id="edge2" class="edge">
<title>Node1&#45;&gt;Node3</title>
<path fill="none" stroke="midnightblue" d="M76.04,-223.6C94.02,-238.57 123.2,-261.54 151,-277.5 153.69,-279.04 156.49,-280.54 159.35,-281.99"/>
<polygon fill="midnightblue" stroke="midnightblue" points="158.08,-285.26 168.61,-286.44 161.11,-278.95 158.08,-285.26"/>
</g>
<!-- Node4 -->
<g id="node4" class="node">
<title>Node4</title>
<g id="a_node4"><a xlink:href="../../d3/d99/classuxn_1_1patl_1_1impl_1_1lca__base.html#a0c6ef5f05385f5a1bcd77224441dcc0b" target="_top" xlink:title=" ">
<polygon fill="none" stroke="black" points="155,-237.5 155,-267.5 262,-267.5 262,-237.5 155,-237.5"/>
<text text-anchor="start" x="163" y="-255.5" font-family="Helvetica,sans-Serif" font-size="10.00">uxn::patl::impl::lca</text>
<text text-anchor="middle" x="208.5" y="-244.5" font-family="Helvetica,sans-Serif" font-size="10.00">_base::numerate</text>
</a>
</g>
</g>
<!-- Node1&#45;&gt;Node4 -->
<g id="edge3" class="edge">
<title>Node1&#45;&gt;Node4</title>
<path fill="none" stroke="midnightblue" d="M109.36,-223.52C121.4,-227.07 134.36,-230.9 146.79,-234.57"/>
<polygon fill="midnightblue" stroke="midnightblue" points="146.03,-238 156.62,-237.47 148.02,-231.28 146.03,-238"/>
</g>
<!-- Node5 -->
<g id="node5" class="node">
<title>Node5</title>
<g id="a_node5"><a xlink:href="../../d3/d99/classuxn_1_1patl_1_1impl_1_1lca__base.html#ac9e29e943fcc064096d7afcbe5a49741" target="_top" xlink:title=" ">
<polygon fill="none" stroke="black" points="302,-196.5 302,-226.5 409,-226.5 409,-196.5 302,-196.5"/>
<text text-anchor="start" x="310" y="-214.5" font-family="Helvetica,sans-Serif" font-size="10.00">uxn::patl::impl::lca</text>
<text text-anchor="middle" x="355.5" y="-203.5" font-family="Helvetica,sans-Serif" font-size="10.00">_base::set_inode</text>
</a>
</g>
</g>
<!-- Node1&#45;&gt;Node5 -->
<g id="edge4" class="edge">
<title>Node1&#45;&gt;Node5</title>
<path fill="none" stroke="midnightblue" d="M115.22,-209.07C165.74,-209.59 239.54,-210.33 291.79,-210.86"/>
<polygon fill="midnightblue" stroke="midnightblue" points="291.91,-214.37 301.94,-210.97 291.98,-207.37 291.91,-214.37"/>
</g>
<!-- Node6 -->
<g id="node6" class="node">
<title>Node6</title>
<g id="a_node6"><a xlink:href="../../d3/d99/classuxn_1_1patl_1_1impl_1_1lca__base.html#a3540be4c43efc2d73e6eb4fff29ca02f" target="_top" xlink:title=" ">
<polygon fill="none" stroke="black" points="155,-100.5 155,-130.5 262,-130.5 262,-100.5 155,-100.5"/>
<text text-anchor="start" x="163" y="-118.5" font-family="Helvetica,sans-Serif" font-size="10.00">uxn::patl::impl::lca</text>
<text text-anchor="middle" x="208.5" y="-107.5" font-family="Helvetica,sans-Serif" font-size="10.00">_base::set_root_a</text>
</a>
</g>
</g>
<!-- Node1&#45;&gt;Node6 -->
<g id="edge5" class="edge">
<title>Node1&#45;&gt;Node6</title>
<path fill="none" stroke="midnightblue" d="M76.04,-193.4C94.02,-178.43 123.2,-155.46 151,-139.5 153.69,-137.96 156.49,-136.46 159.35,-135.01"/>
<polygon fill="midnightblue" stroke="midnightblue" points="161.11,-138.05 168.61,-130.56 158.08,-131.74 161.11,-138.05"/>
</g>
<!-- Node11 -->
<g id="node11" class="node">
<title>Node11</title>
<g id="a_node11"><a xlink:href="../../d3/d99/classuxn_1_1patl_1_1impl_1_1lca__base.html#a07985b19f37045ac194dfd36e51c98a8" target="_top" xlink:title=" ">
<polygon fill="none" stroke="black" points="155,-149.5 155,-179.5 262,-179.5 262,-149.5 155,-149.5"/>
<text text-anchor="start" x="163" y="-167.5" font-family="Helvetica,sans-Serif" font-size="10.00">uxn::patl::impl::lca</text>
<text text-anchor="middle" x="208.5" y="-156.5" font-family="Helvetica,sans-Serif" font-size="10.00">_base::setup_a</text>
</a>
</g>
</g>
<!-- Node1&#45;&gt;Node11 -->
<g id="edge10" class="edge">
<title>Node1&#45;&gt;Node11</title>
<path fill="none" stroke="midnightblue" d="M109.36,-193.48C121.4,-189.93 134.36,-186.1 146.79,-182.43"/>
<polygon fill="midnightblue" stroke="midnightblue" points="148.02,-185.72 156.62,-179.53 146.03,-179 148.02,-185.72"/>
</g>
<!-- Node12 -->
<g id="node12" class="node">
<title>Node12</title>
<g id="a_node12"><a xlink:href="../../d3/d99/classuxn_1_1patl_1_1impl_1_1lca__base.html#a0e8bd2ff48e9664e8c8346a330b574e4" target="_top" xlink:title=" ">
<polygon fill="none" stroke="black" points="155,-51.5 155,-81.5 262,-81.5 262,-51.5 155,-51.5"/>
<text text-anchor="start" x="163" y="-69.5" font-family="Helvetica,sans-Serif" font-size="10.00">uxn::patl::impl::lca</text>
<text text-anchor="middle" x="208.5" y="-58.5" font-family="Helvetica,sans-Serif" font-size="10.00">_base::setup_i</text>
</a>
</g>
</g>
<!-- Node1&#45;&gt;Node12 -->
<g id="edge13" class="edge">
<title>Node1&#45;&gt;Node12</title>
<path fill="none" stroke="midnightblue" d="M66.85,-193.46C81.15,-168.9 112.57,-119.95 151,-90.5 152.79,-89.13 154.66,-87.82 156.6,-86.58"/>
<polygon fill="midnightblue" stroke="midnightblue" points="158.5,-89.53 165.43,-81.51 155.01,-83.46 158.5,-89.53"/>
</g>
<!-- Node7 -->
<g id="node7" class="node">
<title>Node7</title>
<g id="a_node7"><a xlink:href="../../d3/d99/classuxn_1_1patl_1_1impl_1_1lca__base.html#afe6df803ecff06f201f1857c8a53e52e" target="_top" xlink:title=" ">
<polygon fill="none" stroke="black" points="302,-98.5 302,-128.5 409,-128.5 409,-98.5 302,-98.5"/>
<text text-anchor="start" x="310" y="-116.5" font-family="Helvetica,sans-Serif" font-size="10.00">uxn::patl::impl::lca</text>
<text text-anchor="middle" x="355.5" y="-105.5" font-family="Helvetica,sans-Serif" font-size="10.00">_base::get_i</text>
</a>
</g>
</g>
<!-- Node6&#45;&gt;Node7 -->
<g id="edge6" class="edge">
<title>Node6&#45;&gt;Node7</title>
<path fill="none" stroke="midnightblue" d="M262.26,-114.77C271.75,-114.64 281.74,-114.5 291.49,-114.37"/>
<polygon fill="midnightblue" stroke="midnightblue" points="291.59,-117.87 301.54,-114.23 291.49,-110.87 291.59,-117.87"/>
</g>
<!-- Node9 -->
<g id="node9" class="node">
<title>Node9</title>
<g id="a_node9"><a xlink:href="../../d3/d99/classuxn_1_1patl_1_1impl_1_1lca__base.html#a7831e83952fd7bae4bac103e7fb38b07" target="_top" xlink:title=" ">
<polygon fill="none" stroke="black" points="302,-147.5 302,-177.5 409,-177.5 409,-147.5 302,-147.5"/>
<text text-anchor="start" x="310" y="-165.5" font-family="Helvetica,sans-Serif" font-size="10.00">uxn::patl::impl::lca</text>
<text text-anchor="middle" x="355.5" y="-154.5" font-family="Helvetica,sans-Serif" font-size="10.00">_base::height</text>
</a>
</g>
</g>
<!-- Node6&#45;&gt;Node9 -->
<g id="edge8" class="edge">
<title>Node6&#45;&gt;Node9</title>
<path fill="none" stroke="midnightblue" d="M255.78,-130.5C269.38,-134.91 284.41,-139.78 298.55,-144.36"/>
<polygon fill="midnightblue" stroke="midnightblue" points="297.57,-147.73 308.16,-147.48 299.73,-141.07 297.57,-147.73"/>
</g>
<!-- Node8 -->
<g id="node8" class="node">
<title>Node8</title>
<g id="a_node8"><a xlink:href="../../d3/d99/classuxn_1_1patl_1_1impl_1_1lca__base.html#ae9986af28eb6d3033f21801e71820054" target="_top" xlink:title=" ">
<polygon fill="none" stroke="black" points="446,-98.5 446,-128.5 553,-128.5 553,-98.5 446,-98.5"/>
<text text-anchor="start" x="454" y="-116.5" font-family="Helvetica,sans-Serif" font-size="10.00">uxn::patl::impl::lca</text>
<text text-anchor="middle" x="499.5" y="-105.5" font-family="Helvetica,sans-Serif" font-size="10.00">_base::is_inode</text>
</a>
</g>
</g>
<!-- Node7&#45;&gt;Node8 -->
<g id="edge7" class="edge">
<title>Node7&#45;&gt;Node8</title>
<path fill="none" stroke="midnightblue" d="M409.38,-113.5C417.88,-113.5 426.75,-113.5 435.46,-113.5"/>
<polygon fill="midnightblue" stroke="midnightblue" points="435.58,-117 445.58,-113.5 435.58,-110 435.58,-117"/>
</g>
<!-- Node10 -->
<g id="node10" class="node">
<title>Node10</title>
<g id="a_node10"><a xlink:href="../../dd/d0e/namespaceuxn_1_1patl_1_1impl.html#a7be41e4ec37eaed94f586793719618cd" target="_top" xlink:title=" ">
<polygon fill="none" stroke="black" points="445,-147.5 445,-177.5 554,-177.5 554,-147.5 445,-147.5"/>
<text text-anchor="start" x="453" y="-165.5" font-family="Helvetica,sans-Serif" font-size="10.00">uxn::patl::impl::get</text>
<text text-anchor="middle" x="499.5" y="-154.5" font-family="Helvetica,sans-Serif" font-size="10.00">_lowest_bit_id</text>
</a>
</g>
</g>
<!-- Node9&#45;&gt;Node10 -->
<g id="edge9" class="edge">
<title>Node9&#45;&gt;Node10</title>
<path fill="none" stroke="midnightblue" d="M409.38,-162.5C417.56,-162.5 426.09,-162.5 434.49,-162.5"/>
<polygon fill="midnightblue" stroke="midnightblue" points="434.63,-166 444.63,-162.5 434.63,-159 434.63,-166"/>
</g>
<!-- Node11&#45;&gt;Node7 -->
<g id="edge11" class="edge">
<title>Node11&#45;&gt;Node7</title>
<path fill="none" stroke="midnightblue" d="M252.22,-149.47C267.86,-143.97 285.74,-137.68 302.13,-131.92"/>
<polygon fill="midnightblue" stroke="midnightblue" points="303.31,-135.21 311.58,-128.59 300.99,-128.61 303.31,-135.21"/>
</g>
<!-- Node11&#45;&gt;Node9 -->
<g id="edge12" class="edge">
<title>Node11&#45;&gt;Node9</title>
<path fill="none" stroke="midnightblue" d="M262.26,-163.77C271.75,-163.64 281.74,-163.5 291.49,-163.37"/>
<polygon fill="midnightblue" stroke="midnightblue" points="291.59,-166.87 301.54,-163.23 291.49,-159.87 291.59,-166.87"/>
</g>
<!-- Node12&#45;&gt;Node5 -->
<g id="edge17" class="edge">
<title>Node12&#45;&gt;Node5</title>
<path fill="none" stroke="midnightblue" d="M254.9,-81.64C258.97,-84.17 262.76,-87.11 266,-90.5 297.75,-123.76 270.7,-153.81 302,-187.5 302.88,-188.45 303.81,-189.36 304.78,-190.25"/>
<polygon fill="midnightblue" stroke="midnightblue" points="302.73,-193.09 312.81,-196.36 306.97,-187.52 302.73,-193.09"/>
</g>
<!-- Node12&#45;&gt;Node7 -->
<g id="edge14" class="edge">
<title>Node12&#45;&gt;Node7</title>
<path fill="none" stroke="midnightblue" d="M255.78,-81.5C269.38,-85.91 284.41,-90.78 298.55,-95.36"/>
<polygon fill="midnightblue" stroke="midnightblue" points="297.57,-98.73 308.16,-98.48 299.73,-92.07 297.57,-98.73"/>
</g>
<!-- Node12&#45;&gt;Node9 -->
<g id="edge15" class="edge">
<title>Node12&#45;&gt;Node9</title>
<path fill="none" stroke="midnightblue" d="M251.9,-81.62C256.88,-84.21 261.7,-87.17 266,-90.5 286.8,-106.62 281.55,-120.94 302,-137.5 303.99,-139.11 306.1,-140.65 308.29,-142.11"/>
<polygon fill="midnightblue" stroke="midnightblue" points="306.66,-145.22 317.03,-147.38 310.27,-139.22 306.66,-145.22"/>
</g>
<!-- Node13 -->
<g id="node13" class="node">
<title>Node13</title>
<g id="a_node13"><a xlink:href="../../d3/d99/classuxn_1_1patl_1_1impl_1_1lca__base.html#ac927d1598282aa180fedc5d441f7affb" target="_top" xlink:title=" ">
<polygon fill="none" stroke="black" points="302,-0.5 302,-30.5 409,-30.5 409,-0.5 302,-0.5"/>
<text text-anchor="start" x="310" y="-18.5" font-family="Helvetica,sans-Serif" font-size="10.00">uxn::patl::impl::lca</text>
<text text-anchor="middle" x="355.5" y="-7.5" font-family="Helvetica,sans-Serif" font-size="10.00">_base::set_i</text>
</a>
</g>
</g>
<!-- Node12&#45;&gt;Node13 -->
<g id="edge16" class="edge">
<title>Node12&#45;&gt;Node13</title>
<path fill="none" stroke="midnightblue" d="M252.22,-51.47C267.86,-45.97 285.74,-39.68 302.13,-33.92"/>
<polygon fill="midnightblue" stroke="midnightblue" points="303.31,-37.21 311.58,-30.59 300.99,-30.61 303.31,-37.21"/>
</g>
<!-- Node14 -->
<g id="node14" class="node">
<title>Node14</title>
<g id="a_node14"><a xlink:href="../../d3/d99/classuxn_1_1patl_1_1impl_1_1lca__base.html#a528df1ae1e7b91c5a6e87c7596f1f43a" target="_top" xlink:title=" ">
<polygon fill="none" stroke="black" points="302,-49.5 302,-79.5 409,-79.5 409,-49.5 302,-49.5"/>
<text text-anchor="start" x="310" y="-67.5" font-family="Helvetica,sans-Serif" font-size="10.00">uxn::patl::impl::lca</text>
<text text-anchor="middle" x="355.5" y="-56.5" font-family="Helvetica,sans-Serif" font-size="10.00">_base::set_l</text>
</a>
</g>
</g>
<!-- Node12&#45;&gt;Node14 -->
<g id="edge18" class="edge">
<title>Node12&#45;&gt;Node14</title>
<path fill="none" stroke="midnightblue" d="M262.26,-65.77C271.75,-65.64 281.74,-65.5 291.49,-65.37"/>
<polygon fill="midnightblue" stroke="midnightblue" points="291.59,-68.87 301.54,-65.23 291.49,-61.87 291.59,-68.87"/>
</g>
</g>
</svg>
        <g id="navigator" transform="translate(0 0)" fill="#404254">
                <rect fill="#f2f5e9" fill-opacity="0.5" stroke="#606060" stroke-width=".5" x="0" y="0" width="60" height="60"/>
                <use id="zoomplus" xlink:href="#zoomPlus" x="17" y="9" onmousedown="handleZoom(evt,'in')"/>
                <use id="zoomminus" xlink:href="#zoomMin" x="42" y="9" onmousedown="handleZoom(evt,'out')"/>
                <use id="reset" xlink:href="#resetDef" x="30" y="36" onmousedown="handleReset()"/>
                <g id="arrowUp" xlink:href="#dirArrow" transform="translate(30 24)" onmousedown="handlePan(0,-1)">
                  <use xlink:href="#rim" fill="#404040">
                        <set attributeName="fill" to="#808080" begin="arrowUp.mouseover" end="arrowUp.mouseout"/>
                  </use>
                  <path fill="none" stroke="white" stroke-width="1.5" d="M0,-3.0v7 M-2.5,-0.5L0,-3.0L2.5,-0.5"/>
                </g>
                <g id="arrowRight" xlink:href="#dirArrow" transform="rotate(90) translate(36 -43)" onmousedown="handlePan(1,0)">
                  <use xlink:href="#rim" fill="#404040">
                        <set attributeName="fill" to="#808080" begin="arrowRight.mouseover" end="arrowRight.mouseout"/>
                  </use>
                  <path fill="none" stroke="white" stroke-width="1.5" d="M0,-3.0v7 M-2.5,-0.5L0,-3.0L2.5,-0.5"/>
                </g>
                <g id="arrowDown" xlink:href="#dirArrow" transform="rotate(180) translate(-30 -48)" onmousedown="handlePan(0,1)">
                  <use xlink:href="#rim" fill="#404040">
                        <set attributeName="fill" to="#808080" begin="arrowDown.mouseover" end="arrowDown.mouseout"/>
                  </use>
                  <path fill="none" stroke="white" stroke-width="1.5" d="M0,-3.0v7 M-2.5,-0.5L0,-3.0L2.5,-0.5"/>
                </g>
                <g id="arrowLeft" xlink:href="#dirArrow" transform="rotate(270) translate(-36 17)" onmousedown="handlePan(-1,0)">
                  <use xlink:href="#rim" fill="#404040">
                        <set attributeName="fill" to="#808080" begin="arrowLeft.mouseover" end="arrowLeft.mouseout"/>
                  </use>
                  <path fill="none" stroke="white" stroke-width="1.5" d="M0,-3.0v7 M-2.5,-0.5L0,-3.0L2.5,-0.5"/>
                </g>
        </g>
        <svg viewBox="0 0 15 15" width="100%" height="30px" preserveAspectRatio="xMaxYMin meet">
         <g id="arrow_out" transform="scale(0.3 0.3)">
          <a xlink:href="classuxn_1_1patl_1_1lca__oracle_a3fcbb3309989696abb5902827675ef3e_cgraph_org.svg" target="_base">
           <rect id="button" ry="5" rx="5" y="6" x="6" height="38" width="38"
                fill="#f2f5e9" fill-opacity="0.5" stroke="#606060" stroke-width="1.0"/>
           <path id="arrow"
             d="M 11.500037,31.436501 C 11.940474,20.09759 22.043105,11.32322 32.158766,21.979434 L 37.068811,17.246167 C 37.068811,17.246167 37.088388,32 37.088388,32 L 22.160133,31.978069 C 22.160133,31.978069 26.997745,27.140456 26.997745,27.140456 C 18.528582,18.264221 13.291696,25.230495 11.500037,31.436501 z"
             style="fill:#404040;"/>
          </a>
         </g>
        </svg>
</svg>
