<?xml version="1.0" encoding="UTF-8" standalone="no"?>
<!DOCTYPE svg PUBLIC "-//W3C//DTD SVG 1.1//EN"
 "http://www.w3.org/Graphics/SVG/1.1/DTD/svg11.dtd">
<!-- Generated by graphviz version 5.0.1 (20220820.1526)
 -->
<!-- Title: main Pages: 1 -->
<svg width="604pt" height="600pt"
 viewBox="0.00 0.00 604.00 599.50" xmlns="http://www.w3.org/2000/svg" xmlns:xlink="http://www.w3.org/1999/xlink">
<g id="graph0" class="graph" transform="scale(1 1) rotate(0) translate(4 595.5)">
<title>main</title>
<!-- Node1 -->
<g id="node1" class="node">
<title>Node1</title>
<g id="a_node1"><a xlink:title=" ">
<polygon fill="#bfbfbf" stroke="black" points="0,-435 0,-454 41,-454 41,-435 0,-435"/>
<text text-anchor="middle" x="20.5" y="-442" font-family="Helvetica,sans-Serif" font-size="10.00">main</text>
</a>
</g>
</g>
<!-- Node2 -->
<g id="node2" class="node">
<title>Node2</title>
<g id="a_node2"><a xlink:href="../../d2/d55/multi__align_8cpp.html#a8bb6226b18c9169ccad9269f94d55e27" target="_top" xlink:title=" ">
<polygon fill="none" stroke="black" points="77,-435 77,-454 232,-454 232,-435 77,-435"/>
<text text-anchor="middle" x="154.5" y="-442" font-family="Helvetica,sans-Serif" font-size="10.00">multiple_common_substring</text>
</a>
</g>
</g>
<!-- Node1&#45;&gt;Node2 -->
<g id="edge1" class="edge">
<title>Node1&#45;&gt;Node2</title>
<path fill="none" stroke="midnightblue" d="M41.26,-444.5C48.57,-444.5 57.41,-444.5 66.87,-444.5"/>
<polygon fill="midnightblue" stroke="midnightblue" points="66.93,-448 76.93,-444.5 66.93,-441 66.93,-448"/>
</g>
<!-- Node2&#45;&gt;Node2 -->
<g id="edge7" class="edge">
<title>Node2&#45;&gt;Node2</title>
<path fill="none" stroke="midnightblue" d="M133.85,-454.26C123.8,-463.07 130.68,-472.5 154.5,-472.5 169.76,-472.5 178.07,-468.63 179.43,-463.53"/>
<polygon fill="midnightblue" stroke="midnightblue" points="182.52,-461.87 175.15,-454.26 176.16,-464.8 182.52,-461.87"/>
</g>
<!-- Node3 -->
<g id="node3" class="node">
<title>Node3</title>
<g id="a_node3"><a xlink:href="../../dd/d0e/namespaceuxn_1_1patl_1_1impl.html#ac8acd4c59fec5857a380b4885796f019" target="_top" xlink:title=" ">
<polygon fill="none" stroke="black" points="273,-572 273,-591 406,-591 406,-572 273,-572"/>
<text text-anchor="middle" x="339.5" y="-579" font-family="Helvetica,sans-Serif" font-size="10.00">uxn::patl::impl::get_min</text>
</a>
</g>
</g>
<!-- Node2&#45;&gt;Node3 -->
<g id="edge2" class="edge">
<title>Node2&#45;&gt;Node3</title>
<path fill="none" stroke="midnightblue" d="M161.84,-454.14C177.22,-476.71 218.85,-533.29 268,-562.5 271.68,-564.69 275.61,-566.63 279.67,-568.35"/>
<polygon fill="midnightblue" stroke="midnightblue" points="278.71,-571.72 289.3,-571.98 281.18,-565.17 278.71,-571.72"/>
</g>
<!-- Node4 -->
<g id="node4" class="node">
<title>Node4</title>
<g id="a_node4"><a xlink:href="../../db/db7/classuxn_1_1patl_1_1impl_1_1suffix__generic.html#ae4ec39b298848d45053d53fb222d5d21" target="_top" xlink:title=" ">
<polygon fill="none" stroke="black" points="279.5,-522.5 279.5,-552.5 399.5,-552.5 399.5,-522.5 279.5,-522.5"/>
<text text-anchor="start" x="287.5" y="-540.5" font-family="Helvetica,sans-Serif" font-size="10.00">uxn::patl::impl::suffix</text>
<text text-anchor="middle" x="339.5" y="-529.5" font-family="Helvetica,sans-Serif" font-size="10.00">_generic::index_of</text>
</a>
</g>
</g>
<!-- Node2&#45;&gt;Node4 -->
<g id="edge3" class="edge">
<title>Node2&#45;&gt;Node4</title>
<path fill="none" stroke="midnightblue" d="M168.8,-454.02C189.32,-468.38 230.26,-495.77 268,-513.5 271.99,-515.38 276.17,-517.18 280.42,-518.89"/>
<polygon fill="midnightblue" stroke="midnightblue" points="279.18,-522.17 289.77,-522.5 281.7,-515.63 279.18,-522.17"/>
</g>
<!-- Node6 -->
<g id="node6" class="node">
<title>Node6</title>
<g id="a_node6"><a xlink:href="../../db/db7/classuxn_1_1patl_1_1impl_1_1suffix__generic.html#a755ff4d1ad4df54f258c3e09d32f23f0" target="_top" xlink:title=" ">
<polygon fill="none" stroke="black" points="279.5,-473.5 279.5,-503.5 399.5,-503.5 399.5,-473.5 279.5,-473.5"/>
<text text-anchor="start" x="287.5" y="-491.5" font-family="Helvetica,sans-Serif" font-size="10.00">uxn::patl::impl::suffix</text>
<text text-anchor="middle" x="339.5" y="-480.5" font-family="Helvetica,sans-Serif" font-size="10.00">_generic::keys</text>
</a>
</g>
</g>
<!-- Node2&#45;&gt;Node6 -->
<g id="edge5" class="edge">
<title>Node2&#45;&gt;Node6</title>
<path fill="none" stroke="midnightblue" d="M195.21,-454.05C216.92,-459.27 244.44,-465.89 269.55,-471.92"/>
<polygon fill="midnightblue" stroke="midnightblue" points="268.86,-475.35 279.4,-474.29 270.49,-468.55 268.86,-475.35"/>
</g>
<!-- Node7 -->
<g id="node7" class="node">
<title>Node7</title>
<g id="a_node7"><a xlink:href="../../dd/d0e/namespaceuxn_1_1patl_1_1impl.html#ab90f63027d43b408cc70d2f0db94c9fc" target="_top" xlink:title=" ">
<polygon fill="none" stroke="black" points="279,-435 279,-454 400,-454 400,-435 279,-435"/>
<text text-anchor="middle" x="339.5" y="-442" font-family="Helvetica,sans-Serif" font-size="10.00">uxn::patl::impl::max0</text>
</a>
</g>
</g>
<!-- Node2&#45;&gt;Node7 -->
<g id="edge6" class="edge">
<title>Node2&#45;&gt;Node7</title>
<path fill="none" stroke="midnightblue" d="M232.05,-444.5C244.17,-444.5 256.65,-444.5 268.61,-444.5"/>
<polygon fill="midnightblue" stroke="midnightblue" points="268.96,-448 278.96,-444.5 268.96,-441 268.96,-448"/>
</g>
<!-- Node8 -->
<g id="node8" class="node">
<title>Node8</title>
<g id="a_node8"><a xlink:href="../../dd/dbb/classuxn_1_1patl_1_1suffix__set.html#ae50776c104b736774600b2977c86cc5a" target="_top" xlink:title=" ">
<polygon fill="none" stroke="black" points="283,-301.5 283,-331.5 396,-331.5 396,-301.5 283,-301.5"/>
<text text-anchor="start" x="291" y="-319.5" font-family="Helvetica,sans-Serif" font-size="10.00">uxn::patl::suffix_set</text>
<text text-anchor="middle" x="339.5" y="-308.5" font-family="Helvetica,sans-Serif" font-size="10.00">::push_back</text>
</a>
</g>
</g>
<!-- Node2&#45;&gt;Node8 -->
<g id="edge8" class="edge">
<title>Node2&#45;&gt;Node8</title>
<path fill="none" stroke="midnightblue" d="M169.25,-434.88C198.68,-414.3 268.33,-365.58 308.51,-337.48"/>
<polygon fill="midnightblue" stroke="midnightblue" points="310.66,-340.24 316.85,-331.64 306.65,-334.51 310.66,-340.24"/>
</g>
<!-- Node14 -->
<g id="node14" class="node">
<title>Node14</title>
<g id="a_node14"><a xlink:href="../../db/db7/classuxn_1_1patl_1_1impl_1_1suffix__generic.html#aa40451084d31ec23114745757ca30371" target="_top" xlink:title=" ">
<polygon fill="none" stroke="black" points="451.5,-0.5 451.5,-74.5 591.5,-74.5 591.5,-0.5 451.5,-0.5"/>
<text text-anchor="start" x="459.5" y="-62.5" font-family="Helvetica,sans-Serif" font-size="10.00">uxn::patl::impl::suffix</text>
<text text-anchor="start" x="459.5" y="-51.5" font-family="Helvetica,sans-Serif" font-size="10.00">_generic&lt; impl::suffix</text>
<text text-anchor="start" x="459.5" y="-40.5" font-family="Helvetica,sans-Serif" font-size="10.00">_set_traits&lt; Type, 0, 1,</text>
<text text-anchor="start" x="459.5" y="-29.5" font-family="Helvetica,sans-Serif" font-size="10.00"> bit_comparator&lt; Type, 0</text>
<text text-anchor="start" x="459.5" y="-18.5" font-family="Helvetica,sans-Serif" font-size="10.00"> &gt;, std::allocator&lt; Type</text>
<text text-anchor="middle" x="521.5" y="-7.5" font-family="Helvetica,sans-Serif" font-size="10.00"> &gt; &gt; &gt;::size</text>
</a>
</g>
</g>
<!-- Node2&#45;&gt;Node14 -->
<g id="edge15" class="edge">
<title>Node2&#45;&gt;Node14</title>
<path fill="none" stroke="midnightblue" d="M161.46,-434.86C189.26,-390.47 310.62,-202.81 447,-84.5 448.34,-83.34 449.71,-82.19 451.1,-81.05"/>
<polygon fill="midnightblue" stroke="midnightblue" points="453.6,-83.54 459.32,-74.62 449.29,-78.02 453.6,-83.54"/>
</g>
<!-- Node15 -->
<g id="node15" class="node">
<title>Node15</title>
<g id="a_node15"><a xlink:href="../../db/db7/classuxn_1_1patl_1_1impl_1_1suffix__generic.html#a18c197cfec4acd1dfeb132e607c023bb" target="_top" xlink:title=" ">
<polygon fill="none" stroke="black" points="268,-385.5 268,-415.5 411,-415.5 411,-385.5 268,-385.5"/>
<text text-anchor="start" x="276" y="-403.5" font-family="Helvetica,sans-Serif" font-size="10.00">uxn::patl::impl::suffix</text>
<text text-anchor="middle" x="339.5" y="-392.5" font-family="Helvetica,sans-Serif" font-size="10.00">_generic::vertex_index_of</text>
</a>
</g>
</g>
<!-- Node2&#45;&gt;Node15 -->
<g id="edge16" class="edge">
<title>Node2&#45;&gt;Node15</title>
<path fill="none" stroke="midnightblue" d="M195.21,-434.95C215.9,-429.98 241.87,-423.73 265.99,-417.93"/>
<polygon fill="midnightblue" stroke="midnightblue" points="266.94,-421.31 275.84,-415.57 265.3,-414.5 266.94,-421.31"/>
</g>
<!-- Node5 -->
<g id="node5" class="node">
<title>Node5</title>
<g id="a_node5"><a xlink:href="../../d7/ddc/classuxn_1_1patl_1_1impl_1_1ring__buffer.html#a0cb9f62a800a2b3f636ef598d5547df9" target="_top" xlink:title=" ">
<polygon fill="none" stroke="black" points="465.5,-558.5 465.5,-588.5 577.5,-588.5 577.5,-558.5 465.5,-558.5"/>
<text text-anchor="start" x="473.5" y="-576.5" font-family="Helvetica,sans-Serif" font-size="10.00">uxn::patl::impl::ring</text>
<text text-anchor="middle" x="521.5" y="-565.5" font-family="Helvetica,sans-Serif" font-size="10.00">_buffer::index_of</text>
</a>
</g>
</g>
<!-- Node4&#45;&gt;Node5 -->
<g id="edge4" class="edge">
<title>Node4&#45;&gt;Node5</title>
<path fill="none" stroke="midnightblue" d="M399.94,-549.39C417.74,-552.95 437.34,-556.87 455.48,-560.5"/>
<polygon fill="midnightblue" stroke="midnightblue" points="454.9,-563.95 465.39,-562.48 456.27,-557.08 454.9,-563.95"/>
</g>
<!-- Node9 -->
<g id="node9" class="node">
<title>Node9</title>
<g id="a_node9"><a xlink:href="../../db/db7/classuxn_1_1patl_1_1impl_1_1suffix__generic.html#a5f1a79ec8899f0e12680cb343470cc11" target="_top" xlink:title=" ">
<polygon fill="none" stroke="black" points="451.5,-465.5 451.5,-539.5 591.5,-539.5 591.5,-465.5 451.5,-465.5"/>
<text text-anchor="start" x="459.5" y="-527.5" font-family="Helvetica,sans-Serif" font-size="10.00">uxn::patl::impl::suffix</text>
<text text-anchor="start" x="459.5" y="-516.5" font-family="Helvetica,sans-Serif" font-size="10.00">_generic&lt; impl::suffix</text>
<text text-anchor="start" x="459.5" y="-505.5" font-family="Helvetica,sans-Serif" font-size="10.00">_set_traits&lt; Type, 0, 1,</text>
<text text-anchor="start" x="459.5" y="-494.5" font-family="Helvetica,sans-Serif" font-size="10.00"> bit_comparator&lt; Type, 0</text>
<text text-anchor="start" x="459.5" y="-483.5" font-family="Helvetica,sans-Serif" font-size="10.00"> &gt;, std::allocator&lt; Type</text>
<text text-anchor="middle" x="521.5" y="-472.5" font-family="Helvetica,sans-Serif" font-size="10.00"> &gt; &gt; &gt;::capacity</text>
</a>
</g>
</g>
<!-- Node8&#45;&gt;Node9 -->
<g id="edge9" class="edge">
<title>Node8&#45;&gt;Node9</title>
<path fill="none" stroke="midnightblue" d="M363.14,-331.69C378.23,-342.72 397.68,-358.77 411,-376.5 434.42,-407.67 421.37,-427.12 447,-456.5 447.5,-457.07 448.01,-457.64 448.53,-458.21"/>
<polygon fill="midnightblue" stroke="midnightblue" points="446.12,-460.75 455.69,-465.28 451.03,-455.76 446.12,-460.75"/>
</g>
<!-- Node10 -->
<g id="node10" class="node">
<title>Node10</title>
<g id="a_node10"><a xlink:href="../../db/db7/classuxn_1_1patl_1_1impl_1_1suffix__generic.html#a19845a4d480875e2b697c49d19bfa1ce" target="_top" xlink:title="return true if suffix_cont is empty OR full">
<polygon fill="none" stroke="black" points="451.5,-372.5 451.5,-446.5 591.5,-446.5 591.5,-372.5 451.5,-372.5"/>
<text text-anchor="start" x="459.5" y="-434.5" font-family="Helvetica,sans-Serif" font-size="10.00">uxn::patl::impl::suffix</text>
<text text-anchor="start" x="459.5" y="-423.5" font-family="Helvetica,sans-Serif" font-size="10.00">_generic&lt; impl::suffix</text>
<text text-anchor="start" x="459.5" y="-412.5" font-family="Helvetica,sans-Serif" font-size="10.00">_set_traits&lt; Type, 0, 1,</text>
<text text-anchor="start" x="459.5" y="-401.5" font-family="Helvetica,sans-Serif" font-size="10.00"> bit_comparator&lt; Type, 0</text>
<text text-anchor="start" x="459.5" y="-390.5" font-family="Helvetica,sans-Serif" font-size="10.00"> &gt;, std::allocator&lt; Type</text>
<text text-anchor="middle" x="521.5" y="-379.5" font-family="Helvetica,sans-Serif" font-size="10.00"> &gt; &gt; &gt;::endpoint</text>
</a>
</g>
</g>
<!-- Node8&#45;&gt;Node10 -->
<g id="edge10" class="edge">
<title>Node8&#45;&gt;Node10</title>
<path fill="none" stroke="midnightblue" d="M369.82,-331.65C389.51,-341.82 416.46,-355.75 442.13,-369.01"/>
<polygon fill="midnightblue" stroke="midnightblue" points="440.65,-372.18 451.14,-373.66 443.86,-365.97 440.65,-372.18"/>
</g>
<!-- Node11 -->
<g id="node11" class="node">
<title>Node11</title>
<g id="a_node11"><a xlink:href="../../db/db7/classuxn_1_1patl_1_1impl_1_1suffix__generic.html#a3758d1f5bf1e70bd5f67a7edb7d7971f" target="_top" xlink:title=" ">
<polygon fill="none" stroke="black" points="447,-279.5 447,-353.5 596,-353.5 596,-279.5 447,-279.5"/>
<text text-anchor="start" x="455" y="-341.5" font-family="Helvetica,sans-Serif" font-size="10.00">uxn::patl::impl::suffix</text>
<text text-anchor="start" x="455" y="-330.5" font-family="Helvetica,sans-Serif" font-size="10.00">_generic&lt; impl::suffix</text>
<text text-anchor="start" x="455" y="-319.5" font-family="Helvetica,sans-Serif" font-size="10.00">_set_traits&lt; Type, 0, 1,</text>
<text text-anchor="start" x="455" y="-308.5" font-family="Helvetica,sans-Serif" font-size="10.00"> bit_comparator&lt; Type, 0</text>
<text text-anchor="start" x="455" y="-297.5" font-family="Helvetica,sans-Serif" font-size="10.00"> &gt;, std::allocator&lt; Type</text>
<text text-anchor="middle" x="521.5" y="-286.5" font-family="Helvetica,sans-Serif" font-size="10.00"> &gt; &gt; &gt;::push_back_generic</text>
</a>
</g>
</g>
<!-- Node8&#45;&gt;Node11 -->
<g id="edge11" class="edge">
<title>Node8&#45;&gt;Node11</title>
<path fill="none" stroke="midnightblue" d="M396.47,-316.5C409.13,-316.5 422.85,-316.5 436.39,-316.5"/>
<polygon fill="midnightblue" stroke="midnightblue" points="436.69,-320 446.69,-316.5 436.69,-313 436.69,-320"/>
</g>
<!-- Node12 -->
<g id="node12" class="node">
<title>Node12</title>
<g id="a_node12"><a xlink:href="../../db/db7/classuxn_1_1patl_1_1impl_1_1suffix__generic.html#a52f5d589814ab7cf08b9840cb90f1377" target="_top" xlink:title=" ">
<polygon fill="none" stroke="black" points="451.5,-186.5 451.5,-260.5 591.5,-260.5 591.5,-186.5 451.5,-186.5"/>
<text text-anchor="start" x="459.5" y="-248.5" font-family="Helvetica,sans-Serif" font-size="10.00">uxn::patl::impl::suffix</text>
<text text-anchor="start" x="459.5" y="-237.5" font-family="Helvetica,sans-Serif" font-size="10.00">_generic&lt; impl::suffix</text>
<text text-anchor="start" x="459.5" y="-226.5" font-family="Helvetica,sans-Serif" font-size="10.00">_set_traits&lt; Type, 0, 1,</text>
<text text-anchor="start" x="459.5" y="-215.5" font-family="Helvetica,sans-Serif" font-size="10.00"> bit_comparator&lt; Type, 0</text>
<text text-anchor="start" x="459.5" y="-204.5" font-family="Helvetica,sans-Serif" font-size="10.00"> &gt;, std::allocator&lt; Type</text>
<text text-anchor="middle" x="521.5" y="-193.5" font-family="Helvetica,sans-Serif" font-size="10.00"> &gt; &gt; &gt;::push_back_root</text>
</a>
</g>
</g>
<!-- Node8&#45;&gt;Node12 -->
<g id="edge12" class="edge">
<title>Node8&#45;&gt;Node12</title>
<path fill="none" stroke="midnightblue" d="M369.82,-301.35C389.51,-291.18 416.46,-277.25 442.13,-263.99"/>
<polygon fill="midnightblue" stroke="midnightblue" points="443.86,-267.03 451.14,-259.34 440.65,-260.82 443.86,-267.03"/>
</g>
<!-- Node13 -->
<g id="node13" class="node">
<title>Node13</title>
<g id="a_node13"><a xlink:href="../../db/db7/classuxn_1_1patl_1_1impl_1_1suffix__generic.html#a3a8ccdc542ec789f363fbfacb3d3e344" target="_top" xlink:title=" ">
<polygon fill="none" stroke="black" points="451.5,-93.5 451.5,-167.5 591.5,-167.5 591.5,-93.5 451.5,-93.5"/>
<text text-anchor="start" x="459.5" y="-155.5" font-family="Helvetica,sans-Serif" font-size="10.00">uxn::patl::impl::suffix</text>
<text text-anchor="start" x="459.5" y="-144.5" font-family="Helvetica,sans-Serif" font-size="10.00">_generic&lt; impl::suffix</text>
<text text-anchor="start" x="459.5" y="-133.5" font-family="Helvetica,sans-Serif" font-size="10.00">_set_traits&lt; Type, 0, 1,</text>
<text text-anchor="start" x="459.5" y="-122.5" font-family="Helvetica,sans-Serif" font-size="10.00"> bit_comparator&lt; Type, 0</text>
<text text-anchor="start" x="459.5" y="-111.5" font-family="Helvetica,sans-Serif" font-size="10.00"> &gt;, std::allocator&lt; Type</text>
<text text-anchor="middle" x="521.5" y="-100.5" font-family="Helvetica,sans-Serif" font-size="10.00"> &gt; &gt; &gt;::reserve</text>
</a>
</g>
</g>
<!-- Node8&#45;&gt;Node13 -->
<g id="edge13" class="edge">
<title>Node8&#45;&gt;Node13</title>
<path fill="none" stroke="midnightblue" d="M349.6,-301.34C366.4,-274.21 404.46,-216.57 447,-177.5 448.27,-176.34 449.56,-175.19 450.89,-174.05"/>
<polygon fill="midnightblue" stroke="midnightblue" points="453.18,-176.69 458.73,-167.66 448.76,-171.26 453.18,-176.69"/>
</g>
<!-- Node8&#45;&gt;Node14 -->
<g id="edge14" class="edge">
<title>Node8&#45;&gt;Node14</title>
<path fill="none" stroke="midnightblue" d="M348.15,-301.16C361.35,-274.54 389.11,-218 411,-169.5 427.88,-132.1 420.53,-115.85 447,-84.5 447.73,-83.63 448.49,-82.77 449.26,-81.93"/>
<polygon fill="midnightblue" stroke="midnightblue" points="452.01,-84.13 456.65,-74.6 447.08,-79.16 452.01,-84.13"/>
</g>
<!-- Node15&#45;&gt;Node5 -->
<g id="edge17" class="edge">
<title>Node15&#45;&gt;Node5</title>
<path fill="none" stroke="midnightblue" d="M398.42,-415.59C403.05,-418.35 407.35,-421.63 411,-425.5 450.38,-467.24 407.1,-508.26 447,-549.5 449.81,-552.4 452.97,-554.95 456.36,-557.2"/>
<polygon fill="midnightblue" stroke="midnightblue" points="454.78,-560.32 465.21,-562.16 458.21,-554.22 454.78,-560.32"/>
</g>
</g>
</svg>
