<?xml version="1.0" encoding="UTF-8" standalone="no"?>
<!DOCTYPE svg PUBLIC "-//W3C//DTD SVG 1.1//EN"
 "http://www.w3.org/Graphics/SVG/1.1/DTD/svg11.dtd">
<!-- Generated by graphviz version 5.0.1 (20220820.1526)
 -->
<!-- Title: uxn::patl::super_maxrep_iterator::unique_update Pages: 1 -->
<svg width="487pt" height="88pt"
 viewBox="0.00 0.00 487.00 88.00" xmlns="http://www.w3.org/2000/svg" xmlns:xlink="http://www.w3.org/1999/xlink">
<g id="graph0" class="graph" transform="scale(1 1) rotate(0) translate(4 84)">
<title>uxn::patl::super_maxrep_iterator::unique_update</title>
<!-- Node1 -->
<g id="node1" class="node">
<title>Node1</title>
<g id="a_node1"><a xlink:title=" ">
<polygon fill="#bfbfbf" stroke="black" points="343,-24.5 343,-54.5 479,-54.5 479,-24.5 343,-24.5"/>
<text text-anchor="start" x="351" y="-42.5" font-family="Helvetica,sans-Serif" font-size="10.00">uxn::patl::super_maxrep</text>
<text text-anchor="middle" x="411" y="-31.5" font-family="Helvetica,sans-Serif" font-size="10.00">_iterator::unique_update</text>
</a>
</g>
</g>
<!-- Node2 -->
<g id="node2" class="node">
<title>Node2</title>
<g id="a_node2"><a xlink:href="../../dd/dbc/structuxn_1_1patl_1_1super__maxrep__iterator_1_1functor.html#a85cf9e2dc58032f4a420145d9259d312" target="_top" xlink:title=" ">
<polygon fill="none" stroke="black" points="172,-49.5 172,-79.5 307,-79.5 307,-49.5 172,-49.5"/>
<text text-anchor="start" x="180" y="-67.5" font-family="Helvetica,sans-Serif" font-size="10.00">uxn::patl::super_maxrep</text>
<text text-anchor="middle" x="239.5" y="-56.5" font-family="Helvetica,sans-Serif" font-size="10.00">_iterator::functor::incr</text>
</a>
</g>
</g>
<!-- Node1&#45;&gt;Node2 -->
<g id="edge1" class="edge">
<title>Node1&#45;&gt;Node2</title>
<path fill="none" stroke="midnightblue" d="M332.62,-50.91C324.13,-52.17 315.54,-53.43 307.19,-54.66"/>
<polygon fill="midnightblue" stroke="midnightblue" points="333.14,-54.37 342.52,-49.45 332.12,-47.45 333.14,-54.37"/>
</g>
<!-- Node3 -->
<g id="node3" class="node">
<title>Node3</title>
<g id="a_node3"><a xlink:href="../../d5/d4f/classuxn_1_1patl_1_1super__maxrep__iterator.html#aef80b2808a43382750bf80bec20e1897" target="_top" xlink:title=" ">
<polygon fill="none" stroke="black" points="172,-0.5 172,-30.5 307,-30.5 307,-0.5 172,-0.5"/>
<text text-anchor="start" x="180" y="-18.5" font-family="Helvetica,sans-Serif" font-size="10.00">uxn::patl::super_maxrep</text>
<text text-anchor="middle" x="239.5" y="-7.5" font-family="Helvetica,sans-Serif" font-size="10.00">_iterator::merge</text>
</a>
</g>
</g>
<!-- Node1&#45;&gt;Node3 -->
<g id="edge2" class="edge">
<title>Node1&#45;&gt;Node3</title>
<path fill="none" stroke="midnightblue" d="M332.62,-28.54C324.13,-27.34 315.54,-26.12 307.19,-24.94"/>
<polygon fill="midnightblue" stroke="midnightblue" points="332.13,-32.01 342.52,-29.95 333.11,-25.08 332.13,-32.01"/>
</g>
<!-- Node4 -->
<g id="node4" class="node">
<title>Node4</title>
<g id="a_node4"><a xlink:href="../../dd/dbc/structuxn_1_1patl_1_1super__maxrep__iterator_1_1functor.html#ae21b3d2652ca2dab62b6250095333138" target="_top" xlink:title=" ">
<polygon fill="none" stroke="black" points="0,-0.5 0,-30.5 136,-30.5 136,-0.5 0,-0.5"/>
<text text-anchor="start" x="8" y="-18.5" font-family="Helvetica,sans-Serif" font-size="10.00">uxn::patl::super_maxrep</text>
<text text-anchor="middle" x="68" y="-7.5" font-family="Helvetica,sans-Serif" font-size="10.00">_iterator::functor::merge</text>
</a>
</g>
</g>
<!-- Node3&#45;&gt;Node4 -->
<g id="edge3" class="edge">
<title>Node3&#45;&gt;Node4</title>
<path fill="none" stroke="midnightblue" d="M161.96,-15.5C153.35,-15.5 144.63,-15.5 136.15,-15.5"/>
<polygon fill="midnightblue" stroke="midnightblue" points="162,-19 172,-15.5 162,-12 162,-19"/>
</g>
</g>
</svg>
