<?xml version="1.0" encoding="UTF-8" standalone="no"?>
<!DOCTYPE svg PUBLIC "-//W3C//DTD SVG 1.1//EN"
 "http://www.w3.org/Graphics/SVG/1.1/DTD/svg11.dtd">
<!-- Generated by graphviz version 5.0.1 (20220820.1526)
 -->
<!-- Title: uxn::patl::super_maxrep_iterator::push_new_pair Pages: 1 -->
<svg width="316pt" height="100pt"
 viewBox="0.00 0.00 316.00 99.50" xmlns="http://www.w3.org/2000/svg" xmlns:xlink="http://www.w3.org/1999/xlink">
<g id="graph0" class="graph" transform="scale(1 1) rotate(0) translate(4 95.5)">
<title>uxn::patl::super_maxrep_iterator::push_new_pair</title>
<!-- Node1 -->
<g id="node1" class="node">
<title>Node1</title>
<g id="a_node1"><a xlink:title=" ">
<polygon fill="#bfbfbf" stroke="black" points="171,-33 171,-63 308,-63 308,-33 171,-33"/>
<text text-anchor="start" x="179" y="-51" font-family="Helvetica,sans-Serif" font-size="10.00">uxn::patl::super_maxrep</text>
<text text-anchor="middle" x="239.5" y="-40" font-family="Helvetica,sans-Serif" font-size="10.00">_iterator::push_new_pair</text>
</a>
</g>
</g>
<!-- Node2 -->
<g id="node2" class="node">
<title>Node2</title>
<g id="a_node2"><a xlink:href="../../dd/dbc/structuxn_1_1patl_1_1super__maxrep__iterator_1_1functor.html#a9bdb94d2e2ce0f23bc12800e2313c4a2" target="_top" xlink:title=" ">
<polygon fill="none" stroke="black" points="0,-61 0,-91 135,-91 135,-61 0,-61"/>
<text text-anchor="start" x="8" y="-79" font-family="Helvetica,sans-Serif" font-size="10.00">uxn::patl::super_maxrep</text>
<text text-anchor="middle" x="67.5" y="-68" font-family="Helvetica,sans-Serif" font-size="10.00">_iterator::functor::push</text>
</a>
</g>
</g>
<!-- Node1&#45;&gt;Node2 -->
<g id="edge1" class="edge">
<title>Node1&#45;&gt;Node2</title>
<path fill="none" stroke="midnightblue" d="M160.81,-60.8C152.23,-62.21 143.54,-63.64 135.11,-65.03"/>
<polygon fill="midnightblue" stroke="midnightblue" points="161.52,-64.23 170.82,-59.15 160.39,-57.32 161.52,-64.23"/>
</g>
<!-- Node3 -->
<g id="node3" class="node">
<title>Node3</title>
<g id="a_node3"><a xlink:href="../../d5/d4f/classuxn_1_1patl_1_1super__maxrep__iterator.html#a64fffee81fa7c39439ac7ddb03d88eb1" target="_top" xlink:title=" ">
<polygon fill="none" stroke="black" points="0,-0.5 0,-41.5 135,-41.5 135,-0.5 0,-0.5"/>
<text text-anchor="start" x="8" y="-29.5" font-family="Helvetica,sans-Serif" font-size="10.00">uxn::patl::super_maxrep</text>
<text text-anchor="start" x="8" y="-18.5" font-family="Helvetica,sans-Serif" font-size="10.00">_iterator::super_maxrep</text>
<text text-anchor="middle" x="67.5" y="-7.5" font-family="Helvetica,sans-Serif" font-size="10.00">_iterator</text>
</a>
</g>
</g>
<!-- Node1&#45;&gt;Node3 -->
<g id="edge2" class="edge">
<title>Node1&#45;&gt;Node3</title>
<path fill="none" stroke="midnightblue" d="M160.81,-35.66C152.23,-34.3 143.54,-32.92 135.11,-31.58"/>
<polygon fill="midnightblue" stroke="midnightblue" points="160.4,-39.14 170.82,-37.25 161.5,-32.23 160.4,-39.14"/>
</g>
</g>
</svg>
