<?xml version="1.0" encoding="UTF-8" standalone="no"?>
<!DOCTYPE svg PUBLIC "-//W3C//DTD SVG 1.1//EN"
 "http://www.w3.org/Graphics/SVG/1.1/DTD/svg11.dtd">
<!-- Generated by graphviz version 5.0.1 (20220820.1526)
 -->
<!-- Title: uxn::patl::super_maxrep_iterator::super_maxrep_iterator Pages: 1 -->
<svg width="316pt" height="88pt"
 viewBox="0.00 0.00 316.00 88.00" xmlns="http://www.w3.org/2000/svg" xmlns:xlink="http://www.w3.org/1999/xlink">
<g id="graph0" class="graph" transform="scale(1 1) rotate(0) translate(4 84)">
<title>uxn::patl::super_maxrep_iterator::super_maxrep_iterator</title>
<!-- Node1 -->
<g id="node1" class="node">
<title>Node1</title>
<g id="a_node1"><a xlink:title=" ">
<polygon fill="#bfbfbf" stroke="black" points="0,-19 0,-60 135,-60 135,-19 0,-19"/>
<text text-anchor="start" x="8" y="-48" font-family="Helvetica,sans-Serif" font-size="10.00">uxn::patl::super_maxrep</text>
<text text-anchor="start" x="8" y="-37" font-family="Helvetica,sans-Serif" font-size="10.00">_iterator::super_maxrep</text>
<text text-anchor="middle" x="67.5" y="-26" font-family="Helvetica,sans-Serif" font-size="10.00">_iterator</text>
</a>
</g>
</g>
<!-- Node2 -->
<g id="node2" class="node">
<title>Node2</title>
<g id="a_node2"><a xlink:href="../../dd/dbc/structuxn_1_1patl_1_1super__maxrep__iterator_1_1functor.html#a788b50676ea01443779c96ca82a07139" target="_top" xlink:title=" ">
<polygon fill="none" stroke="black" points="172,-49.5 172,-79.5 307,-79.5 307,-49.5 172,-49.5"/>
<text text-anchor="start" x="180" y="-67.5" font-family="Helvetica,sans-Serif" font-size="10.00">uxn::patl::super_maxrep</text>
<text text-anchor="middle" x="239.5" y="-56.5" font-family="Helvetica,sans-Serif" font-size="10.00">_iterator::functor::init</text>
</a>
</g>
</g>
<!-- Node1&#45;&gt;Node2 -->
<g id="edge1" class="edge">
<title>Node1&#45;&gt;Node2</title>
<path fill="none" stroke="midnightblue" d="M135.2,-49.31C143.99,-50.6 153.05,-51.93 161.98,-53.25"/>
<polygon fill="midnightblue" stroke="midnightblue" points="161.59,-56.73 171.99,-54.72 162.61,-49.8 161.59,-56.73"/>
</g>
<!-- Node3 -->
<g id="node3" class="node">
<title>Node3</title>
<g id="a_node3"><a xlink:href="../../d5/d4f/classuxn_1_1patl_1_1super__maxrep__iterator.html#a7d9d7e8bdbe953a7a3a42a0a1cc204e5" target="_top" xlink:title=" ">
<polygon fill="none" stroke="black" points="171,-0.5 171,-30.5 308,-30.5 308,-0.5 171,-0.5"/>
<text text-anchor="start" x="179" y="-18.5" font-family="Helvetica,sans-Serif" font-size="10.00">uxn::patl::super_maxrep</text>
<text text-anchor="middle" x="239.5" y="-7.5" font-family="Helvetica,sans-Serif" font-size="10.00">_iterator::push_new_pair</text>
</a>
</g>
</g>
<!-- Node1&#45;&gt;Node3 -->
<g id="edge2" class="edge">
<title>Node1&#45;&gt;Node3</title>
<path fill="none" stroke="midnightblue" d="M135.2,-30.08C143.62,-28.89 152.3,-27.67 160.88,-26.46"/>
<polygon fill="midnightblue" stroke="midnightblue" points="161.46,-29.91 170.87,-25.05 160.48,-22.98 161.46,-29.91"/>
</g>
</g>
</svg>
