<?xml version="1.0" encoding="UTF-8" standalone="no"?>
<!DOCTYPE svg PUBLIC "-//W3C//DTD SVG 1.1//EN"
 "http://www.w3.org/Graphics/SVG/1.1/DTD/svg11.dtd">
<!-- Generated by graphviz version 5.0.1 (20220820.1526)
 -->
<!-- Title: uxn::patl::impl::suffix_generic_traits&lt; T, Algorithm, Prefix, Container &gt; Pages: 1 -->
<svg width="171pt" height="182pt"
 viewBox="0.00 0.00 171.00 182.00" xmlns="http://www.w3.org/2000/svg" xmlns:xlink="http://www.w3.org/1999/xlink">
<g id="graph0" class="graph" transform="scale(1 1) rotate(0) translate(4 178)">
<title>uxn::patl::impl::suffix_generic_traits&lt; T, Algorithm, Prefix, Container &gt;</title>
<!-- Node1 -->
<g id="node1" class="node">
<title>Node1</title>
<g id="a_node1"><a xlink:title=" ">
<polygon fill="#bfbfbf" stroke="black" points="0,-0.5 0,-79.5 163,-79.5 163,-0.5 0,-0.5"/>
<text text-anchor="start" x="8" y="-67.5" font-family="Helvetica,sans-Serif" font-size="10.00">uxn::patl::impl::suffix</text>
<text text-anchor="start" x="8" y="-56.5" font-family="Helvetica,sans-Serif" font-size="10.00">_generic_traits&lt; T, Algorithm,</text>
<text text-anchor="middle" x="81.5" y="-45.5" font-family="Helvetica,sans-Serif" font-size="10.00"> Prefix, Container &gt;</text>
<polyline fill="none" stroke="black" points="0,-38.5 163,-38.5"/>
<text text-anchor="middle" x="81.5" y="-26.5" font-family="Helvetica,sans-Serif" font-size="10.00"> </text>
<polyline fill="none" stroke="black" points="0,-19.5 163,-19.5"/>
<text text-anchor="middle" x="81.5" y="-7.5" font-family="Helvetica,sans-Serif" font-size="10.00"> </text>
</a>
</g>
</g>
<!-- Node2 -->
<g id="node2" class="node">
<title>Node2</title>
<g id="a_node2"><a xlink:title=" ">
<polygon fill="none" stroke="black" points="67,-116.5 67,-173.5 96,-173.5 96,-116.5 67,-116.5"/>
<text text-anchor="middle" x="81.5" y="-161.5" font-family="Helvetica,sans-Serif" font-size="10.00">T</text>
<polyline fill="none" stroke="black" points="67,-154.5 96,-154.5"/>
<text text-anchor="middle" x="81.5" y="-142.5" font-family="Helvetica,sans-Serif" font-size="10.00"> </text>
<polyline fill="none" stroke="black" points="67,-135.5 96,-135.5"/>
<text text-anchor="middle" x="81.5" y="-123.5" font-family="Helvetica,sans-Serif" font-size="10.00"> </text>
</a>
</g>
</g>
<!-- Node2&#45;&gt;Node1 -->
<g id="edge1" class="edge">
<title>Node2&#45;&gt;Node1</title>
<path fill="none" stroke="midnightblue" d="M81.5,-106.16C81.5,-97.47 81.5,-88.23 81.5,-79.52"/>
<polygon fill="none" stroke="midnightblue" points="78,-106.4 81.5,-116.4 85,-106.4 78,-106.4"/>
</g>
</g>
</svg>
