<?xml version="1.0" encoding="UTF-8" standalone="no"?>
<!DOCTYPE svg PUBLIC "-//W3C//DTD SVG 1.1//EN"
 "http://www.w3.org/Graphics/SVG/1.1/DTD/svg11.dtd">
<!-- Generated by graphviz version 5.0.1 (20220820.1526)
 -->
<!-- Title: uxn::patl::impl::assoc_generic&lt; This, T, N &gt; Pages: 1 -->
<svg width="188pt" height="480pt"
 viewBox="0.00 0.00 188.00 480.00" xmlns="http://www.w3.org/2000/svg" xmlns:xlink="http://www.w3.org/1999/xlink">
<g id="graph0" class="graph" transform="scale(1 1) rotate(0) translate(4 476)">
<title>uxn::patl::impl::assoc_generic&lt; This, T, N &gt;</title>
<!-- Node1 -->
<g id="node1" class="node">
<title>Node1</title>
<g id="a_node1"><a xlink:title=" ">
<polygon fill="#bfbfbf" stroke="black" points="0,-0.5 0,-134.5 148,-134.5 148,-0.5 0,-0.5"/>
<text text-anchor="start" x="8" y="-122.5" font-family="Helvetica,sans-Serif" font-size="10.00">uxn::patl::impl::assoc</text>
<text text-anchor="middle" x="74" y="-111.5" font-family="Helvetica,sans-Serif" font-size="10.00">_generic&lt; This, T, N &gt;</text>
<polyline fill="none" stroke="black" points="0,-104.5 148,-104.5"/>
<text text-anchor="start" x="8" y="-92.5" font-family="Helvetica,sans-Serif" font-size="10.00">+ static const word_t N_</text>
<polyline fill="none" stroke="black" points="0,-85.5 148,-85.5"/>
<text text-anchor="start" x="8" y="-73.5" font-family="Helvetica,sans-Serif" font-size="10.00">+ assoc_generic()</text>
<text text-anchor="start" x="8" y="-62.5" font-family="Helvetica,sans-Serif" font-size="10.00">+ assoc_generic(const</text>
<text text-anchor="start" x="8" y="-51.5" font-family="Helvetica,sans-Serif" font-size="10.00"> bit_compare &amp;bit_comp)</text>
<text text-anchor="start" x="8" y="-40.5" font-family="Helvetica,sans-Serif" font-size="10.00"># word_t * get_shortcut</text>
<text text-anchor="start" x="8" y="-29.5" font-family="Helvetica,sans-Serif" font-size="10.00">(word_t a) const</text>
<text text-anchor="start" x="8" y="-18.5" font-family="Helvetica,sans-Serif" font-size="10.00"># word_t * create_shortcut</text>
<text text-anchor="start" x="8" y="-7.5" font-family="Helvetica,sans-Serif" font-size="10.00">(word_t a)</text>
</a>
</g>
</g>
<!-- Node2 -->
<g id="node2" class="node">
<title>Node2</title>
<g id="a_node2"><a xlink:title=" ">
<polygon fill="none" stroke="black" points="7,-182.5 7,-261.5 141,-261.5 141,-182.5 7,-182.5"/>
<text text-anchor="start" x="15" y="-249.5" font-family="Helvetica,sans-Serif" font-size="10.00">std::map&lt; word_t, word</text>
<text text-anchor="middle" x="74" y="-238.5" font-family="Helvetica,sans-Serif" font-size="10.00">_t * &gt;</text>
<polyline fill="none" stroke="black" points="7,-231.5 141,-231.5"/>
<text text-anchor="start" x="15" y="-219.5" font-family="Helvetica,sans-Serif" font-size="10.00">+ word_t keys</text>
<text text-anchor="start" x="15" y="-208.5" font-family="Helvetica,sans-Serif" font-size="10.00">+ word_t * elements</text>
<polyline fill="none" stroke="black" points="7,-201.5 141,-201.5"/>
<text text-anchor="middle" x="74" y="-189.5" font-family="Helvetica,sans-Serif" font-size="10.00"> </text>
</a>
</g>
</g>
<!-- Node2&#45;&gt;Node1 -->
<g id="edge1" class="edge">
<title>Node2&#45;&gt;Node1</title>
<path fill="none" stroke="#404040" d="M74,-182.12C74,-171.27 74,-159.07 74,-146.8"/>
<polygon fill="none" stroke="#404040" points="74,-146.56 70,-140.56 74,-134.56 78,-140.56 74,-146.56"/>
<text text-anchor="middle" x="103" y="-156" font-family="Helvetica,sans-Serif" font-size="10.00"> &#45;shortcuts_</text>
</g>
<!-- Node3 -->
<g id="node3" class="node">
<title>Node3</title>
<g id="a_node3"><a xlink:title=" ">
<polygon fill="none" stroke="black" points="23.5,-309.5 23.5,-366.5 124.5,-366.5 124.5,-309.5 23.5,-309.5"/>
<text text-anchor="middle" x="74" y="-354.5" font-family="Helvetica,sans-Serif" font-size="10.00">std::map&lt; K, T &gt;</text>
<polyline fill="none" stroke="black" points="23.5,-347.5 124.5,-347.5"/>
<text text-anchor="middle" x="74" y="-335.5" font-family="Helvetica,sans-Serif" font-size="10.00"> </text>
<polyline fill="none" stroke="black" points="23.5,-328.5 124.5,-328.5"/>
<text text-anchor="middle" x="74" y="-316.5" font-family="Helvetica,sans-Serif" font-size="10.00"> </text>
</a>
</g>
</g>
<!-- Node3&#45;&gt;Node2 -->
<g id="edge2" class="edge">
<title>Node3&#45;&gt;Node2</title>
<path fill="none" stroke="orange" d="M74,-299.18C74,-287.08 74,-273.68 74,-261.54"/>
<polygon fill="orange" stroke="orange" points="70.5,-299.4 74,-309.4 77.5,-299.4 70.5,-299.4"/>
<text text-anchor="middle" x="127" y="-283" font-family="Helvetica,sans-Serif" font-size="10.00"> &lt; word_t, word_t * &gt;</text>
</g>
<!-- Node4 -->
<g id="node4" class="node">
<title>Node4</title>
<g id="a_node4"><a xlink:title=" ">
<polygon fill="none" stroke="black" points="31.5,-414.5 31.5,-471.5 60.5,-471.5 60.5,-414.5 31.5,-414.5"/>
<text text-anchor="middle" x="46" y="-459.5" font-family="Helvetica,sans-Serif" font-size="10.00">K</text>
<polyline fill="none" stroke="black" points="31.5,-452.5 60.5,-452.5"/>
<text text-anchor="middle" x="46" y="-440.5" font-family="Helvetica,sans-Serif" font-size="10.00"> </text>
<polyline fill="none" stroke="black" points="31.5,-433.5 60.5,-433.5"/>
<text text-anchor="middle" x="46" y="-421.5" font-family="Helvetica,sans-Serif" font-size="10.00"> </text>
</a>
</g>
</g>
<!-- Node4&#45;&gt;Node3 -->
<g id="edge3" class="edge">
<title>Node4&#45;&gt;Node3</title>
<path fill="none" stroke="#404040" d="M43.67,-414.33C43.61,-404.88 44.37,-394.34 47,-385 47.69,-382.56 48.53,-380.12 49.5,-377.7"/>
<polygon fill="none" stroke="#404040" points="49.59,-377.52 48.54,-370.39 54.73,-366.68 55.77,-373.82 49.59,-377.52"/>
<text text-anchor="middle" x="64" y="-388" font-family="Helvetica,sans-Serif" font-size="10.00"> +keys</text>
</g>
<!-- Node5 -->
<g id="node5" class="node">
<title>Node5</title>
<g id="a_node5"><a xlink:title=" ">
<polygon fill="none" stroke="black" points="88.5,-414.5 88.5,-471.5 117.5,-471.5 117.5,-414.5 88.5,-414.5"/>
<text text-anchor="middle" x="103" y="-459.5" font-family="Helvetica,sans-Serif" font-size="10.00">T</text>
<polyline fill="none" stroke="black" points="88.5,-452.5 117.5,-452.5"/>
<text text-anchor="middle" x="103" y="-440.5" font-family="Helvetica,sans-Serif" font-size="10.00"> </text>
<polyline fill="none" stroke="black" points="88.5,-433.5 117.5,-433.5"/>
<text text-anchor="middle" x="103" y="-421.5" font-family="Helvetica,sans-Serif" font-size="10.00"> </text>
</a>
</g>
</g>
<!-- Node5&#45;&gt;Node3 -->
<g id="edge4" class="edge">
<title>Node5&#45;&gt;Node3</title>
<path fill="none" stroke="#404040" d="M95.23,-414.4C92.11,-403.31 88.45,-390.33 85.06,-378.3"/>
<polygon fill="none" stroke="#404040" points="85.05,-378.23 79.57,-373.54 81.79,-366.68 87.27,-371.37 85.05,-378.23"/>
<text text-anchor="middle" x="118" y="-388" font-family="Helvetica,sans-Serif" font-size="10.00"> +elements</text>
</g>
</g>
</svg>
