<?xml version="1.0" encoding="UTF-8" standalone="no"?>
<!DOCTYPE svg PUBLIC "-//W3C//DTD SVG 1.1//EN"
 "http://www.w3.org/Graphics/SVG/1.1/DTD/svg11.dtd">
<!-- Generated by graphviz version 5.0.1 (20220820.1526)
 -->
<!-- Title: uxn/patl Pages: 1 -->
<svg width="130pt" height="255pt"
 viewBox="0.00 0.00 130.00 255.00" xmlns="http://www.w3.org/2000/svg" xmlns:xlink="http://www.w3.org/1999/xlink">
<g id="graph0" class="graph" transform="scale(1 1) rotate(0) translate(4 251)">
<title>uxn/patl</title>
<g id="clust1" class="cluster">
<title>clusterdir_e42c0e54a20506e10dc33d1cf828810c</title>
<g id="a_clust1"><a xlink:href="dir_e42c0e54a20506e10dc33d1cf828810c.html" target="_top" xlink:title="uxn">
<polygon fill="#edf0f7" stroke="#404040" stroke-dasharray="5,2" points="8,-8 8,-239 114,-239 114,-8 8,-8"/>
<text text-anchor="middle" x="61" y="-227" font-family="Helvetica,sans-Serif" font-size="10.00">uxn</text>
</a>
</g>
</g>
<g id="clust2" class="cluster">
<title>clusterdir_c69ed1062ebfd060117e95332ef267de</title>
<g id="a_clust2"><a xlink:href="dir_c69ed1062ebfd060117e95332ef267de.html" target="_top">
<polygon fill="#edf0f7" stroke="#404040" stroke-width="2" points="16,-16 16,-212 106,-212 106,-16 16,-16"/>
</a>
</g>
</g>
<!-- dir_c69ed1062ebfd060117e95332ef267de -->
<g id="node1" class="node">
<title>dir_c69ed1062ebfd060117e95332ef267de</title>
<text text-anchor="middle" x="61" y="-183.5" font-family="Helvetica,sans-Serif" font-size="10.00">patl</text>
</g>
<!-- dir_ce2acf9c64f0a1fd136f65af7d42f02a -->
<g id="node2" class="node">
<title>dir_ce2acf9c64f0a1fd136f65af7d42f02a</title>
<g id="a_node2"><a xlink:href="dir_ce2acf9c64f0a1fd136f65af7d42f02a.html" target="_top" xlink:title="aux_">
<polygon fill="#a2b4d6" stroke="#404040" points="78,-132 24,-132 24,-96 78,-96 78,-132"/>
<text text-anchor="middle" x="51" y="-111.5" font-family="Helvetica,sans-Serif" font-size="10.00">aux_</text>
</a>
</g>
</g>
<!-- dir_c69ed1062ebfd060117e95332ef267de&#45;&gt;dir_ce2acf9c64f0a1fd136f65af7d42f02a -->
<g id="edge1" class="edge">
<title>dir_c69ed1062ebfd060117e95332ef267de&#45;&gt;dir_ce2acf9c64f0a1fd136f65af7d42f02a</title>
<path fill="none" stroke="black" d="M58.53,-167.7C57.43,-159.98 56.1,-150.71 54.87,-142.11"/>
<polygon fill="black" stroke="black" points="58.32,-141.51 53.44,-132.1 51.39,-142.5 58.32,-141.51"/>
<g id="a_edge1&#45;headlabel"><a xlink:href="dir_000011_000000.html" target="_top" xlink:title="1">
<text text-anchor="middle" x="61.64" y="-142.17" font-family="Helvetica,sans-Serif" font-size="10.00">1</text>
</a>
</g>
</g>
<!-- dir_e2f6820003185a32b20d4f97c14b845b -->
<g id="node3" class="node">
<title>dir_e2f6820003185a32b20d4f97c14b845b</title>
<g id="a_node3"><a xlink:href="dir_e2f6820003185a32b20d4f97c14b845b.html" target="_top" xlink:title="impl">
<polygon fill="#a2b4d6" stroke="#404040" points="88,-60 34,-60 34,-24 88,-24 88,-60"/>
<text text-anchor="middle" x="61" y="-39.5" font-family="Helvetica,sans-Serif" font-size="10.00">impl</text>
</a>
</g>
</g>
<!-- dir_c69ed1062ebfd060117e95332ef267de&#45;&gt;dir_e2f6820003185a32b20d4f97c14b845b -->
<g id="edge2" class="edge">
<title>dir_c69ed1062ebfd060117e95332ef267de&#45;&gt;dir_e2f6820003185a32b20d4f97c14b845b</title>
<path fill="none" stroke="black" d="M72.05,-167.61C77.74,-157.62 84.08,-144.58 87,-132 90.62,-116.41 90.62,-111.59 87,-96 84.9,-86.96 81.03,-77.68 76.91,-69.47"/>
<polygon fill="black" stroke="black" points="79.86,-67.55 72.05,-60.39 73.69,-70.86 79.86,-67.55"/>
<g id="a_edge2&#45;headlabel"><a xlink:href="dir_000011_000002.html" target="_top" xlink:title="18">
<text text-anchor="middle" x="84.06" y="-66.88" font-family="Helvetica,sans-Serif" font-size="10.00">18</text>
</a>
</g>
</g>
<!-- dir_ce2acf9c64f0a1fd136f65af7d42f02a&#45;&gt;dir_e2f6820003185a32b20d4f97c14b845b -->
<g id="edge3" class="edge">
<title>dir_ce2acf9c64f0a1fd136f65af7d42f02a&#45;&gt;dir_e2f6820003185a32b20d4f97c14b845b</title>
<path fill="none" stroke="black" d="M53.47,-95.7C54.57,-87.98 55.9,-78.71 57.13,-70.11"/>
<polygon fill="black" stroke="black" points="60.61,-70.5 58.56,-60.1 53.68,-69.51 60.61,-70.5"/>
<g id="a_edge3&#45;headlabel"><a xlink:href="dir_000000_000002.html" target="_top" xlink:title="2">
<text text-anchor="middle" x="62.91" y="-71.96" font-family="Helvetica,sans-Serif" font-size="10.00">2</text>
</a>
</g>
</g>
</g>
</svg>
