<?xml version="1.0" encoding="UTF-8" standalone="no"?>
<!DOCTYPE svg PUBLIC "-//W3C//DTD SVG 1.1//EN"
 "http://www.w3.org/Graphics/SVG/1.1/DTD/svg11.dtd">
<!-- Generated by graphviz version 5.0.1 (20220820.1526)
 -->
<!-- Title: uxn/demos Pages: 1 -->
<!--zoomable 175 -->
<svg id="main" version="1.1" xmlns="http://www.w3.org/2000/svg" xmlns:xlink="http://www.w3.org/1999/xlink" xml:space="preserve" onload="init(evt)">
<style type="text/css"><![CDATA[
.edge:hover path { stroke: red; }
.edge:hover polygon { stroke: red; fill: red; }
]]></style>
<script type="text/javascript"><![CDATA[
var edges = document.getElementsByTagName('g');
if (edges && edges.length) {
  for (var i=0;i<edges.length;i++) {
    if (edges[i].id.substr(0,4)=='edge') {
      edges[i].setAttribute('class','edge');
    }
  }
}
]]></script>
        <defs>
                <circle id="rim" cx="0" cy="0" r="7"/>
                <circle id="rim2" cx="0" cy="0" r="3.5"/>
                <g id="zoomPlus">
                        <use xlink:href="#rim" fill="#404040">
                                <set attributeName="fill" to="#808080" begin="zoomplus.mouseover" end="zoomplus.mouseout"/>
                        </use>
                        <path d="M-4,0h8M0,-4v8" fill="none" stroke="white" stroke-width="1.5" pointer-events="none"/>
                </g>
                <g id="zoomMin">
                        <use xlink:href="#rim" fill="#404040">
                                <set attributeName="fill" to="#808080" begin="zoomminus.mouseover" end="zoomminus.mouseout"/>
                        </use>
                        <path d="M-4,0h8" fill="none" stroke="white" stroke-width="1.5" pointer-events="none"/>
                </g>
                <g id="dirArrow">
                        <path fill="none" stroke="white" stroke-width="1.5" d="M0,-3.0v7 M-2.5,-0.5L0,-3.0L2.5,-0.5"/>
                </g>
               <g id="resetDef">
                       <use xlink:href="#rim2" fill="#404040">
                               <set attributeName="fill" to="#808080" begin="reset.mouseover" end="reset.mouseout"/>
                       </use>
               </g>
        </defs>

<script type="text/javascript">
var viewWidth = 1003;
var viewHeight = 175;
var sectionId = 'dynsection-0';
</script>
<script xlink:href="svgpan.js"/>
<svg id="graph" class="graph">
<g id="viewport">
<title>uxn/demos</title>
<g id="clust1" class="cluster">
<title>clusterdir_e42c0e54a20506e10dc33d1cf828810c</title>
<g id="a_clust1"><a xlink:href="dir_e42c0e54a20506e10dc33d1cf828810c.html" target="_top" xlink:title="uxn">
<polygon fill="#edf0f7" stroke="#404040" stroke-dasharray="5,2" points="8,-8 8,-159 987,-159 987,-8 8,-8"/>
<text text-anchor="middle" x="497.5" y="-147" font-family="Helvetica,sans-Serif" font-size="10.00">uxn</text>
</a>
</g>
</g>
<g id="clust2" class="cluster">
<title>clusterdir_2ce005003d486a971aca7cfdd90f0354</title>
<g id="a_clust2"><a xlink:href="dir_2ce005003d486a971aca7cfdd90f0354.html" target="_top">
<polygon fill="#edf0f7" stroke="#404040" stroke-width="2" points="16,-80 16,-132 979,-132 979,-80 16,-80"/>
</a>
</g>
</g>
<!-- dir_c69ed1062ebfd060117e95332ef267de -->
<g id="node1" class="node">
<title>dir_c69ed1062ebfd060117e95332ef267de</title>
<g id="a_node1"><a xlink:href="dir_c69ed1062ebfd060117e95332ef267de.html" target="_top" xlink:title="patl">
<polygon fill="#a2b4d6" stroke="red" points="503,-52 449,-52 449,-16 503,-16 503,-52"/>
<text text-anchor="middle" x="476" y="-31.5" font-family="Helvetica,sans-Serif" font-size="10.00">patl</text>
</a>
</g>
</g>
<!-- dir_2ce005003d486a971aca7cfdd90f0354 -->
<g id="node2" class="node">
<title>dir_2ce005003d486a971aca7cfdd90f0354</title>
<text text-anchor="middle" x="944" y="-103.5" font-family="Helvetica,sans-Serif" font-size="10.00">demos</text>
</g>
<!-- dir_e5588323eef148201cd82a7eb1ac233a -->
<g id="node3" class="node">
<title>dir_e5588323eef148201cd82a7eb1ac233a</title>
<g id="a_node3"><a xlink:href="dir_e5588323eef148201cd82a7eb1ac233a.html" target="_top" xlink:title="ins_test">
<polygon fill="#a2b4d6" stroke="#404040" points="898.5,-124 843.5,-124 843.5,-88 898.5,-88 898.5,-124"/>
<text text-anchor="middle" x="871" y="-103.5" font-family="Helvetica,sans-Serif" font-size="10.00">ins_test</text>
</a>
</g>
</g>
<!-- dir_e5588323eef148201cd82a7eb1ac233a&#45;&gt;dir_c69ed1062ebfd060117e95332ef267de -->
<g id="edge1" class="edge">
<title>dir_e5588323eef148201cd82a7eb1ac233a&#45;&gt;dir_c69ed1062ebfd060117e95332ef267de</title>
<path fill="none" stroke="black" d="M849.23,-87.86C844.44,-84.8 839.22,-81.96 834,-80 722.69,-38.15 579.59,-33.62 513.07,-34.08"/>
<polygon fill="black" stroke="black" points="513.02,-30.58 503.06,-34.19 513.1,-37.58 513.02,-30.58"/>
<g id="a_edge1&#45;headlabel"><a xlink:href="dir_000003_000011.html" target="_top" xlink:title="3">
<text text-anchor="middle" x="516.59" y="-25.2" font-family="Helvetica,sans-Serif" font-size="10.00">3</text>
</a>
</g>
</g>
<!-- dir_53c9098c64c463b0b05595c00452112a -->
<g id="node4" class="node">
<title>dir_53c9098c64c463b0b05595c00452112a</title>
<g id="a_node4"><a xlink:href="dir_53c9098c64c463b0b05595c00452112a.html" target="_top" xlink:title="insider">
<polygon fill="#a2b4d6" stroke="#404040" points="825,-124 771,-124 771,-88 825,-88 825,-124"/>
<text text-anchor="middle" x="798" y="-103.5" font-family="Helvetica,sans-Serif" font-size="10.00">insider</text>
</a>
</g>
</g>
<!-- dir_53c9098c64c463b0b05595c00452112a&#45;&gt;dir_c69ed1062ebfd060117e95332ef267de -->
<g id="edge2" class="edge">
<title>dir_53c9098c64c463b0b05595c00452112a&#45;&gt;dir_c69ed1062ebfd060117e95332ef267de</title>
<path fill="none" stroke="black" d="M776.82,-87.98C772.16,-84.91 767.08,-82.04 762,-80 677.42,-46.07 569.18,-37.63 513.23,-35.59"/>
<polygon fill="black" stroke="black" points="513.18,-32.09 503.08,-35.27 512.96,-39.08 513.18,-32.09"/>
<g id="a_edge2&#45;headlabel"><a xlink:href="dir_000004_000011.html" target="_top" xlink:title="7">
<text text-anchor="middle" x="516.87" y="-26.86" font-family="Helvetica,sans-Serif" font-size="10.00">7</text>
</a>
</g>
</g>
<!-- dir_1901e6808b569f9a8c8606e103ed6e9b -->
<g id="node5" class="node">
<title>dir_1901e6808b569f9a8c8606e103ed6e9b</title>
<g id="a_node5"><a xlink:href="dir_1901e6808b569f9a8c8606e103ed6e9b.html" target="_top" xlink:title="levenshtein">
<polygon fill="#a2b4d6" stroke="#404040" points="753,-124 679,-124 679,-88 753,-88 753,-124"/>
<text text-anchor="middle" x="716" y="-103.5" font-family="Helvetica,sans-Serif" font-size="10.00">levenshtein</text>
</a>
</g>
</g>
<!-- dir_1901e6808b569f9a8c8606e103ed6e9b&#45;&gt;dir_c69ed1062ebfd060117e95332ef267de -->
<g id="edge3" class="edge">
<title>dir_1901e6808b569f9a8c8606e103ed6e9b&#45;&gt;dir_c69ed1062ebfd060117e95332ef267de</title>
<path fill="none" stroke="black" d="M687.36,-87.9C681.73,-84.99 675.78,-82.19 670,-80 617.18,-59.95 552.76,-47.16 513.06,-40.53"/>
<polygon fill="black" stroke="black" points="513.46,-37.05 503.03,-38.9 512.34,-43.96 513.46,-37.05"/>
<g id="a_edge3&#45;headlabel"><a xlink:href="dir_000005_000011.html" target="_top" xlink:title="3">
<text text-anchor="middle" x="517.47" y="-32.33" font-family="Helvetica,sans-Serif" font-size="10.00">3</text>
</a>
</g>
</g>
<!-- dir_6f7139830fe49da437fe7af40b74855d -->
<g id="node6" class="node">
<title>dir_6f7139830fe49da437fe7af40b74855d</title>
<g id="a_node6"><a xlink:href="dir_6f7139830fe49da437fe7af40b74855d.html" target="_top" xlink:title="lz77">
<polygon fill="#a2b4d6" stroke="#404040" points="661,-124 607,-124 607,-88 661,-88 661,-124"/>
<text text-anchor="middle" x="634" y="-103.5" font-family="Helvetica,sans-Serif" font-size="10.00">lz77</text>
</a>
</g>
</g>
<!-- dir_6f7139830fe49da437fe7af40b74855d&#45;&gt;dir_c69ed1062ebfd060117e95332ef267de -->
<g id="edge4" class="edge">
<title>dir_6f7139830fe49da437fe7af40b74855d&#45;&gt;dir_c69ed1062ebfd060117e95332ef267de</title>
<path fill="none" stroke="black" d="M611.31,-87.96C607,-85.11 602.45,-82.32 598,-80 570.55,-65.7 537.51,-53.81 512.74,-45.85"/>
<polygon fill="black" stroke="black" points="513.59,-42.45 503.01,-42.79 511.49,-49.13 513.59,-42.45"/>
<g id="a_edge4&#45;headlabel"><a xlink:href="dir_000006_000011.html" target="_top" xlink:title="2">
<text text-anchor="middle" x="517.88" y="-38.32" font-family="Helvetica,sans-Serif" font-size="10.00">2</text>
</a>
</g>
</g>
<!-- dir_d5ead58903f3e53dc9cc9e4a85c6d83d -->
<g id="node7" class="node">
<title>dir_d5ead58903f3e53dc9cc9e4a85c6d83d</title>
<g id="a_node7"><a xlink:href="dir_d5ead58903f3e53dc9cc9e4a85c6d83d.html" target="_top" xlink:title="maxpals">
<polygon fill="#a2b4d6" stroke="#404040" points="588.5,-124 529.5,-124 529.5,-88 588.5,-88 588.5,-124"/>
<text text-anchor="middle" x="559" y="-103.5" font-family="Helvetica,sans-Serif" font-size="10.00">maxpals</text>
</a>
</g>
</g>
<!-- dir_d5ead58903f3e53dc9cc9e4a85c6d83d&#45;&gt;dir_c69ed1062ebfd060117e95332ef267de -->
<g id="edge5" class="edge">
<title>dir_d5ead58903f3e53dc9cc9e4a85c6d83d&#45;&gt;dir_c69ed1062ebfd060117e95332ef267de</title>
<path fill="none" stroke="black" d="M538.48,-87.7C528.13,-78.97 515.41,-68.24 504.16,-58.75"/>
<polygon fill="black" stroke="black" points="506.18,-55.88 496.28,-52.1 501.67,-61.23 506.18,-55.88"/>
<g id="a_edge5&#45;headlabel"><a xlink:href="dir_000007_000011.html" target="_top" xlink:title="4">
<text text-anchor="middle" x="510.76" y="-53.52" font-family="Helvetica,sans-Serif" font-size="10.00">4</text>
</a>
</g>
</g>
<!-- dir_418287c27f26d3c7c769097cd4e58fbf -->
<g id="node8" class="node">
<title>dir_418287c27f26d3c7c769097cd4e58fbf</title>
<g id="a_node8"><a xlink:href="dir_418287c27f26d3c7c769097cd4e58fbf.html" target="_top" xlink:title="multi_align">
<polygon fill="#a2b4d6" stroke="#404040" points="511.5,-124 440.5,-124 440.5,-88 511.5,-88 511.5,-124"/>
<text text-anchor="middle" x="476" y="-103.5" font-family="Helvetica,sans-Serif" font-size="10.00">multi_align</text>
</a>
</g>
</g>
<!-- dir_418287c27f26d3c7c769097cd4e58fbf&#45;&gt;dir_c69ed1062ebfd060117e95332ef267de -->
<g id="edge6" class="edge">
<title>dir_418287c27f26d3c7c769097cd4e58fbf&#45;&gt;dir_c69ed1062ebfd060117e95332ef267de</title>
<path fill="none" stroke="black" d="M476,-87.7C476,-79.98 476,-70.71 476,-62.11"/>
<polygon fill="black" stroke="black" points="479.5,-62.1 476,-52.1 472.5,-62.1 479.5,-62.1"/>
<g id="a_edge6&#45;headlabel"><a xlink:href="dir_000008_000011.html" target="_top" xlink:title="3">
<text text-anchor="middle" x="482.34" y="-63.2" font-family="Helvetica,sans-Serif" font-size="10.00">3</text>
</a>
</g>
</g>
<!-- dir_40b54b7565e3d9888094e5bd913cbdb0 -->
<g id="node9" class="node">
<title>dir_40b54b7565e3d9888094e5bd913cbdb0</title>
<g id="a_node9"><a xlink:href="dir_40b54b7565e3d9888094e5bd913cbdb0.html" target="_top" xlink:title="multi_search">
<polygon fill="#a2b4d6" stroke="#404040" points="422,-124 342,-124 342,-88 422,-88 422,-124"/>
<text text-anchor="middle" x="382" y="-103.5" font-family="Helvetica,sans-Serif" font-size="10.00">multi_search</text>
</a>
</g>
</g>
<!-- dir_40b54b7565e3d9888094e5bd913cbdb0&#45;&gt;dir_c69ed1062ebfd060117e95332ef267de -->
<g id="edge7" class="edge">
<title>dir_40b54b7565e3d9888094e5bd913cbdb0&#45;&gt;dir_c69ed1062ebfd060117e95332ef267de</title>
<path fill="none" stroke="black" d="M405.24,-87.7C417.19,-78.8 431.92,-67.82 444.85,-58.2"/>
<polygon fill="black" stroke="black" points="447.1,-60.88 453.03,-52.1 442.92,-55.27 447.1,-60.88"/>
<g id="a_edge7&#45;headlabel"><a xlink:href="dir_000009_000011.html" target="_top" xlink:title="4">
<text text-anchor="middle" x="445.91" y="-62.81" font-family="Helvetica,sans-Serif" font-size="10.00">4</text>
</a>
</g>
</g>
<!-- dir_bba8fca1107941f522ad2ee3766abb01 -->
<g id="node10" class="node">
<title>dir_bba8fca1107941f522ad2ee3766abb01</title>
<g id="a_node10"><a xlink:href="dir_bba8fca1107941f522ad2ee3766abb01.html" target="_top" xlink:title="muxoclon">
<polygon fill="#a2b4d6" stroke="#404040" points="324,-124 260,-124 260,-88 324,-88 324,-124"/>
<text text-anchor="middle" x="292" y="-103.5" font-family="Helvetica,sans-Serif" font-size="10.00">muxoclon</text>
</a>
</g>
</g>
<!-- dir_bba8fca1107941f522ad2ee3766abb01&#45;&gt;dir_c69ed1062ebfd060117e95332ef267de -->
<g id="edge8" class="edge">
<title>dir_bba8fca1107941f522ad2ee3766abb01&#45;&gt;dir_c69ed1062ebfd060117e95332ef267de</title>
<path fill="none" stroke="black" d="M317.95,-87.89C322.84,-85.04 327.99,-82.27 333,-80 367.77,-64.21 409.65,-51.74 439.07,-43.97"/>
<polygon fill="black" stroke="black" points="440.12,-47.31 448.93,-41.42 438.37,-40.54 440.12,-47.31"/>
<g id="a_edge8&#45;headlabel"><a xlink:href="dir_000010_000011.html" target="_top" xlink:title="3">
<text text-anchor="middle" x="437.35" y="-48.46" font-family="Helvetica,sans-Serif" font-size="10.00">3</text>
</a>
</g>
</g>
<!-- dir_b1fb93a483ff38f15fc01de3b7342513 -->
<g id="node11" class="node">
<title>dir_b1fb93a483ff38f15fc01de3b7342513</title>
<g id="a_node11"><a xlink:href="dir_b1fb93a483ff38f15fc01de3b7342513.html" target="_top" xlink:title="sort_lin">
<polygon fill="#a2b4d6" stroke="#404040" points="242,-124 188,-124 188,-88 242,-88 242,-124"/>
<text text-anchor="middle" x="215" y="-103.5" font-family="Helvetica,sans-Serif" font-size="10.00">sort_lin</text>
</a>
</g>
</g>
<!-- dir_b1fb93a483ff38f15fc01de3b7342513&#45;&gt;dir_c69ed1062ebfd060117e95332ef267de -->
<g id="edge9" class="edge">
<title>dir_b1fb93a483ff38f15fc01de3b7342513&#45;&gt;dir_c69ed1062ebfd060117e95332ef267de</title>
<path fill="none" stroke="black" d="M236.63,-87.89C241.19,-84.9 246.1,-82.08 251,-80 313.75,-53.31 393.17,-42.19 438.92,-37.76"/>
<polygon fill="black" stroke="black" points="439.34,-41.23 448.98,-36.84 438.7,-34.26 439.34,-41.23"/>
<g id="a_edge9&#45;headlabel"><a xlink:href="dir_000012_000011.html" target="_top" xlink:title="7">
<text text-anchor="middle" x="436.02" y="-41.89" font-family="Helvetica,sans-Serif" font-size="10.00">7</text>
</a>
</g>
</g>
<!-- dir_4a26067b75b60bbdf295bc6deefcfa01 -->
<g id="node12" class="node">
<title>dir_4a26067b75b60bbdf295bc6deefcfa01</title>
<g id="a_node12"><a xlink:href="dir_4a26067b75b60bbdf295bc6deefcfa01.html" target="_top" xlink:title="usort3">
<polygon fill="#a2b4d6" stroke="#404040" points="170,-124 116,-124 116,-88 170,-88 170,-124"/>
<text text-anchor="middle" x="143" y="-103.5" font-family="Helvetica,sans-Serif" font-size="10.00">usort3</text>
</a>
</g>
</g>
<!-- dir_4a26067b75b60bbdf295bc6deefcfa01&#45;&gt;dir_c69ed1062ebfd060117e95332ef267de -->
<g id="edge10" class="edge">
<title>dir_4a26067b75b60bbdf295bc6deefcfa01&#45;&gt;dir_c69ed1062ebfd060117e95332ef267de</title>
<path fill="none" stroke="black" d="M164.17,-87.96C168.83,-84.89 173.91,-82.03 179,-80 267.5,-44.79 380.88,-36.91 438.61,-35.29"/>
<polygon fill="black" stroke="black" points="438.8,-38.79 448.72,-35.06 438.64,-31.79 438.8,-38.79"/>
<g id="a_edge10&#45;headlabel"><a xlink:href="dir_000013_000011.html" target="_top" xlink:title="3">
<text text-anchor="middle" x="435.27" y="-39.21" font-family="Helvetica,sans-Serif" font-size="10.00">3</text>
</a>
</g>
</g>
<!-- dir_e36ed159dffff3bf30813f4ee23b6d73 -->
<g id="node13" class="node">
<title>dir_e36ed159dffff3bf30813f4ee23b6d73</title>
<g id="a_node13"><a xlink:href="dir_e36ed159dffff3bf30813f4ee23b6d73.html" target="_top" xlink:title="word_suffix">
<polygon fill="#a2b4d6" stroke="#404040" points="97.5,-124 24.5,-124 24.5,-88 97.5,-88 97.5,-124"/>
<text text-anchor="middle" x="61" y="-103.5" font-family="Helvetica,sans-Serif" font-size="10.00">word_suffix</text>
</a>
</g>
</g>
<!-- dir_e36ed159dffff3bf30813f4ee23b6d73&#45;&gt;dir_c69ed1062ebfd060117e95332ef267de -->
<g id="edge11" class="edge">
<title>dir_e36ed159dffff3bf30813f4ee23b6d73&#45;&gt;dir_c69ed1062ebfd060117e95332ef267de</title>
<path fill="none" stroke="black" d="M88.47,-87.91C94.4,-84.84 100.77,-81.99 107,-80 223.99,-42.58 370.97,-35.93 438.7,-34.98"/>
<polygon fill="black" stroke="black" points="438.91,-38.47 448.87,-34.87 438.83,-31.48 438.91,-38.47"/>
<g id="a_edge11&#45;headlabel"><a xlink:href="dir_000015_000011.html" target="_top" xlink:title="6">
<text text-anchor="middle" x="435.34" y="-38.85" font-family="Helvetica,sans-Serif" font-size="10.00">6</text>
</a>
</g>
</g>
</g>
</svg>
        <g id="navigator" transform="translate(0 0)" fill="#404254">
                <rect fill="#f2f5e9" fill-opacity="0.5" stroke="#606060" stroke-width=".5" x="0" y="0" width="60" height="60"/>
                <use id="zoomplus" xlink:href="#zoomPlus" x="17" y="9" onmousedown="handleZoom(evt,'in')"/>
                <use id="zoomminus" xlink:href="#zoomMin" x="42" y="9" onmousedown="handleZoom(evt,'out')"/>
                <use id="reset" xlink:href="#resetDef" x="30" y="36" onmousedown="handleReset()"/>
                <g id="arrowUp" xlink:href="#dirArrow" transform="translate(30 24)" onmousedown="handlePan(0,-1)">
                  <use xlink:href="#rim" fill="#404040">
                        <set attributeName="fill" to="#808080" begin="arrowUp.mouseover" end="arrowUp.mouseout"/>
                  </use>
                  <path fill="none" stroke="white" stroke-width="1.5" d="M0,-3.0v7 M-2.5,-0.5L0,-3.0L2.5,-0.5"/>
                </g>
                <g id="arrowRight" xlink:href="#dirArrow" transform="rotate(90) translate(36 -43)" onmousedown="handlePan(1,0)">
                  <use xlink:href="#rim" fill="#404040">
                        <set attributeName="fill" to="#808080" begin="arrowRight.mouseover" end="arrowRight.mouseout"/>
                  </use>
                  <path fill="none" stroke="white" stroke-width="1.5" d="M0,-3.0v7 M-2.5,-0.5L0,-3.0L2.5,-0.5"/>
                </g>
                <g id="arrowDown" xlink:href="#dirArrow" transform="rotate(180) translate(-30 -48)" onmousedown="handlePan(0,1)">
                  <use xlink:href="#rim" fill="#404040">
                        <set attributeName="fill" to="#808080" begin="arrowDown.mouseover" end="arrowDown.mouseout"/>
                  </use>
                  <path fill="none" stroke="white" stroke-width="1.5" d="M0,-3.0v7 M-2.5,-0.5L0,-3.0L2.5,-0.5"/>
                </g>
                <g id="arrowLeft" xlink:href="#dirArrow" transform="rotate(270) translate(-36 17)" onmousedown="handlePan(-1,0)">
                  <use xlink:href="#rim" fill="#404040">
                        <set attributeName="fill" to="#808080" begin="arrowLeft.mouseover" end="arrowLeft.mouseout"/>
                  </use>
                  <path fill="none" stroke="white" stroke-width="1.5" d="M0,-3.0v7 M-2.5,-0.5L0,-3.0L2.5,-0.5"/>
                </g>
        </g>
        <svg viewBox="0 0 15 15" width="100%" height="30px" preserveAspectRatio="xMaxYMin meet">
         <g id="arrow_out" transform="scale(0.3 0.3)">
          <a xlink:href="dir_2ce005003d486a971aca7cfdd90f0354_dep_org.svg" target="_base">
           <rect id="button" ry="5" rx="5" y="6" x="6" height="38" width="38"
                fill="#f2f5e9" fill-opacity="0.5" stroke="#606060" stroke-width="1.0"/>
           <path id="arrow"
             d="M 11.500037,31.436501 C 11.940474,20.09759 22.043105,11.32322 32.158766,21.979434 L 37.068811,17.246167 C 37.068811,17.246167 37.088388,32 37.088388,32 L 22.160133,31.978069 C 22.160133,31.978069 26.997745,27.140456 26.997745,27.140456 C 18.528582,18.264221 13.291696,25.230495 11.500037,31.436501 z"
             style="fill:#404040;"/>
          </a>
         </g>
        </svg>
</svg>
