<?xml version="1.0" encoding="UTF-8" standalone="no"?>
<!DOCTYPE svg PUBLIC "-//W3C//DTD SVG 1.1//EN"
 "http://www.w3.org/Graphics/SVG/1.1/DTD/svg11.dtd">
<!-- Generated by graphviz version 5.0.1 (20220820.1526)
 -->
<!-- Title: Graphical Class Hierarchy Pages: 1 -->
<svg width="536pt" height="61pt"
 viewBox="0.00 0.00 536.00 61.00" xmlns="http://www.w3.org/2000/svg" xmlns:xlink="http://www.w3.org/1999/xlink">
<g id="graph0" class="graph" transform="scale(1 1) rotate(0) translate(4 57)">
<title>Graphical Class Hierarchy</title>
<!-- Node0 -->
<g id="node1" class="node">
<title>Node0</title>
<g id="a_node1"><a xlink:href="d4/d19/classuxn_1_1patl_1_1impl_1_1algorithm__generic.html" target="_top" xlink:title=" ">
<polygon fill="none" stroke="black" points="0,-0.5 0,-52.5 155,-52.5 155,-0.5 0,-0.5"/>
<text text-anchor="start" x="8" y="-40.5" font-family="Helvetica,sans-Serif" font-size="10.00">uxn::patl::impl::algorithm</text>
<text text-anchor="start" x="8" y="-29.5" font-family="Helvetica,sans-Serif" font-size="10.00">_generic&lt; T, algorithm_gen</text>
<text text-anchor="start" x="8" y="-18.5" font-family="Helvetica,sans-Serif" font-size="10.00">&lt; T, Container &gt;, Container,</text>
<text text-anchor="middle" x="77.5" y="-7.5" font-family="Helvetica,sans-Serif" font-size="10.00"> T::N_ &gt;</text>
</a>
</g>
</g>
<!-- Node1 -->
<g id="node2" class="node">
<title>Node1</title>
<g id="a_node2"><a xlink:href="d2/d22/classuxn_1_1patl_1_1impl_1_1core__algorithm__generic.html" target="_top" xlink:title=" ">
<polygon fill="none" stroke="black" points="191,-0.5 191,-52.5 352,-52.5 352,-0.5 191,-0.5"/>
<text text-anchor="start" x="199" y="-40.5" font-family="Helvetica,sans-Serif" font-size="10.00">uxn::patl::impl::core</text>
<text text-anchor="start" x="199" y="-29.5" font-family="Helvetica,sans-Serif" font-size="10.00">_algorithm_generic&lt; T,</text>
<text text-anchor="start" x="199" y="-18.5" font-family="Helvetica,sans-Serif" font-size="10.00"> algorithm_gen&lt; T, Container</text>
<text text-anchor="middle" x="271.5" y="-7.5" font-family="Helvetica,sans-Serif" font-size="10.00"> &gt;, Container &gt;</text>
</a>
</g>
</g>
<!-- Node0&#45;&gt;Node1 -->
<g id="edge1" class="edge">
<title>Node0&#45;&gt;Node1</title>
<path fill="none" stroke="midnightblue" d="M165.44,-26.5C173.88,-26.5 182.41,-26.5 190.77,-26.5"/>
<polygon fill="midnightblue" stroke="midnightblue" points="165.21,-23 155.21,-26.5 165.21,-30 165.21,-23"/>
</g>
<!-- Node2 -->
<g id="node3" class="node">
<title>Node2</title>
<g id="a_node3"><a xlink:href="d1/dd9/classuxn_1_1patl_1_1impl_1_1algorithm__gen.html" target="_top" xlink:title=" ">
<polygon fill="none" stroke="black" points="388,-11.5 388,-41.5 528,-41.5 528,-11.5 388,-11.5"/>
<text text-anchor="start" x="396" y="-29.5" font-family="Helvetica,sans-Serif" font-size="10.00">uxn::patl::impl::algorithm</text>
<text text-anchor="middle" x="458" y="-18.5" font-family="Helvetica,sans-Serif" font-size="10.00">_gen&lt; T, Container &gt;</text>
</a>
</g>
</g>
<!-- Node1&#45;&gt;Node2 -->
<g id="edge2" class="edge">
<title>Node1&#45;&gt;Node2</title>
<path fill="none" stroke="midnightblue" d="M362.17,-26.5C370.79,-26.5 379.45,-26.5 387.83,-26.5"/>
<polygon fill="midnightblue" stroke="midnightblue" points="362.08,-23 352.08,-26.5 362.08,-30 362.08,-23"/>
</g>
</g>
</svg>
