<?xml version="1.0" encoding="UTF-8" standalone="no"?>
<!DOCTYPE svg PUBLIC "-//W3C//DTD SVG 1.1//EN"
 "http://www.w3.org/Graphics/SVG/1.1/DTD/svg11.dtd">
<!-- Generated by graphviz version 5.0.1 (20220820.1526)
 -->
<!-- Title: Graphical Class Hierarchy Pages: 1 -->
<svg width="296pt" height="208pt"
 viewBox="0.00 0.00 296.00 208.00" xmlns="http://www.w3.org/2000/svg" xmlns:xlink="http://www.w3.org/1999/xlink">
<g id="graph0" class="graph" transform="scale(1 1) rotate(0) translate(4 204)">
<title>Graphical Class Hierarchy</title>
<!-- Node0 -->
<g id="node1" class="node">
<title>Node0</title>
<g id="a_node1"><a xlink:title=" ">
<polygon fill="none" stroke="#bfbfbf" points="0,-101.5 0,-120.5 113,-120.5 113,-101.5 0,-101.5"/>
<text text-anchor="middle" x="56.5" y="-108.5" font-family="Helvetica,sans-Serif" font-size="10.00">std::binary_function</text>
</a>
</g>
</g>
<!-- Node1 -->
<g id="node2" class="node">
<title>Node1</title>
<g id="a_node2"><a xlink:href="d1/d6c/classPtrGreaterPred.html" target="_top" xlink:title=" ">
<polygon fill="none" stroke="black" points="160,-180.5 160,-199.5 277,-199.5 277,-180.5 160,-180.5"/>
<text text-anchor="middle" x="218.5" y="-187.5" font-family="Helvetica,sans-Serif" font-size="10.00">PtrGreaterPred&lt; T &gt;</text>
</a>
</g>
</g>
<!-- Node0&#45;&gt;Node1 -->
<g id="edge1" class="edge">
<title>Node0&#45;&gt;Node1</title>
<path fill="none" stroke="#8b1a1a" d="M77.47,-126.73C95.33,-140.14 122.68,-159.07 149,-171 157.21,-174.72 166.3,-177.86 175.11,-180.45"/>
<polygon fill="#8b1a1a" stroke="#8b1a1a" points="79.58,-123.94 69.51,-120.65 75.33,-129.5 79.58,-123.94"/>
</g>
<!-- Node2 -->
<g id="node3" class="node">
<title>Node2</title>
<g id="a_node3"><a xlink:href="df/d74/structuxn_1_1patl_1_1impl_1_1trie__generic_3_01T_00_010_01_4_1_1default__show__value.html" target="_top" xlink:title=" ">
<polygon fill="none" stroke="black" points="149,-120.5 149,-161.5 288,-161.5 288,-120.5 149,-120.5"/>
<text text-anchor="start" x="157" y="-149.5" font-family="Helvetica,sans-Serif" font-size="10.00">uxn::patl::impl::trie</text>
<text text-anchor="start" x="157" y="-138.5" font-family="Helvetica,sans-Serif" font-size="10.00">_generic&lt; T, 0 &gt;::default</text>
<text text-anchor="middle" x="218.5" y="-127.5" font-family="Helvetica,sans-Serif" font-size="10.00">_show_value&lt; OutIter &gt;</text>
</a>
</g>
</g>
<!-- Node0&#45;&gt;Node2 -->
<g id="edge2" class="edge">
<title>Node0&#45;&gt;Node2</title>
<path fill="none" stroke="midnightblue" d="M118.67,-122.47C128.53,-124.32 138.8,-126.24 148.82,-128.12"/>
<polygon fill="midnightblue" stroke="midnightblue" points="119.04,-118.98 108.56,-120.57 117.75,-125.86 119.04,-118.98"/>
</g>
<!-- Node3 -->
<g id="node4" class="node">
<title>Node3</title>
<g id="a_node4"><a xlink:href="da/df8/structuxn_1_1patl_1_1impl_1_1trie__generic_3_01T_00_010_01_4_1_1void__merge__handler.html" target="_top" xlink:title=" ">
<polygon fill="none" stroke="black" points="156,-60.5 156,-101.5 281,-101.5 281,-60.5 156,-60.5"/>
<text text-anchor="start" x="164" y="-89.5" font-family="Helvetica,sans-Serif" font-size="10.00">uxn::patl::impl::trie</text>
<text text-anchor="start" x="164" y="-78.5" font-family="Helvetica,sans-Serif" font-size="10.00">_generic&lt; T, 0 &gt;::void</text>
<text text-anchor="middle" x="218.5" y="-67.5" font-family="Helvetica,sans-Serif" font-size="10.00">_merge_handler</text>
</a>
</g>
</g>
<!-- Node0&#45;&gt;Node3 -->
<g id="edge3" class="edge">
<title>Node0&#45;&gt;Node3</title>
<path fill="none" stroke="midnightblue" d="M118.61,-99.54C130.76,-97.26 143.54,-94.87 155.72,-92.58"/>
<polygon fill="midnightblue" stroke="midnightblue" points="117.75,-96.14 108.56,-101.43 119.04,-103.02 117.75,-96.14"/>
</g>
<!-- Node4 -->
<g id="node5" class="node">
<title>Node4</title>
<g id="a_node5"><a xlink:href="d9/d5f/structuxn_1_1patl_1_1super__maxrep__iterator_1_1key__type__less.html" target="_top" xlink:title=" ">
<polygon fill="none" stroke="black" points="151,-0.5 151,-41.5 286,-41.5 286,-0.5 151,-0.5"/>
<text text-anchor="start" x="159" y="-29.5" font-family="Helvetica,sans-Serif" font-size="10.00">uxn::patl::super_maxrep</text>
<text text-anchor="start" x="159" y="-18.5" font-family="Helvetica,sans-Serif" font-size="10.00">_iterator&lt; Container &gt;</text>
<text text-anchor="middle" x="218.5" y="-7.5" font-family="Helvetica,sans-Serif" font-size="10.00">::key_type_less</text>
</a>
</g>
</g>
<!-- Node0&#45;&gt;Node4 -->
<g id="edge4" class="edge">
<title>Node0&#45;&gt;Node4</title>
<path fill="none" stroke="midnightblue" d="M78.86,-95.52C97.01,-82.73 124.03,-64.53 149,-51 154.94,-47.78 161.29,-44.64 167.64,-41.66"/>
<polygon fill="midnightblue" stroke="midnightblue" points="76.82,-92.67 70.7,-101.32 80.88,-98.38 76.82,-92.67"/>
</g>
</g>
</svg>
