<?xml version="1.0" encoding="UTF-8" standalone="no"?>
<!DOCTYPE svg PUBLIC "-//W3C//DTD SVG 1.1//EN"
 "http://www.w3.org/Graphics/SVG/1.1/DTD/svg11.dtd">
<!-- Generated by graphviz version 5.0.1 (20220820.1526)
 -->
<!-- Title: Graphical Class Hierarchy Pages: 1 -->
<svg width="538pt" height="394pt"
 viewBox="0.00 0.00 538.00 394.00" xmlns="http://www.w3.org/2000/svg" xmlns:xlink="http://www.w3.org/1999/xlink">
<g id="graph0" class="graph" transform="scale(1 1) rotate(0) translate(4 390)">
<title>Graphical Class Hierarchy</title>
<!-- Node0 -->
<g id="node1" class="node">
<title>Node0</title>
<g id="a_node1"><a xlink:href="de/d77/classuxn_1_1patl_1_1bit__comparator_3_01T_00_010_01_4.html" target="_top" xlink:title="restriction: NO key CAN BE a prefix of any other key">
<polygon fill="none" stroke="black" points="0,-183.5 0,-213.5 140,-213.5 140,-183.5 0,-183.5"/>
<text text-anchor="start" x="8" y="-201.5" font-family="Helvetica,sans-Serif" font-size="10.00">uxn::patl::bit_comparator</text>
<text text-anchor="middle" x="70" y="-190.5" font-family="Helvetica,sans-Serif" font-size="10.00">&lt; T, 0 &gt;</text>
</a>
</g>
</g>
<!-- Node1 -->
<g id="node2" class="node">
<title>Node1</title>
<g id="a_node2"><a xlink:href="dd/d2e/classuxn_1_1patl_1_1bit__comparator_3_01T_01_5_00_010_01_4.html" target="_top" xlink:title="simple infinite (T*) string">
<polygon fill="none" stroke="black" points="185.5,-355.5 185.5,-385.5 325.5,-385.5 325.5,-355.5 185.5,-355.5"/>
<text text-anchor="start" x="193.5" y="-373.5" font-family="Helvetica,sans-Serif" font-size="10.00">uxn::patl::bit_comparator</text>
<text text-anchor="middle" x="255.5" y="-362.5" font-family="Helvetica,sans-Serif" font-size="10.00">&lt; T *, 0 &gt;</text>
</a>
</g>
</g>
<!-- Node0&#45;&gt;Node1 -->
<g id="edge1" class="edge">
<title>Node0&#45;&gt;Node1</title>
<path fill="none" stroke="midnightblue" d="M81.99,-222.92C98,-255.79 130.86,-313.92 176,-346.5 180.74,-349.92 185.97,-352.86 191.42,-355.39"/>
<polygon fill="midnightblue" stroke="midnightblue" points="85.01,-221.12 77.56,-213.58 78.68,-224.12 85.01,-221.12"/>
</g>
<!-- Node3 -->
<g id="node4" class="node">
<title>Node3</title>
<g id="a_node4"><a xlink:href="d2/d6e/classuxn_1_1patl_1_1bit__comparator_3_01T_00_018_01_4.html" target="_top" xlink:title=" ">
<polygon fill="none" stroke="black" points="185.5,-306.5 185.5,-336.5 325.5,-336.5 325.5,-306.5 185.5,-306.5"/>
<text text-anchor="start" x="193.5" y="-324.5" font-family="Helvetica,sans-Serif" font-size="10.00">uxn::patl::bit_comparator</text>
<text text-anchor="middle" x="255.5" y="-313.5" font-family="Helvetica,sans-Serif" font-size="10.00">&lt; T, 8 &gt;</text>
</a>
</g>
</g>
<!-- Node0&#45;&gt;Node3 -->
<g id="edge3" class="edge">
<title>Node0&#45;&gt;Node3</title>
<path fill="none" stroke="midnightblue" d="M89.49,-221.2C108.86,-243.59 141.27,-277.32 176,-297.5 181.79,-300.86 188.1,-303.8 194.55,-306.36"/>
<polygon fill="midnightblue" stroke="midnightblue" points="92.1,-218.86 82.96,-213.5 86.76,-223.39 92.1,-218.86"/>
</g>
<!-- Node4 -->
<g id="node5" class="node">
<title>Node4</title>
<g id="a_node5"><a xlink:href="d1/d1c/classuxn_1_1patl_1_1bit__comparator_3_01std_1_1basic__string_3_01T_01_4_00_010_01_4.html" target="_top" xlink:title="standard finite std::basic_string">
<polygon fill="none" stroke="black" points="176,-257.5 176,-287.5 335,-287.5 335,-257.5 176,-257.5"/>
<text text-anchor="start" x="184" y="-275.5" font-family="Helvetica,sans-Serif" font-size="10.00">uxn::patl::bit_comparator</text>
<text text-anchor="middle" x="255.5" y="-264.5" font-family="Helvetica,sans-Serif" font-size="10.00">&lt; std::basic_string&lt; T &gt;, 0 &gt;</text>
</a>
</g>
</g>
<!-- Node0&#45;&gt;Node4 -->
<g id="edge4" class="edge">
<title>Node0&#45;&gt;Node4</title>
<path fill="none" stroke="midnightblue" d="M110.07,-218.19C129.61,-227.66 153.78,-238.82 176,-247.5 184.93,-250.99 194.56,-254.36 203.91,-257.44"/>
<polygon fill="midnightblue" stroke="midnightblue" points="111.4,-214.95 100.88,-213.7 108.32,-221.23 111.4,-214.95"/>
</g>
<!-- Node6 -->
<g id="node7" class="node">
<title>Node6</title>
<g id="a_node7"><a xlink:href="d4/da5/classuxn_1_1patl_1_1bit__comparator_3_01std_1_1vector_3_01T_01_4_00_010_01_4.html" target="_top" xlink:title="standard finite std::vector">
<polygon fill="none" stroke="black" points="185.5,-208.5 185.5,-238.5 325.5,-238.5 325.5,-208.5 185.5,-208.5"/>
<text text-anchor="start" x="193.5" y="-226.5" font-family="Helvetica,sans-Serif" font-size="10.00">uxn::patl::bit_comparator</text>
<text text-anchor="middle" x="255.5" y="-215.5" font-family="Helvetica,sans-Serif" font-size="10.00">&lt; std::vector&lt; T &gt;, 0 &gt;</text>
</a>
</g>
</g>
<!-- Node0&#45;&gt;Node6 -->
<g id="edge6" class="edge">
<title>Node0&#45;&gt;Node6</title>
<path fill="none" stroke="midnightblue" d="M150.3,-209.3C162,-210.9 173.98,-212.53 185.45,-214.09"/>
<polygon fill="midnightblue" stroke="midnightblue" points="150.49,-205.8 140.11,-207.92 149.55,-212.73 150.49,-205.8"/>
</g>
<!-- Node8 -->
<g id="node9" class="node">
<title>Node8</title>
<g id="a_node9"><a xlink:href="db/d1b/classuxn_1_1patl_1_1bit__comparator__0_3_01T_00_010_01_4.html" target="_top" xlink:title=" ">
<polygon fill="none" stroke="black" points="185.5,-159.5 185.5,-189.5 325.5,-189.5 325.5,-159.5 185.5,-159.5"/>
<text text-anchor="start" x="193.5" y="-177.5" font-family="Helvetica,sans-Serif" font-size="10.00">uxn::patl::bit_comparator</text>
<text text-anchor="middle" x="255.5" y="-166.5" font-family="Helvetica,sans-Serif" font-size="10.00">_0&lt; T, 0 &gt;</text>
</a>
</g>
</g>
<!-- Node0&#45;&gt;Node8 -->
<g id="edge8" class="edge">
<title>Node0&#45;&gt;Node8</title>
<path fill="none" stroke="midnightblue" d="M150.3,-188.13C162,-186.6 173.98,-185.03 185.45,-183.53"/>
<polygon fill="midnightblue" stroke="midnightblue" points="149.57,-184.69 140.11,-189.46 150.48,-191.63 149.57,-184.69"/>
</g>
<!-- Node9 -->
<g id="node10" class="node">
<title>Node9</title>
<g id="a_node10"><a xlink:href="d0/d83/classuxn_1_1patl_1_1bounded__bit__comparator_3_01T_00_01Q_00_010_00_01Delta_01_4.html" target="_top" xlink:title=" ">
<polygon fill="none" stroke="black" points="197.5,-99 197.5,-140 313.5,-140 313.5,-99 197.5,-99"/>
<text text-anchor="start" x="205.5" y="-128" font-family="Helvetica,sans-Serif" font-size="10.00">uxn::patl::bounded</text>
<text text-anchor="start" x="205.5" y="-117" font-family="Helvetica,sans-Serif" font-size="10.00">_bit_comparator&lt; T,</text>
<text text-anchor="middle" x="255.5" y="-106" font-family="Helvetica,sans-Serif" font-size="10.00"> Q, 0, Delta &gt;</text>
</a>
</g>
</g>
<!-- Node0&#45;&gt;Node9 -->
<g id="edge9" class="edge">
<title>Node0&#45;&gt;Node9</title>
<path fill="none" stroke="midnightblue" d="M111.15,-178.94C130.59,-169.68 154.35,-158.67 176,-149.5 183.39,-146.37 191.23,-143.2 198.98,-140.15"/>
<polygon fill="midnightblue" stroke="midnightblue" points="109.49,-175.86 101.98,-183.33 112.51,-182.17 109.49,-175.86"/>
</g>
<!-- Node10 -->
<g id="node11" class="node">
<title>Node10</title>
<g id="a_node11"><a xlink:href="d3/d0d/classuxn_1_1patl_1_1ptr__bit__comparator.html" target="_top" xlink:title="keys dereferenced from pointers">
<polygon fill="none" stroke="black" points="195.5,-49.5 195.5,-79.5 315.5,-79.5 315.5,-49.5 195.5,-49.5"/>
<text text-anchor="start" x="203.5" y="-67.5" font-family="Helvetica,sans-Serif" font-size="10.00">uxn::patl::ptr_bit</text>
<text text-anchor="middle" x="255.5" y="-56.5" font-family="Helvetica,sans-Serif" font-size="10.00">_comparator&lt; T, N &gt;</text>
</a>
</g>
</g>
<!-- Node0&#45;&gt;Node10 -->
<g id="edge10" class="edge">
<title>Node0&#45;&gt;Node10</title>
<path fill="none" stroke="midnightblue" d="M87.86,-175.07C106.72,-150.45 139.47,-112.21 176,-89.5 182.19,-85.65 189.04,-82.34 196.02,-79.51"/>
<polygon fill="midnightblue" stroke="midnightblue" points="84.99,-173.06 81.78,-183.16 90.59,-177.26 84.99,-173.06"/>
</g>
<!-- Node11 -->
<g id="node12" class="node">
<title>Node11</title>
<g id="a_node12"><a xlink:href="dc/dfe/classuxn_1_1patl_1_1reverse__bit__comparator.html" target="_top" xlink:title="bit&#45;comparator for reversed lexicographical ordering">
<polygon fill="none" stroke="black" points="186.5,-0.5 186.5,-30.5 324.5,-30.5 324.5,-0.5 186.5,-0.5"/>
<text text-anchor="start" x="194.5" y="-18.5" font-family="Helvetica,sans-Serif" font-size="10.00">uxn::patl::reverse</text>
<text text-anchor="middle" x="255.5" y="-7.5" font-family="Helvetica,sans-Serif" font-size="10.00">_bit_comparator&lt; T, N &gt;</text>
</a>
</g>
</g>
<!-- Node0&#45;&gt;Node11 -->
<g id="edge11" class="edge">
<title>Node0&#45;&gt;Node11</title>
<path fill="none" stroke="midnightblue" d="M80.83,-173.8C96.03,-138.78 128.49,-75.01 176,-39.5 180.57,-36.09 185.62,-33.15 190.9,-30.64"/>
<polygon fill="midnightblue" stroke="midnightblue" points="77.5,-172.7 76.84,-183.27 83.95,-175.42 77.5,-172.7"/>
</g>
<!-- Node2 -->
<g id="node3" class="node">
<title>Node2</title>
<g id="a_node3"><a xlink:href="d0/d7a/classuxn_1_1patl_1_1bit__comparator_3_01T_01_5_00_018_01_4.html" target="_top" xlink:title=" ">
<polygon fill="none" stroke="black" points="380.5,-355.5 380.5,-385.5 520.5,-385.5 520.5,-355.5 380.5,-355.5"/>
<text text-anchor="start" x="388.5" y="-373.5" font-family="Helvetica,sans-Serif" font-size="10.00">uxn::patl::bit_comparator</text>
<text text-anchor="middle" x="450.5" y="-362.5" font-family="Helvetica,sans-Serif" font-size="10.00">&lt; T *, 8 &gt;</text>
</a>
</g>
</g>
<!-- Node1&#45;&gt;Node2 -->
<g id="edge2" class="edge">
<title>Node1&#45;&gt;Node2</title>
<path fill="none" stroke="midnightblue" d="M335.73,-370.5C350.48,-370.5 365.78,-370.5 380.2,-370.5"/>
<polygon fill="midnightblue" stroke="midnightblue" points="335.63,-367 325.63,-370.5 335.63,-374 335.63,-367"/>
</g>
<!-- Node5 -->
<g id="node6" class="node">
<title>Node5</title>
<g id="a_node6"><a xlink:href="d8/d92/classuxn_1_1patl_1_1bit__comparator_3_01std_1_1basic__string_3_01T_01_4_00_018_01_4.html" target="_top" xlink:title=" ">
<polygon fill="none" stroke="black" points="371,-257.5 371,-287.5 530,-287.5 530,-257.5 371,-257.5"/>
<text text-anchor="start" x="379" y="-275.5" font-family="Helvetica,sans-Serif" font-size="10.00">uxn::patl::bit_comparator</text>
<text text-anchor="middle" x="450.5" y="-264.5" font-family="Helvetica,sans-Serif" font-size="10.00">&lt; std::basic_string&lt; T &gt;, 8 &gt;</text>
</a>
</g>
</g>
<!-- Node4&#45;&gt;Node5 -->
<g id="edge5" class="edge">
<title>Node4&#45;&gt;Node5</title>
<path fill="none" stroke="midnightblue" d="M345.02,-272.5C353.61,-272.5 362.28,-272.5 370.76,-272.5"/>
<polygon fill="midnightblue" stroke="midnightblue" points="345,-269 335,-272.5 345,-276 345,-269"/>
</g>
<!-- Node7 -->
<g id="node8" class="node">
<title>Node7</title>
<g id="a_node8"><a xlink:href="de/d0d/classuxn_1_1patl_1_1bit__comparator_3_01std_1_1vector_3_01T_01_4_00_018_01_4.html" target="_top" xlink:title=" ">
<polygon fill="none" stroke="black" points="380.5,-208.5 380.5,-238.5 520.5,-238.5 520.5,-208.5 380.5,-208.5"/>
<text text-anchor="start" x="388.5" y="-226.5" font-family="Helvetica,sans-Serif" font-size="10.00">uxn::patl::bit_comparator</text>
<text text-anchor="middle" x="450.5" y="-215.5" font-family="Helvetica,sans-Serif" font-size="10.00">&lt; std::vector&lt; T &gt;, 8 &gt;</text>
</a>
</g>
</g>
<!-- Node6&#45;&gt;Node7 -->
<g id="edge7" class="edge">
<title>Node6&#45;&gt;Node7</title>
<path fill="none" stroke="midnightblue" d="M335.73,-223.5C350.48,-223.5 365.78,-223.5 380.2,-223.5"/>
<polygon fill="midnightblue" stroke="midnightblue" points="335.63,-220 325.63,-223.5 335.63,-227 335.63,-220"/>
</g>
</g>
</svg>
