<?xml version="1.0" encoding="UTF-8" standalone="no"?>
<!DOCTYPE svg PUBLIC "-//W3C//DTD SVG 1.1//EN"
 "http://www.w3.org/Graphics/SVG/1.1/DTD/svg11.dtd">
<!-- Generated by graphviz version 5.0.1 (20220820.1526)
 -->
<!-- Title: Graphical Class Hierarchy Pages: 1 -->
<svg width="584pt" height="61pt"
 viewBox="0.00 0.00 584.00 61.00" xmlns="http://www.w3.org/2000/svg" xmlns:xlink="http://www.w3.org/1999/xlink">
<g id="graph0" class="graph" transform="scale(1 1) rotate(0) translate(4 57)">
<title>Graphical Class Hierarchy</title>
<!-- Node0 -->
<g id="node1" class="node">
<title>Node0</title>
<g id="a_node1"><a xlink:href="d4/d19/classuxn_1_1patl_1_1impl_1_1algorithm__generic.html" target="_top" xlink:title=" ">
<polygon fill="none" stroke="black" points="0,-0.5 0,-52.5 187,-52.5 187,-0.5 0,-0.5"/>
<text text-anchor="start" x="8" y="-40.5" font-family="Helvetica,sans-Serif" font-size="10.00">uxn::patl::impl::algorithm</text>
<text text-anchor="start" x="8" y="-29.5" font-family="Helvetica,sans-Serif" font-size="10.00">_generic&lt; T, algorithm_gen</text>
<text text-anchor="start" x="8" y="-18.5" font-family="Helvetica,sans-Serif" font-size="10.00">_suffix&lt; T, Container &gt;, Container,</text>
<text text-anchor="middle" x="93.5" y="-7.5" font-family="Helvetica,sans-Serif" font-size="10.00"> T::N_ &gt;</text>
</a>
</g>
</g>
<!-- Node1 -->
<g id="node2" class="node">
<title>Node1</title>
<g id="a_node2"><a xlink:href="d2/d22/classuxn_1_1patl_1_1impl_1_1core__algorithm__generic.html" target="_top" xlink:title=" ">
<polygon fill="none" stroke="black" points="223,-0.5 223,-52.5 386,-52.5 386,-0.5 223,-0.5"/>
<text text-anchor="start" x="231" y="-40.5" font-family="Helvetica,sans-Serif" font-size="10.00">uxn::patl::impl::core</text>
<text text-anchor="start" x="231" y="-29.5" font-family="Helvetica,sans-Serif" font-size="10.00">_algorithm_generic&lt; T,</text>
<text text-anchor="start" x="231" y="-18.5" font-family="Helvetica,sans-Serif" font-size="10.00"> algorithm_gen_suffix</text>
<text text-anchor="middle" x="304.5" y="-7.5" font-family="Helvetica,sans-Serif" font-size="10.00">&lt; T, Container &gt;, Container &gt;</text>
</a>
</g>
</g>
<!-- Node0&#45;&gt;Node1 -->
<g id="edge1" class="edge">
<title>Node0&#45;&gt;Node1</title>
<path fill="none" stroke="midnightblue" d="M197.16,-26.5C205.76,-26.5 214.38,-26.5 222.79,-26.5"/>
<polygon fill="midnightblue" stroke="midnightblue" points="197.08,-23 187.08,-26.5 197.08,-30 197.08,-23"/>
</g>
<!-- Node2 -->
<g id="node3" class="node">
<title>Node2</title>
<g id="a_node3"><a xlink:href="dd/d82/classuxn_1_1patl_1_1impl_1_1algorithm__gen__suffix.html" target="_top" xlink:title=" ">
<polygon fill="none" stroke="black" points="422,-11.5 422,-41.5 576,-41.5 576,-11.5 422,-11.5"/>
<text text-anchor="start" x="430" y="-29.5" font-family="Helvetica,sans-Serif" font-size="10.00">uxn::patl::impl::algorithm</text>
<text text-anchor="middle" x="499" y="-18.5" font-family="Helvetica,sans-Serif" font-size="10.00">_gen_suffix&lt; T, Container &gt;</text>
</a>
</g>
</g>
<!-- Node1&#45;&gt;Node2 -->
<g id="edge2" class="edge">
<title>Node1&#45;&gt;Node2</title>
<path fill="none" stroke="midnightblue" d="M396.08,-26.5C404.69,-26.5 413.35,-26.5 421.8,-26.5"/>
<polygon fill="midnightblue" stroke="midnightblue" points="396.02,-23 386.02,-26.5 396.02,-30 396.02,-23"/>
</g>
</g>
</svg>
