<?xml version="1.0" encoding="UTF-8" standalone="no"?>
<!DOCTYPE svg PUBLIC "-//W3C//DTD SVG 1.1//EN"
 "http://www.w3.org/Graphics/SVG/1.1/DTD/svg11.dtd">
<!-- Generated by graphviz version 5.0.1 (20220820.1526)
 -->
<!-- Title: Graphical Class Hierarchy Pages: 1 -->
<svg width="438pt" height="105pt"
 viewBox="0.00 0.00 438.00 105.00" xmlns="http://www.w3.org/2000/svg" xmlns:xlink="http://www.w3.org/1999/xlink">
<g id="graph0" class="graph" transform="scale(1 1) rotate(0) translate(4 101)">
<title>Graphical Class Hierarchy</title>
<!-- Node0 -->
<g id="node1" class="node">
<title>Node0</title>
<g id="a_node1"><a xlink:title=" ">
<polygon fill="none" stroke="#bfbfbf" points="0,-38.5 0,-57.5 29,-57.5 29,-38.5 0,-38.5"/>
<text text-anchor="middle" x="14.5" y="-45.5" font-family="Helvetica,sans-Serif" font-size="10.00">T</text>
</a>
</g>
</g>
<!-- Node1 -->
<g id="node2" class="node">
<title>Node1</title>
<g id="a_node2"><a xlink:href="d9/d9b/structuxn_1_1patl_1_1impl_1_1algorithm__gen__traits.html" target="_top" xlink:title=" ">
<polygon fill="none" stroke="black" points="76.5,-61 76.5,-91 216.5,-91 216.5,-61 76.5,-61"/>
<text text-anchor="start" x="84.5" y="-79" font-family="Helvetica,sans-Serif" font-size="10.00">uxn::patl::impl::algorithm</text>
<text text-anchor="middle" x="146.5" y="-68" font-family="Helvetica,sans-Serif" font-size="10.00">_gen_traits&lt; T, Node &gt;</text>
</a>
</g>
</g>
<!-- Node0&#45;&gt;Node1 -->
<g id="edge1" class="edge">
<title>Node0&#45;&gt;Node1</title>
<path fill="none" stroke="midnightblue" d="M39.45,-53.16C50.03,-55.44 63.07,-58.24 76.33,-61.1"/>
<polygon fill="midnightblue" stroke="midnightblue" points="39.93,-49.68 29.41,-51 38.45,-56.52 39.93,-49.68"/>
</g>
<!-- Node3 -->
<g id="node4" class="node">
<title>Node3</title>
<g id="a_node4"><a xlink:href="d6/d1a/structuxn_1_1patl_1_1impl_1_1suffix__generic__traits.html" target="_top" xlink:title=" ">
<polygon fill="none" stroke="black" points="65,-0.5 65,-41.5 228,-41.5 228,-0.5 65,-0.5"/>
<text text-anchor="start" x="73" y="-29.5" font-family="Helvetica,sans-Serif" font-size="10.00">uxn::patl::impl::suffix</text>
<text text-anchor="start" x="73" y="-18.5" font-family="Helvetica,sans-Serif" font-size="10.00">_generic_traits&lt; T, Algorithm,</text>
<text text-anchor="middle" x="146.5" y="-7.5" font-family="Helvetica,sans-Serif" font-size="10.00"> Prefix, Container &gt;</text>
</a>
</g>
</g>
<!-- Node0&#45;&gt;Node3 -->
<g id="edge3" class="edge">
<title>Node0&#45;&gt;Node3</title>
<path fill="none" stroke="midnightblue" d="M39.45,-43.03C46.97,-41.46 55.73,-39.64 64.93,-37.73"/>
<polygon fill="midnightblue" stroke="midnightblue" points="38.49,-39.65 29.41,-45.11 39.92,-46.5 38.49,-39.65"/>
</g>
<!-- Node2 -->
<g id="node3" class="node">
<title>Node2</title>
<g id="a_node3"><a xlink:href="d9/df9/structuxn_1_1patl_1_1impl_1_1trie__generic__traits.html" target="_top" xlink:title=" ">
<polygon fill="none" stroke="black" points="264,-55.5 264,-96.5 430,-96.5 430,-55.5 264,-55.5"/>
<text text-anchor="start" x="272" y="-84.5" font-family="Helvetica,sans-Serif" font-size="10.00">uxn::patl::impl::trie</text>
<text text-anchor="start" x="272" y="-73.5" font-family="Helvetica,sans-Serif" font-size="10.00">_generic_traits&lt; T, Node,</text>
<text text-anchor="middle" x="347" y="-62.5" font-family="Helvetica,sans-Serif" font-size="10.00"> Algorithm, Prefix, Container &gt;</text>
</a>
</g>
</g>
<!-- Node1&#45;&gt;Node2 -->
<g id="edge2" class="edge">
<title>Node1&#45;&gt;Node2</title>
<path fill="none" stroke="midnightblue" d="M226.77,-76C238.95,-76 251.55,-76 263.8,-76"/>
<polygon fill="midnightblue" stroke="midnightblue" points="226.65,-72.5 216.65,-76 226.65,-79.5 226.65,-72.5"/>
</g>
</g>
</svg>
