<?xml version="1.0" encoding="UTF-8" standalone="no"?>
<!DOCTYPE svg PUBLIC "-//W3C//DTD SVG 1.1//EN"
 "http://www.w3.org/Graphics/SVG/1.1/DTD/svg11.dtd">
<!-- Generated by graphviz version 5.0.1 (20220820.1526)
 -->
<!-- Title: Graphical Class Hierarchy Pages: 1 -->
<svg width="378pt" height="100pt"
 viewBox="0.00 0.00 378.00 99.50" xmlns="http://www.w3.org/2000/svg" xmlns:xlink="http://www.w3.org/1999/xlink">
<g id="graph0" class="graph" transform="scale(1 1) rotate(0) translate(4 95.5)">
<title>Graphical Class Hierarchy</title>
<!-- Node0 -->
<g id="node1" class="node">
<title>Node0</title>
<g id="a_node1"><a xlink:href="d6/d28/classuxn_1_1patl_1_1impl_1_1partial__base.html" target="_top" xlink:title=" ">
<polygon fill="none" stroke="black" points="0,-27.5 0,-57.5 145,-57.5 145,-27.5 0,-27.5"/>
<text text-anchor="start" x="8" y="-45.5" font-family="Helvetica,sans-Serif" font-size="10.00">uxn::patl::impl::partial</text>
<text text-anchor="middle" x="72.5" y="-34.5" font-family="Helvetica,sans-Serif" font-size="10.00">_base&lt; Container, false &gt;</text>
</a>
</g>
</g>
<!-- Node1 -->
<g id="node2" class="node">
<title>Node1</title>
<g id="a_node2"><a xlink:href="d1/df9/classuxn_1_1patl_1_1hamming__distance.html" target="_top" xlink:title="Hamming distance decision functor.">
<polygon fill="none" stroke="black" points="213,-50 213,-91 338,-91 338,-50 213,-50"/>
<text text-anchor="start" x="221" y="-79" font-family="Helvetica,sans-Serif" font-size="10.00">uxn::patl::hamming</text>
<text text-anchor="start" x="221" y="-68" font-family="Helvetica,sans-Serif" font-size="10.00">_distance&lt; Container,</text>
<text text-anchor="middle" x="275.5" y="-57" font-family="Helvetica,sans-Serif" font-size="10.00"> SameLength &gt;</text>
</a>
</g>
</g>
<!-- Node0&#45;&gt;Node1 -->
<g id="edge1" class="edge">
<title>Node0&#45;&gt;Node1</title>
<path fill="none" stroke="midnightblue" d="M155.17,-53.88C174.41,-56.56 194.61,-59.37 212.8,-61.9"/>
<polygon fill="midnightblue" stroke="midnightblue" points="155.6,-50.4 145.21,-52.49 154.64,-57.34 155.6,-50.4"/>
</g>
<!-- Node2 -->
<g id="node3" class="node">
<title>Node2</title>
<g id="a_node3"><a xlink:href="d8/d38/classuxn_1_1patl_1_1partial__match.html" target="_top" xlink:title=" ">
<polygon fill="none" stroke="black" points="181,-0.5 181,-30.5 370,-30.5 370,-0.5 181,-0.5"/>
<text text-anchor="start" x="189" y="-18.5" font-family="Helvetica,sans-Serif" font-size="10.00">uxn::patl::partial</text>
<text text-anchor="middle" x="275.5" y="-7.5" font-family="Helvetica,sans-Serif" font-size="10.00">_match&lt; Container, SameLength &gt;</text>
</a>
</g>
</g>
<!-- Node0&#45;&gt;Node2 -->
<g id="edge2" class="edge">
<title>Node0&#45;&gt;Node2</title>
<path fill="none" stroke="midnightblue" d="M155.31,-31.51C163.67,-30.39 172.21,-29.24 180.69,-28.1"/>
<polygon fill="midnightblue" stroke="midnightblue" points="154.66,-28.07 145.21,-32.87 155.59,-35 154.66,-28.07"/>
</g>
</g>
</svg>
