<?xml version="1.0" encoding="UTF-8" standalone="no"?>
<!DOCTYPE svg PUBLIC "-//W3C//DTD SVG 1.1//EN"
 "http://www.w3.org/Graphics/SVG/1.1/DTD/svg11.dtd">
<!-- Generated by graphviz version 5.0.1 (20220820.1526)
 -->
<!-- Title: Graphical Class Hierarchy Pages: 1 -->
<svg width="340pt" height="116pt"
 viewBox="0.00 0.00 340.00 116.00" xmlns="http://www.w3.org/2000/svg" xmlns:xlink="http://www.w3.org/1999/xlink">
<g id="graph0" class="graph" transform="scale(1 1) rotate(0) translate(4 112)">
<title>Graphical Class Hierarchy</title>
<!-- Node0 -->
<g id="node1" class="node">
<title>Node0</title>
<g id="a_node1"><a xlink:title=" ">
<polygon fill="none" stroke="#bfbfbf" points="0,-44.5 0,-63.5 145,-63.5 145,-44.5 0,-44.5"/>
<text text-anchor="middle" x="72.5" y="-51.5" font-family="Helvetica,sans-Serif" font-size="10.00">patl::impl::generator_base</text>
</a>
</g>
</g>
<!-- Node1 -->
<g id="node2" class="node">
<title>Node1</title>
<g id="a_node2"><a xlink:href="d5/d07/classstrings__from__file__generator.html" target="_top" xlink:title=" ">
<polygon fill="none" stroke="black" points="181,-88.5 181,-107.5 332,-107.5 332,-88.5 181,-88.5"/>
<text text-anchor="middle" x="256.5" y="-95.5" font-family="Helvetica,sans-Serif" font-size="10.00">strings_from_file_generator</text>
</a>
</g>
</g>
<!-- Node0&#45;&gt;Node1 -->
<g id="edge1" class="edge">
<title>Node0&#45;&gt;Node1</title>
<path fill="none" stroke="midnightblue" d="M123.01,-65.97C152.26,-73.04 188.8,-81.87 216.09,-88.47"/>
<polygon fill="midnightblue" stroke="midnightblue" points="123.53,-62.5 112.99,-63.55 121.89,-69.3 123.53,-62.5"/>
</g>
<!-- Node2 -->
<g id="node3" class="node">
<title>Node2</title>
<g id="a_node3"><a xlink:href="de/d34/classstrings__from__merged__files__generator.html" target="_top" xlink:title=" ">
<polygon fill="none" stroke="black" points="196,-39 196,-69 317,-69 317,-39 196,-39"/>
<text text-anchor="start" x="204" y="-57" font-family="Helvetica,sans-Serif" font-size="10.00">strings_from_merged</text>
<text text-anchor="middle" x="256.5" y="-46" font-family="Helvetica,sans-Serif" font-size="10.00">_files_generator</text>
</a>
</g>
</g>
<!-- Node0&#45;&gt;Node2 -->
<g id="edge2" class="edge">
<title>Node0&#45;&gt;Node2</title>
<path fill="none" stroke="midnightblue" d="M155.51,-54C169.12,-54 183.01,-54 195.93,-54"/>
<polygon fill="midnightblue" stroke="midnightblue" points="155.17,-50.5 145.17,-54 155.17,-57.5 155.17,-50.5"/>
</g>
<!-- Node3 -->
<g id="node4" class="node">
<title>Node3</title>
<g id="a_node4"><a xlink:href="d8/d8a/classtmp__sorted__files__generator.html" target="_top" xlink:title=" ">
<polygon fill="none" stroke="black" points="181.5,-0.5 181.5,-19.5 331.5,-19.5 331.5,-0.5 181.5,-0.5"/>
<text text-anchor="middle" x="256.5" y="-7.5" font-family="Helvetica,sans-Serif" font-size="10.00">tmp_sorted_files_generator</text>
</a>
</g>
</g>
<!-- Node0&#45;&gt;Node3 -->
<g id="edge3" class="edge">
<title>Node0&#45;&gt;Node3</title>
<path fill="none" stroke="midnightblue" d="M123.01,-42.03C152.26,-34.96 188.8,-26.13 216.09,-19.53"/>
<polygon fill="midnightblue" stroke="midnightblue" points="121.89,-38.7 112.99,-44.45 123.53,-45.5 121.89,-38.7"/>
</g>
</g>
</svg>
