<?xml version="1.0" encoding="UTF-8" standalone="no"?>
<!DOCTYPE svg PUBLIC "-//W3C//DTD SVG 1.1//EN"
 "http://www.w3.org/Graphics/SVG/1.1/DTD/svg11.dtd">
<!-- Generated by graphviz version 5.0.1 (20220820.1526)
 -->
<!-- Title: Graphical Class Hierarchy Pages: 1 -->
<svg width="618pt" height="253pt"
 viewBox="0.00 0.00 618.00 253.00" xmlns="http://www.w3.org/2000/svg" xmlns:xlink="http://www.w3.org/1999/xlink">
<g id="graph0" class="graph" transform="scale(1 1) rotate(0) translate(4 249)">
<title>Graphical Class Hierarchy</title>
<!-- Node0 -->
<g id="node1" class="node">
<title>Node0</title>
<g id="a_node1"><a xlink:href="d6/d28/classuxn_1_1patl_1_1impl_1_1partial__base.html" target="_top" xlink:title=" ">
<polygon fill="none" stroke="black" points="0,-107 0,-137 182,-137 182,-107 0,-107"/>
<text text-anchor="start" x="8" y="-125" font-family="Helvetica,sans-Serif" font-size="10.00">uxn::patl::impl::partial</text>
<text text-anchor="middle" x="91" y="-114" font-family="Helvetica,sans-Serif" font-size="10.00">_base&lt; Container, SameLength &gt;</text>
</a>
</g>
</g>
<!-- Node1 -->
<g id="node2" class="node">
<title>Node1</title>
<g id="a_node2"><a xlink:href="d9/db8/classuxn_1_1patl_1_1impl_1_1levenshtein__generic.html" target="_top" xlink:title=" ">
<polygon fill="none" stroke="black" points="218,-203.5 218,-244.5 429,-244.5 429,-203.5 218,-203.5"/>
<text text-anchor="start" x="226" y="-232.5" font-family="Helvetica,sans-Serif" font-size="10.00">uxn::patl::impl::levenshtein</text>
<text text-anchor="start" x="226" y="-221.5" font-family="Helvetica,sans-Serif" font-size="10.00">_generic&lt; levenshtein_distance</text>
<text text-anchor="middle" x="323.5" y="-210.5" font-family="Helvetica,sans-Serif" font-size="10.00">&lt; Container, false &gt;, Container, false &gt;</text>
</a>
</g>
</g>
<!-- Node0&#45;&gt;Node1 -->
<g id="edge1" class="edge">
<title>Node0&#45;&gt;Node1</title>
<path fill="none" stroke="midnightblue" d="M123.45,-142.8C148.3,-158.53 184.3,-179.78 218,-194 226.09,-197.41 234.68,-200.58 243.34,-203.47"/>
<polygon fill="midnightblue" stroke="midnightblue" points="125.13,-139.72 114.82,-137.28 121.36,-145.62 125.13,-139.72"/>
</g>
<!-- Node3 -->
<g id="node4" class="node">
<title>Node3</title>
<g id="a_node4"><a xlink:href="d9/db8/classuxn_1_1patl_1_1impl_1_1levenshtein__generic.html" target="_top" xlink:title=" ">
<polygon fill="none" stroke="black" points="247.5,-132 247.5,-184 399.5,-184 399.5,-132 247.5,-132"/>
<text text-anchor="start" x="255.5" y="-172" font-family="Helvetica,sans-Serif" font-size="10.00">uxn::patl::impl::levenshtein</text>
<text text-anchor="start" x="255.5" y="-161" font-family="Helvetica,sans-Serif" font-size="10.00">_generic&lt; levenshtein_ms</text>
<text text-anchor="start" x="255.5" y="-150" font-family="Helvetica,sans-Serif" font-size="10.00">_distance&lt; Container, false</text>
<text text-anchor="middle" x="323.5" y="-139" font-family="Helvetica,sans-Serif" font-size="10.00"> &gt;, Container, false &gt;</text>
</a>
</g>
</g>
<!-- Node0&#45;&gt;Node3 -->
<g id="edge3" class="edge">
<title>Node0&#45;&gt;Node3</title>
<path fill="none" stroke="midnightblue" d="M192.05,-137.63C210.61,-140.52 229.7,-143.51 247.36,-146.26"/>
<polygon fill="midnightblue" stroke="midnightblue" points="192.53,-134.16 182.11,-136.07 191.45,-141.07 192.53,-134.16"/>
</g>
<!-- Node5 -->
<g id="node6" class="node">
<title>Node5</title>
<g id="a_node6"><a xlink:href="d9/db8/classuxn_1_1patl_1_1impl_1_1levenshtein__generic.html" target="_top" xlink:title=" ">
<polygon fill="none" stroke="black" points="247.5,-61 247.5,-113 399.5,-113 399.5,-61 247.5,-61"/>
<text text-anchor="start" x="255.5" y="-101" font-family="Helvetica,sans-Serif" font-size="10.00">uxn::patl::impl::levenshtein</text>
<text text-anchor="start" x="255.5" y="-90" font-family="Helvetica,sans-Serif" font-size="10.00">_generic&lt; levenshtein_tp</text>
<text text-anchor="start" x="255.5" y="-79" font-family="Helvetica,sans-Serif" font-size="10.00">_distance&lt; Container, false</text>
<text text-anchor="middle" x="323.5" y="-68" font-family="Helvetica,sans-Serif" font-size="10.00"> &gt;, Container, false &gt;</text>
</a>
</g>
</g>
<!-- Node0&#45;&gt;Node5 -->
<g id="edge5" class="edge">
<title>Node0&#45;&gt;Node5</title>
<path fill="none" stroke="midnightblue" d="M192.05,-106.81C210.61,-103.99 229.7,-101.09 247.36,-98.41"/>
<polygon fill="midnightblue" stroke="midnightblue" points="191.47,-103.36 182.11,-108.32 192.52,-110.28 191.47,-103.36"/>
</g>
<!-- Node7 -->
<g id="node8" class="node">
<title>Node7</title>
<g id="a_node8"><a xlink:href="d9/db8/classuxn_1_1patl_1_1impl_1_1levenshtein__generic.html" target="_top" xlink:title=" ">
<polygon fill="none" stroke="black" points="248.5,-0.5 248.5,-41.5 398.5,-41.5 398.5,-0.5 248.5,-0.5"/>
<text text-anchor="start" x="256.5" y="-29.5" font-family="Helvetica,sans-Serif" font-size="10.00">uxn::patl::impl::levenshtein</text>
<text text-anchor="start" x="256.5" y="-18.5" font-family="Helvetica,sans-Serif" font-size="10.00">_generic&lt; This, Container,</text>
<text text-anchor="middle" x="323.5" y="-7.5" font-family="Helvetica,sans-Serif" font-size="10.00"> SameLength &gt;</text>
</a>
</g>
</g>
<!-- Node0&#45;&gt;Node7 -->
<g id="edge7" class="edge">
<title>Node0&#45;&gt;Node7</title>
<path fill="none" stroke="midnightblue" d="M123.49,-101.51C148.37,-86.02 184.37,-65.07 218,-51 227.66,-46.96 238.05,-43.26 248.39,-39.94"/>
<polygon fill="midnightblue" stroke="midnightblue" points="121.45,-98.66 114.86,-106.95 125.18,-104.58 121.45,-98.66"/>
</g>
<!-- Node2 -->
<g id="node3" class="node">
<title>Node2</title>
<g id="a_node3"><a xlink:href="d8/dfe/classuxn_1_1patl_1_1levenshtein__distance.html" target="_top" xlink:title=" ">
<polygon fill="none" stroke="black" points="475,-203.5 475,-244.5 600,-244.5 600,-203.5 475,-203.5"/>
<text text-anchor="start" x="483" y="-232.5" font-family="Helvetica,sans-Serif" font-size="10.00">uxn::patl::levenshtein</text>
<text text-anchor="start" x="483" y="-221.5" font-family="Helvetica,sans-Serif" font-size="10.00">_distance&lt; Container,</text>
<text text-anchor="middle" x="537.5" y="-210.5" font-family="Helvetica,sans-Serif" font-size="10.00"> SameLength &gt;</text>
</a>
</g>
</g>
<!-- Node1&#45;&gt;Node2 -->
<g id="edge2" class="edge">
<title>Node1&#45;&gt;Node2</title>
<path fill="none" stroke="midnightblue" d="M439.52,-224C451.7,-224 463.73,-224 474.95,-224"/>
<polygon fill="midnightblue" stroke="midnightblue" points="439.26,-220.5 429.26,-224 439.26,-227.5 439.26,-220.5"/>
</g>
<!-- Node4 -->
<g id="node5" class="node">
<title>Node4</title>
<g id="a_node5"><a xlink:href="d7/d2a/classuxn_1_1patl_1_1levenshtein__ms__distance.html" target="_top" xlink:title="Levenshtein distance with merges and splits decision functor.">
<polygon fill="none" stroke="black" points="465,-137.5 465,-178.5 610,-178.5 610,-137.5 465,-137.5"/>
<text text-anchor="start" x="473" y="-166.5" font-family="Helvetica,sans-Serif" font-size="10.00">uxn::patl::levenshtein</text>
<text text-anchor="start" x="473" y="-155.5" font-family="Helvetica,sans-Serif" font-size="10.00">_ms_distance&lt; Container,</text>
<text text-anchor="middle" x="537.5" y="-144.5" font-family="Helvetica,sans-Serif" font-size="10.00"> SameLength &gt;</text>
</a>
</g>
</g>
<!-- Node3&#45;&gt;Node4 -->
<g id="edge4" class="edge">
<title>Node3&#45;&gt;Node4</title>
<path fill="none" stroke="midnightblue" d="M409.6,-158C427.89,-158 447.04,-158 464.76,-158"/>
<polygon fill="midnightblue" stroke="midnightblue" points="409.54,-154.5 399.54,-158 409.54,-161.5 409.54,-154.5"/>
</g>
<!-- Node6 -->
<g id="node7" class="node">
<title>Node6</title>
<g id="a_node7"><a xlink:href="d5/dbf/classuxn_1_1patl_1_1levenshtein__tp__distance.html" target="_top" xlink:title="Levenshtein distance with transpositions decision functor.">
<polygon fill="none" stroke="black" points="467.5,-66.5 467.5,-107.5 607.5,-107.5 607.5,-66.5 467.5,-66.5"/>
<text text-anchor="start" x="475.5" y="-95.5" font-family="Helvetica,sans-Serif" font-size="10.00">uxn::patl::levenshtein</text>
<text text-anchor="start" x="475.5" y="-84.5" font-family="Helvetica,sans-Serif" font-size="10.00">_tp_distance&lt; Container,</text>
<text text-anchor="middle" x="537.5" y="-73.5" font-family="Helvetica,sans-Serif" font-size="10.00"> SameLength &gt;</text>
</a>
</g>
</g>
<!-- Node5&#45;&gt;Node6 -->
<g id="edge6" class="edge">
<title>Node5&#45;&gt;Node6</title>
<path fill="none" stroke="midnightblue" d="M409.73,-87C428.83,-87 448.87,-87 467.23,-87"/>
<polygon fill="midnightblue" stroke="midnightblue" points="409.54,-83.5 399.54,-87 409.54,-90.5 409.54,-83.5"/>
</g>
</g>
</svg>
