<?xml version="1.0" encoding="UTF-8" standalone="no"?>
<!DOCTYPE svg PUBLIC "-//W3C//DTD SVG 1.1//EN"
 "http://www.w3.org/Graphics/SVG/1.1/DTD/svg11.dtd">
<!-- Generated by graphviz version 5.0.1 (20220820.1526)
 -->
<!-- Title: Graphical Class Hierarchy Pages: 1 -->
<svg width="666pt" height="498pt"
 viewBox="0.00 0.00 666.00 497.50" xmlns="http://www.w3.org/2000/svg" xmlns:xlink="http://www.w3.org/1999/xlink">
<g id="graph0" class="graph" transform="scale(1 1) rotate(0) translate(4 493.5)">
<title>Graphical Class Hierarchy</title>
<!-- Node0 -->
<g id="node1" class="node">
<title>Node0</title>
<g id="a_node1"><a xlink:title=" ">
<polygon fill="none" stroke="#bfbfbf" points="0,-219 0,-238 74,-238 74,-219 0,-219"/>
<text text-anchor="middle" x="37" y="-226" font-family="Helvetica,sans-Serif" font-size="10.00">std::iterator</text>
</a>
</g>
</g>
<!-- Node1 -->
<g id="node2" class="node">
<title>Node1</title>
<g id="a_node2"><a xlink:href="da/dd2/classuxn_1_1patl_1_1impl_1_1const__partimator__generic.html" target="_top" xlink:title=" ">
<polygon fill="none" stroke="black" points="111.5,-448 111.5,-489 275.5,-489 275.5,-448 111.5,-448"/>
<text text-anchor="start" x="119.5" y="-477" font-family="Helvetica,sans-Serif" font-size="10.00">uxn::patl::impl::const</text>
<text text-anchor="start" x="119.5" y="-466" font-family="Helvetica,sans-Serif" font-size="10.00">_partimator_generic&lt; const</text>
<text text-anchor="middle" x="193.5" y="-455" font-family="Helvetica,sans-Serif" font-size="10.00">_preorder_iterator, Decision &gt;</text>
</a>
</g>
</g>
<!-- Node0&#45;&gt;Node1 -->
<g id="edge1" class="edge">
<title>Node0&#45;&gt;Node1</title>
<path fill="none" stroke="midnightblue" d="M39.26,-248.49C42.91,-289.63 56.94,-384.45 110,-438.5 113.42,-441.98 117.27,-445.06 121.39,-447.78"/>
<polygon fill="midnightblue" stroke="midnightblue" points="42.74,-248.09 38.48,-238.38 35.76,-248.62 42.74,-248.09"/>
</g>
<!-- Node3 -->
<g id="node4" class="node">
<title>Node3</title>
<g id="a_node4"><a xlink:href="da/dd2/classuxn_1_1patl_1_1impl_1_1const__partimator__generic.html" target="_top" xlink:title=" ">
<polygon fill="none" stroke="black" points="110,-388 110,-429 277,-429 277,-388 110,-388"/>
<text text-anchor="start" x="118" y="-417" font-family="Helvetica,sans-Serif" font-size="10.00">uxn::patl::impl::const</text>
<text text-anchor="start" x="118" y="-406" font-family="Helvetica,sans-Serif" font-size="10.00">_partimator_generic&lt; preorder</text>
<text text-anchor="middle" x="193.5" y="-395" font-family="Helvetica,sans-Serif" font-size="10.00">_iterator, Decision &gt;</text>
</a>
</g>
</g>
<!-- Node0&#45;&gt;Node3 -->
<g id="edge3" class="edge">
<title>Node0&#45;&gt;Node3</title>
<path fill="none" stroke="midnightblue" d="M42.27,-247.89C50.2,-279.55 70.17,-342.42 110,-378.5 113.84,-381.98 118.12,-385.06 122.64,-387.8"/>
<polygon fill="midnightblue" stroke="midnightblue" points="45.66,-247.01 39.95,-238.09 38.84,-248.63 45.66,-247.01"/>
</g>
<!-- Node6 -->
<g id="node7" class="node">
<title>Node6</title>
<g id="a_node7"><a xlink:href="d6/d5d/classuxn_1_1patl_1_1impl_1_1const__iterator__generic.html" target="_top" xlink:title=" ">
<polygon fill="none" stroke="black" points="115,-328 115,-369 272,-369 272,-328 115,-328"/>
<text text-anchor="start" x="123" y="-357" font-family="Helvetica,sans-Serif" font-size="10.00">uxn::patl::impl::const</text>
<text text-anchor="start" x="123" y="-346" font-family="Helvetica,sans-Serif" font-size="10.00">_iterator_generic&lt; Postorder</text>
<text text-anchor="middle" x="193.5" y="-335" font-family="Helvetica,sans-Serif" font-size="10.00">Iter &gt;</text>
</a>
</g>
</g>
<!-- Node0&#45;&gt;Node6 -->
<g id="edge6" class="edge">
<title>Node0&#45;&gt;Node6</title>
<path fill="none" stroke="midnightblue" d="M48.46,-246.92C60.79,-267.1 83.04,-299.15 110,-318.5 114.83,-321.97 120.1,-325.07 125.57,-327.85"/>
<polygon fill="midnightblue" stroke="midnightblue" points="51.34,-244.9 43.23,-238.08 45.31,-248.47 51.34,-244.9"/>
</g>
<!-- Node8 -->
<g id="node9" class="node">
<title>Node8</title>
<g id="a_node9"><a xlink:href="da/dd2/classuxn_1_1patl_1_1impl_1_1const__partimator__generic.html" target="_top" xlink:title=" ">
<polygon fill="none" stroke="black" points="110,-268 110,-309 277,-309 277,-268 110,-268"/>
<text text-anchor="start" x="118" y="-297" font-family="Helvetica,sans-Serif" font-size="10.00">uxn::patl::impl::const</text>
<text text-anchor="start" x="118" y="-286" font-family="Helvetica,sans-Serif" font-size="10.00">_partimator_generic&lt; Preorder</text>
<text text-anchor="middle" x="193.5" y="-275" font-family="Helvetica,sans-Serif" font-size="10.00">Iter, Decision &gt;</text>
</a>
</g>
</g>
<!-- Node0&#45;&gt;Node8 -->
<g id="edge8" class="edge">
<title>Node0&#45;&gt;Node8</title>
<path fill="none" stroke="midnightblue" d="M69.79,-242.12C82.27,-247.37 96.76,-253.34 110,-258.5 117.95,-261.6 126.37,-264.78 134.68,-267.86"/>
<polygon fill="midnightblue" stroke="midnightblue" points="70.84,-238.76 60.27,-238.09 68.12,-245.21 70.84,-238.76"/>
</g>
<!-- Node10 -->
<g id="node11" class="node">
<title>Node10</title>
<g id="a_node11"><a xlink:href="d7/d68/classuxn_1_1patl_1_1impl_1_1const__postorder__iterator__generic.html" target="_top" xlink:title=" ">
<polygon fill="none" stroke="black" points="118,-208 118,-249 269,-249 269,-208 118,-208"/>
<text text-anchor="start" x="126" y="-237" font-family="Helvetica,sans-Serif" font-size="10.00">uxn::patl::impl::const</text>
<text text-anchor="start" x="126" y="-226" font-family="Helvetica,sans-Serif" font-size="10.00">_postorder_iterator_generic</text>
<text text-anchor="middle" x="193.5" y="-215" font-family="Helvetica,sans-Serif" font-size="10.00">&lt; Vertex &gt;</text>
</a>
</g>
</g>
<!-- Node0&#45;&gt;Node10 -->
<g id="edge10" class="edge">
<title>Node0&#45;&gt;Node10</title>
<path fill="none" stroke="midnightblue" d="M84.44,-228.5C94.99,-228.5 106.47,-228.5 117.86,-228.5"/>
<polygon fill="midnightblue" stroke="midnightblue" points="84.22,-225 74.22,-228.5 84.22,-232 84.22,-225"/>
</g>
<!-- Node12 -->
<g id="node13" class="node">
<title>Node12</title>
<g id="a_node13"><a xlink:href="df/dd4/classuxn_1_1patl_1_1impl_1_1const__preorder__iterator__generic.html" target="_top" xlink:title=" ">
<polygon fill="none" stroke="black" points="120.5,-148 120.5,-189 266.5,-189 266.5,-148 120.5,-148"/>
<text text-anchor="start" x="128.5" y="-177" font-family="Helvetica,sans-Serif" font-size="10.00">uxn::patl::impl::const</text>
<text text-anchor="start" x="128.5" y="-166" font-family="Helvetica,sans-Serif" font-size="10.00">_preorder_iterator_generic</text>
<text text-anchor="middle" x="193.5" y="-155" font-family="Helvetica,sans-Serif" font-size="10.00">&lt; Vertex &gt;</text>
</a>
</g>
</g>
<!-- Node0&#45;&gt;Node12 -->
<g id="edge12" class="edge">
<title>Node0&#45;&gt;Node12</title>
<path fill="none" stroke="midnightblue" d="M69.79,-214.88C82.27,-209.63 96.76,-203.66 110,-198.5 117.95,-195.4 126.37,-192.22 134.68,-189.14"/>
<polygon fill="midnightblue" stroke="midnightblue" points="68.12,-211.79 60.27,-218.91 70.84,-218.24 68.12,-211.79"/>
</g>
<!-- Node14 -->
<g id="node15" class="node">
<title>Node14</title>
<g id="a_node15"><a xlink:href="dc/d4b/classuxn_1_1patl_1_1impl_1_1suffix__generic_1_1match__iterator.html" target="_top" xlink:title=" ">
<polygon fill="none" stroke="black" points="111.5,-98.5 111.5,-128.5 275.5,-128.5 275.5,-98.5 111.5,-98.5"/>
<text text-anchor="start" x="119.5" y="-116.5" font-family="Helvetica,sans-Serif" font-size="10.00">uxn::patl::impl::suffix</text>
<text text-anchor="middle" x="193.5" y="-105.5" font-family="Helvetica,sans-Serif" font-size="10.00">_generic&lt; T &gt;::match_iterator</text>
</a>
</g>
</g>
<!-- Node0&#45;&gt;Node14 -->
<g id="edge14" class="edge">
<title>Node0&#45;&gt;Node14</title>
<path fill="none" stroke="midnightblue" d="M48.11,-210.08C60.22,-189.67 82.39,-157.19 110,-138.5 115.7,-134.64 122.02,-131.36 128.54,-128.58"/>
<polygon fill="midnightblue" stroke="midnightblue" points="45.07,-208.35 43.13,-218.76 51.14,-211.83 45.07,-208.35"/>
</g>
<!-- Node15 -->
<g id="node16" class="node">
<title>Node15</title>
<g id="a_node16"><a xlink:href="d6/d48/classuxn_1_1patl_1_1maxrep__iterator.html" target="_top" xlink:title=" ">
<polygon fill="none" stroke="black" points="121.5,-49.5 121.5,-79.5 265.5,-79.5 265.5,-49.5 121.5,-49.5"/>
<text text-anchor="start" x="129.5" y="-67.5" font-family="Helvetica,sans-Serif" font-size="10.00">uxn::patl::maxrep_iterator</text>
<text text-anchor="middle" x="193.5" y="-56.5" font-family="Helvetica,sans-Serif" font-size="10.00">&lt; Container &gt;</text>
</a>
</g>
</g>
<!-- Node0&#45;&gt;Node15 -->
<g id="edge15" class="edge">
<title>Node0&#45;&gt;Node15</title>
<path fill="none" stroke="midnightblue" d="M42.75,-208.83C51.09,-178.48 71.31,-120.4 110,-88.5 114.14,-85.08 118.75,-82.15 123.62,-79.64"/>
<polygon fill="midnightblue" stroke="midnightblue" points="39.32,-208.1 40.2,-218.66 46.1,-209.86 39.32,-208.1"/>
</g>
<!-- Node16 -->
<g id="node17" class="node">
<title>Node16</title>
<g id="a_node17"><a xlink:href="d5/d4f/classuxn_1_1patl_1_1super__maxrep__iterator.html" target="_top" xlink:title=" ">
<polygon fill="none" stroke="black" points="126,-0.5 126,-30.5 261,-30.5 261,-0.5 126,-0.5"/>
<text text-anchor="start" x="134" y="-18.5" font-family="Helvetica,sans-Serif" font-size="10.00">uxn::patl::super_maxrep</text>
<text text-anchor="middle" x="193.5" y="-7.5" font-family="Helvetica,sans-Serif" font-size="10.00">_iterator&lt; Container &gt;</text>
</a>
</g>
</g>
<!-- Node0&#45;&gt;Node16 -->
<g id="edge16" class="edge">
<title>Node0&#45;&gt;Node16</title>
<path fill="none" stroke="midnightblue" d="M39.88,-208.16C44.55,-169.56 60.17,-85.45 110,-39.5 114.72,-35.15 120.17,-31.59 125.99,-28.67"/>
<polygon fill="midnightblue" stroke="midnightblue" points="36.35,-208.27 38.76,-218.59 43.31,-209.02 36.35,-208.27"/>
</g>
<!-- Node2 -->
<g id="node3" class="node">
<title>Node2</title>
<g id="a_node3"><a xlink:href="d4/da9/classuxn_1_1patl_1_1impl_1_1assoc__generic_3_01This_00_01T_00_010_01_4_1_1const__partimator.html" target="_top" xlink:title=" ">
<polygon fill="none" stroke="black" points="313,-448 313,-489 483,-489 483,-448 313,-448"/>
<text text-anchor="start" x="321" y="-477" font-family="Helvetica,sans-Serif" font-size="10.00">uxn::patl::impl::assoc</text>
<text text-anchor="start" x="321" y="-466" font-family="Helvetica,sans-Serif" font-size="10.00">_generic&lt; This, T, 0 &gt;</text>
<text text-anchor="middle" x="398" y="-455" font-family="Helvetica,sans-Serif" font-size="10.00">::const_partimator&lt; Decision &gt;</text>
</a>
</g>
</g>
<!-- Node1&#45;&gt;Node2 -->
<g id="edge2" class="edge">
<title>Node1&#45;&gt;Node2</title>
<path fill="none" stroke="midnightblue" d="M285.79,-468.5C294.79,-468.5 303.89,-468.5 312.81,-468.5"/>
<polygon fill="midnightblue" stroke="midnightblue" points="285.7,-465 275.7,-468.5 285.7,-472 285.7,-465"/>
</g>
<!-- Node4 -->
<g id="node5" class="node">
<title>Node4</title>
<g id="a_node5"><a xlink:href="db/d63/classuxn_1_1patl_1_1impl_1_1partimator__generic.html" target="_top" xlink:title=" ">
<polygon fill="none" stroke="black" points="320.5,-388 320.5,-429 475.5,-429 475.5,-388 320.5,-388"/>
<text text-anchor="start" x="328.5" y="-417" font-family="Helvetica,sans-Serif" font-size="10.00">uxn::patl::impl::partimator</text>
<text text-anchor="start" x="328.5" y="-406" font-family="Helvetica,sans-Serif" font-size="10.00">_generic&lt; preorder_iterator,</text>
<text text-anchor="middle" x="398" y="-395" font-family="Helvetica,sans-Serif" font-size="10.00"> Decision &gt;</text>
</a>
</g>
</g>
<!-- Node3&#45;&gt;Node4 -->
<g id="edge4" class="edge">
<title>Node3&#45;&gt;Node4</title>
<path fill="none" stroke="midnightblue" d="M287.3,-408.5C298.4,-408.5 309.64,-408.5 320.48,-408.5"/>
<polygon fill="midnightblue" stroke="midnightblue" points="287.16,-405 277.16,-408.5 287.16,-412 287.16,-405"/>
</g>
<!-- Node5 -->
<g id="node6" class="node">
<title>Node5</title>
<g id="a_node6"><a xlink:href="d3/dd4/classuxn_1_1patl_1_1impl_1_1assoc__generic_3_01This_00_01T_00_010_01_4_1_1partimator.html" target="_top" xlink:title=" ">
<polygon fill="none" stroke="black" points="519,-388 519,-429 658,-429 658,-388 519,-388"/>
<text text-anchor="start" x="527" y="-417" font-family="Helvetica,sans-Serif" font-size="10.00">uxn::patl::impl::assoc</text>
<text text-anchor="start" x="527" y="-406" font-family="Helvetica,sans-Serif" font-size="10.00">_generic&lt; This, T, 0 &gt;</text>
<text text-anchor="middle" x="588.5" y="-395" font-family="Helvetica,sans-Serif" font-size="10.00">::partimator&lt; Decision &gt;</text>
</a>
</g>
</g>
<!-- Node4&#45;&gt;Node5 -->
<g id="edge5" class="edge">
<title>Node4&#45;&gt;Node5</title>
<path fill="none" stroke="midnightblue" d="M485.78,-408.5C496.85,-408.5 508.05,-408.5 518.78,-408.5"/>
<polygon fill="midnightblue" stroke="midnightblue" points="485.67,-405 475.67,-408.5 485.67,-412 485.67,-405"/>
</g>
<!-- Node7 -->
<g id="node8" class="node">
<title>Node7</title>
<g id="a_node8"><a xlink:href="db/d6f/classuxn_1_1patl_1_1impl_1_1iterator__generic.html" target="_top" xlink:title=" ">
<polygon fill="none" stroke="black" points="326.5,-333.5 326.5,-363.5 469.5,-363.5 469.5,-333.5 326.5,-333.5"/>
<text text-anchor="start" x="334.5" y="-351.5" font-family="Helvetica,sans-Serif" font-size="10.00">uxn::patl::impl::iterator</text>
<text text-anchor="middle" x="398" y="-340.5" font-family="Helvetica,sans-Serif" font-size="10.00">_generic&lt; PostorderIter &gt;</text>
</a>
</g>
</g>
<!-- Node6&#45;&gt;Node7 -->
<g id="edge7" class="edge">
<title>Node6&#45;&gt;Node7</title>
<path fill="none" stroke="midnightblue" d="M282.34,-348.5C297.09,-348.5 312.22,-348.5 326.46,-348.5"/>
<polygon fill="midnightblue" stroke="midnightblue" points="282.21,-345 272.21,-348.5 282.21,-352 282.21,-345"/>
</g>
<!-- Node9 -->
<g id="node10" class="node">
<title>Node9</title>
<g id="a_node10"><a xlink:href="db/d63/classuxn_1_1patl_1_1impl_1_1partimator__generic.html" target="_top" xlink:title=" ">
<polygon fill="none" stroke="black" points="325.5,-268 325.5,-309 470.5,-309 470.5,-268 325.5,-268"/>
<text text-anchor="start" x="333.5" y="-297" font-family="Helvetica,sans-Serif" font-size="10.00">uxn::patl::impl::partimator</text>
<text text-anchor="start" x="333.5" y="-286" font-family="Helvetica,sans-Serif" font-size="10.00">_generic&lt; PreorderIter,</text>
<text text-anchor="middle" x="398" y="-275" font-family="Helvetica,sans-Serif" font-size="10.00"> Decision &gt;</text>
</a>
</g>
</g>
<!-- Node8&#45;&gt;Node9 -->
<g id="edge9" class="edge">
<title>Node8&#45;&gt;Node9</title>
<path fill="none" stroke="midnightblue" d="M287.33,-288.5C300.08,-288.5 313.02,-288.5 325.31,-288.5"/>
<polygon fill="midnightblue" stroke="midnightblue" points="287.16,-285 277.16,-288.5 287.16,-292 287.16,-285"/>
</g>
<!-- Node11 -->
<g id="node12" class="node">
<title>Node11</title>
<g id="a_node12"><a xlink:href="d6/d1a/classuxn_1_1patl_1_1impl_1_1postorder__iterator__generic.html" target="_top" xlink:title=" ">
<polygon fill="none" stroke="black" points="321.5,-213.5 321.5,-243.5 474.5,-243.5 474.5,-213.5 321.5,-213.5"/>
<text text-anchor="start" x="329.5" y="-231.5" font-family="Helvetica,sans-Serif" font-size="10.00">uxn::patl::impl::postorder</text>
<text text-anchor="middle" x="398" y="-220.5" font-family="Helvetica,sans-Serif" font-size="10.00">_iterator_generic&lt; Vertex &gt;</text>
</a>
</g>
</g>
<!-- Node10&#45;&gt;Node11 -->
<g id="edge11" class="edge">
<title>Node10&#45;&gt;Node11</title>
<path fill="none" stroke="midnightblue" d="M279.13,-228.5C293.11,-228.5 307.52,-228.5 321.26,-228.5"/>
<polygon fill="midnightblue" stroke="midnightblue" points="279.04,-225 269.04,-228.5 279.04,-232 279.04,-225"/>
</g>
<!-- Node13 -->
<g id="node14" class="node">
<title>Node13</title>
<g id="a_node14"><a xlink:href="d2/d1a/classuxn_1_1patl_1_1impl_1_1preorder__iterator__generic.html" target="_top" xlink:title=" ">
<polygon fill="none" stroke="black" points="321.5,-153.5 321.5,-183.5 474.5,-183.5 474.5,-153.5 321.5,-153.5"/>
<text text-anchor="start" x="329.5" y="-171.5" font-family="Helvetica,sans-Serif" font-size="10.00">uxn::patl::impl::preorder</text>
<text text-anchor="middle" x="398" y="-160.5" font-family="Helvetica,sans-Serif" font-size="10.00">_iterator_generic&lt; Vertex &gt;</text>
</a>
</g>
</g>
<!-- Node12&#45;&gt;Node13 -->
<g id="edge13" class="edge">
<title>Node12&#45;&gt;Node13</title>
<path fill="none" stroke="midnightblue" d="M276.84,-168.5C291.56,-168.5 306.83,-168.5 321.36,-168.5"/>
<polygon fill="midnightblue" stroke="midnightblue" points="276.75,-165 266.75,-168.5 276.75,-172 276.75,-165"/>
</g>
</g>
</svg>
