<?xml version="1.0" encoding="UTF-8" standalone="no"?>
<!DOCTYPE svg PUBLIC "-//W3C//DTD SVG 1.1//EN"
 "http://www.w3.org/Graphics/SVG/1.1/DTD/svg11.dtd">
<!-- Generated by graphviz version 5.0.1 (20220820.1526)
 -->
<!-- Title: strings_from_merged_files_generator::push_front Pages: 1 -->
<svg width="383pt" height="39pt"
 viewBox="0.00 0.00 383.00 39.00" xmlns="http://www.w3.org/2000/svg" xmlns:xlink="http://www.w3.org/1999/xlink">
<g id="graph0" class="graph" transform="scale(1 1) rotate(0) translate(4 35)">
<title>strings_from_merged_files_generator::push_front</title>
<!-- Node1 -->
<g id="node1" class="node">
<title>Node1</title>
<g id="a_node1"><a xlink:title=" ">
<polygon fill="#bfbfbf" stroke="black" points="223,-0.5 223,-30.5 375,-30.5 375,-0.5 223,-0.5"/>
<text text-anchor="start" x="231" y="-18.5" font-family="Helvetica,sans-Serif" font-size="10.00">strings_from_merged</text>
<text text-anchor="middle" x="299" y="-7.5" font-family="Helvetica,sans-Serif" font-size="10.00">_files_generator::push_front</text>
</a>
</g>
</g>
<!-- Node2 -->
<g id="node2" class="node">
<title>Node2</title>
<g id="a_node2"><a xlink:href="../../da/d22/sort__lin_8cpp.html#a2f51d3a4cc778d255bd27a465be2986b" target="_top" xlink:title=" ">
<polygon fill="none" stroke="black" points="77,-6 77,-25 187,-25 187,-6 77,-6"/>
<text text-anchor="middle" x="132" y="-13" font-family="Helvetica,sans-Serif" font-size="10.00">sort_huge_text_file</text>
</a>
</g>
</g>
<!-- Node1&#45;&gt;Node2 -->
<g id="edge1" class="edge">
<title>Node1&#45;&gt;Node2</title>
<path fill="none" stroke="midnightblue" d="M212.68,-15.5C204.1,-15.5 195.56,-15.5 187.44,-15.5"/>
<polygon fill="midnightblue" stroke="midnightblue" points="212.74,-19 222.74,-15.5 212.74,-12 212.74,-19"/>
</g>
<!-- Node3 -->
<g id="node3" class="node">
<title>Node3</title>
<g id="a_node3"><a xlink:href="../../da/d22/sort__lin_8cpp.html#a0ddf1224851353fc92bfbff6f499fa97" target="_top" xlink:title=" ">
<polygon fill="none" stroke="black" points="0,-6 0,-25 41,-25 41,-6 0,-6"/>
<text text-anchor="middle" x="20.5" y="-13" font-family="Helvetica,sans-Serif" font-size="10.00">main</text>
</a>
</g>
</g>
<!-- Node2&#45;&gt;Node3 -->
<g id="edge2" class="edge">
<title>Node2&#45;&gt;Node3</title>
<path fill="none" stroke="midnightblue" d="M66.72,-15.5C57.43,-15.5 48.51,-15.5 41.09,-15.5"/>
<polygon fill="midnightblue" stroke="midnightblue" points="66.89,-19 76.89,-15.5 66.89,-12 66.89,-19"/>
</g>
</g>
</svg>
