<?xml version="1.0" encoding="UTF-8" standalone="no"?>
<!DOCTYPE svg PUBLIC "-//W3C//DTD SVG 1.1//EN"
 "http://www.w3.org/Graphics/SVG/1.1/DTD/svg11.dtd">
<!-- Generated by graphviz version 5.0.1 (20220820.1526)
 -->
<!-- Title: strings_from_merged_files_generator::while Pages: 1 -->
<svg width="498pt" height="186pt"
 viewBox="0.00 0.00 498.00 186.00" xmlns="http://www.w3.org/2000/svg" xmlns:xlink="http://www.w3.org/1999/xlink">
<g id="graph0" class="graph" transform="scale(1 1) rotate(0) translate(4 182)">
<title>strings_from_merged_files_generator::while</title>
<!-- Node1 -->
<g id="node1" class="node">
<title>Node1</title>
<g id="a_node1"><a xlink:title=" ">
<polygon fill="#bfbfbf" stroke="black" points="0,-73.5 0,-103.5 127,-103.5 127,-73.5 0,-73.5"/>
<text text-anchor="start" x="8" y="-91.5" font-family="Helvetica,sans-Serif" font-size="10.00">strings_from_merged</text>
<text text-anchor="middle" x="63.5" y="-80.5" font-family="Helvetica,sans-Serif" font-size="10.00">_files_generator::while</text>
</a>
</g>
</g>
<!-- Node2 -->
<g id="node2" class="node">
<title>Node2</title>
<g id="a_node2"><a xlink:href="../../de/d34/classstrings__from__merged__files__generator.html#a8ab3c0c3cf568cf9fdd52ca2d7f7299a" target="_top" xlink:title=" ">
<polygon fill="none" stroke="black" points="163,-147.5 163,-177.5 314,-177.5 314,-147.5 163,-147.5"/>
<text text-anchor="start" x="171" y="-165.5" font-family="Helvetica,sans-Serif" font-size="10.00">strings_from_merged</text>
<text text-anchor="middle" x="238.5" y="-154.5" font-family="Helvetica,sans-Serif" font-size="10.00">_files_generator::delete_src</text>
</a>
</g>
</g>
<!-- Node1&#45;&gt;Node2 -->
<g id="edge1" class="edge">
<title>Node1&#45;&gt;Node2</title>
<path fill="none" stroke="midnightblue" d="M91.55,-103.7C111.04,-114.28 138.17,-128.28 163,-138.5 167.67,-140.42 172.56,-142.29 177.49,-144.09"/>
<polygon fill="midnightblue" stroke="midnightblue" points="176.42,-147.42 187.02,-147.43 178.74,-140.82 176.42,-147.42"/>
</g>
<!-- Node4 -->
<g id="node4" class="node">
<title>Node4</title>
<g id="a_node4"><a xlink:href="../../df/d91/namespaceuxn_1_1patl_1_1aux.html#aef249a37d947d6beda8f5316a2f78513" target="_top" xlink:title=" ">
<polygon fill="none" stroke="black" points="186,-98.5 186,-128.5 291,-128.5 291,-98.5 186,-98.5"/>
<text text-anchor="start" x="194" y="-116.5" font-family="Helvetica,sans-Serif" font-size="10.00">uxn::patl::aux::get</text>
<text text-anchor="middle" x="238.5" y="-105.5" font-family="Helvetica,sans-Serif" font-size="10.00">_long_file_length</text>
</a>
</g>
</g>
<!-- Node1&#45;&gt;Node4 -->
<g id="edge3" class="edge">
<title>Node1&#45;&gt;Node4</title>
<path fill="none" stroke="midnightblue" d="M127.45,-97.6C143.22,-99.88 160.12,-102.32 175.83,-104.59"/>
<polygon fill="midnightblue" stroke="midnightblue" points="175.56,-108.08 185.95,-106.05 176.56,-101.16 175.56,-108.08"/>
</g>
<!-- Node5 -->
<g id="node5" class="node">
<title>Node5</title>
<g id="a_node5"><a xlink:href="../../db/dcd/classuxn_1_1patl_1_1impl_1_1trie__generic.html#a49134514a564c6c69cfbb52268ba45ae" target="_top" xlink:title=" ">
<polygon fill="none" stroke="black" points="183.5,-49.5 183.5,-79.5 293.5,-79.5 293.5,-49.5 183.5,-49.5"/>
<text text-anchor="start" x="191.5" y="-67.5" font-family="Helvetica,sans-Serif" font-size="10.00">uxn::patl::impl::trie</text>
<text text-anchor="middle" x="238.5" y="-56.5" font-family="Helvetica,sans-Serif" font-size="10.00">_generic::insert</text>
</a>
</g>
</g>
<!-- Node1&#45;&gt;Node5 -->
<g id="edge4" class="edge">
<title>Node1&#45;&gt;Node5</title>
<path fill="none" stroke="midnightblue" d="M127.45,-79.77C142.36,-77.7 158.29,-75.49 173.26,-73.41"/>
<polygon fill="midnightblue" stroke="midnightblue" points="174.02,-76.84 183.45,-72 173.06,-69.91 174.02,-76.84"/>
</g>
<!-- Node8 -->
<g id="node8" class="node">
<title>Node8</title>
<g id="a_node8"><a xlink:href="../../de/d34/classstrings__from__merged__files__generator.html#ae5e4d33ef5dbb6cc7f1f7aa46e53591a" target="_top" xlink:title=" ">
<polygon fill="none" stroke="black" points="175,-0.5 175,-30.5 302,-30.5 302,-0.5 175,-0.5"/>
<text text-anchor="start" x="183" y="-18.5" font-family="Helvetica,sans-Serif" font-size="10.00">strings_from_merged</text>
<text text-anchor="middle" x="238.5" y="-7.5" font-family="Helvetica,sans-Serif" font-size="10.00">_files_generator::printf</text>
</a>
</g>
</g>
<!-- Node1&#45;&gt;Node8 -->
<g id="edge7" class="edge">
<title>Node1&#45;&gt;Node8</title>
<path fill="none" stroke="midnightblue" d="M92.01,-73.42C111.48,-63.1 138.41,-49.51 163,-39.5 167.68,-37.6 172.57,-35.74 177.51,-33.95"/>
<polygon fill="midnightblue" stroke="midnightblue" points="178.75,-37.23 187.04,-30.62 176.44,-30.62 178.75,-37.23"/>
</g>
<!-- Node3 -->
<g id="node3" class="node">
<title>Node3</title>
<g id="a_node3"><a xlink:href="../../df/d91/namespaceuxn_1_1patl_1_1aux.html#a46704b78e389b452d1434308b5d92cce" target="_top" xlink:title=" ">
<polygon fill="none" stroke="black" points="350,-153 350,-172 490,-172 490,-153 350,-153"/>
<text text-anchor="middle" x="420" y="-160" font-family="Helvetica,sans-Serif" font-size="10.00">uxn::patl::aux::delete_file</text>
</a>
</g>
</g>
<!-- Node2&#45;&gt;Node3 -->
<g id="edge2" class="edge">
<title>Node2&#45;&gt;Node3</title>
<path fill="none" stroke="midnightblue" d="M314.06,-162.5C322.49,-162.5 331.09,-162.5 339.58,-162.5"/>
<polygon fill="midnightblue" stroke="midnightblue" points="339.84,-166 349.84,-162.5 339.84,-159 339.84,-166"/>
</g>
<!-- Node6 -->
<g id="node6" class="node">
<title>Node6</title>
<g id="a_node6"><a xlink:href="../../dd/d0e/namespaceuxn_1_1patl_1_1impl.html#ab90f63027d43b408cc70d2f0db94c9fc" target="_top" xlink:title=" ">
<polygon fill="none" stroke="black" points="359.5,-77 359.5,-96 480.5,-96 480.5,-77 359.5,-77"/>
<text text-anchor="middle" x="420" y="-84" font-family="Helvetica,sans-Serif" font-size="10.00">uxn::patl::impl::max0</text>
</a>
</g>
</g>
<!-- Node5&#45;&gt;Node6 -->
<g id="edge5" class="edge">
<title>Node5&#45;&gt;Node6</title>
<path fill="none" stroke="midnightblue" d="M293.84,-71.16C311.26,-73.29 330.79,-75.69 349.15,-77.94"/>
<polygon fill="midnightblue" stroke="midnightblue" points="348.85,-81.43 359.21,-79.17 349.71,-74.48 348.85,-81.43"/>
</g>
<!-- Node7 -->
<g id="node7" class="node">
<title>Node7</title>
<g id="a_node7"><a xlink:href="../../d3/d81/classuxn_1_1patl_1_1impl_1_1const__vertex__generic.html#aea777dfc1baa0c2ccc8566c7e613a91d" target="_top" xlink:title=" ">
<polygon fill="none" stroke="black" points="359.5,-27.5 359.5,-57.5 480.5,-57.5 480.5,-27.5 359.5,-27.5"/>
<text text-anchor="start" x="367.5" y="-45.5" font-family="Helvetica,sans-Serif" font-size="10.00">uxn::patl::impl::const</text>
<text text-anchor="middle" x="420" y="-34.5" font-family="Helvetica,sans-Serif" font-size="10.00">_vertex_generic::skip</text>
</a>
</g>
</g>
<!-- Node5&#45;&gt;Node7 -->
<g id="edge6" class="edge">
<title>Node5&#45;&gt;Node7</title>
<path fill="none" stroke="midnightblue" d="M293.84,-57.84C311.26,-55.71 330.79,-53.31 349.15,-51.06"/>
<polygon fill="midnightblue" stroke="midnightblue" points="349.71,-54.52 359.21,-49.83 348.85,-47.57 349.71,-54.52"/>
</g>
</g>
</svg>
