<?xml version="1.0" encoding="UTF-8" standalone="no"?>
<!DOCTYPE svg PUBLIC "-//W3C//DTD SVG 1.1//EN"
 "http://www.w3.org/Graphics/SVG/1.1/DTD/svg11.dtd">
<!-- Generated by graphviz version 5.0.1 (20220820.1526)
 -->
<!-- Title: uxn::patl::aux::bit_input::get_bytes Pages: 1 -->
<svg width="386pt" height="88pt"
 viewBox="0.00 0.00 386.00 88.00" xmlns="http://www.w3.org/2000/svg" xmlns:xlink="http://www.w3.org/1999/xlink">
<g id="graph0" class="graph" transform="scale(1 1) rotate(0) translate(4 84)">
<title>uxn::patl::aux::bit_input::get_bytes</title>
<!-- Node1 -->
<g id="node1" class="node">
<title>Node1</title>
<g id="a_node1"><a xlink:title=" ">
<polygon fill="#bfbfbf" stroke="black" points="0,-24.5 0,-54.5 102,-54.5 102,-24.5 0,-24.5"/>
<text text-anchor="start" x="8" y="-42.5" font-family="Helvetica,sans-Serif" font-size="10.00">uxn::patl::aux::bit</text>
<text text-anchor="middle" x="51" y="-31.5" font-family="Helvetica,sans-Serif" font-size="10.00">_input::get_bytes</text>
</a>
</g>
</g>
<!-- Node2 -->
<g id="node2" class="node">
<title>Node2</title>
<g id="a_node2"><a xlink:href="../../dc/dca/classuxn_1_1patl_1_1aux_1_1bit__input.html#a7d97b2d4391e80f8a2e3ca5da307936c" target="_top" xlink:title=" ">
<polygon fill="none" stroke="black" points="138,-49.5 138,-79.5 240,-79.5 240,-49.5 138,-49.5"/>
<text text-anchor="start" x="146" y="-67.5" font-family="Helvetica,sans-Serif" font-size="10.00">uxn::patl::aux::bit</text>
<text text-anchor="middle" x="189" y="-56.5" font-family="Helvetica,sans-Serif" font-size="10.00">_input::get_bits</text>
</a>
</g>
</g>
<!-- Node1&#45;&gt;Node2 -->
<g id="edge1" class="edge">
<title>Node1&#45;&gt;Node2</title>
<path fill="none" stroke="midnightblue" d="M102.25,-48.74C110.63,-50.28 119.39,-51.89 127.98,-53.47"/>
<polygon fill="midnightblue" stroke="midnightblue" points="127.48,-56.93 137.95,-55.3 128.75,-50.05 127.48,-56.93"/>
</g>
<!-- Node4 -->
<g id="node4" class="node">
<title>Node4</title>
<g id="a_node4"><a xlink:href="../../dc/dca/classuxn_1_1patl_1_1aux_1_1bit__input.html#a83e9b854ad3cb8233607304fa7b37de3" target="_top" xlink:title=" ">
<polygon fill="none" stroke="black" points="138,-0.5 138,-30.5 240,-30.5 240,-0.5 138,-0.5"/>
<text text-anchor="start" x="146" y="-18.5" font-family="Helvetica,sans-Serif" font-size="10.00">uxn::patl::aux::bit</text>
<text text-anchor="middle" x="189" y="-7.5" font-family="Helvetica,sans-Serif" font-size="10.00">_input::get_word</text>
</a>
</g>
</g>
<!-- Node1&#45;&gt;Node4 -->
<g id="edge3" class="edge">
<title>Node1&#45;&gt;Node4</title>
<path fill="none" stroke="midnightblue" d="M102.25,-30.63C110.63,-29.15 119.39,-27.61 127.98,-26.09"/>
<polygon fill="midnightblue" stroke="midnightblue" points="128.71,-29.52 137.95,-24.33 127.5,-22.62 128.71,-29.52"/>
</g>
<!-- Node3 -->
<g id="node3" class="node">
<title>Node3</title>
<g id="a_node3"><a xlink:href="../../dc/dca/classuxn_1_1patl_1_1aux_1_1bit__input.html#a93825228d6ac8841d5ea928e3967d524" target="_top" xlink:title=" ">
<polygon fill="none" stroke="black" points="276,-24.5 276,-54.5 378,-54.5 378,-24.5 276,-24.5"/>
<text text-anchor="start" x="284" y="-42.5" font-family="Helvetica,sans-Serif" font-size="10.00">uxn::patl::aux::bit</text>
<text text-anchor="middle" x="327" y="-31.5" font-family="Helvetica,sans-Serif" font-size="10.00">_input::read_full</text>
</a>
</g>
</g>
<!-- Node2&#45;&gt;Node3 -->
<g id="edge2" class="edge">
<title>Node2&#45;&gt;Node3</title>
<path fill="none" stroke="midnightblue" d="M240.25,-55.26C248.63,-53.72 257.39,-52.11 265.98,-50.53"/>
<polygon fill="midnightblue" stroke="midnightblue" points="266.75,-53.95 275.95,-48.7 265.48,-47.07 266.75,-53.95"/>
</g>
<!-- Node4&#45;&gt;Node3 -->
<g id="edge4" class="edge">
<title>Node4&#45;&gt;Node3</title>
<path fill="none" stroke="midnightblue" d="M240.25,-24.37C248.63,-25.85 257.39,-27.39 265.98,-28.91"/>
<polygon fill="midnightblue" stroke="midnightblue" points="265.5,-32.38 275.95,-30.67 266.71,-25.48 265.5,-32.38"/>
</g>
</g>
</svg>
