<?xml version="1.0" encoding="UTF-8" standalone="no"?>
<!DOCTYPE svg PUBLIC "-//W3C//DTD SVG 1.1//EN"
 "http://www.w3.org/Graphics/SVG/1.1/DTD/svg11.dtd">
<!-- Generated by graphviz version 5.0.1 (20220820.1526)
 -->
<!-- Title: uxn::patl::aux::bit_input::get_fib_code Pages: 1 -->
<svg width="398pt" height="39pt"
 viewBox="0.00 0.00 398.00 39.00" xmlns="http://www.w3.org/2000/svg" xmlns:xlink="http://www.w3.org/1999/xlink">
<g id="graph0" class="graph" transform="scale(1 1) rotate(0) translate(4 35)">
<title>uxn::patl::aux::bit_input::get_fib_code</title>
<!-- Node1 -->
<g id="node1" class="node">
<title>Node1</title>
<g id="a_node1"><a xlink:title=" ">
<polygon fill="#bfbfbf" stroke="black" points="0,-0.5 0,-30.5 114,-30.5 114,-0.5 0,-0.5"/>
<text text-anchor="start" x="8" y="-18.5" font-family="Helvetica,sans-Serif" font-size="10.00">uxn::patl::aux::bit</text>
<text text-anchor="middle" x="57" y="-7.5" font-family="Helvetica,sans-Serif" font-size="10.00">_input::get_fib_code</text>
</a>
</g>
</g>
<!-- Node2 -->
<g id="node2" class="node">
<title>Node2</title>
<g id="a_node2"><a xlink:href="../../dc/dca/classuxn_1_1patl_1_1aux_1_1bit__input.html#ab6c060668b55e542a34e8f3d5519d032" target="_top" xlink:title=" ">
<polygon fill="none" stroke="black" points="150,-0.5 150,-30.5 252,-30.5 252,-0.5 150,-0.5"/>
<text text-anchor="start" x="158" y="-18.5" font-family="Helvetica,sans-Serif" font-size="10.00">uxn::patl::aux::bit</text>
<text text-anchor="middle" x="201" y="-7.5" font-family="Helvetica,sans-Serif" font-size="10.00">_input::get_bit</text>
</a>
</g>
</g>
<!-- Node1&#45;&gt;Node2 -->
<g id="edge1" class="edge">
<title>Node1&#45;&gt;Node2</title>
<path fill="none" stroke="midnightblue" d="M114.12,-15.5C122.5,-15.5 131.17,-15.5 139.63,-15.5"/>
<polygon fill="midnightblue" stroke="midnightblue" points="139.81,-19 149.81,-15.5 139.81,-12 139.81,-19"/>
</g>
<!-- Node3 -->
<g id="node3" class="node">
<title>Node3</title>
<g id="a_node3"><a xlink:href="../../dc/dca/classuxn_1_1patl_1_1aux_1_1bit__input.html#a93825228d6ac8841d5ea928e3967d524" target="_top" xlink:title=" ">
<polygon fill="none" stroke="black" points="288,-0.5 288,-30.5 390,-30.5 390,-0.5 288,-0.5"/>
<text text-anchor="start" x="296" y="-18.5" font-family="Helvetica,sans-Serif" font-size="10.00">uxn::patl::aux::bit</text>
<text text-anchor="middle" x="339" y="-7.5" font-family="Helvetica,sans-Serif" font-size="10.00">_input::read_full</text>
</a>
</g>
</g>
<!-- Node2&#45;&gt;Node3 -->
<g id="edge2" class="edge">
<title>Node2&#45;&gt;Node3</title>
<path fill="none" stroke="midnightblue" d="M252.25,-15.5C260.54,-15.5 269.2,-15.5 277.7,-15.5"/>
<polygon fill="midnightblue" stroke="midnightblue" points="277.95,-19 287.95,-15.5 277.95,-12 277.95,-19"/>
</g>
</g>
</svg>
