<?xml version="1.0" encoding="UTF-8" standalone="no"?>
<!DOCTYPE svg PUBLIC "-//W3C//DTD SVG 1.1//EN"
 "http://www.w3.org/Graphics/SVG/1.1/DTD/svg11.dtd">
<!-- Generated by graphviz version 5.0.1 (20220820.1526)
 -->
<!-- Title: uxn::patl::aux::bit_input::read_full Pages: 1 -->
<svg width="398pt" height="137pt"
 viewBox="0.00 0.00 398.00 137.00" xmlns="http://www.w3.org/2000/svg" xmlns:xlink="http://www.w3.org/1999/xlink">
<g id="graph0" class="graph" transform="scale(1 1) rotate(0) translate(4 133)">
<title>uxn::patl::aux::bit_input::read_full</title>
<!-- Node1 -->
<g id="node1" class="node">
<title>Node1</title>
<g id="a_node1"><a xlink:title=" ">
<polygon fill="#bfbfbf" stroke="black" points="288,-49.5 288,-79.5 390,-79.5 390,-49.5 288,-49.5"/>
<text text-anchor="start" x="296" y="-67.5" font-family="Helvetica,sans-Serif" font-size="10.00">uxn::patl::aux::bit</text>
<text text-anchor="middle" x="339" y="-56.5" font-family="Helvetica,sans-Serif" font-size="10.00">_input::read_full</text>
</a>
</g>
</g>
<!-- Node2 -->
<g id="node2" class="node">
<title>Node2</title>
<g id="a_node2"><a xlink:href="../../dc/dca/classuxn_1_1patl_1_1aux_1_1bit__input.html#ab6c060668b55e542a34e8f3d5519d032" target="_top" xlink:title=" ">
<polygon fill="none" stroke="black" points="150,-98.5 150,-128.5 252,-128.5 252,-98.5 150,-98.5"/>
<text text-anchor="start" x="158" y="-116.5" font-family="Helvetica,sans-Serif" font-size="10.00">uxn::patl::aux::bit</text>
<text text-anchor="middle" x="201" y="-105.5" font-family="Helvetica,sans-Serif" font-size="10.00">_input::get_bit</text>
</a>
</g>
</g>
<!-- Node1&#45;&gt;Node2 -->
<g id="edge1" class="edge">
<title>Node1&#45;&gt;Node2</title>
<path fill="none" stroke="midnightblue" d="M286.55,-83.04C272.51,-88.1 257.46,-93.52 244.01,-98.36"/>
<polygon fill="midnightblue" stroke="midnightblue" points="287.86,-86.28 296.09,-79.6 285.49,-79.7 287.86,-86.28"/>
</g>
<!-- Node4 -->
<g id="node4" class="node">
<title>Node4</title>
<g id="a_node4"><a xlink:href="../../dc/dca/classuxn_1_1patl_1_1aux_1_1bit__input.html#a7d97b2d4391e80f8a2e3ca5da307936c" target="_top" xlink:title=" ">
<polygon fill="none" stroke="black" points="150,-49.5 150,-79.5 252,-79.5 252,-49.5 150,-49.5"/>
<text text-anchor="start" x="158" y="-67.5" font-family="Helvetica,sans-Serif" font-size="10.00">uxn::patl::aux::bit</text>
<text text-anchor="middle" x="201" y="-56.5" font-family="Helvetica,sans-Serif" font-size="10.00">_input::get_bits</text>
</a>
</g>
</g>
<!-- Node1&#45;&gt;Node4 -->
<g id="edge3" class="edge">
<title>Node1&#45;&gt;Node4</title>
<path fill="none" stroke="midnightblue" d="M277.49,-64.5C268.99,-64.5 260.33,-64.5 252.05,-64.5"/>
<polygon fill="midnightblue" stroke="midnightblue" points="277.75,-68 287.75,-64.5 277.74,-61 277.75,-68"/>
</g>
<!-- Node6 -->
<g id="node6" class="node">
<title>Node6</title>
<g id="a_node6"><a xlink:href="../../dc/dca/classuxn_1_1patl_1_1aux_1_1bit__input.html#a83e9b854ad3cb8233607304fa7b37de3" target="_top" xlink:title=" ">
<polygon fill="none" stroke="black" points="150,-0.5 150,-30.5 252,-30.5 252,-0.5 150,-0.5"/>
<text text-anchor="start" x="158" y="-18.5" font-family="Helvetica,sans-Serif" font-size="10.00">uxn::patl::aux::bit</text>
<text text-anchor="middle" x="201" y="-7.5" font-family="Helvetica,sans-Serif" font-size="10.00">_input::get_word</text>
</a>
</g>
</g>
<!-- Node1&#45;&gt;Node6 -->
<g id="edge5" class="edge">
<title>Node1&#45;&gt;Node6</title>
<path fill="none" stroke="midnightblue" d="M286.55,-45.96C272.51,-40.9 257.46,-35.48 244.01,-30.64"/>
<polygon fill="midnightblue" stroke="midnightblue" points="285.49,-49.3 296.09,-49.4 287.86,-42.72 285.49,-49.3"/>
</g>
<!-- Node3 -->
<g id="node3" class="node">
<title>Node3</title>
<g id="a_node3"><a xlink:href="../../dc/dca/classuxn_1_1patl_1_1aux_1_1bit__input.html#a8ca440d83b60af81cebf6d549921314e" target="_top" xlink:title=" ">
<polygon fill="none" stroke="black" points="0,-98.5 0,-128.5 114,-128.5 114,-98.5 0,-98.5"/>
<text text-anchor="start" x="8" y="-116.5" font-family="Helvetica,sans-Serif" font-size="10.00">uxn::patl::aux::bit</text>
<text text-anchor="middle" x="57" y="-105.5" font-family="Helvetica,sans-Serif" font-size="10.00">_input::get_fib_code</text>
</a>
</g>
</g>
<!-- Node2&#45;&gt;Node3 -->
<g id="edge2" class="edge">
<title>Node2&#45;&gt;Node3</title>
<path fill="none" stroke="midnightblue" d="M139.8,-113.5C131.37,-113.5 122.74,-113.5 114.39,-113.5"/>
<polygon fill="midnightblue" stroke="midnightblue" points="139.94,-117 149.94,-113.5 139.94,-110 139.94,-117"/>
</g>
<!-- Node5 -->
<g id="node5" class="node">
<title>Node5</title>
<g id="a_node5"><a xlink:href="../../dc/dca/classuxn_1_1patl_1_1aux_1_1bit__input.html#ae0bd0b052e0baaa972f3d1e4a50433c9" target="_top" xlink:title=" ">
<polygon fill="none" stroke="black" points="6,-25.5 6,-55.5 108,-55.5 108,-25.5 6,-25.5"/>
<text text-anchor="start" x="14" y="-43.5" font-family="Helvetica,sans-Serif" font-size="10.00">uxn::patl::aux::bit</text>
<text text-anchor="middle" x="57" y="-32.5" font-family="Helvetica,sans-Serif" font-size="10.00">_input::get_bytes</text>
</a>
</g>
</g>
<!-- Node4&#45;&gt;Node5 -->
<g id="edge4" class="edge">
<title>Node4&#45;&gt;Node5</title>
<path fill="none" stroke="midnightblue" d="M139.91,-54.34C129.31,-52.55 118.38,-50.7 108.09,-48.97"/>
<polygon fill="midnightblue" stroke="midnightblue" points="139.49,-57.82 149.94,-56.04 140.66,-50.92 139.49,-57.82"/>
</g>
<!-- Node6&#45;&gt;Node5 -->
<g id="edge6" class="edge">
<title>Node6&#45;&gt;Node5</title>
<path fill="none" stroke="midnightblue" d="M139.91,-26.08C129.31,-27.95 118.38,-29.87 108.09,-31.68"/>
<polygon fill="midnightblue" stroke="midnightblue" points="140.69,-29.5 149.94,-24.31 139.48,-22.6 140.69,-29.5"/>
</g>
</g>
</svg>
