<?xml version="1.0" encoding="UTF-8" standalone="no"?>
<!DOCTYPE svg PUBLIC "-//W3C//DTD SVG 1.1//EN"
 "http://www.w3.org/Graphics/SVG/1.1/DTD/svg11.dtd">
<!-- Generated by graphviz version 5.0.1 (20220820.1526)
 -->
<!-- Title: uxn/patl/aux_/buffered_io.hpp Pages: 1 -->
<svg width="400pt" height="151pt"
 viewBox="0.00 0.00 399.50 151.00" xmlns="http://www.w3.org/2000/svg" xmlns:xlink="http://www.w3.org/1999/xlink">
<g id="graph0" class="graph" transform="scale(1 1) rotate(0) translate(4 147)">
<title>uxn/patl/aux_/buffered_io.hpp</title>
<!-- Node1 -->
<g id="node1" class="node">
<title>Node1</title>
<g id="a_node1"><a xlink:title=" ">
<polygon fill="#bfbfbf" stroke="black" points="153,-112.5 153,-142.5 279,-142.5 279,-112.5 153,-112.5"/>
<text text-anchor="start" x="161" y="-130.5" font-family="Helvetica,sans-Serif" font-size="10.00">uxn/patl/aux_/buffered</text>
<text text-anchor="middle" x="216" y="-119.5" font-family="Helvetica,sans-Serif" font-size="10.00">_io.hpp</text>
</a>
</g>
</g>
<!-- Node2 -->
<g id="node2" class="node">
<title>Node2</title>
<g id="a_node2"><a xlink:href="../../d8/dfd/config_8hpp.html" target="_top" xlink:title=" ">
<polygon fill="none" stroke="black" points="0,-0.5 0,-19.5 76,-19.5 76,-0.5 0,-0.5"/>
<text text-anchor="middle" x="38" y="-7.5" font-family="Helvetica,sans-Serif" font-size="10.00">../config.hpp</text>
</a>
</g>
</g>
<!-- Node1&#45;&gt;Node2 -->
<g id="edge1" class="edge">
<title>Node1&#45;&gt;Node2</title>
<path fill="none" stroke="midnightblue" d="M172.81,-112.4C150.02,-103.83 122.24,-91.54 100,-76 80.52,-62.39 62.26,-41.95 50.68,-27.64"/>
<polygon fill="midnightblue" stroke="midnightblue" points="53.31,-25.32 44.37,-19.63 47.81,-29.65 53.31,-25.32"/>
</g>
<!-- Node3 -->
<g id="node3" class="node">
<title>Node3</title>
<g id="a_node3"><a xlink:href="../../d9/df1/file__utils_8hpp.html" target="_top" xlink:title=" ">
<polygon fill="none" stroke="black" points="108.5,-56.5 108.5,-75.5 187.5,-75.5 187.5,-56.5 108.5,-56.5"/>
<text text-anchor="middle" x="148" y="-63.5" font-family="Helvetica,sans-Serif" font-size="10.00">file_utils.hpp</text>
</a>
</g>
</g>
<!-- Node1&#45;&gt;Node3 -->
<g id="edge2" class="edge">
<title>Node1&#45;&gt;Node3</title>
<path fill="none" stroke="midnightblue" d="M199.88,-112.4C189.6,-103.4 176.25,-91.72 165.67,-82.47"/>
<polygon fill="midnightblue" stroke="midnightblue" points="167.73,-79.61 157.89,-75.66 163.12,-84.88 167.73,-79.61"/>
</g>
<!-- Node6 -->
<g id="node6" class="node">
<title>Node6</title>
<g id="a_node6"><a xlink:title=" ">
<polygon fill="none" stroke="#bfbfbf" points="222,-0.5 222,-19.5 290,-19.5 290,-0.5 222,-0.5"/>
<text text-anchor="middle" x="256" y="-7.5" font-family="Helvetica,sans-Serif" font-size="10.00">windows.h</text>
</a>
</g>
</g>
<!-- Node1&#45;&gt;Node6 -->
<g id="edge9" class="edge">
<title>Node1&#45;&gt;Node6</title>
<path fill="none" stroke="midnightblue" d="M219.08,-112.23C222.36,-97.83 228.05,-75.05 235,-56 238.33,-46.89 242.78,-37.1 246.74,-28.98"/>
<polygon fill="midnightblue" stroke="midnightblue" points="250,-30.28 251.35,-19.77 243.74,-27.14 250,-30.28"/>
</g>
<!-- Node7 -->
<g id="node7" class="node">
<title>Node7</title>
<g id="a_node7"><a xlink:title=" ">
<polygon fill="none" stroke="#bfbfbf" points="244,-56.5 244,-75.5 308,-75.5 308,-56.5 244,-56.5"/>
<text text-anchor="middle" x="276" y="-63.5" font-family="Helvetica,sans-Serif" font-size="10.00">algorithm</text>
</a>
</g>
</g>
<!-- Node1&#45;&gt;Node7 -->
<g id="edge7" class="edge">
<title>Node1&#45;&gt;Node7</title>
<path fill="none" stroke="midnightblue" d="M230.22,-112.4C239.21,-103.49 250.84,-91.95 260.13,-82.74"/>
<polygon fill="midnightblue" stroke="midnightblue" points="262.63,-85.18 267.27,-75.66 257.7,-80.21 262.63,-85.18"/>
</g>
<!-- Node8 -->
<g id="node8" class="node">
<title>Node8</title>
<g id="a_node8"><a xlink:title=" ">
<polygon fill="none" stroke="#bfbfbf" points="326.5,-56.5 326.5,-75.5 391.5,-75.5 391.5,-56.5 326.5,-56.5"/>
<text text-anchor="middle" x="359" y="-63.5" font-family="Helvetica,sans-Serif" font-size="10.00">exception</text>
</a>
</g>
</g>
<!-- Node1&#45;&gt;Node8 -->
<g id="edge8" class="edge">
<title>Node1&#45;&gt;Node8</title>
<path fill="none" stroke="midnightblue" d="M249.89,-112.4C273.88,-102.42 305.77,-89.15 328.88,-79.53"/>
<polygon fill="midnightblue" stroke="midnightblue" points="330.3,-82.73 338.19,-75.66 327.61,-76.27 330.3,-82.73"/>
</g>
<!-- Node3&#45;&gt;Node2 -->
<g id="edge3" class="edge">
<title>Node3&#45;&gt;Node2</title>
<path fill="none" stroke="midnightblue" d="M130.33,-56.32C112.61,-47.62 85.1,-34.12 64.71,-24.11"/>
<polygon fill="midnightblue" stroke="midnightblue" points="66.15,-20.92 55.63,-19.65 63.06,-27.2 66.15,-20.92"/>
</g>
<!-- Node4 -->
<g id="node4" class="node">
<title>Node4</title>
<g id="a_node4"><a xlink:title=" ">
<polygon fill="none" stroke="#bfbfbf" points="94,-0.5 94,-19.5 138,-19.5 138,-0.5 94,-0.5"/>
<text text-anchor="middle" x="116" y="-7.5" font-family="Helvetica,sans-Serif" font-size="10.00">string</text>
</a>
</g>
</g>
<!-- Node3&#45;&gt;Node4 -->
<g id="edge4" class="edge">
<title>Node3&#45;&gt;Node4</title>
<path fill="none" stroke="midnightblue" d="M142.72,-56.08C138.29,-48.61 131.84,-37.72 126.38,-28.52"/>
<polygon fill="midnightblue" stroke="midnightblue" points="129.29,-26.57 121.19,-19.75 123.27,-30.14 129.29,-26.57"/>
</g>
<!-- Node5 -->
<g id="node5" class="node">
<title>Node5</title>
<g id="a_node5"><a xlink:title=" ">
<polygon fill="none" stroke="#bfbfbf" points="156.5,-0.5 156.5,-19.5 203.5,-19.5 203.5,-0.5 156.5,-0.5"/>
<text text-anchor="middle" x="180" y="-7.5" font-family="Helvetica,sans-Serif" font-size="10.00">vector</text>
</a>
</g>
</g>
<!-- Node3&#45;&gt;Node5 -->
<g id="edge5" class="edge">
<title>Node3&#45;&gt;Node5</title>
<path fill="none" stroke="midnightblue" d="M153.28,-56.08C157.71,-48.61 164.16,-37.72 169.62,-28.52"/>
<polygon fill="midnightblue" stroke="midnightblue" points="172.73,-30.14 174.81,-19.75 166.71,-26.57 172.73,-30.14"/>
</g>
<!-- Node3&#45;&gt;Node6 -->
<g id="edge6" class="edge">
<title>Node3&#45;&gt;Node6</title>
<path fill="none" stroke="midnightblue" d="M165.35,-56.32C182.67,-47.66 209.52,-34.24 229.5,-24.25"/>
<polygon fill="midnightblue" stroke="midnightblue" points="231.31,-27.26 238.69,-19.65 228.18,-21 231.31,-27.26"/>
</g>
</g>
</svg>
