<?xml version="1.0" encoding="UTF-8" standalone="no"?>
<!DOCTYPE svg PUBLIC "-//W3C//DTD SVG 1.1//EN"
 "http://www.w3.org/Graphics/SVG/1.1/DTD/svg11.dtd">
<!-- Generated by graphviz version 5.0.1 (20220820.1526)
 -->
<!-- Title: uxn::patl::impl::trie_generic&lt; T, 0 &gt;::trie_generic Pages: 1 -->
<svg width="432pt" height="78pt"
 viewBox="0.00 0.00 432.00 77.50" xmlns="http://www.w3.org/2000/svg" xmlns:xlink="http://www.w3.org/1999/xlink">
<g id="graph0" class="graph" transform="scale(1 1) rotate(0) translate(4 73.5)">
<title>uxn::patl::impl::trie_generic&lt; T, 0 &gt;::trie_generic</title>
<!-- Node1 -->
<g id="node1" class="node">
<title>Node1</title>
<g id="a_node1"><a xlink:title=" ">
<polygon fill="#bfbfbf" stroke="black" points="0,-17 0,-58 121,-58 121,-17 0,-17"/>
<text text-anchor="start" x="8" y="-46" font-family="Helvetica,sans-Serif" font-size="10.00">uxn::patl::impl::trie</text>
<text text-anchor="start" x="8" y="-35" font-family="Helvetica,sans-Serif" font-size="10.00">_generic&lt; T, 0 &gt;::trie</text>
<text text-anchor="middle" x="60.5" y="-24" font-family="Helvetica,sans-Serif" font-size="10.00">_generic</text>
</a>
</g>
</g>
<!-- Node2 -->
<g id="node2" class="node">
<title>Node2</title>
<g id="a_node2"><a xlink:href="../../db/dcd/classuxn_1_1patl_1_1impl_1_1trie__generic.html#a49134514a564c6c69cfbb52268ba45ae" target="_top" xlink:title=" ">
<polygon fill="none" stroke="black" points="157,-22.5 157,-52.5 267,-52.5 267,-22.5 157,-22.5"/>
<text text-anchor="start" x="165" y="-40.5" font-family="Helvetica,sans-Serif" font-size="10.00">uxn::patl::impl::trie</text>
<text text-anchor="middle" x="212" y="-29.5" font-family="Helvetica,sans-Serif" font-size="10.00">_generic::insert</text>
</a>
</g>
</g>
<!-- Node1&#45;&gt;Node2 -->
<g id="edge1" class="edge">
<title>Node1&#45;&gt;Node2</title>
<path fill="none" stroke="midnightblue" d="M121.02,-37.5C129.35,-37.5 137.95,-37.5 146.38,-37.5"/>
<polygon fill="midnightblue" stroke="midnightblue" points="146.54,-41 156.54,-37.5 146.54,-34 146.54,-41"/>
</g>
<!-- Node3 -->
<g id="node3" class="node">
<title>Node3</title>
<g id="a_node3"><a xlink:href="../../dd/d0e/namespaceuxn_1_1patl_1_1impl.html#ab90f63027d43b408cc70d2f0db94c9fc" target="_top" xlink:title=" ">
<polygon fill="none" stroke="black" points="303,-50 303,-69 424,-69 424,-50 303,-50"/>
<text text-anchor="middle" x="363.5" y="-57" font-family="Helvetica,sans-Serif" font-size="10.00">uxn::patl::impl::max0</text>
</a>
</g>
</g>
<!-- Node2&#45;&gt;Node3 -->
<g id="edge2" class="edge">
<title>Node2&#45;&gt;Node3</title>
<path fill="none" stroke="midnightblue" d="M267.4,-45.5C275.68,-46.72 284.32,-48 292.87,-49.25"/>
<polygon fill="midnightblue" stroke="midnightblue" points="292.44,-52.73 302.84,-50.72 293.46,-45.8 292.44,-52.73"/>
</g>
<!-- Node4 -->
<g id="node4" class="node">
<title>Node4</title>
<g id="a_node4"><a xlink:href="../../d3/d81/classuxn_1_1patl_1_1impl_1_1const__vertex__generic.html#aea777dfc1baa0c2ccc8566c7e613a91d" target="_top" xlink:title=" ">
<polygon fill="none" stroke="black" points="303,-0.5 303,-30.5 424,-30.5 424,-0.5 303,-0.5"/>
<text text-anchor="start" x="311" y="-18.5" font-family="Helvetica,sans-Serif" font-size="10.00">uxn::patl::impl::const</text>
<text text-anchor="middle" x="363.5" y="-7.5" font-family="Helvetica,sans-Serif" font-size="10.00">_vertex_generic::skip</text>
</a>
</g>
</g>
<!-- Node2&#45;&gt;Node4 -->
<g id="edge3" class="edge">
<title>Node2&#45;&gt;Node4</title>
<path fill="none" stroke="midnightblue" d="M267.4,-29.5C275.68,-28.28 284.32,-27 292.87,-25.75"/>
<polygon fill="midnightblue" stroke="midnightblue" points="293.46,-29.2 302.84,-24.28 292.44,-22.27 293.46,-29.2"/>
</g>
</g>
</svg>
