<?xml version="1.0" encoding="UTF-8" standalone="no"?>
<!DOCTYPE svg PUBLIC "-//W3C//DTD SVG 1.1//EN"
 "http://www.w3.org/Graphics/SVG/1.1/DTD/svg11.dtd">
<!-- Generated by graphviz version 5.0.1 (20220820.1526)
 -->
<!-- Title: uxn::patl::impl::graphviz_printable_string Pages: 1 -->
<svg width="323pt" height="122pt"
 viewBox="0.00 0.00 323.00 121.50" xmlns="http://www.w3.org/2000/svg" xmlns:xlink="http://www.w3.org/1999/xlink">
<g id="graph0" class="graph" transform="scale(1 1) rotate(0) translate(4 117.5)">
<title>uxn::patl::impl::graphviz_printable_string</title>
<!-- Node1 -->
<g id="node1" class="node">
<title>Node1</title>
<g id="a_node1"><a xlink:title=" ">
<polygon fill="#bfbfbf" stroke="black" points="180,-50 180,-80 315,-80 315,-50 180,-50"/>
<text text-anchor="start" x="188" y="-68" font-family="Helvetica,sans-Serif" font-size="10.00">uxn::patl::impl::graphviz</text>
<text text-anchor="middle" x="247.5" y="-57" font-family="Helvetica,sans-Serif" font-size="10.00">_printable_string</text>
</a>
</g>
</g>
<!-- Node2 -->
<g id="node2" class="node">
<title>Node2</title>
<g id="a_node2"><a xlink:href="../../d2/d91/classpatricia__dot__base.html#a2d6462fcd6e21ee9a4795fe20ee4d330" target="_top" xlink:title=" ">
<polygon fill="none" stroke="black" points="17.5,-83 17.5,-113 126.5,-113 126.5,-83 17.5,-83"/>
<text text-anchor="start" x="25.5" y="-101" font-family="Helvetica,sans-Serif" font-size="10.00">patricia_dot_base::</text>
<text text-anchor="middle" x="72" y="-90" font-family="Helvetica,sans-Serif" font-size="10.00">out_node</text>
</a>
</g>
</g>
<!-- Node1&#45;&gt;Node2 -->
<g id="edge1" class="edge">
<title>Node1&#45;&gt;Node2</title>
<path fill="none" stroke="midnightblue" d="M169.92,-79.57C155.37,-82.33 140.43,-85.18 126.77,-87.77"/>
<polygon fill="midnightblue" stroke="midnightblue" points="170.75,-82.97 179.92,-77.66 169.44,-76.09 170.75,-82.97"/>
</g>
<!-- Node3 -->
<g id="node3" class="node">
<title>Node3</title>
<g id="a_node3"><a xlink:href="../../d8/de6/classuxn_1_1patl_1_1impl_1_1patricia__dot__base_3_01suffix__set_3_01Type_00_01N_00_01Delta_00_01f366aa432e5874b34aa8e2df35cf2909.html#ad46e1416efddc2a1f178764861ab96c3" target="_top" xlink:title=" ">
<polygon fill="none" stroke="black" points="0,-0.5 0,-63.5 144,-63.5 144,-0.5 0,-0.5"/>
<text text-anchor="start" x="8" y="-51.5" font-family="Helvetica,sans-Serif" font-size="10.00">uxn::patl::impl::patricia</text>
<text text-anchor="start" x="8" y="-40.5" font-family="Helvetica,sans-Serif" font-size="10.00">_dot_base&lt; suffix_set&lt;</text>
<text text-anchor="start" x="8" y="-29.5" font-family="Helvetica,sans-Serif" font-size="10.00"> Type, N, Delta, BitComp,</text>
<text text-anchor="start" x="8" y="-18.5" font-family="Helvetica,sans-Serif" font-size="10.00"> Allocator &gt;, OutStream &gt;</text>
<text text-anchor="middle" x="72" y="-7.5" font-family="Helvetica,sans-Serif" font-size="10.00">::out_node</text>
</a>
</g>
</g>
<!-- Node1&#45;&gt;Node3 -->
<g id="edge2" class="edge">
<title>Node1&#45;&gt;Node3</title>
<path fill="none" stroke="midnightblue" d="M169.9,-50.43C161.29,-48.79 152.55,-47.13 144.01,-45.51"/>
<polygon fill="midnightblue" stroke="midnightblue" points="169.44,-53.91 179.92,-52.34 170.75,-47.03 169.44,-53.91"/>
</g>
</g>
</svg>
