<?xml version="1.0" encoding="UTF-8" standalone="no"?>
<!DOCTYPE svg PUBLIC "-//W3C//DTD SVG 1.1//EN"
 "http://www.w3.org/Graphics/SVG/1.1/DTD/svg11.dtd">
<!-- Generated by graphviz version 5.0.1 (20220820.1526)
 -->
<!-- Title: uxn::patl::impl::get_lowest_bit_id Pages: 1 -->
<svg width="752pt" height="225pt"
 viewBox="0.00 0.00 752.00 224.50" xmlns="http://www.w3.org/2000/svg" xmlns:xlink="http://www.w3.org/1999/xlink">
<g id="graph0" class="graph" transform="scale(1 1) rotate(0) translate(4 220.5)">
<title>uxn::patl::impl::get_lowest_bit_id</title>
<!-- Node1 -->
<g id="node1" class="node">
<title>Node1</title>
<g id="a_node1"><a xlink:title=" ">
<polygon fill="#bfbfbf" stroke="black" points="635,-125.5 635,-155.5 744,-155.5 744,-125.5 635,-125.5"/>
<text text-anchor="start" x="643" y="-143.5" font-family="Helvetica,sans-Serif" font-size="10.00">uxn::patl::impl::get</text>
<text text-anchor="middle" x="689.5" y="-132.5" font-family="Helvetica,sans-Serif" font-size="10.00">_lowest_bit_id</text>
</a>
</g>
</g>
<!-- Node2 -->
<g id="node2" class="node">
<title>Node2</title>
<g id="a_node2"><a xlink:href="../../d6/dae/classuxn_1_1patl_1_1impl_1_1primes.html#ae82db88573cbbdc675f0ca01093df0eb" target="_top" xlink:title=" ">
<polygon fill="none" stroke="black" points="453,-197 453,-216 599,-216 599,-197 453,-197"/>
<text text-anchor="middle" x="526" y="-204" font-family="Helvetica,sans-Serif" font-size="10.00">uxn::patl::impl::primes::for</text>
</a>
</g>
</g>
<!-- Node1&#45;&gt;Node2 -->
<g id="edge1" class="edge">
<title>Node1&#45;&gt;Node2</title>
<path fill="none" stroke="midnightblue" d="M654.23,-160.83C637.91,-169.9 617.87,-180.16 599,-187.5 589.72,-191.11 579.51,-194.26 569.77,-196.91"/>
<polygon fill="midnightblue" stroke="midnightblue" points="656.39,-163.63 663.37,-155.66 652.94,-157.53 656.39,-163.63"/>
</g>
<!-- Node3 -->
<g id="node3" class="node">
<title>Node3</title>
<g id="a_node3"><a xlink:href="../../dd/d0e/namespaceuxn_1_1patl_1_1impl.html#ab8658e1567a49e276e6cf8eae9b9192b" target="_top" xlink:title=" ">
<polygon fill="none" stroke="black" points="471.5,-147.5 471.5,-177.5 580.5,-177.5 580.5,-147.5 471.5,-147.5"/>
<text text-anchor="start" x="479.5" y="-165.5" font-family="Helvetica,sans-Serif" font-size="10.00">uxn::patl::impl::get</text>
<text text-anchor="middle" x="526" y="-154.5" font-family="Helvetica,sans-Serif" font-size="10.00">_binary_lca</text>
</a>
</g>
</g>
<!-- Node1&#45;&gt;Node3 -->
<g id="edge2" class="edge">
<title>Node1&#45;&gt;Node3</title>
<path fill="none" stroke="midnightblue" d="M624.74,-149.19C610.11,-151.18 594.69,-153.28 580.54,-155.21"/>
<polygon fill="midnightblue" stroke="midnightblue" points="625.29,-152.64 634.72,-147.83 624.34,-145.71 625.29,-152.64"/>
</g>
<!-- Node4 -->
<g id="node4" class="node">
<title>Node4</title>
<g id="a_node4"><a xlink:href="../../da/dd4/classuxn_1_1patl_1_1lca__oracle.html#ad7b6f03a0f25ab9fbe69b78d3f772ee3" target="_top" xlink:title="return LCA(vx, vy)">
<polygon fill="none" stroke="black" points="302,-147.5 302,-177.5 417,-177.5 417,-147.5 302,-147.5"/>
<text text-anchor="start" x="310" y="-165.5" font-family="Helvetica,sans-Serif" font-size="10.00">uxn::patl::lca_oracle</text>
<text text-anchor="middle" x="359.5" y="-154.5" font-family="Helvetica,sans-Serif" font-size="10.00">::operator()</text>
</a>
</g>
</g>
<!-- Node1&#45;&gt;Node4 -->
<g id="edge12" class="edge">
<title>Node1&#45;&gt;Node4</title>
<path fill="none" stroke="midnightblue" d="M624.8,-135.32C577.26,-132.58 510.81,-131.12 453,-138.5 438.52,-140.35 423.06,-143.76 409.01,-147.45"/>
<polygon fill="midnightblue" stroke="midnightblue" points="624.75,-138.83 634.94,-135.94 625.18,-131.84 624.75,-138.83"/>
</g>
<!-- Node5 -->
<g id="node5" class="node">
<title>Node5</title>
<g id="a_node5"><a xlink:href="../../d3/d99/classuxn_1_1patl_1_1impl_1_1lca__base.html#a7831e83952fd7bae4bac103e7fb38b07" target="_top" xlink:title=" ">
<polygon fill="none" stroke="black" points="472.5,-54.5 472.5,-84.5 579.5,-84.5 579.5,-54.5 472.5,-54.5"/>
<text text-anchor="start" x="480.5" y="-72.5" font-family="Helvetica,sans-Serif" font-size="10.00">uxn::patl::impl::lca</text>
<text text-anchor="middle" x="526" y="-61.5" font-family="Helvetica,sans-Serif" font-size="10.00">_base::height</text>
</a>
</g>
</g>
<!-- Node1&#45;&gt;Node5 -->
<g id="edge4" class="edge">
<title>Node1&#45;&gt;Node5</title>
<path fill="none" stroke="midnightblue" d="M644.9,-121.33C618.61,-109.77 585.6,-95.26 561.2,-84.54"/>
<polygon fill="midnightblue" stroke="midnightblue" points="643.69,-124.62 654.25,-125.44 646.5,-118.21 643.69,-124.62"/>
</g>
<!-- Node3&#45;&gt;Node4 -->
<g id="edge3" class="edge">
<title>Node3&#45;&gt;Node4</title>
<path fill="none" stroke="midnightblue" d="M460.79,-162.5C446.35,-162.5 431.13,-162.5 417.03,-162.5"/>
<polygon fill="midnightblue" stroke="midnightblue" points="461.14,-166 471.14,-162.5 461.14,-159 461.14,-166"/>
</g>
<!-- Node6 -->
<g id="node6" class="node">
<title>Node6</title>
<g id="a_node6"><a xlink:href="../../d3/d99/classuxn_1_1patl_1_1impl_1_1lca__base.html#a3540be4c43efc2d73e6eb4fff29ca02f" target="_top" xlink:title=" ">
<polygon fill="none" stroke="black" points="306,-98.5 306,-128.5 413,-128.5 413,-98.5 306,-98.5"/>
<text text-anchor="start" x="314" y="-116.5" font-family="Helvetica,sans-Serif" font-size="10.00">uxn::patl::impl::lca</text>
<text text-anchor="middle" x="359.5" y="-105.5" font-family="Helvetica,sans-Serif" font-size="10.00">_base::set_root_a</text>
</a>
</g>
</g>
<!-- Node5&#45;&gt;Node6 -->
<g id="edge5" class="edge">
<title>Node5&#45;&gt;Node6</title>
<path fill="none" stroke="midnightblue" d="M462.51,-86.21C446.21,-90.58 428.8,-95.23 413.07,-99.44"/>
<polygon fill="midnightblue" stroke="midnightblue" points="463.74,-89.51 472.5,-83.54 461.93,-82.75 463.74,-89.51"/>
</g>
<!-- Node9 -->
<g id="node9" class="node">
<title>Node9</title>
<g id="a_node9"><a xlink:href="../../d3/d99/classuxn_1_1patl_1_1impl_1_1lca__base.html#a07985b19f37045ac194dfd36e51c98a8" target="_top" xlink:title=" ">
<polygon fill="none" stroke="black" points="306,-49.5 306,-79.5 413,-79.5 413,-49.5 306,-49.5"/>
<text text-anchor="start" x="314" y="-67.5" font-family="Helvetica,sans-Serif" font-size="10.00">uxn::patl::impl::lca</text>
<text text-anchor="middle" x="359.5" y="-56.5" font-family="Helvetica,sans-Serif" font-size="10.00">_base::setup_a</text>
</a>
</g>
</g>
<!-- Node5&#45;&gt;Node9 -->
<g id="edge8" class="edge">
<title>Node5&#45;&gt;Node9</title>
<path fill="none" stroke="midnightblue" d="M462.05,-67.59C445.88,-67.1 428.65,-66.57 413.07,-66.1"/>
<polygon fill="midnightblue" stroke="midnightblue" points="462.4,-71.1 472.5,-67.9 462.61,-64.1 462.4,-71.1"/>
</g>
<!-- Node10 -->
<g id="node10" class="node">
<title>Node10</title>
<g id="a_node10"><a xlink:href="../../d3/d99/classuxn_1_1patl_1_1impl_1_1lca__base.html#a0e8bd2ff48e9664e8c8346a330b574e4" target="_top" xlink:title=" ">
<polygon fill="none" stroke="black" points="306,-0.5 306,-30.5 413,-30.5 413,-0.5 306,-0.5"/>
<text text-anchor="start" x="314" y="-18.5" font-family="Helvetica,sans-Serif" font-size="10.00">uxn::patl::impl::lca</text>
<text text-anchor="middle" x="359.5" y="-7.5" font-family="Helvetica,sans-Serif" font-size="10.00">_base::setup_i</text>
</a>
</g>
</g>
<!-- Node5&#45;&gt;Node10 -->
<g id="edge10" class="edge">
<title>Node5&#45;&gt;Node10</title>
<path fill="none" stroke="midnightblue" d="M469.62,-51.32C449.06,-44.57 425.98,-37 406.36,-30.55"/>
<polygon fill="midnightblue" stroke="midnightblue" points="468.58,-54.66 479.18,-54.46 470.77,-48.01 468.58,-54.66"/>
</g>
<!-- Node7 -->
<g id="node7" class="node">
<title>Node7</title>
<g id="a_node7"><a xlink:href="../../da/dd4/classuxn_1_1patl_1_1lca__oracle.html#a3fcbb3309989696abb5902827675ef3e" target="_top" xlink:title=" ">
<polygon fill="none" stroke="black" points="151,-49.5 151,-79.5 266,-79.5 266,-49.5 151,-49.5"/>
<text text-anchor="start" x="159" y="-67.5" font-family="Helvetica,sans-Serif" font-size="10.00">uxn::patl::lca_oracle</text>
<text text-anchor="middle" x="208.5" y="-56.5" font-family="Helvetica,sans-Serif" font-size="10.00">::init</text>
</a>
</g>
</g>
<!-- Node6&#45;&gt;Node7 -->
<g id="edge6" class="edge">
<title>Node6&#45;&gt;Node7</title>
<path fill="none" stroke="midnightblue" d="M302.98,-95.24C287.26,-90.07 270.34,-84.51 255.27,-79.55"/>
<polygon fill="midnightblue" stroke="midnightblue" points="301.99,-98.6 312.58,-98.4 304.17,-91.95 301.99,-98.6"/>
</g>
<!-- Node8 -->
<g id="node8" class="node">
<title>Node8</title>
<g id="a_node8"><a xlink:href="../../da/dd4/classuxn_1_1patl_1_1lca__oracle.html#a71f8a48399f1618a14849c8a3006fbfe" target="_top" xlink:title="ctor">
<polygon fill="none" stroke="black" points="0,-49.5 0,-79.5 115,-79.5 115,-49.5 0,-49.5"/>
<text text-anchor="start" x="8" y="-67.5" font-family="Helvetica,sans-Serif" font-size="10.00">uxn::patl::lca_oracle</text>
<text text-anchor="middle" x="57.5" y="-56.5" font-family="Helvetica,sans-Serif" font-size="10.00">::lca_oracle</text>
</a>
</g>
</g>
<!-- Node7&#45;&gt;Node8 -->
<g id="edge7" class="edge">
<title>Node7&#45;&gt;Node8</title>
<path fill="none" stroke="midnightblue" d="M140.49,-64.5C132.01,-64.5 123.4,-64.5 115.1,-64.5"/>
<polygon fill="midnightblue" stroke="midnightblue" points="140.74,-68 150.74,-64.5 140.74,-61 140.74,-68"/>
</g>
<!-- Node9&#45;&gt;Node7 -->
<g id="edge9" class="edge">
<title>Node9&#45;&gt;Node7</title>
<path fill="none" stroke="midnightblue" d="M295.83,-64.5C285.97,-64.5 275.82,-64.5 266.11,-64.5"/>
<polygon fill="midnightblue" stroke="midnightblue" points="295.97,-68 305.97,-64.5 295.97,-61 295.97,-68"/>
</g>
<!-- Node10&#45;&gt;Node7 -->
<g id="edge11" class="edge">
<title>Node10&#45;&gt;Node7</title>
<path fill="none" stroke="midnightblue" d="M302.98,-33.76C287.26,-38.93 270.34,-44.49 255.27,-49.45"/>
<polygon fill="midnightblue" stroke="midnightblue" points="304.17,-37.05 312.58,-30.6 301.99,-30.4 304.17,-37.05"/>
</g>
</g>
</svg>
