<?xml version="1.0" encoding="UTF-8" standalone="no"?>
<!DOCTYPE svg PUBLIC "-//W3C//DTD SVG 1.1//EN"
 "http://www.w3.org/Graphics/SVG/1.1/DTD/svg11.dtd">
<!-- Generated by graphviz version 5.0.1 (20220820.1526)
 -->
<!-- Title: uxn::patl::impl::unsigned_cast Pages: 1 -->
<svg width="523pt" height="176pt"
 viewBox="0.00 0.00 523.00 175.50" xmlns="http://www.w3.org/2000/svg" xmlns:xlink="http://www.w3.org/1999/xlink">
<g id="graph0" class="graph" transform="scale(1 1) rotate(0) translate(4 171.5)">
<title>uxn::patl::impl::unsigned_cast</title>
<!-- Node1 -->
<g id="node1" class="node">
<title>Node1</title>
<g id="a_node1"><a xlink:title=" ">
<polygon fill="#bfbfbf" stroke="black" points="352,-68.5 352,-87.5 515,-87.5 515,-68.5 352,-68.5"/>
<text text-anchor="middle" x="433.5" y="-75.5" font-family="Helvetica,sans-Serif" font-size="10.00">uxn::patl::impl::unsigned_cast</text>
</a>
</g>
</g>
<!-- Node2 -->
<g id="node2" class="node">
<title>Node2</title>
<g id="a_node2"><a xlink:href="../../dd/d0e/namespaceuxn_1_1patl_1_1impl.html#acbcc8d4c2223361c247be1441ccfe37d" target="_top" xlink:title=" ">
<polygon fill="none" stroke="black" points="193,-137 193,-167 299,-167 299,-137 193,-137"/>
<text text-anchor="start" x="201" y="-155" font-family="Helvetica,sans-Serif" font-size="10.00">uxn::patl::impl::bit</text>
<text text-anchor="middle" x="246" y="-144" font-family="Helvetica,sans-Serif" font-size="10.00">_mismatch_scalar</text>
</a>
</g>
</g>
<!-- Node1&#45;&gt;Node2 -->
<g id="edge1" class="edge">
<title>Node1&#45;&gt;Node2</title>
<path fill="none" stroke="midnightblue" d="M401.84,-91.86C378.49,-102.25 345.45,-116.58 316,-128 308.2,-131.03 299.83,-134.09 291.71,-136.97"/>
<polygon fill="midnightblue" stroke="midnightblue" points="403.51,-94.95 411.21,-87.67 400.66,-88.56 403.51,-94.95"/>
</g>
<!-- Node4 -->
<g id="node4" class="node">
<title>Node4</title>
<g id="a_node4"><a xlink:href="../../de/d77/classuxn_1_1patl_1_1bit__comparator_3_01T_00_010_01_4.html#a6c7136457b43dd12a776b1269cb51829" target="_top" xlink:title="return bit by id in key (must be 0 or 1)">
<polygon fill="none" stroke="black" points="176,-88 176,-118 316,-118 316,-88 176,-88"/>
<text text-anchor="start" x="184" y="-106" font-family="Helvetica,sans-Serif" font-size="10.00">uxn::patl::bit_comparator</text>
<text text-anchor="middle" x="246" y="-95" font-family="Helvetica,sans-Serif" font-size="10.00">&lt; T, 0 &gt;::get_bit</text>
</a>
</g>
</g>
<!-- Node1&#45;&gt;Node4 -->
<g id="edge3" class="edge">
<title>Node1&#45;&gt;Node4</title>
<path fill="none" stroke="midnightblue" d="M351.58,-88.91C339.8,-90.49 327.76,-92.12 316.24,-93.67"/>
<polygon fill="midnightblue" stroke="midnightblue" points="352.4,-92.33 361.84,-87.52 351.46,-85.39 352.4,-92.33"/>
</g>
<!-- Node5 -->
<g id="node5" class="node">
<title>Node5</title>
<g id="a_node5"><a xlink:href="../../d2/d6e/classuxn_1_1patl_1_1bit__comparator_3_01T_00_018_01_4.html#a7211841d90618f50d05c753b70e18eb2" target="_top" xlink:title=" ">
<polygon fill="none" stroke="black" points="176,-39 176,-69 316,-69 316,-39 176,-39"/>
<text text-anchor="start" x="184" y="-57" font-family="Helvetica,sans-Serif" font-size="10.00">uxn::patl::bit_comparator</text>
<text text-anchor="middle" x="246" y="-46" font-family="Helvetica,sans-Serif" font-size="10.00">&lt; T, 8 &gt;::get_bits</text>
</a>
</g>
</g>
<!-- Node1&#45;&gt;Node5 -->
<g id="edge4" class="edge">
<title>Node1&#45;&gt;Node5</title>
<path fill="none" stroke="midnightblue" d="M348.95,-67.19C338.02,-65.78 326.92,-64.34 316.26,-62.96"/>
<polygon fill="midnightblue" stroke="midnightblue" points="348.55,-70.67 358.92,-68.48 349.45,-63.73 348.55,-70.67"/>
</g>
<!-- Node6 -->
<g id="node6" class="node">
<title>Node6</title>
<g id="a_node6"><a xlink:href="../../d3/d87/lz77_8cpp.html#a96bf5c98cb36266e461ecf6f31ac3aa7" target="_top" xlink:title=" ">
<polygon fill="none" stroke="black" points="207.5,-0.5 207.5,-19.5 284.5,-19.5 284.5,-0.5 207.5,-0.5"/>
<text text-anchor="middle" x="246" y="-7.5" font-family="Helvetica,sans-Serif" font-size="10.00">lz_compress</text>
</a>
</g>
</g>
<!-- Node1&#45;&gt;Node6 -->
<g id="edge5" class="edge">
<title>Node1&#45;&gt;Node6</title>
<path fill="none" stroke="midnightblue" d="M402.44,-64.09C379.16,-53.63 345.93,-39.37 316,-29 305.9,-25.5 294.8,-22.21 284.51,-19.38"/>
<polygon fill="midnightblue" stroke="midnightblue" points="401.22,-67.38 411.77,-68.32 404.11,-61 401.22,-67.38"/>
</g>
<!-- Node3 -->
<g id="node3" class="node">
<title>Node3</title>
<g id="a_node3"><a xlink:href="../../de/d77/classuxn_1_1patl_1_1bit__comparator_3_01T_00_010_01_4.html#ae1dded46b4aef36a44547577ade90d28" target="_top" xlink:title="return id of first mismatch bit, ~word_t(0) if keys are equal">
<polygon fill="none" stroke="black" points="0,-137 0,-167 140,-167 140,-137 0,-137"/>
<text text-anchor="start" x="8" y="-155" font-family="Helvetica,sans-Serif" font-size="10.00">uxn::patl::bit_comparator</text>
<text text-anchor="middle" x="70" y="-144" font-family="Helvetica,sans-Serif" font-size="10.00">&lt; T, 0 &gt;::bit_mismatch</text>
</a>
</g>
</g>
<!-- Node2&#45;&gt;Node3 -->
<g id="edge2" class="edge">
<title>Node2&#45;&gt;Node3</title>
<path fill="none" stroke="midnightblue" d="M182.51,-152C168.79,-152 154.2,-152 140.24,-152"/>
<polygon fill="midnightblue" stroke="midnightblue" points="182.79,-155.5 192.79,-152 182.79,-148.5 182.79,-155.5"/>
</g>
<!-- Node7 -->
<g id="node7" class="node">
<title>Node7</title>
<g id="a_node7"><a xlink:href="../../d3/d87/lz77_8cpp.html#a0ddf1224851353fc92bfbff6f499fa97" target="_top" xlink:title=" ">
<polygon fill="none" stroke="black" points="49.5,-0.5 49.5,-19.5 90.5,-19.5 90.5,-0.5 49.5,-0.5"/>
<text text-anchor="middle" x="70" y="-7.5" font-family="Helvetica,sans-Serif" font-size="10.00">main</text>
</a>
</g>
</g>
<!-- Node6&#45;&gt;Node7 -->
<g id="edge6" class="edge">
<title>Node6&#45;&gt;Node7</title>
<path fill="none" stroke="midnightblue" d="M197.23,-10C162.25,-10 116.57,-10 90.85,-10"/>
<polygon fill="midnightblue" stroke="midnightblue" points="197.24,-13.5 207.24,-10 197.24,-6.5 197.24,-13.5"/>
</g>
</g>
</svg>
