<?xml version="1.0" encoding="UTF-8" standalone="no"?>
<!DOCTYPE svg PUBLIC "-//W3C//DTD SVG 1.1//EN"
 "http://www.w3.org/Graphics/SVG/1.1/DTD/svg11.dtd">
<!-- Generated by graphviz version 5.0.1 (20220820.1526)
 -->
<!-- Title: uxn::patl::impl::bits_but_highest Pages: 1 -->
<svg width="485pt" height="284pt"
 viewBox="0.00 0.00 485.00 284.00" xmlns="http://www.w3.org/2000/svg" xmlns:xlink="http://www.w3.org/1999/xlink">
<g id="graph0" class="graph" transform="scale(1 1) rotate(0) translate(4 280)">
<title>uxn::patl::impl::bits_but_highest</title>
<!-- Node1 -->
<g id="node1" class="node">
<title>Node1</title>
<g id="a_node1"><a xlink:title=" ">
<polygon fill="#bfbfbf" stroke="black" points="366,-122.5 366,-152.5 477,-152.5 477,-122.5 366,-122.5"/>
<text text-anchor="start" x="374" y="-140.5" font-family="Helvetica,sans-Serif" font-size="10.00">uxn::patl::impl::bits</text>
<text text-anchor="middle" x="421.5" y="-129.5" font-family="Helvetica,sans-Serif" font-size="10.00">_but_highest</text>
</a>
</g>
</g>
<!-- Node2 -->
<g id="node2" class="node">
<title>Node2</title>
<g id="a_node2"><a xlink:href="../../d6/d48/classuxn_1_1patl_1_1maxrep__iterator.html#a97c850c7460a5f2c6adc33122e306c21" target="_top" xlink:title=" ">
<polygon fill="none" stroke="black" points="183,-245.5 183,-275.5 327,-275.5 327,-245.5 183,-245.5"/>
<text text-anchor="start" x="191" y="-263.5" font-family="Helvetica,sans-Serif" font-size="10.00">uxn::patl::maxrep_iterator</text>
<text text-anchor="middle" x="255" y="-252.5" font-family="Helvetica,sans-Serif" font-size="10.00">::freq</text>
</a>
</g>
</g>
<!-- Node1&#45;&gt;Node2 -->
<g id="edge1" class="edge">
<title>Node1&#45;&gt;Node2</title>
<path fill="none" stroke="midnightblue" d="M404.48,-161.15C388.17,-183.53 360.94,-216.58 330,-236.5 324.66,-239.94 318.79,-242.92 312.76,-245.5"/>
<polygon fill="midnightblue" stroke="midnightblue" points="407.43,-163.04 410.38,-152.86 401.73,-158.98 407.43,-163.04"/>
</g>
<!-- Node3 -->
<g id="node3" class="node">
<title>Node3</title>
<g id="a_node3"><a xlink:href="../../d6/d48/classuxn_1_1patl_1_1maxrep__iterator.html#a0ec0db814df083ee818f60ec0eba1560" target="_top" xlink:title=" ">
<polygon fill="none" stroke="black" points="183,-196.5 183,-226.5 327,-226.5 327,-196.5 183,-196.5"/>
<text text-anchor="start" x="191" y="-214.5" font-family="Helvetica,sans-Serif" font-size="10.00">uxn::patl::maxrep_iterator</text>
<text text-anchor="middle" x="255" y="-203.5" font-family="Helvetica,sans-Serif" font-size="10.00">::merge</text>
</a>
</g>
</g>
<!-- Node1&#45;&gt;Node3 -->
<g id="edge2" class="edge">
<title>Node1&#45;&gt;Node3</title>
<path fill="none" stroke="midnightblue" d="M387.31,-157.84C370.52,-167.61 349.59,-179 330,-187.5 322.69,-190.67 314.82,-193.65 307.03,-196.37"/>
<polygon fill="midnightblue" stroke="midnightblue" points="389.34,-160.7 396.18,-152.61 385.79,-154.67 389.34,-160.7"/>
</g>
<!-- Node5 -->
<g id="node5" class="node">
<title>Node5</title>
<g id="a_node5"><a xlink:href="../../d9/db8/classuxn_1_1patl_1_1impl_1_1levenshtein__generic.html#a555c39d22aaab62b92d52e0efc0663e0" target="_top" xlink:title=" ">
<polygon fill="none" stroke="black" points="180,-147.5 180,-177.5 330,-177.5 330,-147.5 180,-147.5"/>
<text text-anchor="start" x="188" y="-165.5" font-family="Helvetica,sans-Serif" font-size="10.00">uxn::patl::impl::levenshtein</text>
<text text-anchor="middle" x="255" y="-154.5" font-family="Helvetica,sans-Serif" font-size="10.00">_generic::operator()</text>
</a>
</g>
</g>
<!-- Node1&#45;&gt;Node5 -->
<g id="edge4" class="edge">
<title>Node1&#45;&gt;Node5</title>
<path fill="none" stroke="midnightblue" d="M355.66,-147.35C347.29,-148.63 338.66,-149.94 330.16,-151.23"/>
<polygon fill="midnightblue" stroke="midnightblue" points="356.36,-150.79 365.72,-145.82 355.31,-143.87 356.36,-150.79"/>
</g>
<!-- Node6 -->
<g id="node6" class="node">
<title>Node6</title>
<g id="a_node6"><a xlink:href="../../d0/d55/classuxn_1_1patl_1_1impl_1_1trie__generic_3_01T_00_010_01_4.html#a992c8fa4298d20de1cdbcf4043dad46e" target="_top" xlink:title="deserialize trie">
<polygon fill="none" stroke="black" points="192,-98.5 192,-128.5 318,-128.5 318,-98.5 192,-98.5"/>
<text text-anchor="start" x="200" y="-116.5" font-family="Helvetica,sans-Serif" font-size="10.00">uxn::patl::impl::trie</text>
<text text-anchor="middle" x="255" y="-105.5" font-family="Helvetica,sans-Serif" font-size="10.00">_generic&lt; T, 0 &gt;::read</text>
</a>
</g>
</g>
<!-- Node1&#45;&gt;Node6 -->
<g id="edge5" class="edge">
<title>Node1&#45;&gt;Node6</title>
<path fill="none" stroke="midnightblue" d="M355.55,-128.02C343.25,-126.23 330.42,-124.36 318.21,-122.58"/>
<polygon fill="midnightblue" stroke="midnightblue" points="355.32,-131.53 365.72,-129.51 356.33,-124.6 355.32,-131.53"/>
</g>
<!-- Node7 -->
<g id="node7" class="node">
<title>Node7</title>
<g id="a_node7"><a xlink:href="../../d5/dbf/classuxn_1_1patl_1_1levenshtein__tp__distance.html#a74de5777de345966816406a76c975c6b" target="_top" xlink:title=" ">
<polygon fill="none" stroke="black" points="187,-49.5 187,-79.5 323,-79.5 323,-49.5 187,-49.5"/>
<text text-anchor="start" x="195" y="-67.5" font-family="Helvetica,sans-Serif" font-size="10.00">uxn::patl::levenshtein</text>
<text text-anchor="middle" x="255" y="-56.5" font-family="Helvetica,sans-Serif" font-size="10.00">_tp_distance::transitions</text>
</a>
</g>
</g>
<!-- Node1&#45;&gt;Node7 -->
<g id="edge6" class="edge">
<title>Node1&#45;&gt;Node7</title>
<path fill="none" stroke="midnightblue" d="M386.09,-117.56C369.46,-108.36 349.02,-97.69 330,-89.5 321.78,-85.96 312.88,-82.58 304.2,-79.52"/>
<polygon fill="midnightblue" stroke="midnightblue" points="384.47,-120.67 394.91,-122.5 387.89,-114.56 384.47,-120.67"/>
</g>
<!-- Node8 -->
<g id="node8" class="node">
<title>Node8</title>
<g id="a_node8"><a xlink:href="../../d7/d2a/classuxn_1_1patl_1_1levenshtein__ms__distance.html#a89609f4712441e425dc64e709f35f1c2" target="_top" xlink:title=" ">
<polygon fill="none" stroke="black" points="184.5,-0.5 184.5,-30.5 325.5,-30.5 325.5,-0.5 184.5,-0.5"/>
<text text-anchor="start" x="192.5" y="-18.5" font-family="Helvetica,sans-Serif" font-size="10.00">uxn::patl::levenshtein</text>
<text text-anchor="middle" x="255" y="-7.5" font-family="Helvetica,sans-Serif" font-size="10.00">_ms_distance::transitions</text>
</a>
</g>
</g>
<!-- Node1&#45;&gt;Node8 -->
<g id="edge7" class="edge">
<title>Node1&#45;&gt;Node8</title>
<path fill="none" stroke="midnightblue" d="M404.04,-114.05C387.59,-92.2 360.41,-60.12 330,-40.5 324.07,-36.68 317.5,-33.38 310.79,-30.54"/>
<polygon fill="midnightblue" stroke="midnightblue" points="401.26,-116.18 410.01,-122.16 406.9,-112.03 401.26,-116.18"/>
</g>
<!-- Node4 -->
<g id="node4" class="node">
<title>Node4</title>
<g id="a_node4"><a xlink:href="../../d0/da8/structuxn_1_1patl_1_1maxrep__iterator_1_1functor.html#aeae16c3df455a9fff62695dede3bdcda" target="_top" xlink:title=" ">
<polygon fill="none" stroke="black" points="0,-196.5 0,-226.5 144,-226.5 144,-196.5 0,-196.5"/>
<text text-anchor="start" x="8" y="-214.5" font-family="Helvetica,sans-Serif" font-size="10.00">uxn::patl::maxrep_iterator</text>
<text text-anchor="middle" x="72" y="-203.5" font-family="Helvetica,sans-Serif" font-size="10.00">::functor::merge</text>
</a>
</g>
</g>
<!-- Node3&#45;&gt;Node4 -->
<g id="edge3" class="edge">
<title>Node3&#45;&gt;Node4</title>
<path fill="none" stroke="midnightblue" d="M172.71,-211.5C163.17,-211.5 153.49,-211.5 144.11,-211.5"/>
<polygon fill="midnightblue" stroke="midnightblue" points="172.98,-215 182.98,-211.5 172.98,-208 172.98,-215"/>
</g>
</g>
</svg>
