<?xml version="1.0" encoding="UTF-8" standalone="no"?>
<!DOCTYPE svg PUBLIC "-//W3C//DTD SVG 1.1//EN"
 "http://www.w3.org/Graphics/SVG/1.1/DTD/svg11.dtd">
<!-- Generated by graphviz version 5.0.1 (20220820.1526)
 -->
<!-- Title: uxn::patl::impl::get_min Pages: 1 -->
<svg width="488pt" height="418pt"
 viewBox="0.00 0.00 488.00 418.00" xmlns="http://www.w3.org/2000/svg" xmlns:xlink="http://www.w3.org/1999/xlink">
<g id="graph0" class="graph" transform="scale(1 1) rotate(0) translate(4 414)">
<title>uxn::patl::impl::get_min</title>
<!-- Node1 -->
<g id="node1" class="node">
<title>Node1</title>
<g id="a_node1"><a xlink:title=" ">
<polygon fill="#bfbfbf" stroke="black" points="347,-215 347,-234 480,-234 480,-215 347,-215"/>
<text text-anchor="middle" x="413.5" y="-222" font-family="Helvetica,sans-Serif" font-size="10.00">uxn::patl::impl::get_min</text>
</a>
</g>
</g>
<!-- Node2 -->
<g id="node2" class="node">
<title>Node2</title>
<g id="a_node2"><a xlink:href="../../d7/d4d/classuxn_1_1patl_1_1aux_1_1file__mapping__input.html#aef3488c27cb58023534d94be82083141" target="_top" xlink:title=" ">
<polygon fill="none" stroke="black" points="151,-379.5 151,-409.5 311,-409.5 311,-379.5 151,-379.5"/>
<text text-anchor="start" x="159" y="-397.5" font-family="Helvetica,sans-Serif" font-size="10.00">uxn::patl::aux::file</text>
<text text-anchor="middle" x="231" y="-386.5" font-family="Helvetica,sans-Serif" font-size="10.00">_mapping_input::create_view</text>
</a>
</g>
</g>
<!-- Node1&#45;&gt;Node2 -->
<g id="edge1" class="edge">
<title>Node1&#45;&gt;Node2</title>
<path fill="none" stroke="midnightblue" d="M404.21,-243.52C389.77,-274.47 357.07,-335.68 311,-369.5 305.78,-373.33 299.96,-376.59 293.9,-379.35"/>
<polygon fill="midnightblue" stroke="midnightblue" points="407.47,-244.82 408.4,-234.27 401.09,-241.93 407.47,-244.82"/>
</g>
<!-- Node3 -->
<g id="node3" class="node">
<title>Node3</title>
<g id="a_node3"><a xlink:href="../../d6/dae/classuxn_1_1patl_1_1impl_1_1primes.html#ae82db88573cbbdc675f0ca01093df0eb" target="_top" xlink:title=" ">
<polygon fill="none" stroke="black" points="158,-341 158,-360 304,-360 304,-341 158,-341"/>
<text text-anchor="middle" x="231" y="-348" font-family="Helvetica,sans-Serif" font-size="10.00">uxn::patl::impl::primes::for</text>
</a>
</g>
</g>
<!-- Node1&#45;&gt;Node3 -->
<g id="edge2" class="edge">
<title>Node1&#45;&gt;Node3</title>
<path fill="none" stroke="midnightblue" d="M400.52,-242.52C383.54,-266.62 350.12,-308.9 311,-331.5 304.28,-335.38 296.8,-338.47 289.2,-340.93"/>
<polygon fill="midnightblue" stroke="midnightblue" points="403.42,-244.48 406.21,-234.26 397.66,-240.52 403.42,-244.48"/>
</g>
<!-- Node4 -->
<g id="node4" class="node">
<title>Node4</title>
<g id="a_node4"><a xlink:href="../../dd/d0e/namespaceuxn_1_1patl_1_1impl.html#ab8658e1567a49e276e6cf8eae9b9192b" target="_top" xlink:title=" ">
<polygon fill="none" stroke="black" points="176.5,-291.5 176.5,-321.5 285.5,-321.5 285.5,-291.5 176.5,-291.5"/>
<text text-anchor="start" x="184.5" y="-309.5" font-family="Helvetica,sans-Serif" font-size="10.00">uxn::patl::impl::get</text>
<text text-anchor="middle" x="231" y="-298.5" font-family="Helvetica,sans-Serif" font-size="10.00">_binary_lca</text>
</a>
</g>
</g>
<!-- Node1&#45;&gt;Node4 -->
<g id="edge3" class="edge">
<title>Node1&#45;&gt;Node4</title>
<path fill="none" stroke="midnightblue" d="M389.02,-239.52C368.89,-251.94 338.82,-269.44 311,-281.5 302.68,-285.1 293.68,-288.45 284.82,-291.44"/>
<polygon fill="midnightblue" stroke="midnightblue" points="390.9,-242.47 397.53,-234.2 387.19,-236.53 390.9,-242.47"/>
</g>
<!-- Node6 -->
<g id="node6" class="node">
<title>Node6</title>
<g id="a_node6"><a xlink:href="../../d6/ddf/namespaceuxn_1_1patl.html#a82ff9445d7a122700f0e8af6b6980c62" target="_top" xlink:title=" ">
<polygon fill="none" stroke="black" points="180.5,-253 180.5,-272 281.5,-272 281.5,-253 180.5,-253"/>
<text text-anchor="middle" x="231" y="-260" font-family="Helvetica,sans-Serif" font-size="10.00">uxn::patl::get_lce</text>
</a>
</g>
</g>
<!-- Node1&#45;&gt;Node6 -->
<g id="edge5" class="edge">
<title>Node1&#45;&gt;Node6</title>
<path fill="none" stroke="midnightblue" d="M357.02,-236.18C331.42,-241.57 301.42,-247.89 277.22,-252.98"/>
<polygon fill="midnightblue" stroke="midnightblue" points="357.89,-239.57 366.95,-234.09 356.45,-232.72 357.89,-239.57"/>
</g>
<!-- Node7 -->
<g id="node7" class="node">
<title>Node7</title>
<g id="a_node7"><a xlink:href="../../d7/d82/maxpals_8cpp.html#ae66f6b31b5ad750f1fe042a706a4e3d4" target="_top" xlink:title=" ">
<polygon fill="none" stroke="black" points="210.5,-215 210.5,-234 251.5,-234 251.5,-215 210.5,-215"/>
<text text-anchor="middle" x="231" y="-222" font-family="Helvetica,sans-Serif" font-size="10.00">main</text>
</a>
</g>
</g>
<!-- Node1&#45;&gt;Node7 -->
<g id="edge6" class="edge">
<title>Node1&#45;&gt;Node7</title>
<path fill="none" stroke="midnightblue" d="M336.44,-224.5C305.48,-224.5 272.24,-224.5 251.78,-224.5"/>
<polygon fill="midnightblue" stroke="midnightblue" points="336.82,-228 346.82,-224.5 336.82,-221 336.82,-228"/>
</g>
<!-- Node8 -->
<g id="node8" class="node">
<title>Node8</title>
<g id="a_node8"><a xlink:href="../../d3/d1f/classuxn_1_1patl_1_1impl_1_1algorithm__generic_3_01T_00_01This_00_01Container_00_010_01_4.html#aa0c9f21c8dc108a2677f0b19e9d220f8" target="_top" xlink:title="find node with nearest key and return the number of first mismatching bit">
<polygon fill="none" stroke="black" points="152,-155 152,-196 310,-196 310,-155 152,-155"/>
<text text-anchor="start" x="160" y="-184" font-family="Helvetica,sans-Serif" font-size="10.00">uxn::patl::impl::algorithm</text>
<text text-anchor="start" x="160" y="-173" font-family="Helvetica,sans-Serif" font-size="10.00">_generic&lt; T, This, Container,</text>
<text text-anchor="middle" x="231" y="-162" font-family="Helvetica,sans-Serif" font-size="10.00"> 0 &gt;::mismatch</text>
</a>
</g>
</g>
<!-- Node1&#45;&gt;Node8 -->
<g id="edge7" class="edge">
<title>Node1&#45;&gt;Node8</title>
<path fill="none" stroke="midnightblue" d="M367.6,-212.31C349.53,-207.41 328.19,-201.61 307.85,-196.09"/>
<polygon fill="midnightblue" stroke="midnightblue" points="366.7,-215.69 377.27,-214.94 368.54,-208.94 366.7,-215.69"/>
</g>
<!-- Node9 -->
<g id="node9" class="node">
<title>Node9</title>
<g id="a_node9"><a xlink:href="../../d2/d55/multi__align_8cpp.html#a8bb6226b18c9169ccad9269f94d55e27" target="_top" xlink:title=" ">
<polygon fill="none" stroke="black" points="153.5,-99 153.5,-118 308.5,-118 308.5,-99 153.5,-99"/>
<text text-anchor="middle" x="231" y="-106" font-family="Helvetica,sans-Serif" font-size="10.00">multiple_common_substring</text>
</a>
</g>
</g>
<!-- Node1&#45;&gt;Node9 -->
<g id="edge8" class="edge">
<title>Node1&#45;&gt;Node9</title>
<path fill="none" stroke="midnightblue" d="M394.24,-208.25C374.6,-191.26 341.99,-164.49 311,-145.5 293.31,-134.66 271.93,-124.83 255.87,-118.03"/>
<polygon fill="midnightblue" stroke="midnightblue" points="391.99,-210.93 401.83,-214.88 396.6,-205.66 391.99,-210.93"/>
</g>
<!-- Node11 -->
<g id="node11" class="node">
<title>Node11</title>
<g id="a_node11"><a xlink:href="../../d8/dfe/classuxn_1_1patl_1_1levenshtein__distance.html#a77010ca3d657857e96cf1a0adcc2eee4" target="_top" xlink:title=" ">
<polygon fill="none" stroke="black" points="170,-49.5 170,-79.5 292,-79.5 292,-49.5 170,-49.5"/>
<text text-anchor="start" x="178" y="-67.5" font-family="Helvetica,sans-Serif" font-size="10.00">uxn::patl::levenshtein</text>
<text text-anchor="middle" x="231" y="-56.5" font-family="Helvetica,sans-Serif" font-size="10.00">_distance::transitions</text>
</a>
</g>
</g>
<!-- Node1&#45;&gt;Node11 -->
<g id="edge11" class="edge">
<title>Node1&#45;&gt;Node11</title>
<path fill="none" stroke="midnightblue" d="M403.22,-205.58C387.98,-176.41 354.88,-120.58 311,-89.5 305.25,-85.43 298.8,-81.99 292.14,-79.11"/>
<polygon fill="midnightblue" stroke="midnightblue" points="400.21,-207.37 407.86,-214.7 406.45,-204.2 400.21,-207.37"/>
</g>
<!-- Node12 -->
<g id="node12" class="node">
<title>Node12</title>
<g id="a_node12"><a xlink:href="../../d5/dbf/classuxn_1_1patl_1_1levenshtein__tp__distance.html#a74de5777de345966816406a76c975c6b" target="_top" xlink:title=" ">
<polygon fill="none" stroke="black" points="163,-0.5 163,-30.5 299,-30.5 299,-0.5 163,-0.5"/>
<text text-anchor="start" x="171" y="-18.5" font-family="Helvetica,sans-Serif" font-size="10.00">uxn::patl::levenshtein</text>
<text text-anchor="middle" x="231" y="-7.5" font-family="Helvetica,sans-Serif" font-size="10.00">_tp_distance::transitions</text>
</a>
</g>
</g>
<!-- Node1&#45;&gt;Node12 -->
<g id="edge12" class="edge">
<title>Node1&#45;&gt;Node12</title>
<path fill="none" stroke="midnightblue" d="M407.21,-205.01C395.97,-167.32 366.14,-84.27 311,-39.5 306.77,-36.07 302.06,-33.12 297.1,-30.6"/>
<polygon fill="midnightblue" stroke="midnightblue" points="403.88,-206.11 410,-214.76 410.61,-204.18 403.88,-206.11"/>
</g>
<!-- Node5 -->
<g id="node5" class="node">
<title>Node5</title>
<g id="a_node5"><a xlink:href="../../da/dd4/classuxn_1_1patl_1_1lca__oracle.html#ad7b6f03a0f25ab9fbe69b78d3f772ee3" target="_top" xlink:title="return LCA(vx, vy)">
<polygon fill="none" stroke="black" points="0,-291.5 0,-321.5 115,-321.5 115,-291.5 0,-291.5"/>
<text text-anchor="start" x="8" y="-309.5" font-family="Helvetica,sans-Serif" font-size="10.00">uxn::patl::lca_oracle</text>
<text text-anchor="middle" x="57.5" y="-298.5" font-family="Helvetica,sans-Serif" font-size="10.00">::operator()</text>
</a>
</g>
</g>
<!-- Node4&#45;&gt;Node5 -->
<g id="edge4" class="edge">
<title>Node4&#45;&gt;Node5</title>
<path fill="none" stroke="midnightblue" d="M165.98,-306.5C149.26,-306.5 131.36,-306.5 115.07,-306.5"/>
<polygon fill="midnightblue" stroke="midnightblue" points="166.21,-310 176.21,-306.5 166.21,-303 166.21,-310"/>
</g>
<!-- Node9&#45;&gt;Node9 -->
<g id="edge10" class="edge">
<title>Node9&#45;&gt;Node9</title>
<path fill="none" stroke="midnightblue" d="M263.19,-126.77C262.27,-132.24 251.54,-136.5 231,-136.5 200.43,-136.5 191.59,-127.07 204.49,-118.26"/>
<polygon fill="midnightblue" stroke="midnightblue" points="265.97,-124.64 257.51,-118.26 260.14,-128.52 265.97,-124.64"/>
</g>
<!-- Node10 -->
<g id="node10" class="node">
<title>Node10</title>
<g id="a_node10"><a xlink:href="../../d2/d55/multi__align_8cpp.html#a0ddf1224851353fc92bfbff6f499fa97" target="_top" xlink:title=" ">
<polygon fill="none" stroke="black" points="37,-99 37,-118 78,-118 78,-99 37,-99"/>
<text text-anchor="middle" x="57.5" y="-106" font-family="Helvetica,sans-Serif" font-size="10.00">main</text>
</a>
</g>
</g>
<!-- Node9&#45;&gt;Node10 -->
<g id="edge9" class="edge">
<title>Node9&#45;&gt;Node10</title>
<path fill="none" stroke="midnightblue" d="M143.2,-108.5C118.78,-108.5 94.48,-108.5 78.21,-108.5"/>
<polygon fill="midnightblue" stroke="midnightblue" points="143.28,-112 153.28,-108.5 143.28,-105 143.28,-112"/>
</g>
</g>
</svg>
