<?xml version="1.0" encoding="UTF-8" standalone="no"?>
<!DOCTYPE svg PUBLIC "-//W3C//DTD SVG 1.1//EN"
 "http://www.w3.org/Graphics/SVG/1.1/DTD/svg11.dtd">
<!-- Generated by graphviz version 5.0.1 (20220820.1526)
 -->
<!-- Title: uxn::patl::impl::max0 Pages: 1 -->
<svg width="731pt" height="760pt"
 viewBox="0.00 0.00 731.00 760.00" xmlns="http://www.w3.org/2000/svg" xmlns:xlink="http://www.w3.org/1999/xlink">
<g id="graph0" class="graph" transform="scale(1 1) rotate(0) translate(4 756)">
<title>uxn::patl::impl::max0</title>
<!-- Node1 -->
<g id="node1" class="node">
<title>Node1</title>
<g id="a_node1"><a xlink:title=" ">
<polygon fill="#bfbfbf" stroke="black" points="602,-225 602,-244 723,-244 723,-225 602,-225"/>
<text text-anchor="middle" x="662.5" y="-232" font-family="Helvetica,sans-Serif" font-size="10.00">uxn::patl::impl::max0</text>
</a>
</g>
</g>
<!-- Node2 -->
<g id="node2" class="node">
<title>Node2</title>
<g id="a_node2"><a xlink:href="../../db/dcd/classuxn_1_1patl_1_1impl_1_1trie__generic.html#a49134514a564c6c69cfbb52268ba45ae" target="_top" xlink:title=" ">
<polygon fill="none" stroke="black" points="432.5,-535.5 432.5,-565.5 542.5,-565.5 542.5,-535.5 432.5,-535.5"/>
<text text-anchor="start" x="440.5" y="-553.5" font-family="Helvetica,sans-Serif" font-size="10.00">uxn::patl::impl::trie</text>
<text text-anchor="middle" x="487.5" y="-542.5" font-family="Helvetica,sans-Serif" font-size="10.00">_generic::insert</text>
</a>
</g>
</g>
<!-- Node1&#45;&gt;Node2 -->
<g id="edge1" class="edge">
<title>Node1&#45;&gt;Node2</title>
<path fill="none" stroke="midnightblue" d="M651.17,-253.36C619.71,-310.83 525.47,-482.97 496.84,-535.27"/>
<polygon fill="midnightblue" stroke="midnightblue" points="654.4,-254.76 656.13,-244.3 648.26,-251.39 654.4,-254.76"/>
</g>
<!-- Node12 -->
<g id="node12" class="node">
<title>Node12</title>
<g id="a_node12"><a xlink:href="../../d3/d87/lz77_8cpp.html#a96bf5c98cb36266e461ecf6f31ac3aa7" target="_top" xlink:title=" ">
<polygon fill="none" stroke="black" points="449,-358 449,-377 526,-377 526,-358 449,-358"/>
<text text-anchor="middle" x="487.5" y="-365" font-family="Helvetica,sans-Serif" font-size="10.00">lz_compress</text>
</a>
</g>
</g>
<!-- Node1&#45;&gt;Node12 -->
<g id="edge11" class="edge">
<title>Node1&#45;&gt;Node12</title>
<path fill="none" stroke="midnightblue" d="M651.23,-252.94C636.02,-278.46 605.06,-324.18 566,-348.5 554.12,-355.9 539.55,-360.41 526.27,-363.17"/>
<polygon fill="midnightblue" stroke="midnightblue" points="654.29,-254.63 656.27,-244.23 648.23,-251.13 654.29,-254.63"/>
</g>
<!-- Node14 -->
<g id="node14" class="node">
<title>Node14</title>
<g id="a_node14"><a xlink:href="../../d2/d55/multi__align_8cpp.html#a8bb6226b18c9169ccad9269f94d55e27" target="_top" xlink:title=" ">
<polygon fill="none" stroke="black" points="410,-302 410,-321 565,-321 565,-302 410,-302"/>
<text text-anchor="middle" x="487.5" y="-309" font-family="Helvetica,sans-Serif" font-size="10.00">multiple_common_substring</text>
</a>
</g>
</g>
<!-- Node1&#45;&gt;Node14 -->
<g id="edge13" class="edge">
<title>Node1&#45;&gt;Node14</title>
<path fill="none" stroke="midnightblue" d="M640.23,-250.04C621.51,-263.06 593.1,-281.26 566,-292.5 556.91,-296.27 546.91,-299.41 537.19,-301.98"/>
<polygon fill="midnightblue" stroke="midnightblue" points="642.45,-252.76 648.59,-244.12 638.41,-247.04 642.45,-252.76"/>
</g>
<!-- Node16 -->
<g id="node16" class="node">
<title>Node16</title>
<g id="a_node16"><a xlink:href="../../dc/d4b/classuxn_1_1patl_1_1impl_1_1suffix__generic_1_1match__iterator.html#a178c99287b12e933bad30cac538486dc" target="_top" xlink:title=" ">
<polygon fill="none" stroke="black" points="419.5,-242 419.5,-283 555.5,-283 555.5,-242 419.5,-242"/>
<text text-anchor="start" x="427.5" y="-271" font-family="Helvetica,sans-Serif" font-size="10.00">uxn::patl::impl::suffix</text>
<text text-anchor="start" x="427.5" y="-260" font-family="Helvetica,sans-Serif" font-size="10.00">_generic::match_iterator</text>
<text text-anchor="middle" x="487.5" y="-249" font-family="Helvetica,sans-Serif" font-size="10.00">::operator++</text>
</a>
</g>
</g>
<!-- Node1&#45;&gt;Node16 -->
<g id="edge16" class="edge">
<title>Node1&#45;&gt;Node16</title>
<path fill="none" stroke="midnightblue" d="M592.4,-245.68C580.28,-247.65 567.68,-249.68 555.61,-251.64"/>
<polygon fill="midnightblue" stroke="midnightblue" points="593.13,-249.11 602.45,-244.06 592.02,-242.2 593.13,-249.11"/>
</g>
<!-- Node17 -->
<g id="node17" class="node">
<title>Node17</title>
<g id="a_node17"><a xlink:href="../../d2/d91/classpatricia__dot__base.html#a2d6462fcd6e21ee9a4795fe20ee4d330" target="_top" xlink:title=" ">
<polygon fill="none" stroke="black" points="433,-192.5 433,-222.5 542,-222.5 542,-192.5 433,-192.5"/>
<text text-anchor="start" x="441" y="-210.5" font-family="Helvetica,sans-Serif" font-size="10.00">patricia_dot_base::</text>
<text text-anchor="middle" x="487.5" y="-199.5" font-family="Helvetica,sans-Serif" font-size="10.00">out_node</text>
</a>
</g>
</g>
<!-- Node1&#45;&gt;Node17 -->
<g id="edge17" class="edge">
<title>Node1&#45;&gt;Node17</title>
<path fill="none" stroke="midnightblue" d="M591.78,-223.62C575.21,-221.03 557.78,-218.31 542.06,-215.86"/>
<polygon fill="midnightblue" stroke="midnightblue" points="591.54,-227.12 601.96,-225.21 592.62,-220.21 591.54,-227.12"/>
</g>
<!-- Node18 -->
<g id="node18" class="node">
<title>Node18</title>
<g id="a_node18"><a xlink:href="../../d8/de6/classuxn_1_1patl_1_1impl_1_1patricia__dot__base_3_01suffix__set_3_01Type_00_01N_00_01Delta_00_01f366aa432e5874b34aa8e2df35cf2909.html#ad46e1416efddc2a1f178764861ab96c3" target="_top" xlink:title=" ">
<polygon fill="none" stroke="black" points="415.5,-110 415.5,-173 559.5,-173 559.5,-110 415.5,-110"/>
<text text-anchor="start" x="423.5" y="-161" font-family="Helvetica,sans-Serif" font-size="10.00">uxn::patl::impl::patricia</text>
<text text-anchor="start" x="423.5" y="-150" font-family="Helvetica,sans-Serif" font-size="10.00">_dot_base&lt; suffix_set&lt;</text>
<text text-anchor="start" x="423.5" y="-139" font-family="Helvetica,sans-Serif" font-size="10.00"> Type, N, Delta, BitComp,</text>
<text text-anchor="start" x="423.5" y="-128" font-family="Helvetica,sans-Serif" font-size="10.00"> Allocator &gt;, OutStream &gt;</text>
<text text-anchor="middle" x="487.5" y="-117" font-family="Helvetica,sans-Serif" font-size="10.00">::out_node</text>
</a>
</g>
</g>
<!-- Node1&#45;&gt;Node18 -->
<g id="edge18" class="edge">
<title>Node1&#45;&gt;Node18</title>
<path fill="none" stroke="midnightblue" d="M634.69,-220.09C611.4,-207.57 576.84,-188.99 547.16,-173.04"/>
<polygon fill="midnightblue" stroke="midnightblue" points="633.17,-223.25 643.64,-224.9 636.49,-217.08 633.17,-223.25"/>
</g>
<!-- Node19 -->
<g id="node19" class="node">
<title>Node19</title>
<g id="a_node19"><a xlink:href="../../da/dd2/classuxn_1_1patl_1_1impl_1_1const__partimator__generic.html#a37844a7c181d484e8685c20f21988e91" target="_top" xlink:title=" ">
<polygon fill="none" stroke="black" points="413,-50 413,-91 562,-91 562,-50 413,-50"/>
<text text-anchor="start" x="421" y="-79" font-family="Helvetica,sans-Serif" font-size="10.00">uxn::patl::impl::const</text>
<text text-anchor="start" x="421" y="-68" font-family="Helvetica,sans-Serif" font-size="10.00">_partimator_generic::prove</text>
<text text-anchor="middle" x="487.5" y="-57" font-family="Helvetica,sans-Serif" font-size="10.00">_branch</text>
</a>
</g>
</g>
<!-- Node1&#45;&gt;Node19 -->
<g id="edge19" class="edge">
<title>Node1&#45;&gt;Node19</title>
<path fill="none" stroke="midnightblue" d="M652.6,-215.65C638.2,-187.01 607.19,-132.5 566,-100.5 561.56,-97.05 556.67,-93.95 551.57,-91.18"/>
<polygon fill="midnightblue" stroke="midnightblue" points="649.61,-217.5 657.15,-224.94 655.9,-214.42 649.61,-217.5"/>
</g>
<!-- Node23 -->
<g id="node23" class="node">
<title>Node23</title>
<g id="a_node23"><a xlink:href="../../db/db7/classuxn_1_1patl_1_1impl_1_1suffix__generic.html#a3758d1f5bf1e70bd5f67a7edb7d7971f" target="_top" xlink:title=" ">
<polygon fill="none" stroke="black" points="409,-0.5 409,-30.5 566,-30.5 566,-0.5 409,-0.5"/>
<text text-anchor="start" x="417" y="-18.5" font-family="Helvetica,sans-Serif" font-size="10.00">uxn::patl::impl::suffix</text>
<text text-anchor="middle" x="487.5" y="-7.5" font-family="Helvetica,sans-Serif" font-size="10.00">_generic::push_back_generic</text>
</a>
</g>
</g>
<!-- Node1&#45;&gt;Node23 -->
<g id="edge23" class="edge">
<title>Node1&#45;&gt;Node23</title>
<path fill="none" stroke="midnightblue" d="M657.28,-214.97C647.86,-176.04 621.44,-88.41 566,-40.5 561.51,-36.62 556.4,-33.34 551.01,-30.56"/>
<polygon fill="midnightblue" stroke="midnightblue" points="653.88,-215.83 659.54,-224.79 660.71,-214.26 653.88,-215.83"/>
</g>
<!-- Node3 -->
<g id="node3" class="node">
<title>Node3</title>
<g id="a_node3"><a xlink:href="../../d0/d55/classuxn_1_1patl_1_1impl_1_1trie__generic_3_01T_00_010_01_4.html#a6ab67a55ca01647d69a45cbb41059b95" target="_top" xlink:title="template of insert range">
<polygon fill="none" stroke="black" points="228,-721.5 228,-751.5 360,-751.5 360,-721.5 228,-721.5"/>
<text text-anchor="start" x="236" y="-739.5" font-family="Helvetica,sans-Serif" font-size="10.00">uxn::patl::impl::trie</text>
<text text-anchor="middle" x="294" y="-728.5" font-family="Helvetica,sans-Serif" font-size="10.00">_generic&lt; T, 0 &gt;::insert</text>
</a>
</g>
</g>
<!-- Node2&#45;&gt;Node3 -->
<g id="edge2" class="edge">
<title>Node2&#45;&gt;Node3</title>
<path fill="none" stroke="midnightblue" d="M475.92,-574.66C459.18,-610.1 423.25,-675.93 373,-712.5 368.3,-715.92 363.11,-718.86 357.7,-721.38"/>
<polygon fill="midnightblue" stroke="midnightblue" points="479.13,-576.06 480.13,-565.52 472.77,-573.14 479.13,-576.06"/>
</g>
<!-- Node4 -->
<g id="node4" class="node">
<title>Node4</title>
<g id="a_node4"><a xlink:href="../../db/dcd/classuxn_1_1patl_1_1impl_1_1trie__generic.html#acecaf24a53d260e2a70c3a1660ad721e" target="_top" xlink:title="just for backward compatibility with std assoc containers">
<polygon fill="none" stroke="black" points="239,-672.5 239,-702.5 349,-702.5 349,-672.5 239,-672.5"/>
<text text-anchor="start" x="247" y="-690.5" font-family="Helvetica,sans-Serif" font-size="10.00">uxn::patl::impl::trie</text>
<text text-anchor="middle" x="294" y="-679.5" font-family="Helvetica,sans-Serif" font-size="10.00">_generic::insert</text>
</a>
</g>
</g>
<!-- Node2&#45;&gt;Node4 -->
<g id="edge3" class="edge">
<title>Node2&#45;&gt;Node4</title>
<path fill="none" stroke="midnightblue" d="M468.6,-573.78C448.06,-599 412.15,-638.8 373,-662.5 365.7,-666.92 357.54,-670.64 349.32,-673.75"/>
<polygon fill="midnightblue" stroke="midnightblue" points="471.44,-575.83 474.96,-565.83 465.98,-571.46 471.44,-575.83"/>
</g>
<!-- Node5 -->
<g id="node5" class="node">
<title>Node5</title>
<g id="a_node5"><a xlink:href="../../d1/db2/insider_8cpp.html#ae66f6b31b5ad750f1fe042a706a4e3d4" target="_top" xlink:title=" ">
<polygon fill="none" stroke="black" points="273.5,-634 273.5,-653 314.5,-653 314.5,-634 273.5,-634"/>
<text text-anchor="middle" x="294" y="-641" font-family="Helvetica,sans-Serif" font-size="10.00">main</text>
</a>
</g>
</g>
<!-- Node2&#45;&gt;Node5 -->
<g id="edge4" class="edge">
<title>Node2&#45;&gt;Node5</title>
<path fill="none" stroke="midnightblue" d="M459.35,-572.01C437.25,-588.55 404.64,-610.81 373,-624.5 354.07,-632.69 330.96,-637.76 314.83,-640.58"/>
<polygon fill="midnightblue" stroke="midnightblue" points="461.73,-574.6 467.57,-565.76 457.49,-569.02 461.73,-574.6"/>
</g>
<!-- Node6 -->
<g id="node6" class="node">
<title>Node6</title>
<g id="a_node6"><a xlink:href="../../d0/d55/classuxn_1_1patl_1_1impl_1_1trie__generic_3_01T_00_010_01_4.html#ad08e0b6bcb306c000e90f512f8adf539" target="_top" xlink:title="merge two identical tries (instances of bit_compare must be equal)">
<polygon fill="none" stroke="black" points="226,-584.5 226,-614.5 362,-614.5 362,-584.5 226,-584.5"/>
<text text-anchor="start" x="234" y="-602.5" font-family="Helvetica,sans-Serif" font-size="10.00">uxn::patl::impl::trie</text>
<text text-anchor="middle" x="294" y="-591.5" font-family="Helvetica,sans-Serif" font-size="10.00">_generic&lt; T, 0 &gt;::merge</text>
</a>
</g>
</g>
<!-- Node2&#45;&gt;Node6 -->
<g id="edge5" class="edge">
<title>Node2&#45;&gt;Node6</title>
<path fill="none" stroke="midnightblue" d="M422.69,-566.83C400.4,-572.53 375.51,-578.9 353.67,-584.49"/>
<polygon fill="midnightblue" stroke="midnightblue" points="423.57,-570.21 432.39,-564.34 421.84,-563.43 423.57,-570.21"/>
</g>
<!-- Node7 -->
<g id="node7" class="node">
<title>Node7</title>
<g id="a_node7"><a xlink:href="../../d0/d55/classuxn_1_1patl_1_1impl_1_1trie__generic_3_01T_00_010_01_4.html#a6f500a7ecaca6f652065f8a17c608790" target="_top" xlink:title=" ">
<polygon fill="none" stroke="black" points="217,-535.5 217,-565.5 371,-565.5 371,-535.5 217,-535.5"/>
<text text-anchor="start" x="225" y="-553.5" font-family="Helvetica,sans-Serif" font-size="10.00">uxn::patl::impl::trie</text>
<text text-anchor="middle" x="294" y="-542.5" font-family="Helvetica,sans-Serif" font-size="10.00">_generic&lt; T, 0 &gt;::operator=</text>
</a>
</g>
</g>
<!-- Node2&#45;&gt;Node7 -->
<g id="edge6" class="edge">
<title>Node2&#45;&gt;Node7</title>
<path fill="none" stroke="midnightblue" d="M422.36,-550.5C405.93,-550.5 388.1,-550.5 371.13,-550.5"/>
<polygon fill="midnightblue" stroke="midnightblue" points="422.39,-554 432.39,-550.5 422.39,-547 422.39,-554"/>
</g>
<!-- Node8 -->
<g id="node8" class="node">
<title>Node8</title>
<g id="a_node8"><a xlink:href="../../d6/de8/muxoclon_8cpp.html#a8c4f4d8cc49976be28ff5ce5fef3015a" target="_top" xlink:title=" ">
<polygon fill="none" stroke="black" points="255,-497 255,-516 333,-516 333,-497 255,-497"/>
<text text-anchor="middle" x="294" y="-504" font-family="Helvetica,sans-Serif" font-size="10.00">search_work</text>
</a>
</g>
</g>
<!-- Node2&#45;&gt;Node8 -->
<g id="edge7" class="edge">
<title>Node2&#45;&gt;Node8</title>
<path fill="none" stroke="midnightblue" d="M422.54,-535.8C392.92,-529 358.71,-521.14 333.19,-515.27"/>
<polygon fill="midnightblue" stroke="midnightblue" points="421.86,-539.24 432.39,-538.07 423.43,-532.42 421.86,-539.24"/>
</g>
<!-- Node10 -->
<g id="node10" class="node">
<title>Node10</title>
<g id="a_node10"><a xlink:href="../../d0/d55/classuxn_1_1patl_1_1impl_1_1trie__generic_3_01T_00_010_01_4.html#a6dd70b09913e4246f3d8e618c13ec183" target="_top" xlink:title=" ">
<polygon fill="none" stroke="black" points="233.5,-437 233.5,-478 354.5,-478 354.5,-437 233.5,-437"/>
<text text-anchor="start" x="241.5" y="-466" font-family="Helvetica,sans-Serif" font-size="10.00">uxn::patl::impl::trie</text>
<text text-anchor="start" x="241.5" y="-455" font-family="Helvetica,sans-Serif" font-size="10.00">_generic&lt; T, 0 &gt;::trie</text>
<text text-anchor="middle" x="294" y="-444" font-family="Helvetica,sans-Serif" font-size="10.00">_generic</text>
</a>
</g>
</g>
<!-- Node2&#45;&gt;Node10 -->
<g id="edge9" class="edge">
<title>Node2&#45;&gt;Node10</title>
<path fill="none" stroke="midnightblue" d="M453.05,-530.31C430.78,-517.28 400.64,-500.41 373,-487.5 366.03,-484.25 358.61,-481.05 351.21,-478.04"/>
<polygon fill="midnightblue" stroke="midnightblue" points="451.39,-533.4 461.78,-535.46 454.94,-527.37 451.39,-533.4"/>
</g>
<!-- Node11 -->
<g id="node11" class="node">
<title>Node11</title>
<g id="a_node11"><a xlink:href="../../de/d34/classstrings__from__merged__files__generator.html#a85dd314b7f28a6c9daeb4f0fe255508f" target="_top" xlink:title=" ">
<polygon fill="none" stroke="black" points="230.5,-387.5 230.5,-417.5 357.5,-417.5 357.5,-387.5 230.5,-387.5"/>
<text text-anchor="start" x="238.5" y="-405.5" font-family="Helvetica,sans-Serif" font-size="10.00">strings_from_merged</text>
<text text-anchor="middle" x="294" y="-394.5" font-family="Helvetica,sans-Serif" font-size="10.00">_files_generator::while</text>
</a>
</g>
</g>
<!-- Node2&#45;&gt;Node11 -->
<g id="edge10" class="edge">
<title>Node2&#45;&gt;Node11</title>
<path fill="none" stroke="midnightblue" d="M470.65,-527C450.88,-499.4 414.56,-454.01 373,-427.5 367.01,-423.68 360.38,-420.39 353.59,-417.58"/>
<polygon fill="midnightblue" stroke="midnightblue" points="467.87,-529.12 476.48,-535.29 473.59,-525.1 467.87,-529.12"/>
</g>
<!-- Node9 -->
<g id="node9" class="node">
<title>Node9</title>
<g id="a_node9"><a xlink:href="../../d6/de8/muxoclon_8cpp.html#a0ddf1224851353fc92bfbff6f499fa97" target="_top" xlink:title=" ">
<polygon fill="none" stroke="black" points="69,-497 69,-516 110,-516 110,-497 69,-497"/>
<text text-anchor="middle" x="89.5" y="-504" font-family="Helvetica,sans-Serif" font-size="10.00">main</text>
</a>
</g>
</g>
<!-- Node8&#45;&gt;Node9 -->
<g id="edge8" class="edge">
<title>Node8&#45;&gt;Node9</title>
<path fill="none" stroke="midnightblue" d="M244.65,-506.5C201.61,-506.5 140.82,-506.5 110.02,-506.5"/>
<polygon fill="midnightblue" stroke="midnightblue" points="244.91,-510 254.91,-506.5 244.91,-503 244.91,-510"/>
</g>
<!-- Node13 -->
<g id="node13" class="node">
<title>Node13</title>
<g id="a_node13"><a xlink:href="../../d3/d87/lz77_8cpp.html#a0ddf1224851353fc92bfbff6f499fa97" target="_top" xlink:title=" ">
<polygon fill="none" stroke="black" points="273.5,-349 273.5,-368 314.5,-368 314.5,-349 273.5,-349"/>
<text text-anchor="middle" x="294" y="-356" font-family="Helvetica,sans-Serif" font-size="10.00">main</text>
</a>
</g>
</g>
<!-- Node12&#45;&gt;Node13 -->
<g id="edge12" class="edge">
<title>Node12&#45;&gt;Node13</title>
<path fill="none" stroke="midnightblue" d="M438.58,-365.25C398.56,-363.37 343.53,-360.78 314.6,-359.42"/>
<polygon fill="midnightblue" stroke="midnightblue" points="438.51,-368.75 448.67,-365.72 438.84,-361.76 438.51,-368.75"/>
</g>
<!-- Node14&#45;&gt;Node14 -->
<g id="edge15" class="edge">
<title>Node14&#45;&gt;Node14</title>
<path fill="none" stroke="midnightblue" d="M520.06,-329.77C519.13,-335.24 508.28,-339.5 487.5,-339.5 456.57,-339.5 447.63,-330.07 460.68,-321.26"/>
<polygon fill="midnightblue" stroke="midnightblue" points="522.81,-327.59 514.32,-321.26 517.01,-331.51 522.81,-327.59"/>
</g>
<!-- Node15 -->
<g id="node15" class="node">
<title>Node15</title>
<g id="a_node15"><a xlink:href="../../d2/d55/multi__align_8cpp.html#a0ddf1224851353fc92bfbff6f499fa97" target="_top" xlink:title=" ">
<polygon fill="none" stroke="black" points="273.5,-302 273.5,-321 314.5,-321 314.5,-302 273.5,-302"/>
<text text-anchor="middle" x="294" y="-309" font-family="Helvetica,sans-Serif" font-size="10.00">main</text>
</a>
</g>
</g>
<!-- Node14&#45;&gt;Node15 -->
<g id="edge14" class="edge">
<title>Node14&#45;&gt;Node15</title>
<path fill="none" stroke="midnightblue" d="M399.77,-311.5C368.11,-311.5 335.12,-311.5 314.82,-311.5"/>
<polygon fill="midnightblue" stroke="midnightblue" points="399.99,-315 409.99,-311.5 399.99,-308 399.99,-315"/>
</g>
<!-- Node20 -->
<g id="node20" class="node">
<title>Node20</title>
<g id="a_node20"><a xlink:href="../../da/dd2/classuxn_1_1patl_1_1impl_1_1const__partimator__generic.html#a074c93ecb70c2c54b13fa41ae2587f64" target="_top" xlink:title=" ">
<polygon fill="none" stroke="black" points="215,-55.5 215,-85.5 373,-85.5 373,-55.5 215,-55.5"/>
<text text-anchor="start" x="223" y="-73.5" font-family="Helvetica,sans-Serif" font-size="10.00">uxn::patl::impl::const</text>
<text text-anchor="middle" x="294" y="-62.5" font-family="Helvetica,sans-Serif" font-size="10.00">_partimator_generic::next_fit</text>
</a>
</g>
</g>
<!-- Node19&#45;&gt;Node20 -->
<g id="edge20" class="edge">
<title>Node19&#45;&gt;Node20</title>
<path fill="none" stroke="midnightblue" d="M402.62,-70.5C392.83,-70.5 382.88,-70.5 373.17,-70.5"/>
<polygon fill="midnightblue" stroke="midnightblue" points="402.74,-74 412.74,-70.5 402.73,-67 402.74,-74"/>
</g>
<!-- Node21 -->
<g id="node21" class="node">
<title>Node21</title>
<g id="a_node21"><a xlink:href="../../da/dd2/classuxn_1_1patl_1_1impl_1_1const__partimator__generic.html#a04f671c089da7c2bf15f652dd2f07d12" target="_top" xlink:title=" ">
<polygon fill="none" stroke="black" points="16,-78 16,-119 163,-119 163,-78 16,-78"/>
<text text-anchor="start" x="24" y="-107" font-family="Helvetica,sans-Serif" font-size="10.00">uxn::patl::impl::const</text>
<text text-anchor="start" x="24" y="-96" font-family="Helvetica,sans-Serif" font-size="10.00">_partimator_generic::const</text>
<text text-anchor="middle" x="89.5" y="-85" font-family="Helvetica,sans-Serif" font-size="10.00">_partimator_generic</text>
</a>
</g>
</g>
<!-- Node20&#45;&gt;Node21 -->
<g id="edge21" class="edge">
<title>Node20&#45;&gt;Node21</title>
<path fill="none" stroke="midnightblue" d="M204.92,-82.68C190.97,-84.61 176.69,-86.58 163.15,-88.45"/>
<polygon fill="midnightblue" stroke="midnightblue" points="205.57,-86.12 215,-81.29 204.61,-79.19 205.57,-86.12"/>
</g>
<!-- Node22 -->
<g id="node22" class="node">
<title>Node22</title>
<g id="a_node22"><a xlink:href="../../da/dd2/classuxn_1_1patl_1_1impl_1_1const__partimator__generic.html#af88d75bc3b143d58af2fea167cdf75e1" target="_top" xlink:title=" ">
<polygon fill="none" stroke="black" points="0,-28.5 0,-58.5 179,-58.5 179,-28.5 0,-28.5"/>
<text text-anchor="start" x="8" y="-46.5" font-family="Helvetica,sans-Serif" font-size="10.00">uxn::patl::impl::const</text>
<text text-anchor="middle" x="89.5" y="-35.5" font-family="Helvetica,sans-Serif" font-size="10.00">_partimator_generic::operator++</text>
</a>
</g>
</g>
<!-- Node20&#45;&gt;Node22 -->
<g id="edge22" class="edge">
<title>Node20&#45;&gt;Node22</title>
<path fill="none" stroke="midnightblue" d="M205.04,-58.77C196.49,-57.63 187.82,-56.48 179.26,-55.33"/>
<polygon fill="midnightblue" stroke="midnightblue" points="204.62,-62.25 215,-60.1 205.55,-55.31 204.62,-62.25"/>
</g>
</g>
</svg>
