<?xml version="1.0" encoding="UTF-8" standalone="no"?>
<!DOCTYPE svg PUBLIC "-//W3C//DTD SVG 1.1//EN"
 "http://www.w3.org/Graphics/SVG/1.1/DTD/svg11.dtd">
<!-- Generated by graphviz version 5.0.1 (20220820.1526)
 -->
<!-- Title: uxn::patl::impl::get_highest_bit_id Pages: 1 -->
<svg width="444pt" height="253pt"
 viewBox="0.00 0.00 444.00 252.50" xmlns="http://www.w3.org/2000/svg" xmlns:xlink="http://www.w3.org/1999/xlink">
<g id="graph0" class="graph" transform="scale(1 1) rotate(0) translate(4 248.5)">
<title>uxn::patl::impl::get_highest_bit_id</title>
<!-- Node1 -->
<g id="node1" class="node">
<title>Node1</title>
<g id="a_node1"><a xlink:title=" ">
<polygon fill="#bfbfbf" stroke="black" points="327,-99 327,-129 436,-129 436,-99 327,-99"/>
<text text-anchor="start" x="335" y="-117" font-family="Helvetica,sans-Serif" font-size="10.00">uxn::patl::impl::get</text>
<text text-anchor="middle" x="381.5" y="-106" font-family="Helvetica,sans-Serif" font-size="10.00">_highest_bit_id</text>
</a>
</g>
</g>
<!-- Node2 -->
<g id="node2" class="node">
<title>Node2</title>
<g id="a_node2"><a xlink:href="../../dd/d0e/namespaceuxn_1_1patl_1_1impl.html#acbcc8d4c2223361c247be1441ccfe37d" target="_top" xlink:title=" ">
<polygon fill="none" stroke="black" points="180.5,-214 180.5,-244 286.5,-244 286.5,-214 180.5,-214"/>
<text text-anchor="start" x="188.5" y="-232" font-family="Helvetica,sans-Serif" font-size="10.00">uxn::patl::impl::bit</text>
<text text-anchor="middle" x="233.5" y="-221" font-family="Helvetica,sans-Serif" font-size="10.00">_mismatch_scalar</text>
</a>
</g>
</g>
<!-- Node1&#45;&gt;Node2 -->
<g id="edge1" class="edge">
<title>Node1&#45;&gt;Node2</title>
<path fill="none" stroke="midnightblue" d="M362.57,-136.76C345.8,-156.84 319.17,-185.82 291,-205 286.15,-208.3 280.78,-211.29 275.34,-213.95"/>
<polygon fill="midnightblue" stroke="midnightblue" points="365.29,-138.96 368.92,-129.01 359.87,-134.53 365.29,-138.96"/>
</g>
<!-- Node4 -->
<g id="node4" class="node">
<title>Node4</title>
<g id="a_node4"><a xlink:href="../../dd/d0e/namespaceuxn_1_1patl_1_1impl.html#ab8658e1567a49e276e6cf8eae9b9192b" target="_top" xlink:title=" ">
<polygon fill="none" stroke="black" points="179,-165 179,-195 288,-195 288,-165 179,-165"/>
<text text-anchor="start" x="187" y="-183" font-family="Helvetica,sans-Serif" font-size="10.00">uxn::patl::impl::get</text>
<text text-anchor="middle" x="233.5" y="-172" font-family="Helvetica,sans-Serif" font-size="10.00">_binary_lca</text>
</a>
</g>
</g>
<!-- Node1&#45;&gt;Node4 -->
<g id="edge3" class="edge">
<title>Node1&#45;&gt;Node4</title>
<path fill="none" stroke="midnightblue" d="M337.76,-133.32C315.46,-143.4 288.58,-155.55 267.84,-164.93"/>
<polygon fill="midnightblue" stroke="midnightblue" points="339.33,-136.45 347,-129.14 336.45,-130.07 339.33,-136.45"/>
</g>
<!-- Node5 -->
<g id="node5" class="node">
<title>Node5</title>
<g id="a_node5"><a xlink:href="../../da/dd4/classuxn_1_1patl_1_1lca__oracle.html#ad7b6f03a0f25ab9fbe69b78d3f772ee3" target="_top" xlink:title="return LCA(vx, vy)">
<polygon fill="none" stroke="black" points="12.5,-146 12.5,-176 127.5,-176 127.5,-146 12.5,-146"/>
<text text-anchor="start" x="20.5" y="-164" font-family="Helvetica,sans-Serif" font-size="10.00">uxn::patl::lca_oracle</text>
<text text-anchor="middle" x="70" y="-153" font-family="Helvetica,sans-Serif" font-size="10.00">::operator()</text>
</a>
</g>
</g>
<!-- Node1&#45;&gt;Node5 -->
<g id="edge11" class="edge">
<title>Node1&#45;&gt;Node5</title>
<path fill="none" stroke="midnightblue" d="M316.84,-123.67C261.16,-132.12 181.04,-144.29 127.56,-152.41"/>
<polygon fill="midnightblue" stroke="midnightblue" points="317.58,-127.09 326.94,-122.13 316.53,-120.17 317.58,-127.09"/>
</g>
<!-- Node6 -->
<g id="node6" class="node">
<title>Node6</title>
<g id="a_node6"><a xlink:href="../../da/dd4/classuxn_1_1patl_1_1lca__oracle.html#a3fcbb3309989696abb5902827675ef3e" target="_top" xlink:title=" ">
<polygon fill="none" stroke="black" points="176,-77 176,-107 291,-107 291,-77 176,-77"/>
<text text-anchor="start" x="184" y="-95" font-family="Helvetica,sans-Serif" font-size="10.00">uxn::patl::lca_oracle</text>
<text text-anchor="middle" x="233.5" y="-84" font-family="Helvetica,sans-Serif" font-size="10.00">::init</text>
</a>
</g>
</g>
<!-- Node1&#45;&gt;Node6 -->
<g id="edge5" class="edge">
<title>Node1&#45;&gt;Node6</title>
<path fill="none" stroke="midnightblue" d="M317.08,-104.44C308.56,-103.16 299.86,-101.85 291.47,-100.58"/>
<polygon fill="midnightblue" stroke="midnightblue" points="316.55,-107.9 326.96,-105.93 317.6,-100.98 316.55,-107.9"/>
</g>
<!-- Node8 -->
<g id="node8" class="node">
<title>Node8</title>
<g id="a_node8"><a xlink:href="../../d3/d87/lz77_8cpp.html#a96bf5c98cb36266e461ecf6f31ac3aa7" target="_top" xlink:title=" ">
<polygon fill="none" stroke="black" points="195,-38.5 195,-57.5 272,-57.5 272,-38.5 195,-38.5"/>
<text text-anchor="middle" x="233.5" y="-45.5" font-family="Helvetica,sans-Serif" font-size="10.00">lz_compress</text>
</a>
</g>
</g>
<!-- Node1&#45;&gt;Node8 -->
<g id="edge7" class="edge">
<title>Node1&#45;&gt;Node8</title>
<path fill="none" stroke="midnightblue" d="M344.46,-94.07C328.35,-85.53 308.97,-75.76 291,-68 282.31,-64.25 272.65,-60.64 263.82,-57.54"/>
<polygon fill="midnightblue" stroke="midnightblue" points="343.07,-97.3 353.54,-98.94 346.38,-91.13 343.07,-97.3"/>
</g>
<!-- Node10 -->
<g id="node10" class="node">
<title>Node10</title>
<g id="a_node10"><a xlink:href="../../d3/d87/lz77_8cpp.html#a7c5ca715ea744c307d7800d8f8358479" target="_top" xlink:title=" ">
<polygon fill="none" stroke="black" points="189,-0.5 189,-19.5 278,-19.5 278,-0.5 189,-0.5"/>
<text text-anchor="middle" x="233.5" y="-7.5" font-family="Helvetica,sans-Serif" font-size="10.00">lz_decompress</text>
</a>
</g>
</g>
<!-- Node1&#45;&gt;Node10 -->
<g id="edge9" class="edge">
<title>Node1&#45;&gt;Node10</title>
<path fill="none" stroke="midnightblue" d="M361.5,-91.07C344.7,-72.09 318.63,-45.64 291,-29 284.79,-25.26 277.76,-22.15 270.81,-19.6"/>
<polygon fill="midnightblue" stroke="midnightblue" points="358.92,-93.43 368.11,-98.69 364.21,-88.84 358.92,-93.43"/>
</g>
<!-- Node3 -->
<g id="node3" class="node">
<title>Node3</title>
<g id="a_node3"><a xlink:href="../../de/d77/classuxn_1_1patl_1_1bit__comparator_3_01T_00_010_01_4.html#ae1dded46b4aef36a44547577ade90d28" target="_top" xlink:title="return id of first mismatch bit, ~word_t(0) if keys are equal">
<polygon fill="none" stroke="black" points="0,-214 0,-244 140,-244 140,-214 0,-214"/>
<text text-anchor="start" x="8" y="-232" font-family="Helvetica,sans-Serif" font-size="10.00">uxn::patl::bit_comparator</text>
<text text-anchor="middle" x="70" y="-221" font-family="Helvetica,sans-Serif" font-size="10.00">&lt; T, 0 &gt;::bit_mismatch</text>
</a>
</g>
</g>
<!-- Node2&#45;&gt;Node3 -->
<g id="edge2" class="edge">
<title>Node2&#45;&gt;Node3</title>
<path fill="none" stroke="midnightblue" d="M170.05,-229C160.28,-229 150.13,-229 140.22,-229"/>
<polygon fill="midnightblue" stroke="midnightblue" points="170.07,-232.5 180.07,-229 170.07,-225.5 170.07,-232.5"/>
</g>
<!-- Node4&#45;&gt;Node5 -->
<g id="edge4" class="edge">
<title>Node4&#45;&gt;Node5</title>
<path fill="none" stroke="midnightblue" d="M168.53,-172.47C155,-170.88 140.82,-169.21 127.59,-167.66"/>
<polygon fill="midnightblue" stroke="midnightblue" points="168.38,-175.98 178.72,-173.67 169.2,-169.03 168.38,-175.98"/>
</g>
<!-- Node7 -->
<g id="node7" class="node">
<title>Node7</title>
<g id="a_node7"><a xlink:href="../../da/dd4/classuxn_1_1patl_1_1lca__oracle.html#a71f8a48399f1618a14849c8a3006fbfe" target="_top" xlink:title="ctor">
<polygon fill="none" stroke="black" points="12.5,-77 12.5,-107 127.5,-107 127.5,-77 12.5,-77"/>
<text text-anchor="start" x="20.5" y="-95" font-family="Helvetica,sans-Serif" font-size="10.00">uxn::patl::lca_oracle</text>
<text text-anchor="middle" x="70" y="-84" font-family="Helvetica,sans-Serif" font-size="10.00">::lca_oracle</text>
</a>
</g>
</g>
<!-- Node6&#45;&gt;Node7 -->
<g id="edge6" class="edge">
<title>Node6&#45;&gt;Node7</title>
<path fill="none" stroke="midnightblue" d="M165.21,-92C152.74,-92 139.82,-92 127.7,-92"/>
<polygon fill="midnightblue" stroke="midnightblue" points="165.56,-95.5 175.56,-92 165.56,-88.5 165.56,-95.5"/>
</g>
<!-- Node9 -->
<g id="node9" class="node">
<title>Node9</title>
<g id="a_node9"><a xlink:href="../../d3/d87/lz77_8cpp.html#a0ddf1224851353fc92bfbff6f499fa97" target="_top" xlink:title=" ">
<polygon fill="none" stroke="black" points="49.5,-19.5 49.5,-38.5 90.5,-38.5 90.5,-19.5 49.5,-19.5"/>
<text text-anchor="middle" x="70" y="-26.5" font-family="Helvetica,sans-Serif" font-size="10.00">main</text>
</a>
</g>
</g>
<!-- Node8&#45;&gt;Node9 -->
<g id="edge8" class="edge">
<title>Node8&#45;&gt;Node9</title>
<path fill="none" stroke="midnightblue" d="M184.38,-42.34C153.16,-38.67 114.11,-34.07 90.94,-31.35"/>
<polygon fill="midnightblue" stroke="midnightblue" points="184.29,-45.85 194.64,-43.55 185.11,-38.9 184.29,-45.85"/>
</g>
<!-- Node10&#45;&gt;Node9 -->
<g id="edge10" class="edge">
<title>Node10&#45;&gt;Node9</title>
<path fill="none" stroke="midnightblue" d="M178.78,-16.32C148.53,-19.88 112.56,-24.11 90.77,-26.67"/>
<polygon fill="midnightblue" stroke="midnightblue" points="179.27,-19.79 188.8,-15.14 178.46,-12.83 179.27,-19.79"/>
</g>
</g>
</svg>
