<?xml version="1.0" encoding="UTF-8" standalone="no"?>
<!DOCTYPE svg PUBLIC "-//W3C//DTD SVG 1.1//EN"
 "http://www.w3.org/Graphics/SVG/1.1/DTD/svg11.dtd">
<!-- Generated by graphviz version 5.0.1 (20220820.1526)
 -->
<!-- Title: uxn/patl/suffix_map.hpp Pages: 1 -->
<svg width="1194pt" height="308pt"
 viewBox="0.00 0.00 1193.50 308.00" xmlns="http://www.w3.org/2000/svg" xmlns:xlink="http://www.w3.org/1999/xlink">
<g id="graph0" class="graph" transform="scale(1 1) rotate(0) translate(4 304)">
<title>uxn/patl/suffix_map.hpp</title>
<!-- Node1 -->
<g id="node1" class="node">
<title>Node1</title>
<g id="a_node1"><a xlink:title=" ">
<polygon fill="#bfbfbf" stroke="black" points="830,-280.5 830,-299.5 964,-299.5 964,-280.5 830,-280.5"/>
<text text-anchor="middle" x="897" y="-287.5" font-family="Helvetica,sans-Serif" font-size="10.00">uxn/patl/suffix_map.hpp</text>
</a>
</g>
</g>
<!-- Node2 -->
<g id="node2" class="node">
<title>Node2</title>
<g id="a_node2"><a xlink:href="../../d5/dfc/suffix__generic_8hpp.html" target="_top" xlink:title=" ">
<polygon fill="none" stroke="black" points="681.5,-224.5 681.5,-243.5 812.5,-243.5 812.5,-224.5 681.5,-224.5"/>
<text text-anchor="middle" x="747" y="-231.5" font-family="Helvetica,sans-Serif" font-size="10.00">impl/suffix_generic.hpp</text>
</a>
</g>
</g>
<!-- Node1&#45;&gt;Node2 -->
<g id="edge1" class="edge">
<title>Node1&#45;&gt;Node2</title>
<path fill="none" stroke="midnightblue" d="M873.23,-280.44C848.11,-271.4 808.29,-257.06 780.1,-246.92"/>
<polygon fill="midnightblue" stroke="midnightblue" points="781.25,-243.61 770.66,-243.52 778.88,-250.2 781.25,-243.61"/>
</g>
<!-- Node23 -->
<g id="node23" class="node">
<title>Node23</title>
<g id="a_node23"><a xlink:href="../../d1/dff/bit__comp_8hpp.html" target="_top" xlink:title=" ">
<polygon fill="none" stroke="black" points="1031.5,-224.5 1031.5,-243.5 1114.5,-243.5 1114.5,-224.5 1031.5,-224.5"/>
<text text-anchor="middle" x="1073" y="-231.5" font-family="Helvetica,sans-Serif" font-size="10.00">bit_comp.hpp</text>
</a>
</g>
</g>
<!-- Node1&#45;&gt;Node23 -->
<g id="edge30" class="edge">
<title>Node1&#45;&gt;Node23</title>
<path fill="none" stroke="midnightblue" d="M924.89,-280.44C954.75,-271.28 1002.31,-256.69 1035.46,-246.52"/>
<polygon fill="midnightblue" stroke="midnightblue" points="1036.71,-249.8 1045.24,-243.52 1034.66,-243.1 1036.71,-249.8"/>
</g>
<!-- Node3 -->
<g id="node3" class="node">
<title>Node3</title>
<g id="a_node3"><a xlink:title=" ">
<polygon fill="none" stroke="#bfbfbf" points="384.5,-56.5 384.5,-75.5 437.5,-75.5 437.5,-56.5 384.5,-56.5"/>
<text text-anchor="middle" x="411" y="-63.5" font-family="Helvetica,sans-Serif" font-size="10.00">iterator</text>
</a>
</g>
</g>
<!-- Node2&#45;&gt;Node3 -->
<g id="edge2" class="edge">
<title>Node2&#45;&gt;Node3</title>
<path fill="none" stroke="midnightblue" d="M683.16,-224.5C655.73,-218.17 624.8,-207.16 602,-188 572.93,-163.58 592.23,-136.23 563,-112 530.12,-84.74 481.24,-73.99 447.84,-69.76"/>
<polygon fill="midnightblue" stroke="midnightblue" points="447.92,-66.24 437.59,-68.6 447.13,-73.2 447.92,-66.24"/>
</g>
<!-- Node4 -->
<g id="node4" class="node">
<title>Node4</title>
<g id="a_node4"><a xlink:href="../../d3/d09/node_8hpp.html" target="_top" xlink:title=" ">
<polygon fill="none" stroke="black" points="611,-168.5 611,-187.5 673,-187.5 673,-168.5 611,-168.5"/>
<text text-anchor="middle" x="642" y="-175.5" font-family="Helvetica,sans-Serif" font-size="10.00">node.hpp</text>
</a>
</g>
</g>
<!-- Node2&#45;&gt;Node4 -->
<g id="edge3" class="edge">
<title>Node2&#45;&gt;Node4</title>
<path fill="none" stroke="midnightblue" d="M730.13,-224.32C713.29,-215.66 687.19,-202.24 667.76,-192.25"/>
<polygon fill="midnightblue" stroke="midnightblue" points="669.32,-189.12 658.83,-187.65 666.12,-195.34 669.32,-189.12"/>
</g>
<!-- Node7 -->
<g id="node7" class="node">
<title>Node7</title>
<g id="a_node7"><a xlink:href="../../d0/dd1/core__algorithm_8hpp.html" target="_top" xlink:title=" ">
<polygon fill="none" stroke="black" points="691.5,-168.5 691.5,-187.5 802.5,-187.5 802.5,-168.5 691.5,-168.5"/>
<text text-anchor="middle" x="747" y="-175.5" font-family="Helvetica,sans-Serif" font-size="10.00">core_algorithm.hpp</text>
</a>
</g>
</g>
<!-- Node2&#45;&gt;Node7 -->
<g id="edge6" class="edge">
<title>Node2&#45;&gt;Node7</title>
<path fill="none" stroke="midnightblue" d="M747,-224.08C747,-217.01 747,-206.86 747,-197.99"/>
<polygon fill="midnightblue" stroke="midnightblue" points="750.5,-197.75 747,-187.75 743.5,-197.75 750.5,-197.75"/>
</g>
<!-- Node13 -->
<g id="node13" class="node">
<title>Node13</title>
<g id="a_node13"><a xlink:href="../../d3/dcf/ring__buffer_8hpp.html" target="_top" xlink:title=" ">
<polygon fill="none" stroke="black" points="820.5,-168.5 820.5,-187.5 909.5,-187.5 909.5,-168.5 820.5,-168.5"/>
<text text-anchor="middle" x="865" y="-175.5" font-family="Helvetica,sans-Serif" font-size="10.00">ring_buffer.hpp</text>
</a>
</g>
</g>
<!-- Node2&#45;&gt;Node13 -->
<g id="edge14" class="edge">
<title>Node2&#45;&gt;Node13</title>
<path fill="none" stroke="midnightblue" d="M765.7,-224.44C784.94,-215.64 815.15,-201.81 837.2,-191.72"/>
<polygon fill="midnightblue" stroke="midnightblue" points="838.75,-194.86 846.39,-187.52 835.84,-188.5 838.75,-194.86"/>
</g>
<!-- Node14 -->
<g id="node14" class="node">
<title>Node14</title>
<g id="a_node14"><a xlink:href="../../de/d50/assoc__generic_8hpp.html" target="_top" xlink:title=" ">
<polygon fill="none" stroke="black" points="240.5,-168.5 240.5,-187.5 347.5,-187.5 347.5,-168.5 240.5,-168.5"/>
<text text-anchor="middle" x="294" y="-175.5" font-family="Helvetica,sans-Serif" font-size="10.00">assoc_generic.hpp</text>
</a>
</g>
</g>
<!-- Node2&#45;&gt;Node14 -->
<g id="edge15" class="edge">
<title>Node2&#45;&gt;Node14</title>
<path fill="none" stroke="midnightblue" d="M681.13,-225.15C594.47,-214.82 443.19,-196.78 357.65,-186.59"/>
<polygon fill="midnightblue" stroke="midnightblue" points="357.9,-183.09 347.55,-185.38 357.07,-190.04 357.9,-183.09"/>
</g>
<!-- Node21 -->
<g id="node21" class="node">
<title>Node21</title>
<g id="a_node21"><a xlink:href="../../d7/dd8/core__prefix_8hpp.html" target="_top" xlink:title=" ">
<polygon fill="none" stroke="black" points="928,-168.5 928,-187.5 1020,-187.5 1020,-168.5 928,-168.5"/>
<text text-anchor="middle" x="974" y="-175.5" font-family="Helvetica,sans-Serif" font-size="10.00">core_prefix.hpp</text>
</a>
</g>
</g>
<!-- Node2&#45;&gt;Node21 -->
<g id="edge28" class="edge">
<title>Node2&#45;&gt;Node21</title>
<path fill="none" stroke="midnightblue" d="M782.97,-224.44C822.32,-215.08 885.49,-200.06 928.31,-189.87"/>
<polygon fill="midnightblue" stroke="midnightblue" points="929.28,-193.24 938.2,-187.52 927.66,-186.43 929.28,-193.24"/>
</g>
<!-- Node5 -->
<g id="node5" class="node">
<title>Node5</title>
<g id="a_node5"><a xlink:title=" ">
<polygon fill="none" stroke="#bfbfbf" points="611,-112.5 611,-131.5 675,-131.5 675,-112.5 611,-112.5"/>
<text text-anchor="middle" x="643" y="-119.5" font-family="Helvetica,sans-Serif" font-size="10.00">algorithm</text>
</a>
</g>
</g>
<!-- Node4&#45;&gt;Node5 -->
<g id="edge4" class="edge">
<title>Node4&#45;&gt;Node5</title>
<path fill="none" stroke="midnightblue" d="M642.17,-168.08C642.3,-161.01 642.48,-150.86 642.65,-141.99"/>
<polygon fill="midnightblue" stroke="midnightblue" points="646.15,-141.81 642.84,-131.75 639.15,-141.68 646.15,-141.81"/>
</g>
<!-- Node6 -->
<g id="node6" class="node">
<title>Node6</title>
<g id="a_node6"><a xlink:href="../../d8/dfd/config_8hpp.html" target="_top" xlink:title=" ">
<polygon fill="none" stroke="black" points="673,-0.5 673,-19.5 749,-19.5 749,-0.5 673,-0.5"/>
<text text-anchor="middle" x="711" y="-7.5" font-family="Helvetica,sans-Serif" font-size="10.00">../config.hpp</text>
</a>
</g>
</g>
<!-- Node4&#45;&gt;Node6 -->
<g id="edge5" class="edge">
<title>Node4&#45;&gt;Node6</title>
<path fill="none" stroke="midnightblue" d="M653.03,-168.19C662.68,-159.89 676.32,-146.56 684,-132 701.51,-98.8 707.69,-54.68 709.85,-29.93"/>
<polygon fill="midnightblue" stroke="midnightblue" points="713.36,-29.98 710.61,-19.75 706.38,-29.46 713.36,-29.98"/>
</g>
<!-- Node8 -->
<g id="node8" class="node">
<title>Node8</title>
<g id="a_node8"><a xlink:href="../../de/d55/algorithm_8hpp.html" target="_top" xlink:title=" ">
<polygon fill="none" stroke="black" points="731.5,-112.5 731.5,-131.5 816.5,-131.5 816.5,-112.5 731.5,-112.5"/>
<text text-anchor="middle" x="774" y="-119.5" font-family="Helvetica,sans-Serif" font-size="10.00">algorithm.hpp</text>
</a>
</g>
</g>
<!-- Node7&#45;&gt;Node8 -->
<g id="edge7" class="edge">
<title>Node7&#45;&gt;Node8</title>
<path fill="none" stroke="midnightblue" d="M751.46,-168.08C755.15,-160.69 760.52,-149.95 765.09,-140.81"/>
<polygon fill="midnightblue" stroke="midnightblue" points="768.28,-142.26 769.62,-131.75 762.02,-139.13 768.28,-142.26"/>
</g>
<!-- Node8&#45;&gt;Node6 -->
<g id="edge8" class="edge">
<title>Node8&#45;&gt;Node6</title>
<path fill="none" stroke="midnightblue" d="M769.06,-112.37C758.71,-94.3 734.58,-52.18 720.91,-28.31"/>
<polygon fill="midnightblue" stroke="midnightblue" points="723.93,-26.53 715.92,-19.59 717.85,-30.01 723.93,-26.53"/>
</g>
<!-- Node9 -->
<g id="node9" class="node">
<title>Node9</title>
<g id="a_node9"><a xlink:href="../../d9/d3a/trivial_8hpp.html" target="_top" xlink:title=" ">
<polygon fill="none" stroke="black" points="807,-56.5 807,-75.5 873,-75.5 873,-56.5 807,-56.5"/>
<text text-anchor="middle" x="840" y="-63.5" font-family="Helvetica,sans-Serif" font-size="10.00">trivial.hpp</text>
</a>
</g>
</g>
<!-- Node8&#45;&gt;Node9 -->
<g id="edge9" class="edge">
<title>Node8&#45;&gt;Node9</title>
<path fill="none" stroke="midnightblue" d="M784.6,-112.32C794.46,-104.26 809.35,-92.08 821.22,-82.37"/>
<polygon fill="midnightblue" stroke="midnightblue" points="823.68,-84.88 829.2,-75.83 819.25,-79.46 823.68,-84.88"/>
</g>
<!-- Node9&#45;&gt;Node6 -->
<g id="edge10" class="edge">
<title>Node9&#45;&gt;Node6</title>
<path fill="none" stroke="midnightblue" d="M819.56,-56.44C798.33,-47.56 764.9,-33.56 740.75,-23.45"/>
<polygon fill="midnightblue" stroke="midnightblue" points="741.92,-20.15 731.34,-19.52 739.22,-26.61 741.92,-20.15"/>
</g>
<!-- Node10 -->
<g id="node10" class="node">
<title>Node10</title>
<g id="a_node10"><a xlink:title=" ">
<polygon fill="none" stroke="#bfbfbf" points="906.5,-0.5 906.5,-19.5 975.5,-19.5 975.5,-0.5 906.5,-0.5"/>
<text text-anchor="middle" x="941" y="-7.5" font-family="Helvetica,sans-Serif" font-size="10.00">type_traits</text>
</a>
</g>
</g>
<!-- Node9&#45;&gt;Node10 -->
<g id="edge11" class="edge">
<title>Node9&#45;&gt;Node10</title>
<path fill="none" stroke="midnightblue" d="M856.23,-56.32C872.35,-47.7 897.3,-34.36 915.96,-24.39"/>
<polygon fill="midnightblue" stroke="midnightblue" points="917.64,-27.46 924.81,-19.65 914.34,-21.28 917.64,-27.46"/>
</g>
<!-- Node11 -->
<g id="node11" class="node">
<title>Node11</title>
<g id="a_node11"><a xlink:title=" ">
<polygon fill="none" stroke="#bfbfbf" points="767,-0.5 767,-19.5 819,-19.5 819,-0.5 767,-0.5"/>
<text text-anchor="middle" x="793" y="-7.5" font-family="Helvetica,sans-Serif" font-size="10.00">cassert</text>
</a>
</g>
</g>
<!-- Node9&#45;&gt;Node11 -->
<g id="edge12" class="edge">
<title>Node9&#45;&gt;Node11</title>
<path fill="none" stroke="midnightblue" d="M832.24,-56.08C825.46,-48.3 815.46,-36.8 807.24,-27.37"/>
<polygon fill="midnightblue" stroke="midnightblue" points="809.82,-25 800.62,-19.75 804.54,-29.59 809.82,-25"/>
</g>
<!-- Node12 -->
<g id="node12" class="node">
<title>Node12</title>
<g id="a_node12"><a xlink:title=" ">
<polygon fill="none" stroke="#bfbfbf" points="837.5,-0.5 837.5,-19.5 888.5,-19.5 888.5,-0.5 837.5,-0.5"/>
<text text-anchor="middle" x="863" y="-7.5" font-family="Helvetica,sans-Serif" font-size="10.00">intrin.h</text>
</a>
</g>
</g>
<!-- Node9&#45;&gt;Node12 -->
<g id="edge13" class="edge">
<title>Node9&#45;&gt;Node12</title>
<path fill="none" stroke="midnightblue" d="M843.8,-56.08C846.91,-48.77 851.42,-38.18 855.29,-29.1"/>
<polygon fill="midnightblue" stroke="midnightblue" points="858.57,-30.32 859.27,-19.75 852.13,-27.58 858.57,-30.32"/>
</g>
<!-- Node15 -->
<g id="node15" class="node">
<title>Node15</title>
<g id="a_node15"><a xlink:href="../../d5/db7/preorder__iterator_8hpp.html" target="_top" xlink:title=" ">
<polygon fill="none" stroke="black" points="94.5,-112.5 94.5,-131.5 213.5,-131.5 213.5,-112.5 94.5,-112.5"/>
<text text-anchor="middle" x="154" y="-119.5" font-family="Helvetica,sans-Serif" font-size="10.00">preorder_iterator.hpp</text>
</a>
</g>
</g>
<!-- Node14&#45;&gt;Node15 -->
<g id="edge16" class="edge">
<title>Node14&#45;&gt;Node15</title>
<path fill="none" stroke="midnightblue" d="M271.82,-168.44C248.57,-159.48 211.85,-145.31 185.58,-135.18"/>
<polygon fill="midnightblue" stroke="midnightblue" points="186.67,-131.85 176.08,-131.52 184.15,-138.38 186.67,-131.85"/>
</g>
<!-- Node16 -->
<g id="node16" class="node">
<title>Node16</title>
<g id="a_node16"><a xlink:href="../../d1/d2d/vertex_8hpp.html" target="_top" xlink:title=" ">
<polygon fill="none" stroke="black" points="119.5,-56.5 119.5,-75.5 188.5,-75.5 188.5,-56.5 119.5,-56.5"/>
<text text-anchor="middle" x="154" y="-63.5" font-family="Helvetica,sans-Serif" font-size="10.00">vertex.hpp</text>
</a>
</g>
</g>
<!-- Node14&#45;&gt;Node16 -->
<g id="edge26" class="edge">
<title>Node14&#45;&gt;Node16</title>
<path fill="none" stroke="midnightblue" d="M240.34,-172.97C185.01,-167.56 104.18,-155.75 85,-132 68.95,-112.13 97.71,-92.47 122.86,-80.06"/>
<polygon fill="midnightblue" stroke="midnightblue" points="124.64,-83.09 132.21,-75.67 121.67,-76.75 124.64,-83.09"/>
</g>
<!-- Node17 -->
<g id="node17" class="node">
<title>Node17</title>
<g id="a_node17"><a xlink:href="../../df/d24/postorder__iterator_8hpp.html" target="_top" xlink:title=" ">
<polygon fill="none" stroke="black" points="231.5,-112.5 231.5,-131.5 356.5,-131.5 356.5,-112.5 231.5,-112.5"/>
<text text-anchor="middle" x="294" y="-119.5" font-family="Helvetica,sans-Serif" font-size="10.00">postorder_iterator.hpp</text>
</a>
</g>
</g>
<!-- Node14&#45;&gt;Node17 -->
<g id="edge19" class="edge">
<title>Node14&#45;&gt;Node17</title>
<path fill="none" stroke="midnightblue" d="M294,-168.08C294,-161.01 294,-150.86 294,-141.99"/>
<polygon fill="midnightblue" stroke="midnightblue" points="297.5,-141.75 294,-131.75 290.5,-141.75 297.5,-141.75"/>
</g>
<!-- Node18 -->
<g id="node18" class="node">
<title>Node18</title>
<g id="a_node18"><a xlink:href="../../d9/dde/iterator_8hpp.html" target="_top" xlink:title=" ">
<polygon fill="none" stroke="black" points="374.5,-112.5 374.5,-131.5 447.5,-131.5 447.5,-112.5 374.5,-112.5"/>
<text text-anchor="middle" x="411" y="-119.5" font-family="Helvetica,sans-Serif" font-size="10.00">iterator.hpp</text>
</a>
</g>
</g>
<!-- Node14&#45;&gt;Node18 -->
<g id="edge22" class="edge">
<title>Node14&#45;&gt;Node18</title>
<path fill="none" stroke="midnightblue" d="M312.54,-168.44C331.62,-159.64 361.57,-145.81 383.44,-135.72"/>
<polygon fill="midnightblue" stroke="midnightblue" points="384.93,-138.88 392.55,-131.52 382,-132.53 384.93,-138.88"/>
</g>
<!-- Node19 -->
<g id="node19" class="node">
<title>Node19</title>
<g id="a_node19"><a xlink:href="../../d7/d8f/partimator_8hpp.html" target="_top" xlink:title=" ">
<polygon fill="none" stroke="black" points="465.5,-112.5 465.5,-131.5 554.5,-131.5 554.5,-112.5 465.5,-112.5"/>
<text text-anchor="middle" x="510" y="-119.5" font-family="Helvetica,sans-Serif" font-size="10.00">partimator.hpp</text>
</a>
</g>
</g>
<!-- Node14&#45;&gt;Node19 -->
<g id="edge24" class="edge">
<title>Node14&#45;&gt;Node19</title>
<path fill="none" stroke="midnightblue" d="M328.23,-168.44C365.51,-159.12 425.27,-144.18 466.01,-134"/>
<polygon fill="midnightblue" stroke="midnightblue" points="467.08,-137.34 475.93,-131.52 465.38,-130.55 467.08,-137.34"/>
</g>
<!-- Node20 -->
<g id="node20" class="node">
<title>Node20</title>
<g id="a_node20"><a xlink:title=" ">
<polygon fill="none" stroke="#bfbfbf" points="0,-112.5 0,-131.5 38,-131.5 38,-112.5 0,-112.5"/>
<text text-anchor="middle" x="19" y="-119.5" font-family="Helvetica,sans-Serif" font-size="10.00">map</text>
</a>
</g>
</g>
<!-- Node14&#45;&gt;Node20 -->
<g id="edge27" class="edge">
<title>Node14&#45;&gt;Node20</title>
<path fill="none" stroke="midnightblue" d="M241.34,-168.5C192.15,-160.25 116.78,-146.83 52,-132 50.73,-131.71 49.44,-131.4 48.13,-131.08"/>
<polygon fill="midnightblue" stroke="midnightblue" points="48.68,-127.61 38.13,-128.5 46.94,-134.39 48.68,-127.61"/>
</g>
<!-- Node15&#45;&gt;Node3 -->
<g id="edge18" class="edge">
<title>Node15&#45;&gt;Node3</title>
<path fill="none" stroke="midnightblue" d="M194.72,-112.44C244.17,-102.05 326.84,-84.68 374.36,-74.7"/>
<polygon fill="midnightblue" stroke="midnightblue" points="375.17,-78.11 384.23,-72.62 373.73,-71.26 375.17,-78.11"/>
</g>
<!-- Node15&#45;&gt;Node16 -->
<g id="edge17" class="edge">
<title>Node15&#45;&gt;Node16</title>
<path fill="none" stroke="midnightblue" d="M154,-112.08C154,-105.01 154,-94.86 154,-85.99"/>
<polygon fill="midnightblue" stroke="midnightblue" points="157.5,-85.75 154,-75.75 150.5,-85.75 157.5,-85.75"/>
</g>
<!-- Node17&#45;&gt;Node3 -->
<g id="edge21" class="edge">
<title>Node17&#45;&gt;Node3</title>
<path fill="none" stroke="midnightblue" d="M312.54,-112.44C331.62,-103.64 361.57,-89.81 383.44,-79.72"/>
<polygon fill="midnightblue" stroke="midnightblue" points="384.93,-82.88 392.55,-75.52 382,-76.53 384.93,-82.88"/>
</g>
<!-- Node17&#45;&gt;Node16 -->
<g id="edge20" class="edge">
<title>Node17&#45;&gt;Node16</title>
<path fill="none" stroke="midnightblue" d="M271.82,-112.44C248.57,-103.48 211.85,-89.31 185.58,-79.18"/>
<polygon fill="midnightblue" stroke="midnightblue" points="186.67,-75.85 176.08,-75.52 184.15,-82.38 186.67,-75.85"/>
</g>
<!-- Node18&#45;&gt;Node3 -->
<g id="edge23" class="edge">
<title>Node18&#45;&gt;Node3</title>
<path fill="none" stroke="midnightblue" d="M411,-112.08C411,-105.01 411,-94.86 411,-85.99"/>
<polygon fill="midnightblue" stroke="midnightblue" points="414.5,-85.75 411,-75.75 407.5,-85.75 414.5,-85.75"/>
</g>
<!-- Node19&#45;&gt;Node3 -->
<g id="edge25" class="edge">
<title>Node19&#45;&gt;Node3</title>
<path fill="none" stroke="midnightblue" d="M494.09,-112.32C478.36,-103.74 454.06,-90.49 435.79,-80.52"/>
<polygon fill="midnightblue" stroke="midnightblue" points="437.32,-77.37 426.87,-75.65 433.97,-83.52 437.32,-77.37"/>
</g>
<!-- Node22 -->
<g id="node22" class="node">
<title>Node22</title>
<g id="a_node22"><a xlink:href="../../d0/d34/prefix_8hpp.html" target="_top" xlink:title=" ">
<polygon fill="none" stroke="black" points="941.5,-112.5 941.5,-131.5 1006.5,-131.5 1006.5,-112.5 941.5,-112.5"/>
<text text-anchor="middle" x="974" y="-119.5" font-family="Helvetica,sans-Serif" font-size="10.00">prefix.hpp</text>
</a>
</g>
</g>
<!-- Node21&#45;&gt;Node22 -->
<g id="edge29" class="edge">
<title>Node21&#45;&gt;Node22</title>
<path fill="none" stroke="midnightblue" d="M974,-168.08C974,-161.01 974,-150.86 974,-141.99"/>
<polygon fill="midnightblue" stroke="midnightblue" points="977.5,-141.75 974,-131.75 970.5,-141.75 977.5,-141.75"/>
</g>
<!-- Node23&#45;&gt;Node9 -->
<g id="edge33" class="edge">
<title>Node23&#45;&gt;Node9</title>
<path fill="none" stroke="midnightblue" d="M1071.55,-224.44C1067.31,-202.25 1052.88,-142.47 1016,-112 978.55,-81.06 922.46,-71.06 883.71,-68.01"/>
<polygon fill="midnightblue" stroke="midnightblue" points="883.48,-64.48 873.27,-67.32 883.02,-71.47 883.48,-64.48"/>
</g>
<!-- Node24 -->
<g id="node24" class="node">
<title>Node24</title>
<g id="a_node24"><a xlink:title=" ">
<polygon fill="none" stroke="#bfbfbf" points="1076,-168.5 1076,-187.5 1120,-187.5 1120,-168.5 1076,-168.5"/>
<text text-anchor="middle" x="1098" y="-175.5" font-family="Helvetica,sans-Serif" font-size="10.00">string</text>
</a>
</g>
</g>
<!-- Node23&#45;&gt;Node24 -->
<g id="edge31" class="edge">
<title>Node23&#45;&gt;Node24</title>
<path fill="none" stroke="midnightblue" d="M1077.13,-224.08C1080.51,-216.77 1085.42,-206.18 1089.62,-197.1"/>
<polygon fill="midnightblue" stroke="midnightblue" points="1092.92,-198.3 1093.95,-187.75 1086.57,-195.36 1092.92,-198.3"/>
</g>
<!-- Node25 -->
<g id="node25" class="node">
<title>Node25</title>
<g id="a_node25"><a xlink:title=" ">
<polygon fill="none" stroke="#bfbfbf" points="1138.5,-168.5 1138.5,-187.5 1185.5,-187.5 1185.5,-168.5 1138.5,-168.5"/>
<text text-anchor="middle" x="1162" y="-175.5" font-family="Helvetica,sans-Serif" font-size="10.00">vector</text>
</a>
</g>
</g>
<!-- Node23&#45;&gt;Node25 -->
<g id="edge32" class="edge">
<title>Node23&#45;&gt;Node25</title>
<path fill="none" stroke="midnightblue" d="M1087.3,-224.32C1101.18,-215.9 1122.49,-202.97 1138.8,-193.07"/>
<polygon fill="midnightblue" stroke="midnightblue" points="1141,-195.83 1147.74,-187.65 1137.37,-189.85 1141,-195.83"/>
</g>
</g>
</svg>
