<?xml version="1.0" encoding="UTF-8" standalone="no"?>
<!DOCTYPE svg PUBLIC "-//W3C//DTD SVG 1.1//EN"
 "http://www.w3.org/Graphics/SVG/1.1/DTD/svg11.dtd">
<!-- Generated by graphviz version 5.0.1 (20220820.1526)
 -->
<!-- Title: uxn::patl::impl::levenshtein_generic&lt; This, Container, SameLength &gt; Pages: 1 -->
<!--zoomable 722 -->
<svg id="main" version="1.1" xmlns="http://www.w3.org/2000/svg" xmlns:xlink="http://www.w3.org/1999/xlink" xml:space="preserve" onload="init(evt)">
<style type="text/css"><![CDATA[
.edge:hover path { stroke: red; }
.edge:hover polygon { stroke: red; fill: red; }
]]></style>
<script type="text/javascript"><![CDATA[
var edges = document.getElementsByTagName('g');
if (edges && edges.length) {
  for (var i=0;i<edges.length;i++) {
    if (edges[i].id.substr(0,4)=='edge') {
      edges[i].setAttribute('class','edge');
    }
  }
}
]]></script>
        <defs>
                <circle id="rim" cx="0" cy="0" r="7"/>
                <circle id="rim2" cx="0" cy="0" r="3.5"/>
                <g id="zoomPlus">
                        <use xlink:href="#rim" fill="#404040">
                                <set attributeName="fill" to="#808080" begin="zoomplus.mouseover" end="zoomplus.mouseout"/>
                        </use>
                        <path d="M-4,0h8M0,-4v8" fill="none" stroke="white" stroke-width="1.5" pointer-events="none"/>
                </g>
                <g id="zoomMin">
                        <use xlink:href="#rim" fill="#404040">
                                <set attributeName="fill" to="#808080" begin="zoomminus.mouseover" end="zoomminus.mouseout"/>
                        </use>
                        <path d="M-4,0h8" fill="none" stroke="white" stroke-width="1.5" pointer-events="none"/>
                </g>
                <g id="dirArrow">
                        <path fill="none" stroke="white" stroke-width="1.5" d="M0,-3.0v7 M-2.5,-0.5L0,-3.0L2.5,-0.5"/>
                </g>
               <g id="resetDef">
                       <use xlink:href="#rim2" fill="#404040">
                               <set attributeName="fill" to="#808080" begin="reset.mouseover" end="reset.mouseout"/>
                       </use>
               </g>
        </defs>

<script type="text/javascript">
var viewWidth = 484;
var viewHeight = 722;
var sectionId = 'dynsection-1';
</script>
<script xlink:href="../../svgpan.js"/>
<svg id="graph" class="graph">
<g id="viewport">
<title>uxn::patl::impl::levenshtein_generic&lt; This, Container, SameLength &gt;</title>
<!-- Node1 -->
<g id="node1" class="node">
<title>Node1</title>
<g id="a_node1"><a xlink:title=" ">
<polygon fill="#bfbfbf" stroke="black" points="175.5,-0.5 175.5,-200.5 348.5,-200.5 348.5,-0.5 175.5,-0.5"/>
<text text-anchor="start" x="183.5" y="-188.5" font-family="Helvetica,sans-Serif" font-size="10.00">uxn::patl::impl::levenshtein</text>
<text text-anchor="start" x="183.5" y="-177.5" font-family="Helvetica,sans-Serif" font-size="10.00">_generic&lt; This, Container,</text>
<text text-anchor="middle" x="262" y="-166.5" font-family="Helvetica,sans-Serif" font-size="10.00"> SameLength &gt;</text>
<polyline fill="none" stroke="black" points="175.5,-159.5 348.5,-159.5"/>
<text text-anchor="start" x="183.5" y="-147.5" font-family="Helvetica,sans-Serif" font-size="10.00"># word_t dist_</text>
<text text-anchor="start" x="183.5" y="-136.5" font-family="Helvetica,sans-Serif" font-size="10.00">&#45; word_t cur_dist_</text>
<polyline fill="none" stroke="black" points="175.5,-129.5 348.5,-129.5"/>
<text text-anchor="start" x="183.5" y="-117.5" font-family="Helvetica,sans-Serif" font-size="10.00">+ levenshtein_generic</text>
<text text-anchor="start" x="183.5" y="-106.5" font-family="Helvetica,sans-Serif" font-size="10.00">(const Container &amp;cont,</text>
<text text-anchor="start" x="183.5" y="-95.5" font-family="Helvetica,sans-Serif" font-size="10.00"> word_t dist, const key</text>
<text text-anchor="start" x="183.5" y="-84.5" font-family="Helvetica,sans-Serif" font-size="10.00">_type &amp;mask, word_t mask</text>
<text text-anchor="start" x="183.5" y="-73.5" font-family="Helvetica,sans-Serif" font-size="10.00">_len=~word_t(0), const char</text>
<text text-anchor="start" x="183.5" y="-62.5" font-family="Helvetica,sans-Serif" font-size="10.00">_type &amp;terminator=char_type())</text>
<text text-anchor="start" x="183.5" y="-51.5" font-family="Helvetica,sans-Serif" font-size="10.00">+ void init()</text>
<text text-anchor="start" x="183.5" y="-40.5" font-family="Helvetica,sans-Serif" font-size="10.00">+ word_t distance() const</text>
<text text-anchor="start" x="183.5" y="-29.5" font-family="Helvetica,sans-Serif" font-size="10.00">+ bool operator()(word_t i)</text>
<text text-anchor="start" x="183.5" y="-18.5" font-family="Helvetica,sans-Serif" font-size="10.00">+ bool operator()(word</text>
<text text-anchor="start" x="183.5" y="-7.5" font-family="Helvetica,sans-Serif" font-size="10.00">_t, const char_type &amp;ch)</text>
</a>
</g>
</g>
<!-- Node2 -->
<g id="node2" class="node">
<title>Node2</title>
<g id="a_node2"><a xlink:href="../../d6/d28/classuxn_1_1patl_1_1impl_1_1partial__base.html" target="_top" xlink:title=" ">
<polygon fill="none" stroke="black" points="0,-248.5 0,-492.5 182,-492.5 182,-248.5 0,-248.5"/>
<text text-anchor="start" x="8" y="-480.5" font-family="Helvetica,sans-Serif" font-size="10.00">uxn::patl::impl::partial</text>
<text text-anchor="middle" x="91" y="-469.5" font-family="Helvetica,sans-Serif" font-size="10.00">_base&lt; Container, SameLength &gt;</text>
<polyline fill="none" stroke="black" points="0,-462.5 182,-462.5"/>
<text text-anchor="start" x="8" y="-450.5" font-family="Helvetica,sans-Serif" font-size="10.00">+ static const bool accept</text>
<text text-anchor="start" x="8" y="-439.5" font-family="Helvetica,sans-Serif" font-size="10.00">_subtree</text>
<text text-anchor="start" x="8" y="-428.5" font-family="Helvetica,sans-Serif" font-size="10.00"># key_type mask_</text>
<text text-anchor="start" x="8" y="-417.5" font-family="Helvetica,sans-Serif" font-size="10.00"># word_t mask_len_</text>
<text text-anchor="start" x="8" y="-406.5" font-family="Helvetica,sans-Serif" font-size="10.00"># word_t mask_bit_len_</text>
<text text-anchor="start" x="8" y="-395.5" font-family="Helvetica,sans-Serif" font-size="10.00"># char_type terminator_</text>
<text text-anchor="start" x="8" y="-384.5" font-family="Helvetica,sans-Serif" font-size="10.00"># bit_compare bit_comp_</text>
<polyline fill="none" stroke="black" points="0,-377.5 182,-377.5"/>
<text text-anchor="start" x="8" y="-365.5" font-family="Helvetica,sans-Serif" font-size="10.00">+ partial_base(const</text>
<text text-anchor="start" x="8" y="-354.5" font-family="Helvetica,sans-Serif" font-size="10.00"> Container &amp;cont, const</text>
<text text-anchor="start" x="8" y="-343.5" font-family="Helvetica,sans-Serif" font-size="10.00"> key_type &amp;mask, word_t</text>
<text text-anchor="start" x="8" y="-332.5" font-family="Helvetica,sans-Serif" font-size="10.00"> mask_len=~word_t(0), const</text>
<text text-anchor="start" x="8" y="-321.5" font-family="Helvetica,sans-Serif" font-size="10.00"> char_type &amp;terminator=&#39;\0&#39;)</text>
<text text-anchor="start" x="8" y="-310.5" font-family="Helvetica,sans-Serif" font-size="10.00">+ bool operator()(word</text>
<text text-anchor="start" x="8" y="-299.5" font-family="Helvetica,sans-Serif" font-size="10.00">_t i) const</text>
<text text-anchor="start" x="8" y="-288.5" font-family="Helvetica,sans-Serif" font-size="10.00">+ bool bit_level(word</text>
<text text-anchor="start" x="8" y="-277.5" font-family="Helvetica,sans-Serif" font-size="10.00">_t, word_t) const</text>
<text text-anchor="start" x="8" y="-266.5" font-family="Helvetica,sans-Serif" font-size="10.00">+ const key_type &amp; mask</text>
<text text-anchor="start" x="8" y="-255.5" font-family="Helvetica,sans-Serif" font-size="10.00">() const</text>
</a>
</g>
</g>
<!-- Node2&#45;&gt;Node1 -->
<g id="edge1" class="edge">
<title>Node2&#45;&gt;Node1</title>
<path fill="none" stroke="midnightblue" d="M173.74,-239.82C182.12,-226.68 190.54,-213.5 198.67,-200.76"/>
<polygon fill="none" stroke="midnightblue" points="170.67,-238.12 168.25,-248.44 176.57,-241.89 170.67,-238.12"/>
</g>
<!-- Node3 -->
<g id="node3" class="node">
<title>Node3</title>
<g id="a_node3"><a xlink:title=" ">
<polygon fill="none" stroke="black" points="200,-342 200,-399 324,-399 324,-342 200,-342"/>
<text text-anchor="middle" x="262" y="-387" font-family="Helvetica,sans-Serif" font-size="10.00">std::vector&lt; word_t &gt;</text>
<polyline fill="none" stroke="black" points="200,-380 324,-380"/>
<text text-anchor="start" x="208" y="-368" font-family="Helvetica,sans-Serif" font-size="10.00">+ word_t elements</text>
<polyline fill="none" stroke="black" points="200,-361 324,-361"/>
<text text-anchor="middle" x="262" y="-349" font-family="Helvetica,sans-Serif" font-size="10.00"> </text>
</a>
</g>
</g>
<!-- Node3&#45;&gt;Node1 -->
<g id="edge2" class="edge">
<title>Node3&#45;&gt;Node1</title>
<path fill="none" stroke="#404040" d="M262,-341.83C262,-311.26 262,-260.07 262,-212.78"/>
<polygon fill="none" stroke="#404040" points="262,-212.54 258,-206.54 262,-200.54 266,-206.54 262,-212.54"/>
<text text-anchor="middle" x="284.5" y="-222" font-family="Helvetica,sans-Serif" font-size="10.00"> &#45;begins_</text>
</g>
<!-- Node4 -->
<g id="node4" class="node">
<title>Node4</title>
<g id="a_node4"><a xlink:title=" ">
<polygon fill="none" stroke="black" points="283.5,-551.5 283.5,-608.5 380.5,-608.5 380.5,-551.5 283.5,-551.5"/>
<text text-anchor="middle" x="332" y="-596.5" font-family="Helvetica,sans-Serif" font-size="10.00">std::vector&lt; T &gt;</text>
<polyline fill="none" stroke="black" points="283.5,-589.5 380.5,-589.5"/>
<text text-anchor="middle" x="332" y="-577.5" font-family="Helvetica,sans-Serif" font-size="10.00"> </text>
<polyline fill="none" stroke="black" points="283.5,-570.5 380.5,-570.5"/>
<text text-anchor="middle" x="332" y="-558.5" font-family="Helvetica,sans-Serif" font-size="10.00"> </text>
</a>
</g>
</g>
<!-- Node4&#45;&gt;Node3 -->
<g id="edge3" class="edge">
<title>Node4&#45;&gt;Node3</title>
<path fill="none" stroke="orange" d="M311.07,-542.19C309.61,-539.12 308.23,-536.03 307,-533 288.59,-487.54 274.92,-431.96 267.73,-399.27"/>
<polygon fill="orange" stroke="orange" points="308.01,-543.91 315.63,-551.27 314.26,-540.76 308.01,-543.91"/>
<text text-anchor="middle" x="336.5" y="-519.5" font-family="Helvetica,sans-Serif" font-size="10.00"> &lt; word_t &gt;</text>
</g>
<!-- Node6 -->
<g id="node6" class="node">
<title>Node6</title>
<g id="a_node6"><a xlink:title=" ">
<polygon fill="none" stroke="black" points="342,-331 342,-410 464,-410 464,-331 342,-331"/>
<text text-anchor="start" x="350" y="-398" font-family="Helvetica,sans-Serif" font-size="10.00">std::vector&lt; std::pair</text>
<text text-anchor="middle" x="403" y="-387" font-family="Helvetica,sans-Serif" font-size="10.00">&lt; word_t, word_t &gt; &gt;</text>
<polyline fill="none" stroke="black" points="342,-380 464,-380"/>
<text text-anchor="start" x="350" y="-368" font-family="Helvetica,sans-Serif" font-size="10.00">+ std::pair&lt; word_t,</text>
<text text-anchor="start" x="350" y="-357" font-family="Helvetica,sans-Serif" font-size="10.00"> word_t &gt; elements</text>
<polyline fill="none" stroke="black" points="342,-350 464,-350"/>
<text text-anchor="middle" x="403" y="-338" font-family="Helvetica,sans-Serif" font-size="10.00"> </text>
</a>
</g>
</g>
<!-- Node4&#45;&gt;Node6 -->
<g id="edge6" class="edge">
<title>Node4&#45;&gt;Node6</title>
<path fill="none" stroke="orange" d="M360.68,-542.98C362.65,-539.71 364.46,-536.36 366,-533 384.26,-493.27 393.88,-443.79 398.68,-410.14"/>
<polygon fill="orange" stroke="orange" points="357.69,-541.15 355.17,-551.44 363.56,-544.97 357.69,-541.15"/>
<text text-anchor="start" x="374" y="-525" font-family="Helvetica,sans-Serif" font-size="10.00"> &lt; std::pair&lt; word_t,</text>
<text text-anchor="middle" x="425" y="-514" font-family="Helvetica,sans-Serif" font-size="10.00"> word_t &gt; &gt;</text>
</g>
<!-- Node5 -->
<g id="node5" class="node">
<title>Node5</title>
<g id="a_node5"><a xlink:title=" ">
<polygon fill="none" stroke="black" points="317.5,-656.5 317.5,-713.5 346.5,-713.5 346.5,-656.5 317.5,-656.5"/>
<text text-anchor="middle" x="332" y="-701.5" font-family="Helvetica,sans-Serif" font-size="10.00">T</text>
<polyline fill="none" stroke="black" points="317.5,-694.5 346.5,-694.5"/>
<text text-anchor="middle" x="332" y="-682.5" font-family="Helvetica,sans-Serif" font-size="10.00"> </text>
<polyline fill="none" stroke="black" points="317.5,-675.5 346.5,-675.5"/>
<text text-anchor="middle" x="332" y="-663.5" font-family="Helvetica,sans-Serif" font-size="10.00"> </text>
</a>
</g>
</g>
<!-- Node5&#45;&gt;Node4 -->
<g id="edge4" class="edge">
<title>Node5&#45;&gt;Node4</title>
<path fill="none" stroke="#404040" d="M332,-656.4C332,-645.55 332,-632.87 332,-621.05"/>
<polygon fill="none" stroke="#404040" points="332,-620.68 328,-614.68 332,-608.68 336,-614.68 332,-620.68"/>
<text text-anchor="middle" x="361" y="-630" font-family="Helvetica,sans-Serif" font-size="10.00"> +elements</text>
</g>
<!-- Node6&#45;&gt;Node1 -->
<g id="edge5" class="edge">
<title>Node6&#45;&gt;Node1</title>
<path fill="none" stroke="#404040" d="M382.65,-330.82C366.16,-299.48 342.09,-253.72 319.77,-211.31"/>
<polygon fill="none" stroke="#404040" points="319.73,-211.23 313.4,-207.78 314.15,-200.61 320.48,-204.06 319.73,-211.23"/>
<text text-anchor="middle" x="349.5" y="-222" font-family="Helvetica,sans-Serif" font-size="10.00"> &#45;states_</text>
</g>
</g>
</svg>
        <g id="navigator" transform="translate(0 0)" fill="#404254">
                <rect fill="#f2f5e9" fill-opacity="0.5" stroke="#606060" stroke-width=".5" x="0" y="0" width="60" height="60"/>
                <use id="zoomplus" xlink:href="#zoomPlus" x="17" y="9" onmousedown="handleZoom(evt,'in')"/>
                <use id="zoomminus" xlink:href="#zoomMin" x="42" y="9" onmousedown="handleZoom(evt,'out')"/>
                <use id="reset" xlink:href="#resetDef" x="30" y="36" onmousedown="handleReset()"/>
                <g id="arrowUp" xlink:href="#dirArrow" transform="translate(30 24)" onmousedown="handlePan(0,-1)">
                  <use xlink:href="#rim" fill="#404040">
                        <set attributeName="fill" to="#808080" begin="arrowUp.mouseover" end="arrowUp.mouseout"/>
                  </use>
                  <path fill="none" stroke="white" stroke-width="1.5" d="M0,-3.0v7 M-2.5,-0.5L0,-3.0L2.5,-0.5"/>
                </g>
                <g id="arrowRight" xlink:href="#dirArrow" transform="rotate(90) translate(36 -43)" onmousedown="handlePan(1,0)">
                  <use xlink:href="#rim" fill="#404040">
                        <set attributeName="fill" to="#808080" begin="arrowRight.mouseover" end="arrowRight.mouseout"/>
                  </use>
                  <path fill="none" stroke="white" stroke-width="1.5" d="M0,-3.0v7 M-2.5,-0.5L0,-3.0L2.5,-0.5"/>
                </g>
                <g id="arrowDown" xlink:href="#dirArrow" transform="rotate(180) translate(-30 -48)" onmousedown="handlePan(0,1)">
                  <use xlink:href="#rim" fill="#404040">
                        <set attributeName="fill" to="#808080" begin="arrowDown.mouseover" end="arrowDown.mouseout"/>
                  </use>
                  <path fill="none" stroke="white" stroke-width="1.5" d="M0,-3.0v7 M-2.5,-0.5L0,-3.0L2.5,-0.5"/>
                </g>
                <g id="arrowLeft" xlink:href="#dirArrow" transform="rotate(270) translate(-36 17)" onmousedown="handlePan(-1,0)">
                  <use xlink:href="#rim" fill="#404040">
                        <set attributeName="fill" to="#808080" begin="arrowLeft.mouseover" end="arrowLeft.mouseout"/>
                  </use>
                  <path fill="none" stroke="white" stroke-width="1.5" d="M0,-3.0v7 M-2.5,-0.5L0,-3.0L2.5,-0.5"/>
                </g>
        </g>
        <svg viewBox="0 0 15 15" width="100%" height="30px" preserveAspectRatio="xMaxYMin meet">
         <g id="arrow_out" transform="scale(0.3 0.3)">
          <a xlink:href="classuxn_1_1patl_1_1impl_1_1levenshtein__generic__coll__graph_org.svg" target="_base">
           <rect id="button" ry="5" rx="5" y="6" x="6" height="38" width="38"
                fill="#f2f5e9" fill-opacity="0.5" stroke="#606060" stroke-width="1.0"/>
           <path id="arrow"
             d="M 11.500037,31.436501 C 11.940474,20.09759 22.043105,11.32322 32.158766,21.979434 L 37.068811,17.246167 C 37.068811,17.246167 37.088388,32 37.088388,32 L 22.160133,31.978069 C 22.160133,31.978069 26.997745,27.140456 26.997745,27.140456 C 18.528582,18.264221 13.291696,25.230495 11.500037,31.436501 z"
             style="fill:#404040;"/>
          </a>
         </g>
        </svg>
</svg>
