<?xml version="1.0" encoding="UTF-8" standalone="no"?>
<!DOCTYPE svg PUBLIC "-//W3C//DTD SVG 1.1//EN"
 "http://www.w3.org/Graphics/SVG/1.1/DTD/svg11.dtd">
<!-- Generated by graphviz version 5.0.1 (20220820.1526)
 -->
<!-- Title: uxn::patl::impl::algorithm_generic&lt; T, This, Container, 0 &gt;::mismatch Pages: 1 -->
<svg width="342pt" height="78pt"
 viewBox="0.00 0.00 342.00 77.50" xmlns="http://www.w3.org/2000/svg" xmlns:xlink="http://www.w3.org/1999/xlink">
<g id="graph0" class="graph" transform="scale(1 1) rotate(0) translate(4 73.5)">
<title>uxn::patl::impl::algorithm_generic&lt; T, This, Container, 0 &gt;::mismatch</title>
<!-- Node1 -->
<g id="node1" class="node">
<title>Node1</title>
<g id="a_node1"><a xlink:title="find node with nearest key and return the number of first mismatching bit">
<polygon fill="#bfbfbf" stroke="black" points="0,-17 0,-58 158,-58 158,-17 0,-17"/>
<text text-anchor="start" x="8" y="-46" font-family="Helvetica,sans-Serif" font-size="10.00">uxn::patl::impl::algorithm</text>
<text text-anchor="start" x="8" y="-35" font-family="Helvetica,sans-Serif" font-size="10.00">_generic&lt; T, This, Container,</text>
<text text-anchor="middle" x="79" y="-24" font-family="Helvetica,sans-Serif" font-size="10.00"> 0 &gt;::mismatch</text>
</a>
</g>
</g>
<!-- Node2 -->
<g id="node2" class="node">
<title>Node2</title>
<g id="a_node2"><a xlink:href="../../dd/d0e/namespaceuxn_1_1patl_1_1impl.html#ac8acd4c59fec5857a380b4885796f019" target="_top" xlink:title=" ">
<polygon fill="none" stroke="black" points="197.5,-50 197.5,-69 330.5,-69 330.5,-50 197.5,-50"/>
<text text-anchor="middle" x="264" y="-57" font-family="Helvetica,sans-Serif" font-size="10.00">uxn::patl::impl::get_min</text>
</a>
</g>
</g>
<!-- Node1&#45;&gt;Node2 -->
<g id="edge1" class="edge">
<title>Node1&#45;&gt;Node2</title>
<path fill="none" stroke="midnightblue" d="M158.14,-46.89C167.87,-48.06 177.81,-49.26 187.51,-50.42"/>
<polygon fill="midnightblue" stroke="midnightblue" points="187.15,-53.91 197.5,-51.63 187.99,-46.96 187.15,-53.91"/>
</g>
<!-- Node3 -->
<g id="node3" class="node">
<title>Node3</title>
<g id="a_node3"><a xlink:href="../../d4/d19/classuxn_1_1patl_1_1impl_1_1algorithm__generic.html#a07ca043b6b4e47cc06145f76447dac0d" target="_top" xlink:title="one run of the classical algorithm P">
<polygon fill="none" stroke="black" points="194,-0.5 194,-30.5 334,-30.5 334,-0.5 194,-0.5"/>
<text text-anchor="start" x="202" y="-18.5" font-family="Helvetica,sans-Serif" font-size="10.00">uxn::patl::impl::algorithm</text>
<text text-anchor="middle" x="264" y="-7.5" font-family="Helvetica,sans-Serif" font-size="10.00">_generic::run</text>
</a>
</g>
</g>
<!-- Node1&#45;&gt;Node3 -->
<g id="edge2" class="edge">
<title>Node1&#45;&gt;Node3</title>
<path fill="none" stroke="midnightblue" d="M158.14,-28.11C166.66,-27.08 175.33,-26.04 183.86,-25.01"/>
<polygon fill="midnightblue" stroke="midnightblue" points="184.28,-28.49 193.79,-23.82 183.45,-21.54 184.28,-28.49"/>
</g>
</g>
</svg>
