<?xml version="1.0" encoding="UTF-8" standalone="no"?>
<!DOCTYPE svg PUBLIC "-//W3C//DTD SVG 1.1//EN"
 "http://www.w3.org/Graphics/SVG/1.1/DTD/svg11.dtd">
<!-- Generated by graphviz version 5.0.1 (20220820.1526)
 -->
<!-- Title: uxn::patl::patricia_dot_creator::create Pages: 1 -->
<svg width="295pt" height="155pt"
 viewBox="0.00 0.00 295.00 155.00" xmlns="http://www.w3.org/2000/svg" xmlns:xlink="http://www.w3.org/1999/xlink">
<g id="graph0" class="graph" transform="scale(1 1) rotate(0) translate(4 151)">
<title>uxn::patl::patricia_dot_creator::create</title>
<!-- Node1 -->
<g id="node1" class="node">
<title>Node1</title>
<g id="a_node1"><a xlink:title=" ">
<polygon fill="#bfbfbf" stroke="black" points="0,-49.5 0,-79.5 114,-79.5 114,-49.5 0,-49.5"/>
<text text-anchor="start" x="8" y="-67.5" font-family="Helvetica,sans-Serif" font-size="10.00">uxn::patl::patricia</text>
<text text-anchor="middle" x="57" y="-56.5" font-family="Helvetica,sans-Serif" font-size="10.00">_dot_creator::create</text>
</a>
</g>
</g>
<!-- Node2 -->
<g id="node2" class="node">
<title>Node2</title>
<g id="a_node2"><a xlink:href="../../d3/de9/classuxn_1_1patl_1_1patricia__dot__creator.html#aa3f10e15f9934fbd9c96fdb091756cd9" target="_top" xlink:title=" ">
<polygon fill="none" stroke="black" points="150,-98.5 150,-128.5 287,-128.5 287,-98.5 150,-98.5"/>
<text text-anchor="start" x="158" y="-116.5" font-family="Helvetica,sans-Serif" font-size="10.00">uxn::patl::patricia</text>
<text text-anchor="middle" x="218.5" y="-105.5" font-family="Helvetica,sans-Serif" font-size="10.00">_dot_creator::out_cluster</text>
</a>
</g>
</g>
<!-- Node1&#45;&gt;Node2 -->
<g id="edge1" class="edge">
<title>Node1&#45;&gt;Node2</title>
<path fill="none" stroke="midnightblue" d="M107.16,-79.6C123.45,-84.61 141.76,-90.23 158.71,-95.44"/>
<polygon fill="midnightblue" stroke="midnightblue" points="157.92,-98.86 168.51,-98.45 159.97,-92.17 157.92,-98.86"/>
</g>
<!-- Node3 -->
<g id="node3" class="node">
<title>Node3</title>
<g id="a_node3"><a xlink:href="../../d3/de9/classuxn_1_1patl_1_1patricia__dot__creator.html#a530f1ed6d8b237536f13e9c61c4d6a99" target="_top" xlink:title=" ">
<polygon fill="none" stroke="black" points="154.5,-49.5 154.5,-79.5 282.5,-79.5 282.5,-49.5 154.5,-49.5"/>
<text text-anchor="start" x="162.5" y="-67.5" font-family="Helvetica,sans-Serif" font-size="10.00">uxn::patl::patricia</text>
<text text-anchor="middle" x="218.5" y="-56.5" font-family="Helvetica,sans-Serif" font-size="10.00">_dot_creator::out_edge</text>
</a>
</g>
</g>
<!-- Node1&#45;&gt;Node3 -->
<g id="edge3" class="edge">
<title>Node1&#45;&gt;Node3</title>
<path fill="none" stroke="midnightblue" d="M114.23,-64.5C123.99,-64.5 134.26,-64.5 144.38,-64.5"/>
<polygon fill="midnightblue" stroke="midnightblue" points="144.44,-68 154.44,-64.5 144.44,-61 144.44,-68"/>
</g>
<!-- Node4 -->
<g id="node4" class="node">
<title>Node4</title>
<g id="a_node4"><a xlink:href="../../d3/de9/classuxn_1_1patl_1_1patricia__dot__creator.html#af434dfc7f6e99faea9c765f01855524a" target="_top" xlink:title=" ">
<polygon fill="none" stroke="black" points="154.5,-0.5 154.5,-30.5 282.5,-30.5 282.5,-0.5 154.5,-0.5"/>
<text text-anchor="start" x="162.5" y="-18.5" font-family="Helvetica,sans-Serif" font-size="10.00">uxn::patl::patricia</text>
<text text-anchor="middle" x="218.5" y="-7.5" font-family="Helvetica,sans-Serif" font-size="10.00">_dot_creator::out_node</text>
</a>
</g>
</g>
<!-- Node1&#45;&gt;Node4 -->
<g id="edge4" class="edge">
<title>Node1&#45;&gt;Node4</title>
<path fill="none" stroke="midnightblue" d="M107.16,-49.4C123.45,-44.39 141.76,-38.77 158.71,-33.56"/>
<polygon fill="midnightblue" stroke="midnightblue" points="159.97,-36.83 168.51,-30.55 157.92,-30.14 159.97,-36.83"/>
</g>
<!-- Node2&#45;&gt;Node2 -->
<g id="edge2" class="edge">
<title>Node2&#45;&gt;Node2</title>
<path fill="none" stroke="midnightblue" d="M190.62,-128.66C183.89,-138.06 193.19,-147 218.5,-147 233.92,-147 243.4,-143.68 246.93,-138.96"/>
<polygon fill="midnightblue" stroke="midnightblue" points="250.41,-138.46 246.38,-128.66 243.42,-138.83 250.41,-138.46"/>
</g>
</g>
</svg>
