<?xml version="1.0" encoding="UTF-8" standalone="no"?>
<!DOCTYPE svg PUBLIC "-//W3C//DTD SVG 1.1//EN"
 "http://www.w3.org/Graphics/SVG/1.1/DTD/svg11.dtd">
<!-- Generated by graphviz version 5.0.1 (20220820.1526)
 -->
<!-- Title: uxn::patl::unordered_map::unordered_map Pages: 1 -->
<svg width="461pt" height="88pt"
 viewBox="0.00 0.00 461.00 88.00" xmlns="http://www.w3.org/2000/svg" xmlns:xlink="http://www.w3.org/1999/xlink">
<g id="graph0" class="graph" transform="scale(1 1) rotate(0) translate(4 84)">
<title>uxn::patl::unordered_map::unordered_map</title>
<!-- Node1 -->
<g id="node1" class="node">
<title>Node1</title>
<g id="a_node1"><a xlink:title=" ">
<polygon fill="#bfbfbf" stroke="black" points="0,-24.5 0,-54.5 126,-54.5 126,-24.5 0,-24.5"/>
<text text-anchor="start" x="8" y="-42.5" font-family="Helvetica,sans-Serif" font-size="10.00">uxn::patl::unordered</text>
<text text-anchor="middle" x="63" y="-31.5" font-family="Helvetica,sans-Serif" font-size="10.00">_map::unordered_map</text>
</a>
</g>
</g>
<!-- Node2 -->
<g id="node2" class="node">
<title>Node2</title>
<g id="a_node2"><a xlink:href="../../d8/d99/classuxn_1_1patl_1_1unordered__map.html#ad0b9d0a354821187cb46103da804660d" target="_top" xlink:title=" ">
<polygon fill="none" stroke="black" points="162,-24.5 162,-54.5 277,-54.5 277,-24.5 162,-24.5"/>
<text text-anchor="start" x="170" y="-42.5" font-family="Helvetica,sans-Serif" font-size="10.00">uxn::patl::unordered</text>
<text text-anchor="middle" x="219.5" y="-31.5" font-family="Helvetica,sans-Serif" font-size="10.00">_map::init</text>
</a>
</g>
</g>
<!-- Node1&#45;&gt;Node2 -->
<g id="edge1" class="edge">
<title>Node1&#45;&gt;Node2</title>
<path fill="none" stroke="midnightblue" d="M126.4,-39.5C134.73,-39.5 143.31,-39.5 151.71,-39.5"/>
<polygon fill="midnightblue" stroke="midnightblue" points="151.86,-43 161.86,-39.5 151.86,-36 151.86,-43"/>
</g>
<!-- Node3 -->
<g id="node3" class="node">
<title>Node3</title>
<g id="a_node3"><a xlink:href="../../d5/d2b/classuxn_1_1patl_1_1impl_1_1generator__base.html#ad5abe3cf10d0f52cfed4c527667eff5d" target="_top" xlink:title=" ">
<polygon fill="none" stroke="black" points="313,-49.5 313,-79.5 453,-79.5 453,-49.5 313,-49.5"/>
<text text-anchor="start" x="321" y="-67.5" font-family="Helvetica,sans-Serif" font-size="10.00">uxn::patl::impl::generator</text>
<text text-anchor="middle" x="383" y="-56.5" font-family="Helvetica,sans-Serif" font-size="10.00">_base::next</text>
</a>
</g>
</g>
<!-- Node2&#45;&gt;Node3 -->
<g id="edge2" class="edge">
<title>Node2&#45;&gt;Node3</title>
<path fill="none" stroke="midnightblue" d="M277.44,-48.31C285.66,-49.59 294.25,-50.92 302.81,-52.24"/>
<polygon fill="midnightblue" stroke="midnightblue" points="302.41,-55.72 312.83,-53.79 303.48,-48.8 302.41,-55.72"/>
</g>
<!-- Node4 -->
<g id="node4" class="node">
<title>Node4</title>
<g id="a_node4"><a xlink:href="../../d5/d2b/classuxn_1_1patl_1_1impl_1_1generator__base.html#aa4658aadb8ae84a080968ae36652f8b5" target="_top" xlink:title=" ">
<polygon fill="none" stroke="black" points="313,-0.5 313,-30.5 453,-30.5 453,-0.5 313,-0.5"/>
<text text-anchor="start" x="321" y="-18.5" font-family="Helvetica,sans-Serif" font-size="10.00">uxn::patl::impl::generator</text>
<text text-anchor="middle" x="383" y="-7.5" font-family="Helvetica,sans-Serif" font-size="10.00">_base::value</text>
</a>
</g>
</g>
<!-- Node2&#45;&gt;Node4 -->
<g id="edge3" class="edge">
<title>Node2&#45;&gt;Node4</title>
<path fill="none" stroke="midnightblue" d="M277.44,-31.04C285.66,-29.82 294.25,-28.54 302.81,-27.27"/>
<polygon fill="midnightblue" stroke="midnightblue" points="303.45,-30.71 312.83,-25.78 302.42,-23.79 303.45,-30.71"/>
</g>
</g>
</svg>
