<?xml version="1.0" encoding="UTF-8" standalone="no"?>
<!DOCTYPE svg PUBLIC "-//W3C//DTD SVG 1.1//EN"
 "http://www.w3.org/Graphics/SVG/1.1/DTD/svg11.dtd">
<!-- Generated by graphviz version 5.0.1 (20220820.1526)
 -->
<!-- Title: uxn::patl::unordered_map::resize Pages: 1 -->
<svg width="299pt" height="127pt"
 viewBox="0.00 0.00 299.00 127.00" xmlns="http://www.w3.org/2000/svg" xmlns:xlink="http://www.w3.org/1999/xlink">
<g id="graph0" class="graph" transform="scale(1 1) rotate(0) translate(4 123)">
<title>uxn::patl::unordered_map::resize</title>
<!-- Node1 -->
<g id="node1" class="node">
<title>Node1</title>
<g id="a_node1"><a xlink:title=" ">
<polygon fill="#bfbfbf" stroke="black" points="0,-44.5 0,-74.5 115,-74.5 115,-44.5 0,-44.5"/>
<text text-anchor="start" x="8" y="-62.5" font-family="Helvetica,sans-Serif" font-size="10.00">uxn::patl::unordered</text>
<text text-anchor="middle" x="57.5" y="-51.5" font-family="Helvetica,sans-Serif" font-size="10.00">_map::resize</text>
</a>
</g>
</g>
<!-- Node2 -->
<g id="node2" class="node">
<title>Node2</title>
<g id="a_node2"><a xlink:href="../../d5/d2b/classuxn_1_1patl_1_1impl_1_1generator__base.html#ad5abe3cf10d0f52cfed4c527667eff5d" target="_top" xlink:title=" ">
<polygon fill="none" stroke="black" points="151,-88.5 151,-118.5 291,-118.5 291,-88.5 151,-88.5"/>
<text text-anchor="start" x="159" y="-106.5" font-family="Helvetica,sans-Serif" font-size="10.00">uxn::patl::impl::generator</text>
<text text-anchor="middle" x="221" y="-95.5" font-family="Helvetica,sans-Serif" font-size="10.00">_base::next</text>
</a>
</g>
</g>
<!-- Node1&#45;&gt;Node2 -->
<g id="edge1" class="edge">
<title>Node1&#45;&gt;Node2</title>
<path fill="none" stroke="midnightblue" d="M113.63,-74.52C126.94,-78.15 141.28,-82.05 155,-85.79"/>
<polygon fill="midnightblue" stroke="midnightblue" points="154.28,-89.22 164.85,-88.47 156.12,-82.47 154.28,-89.22"/>
</g>
<!-- Node3 -->
<g id="node3" class="node">
<title>Node3</title>
<g id="a_node3"><a xlink:href="../../d6/ddf/namespaceuxn_1_1patl.html#a647b5d72ae4f50a70f58e76f98e5f31b" target="_top" xlink:title=" ">
<polygon fill="none" stroke="black" points="175.5,-50 175.5,-69 266.5,-69 266.5,-50 175.5,-50"/>
<text text-anchor="middle" x="221" y="-57" font-family="Helvetica,sans-Serif" font-size="10.00">uxn::patl::swap</text>
</a>
</g>
</g>
<!-- Node1&#45;&gt;Node3 -->
<g id="edge2" class="edge">
<title>Node1&#45;&gt;Node3</title>
<path fill="none" stroke="midnightblue" d="M115.44,-59.5C131.6,-59.5 149.17,-59.5 165.2,-59.5"/>
<polygon fill="midnightblue" stroke="midnightblue" points="165.49,-63 175.49,-59.5 165.49,-56 165.49,-63"/>
</g>
<!-- Node4 -->
<g id="node4" class="node">
<title>Node4</title>
<g id="a_node4"><a xlink:href="../../d5/d2b/classuxn_1_1patl_1_1impl_1_1generator__base.html#aa4658aadb8ae84a080968ae36652f8b5" target="_top" xlink:title=" ">
<polygon fill="none" stroke="black" points="151,-0.5 151,-30.5 291,-30.5 291,-0.5 151,-0.5"/>
<text text-anchor="start" x="159" y="-18.5" font-family="Helvetica,sans-Serif" font-size="10.00">uxn::patl::impl::generator</text>
<text text-anchor="middle" x="221" y="-7.5" font-family="Helvetica,sans-Serif" font-size="10.00">_base::value</text>
</a>
</g>
</g>
<!-- Node1&#45;&gt;Node4 -->
<g id="edge3" class="edge">
<title>Node1&#45;&gt;Node4</title>
<path fill="none" stroke="midnightblue" d="M113.63,-44.48C126.94,-40.85 141.28,-36.95 155,-33.21"/>
<polygon fill="midnightblue" stroke="midnightblue" points="156.12,-36.53 164.85,-30.53 154.28,-29.78 156.12,-36.53"/>
</g>
</g>
</svg>
