<?xml version="1.0" encoding="UTF-8" standalone="no"?>
<!DOCTYPE svg PUBLIC "-//W3C//DTD SVG 1.1//EN"
 "http://www.w3.org/Graphics/SVG/1.1/DTD/svg11.dtd">
<!-- Generated by graphviz version 5.0.1 (20220820.1526)
 -->
<!-- Title: uxn::patl::unordered_map::operator[] Pages: 1 -->
<svg width="450pt" height="127pt"
 viewBox="0.00 0.00 450.00 126.50" xmlns="http://www.w3.org/2000/svg" xmlns:xlink="http://www.w3.org/1999/xlink">
<g id="graph0" class="graph" transform="scale(1 1) rotate(0) translate(4 122.5)">
<title>uxn::patl::unordered_map::operator[]</title>
<!-- Node1 -->
<g id="node1" class="node">
<title>Node1</title>
<g id="a_node1"><a xlink:title=" ">
<polygon fill="#bfbfbf" stroke="black" points="0,-63 0,-93 115,-93 115,-63 0,-63"/>
<text text-anchor="start" x="8" y="-81" font-family="Helvetica,sans-Serif" font-size="10.00">uxn::patl::unordered</text>
<text text-anchor="middle" x="57.5" y="-70" font-family="Helvetica,sans-Serif" font-size="10.00">_map::operator[]</text>
</a>
</g>
</g>
<!-- Node2 -->
<g id="node2" class="node">
<title>Node2</title>
<g id="a_node2"><a xlink:href="../../d8/d99/classuxn_1_1patl_1_1unordered__map.html#ad0b9d0a354821187cb46103da804660d" target="_top" xlink:title=" ">
<polygon fill="none" stroke="black" points="151,-88 151,-118 266,-118 266,-88 151,-88"/>
<text text-anchor="start" x="159" y="-106" font-family="Helvetica,sans-Serif" font-size="10.00">uxn::patl::unordered</text>
<text text-anchor="middle" x="208.5" y="-95" font-family="Helvetica,sans-Serif" font-size="10.00">_map::init</text>
</a>
</g>
</g>
<!-- Node1&#45;&gt;Node2 -->
<g id="edge1" class="edge">
<title>Node1&#45;&gt;Node2</title>
<path fill="none" stroke="midnightblue" d="M115.26,-87.52C123.65,-88.93 132.36,-90.39 140.93,-91.83"/>
<polygon fill="midnightblue" stroke="midnightblue" points="140.46,-95.3 150.9,-93.5 141.62,-88.4 140.46,-95.3"/>
</g>
<!-- Node5 -->
<g id="node5" class="node">
<title>Node5</title>
<g id="a_node5"><a xlink:href="../../d8/d99/classuxn_1_1patl_1_1unordered__map.html#abf70f60dcd06fc5ea658b06a00cbf5ea" target="_top" xlink:title=" ">
<polygon fill="none" stroke="black" points="151,-39 151,-69 266,-69 266,-39 151,-39"/>
<text text-anchor="start" x="159" y="-57" font-family="Helvetica,sans-Serif" font-size="10.00">uxn::patl::unordered</text>
<text text-anchor="middle" x="208.5" y="-46" font-family="Helvetica,sans-Serif" font-size="10.00">_map::resize</text>
</a>
</g>
</g>
<!-- Node1&#45;&gt;Node5 -->
<g id="edge4" class="edge">
<title>Node1&#45;&gt;Node5</title>
<path fill="none" stroke="midnightblue" d="M115.26,-68.86C123.65,-67.51 132.36,-66.1 140.93,-64.72"/>
<polygon fill="midnightblue" stroke="midnightblue" points="141.59,-68.16 150.9,-63.12 140.47,-61.25 141.59,-68.16"/>
</g>
<!-- Node3 -->
<g id="node3" class="node">
<title>Node3</title>
<g id="a_node3"><a xlink:href="../../d5/d2b/classuxn_1_1patl_1_1impl_1_1generator__base.html#ad5abe3cf10d0f52cfed4c527667eff5d" target="_top" xlink:title=" ">
<polygon fill="none" stroke="black" points="302,-39 302,-69 442,-69 442,-39 302,-39"/>
<text text-anchor="start" x="310" y="-57" font-family="Helvetica,sans-Serif" font-size="10.00">uxn::patl::impl::generator</text>
<text text-anchor="middle" x="372" y="-46" font-family="Helvetica,sans-Serif" font-size="10.00">_base::next</text>
</a>
</g>
</g>
<!-- Node2&#45;&gt;Node3 -->
<g id="edge2" class="edge">
<title>Node2&#45;&gt;Node3</title>
<path fill="none" stroke="midnightblue" d="M259.27,-87.9C275.78,-82.89 294.31,-77.27 311.47,-72.06"/>
<polygon fill="midnightblue" stroke="midnightblue" points="312.84,-75.3 321.39,-69.05 310.81,-68.61 312.84,-75.3"/>
</g>
<!-- Node4 -->
<g id="node4" class="node">
<title>Node4</title>
<g id="a_node4"><a xlink:href="../../d5/d2b/classuxn_1_1patl_1_1impl_1_1generator__base.html#aa4658aadb8ae84a080968ae36652f8b5" target="_top" xlink:title=" ">
<polygon fill="none" stroke="black" points="302,-88 302,-118 442,-118 442,-88 302,-88"/>
<text text-anchor="start" x="310" y="-106" font-family="Helvetica,sans-Serif" font-size="10.00">uxn::patl::impl::generator</text>
<text text-anchor="middle" x="372" y="-95" font-family="Helvetica,sans-Serif" font-size="10.00">_base::value</text>
</a>
</g>
</g>
<!-- Node2&#45;&gt;Node4 -->
<g id="edge3" class="edge">
<title>Node2&#45;&gt;Node4</title>
<path fill="none" stroke="midnightblue" d="M266.44,-103C274.66,-103 283.25,-103 291.81,-103"/>
<polygon fill="midnightblue" stroke="midnightblue" points="291.83,-106.5 301.83,-103 291.83,-99.5 291.83,-106.5"/>
</g>
<!-- Node5&#45;&gt;Node3 -->
<g id="edge5" class="edge">
<title>Node5&#45;&gt;Node3</title>
<path fill="none" stroke="midnightblue" d="M266.44,-54C274.66,-54 283.25,-54 291.81,-54"/>
<polygon fill="midnightblue" stroke="midnightblue" points="291.83,-57.5 301.83,-54 291.83,-50.5 291.83,-57.5"/>
</g>
<!-- Node5&#45;&gt;Node4 -->
<g id="edge7" class="edge">
<title>Node5&#45;&gt;Node4</title>
<path fill="none" stroke="midnightblue" d="M259.27,-69.1C275.78,-74.11 294.31,-79.73 311.47,-84.94"/>
<polygon fill="midnightblue" stroke="midnightblue" points="310.81,-88.39 321.39,-87.95 312.84,-81.7 310.81,-88.39"/>
</g>
<!-- Node6 -->
<g id="node6" class="node">
<title>Node6</title>
<g id="a_node6"><a xlink:href="../../d6/ddf/namespaceuxn_1_1patl.html#a647b5d72ae4f50a70f58e76f98e5f31b" target="_top" xlink:title=" ">
<polygon fill="none" stroke="black" points="326.5,-0.5 326.5,-19.5 417.5,-19.5 417.5,-0.5 326.5,-0.5"/>
<text text-anchor="middle" x="372" y="-7.5" font-family="Helvetica,sans-Serif" font-size="10.00">uxn::patl::swap</text>
</a>
</g>
</g>
<!-- Node5&#45;&gt;Node6 -->
<g id="edge6" class="edge">
<title>Node5&#45;&gt;Node6</title>
<path fill="none" stroke="midnightblue" d="M264.63,-38.98C284.61,-33.54 306.93,-27.46 325.94,-22.28"/>
<polygon fill="midnightblue" stroke="midnightblue" points="327.12,-25.58 335.84,-19.58 325.27,-18.83 327.12,-25.58"/>
</g>
</g>
</svg>
