<?xml version="1.0" encoding="UTF-8" standalone="no"?>
<!DOCTYPE svg PUBLIC "-//W3C//DTD SVG 1.1//EN"
 "http://www.w3.org/Graphics/SVG/1.1/DTD/svg11.dtd">
<!-- Generated by graphviz version 5.0.1 (20220820.1526)
 -->
<!-- Title: uxn::patl::impl::patricia_dot_base&lt; suffix_set&lt; Type, N, Delta, BitComp, Allocator &gt;, OutStream &gt;::out_node Pages: 1 -->
<svg width="343pt" height="225pt"
 viewBox="0.00 0.00 343.00 225.00" xmlns="http://www.w3.org/2000/svg" xmlns:xlink="http://www.w3.org/1999/xlink">
<g id="graph0" class="graph" transform="scale(1 1) rotate(0) translate(4 221)">
<title>uxn::patl::impl::patricia_dot_base&lt; suffix_set&lt; Type, N, Delta, BitComp, Allocator &gt;, OutStream &gt;::out_node</title>
<!-- Node1 -->
<g id="node1" class="node">
<title>Node1</title>
<g id="a_node1"><a xlink:title=" ">
<polygon fill="#bfbfbf" stroke="black" points="0,-77 0,-140 144,-140 144,-77 0,-77"/>
<text text-anchor="start" x="8" y="-128" font-family="Helvetica,sans-Serif" font-size="10.00">uxn::patl::impl::patricia</text>
<text text-anchor="start" x="8" y="-117" font-family="Helvetica,sans-Serif" font-size="10.00">_dot_base&lt; suffix_set&lt;</text>
<text text-anchor="start" x="8" y="-106" font-family="Helvetica,sans-Serif" font-size="10.00"> Type, N, Delta, BitComp,</text>
<text text-anchor="start" x="8" y="-95" font-family="Helvetica,sans-Serif" font-size="10.00"> Allocator &gt;, OutStream &gt;</text>
<text text-anchor="middle" x="72" y="-84" font-family="Helvetica,sans-Serif" font-size="10.00">::out_node</text>
</a>
</g>
</g>
<!-- Node2 -->
<g id="node2" class="node">
<title>Node2</title>
<g id="a_node2"><a xlink:href="../../d3/d81/classuxn_1_1patl_1_1impl_1_1const__vertex__generic.html#a38fcf0a25b383ffc9f67b0f23ec98c23" target="_top" xlink:title=" ">
<polygon fill="none" stroke="black" points="196.5,-186.5 196.5,-216.5 318.5,-216.5 318.5,-186.5 196.5,-186.5"/>
<text text-anchor="start" x="204.5" y="-204.5" font-family="Helvetica,sans-Serif" font-size="10.00">uxn::patl::impl::const</text>
<text text-anchor="middle" x="257.5" y="-193.5" font-family="Helvetica,sans-Serif" font-size="10.00">_vertex_generic::cont</text>
</a>
</g>
</g>
<!-- Node1&#45;&gt;Node2 -->
<g id="edge1" class="edge">
<title>Node1&#45;&gt;Node2</title>
<path fill="none" stroke="midnightblue" d="M116.23,-140.16C135.13,-152.99 157.98,-167.18 180,-177.5 184.01,-179.38 188.2,-181.16 192.47,-182.84"/>
<polygon fill="midnightblue" stroke="midnightblue" points="191.3,-186.14 201.9,-186.36 193.75,-179.58 191.3,-186.14"/>
</g>
<!-- Node3 -->
<g id="node3" class="node">
<title>Node3</title>
<g id="a_node3"><a xlink:href="../../dd/d0e/namespaceuxn_1_1patl_1_1impl.html#a2fa8af2a32a8d3dd66e657e71ff6288d" target="_top" xlink:title=" ">
<polygon fill="none" stroke="black" points="190,-137.5 190,-167.5 325,-167.5 325,-137.5 190,-137.5"/>
<text text-anchor="start" x="198" y="-155.5" font-family="Helvetica,sans-Serif" font-size="10.00">uxn::patl::impl::graphviz</text>
<text text-anchor="middle" x="257.5" y="-144.5" font-family="Helvetica,sans-Serif" font-size="10.00">_printable_string</text>
</a>
</g>
</g>
<!-- Node1&#45;&gt;Node3 -->
<g id="edge2" class="edge">
<title>Node1&#45;&gt;Node3</title>
<path fill="none" stroke="midnightblue" d="M144.21,-125.57C157.21,-128.69 170.8,-131.95 183.85,-135.08"/>
<polygon fill="midnightblue" stroke="midnightblue" points="183.16,-138.51 193.7,-137.44 184.79,-131.71 183.16,-138.51"/>
</g>
<!-- Node4 -->
<g id="node4" class="node">
<title>Node4</title>
<g id="a_node4"><a xlink:href="../../dd/d0e/namespaceuxn_1_1patl_1_1impl.html#ab90f63027d43b408cc70d2f0db94c9fc" target="_top" xlink:title=" ">
<polygon fill="none" stroke="black" points="197,-99 197,-118 318,-118 318,-99 197,-99"/>
<text text-anchor="middle" x="257.5" y="-106" font-family="Helvetica,sans-Serif" font-size="10.00">uxn::patl::impl::max0</text>
</a>
</g>
</g>
<!-- Node1&#45;&gt;Node4 -->
<g id="edge3" class="edge">
<title>Node1&#45;&gt;Node4</title>
<path fill="none" stroke="midnightblue" d="M144.21,-108.5C158.23,-108.5 172.93,-108.5 186.9,-108.5"/>
<polygon fill="midnightblue" stroke="midnightblue" points="186.93,-112 196.93,-108.5 186.93,-105 186.93,-112"/>
</g>
<!-- Node5 -->
<g id="node5" class="node">
<title>Node5</title>
<g id="a_node5"><a xlink:href="../../d3/d81/classuxn_1_1patl_1_1impl_1_1const__vertex__generic.html#ad9ddc67b1dcf5a0978176fa46b65ae22" target="_top" xlink:title=" ">
<polygon fill="none" stroke="black" points="180,-49.5 180,-79.5 335,-79.5 335,-49.5 180,-49.5"/>
<text text-anchor="start" x="188" y="-67.5" font-family="Helvetica,sans-Serif" font-size="10.00">uxn::patl::impl::const</text>
<text text-anchor="middle" x="257.5" y="-56.5" font-family="Helvetica,sans-Serif" font-size="10.00">_vertex_generic::parent_key</text>
</a>
</g>
</g>
<!-- Node1&#45;&gt;Node5 -->
<g id="edge4" class="edge">
<title>Node1&#45;&gt;Node5</title>
<path fill="none" stroke="midnightblue" d="M144.21,-91.43C157.21,-88.31 170.8,-85.05 183.85,-81.92"/>
<polygon fill="midnightblue" stroke="midnightblue" points="184.79,-85.29 193.7,-79.56 183.16,-78.49 184.79,-85.29"/>
</g>
<!-- Node6 -->
<g id="node6" class="node">
<title>Node6</title>
<g id="a_node6"><a xlink:href="../../d3/d81/classuxn_1_1patl_1_1impl_1_1const__vertex__generic.html#aea777dfc1baa0c2ccc8566c7e613a91d" target="_top" xlink:title=" ">
<polygon fill="none" stroke="black" points="197,-0.5 197,-30.5 318,-30.5 318,-0.5 197,-0.5"/>
<text text-anchor="start" x="205" y="-18.5" font-family="Helvetica,sans-Serif" font-size="10.00">uxn::patl::impl::const</text>
<text text-anchor="middle" x="257.5" y="-7.5" font-family="Helvetica,sans-Serif" font-size="10.00">_vertex_generic::skip</text>
</a>
</g>
</g>
<!-- Node1&#45;&gt;Node6 -->
<g id="edge5" class="edge">
<title>Node1&#45;&gt;Node6</title>
<path fill="none" stroke="midnightblue" d="M117.12,-76.94C135.89,-64.46 158.4,-50.69 180,-40.5 184.7,-38.28 189.64,-36.18 194.67,-34.21"/>
<polygon fill="midnightblue" stroke="midnightblue" points="196.23,-37.36 204.38,-30.59 193.78,-30.81 196.23,-37.36"/>
</g>
</g>
</svg>
