<?xml version="1.0" encoding="UTF-8" standalone="no"?>
<!DOCTYPE svg PUBLIC "-//W3C//DTD SVG 1.1//EN"
 "http://www.w3.org/Graphics/SVG/1.1/DTD/svg11.dtd">
<!-- Generated by graphviz version 5.0.1 (20220820.1526)
 -->
<!-- Title: uxn/patl/impl/primes.hpp Pages: 1 -->
<svg width="420pt" height="140pt"
 viewBox="0.00 0.00 419.50 140.00" xmlns="http://www.w3.org/2000/svg" xmlns:xlink="http://www.w3.org/1999/xlink">
<g id="graph0" class="graph" transform="scale(1 1) rotate(0) translate(4 136)">
<title>uxn/patl/impl/primes.hpp</title>
<!-- Node1 -->
<g id="node1" class="node">
<title>Node1</title>
<g id="a_node1"><a xlink:title=" ">
<polygon fill="#bfbfbf" stroke="black" points="72.5,-112.5 72.5,-131.5 211.5,-131.5 211.5,-112.5 72.5,-112.5"/>
<text text-anchor="middle" x="142" y="-119.5" font-family="Helvetica,sans-Serif" font-size="10.00">uxn/patl/impl/primes.hpp</text>
</a>
</g>
</g>
<!-- Node2 -->
<g id="node2" class="node">
<title>Node2</title>
<g id="a_node2"><a xlink:title=" ">
<polygon fill="none" stroke="#bfbfbf" points="0,-56.5 0,-75.5 58,-75.5 58,-56.5 0,-56.5"/>
<text text-anchor="middle" x="29" y="-63.5" font-family="Helvetica,sans-Serif" font-size="10.00">memory</text>
</a>
</g>
</g>
<!-- Node1&#45;&gt;Node2 -->
<g id="edge1" class="edge">
<title>Node1&#45;&gt;Node2</title>
<path fill="none" stroke="midnightblue" d="M124.09,-112.44C105.75,-103.68 76.99,-89.94 55.91,-79.86"/>
<polygon fill="midnightblue" stroke="midnightblue" points="57.35,-76.67 46.82,-75.52 54.33,-82.99 57.35,-76.67"/>
</g>
<!-- Node3 -->
<g id="node3" class="node">
<title>Node3</title>
<g id="a_node3"><a xlink:title=" ">
<polygon fill="none" stroke="#bfbfbf" points="76.5,-56.5 76.5,-75.5 123.5,-75.5 123.5,-56.5 76.5,-56.5"/>
<text text-anchor="middle" x="100" y="-63.5" font-family="Helvetica,sans-Serif" font-size="10.00">cmath</text>
</a>
</g>
</g>
<!-- Node1&#45;&gt;Node3 -->
<g id="edge2" class="edge">
<title>Node1&#45;&gt;Node3</title>
<path fill="none" stroke="midnightblue" d="M135.06,-112.08C129.07,-104.38 120.25,-93.03 112.95,-83.65"/>
<polygon fill="midnightblue" stroke="midnightblue" points="115.71,-81.5 106.81,-75.75 110.18,-85.79 115.71,-81.5"/>
</g>
<!-- Node4 -->
<g id="node4" class="node">
<title>Node4</title>
<g id="a_node4"><a xlink:href="../../d6/d3c/generator_8hpp.html" target="_top" xlink:title=" ">
<polygon fill="none" stroke="black" points="142,-56.5 142,-75.5 226,-75.5 226,-56.5 142,-56.5"/>
<text text-anchor="middle" x="184" y="-63.5" font-family="Helvetica,sans-Serif" font-size="10.00">generator.hpp</text>
</a>
</g>
</g>
<!-- Node1&#45;&gt;Node4 -->
<g id="edge3" class="edge">
<title>Node1&#45;&gt;Node4</title>
<path fill="none" stroke="midnightblue" d="M148.94,-112.08C154.93,-104.38 163.75,-93.03 171.05,-83.65"/>
<polygon fill="midnightblue" stroke="midnightblue" points="173.82,-85.79 177.19,-75.75 168.29,-81.5 173.82,-85.79"/>
</g>
<!-- Node5 -->
<g id="node5" class="node">
<title>Node5</title>
<g id="a_node5"><a xlink:href="../../d9/d3a/trivial_8hpp.html" target="_top" xlink:title=" ">
<polygon fill="none" stroke="black" points="244,-56.5 244,-75.5 310,-75.5 310,-56.5 244,-56.5"/>
<text text-anchor="middle" x="277" y="-63.5" font-family="Helvetica,sans-Serif" font-size="10.00">trivial.hpp</text>
</a>
</g>
</g>
<!-- Node1&#45;&gt;Node5 -->
<g id="edge4" class="edge">
<title>Node1&#45;&gt;Node5</title>
<path fill="none" stroke="midnightblue" d="M163.39,-112.44C185.71,-103.52 220.9,-89.44 246.21,-79.32"/>
<polygon fill="midnightblue" stroke="midnightblue" points="247.72,-82.48 255.71,-75.52 245.12,-75.98 247.72,-82.48"/>
</g>
<!-- Node6 -->
<g id="node6" class="node">
<title>Node6</title>
<g id="a_node6"><a xlink:href="../../d8/dfd/config_8hpp.html" target="_top" xlink:title=" ">
<polygon fill="none" stroke="black" points="108,-0.5 108,-19.5 184,-19.5 184,-0.5 108,-0.5"/>
<text text-anchor="middle" x="146" y="-7.5" font-family="Helvetica,sans-Serif" font-size="10.00">../config.hpp</text>
</a>
</g>
</g>
<!-- Node5&#45;&gt;Node6 -->
<g id="edge5" class="edge">
<title>Node5&#45;&gt;Node6</title>
<path fill="none" stroke="midnightblue" d="M256.24,-56.44C234.68,-47.56 200.74,-33.56 176.21,-23.45"/>
<polygon fill="midnightblue" stroke="midnightblue" points="177.24,-20.09 166.66,-19.52 174.57,-26.56 177.24,-20.09"/>
</g>
<!-- Node7 -->
<g id="node7" class="node">
<title>Node7</title>
<g id="a_node7"><a xlink:title=" ">
<polygon fill="none" stroke="#bfbfbf" points="202.5,-0.5 202.5,-19.5 271.5,-19.5 271.5,-0.5 202.5,-0.5"/>
<text text-anchor="middle" x="237" y="-7.5" font-family="Helvetica,sans-Serif" font-size="10.00">type_traits</text>
</a>
</g>
</g>
<!-- Node5&#45;&gt;Node7 -->
<g id="edge6" class="edge">
<title>Node5&#45;&gt;Node7</title>
<path fill="none" stroke="midnightblue" d="M270.39,-56.08C264.74,-48.46 256.46,-37.26 249.55,-27.94"/>
<polygon fill="midnightblue" stroke="midnightblue" points="252.25,-25.7 243.48,-19.75 246.62,-29.87 252.25,-25.7"/>
</g>
<!-- Node8 -->
<g id="node8" class="node">
<title>Node8</title>
<g id="a_node8"><a xlink:title=" ">
<polygon fill="none" stroke="#bfbfbf" points="290,-0.5 290,-19.5 342,-19.5 342,-0.5 290,-0.5"/>
<text text-anchor="middle" x="316" y="-7.5" font-family="Helvetica,sans-Serif" font-size="10.00">cassert</text>
</a>
</g>
</g>
<!-- Node5&#45;&gt;Node8 -->
<g id="edge7" class="edge">
<title>Node5&#45;&gt;Node8</title>
<path fill="none" stroke="midnightblue" d="M283.44,-56.08C288.95,-48.46 297.03,-37.26 303.76,-27.94"/>
<polygon fill="midnightblue" stroke="midnightblue" points="306.66,-29.91 309.68,-19.75 300.99,-25.81 306.66,-29.91"/>
</g>
<!-- Node9 -->
<g id="node9" class="node">
<title>Node9</title>
<g id="a_node9"><a xlink:title=" ">
<polygon fill="none" stroke="#bfbfbf" points="360.5,-0.5 360.5,-19.5 411.5,-19.5 411.5,-0.5 360.5,-0.5"/>
<text text-anchor="middle" x="386" y="-7.5" font-family="Helvetica,sans-Serif" font-size="10.00">intrin.h</text>
</a>
</g>
</g>
<!-- Node5&#45;&gt;Node9 -->
<g id="edge8" class="edge">
<title>Node5&#45;&gt;Node9</title>
<path fill="none" stroke="midnightblue" d="M294.51,-56.32C312.07,-47.62 339.33,-34.12 359.53,-24.11"/>
<polygon fill="midnightblue" stroke="midnightblue" points="361.12,-27.23 368.53,-19.65 358.02,-20.96 361.12,-27.23"/>
</g>
</g>
</svg>
