<?xml version="1.0" encoding="UTF-8" standalone="no"?>
<!DOCTYPE svg PUBLIC "-//W3C//DTD SVG 1.1//EN"
 "http://www.w3.org/Graphics/SVG/1.1/DTD/svg11.dtd">
<!-- Generated by graphviz version 5.0.1 (20220820.1526)
 -->
<!-- Title: uxn/patl/aux_/file_mapping_io.hpp Pages: 1 -->
<svg width="525pt" height="151pt"
 viewBox="0.00 0.00 524.50 151.00" xmlns="http://www.w3.org/2000/svg" xmlns:xlink="http://www.w3.org/1999/xlink">
<g id="graph0" class="graph" transform="scale(1 1) rotate(0) translate(4 147)">
<title>uxn/patl/aux_/file_mapping_io.hpp</title>
<!-- Node1 -->
<g id="node1" class="node">
<title>Node1</title>
<g id="a_node1"><a xlink:title=" ">
<polygon fill="#bfbfbf" stroke="black" points="258,-112.5 258,-142.5 359,-142.5 359,-112.5 258,-112.5"/>
<text text-anchor="start" x="266" y="-130.5" font-family="Helvetica,sans-Serif" font-size="10.00">uxn/patl/aux_/file</text>
<text text-anchor="middle" x="308.5" y="-119.5" font-family="Helvetica,sans-Serif" font-size="10.00">_mapping_io.hpp</text>
</a>
</g>
</g>
<!-- Node2 -->
<g id="node2" class="node">
<title>Node2</title>
<g id="a_node2"><a xlink:href="../../d8/dfd/config_8hpp.html" target="_top" xlink:title=" ">
<polygon fill="none" stroke="black" points="226.5,-0.5 226.5,-19.5 302.5,-19.5 302.5,-0.5 226.5,-0.5"/>
<text text-anchor="middle" x="264.5" y="-7.5" font-family="Helvetica,sans-Serif" font-size="10.00">../config.hpp</text>
</a>
</g>
</g>
<!-- Node1&#45;&gt;Node2 -->
<g id="edge1" class="edge">
<title>Node1&#45;&gt;Node2</title>
<path fill="none" stroke="midnightblue" d="M303.1,-112.34C295.14,-91.43 280.24,-52.31 271.46,-29.27"/>
<polygon fill="midnightblue" stroke="midnightblue" points="274.63,-27.77 267.8,-19.67 268.09,-30.26 274.63,-27.77"/>
</g>
<!-- Node3 -->
<g id="node3" class="node">
<title>Node3</title>
<g id="a_node3"><a xlink:href="../../d9/d3a/trivial_8hpp.html" target="_top" xlink:title=" ">
<polygon fill="none" stroke="black" points="132.5,-56.5 132.5,-75.5 232.5,-75.5 232.5,-56.5 132.5,-56.5"/>
<text text-anchor="middle" x="182.5" y="-63.5" font-family="Helvetica,sans-Serif" font-size="10.00">../impl/trivial.hpp</text>
</a>
</g>
</g>
<!-- Node1&#45;&gt;Node3 -->
<g id="edge2" class="edge">
<title>Node1&#45;&gt;Node3</title>
<path fill="none" stroke="midnightblue" d="M278.64,-112.4C257.88,-102.59 230.4,-89.62 210.14,-80.05"/>
<polygon fill="midnightblue" stroke="midnightblue" points="211.37,-76.76 200.83,-75.66 208.38,-83.09 211.37,-76.76"/>
</g>
<!-- Node7 -->
<g id="node7" class="node">
<title>Node7</title>
<g id="a_node7"><a xlink:href="../../d9/df1/file__utils_8hpp.html" target="_top" xlink:title=" ">
<polygon fill="none" stroke="black" points="303,-56.5 303,-75.5 382,-75.5 382,-56.5 303,-56.5"/>
<text text-anchor="middle" x="342.5" y="-63.5" font-family="Helvetica,sans-Serif" font-size="10.00">file_utils.hpp</text>
</a>
</g>
</g>
<!-- Node1&#45;&gt;Node7 -->
<g id="edge7" class="edge">
<title>Node1&#45;&gt;Node7</title>
<path fill="none" stroke="midnightblue" d="M316.56,-112.4C321.35,-104.02 327.46,-93.33 332.54,-84.42"/>
<polygon fill="midnightblue" stroke="midnightblue" points="335.63,-86.08 337.55,-75.66 329.55,-82.6 335.63,-86.08"/>
</g>
<!-- Node10 -->
<g id="node10" class="node">
<title>Node10</title>
<g id="a_node10"><a xlink:title=" ">
<polygon fill="none" stroke="#bfbfbf" points="448.5,-0.5 448.5,-19.5 516.5,-19.5 516.5,-0.5 448.5,-0.5"/>
<text text-anchor="middle" x="482.5" y="-7.5" font-family="Helvetica,sans-Serif" font-size="10.00">windows.h</text>
</a>
</g>
</g>
<!-- Node1&#45;&gt;Node10 -->
<g id="edge12" class="edge">
<title>Node1&#45;&gt;Node10</title>
<path fill="none" stroke="midnightblue" d="M332.43,-112.31C348.92,-102.39 371.25,-88.71 390.5,-76 415.75,-59.33 444.07,-39.07 462.54,-25.65"/>
<polygon fill="midnightblue" stroke="midnightblue" points="464.74,-28.38 470.76,-19.66 460.62,-22.72 464.74,-28.38"/>
</g>
<!-- Node3&#45;&gt;Node2 -->
<g id="edge3" class="edge">
<title>Node3&#45;&gt;Node2</title>
<path fill="none" stroke="midnightblue" d="M195.67,-56.32C208.35,-47.98 227.73,-35.21 242.71,-25.35"/>
<polygon fill="midnightblue" stroke="midnightblue" points="244.93,-28.08 251.36,-19.65 241.08,-22.23 244.93,-28.08"/>
</g>
<!-- Node4 -->
<g id="node4" class="node">
<title>Node4</title>
<g id="a_node4"><a xlink:title=" ">
<polygon fill="none" stroke="#bfbfbf" points="69,-0.5 69,-19.5 138,-19.5 138,-0.5 69,-0.5"/>
<text text-anchor="middle" x="103.5" y="-7.5" font-family="Helvetica,sans-Serif" font-size="10.00">type_traits</text>
</a>
</g>
</g>
<!-- Node3&#45;&gt;Node4 -->
<g id="edge4" class="edge">
<title>Node3&#45;&gt;Node4</title>
<path fill="none" stroke="midnightblue" d="M169.81,-56.32C157.6,-47.98 138.92,-35.21 124.5,-25.35"/>
<polygon fill="midnightblue" stroke="midnightblue" points="126.39,-22.41 116.16,-19.65 122.44,-28.19 126.39,-22.41"/>
</g>
<!-- Node5 -->
<g id="node5" class="node">
<title>Node5</title>
<g id="a_node5"><a xlink:title=" ">
<polygon fill="none" stroke="#bfbfbf" points="156.5,-0.5 156.5,-19.5 208.5,-19.5 208.5,-0.5 156.5,-0.5"/>
<text text-anchor="middle" x="182.5" y="-7.5" font-family="Helvetica,sans-Serif" font-size="10.00">cassert</text>
</a>
</g>
</g>
<!-- Node3&#45;&gt;Node5 -->
<g id="edge5" class="edge">
<title>Node3&#45;&gt;Node5</title>
<path fill="none" stroke="midnightblue" d="M182.5,-56.08C182.5,-49.01 182.5,-38.86 182.5,-29.99"/>
<polygon fill="midnightblue" stroke="midnightblue" points="186,-29.75 182.5,-19.75 179,-29.75 186,-29.75"/>
</g>
<!-- Node6 -->
<g id="node6" class="node">
<title>Node6</title>
<g id="a_node6"><a xlink:title=" ">
<polygon fill="none" stroke="#bfbfbf" points="0,-0.5 0,-19.5 51,-19.5 51,-0.5 0,-0.5"/>
<text text-anchor="middle" x="25.5" y="-7.5" font-family="Helvetica,sans-Serif" font-size="10.00">intrin.h</text>
</a>
</g>
</g>
<!-- Node3&#45;&gt;Node6 -->
<g id="edge6" class="edge">
<title>Node3&#45;&gt;Node6</title>
<path fill="none" stroke="midnightblue" d="M157.62,-56.44C131.21,-47.36 89.28,-32.94 59.76,-22.78"/>
<polygon fill="midnightblue" stroke="midnightblue" points="60.86,-19.46 50.26,-19.52 58.58,-26.08 60.86,-19.46"/>
</g>
<!-- Node7&#45;&gt;Node2 -->
<g id="edge8" class="edge">
<title>Node7&#45;&gt;Node2</title>
<path fill="none" stroke="midnightblue" d="M329.97,-56.32C317.91,-47.98 299.47,-35.21 285.23,-25.35"/>
<polygon fill="midnightblue" stroke="midnightblue" points="287.22,-22.47 277,-19.65 283.23,-28.22 287.22,-22.47"/>
</g>
<!-- Node8 -->
<g id="node8" class="node">
<title>Node8</title>
<g id="a_node8"><a xlink:title=" ">
<polygon fill="none" stroke="#bfbfbf" points="320.5,-0.5 320.5,-19.5 364.5,-19.5 364.5,-0.5 320.5,-0.5"/>
<text text-anchor="middle" x="342.5" y="-7.5" font-family="Helvetica,sans-Serif" font-size="10.00">string</text>
</a>
</g>
</g>
<!-- Node7&#45;&gt;Node8 -->
<g id="edge9" class="edge">
<title>Node7&#45;&gt;Node8</title>
<path fill="none" stroke="midnightblue" d="M342.5,-56.08C342.5,-49.01 342.5,-38.86 342.5,-29.99"/>
<polygon fill="midnightblue" stroke="midnightblue" points="346,-29.75 342.5,-19.75 339,-29.75 346,-29.75"/>
</g>
<!-- Node9 -->
<g id="node9" class="node">
<title>Node9</title>
<g id="a_node9"><a xlink:title=" ">
<polygon fill="none" stroke="#bfbfbf" points="383,-0.5 383,-19.5 430,-19.5 430,-0.5 383,-0.5"/>
<text text-anchor="middle" x="406.5" y="-7.5" font-family="Helvetica,sans-Serif" font-size="10.00">vector</text>
</a>
</g>
</g>
<!-- Node7&#45;&gt;Node9 -->
<g id="edge10" class="edge">
<title>Node7&#45;&gt;Node9</title>
<path fill="none" stroke="midnightblue" d="M352.78,-56.32C362.34,-48.26 376.78,-36.08 388.28,-26.37"/>
<polygon fill="midnightblue" stroke="midnightblue" points="390.64,-28.96 396.03,-19.83 386.13,-23.61 390.64,-28.96"/>
</g>
<!-- Node7&#45;&gt;Node10 -->
<g id="edge11" class="edge">
<title>Node7&#45;&gt;Node10</title>
<path fill="none" stroke="midnightblue" d="M364.68,-56.44C387.93,-47.48 424.65,-33.31 450.92,-23.18"/>
<polygon fill="midnightblue" stroke="midnightblue" points="452.35,-26.38 460.42,-19.52 449.83,-19.85 452.35,-26.38"/>
</g>
</g>
</svg>
