<?xml version="1.0" encoding="UTF-8" standalone="no"?>
<!DOCTYPE svg PUBLIC "-//W3C//DTD SVG 1.1//EN"
 "http://www.w3.org/Graphics/SVG/1.1/DTD/svg11.dtd">
<!-- Generated by graphviz version 5.0.1 (20220820.1526)
 -->
<!-- Title: uxn::patl::impl::const_vertex_generic::cont Pages: 1 -->
<svg width="340pt" height="231pt"
 viewBox="0.00 0.00 340.00 230.50" xmlns="http://www.w3.org/2000/svg" xmlns:xlink="http://www.w3.org/1999/xlink">
<g id="graph0" class="graph" transform="scale(1 1) rotate(0) translate(4 226.5)">
<title>uxn::patl::impl::const_vertex_generic::cont</title>
<!-- Node1 -->
<g id="node1" class="node">
<title>Node1</title>
<g id="a_node1"><a xlink:title=" ">
<polygon fill="#bfbfbf" stroke="black" points="210,-82.5 210,-112.5 332,-112.5 332,-82.5 210,-82.5"/>
<text text-anchor="start" x="218" y="-100.5" font-family="Helvetica,sans-Serif" font-size="10.00">uxn::patl::impl::const</text>
<text text-anchor="middle" x="271" y="-89.5" font-family="Helvetica,sans-Serif" font-size="10.00">_vertex_generic::cont</text>
</a>
</g>
</g>
<!-- Node2 -->
<g id="node2" class="node">
<title>Node2</title>
<g id="a_node2"><a xlink:href="../../dc/d4b/classuxn_1_1patl_1_1impl_1_1suffix__generic_1_1match__iterator.html#a178c99287b12e933bad30cac538486dc" target="_top" xlink:title=" ">
<polygon fill="none" stroke="black" points="19,-181 19,-222 155,-222 155,-181 19,-181"/>
<text text-anchor="start" x="27" y="-210" font-family="Helvetica,sans-Serif" font-size="10.00">uxn::patl::impl::suffix</text>
<text text-anchor="start" x="27" y="-199" font-family="Helvetica,sans-Serif" font-size="10.00">_generic::match_iterator</text>
<text text-anchor="middle" x="87" y="-188" font-family="Helvetica,sans-Serif" font-size="10.00">::operator++</text>
</a>
</g>
</g>
<!-- Node1&#45;&gt;Node2 -->
<g id="edge1" class="edge">
<title>Node1&#45;&gt;Node2</title>
<path fill="none" stroke="midnightblue" d="M246.15,-119.41C227.59,-135.54 200.6,-157.1 174,-171.5 167.74,-174.89 161.03,-178.01 154.21,-180.86"/>
<polygon fill="midnightblue" stroke="midnightblue" points="248.63,-121.88 253.81,-112.64 244,-116.64 248.63,-121.88"/>
</g>
<!-- Node3 -->
<g id="node3" class="node">
<title>Node3</title>
<g id="a_node3"><a xlink:href="../../d8/de6/classuxn_1_1patl_1_1impl_1_1patricia__dot__base_3_01suffix__set_3_01Type_00_01N_00_01Delta_00_01f366aa432e5874b34aa8e2df35cf2909.html#ad46e1416efddc2a1f178764861ab96c3" target="_top" xlink:title=" ">
<polygon fill="none" stroke="black" points="15,-99 15,-162 159,-162 159,-99 15,-99"/>
<text text-anchor="start" x="23" y="-150" font-family="Helvetica,sans-Serif" font-size="10.00">uxn::patl::impl::patricia</text>
<text text-anchor="start" x="23" y="-139" font-family="Helvetica,sans-Serif" font-size="10.00">_dot_base&lt; suffix_set&lt;</text>
<text text-anchor="start" x="23" y="-128" font-family="Helvetica,sans-Serif" font-size="10.00"> Type, N, Delta, BitComp,</text>
<text text-anchor="start" x="23" y="-117" font-family="Helvetica,sans-Serif" font-size="10.00"> Allocator &gt;, OutStream &gt;</text>
<text text-anchor="middle" x="87" y="-106" font-family="Helvetica,sans-Serif" font-size="10.00">::out_node</text>
</a>
</g>
</g>
<!-- Node1&#45;&gt;Node3 -->
<g id="edge2" class="edge">
<title>Node1&#45;&gt;Node3</title>
<path fill="none" stroke="midnightblue" d="M199.83,-110.22C186.48,-112.64 172.49,-115.18 159.1,-117.61"/>
<polygon fill="midnightblue" stroke="midnightblue" points="200.69,-113.62 209.9,-108.4 199.44,-106.74 200.69,-113.62"/>
</g>
<!-- Node4 -->
<g id="node4" class="node">
<title>Node4</title>
<g id="a_node4"><a xlink:href="../../d3/dd2/classuxn_1_1patl_1_1impl_1_1vertex__generic.html#ac65231f56d505a6d3021ecb27a777d65" target="_top" xlink:title=" ">
<polygon fill="none" stroke="black" points="18.5,-49.5 18.5,-79.5 155.5,-79.5 155.5,-49.5 18.5,-49.5"/>
<text text-anchor="start" x="26.5" y="-67.5" font-family="Helvetica,sans-Serif" font-size="10.00">uxn::patl::impl::vertex</text>
<text text-anchor="middle" x="87" y="-56.5" font-family="Helvetica,sans-Serif" font-size="10.00">_generic::preorder_begin</text>
</a>
</g>
</g>
<!-- Node1&#45;&gt;Node4 -->
<g id="edge3" class="edge">
<title>Node1&#45;&gt;Node4</title>
<path fill="none" stroke="midnightblue" d="M199.96,-84.8C185.39,-82.16 170.06,-79.38 155.58,-76.75"/>
<polygon fill="midnightblue" stroke="midnightblue" points="199.44,-88.26 209.9,-86.6 200.69,-81.38 199.44,-88.26"/>
</g>
<!-- Node5 -->
<g id="node5" class="node">
<title>Node5</title>
<g id="a_node5"><a xlink:href="../../d3/d81/classuxn_1_1patl_1_1impl_1_1const__vertex__generic.html#a397b25296c9ce98b545c735986cfdcd1" target="_top" xlink:title=" ">
<polygon fill="none" stroke="black" points="0,-0.5 0,-30.5 174,-30.5 174,-0.5 0,-0.5"/>
<text text-anchor="start" x="8" y="-18.5" font-family="Helvetica,sans-Serif" font-size="10.00">uxn::patl::impl::const</text>
<text text-anchor="middle" x="87" y="-7.5" font-family="Helvetica,sans-Serif" font-size="10.00">_vertex_generic::preorder_begin</text>
</a>
</g>
</g>
<!-- Node1&#45;&gt;Node5 -->
<g id="edge4" class="edge">
<title>Node1&#45;&gt;Node5</title>
<path fill="none" stroke="midnightblue" d="M239.82,-76.89C221.42,-65.02 197.07,-50.51 174,-40.5 165.58,-36.85 156.48,-33.55 147.45,-30.64"/>
<polygon fill="midnightblue" stroke="midnightblue" points="238.07,-79.92 248.35,-82.48 241.9,-74.07 238.07,-79.92"/>
</g>
</g>
</svg>
