<?xml version="1.0" encoding="UTF-8" standalone="no"?>
<!DOCTYPE svg PUBLIC "-//W3C//DTD SVG 1.1//EN"
 "http://www.w3.org/Graphics/SVG/1.1/DTD/svg11.dtd">
<!-- Generated by graphviz version 5.0.1 (20220820.1526)
 -->
<!-- Title: uxn::patl::impl::const_vertex_generic::move_subtree Pages: 1 -->
<svg width="309pt" height="137pt"
 viewBox="0.00 0.00 309.00 137.00" xmlns="http://www.w3.org/2000/svg" xmlns:xlink="http://www.w3.org/1999/xlink">
<g id="graph0" class="graph" transform="scale(1 1) rotate(0) translate(4 133)">
<title>uxn::patl::impl::const_vertex_generic::move_subtree</title>
<!-- Node1 -->
<g id="node1" class="node">
<title>Node1</title>
<g id="a_node1"><a xlink:title=" ">
<polygon fill="#bfbfbf" stroke="black" points="0,-44 0,-85 128,-85 128,-44 0,-44"/>
<text text-anchor="start" x="8" y="-73" font-family="Helvetica,sans-Serif" font-size="10.00">uxn::patl::impl::const</text>
<text text-anchor="start" x="8" y="-62" font-family="Helvetica,sans-Serif" font-size="10.00">_vertex_generic::move</text>
<text text-anchor="middle" x="64" y="-51" font-family="Helvetica,sans-Serif" font-size="10.00">_subtree</text>
</a>
</g>
</g>
<!-- Node2 -->
<g id="node2" class="node">
<title>Node2</title>
<g id="a_node2"><a xlink:href="../../d3/d81/classuxn_1_1patl_1_1impl_1_1const__vertex__generic.html#a49c99f57e0a6f4a19587545e591b5508" target="_top" xlink:title=" ">
<polygon fill="none" stroke="black" points="165,-98.5 165,-128.5 300,-128.5 300,-98.5 165,-98.5"/>
<text text-anchor="start" x="173" y="-116.5" font-family="Helvetica,sans-Serif" font-size="10.00">uxn::patl::impl::const</text>
<text text-anchor="middle" x="232.5" y="-105.5" font-family="Helvetica,sans-Serif" font-size="10.00">_vertex_generic::ascend</text>
</a>
</g>
</g>
<!-- Node1&#45;&gt;Node2 -->
<g id="edge1" class="edge">
<title>Node1&#45;&gt;Node2</title>
<path fill="none" stroke="midnightblue" d="M128.42,-83.16C142.25,-87.23 156.85,-91.53 170.58,-95.57"/>
<polygon fill="midnightblue" stroke="midnightblue" points="169.82,-99 180.4,-98.46 171.8,-92.28 169.82,-99"/>
</g>
<!-- Node3 -->
<g id="node3" class="node">
<title>Node3</title>
<g id="a_node3"><a xlink:href="../../d3/d81/classuxn_1_1patl_1_1impl_1_1const__vertex__generic.html#a2e4c2bf98c5e838adf1aad01bbf3ab40" target="_top" xlink:title=" ">
<polygon fill="none" stroke="black" points="164,-49.5 164,-79.5 301,-79.5 301,-49.5 164,-49.5"/>
<text text-anchor="start" x="172" y="-67.5" font-family="Helvetica,sans-Serif" font-size="10.00">uxn::patl::impl::const</text>
<text text-anchor="middle" x="232.5" y="-56.5" font-family="Helvetica,sans-Serif" font-size="10.00">_vertex_generic::get_qid</text>
</a>
</g>
</g>
<!-- Node1&#45;&gt;Node3 -->
<g id="edge2" class="edge">
<title>Node1&#45;&gt;Node3</title>
<path fill="none" stroke="midnightblue" d="M128.42,-64.5C136.65,-64.5 145.16,-64.5 153.59,-64.5"/>
<polygon fill="midnightblue" stroke="midnightblue" points="153.82,-68 163.82,-64.5 153.82,-61 153.82,-68"/>
</g>
<!-- Node4 -->
<g id="node4" class="node">
<title>Node4</title>
<g id="a_node4"><a xlink:href="../../d3/d81/classuxn_1_1patl_1_1impl_1_1const__vertex__generic.html#a50f5c5fa0cf604e7a3ea38be470472c2" target="_top" xlink:title=" ">
<polygon fill="none" stroke="black" points="167,-0.5 167,-30.5 298,-30.5 298,-0.5 167,-0.5"/>
<text text-anchor="start" x="175" y="-18.5" font-family="Helvetica,sans-Serif" font-size="10.00">uxn::patl::impl::const</text>
<text text-anchor="middle" x="232.5" y="-7.5" font-family="Helvetica,sans-Serif" font-size="10.00">_vertex_generic::toggle</text>
</a>
</g>
</g>
<!-- Node1&#45;&gt;Node4 -->
<g id="edge3" class="edge">
<title>Node1&#45;&gt;Node4</title>
<path fill="none" stroke="midnightblue" d="M128.42,-45.84C142.25,-41.77 156.85,-37.47 170.58,-33.43"/>
<polygon fill="midnightblue" stroke="midnightblue" points="171.8,-36.72 180.4,-30.54 169.82,-30 171.8,-36.72"/>
</g>
</g>
</svg>
