<?xml version="1.0" encoding="UTF-8" standalone="no"?>
<!DOCTYPE svg PUBLIC "-//W3C//DTD SVG 1.1//EN"
 "http://www.w3.org/Graphics/SVG/1.1/DTD/svg11.dtd">
<!-- Generated by graphviz version 5.0.1 (20220820.1526)
 -->
<!-- Title: uxn::patl::impl::const_vertex_generic::mismatch Pages: 1 -->
<svg width="318pt" height="230pt"
 viewBox="0.00 0.00 318.00 230.00" xmlns="http://www.w3.org/2000/svg" xmlns:xlink="http://www.w3.org/1999/xlink">
<g id="graph0" class="graph" transform="scale(1 1) rotate(0) translate(4 226)">
<title>uxn::patl::impl::const_vertex_generic::mismatch</title>
<!-- Node1 -->
<g id="node1" class="node">
<title>Node1</title>
<g id="a_node1"><a xlink:title=" ">
<polygon fill="#bfbfbf" stroke="black" points="161,-96 161,-126 310,-126 310,-96 161,-96"/>
<text text-anchor="start" x="169" y="-114" font-family="Helvetica,sans-Serif" font-size="10.00">uxn::patl::impl::const</text>
<text text-anchor="middle" x="235.5" y="-103" font-family="Helvetica,sans-Serif" font-size="10.00">_vertex_generic::mismatch</text>
</a>
</g>
</g>
<!-- Node2 -->
<g id="node2" class="node">
<title>Node2</title>
<g id="a_node2"><a xlink:href="../../d3/dd0/classuxn_1_1patl_1_1impl_1_1assoc__generic_3_01This_00_01T_00_010_01_4.html#a67960e4d9e1db9cc09538ec6e17e8d43" target="_top" xlink:title=" ">
<polygon fill="none" stroke="black" points="0,-180.5 0,-221.5 125,-221.5 125,-180.5 0,-180.5"/>
<text text-anchor="start" x="8" y="-209.5" font-family="Helvetica,sans-Serif" font-size="10.00">uxn::patl::impl::assoc</text>
<text text-anchor="start" x="8" y="-198.5" font-family="Helvetica,sans-Serif" font-size="10.00">_generic&lt; This, T, 0 &gt;</text>
<text text-anchor="middle" x="62.5" y="-187.5" font-family="Helvetica,sans-Serif" font-size="10.00">::equal_range</text>
</a>
</g>
</g>
<!-- Node1&#45;&gt;Node2 -->
<g id="edge1" class="edge">
<title>Node1&#45;&gt;Node2</title>
<path fill="none" stroke="midnightblue" d="M198.69,-131.18C177.41,-143.03 149.82,-158.16 125,-171 118.99,-174.11 112.6,-177.33 106.31,-180.44"/>
<polygon fill="midnightblue" stroke="midnightblue" points="200.67,-134.09 207.69,-126.15 197.25,-127.97 200.67,-134.09"/>
</g>
<!-- Node3 -->
<g id="node3" class="node">
<title>Node3</title>
<g id="a_node3"><a xlink:href="../../d3/dd0/classuxn_1_1patl_1_1impl_1_1assoc__generic_3_01This_00_01T_00_010_01_4.html#ad54a0519b2d938f8c3f980f64a26f356" target="_top" xlink:title=" ">
<polygon fill="none" stroke="black" points="0,-120.5 0,-161.5 125,-161.5 125,-120.5 0,-120.5"/>
<text text-anchor="start" x="8" y="-149.5" font-family="Helvetica,sans-Serif" font-size="10.00">uxn::patl::impl::assoc</text>
<text text-anchor="start" x="8" y="-138.5" font-family="Helvetica,sans-Serif" font-size="10.00">_generic&lt; This, T, 0 &gt;</text>
<text text-anchor="middle" x="62.5" y="-127.5" font-family="Helvetica,sans-Serif" font-size="10.00">::find</text>
</a>
</g>
</g>
<!-- Node1&#45;&gt;Node3 -->
<g id="edge2" class="edge">
<title>Node1&#45;&gt;Node3</title>
<path fill="none" stroke="midnightblue" d="M151.13,-125.63C142.38,-127.16 133.59,-128.7 125.14,-130.19"/>
<polygon fill="midnightblue" stroke="midnightblue" points="151.74,-129.07 160.99,-123.9 150.53,-122.18 151.74,-129.07"/>
</g>
<!-- Node4 -->
<g id="node4" class="node">
<title>Node4</title>
<g id="a_node4"><a xlink:href="../../d3/dd0/classuxn_1_1patl_1_1impl_1_1assoc__generic_3_01This_00_01T_00_010_01_4.html#afaf21416c6409adae24a1f34e1336681" target="_top" xlink:title=" ">
<polygon fill="none" stroke="black" points="0,-60.5 0,-101.5 125,-101.5 125,-60.5 0,-60.5"/>
<text text-anchor="start" x="8" y="-89.5" font-family="Helvetica,sans-Serif" font-size="10.00">uxn::patl::impl::assoc</text>
<text text-anchor="start" x="8" y="-78.5" font-family="Helvetica,sans-Serif" font-size="10.00">_generic&lt; This, T, 0 &gt;</text>
<text text-anchor="middle" x="62.5" y="-67.5" font-family="Helvetica,sans-Serif" font-size="10.00">::lower_bound</text>
</a>
</g>
</g>
<!-- Node1&#45;&gt;Node4 -->
<g id="edge3" class="edge">
<title>Node1&#45;&gt;Node4</title>
<path fill="none" stroke="midnightblue" d="M151.13,-96.37C142.38,-94.84 133.59,-93.3 125.14,-91.81"/>
<polygon fill="midnightblue" stroke="midnightblue" points="150.53,-99.82 160.99,-98.1 151.74,-92.93 150.53,-99.82"/>
</g>
<!-- Node5 -->
<g id="node5" class="node">
<title>Node5</title>
<g id="a_node5"><a xlink:href="../../d3/dd0/classuxn_1_1patl_1_1impl_1_1assoc__generic_3_01This_00_01T_00_010_01_4.html#a58d493658e33db64fd5ee955612a98df" target="_top" xlink:title=" ">
<polygon fill="none" stroke="black" points="0,-0.5 0,-41.5 125,-41.5 125,-0.5 0,-0.5"/>
<text text-anchor="start" x="8" y="-29.5" font-family="Helvetica,sans-Serif" font-size="10.00">uxn::patl::impl::assoc</text>
<text text-anchor="start" x="8" y="-18.5" font-family="Helvetica,sans-Serif" font-size="10.00">_generic&lt; This, T, 0 &gt;</text>
<text text-anchor="middle" x="62.5" y="-7.5" font-family="Helvetica,sans-Serif" font-size="10.00">::upper_bound</text>
</a>
</g>
</g>
<!-- Node1&#45;&gt;Node5 -->
<g id="edge4" class="edge">
<title>Node1&#45;&gt;Node5</title>
<path fill="none" stroke="midnightblue" d="M198.69,-90.82C177.41,-78.97 149.82,-63.84 125,-51 118.99,-47.89 112.6,-44.67 106.31,-41.56"/>
<polygon fill="midnightblue" stroke="midnightblue" points="197.25,-94.03 207.69,-95.85 200.67,-87.91 197.25,-94.03"/>
</g>
</g>
</svg>
