<?xml version="1.0" encoding="UTF-8" standalone="no"?>
<!DOCTYPE svg PUBLIC "-//W3C//DTD SVG 1.1//EN"
 "http://www.w3.org/Graphics/SVG/1.1/DTD/svg11.dtd">
<!-- Generated by graphviz version 5.0.1 (20220820.1526)
 -->
<!-- Title: uxn::patl::impl::const_vertex_generic::key Pages: 1 -->
<svg width="473pt" height="268pt"
 viewBox="0.00 0.00 473.00 268.00" xmlns="http://www.w3.org/2000/svg" xmlns:xlink="http://www.w3.org/1999/xlink">
<g id="graph0" class="graph" transform="scale(1 1) rotate(0) translate(4 264)">
<title>uxn::patl::impl::const_vertex_generic::key</title>
<!-- Node1 -->
<g id="node1" class="node">
<title>Node1</title>
<g id="a_node1"><a xlink:title=" ">
<polygon fill="#bfbfbf" stroke="black" points="346,-148 346,-178 465,-178 465,-148 346,-148"/>
<text text-anchor="start" x="354" y="-166" font-family="Helvetica,sans-Serif" font-size="10.00">uxn::patl::impl::const</text>
<text text-anchor="middle" x="405.5" y="-155" font-family="Helvetica,sans-Serif" font-size="10.00">_vertex_generic::key</text>
</a>
</g>
</g>
<!-- Node2 -->
<g id="node2" class="node">
<title>Node2</title>
<g id="a_node2"><a xlink:href="../../d3/d87/lz77_8cpp.html#a96bf5c98cb36266e461ecf6f31ac3aa7" target="_top" xlink:title=" ">
<polygon fill="none" stroke="black" points="197,-207.5 197,-226.5 274,-226.5 274,-207.5 197,-207.5"/>
<text text-anchor="middle" x="235.5" y="-214.5" font-family="Helvetica,sans-Serif" font-size="10.00">lz_compress</text>
</a>
</g>
</g>
<!-- Node1&#45;&gt;Node2 -->
<g id="edge1" class="edge">
<title>Node1&#45;&gt;Node2</title>
<path fill="none" stroke="midnightblue" d="M347.83,-181.21C320.45,-190.02 288.71,-200.22 266.15,-207.47"/>
<polygon fill="midnightblue" stroke="midnightblue" points="349.25,-184.43 357.7,-178.04 347.11,-177.77 349.25,-184.43"/>
</g>
<!-- Node4 -->
<g id="node4" class="node">
<title>Node4</title>
<g id="a_node4"><a xlink:href="../../d3/d81/classuxn_1_1patl_1_1impl_1_1const__vertex__generic.html#a8f4e0758455e7eb209105d3f3634c23c" target="_top" xlink:title=" ">
<polygon fill="none" stroke="black" points="161,-126 161,-156 310,-156 310,-126 161,-126"/>
<text text-anchor="start" x="169" y="-144" font-family="Helvetica,sans-Serif" font-size="10.00">uxn::patl::impl::const</text>
<text text-anchor="middle" x="235.5" y="-133" font-family="Helvetica,sans-Serif" font-size="10.00">_vertex_generic::mismatch</text>
</a>
</g>
</g>
<!-- Node1&#45;&gt;Node4 -->
<g id="edge3" class="edge">
<title>Node1&#45;&gt;Node4</title>
<path fill="none" stroke="midnightblue" d="M335.66,-153.99C327.3,-152.89 318.72,-151.77 310.29,-150.66"/>
<polygon fill="midnightblue" stroke="midnightblue" points="335.37,-157.48 345.74,-155.31 336.28,-150.54 335.37,-157.48"/>
</g>
<!-- Node3 -->
<g id="node3" class="node">
<title>Node3</title>
<g id="a_node3"><a xlink:href="../../d3/d87/lz77_8cpp.html#a0ddf1224851353fc92bfbff6f499fa97" target="_top" xlink:title=" ">
<polygon fill="none" stroke="black" points="42,-240.5 42,-259.5 83,-259.5 83,-240.5 42,-240.5"/>
<text text-anchor="middle" x="62.5" y="-247.5" font-family="Helvetica,sans-Serif" font-size="10.00">main</text>
</a>
</g>
</g>
<!-- Node2&#45;&gt;Node3 -->
<g id="edge2" class="edge">
<title>Node2&#45;&gt;Node3</title>
<path fill="none" stroke="midnightblue" d="M186.74,-226.22C152.64,-232.8 108.52,-241.31 83.37,-246.16"/>
<polygon fill="midnightblue" stroke="midnightblue" points="187.82,-229.57 196.97,-224.24 186.49,-222.7 187.82,-229.57"/>
</g>
<!-- Node5 -->
<g id="node5" class="node">
<title>Node5</title>
<g id="a_node5"><a xlink:href="../../d3/dd0/classuxn_1_1patl_1_1impl_1_1assoc__generic_3_01This_00_01T_00_010_01_4.html#a67960e4d9e1db9cc09538ec6e17e8d43" target="_top" xlink:title=" ">
<polygon fill="none" stroke="black" points="0,-180.5 0,-221.5 125,-221.5 125,-180.5 0,-180.5"/>
<text text-anchor="start" x="8" y="-209.5" font-family="Helvetica,sans-Serif" font-size="10.00">uxn::patl::impl::assoc</text>
<text text-anchor="start" x="8" y="-198.5" font-family="Helvetica,sans-Serif" font-size="10.00">_generic&lt; This, T, 0 &gt;</text>
<text text-anchor="middle" x="62.5" y="-187.5" font-family="Helvetica,sans-Serif" font-size="10.00">::equal_range</text>
</a>
</g>
</g>
<!-- Node4&#45;&gt;Node5 -->
<g id="edge4" class="edge">
<title>Node4&#45;&gt;Node5</title>
<path fill="none" stroke="midnightblue" d="M181.73,-159.51C162.86,-166.14 141.48,-173.64 122.14,-180.42"/>
<polygon fill="midnightblue" stroke="midnightblue" points="183.07,-162.75 191.35,-156.14 180.75,-156.15 183.07,-162.75"/>
</g>
<!-- Node6 -->
<g id="node6" class="node">
<title>Node6</title>
<g id="a_node6"><a xlink:href="../../d3/dd0/classuxn_1_1patl_1_1impl_1_1assoc__generic_3_01This_00_01T_00_010_01_4.html#ad54a0519b2d938f8c3f980f64a26f356" target="_top" xlink:title=" ">
<polygon fill="none" stroke="black" points="0,-120.5 0,-161.5 125,-161.5 125,-120.5 0,-120.5"/>
<text text-anchor="start" x="8" y="-149.5" font-family="Helvetica,sans-Serif" font-size="10.00">uxn::patl::impl::assoc</text>
<text text-anchor="start" x="8" y="-138.5" font-family="Helvetica,sans-Serif" font-size="10.00">_generic&lt; This, T, 0 &gt;</text>
<text text-anchor="middle" x="62.5" y="-127.5" font-family="Helvetica,sans-Serif" font-size="10.00">::find</text>
</a>
</g>
</g>
<!-- Node4&#45;&gt;Node6 -->
<g id="edge5" class="edge">
<title>Node4&#45;&gt;Node6</title>
<path fill="none" stroke="midnightblue" d="M150.85,-141C142.19,-141 133.5,-141 125.14,-141"/>
<polygon fill="midnightblue" stroke="midnightblue" points="150.99,-144.5 160.99,-141 150.99,-137.5 150.99,-144.5"/>
</g>
<!-- Node7 -->
<g id="node7" class="node">
<title>Node7</title>
<g id="a_node7"><a xlink:href="../../d3/dd0/classuxn_1_1patl_1_1impl_1_1assoc__generic_3_01This_00_01T_00_010_01_4.html#afaf21416c6409adae24a1f34e1336681" target="_top" xlink:title=" ">
<polygon fill="none" stroke="black" points="0,-60.5 0,-101.5 125,-101.5 125,-60.5 0,-60.5"/>
<text text-anchor="start" x="8" y="-89.5" font-family="Helvetica,sans-Serif" font-size="10.00">uxn::patl::impl::assoc</text>
<text text-anchor="start" x="8" y="-78.5" font-family="Helvetica,sans-Serif" font-size="10.00">_generic&lt; This, T, 0 &gt;</text>
<text text-anchor="middle" x="62.5" y="-67.5" font-family="Helvetica,sans-Serif" font-size="10.00">::lower_bound</text>
</a>
</g>
</g>
<!-- Node4&#45;&gt;Node7 -->
<g id="edge6" class="edge">
<title>Node4&#45;&gt;Node7</title>
<path fill="none" stroke="midnightblue" d="M181.73,-122.49C162.86,-115.86 141.48,-108.36 122.14,-101.58"/>
<polygon fill="midnightblue" stroke="midnightblue" points="180.75,-125.85 191.35,-125.86 183.07,-119.25 180.75,-125.85"/>
</g>
<!-- Node8 -->
<g id="node8" class="node">
<title>Node8</title>
<g id="a_node8"><a xlink:href="../../d3/dd0/classuxn_1_1patl_1_1impl_1_1assoc__generic_3_01This_00_01T_00_010_01_4.html#a58d493658e33db64fd5ee955612a98df" target="_top" xlink:title=" ">
<polygon fill="none" stroke="black" points="0,-0.5 0,-41.5 125,-41.5 125,-0.5 0,-0.5"/>
<text text-anchor="start" x="8" y="-29.5" font-family="Helvetica,sans-Serif" font-size="10.00">uxn::patl::impl::assoc</text>
<text text-anchor="start" x="8" y="-18.5" font-family="Helvetica,sans-Serif" font-size="10.00">_generic&lt; This, T, 0 &gt;</text>
<text text-anchor="middle" x="62.5" y="-7.5" font-family="Helvetica,sans-Serif" font-size="10.00">::upper_bound</text>
</a>
</g>
</g>
<!-- Node4&#45;&gt;Node8 -->
<g id="edge7" class="edge">
<title>Node4&#45;&gt;Node8</title>
<path fill="none" stroke="midnightblue" d="M210.77,-118.71C189.4,-99.34 156.58,-71.28 125,-51 119.9,-47.73 114.39,-44.57 108.84,-41.6"/>
<polygon fill="midnightblue" stroke="midnightblue" points="208.63,-121.5 218.37,-125.68 213.36,-116.34 208.63,-121.5"/>
</g>
</g>
</svg>
