<?xml version="1.0" encoding="UTF-8" standalone="no"?>
<!DOCTYPE svg PUBLIC "-//W3C//DTD SVG 1.1//EN"
 "http://www.w3.org/Graphics/SVG/1.1/DTD/svg11.dtd">
<!-- Generated by graphviz version 5.0.1 (20220820.1526)
 -->
<!-- Title: uxn::patl::impl::const_vertex_generic::descend Pages: 1 -->
<svg width="328pt" height="88pt"
 viewBox="0.00 0.00 328.00 88.00" xmlns="http://www.w3.org/2000/svg" xmlns:xlink="http://www.w3.org/1999/xlink">
<g id="graph0" class="graph" transform="scale(1 1) rotate(0) translate(4 84)">
<title>uxn::patl::impl::const_vertex_generic::descend</title>
<!-- Node1 -->
<g id="node1" class="node">
<title>Node1</title>
<g id="a_node1"><a xlink:title=" ">
<polygon fill="#bfbfbf" stroke="black" points="0,-24.5 0,-54.5 141,-54.5 141,-24.5 0,-24.5"/>
<text text-anchor="start" x="8" y="-42.5" font-family="Helvetica,sans-Serif" font-size="10.00">uxn::patl::impl::const</text>
<text text-anchor="middle" x="70.5" y="-31.5" font-family="Helvetica,sans-Serif" font-size="10.00">_vertex_generic::descend</text>
</a>
</g>
</g>
<!-- Node2 -->
<g id="node2" class="node">
<title>Node2</title>
<g id="a_node2"><a xlink:href="../../d3/d81/classuxn_1_1patl_1_1impl_1_1const__vertex__generic.html#a28ae52e519389323a53f5a97a77554d1" target="_top" xlink:title=" ">
<polygon fill="none" stroke="black" points="177,-49.5 177,-79.5 320,-79.5 320,-49.5 177,-49.5"/>
<text text-anchor="start" x="185" y="-67.5" font-family="Helvetica,sans-Serif" font-size="10.00">uxn::patl::impl::const</text>
<text text-anchor="middle" x="248.5" y="-56.5" font-family="Helvetica,sans-Serif" font-size="10.00">_vertex_generic::get_qtag</text>
</a>
</g>
</g>
<!-- Node1&#45;&gt;Node2 -->
<g id="edge1" class="edge">
<title>Node1&#45;&gt;Node2</title>
<path fill="none" stroke="midnightblue" d="M141.06,-49.38C149.49,-50.58 158.15,-51.81 166.72,-53.03"/>
<polygon fill="midnightblue" stroke="midnightblue" points="166.32,-56.5 176.71,-54.45 167.31,-49.57 166.32,-56.5"/>
</g>
<!-- Node3 -->
<g id="node3" class="node">
<title>Node3</title>
<g id="a_node3"><a xlink:href="../../d3/d81/classuxn_1_1patl_1_1impl_1_1const__vertex__generic.html#a83dc9091bda95f7e20aa9be21dba2e70" target="_top" xlink:title=" ">
<polygon fill="none" stroke="black" points="182,-0.5 182,-30.5 315,-30.5 315,-0.5 182,-0.5"/>
<text text-anchor="start" x="190" y="-18.5" font-family="Helvetica,sans-Serif" font-size="10.00">uxn::patl::impl::const</text>
<text text-anchor="middle" x="248.5" y="-7.5" font-family="Helvetica,sans-Serif" font-size="10.00">_vertex_generic::iterate</text>
</a>
</g>
</g>
<!-- Node1&#45;&gt;Node3 -->
<g id="edge2" class="edge">
<title>Node1&#45;&gt;Node3</title>
<path fill="none" stroke="midnightblue" d="M141.06,-30.01C151.15,-28.64 161.58,-27.22 171.78,-25.83"/>
<polygon fill="midnightblue" stroke="midnightblue" points="172.45,-29.27 181.89,-24.45 171.5,-22.33 172.45,-29.27"/>
</g>
</g>
</svg>
