<?xml version="1.0" encoding="UTF-8" standalone="no"?>
<!DOCTYPE svg PUBLIC "-//W3C//DTD SVG 1.1//EN"
 "http://www.w3.org/Graphics/SVG/1.1/DTD/svg11.dtd">
<!-- Generated by graphviz version 5.0.1 (20220820.1526)
 -->
<!-- Title: uxn::patl::impl::const_vertex_generic::rend Pages: 1 -->
<svg width="867pt" height="137pt"
 viewBox="0.00 0.00 867.00 137.00" xmlns="http://www.w3.org/2000/svg" xmlns:xlink="http://www.w3.org/1999/xlink">
<g id="graph0" class="graph" transform="scale(1 1) rotate(0) translate(4 133)">
<title>uxn::patl::impl::const_vertex_generic::rend</title>
<!-- Node1 -->
<g id="node1" class="node">
<title>Node1</title>
<g id="a_node1"><a xlink:title=" ">
<polygon fill="#bfbfbf" stroke="black" points="0,-49.5 0,-79.5 122,-79.5 122,-49.5 0,-49.5"/>
<text text-anchor="start" x="8" y="-67.5" font-family="Helvetica,sans-Serif" font-size="10.00">uxn::patl::impl::const</text>
<text text-anchor="middle" x="61" y="-56.5" font-family="Helvetica,sans-Serif" font-size="10.00">_vertex_generic::rend</text>
</a>
</g>
</g>
<!-- Node2 -->
<g id="node2" class="node">
<title>Node2</title>
<g id="a_node2"><a xlink:href="../../d3/d81/classuxn_1_1patl_1_1impl_1_1const__vertex__generic.html#af1cc8c30cc8f704fb4e35d3364538f48" target="_top" xlink:title=" ">
<polygon fill="none" stroke="black" points="158,-49.5 158,-79.5 286,-79.5 286,-49.5 158,-49.5"/>
<text text-anchor="start" x="166" y="-67.5" font-family="Helvetica,sans-Serif" font-size="10.00">uxn::patl::impl::const</text>
<text text-anchor="middle" x="222" y="-56.5" font-family="Helvetica,sans-Serif" font-size="10.00">_vertex_generic::begin</text>
</a>
</g>
</g>
<!-- Node1&#45;&gt;Node2 -->
<g id="edge1" class="edge">
<title>Node1&#45;&gt;Node2</title>
<path fill="none" stroke="midnightblue" d="M122.11,-64.5C130.52,-64.5 139.23,-64.5 147.85,-64.5"/>
<polygon fill="midnightblue" stroke="midnightblue" points="147.89,-68 157.89,-64.5 147.89,-61 147.89,-68"/>
</g>
<!-- Node3 -->
<g id="node3" class="node">
<title>Node3</title>
<g id="a_node3"><a xlink:href="../../d3/d81/classuxn_1_1patl_1_1impl_1_1const__vertex__generic.html#a1e9ad82f586c9f991b83bc4d7f82cac6" target="_top" xlink:title=" ">
<polygon fill="none" stroke="black" points="322,-49.5 322,-79.5 501,-79.5 501,-49.5 322,-49.5"/>
<text text-anchor="start" x="330" y="-67.5" font-family="Helvetica,sans-Serif" font-size="10.00">uxn::patl::impl::const</text>
<text text-anchor="middle" x="411.5" y="-56.5" font-family="Helvetica,sans-Serif" font-size="10.00">_vertex_generic::postorder_begin</text>
</a>
</g>
</g>
<!-- Node2&#45;&gt;Node3 -->
<g id="edge2" class="edge">
<title>Node2&#45;&gt;Node3</title>
<path fill="none" stroke="midnightblue" d="M286.22,-64.5C294.47,-64.5 303.08,-64.5 311.74,-64.5"/>
<polygon fill="midnightblue" stroke="midnightblue" points="311.92,-68 321.92,-64.5 311.92,-61 311.92,-68"/>
</g>
<!-- Node4 -->
<g id="node4" class="node">
<title>Node4</title>
<g id="a_node4"><a xlink:href="../../d3/d81/classuxn_1_1patl_1_1impl_1_1const__vertex__generic.html#a1120c8bb56d5171cce2ba16f00e1aeb4" target="_top" xlink:title=" ">
<polygon fill="none" stroke="black" points="537,-98.5 537,-128.5 680,-128.5 680,-98.5 537,-98.5"/>
<text text-anchor="start" x="545" y="-116.5" font-family="Helvetica,sans-Serif" font-size="10.00">uxn::patl::impl::const</text>
<text text-anchor="middle" x="608.5" y="-105.5" font-family="Helvetica,sans-Serif" font-size="10.00">_vertex_generic::compact</text>
</a>
</g>
</g>
<!-- Node3&#45;&gt;Node4 -->
<g id="edge3" class="edge">
<title>Node3&#45;&gt;Node4</title>
<path fill="none" stroke="midnightblue" d="M472.33,-79.53C493.11,-84.76 516.58,-90.65 538.07,-96.05"/>
<polygon fill="midnightblue" stroke="midnightblue" points="537.23,-99.45 547.78,-98.49 538.94,-92.66 537.23,-99.45"/>
</g>
<!-- Node5 -->
<g id="node5" class="node">
<title>Node5</title>
<g id="a_node5"><a xlink:href="../../d3/d81/classuxn_1_1patl_1_1impl_1_1const__vertex__generic.html#adf333e5ca6b4d370c815f82ee420ec96" target="_top" xlink:title="trie descend to the leaves">
<polygon fill="none" stroke="black" points="538,-49.5 538,-79.5 679,-79.5 679,-49.5 538,-49.5"/>
<text text-anchor="start" x="546" y="-67.5" font-family="Helvetica,sans-Serif" font-size="10.00">uxn::patl::impl::const</text>
<text text-anchor="middle" x="608.5" y="-56.5" font-family="Helvetica,sans-Serif" font-size="10.00">_vertex_generic::descend</text>
</a>
</g>
</g>
<!-- Node3&#45;&gt;Node5 -->
<g id="edge4" class="edge">
<title>Node3&#45;&gt;Node5</title>
<path fill="none" stroke="midnightblue" d="M501.16,-64.5C509.98,-64.5 518.9,-64.5 527.62,-64.5"/>
<polygon fill="midnightblue" stroke="midnightblue" points="527.76,-68 537.76,-64.5 527.76,-61 527.76,-68"/>
</g>
<!-- Node8 -->
<g id="node8" class="node">
<title>Node8</title>
<g id="a_node8"><a xlink:href="../../d3/d81/classuxn_1_1patl_1_1impl_1_1const__vertex__generic.html#a50f5c5fa0cf604e7a3ea38be470472c2" target="_top" xlink:title=" ">
<polygon fill="none" stroke="black" points="543,-0.5 543,-30.5 674,-30.5 674,-0.5 543,-0.5"/>
<text text-anchor="start" x="551" y="-18.5" font-family="Helvetica,sans-Serif" font-size="10.00">uxn::patl::impl::const</text>
<text text-anchor="middle" x="608.5" y="-7.5" font-family="Helvetica,sans-Serif" font-size="10.00">_vertex_generic::toggle</text>
</a>
</g>
</g>
<!-- Node3&#45;&gt;Node8 -->
<g id="edge7" class="edge">
<title>Node3&#45;&gt;Node8</title>
<path fill="none" stroke="midnightblue" d="M472.33,-49.47C493.11,-44.24 516.58,-38.35 538.07,-32.95"/>
<polygon fill="midnightblue" stroke="midnightblue" points="538.94,-36.34 547.78,-30.51 537.23,-29.55 538.94,-36.34"/>
</g>
<!-- Node6 -->
<g id="node6" class="node">
<title>Node6</title>
<g id="a_node6"><a xlink:href="../../d3/d81/classuxn_1_1patl_1_1impl_1_1const__vertex__generic.html#a28ae52e519389323a53f5a97a77554d1" target="_top" xlink:title=" ">
<polygon fill="none" stroke="black" points="716,-73.5 716,-103.5 859,-103.5 859,-73.5 716,-73.5"/>
<text text-anchor="start" x="724" y="-91.5" font-family="Helvetica,sans-Serif" font-size="10.00">uxn::patl::impl::const</text>
<text text-anchor="middle" x="787.5" y="-80.5" font-family="Helvetica,sans-Serif" font-size="10.00">_vertex_generic::get_qtag</text>
</a>
</g>
</g>
<!-- Node5&#45;&gt;Node6 -->
<g id="edge5" class="edge">
<title>Node5&#45;&gt;Node6</title>
<path fill="none" stroke="midnightblue" d="M679.2,-73.95C687.99,-75.14 697.03,-76.37 705.97,-77.58"/>
<polygon fill="midnightblue" stroke="midnightblue" points="705.61,-81.06 715.99,-78.94 706.55,-74.13 705.61,-81.06"/>
</g>
<!-- Node7 -->
<g id="node7" class="node">
<title>Node7</title>
<g id="a_node7"><a xlink:href="../../d3/d81/classuxn_1_1patl_1_1impl_1_1const__vertex__generic.html#a83dc9091bda95f7e20aa9be21dba2e70" target="_top" xlink:title=" ">
<polygon fill="none" stroke="black" points="721,-24.5 721,-54.5 854,-54.5 854,-24.5 721,-24.5"/>
<text text-anchor="start" x="729" y="-42.5" font-family="Helvetica,sans-Serif" font-size="10.00">uxn::patl::impl::const</text>
<text text-anchor="middle" x="787.5" y="-31.5" font-family="Helvetica,sans-Serif" font-size="10.00">_vertex_generic::iterate</text>
</a>
</g>
</g>
<!-- Node5&#45;&gt;Node7 -->
<g id="edge6" class="edge">
<title>Node5&#45;&gt;Node7</title>
<path fill="none" stroke="midnightblue" d="M679.2,-54.66C689.61,-53.18 700.39,-51.66 710.91,-50.18"/>
<polygon fill="midnightblue" stroke="midnightblue" points="711.49,-53.63 720.91,-48.76 710.51,-46.7 711.49,-53.63"/>
</g>
</g>
</svg>
