<?xml version="1.0" encoding="UTF-8" standalone="no"?>
<!DOCTYPE svg PUBLIC "-//W3C//DTD SVG 1.1//EN"
 "http://www.w3.org/Graphics/SVG/1.1/DTD/svg11.dtd">
<!-- Generated by graphviz version 5.0.1 (20220820.1526)
 -->
<!-- Title: uxn::patl::impl::const_vertex_generic::toggle Pages: 1 -->
<!--zoomable 553 -->
<svg id="main" version="1.1" xmlns="http://www.w3.org/2000/svg" xmlns:xlink="http://www.w3.org/1999/xlink" xml:space="preserve" onload="init(evt)">
<style type="text/css"><![CDATA[
.edge:hover path { stroke: red; }
.edge:hover polygon { stroke: red; fill: red; }
]]></style>
<script type="text/javascript"><![CDATA[
var edges = document.getElementsByTagName('g');
if (edges && edges.length) {
  for (var i=0;i<edges.length;i++) {
    if (edges[i].id.substr(0,4)=='edge') {
      edges[i].setAttribute('class','edge');
    }
  }
}
]]></script>
        <defs>
                <circle id="rim" cx="0" cy="0" r="7"/>
                <circle id="rim2" cx="0" cy="0" r="3.5"/>
                <g id="zoomPlus">
                        <use xlink:href="#rim" fill="#404040">
                                <set attributeName="fill" to="#808080" begin="zoomplus.mouseover" end="zoomplus.mouseout"/>
                        </use>
                        <path d="M-4,0h8M0,-4v8" fill="none" stroke="white" stroke-width="1.5" pointer-events="none"/>
                </g>
                <g id="zoomMin">
                        <use xlink:href="#rim" fill="#404040">
                                <set attributeName="fill" to="#808080" begin="zoomminus.mouseover" end="zoomminus.mouseout"/>
                        </use>
                        <path d="M-4,0h8" fill="none" stroke="white" stroke-width="1.5" pointer-events="none"/>
                </g>
                <g id="dirArrow">
                        <path fill="none" stroke="white" stroke-width="1.5" d="M0,-3.0v7 M-2.5,-0.5L0,-3.0L2.5,-0.5"/>
                </g>
               <g id="resetDef">
                       <use xlink:href="#rim2" fill="#404040">
                               <set attributeName="fill" to="#808080" begin="reset.mouseover" end="reset.mouseout"/>
                       </use>
               </g>
        </defs>

<script type="text/javascript">
var viewWidth = 701;
var viewHeight = 553;
var sectionId = 'dynsection-39';
</script>
<script xlink:href="../../svgpan.js"/>
<svg id="graph" class="graph">
<g id="viewport">
<title>uxn::patl::impl::const_vertex_generic::toggle</title>
<!-- Node1 -->
<g id="node1" class="node">
<title>Node1</title>
<g id="a_node1"><a xlink:title=" ">
<polygon fill="#bfbfbf" stroke="black" points="562,-245.5 562,-275.5 693,-275.5 693,-245.5 562,-245.5"/>
<text text-anchor="start" x="570" y="-263.5" font-family="Helvetica,sans-Serif" font-size="10.00">uxn::patl::impl::const</text>
<text text-anchor="middle" x="627.5" y="-252.5" font-family="Helvetica,sans-Serif" font-size="10.00">_vertex_generic::toggle</text>
</a>
</g>
</g>
<!-- Node2 -->
<g id="node2" class="node">
<title>Node2</title>
<g id="a_node2"><a xlink:href="../../d3/dd0/classuxn_1_1patl_1_1impl_1_1assoc__generic_3_01This_00_01T_00_010_01_4.html#a0fb41dbfa78a037ac72ff6dff79554f2" target="_top" xlink:title=" ">
<polygon fill="none" stroke="black" points="374,-503 374,-544 499,-544 499,-503 374,-503"/>
<text text-anchor="start" x="382" y="-532" font-family="Helvetica,sans-Serif" font-size="10.00">uxn::patl::impl::assoc</text>
<text text-anchor="start" x="382" y="-521" font-family="Helvetica,sans-Serif" font-size="10.00">_generic&lt; This, T, 0 &gt;</text>
<text text-anchor="middle" x="436.5" y="-510" font-family="Helvetica,sans-Serif" font-size="10.00">::begin</text>
</a>
</g>
</g>
<!-- Node1&#45;&gt;Node2 -->
<g id="edge1" class="edge">
<title>Node1&#45;&gt;Node2</title>
<path fill="none" stroke="midnightblue" d="M622.52,-285.78C613.75,-333.22 588.33,-435.99 526,-493.5 518.37,-500.54 509.02,-505.94 499.29,-510.07"/>
<polygon fill="midnightblue" stroke="midnightblue" points="626,-286.2 624.28,-275.75 619.11,-284.99 626,-286.2"/>
</g>
<!-- Node3 -->
<g id="node3" class="node">
<title>Node3</title>
<g id="a_node3"><a xlink:href="../../d3/dd0/classuxn_1_1patl_1_1impl_1_1assoc__generic_3_01This_00_01T_00_010_01_4.html#a1fca43c877c55c2838d42a338eb6e634" target="_top" xlink:title=" ">
<polygon fill="none" stroke="black" points="362,-453.5 362,-483.5 511,-483.5 511,-453.5 362,-453.5"/>
<text text-anchor="start" x="370" y="-471.5" font-family="Helvetica,sans-Serif" font-size="10.00">uxn::patl::impl::assoc</text>
<text text-anchor="middle" x="436.5" y="-460.5" font-family="Helvetica,sans-Serif" font-size="10.00">_generic&lt; This, T, 0 &gt;::end</text>
</a>
</g>
</g>
<!-- Node1&#45;&gt;Node3 -->
<g id="edge2" class="edge">
<title>Node1&#45;&gt;Node3</title>
<path fill="none" stroke="midnightblue" d="M619.7,-285.31C607.58,-324.8 578.47,-401.76 526,-443.5 521.13,-447.38 515.68,-450.65 509.96,-453.42"/>
<polygon fill="midnightblue" stroke="midnightblue" points="623.07,-286.25 622.55,-275.67 616.36,-284.27 623.07,-286.25"/>
</g>
<!-- Node4 -->
<g id="node4" class="node">
<title>Node4</title>
<g id="a_node4"><a xlink:href="../../d3/d81/classuxn_1_1patl_1_1impl_1_1const__vertex__generic.html#aa49b51df36f51c74829f096de09cf126" target="_top" xlink:title="generic part of all move functions">
<polygon fill="none" stroke="black" points="372.5,-393 372.5,-434 500.5,-434 500.5,-393 372.5,-393"/>
<text text-anchor="start" x="380.5" y="-422" font-family="Helvetica,sans-Serif" font-size="10.00">uxn::patl::impl::const</text>
<text text-anchor="start" x="380.5" y="-411" font-family="Helvetica,sans-Serif" font-size="10.00">_vertex_generic::move</text>
<text text-anchor="middle" x="436.5" y="-400" font-family="Helvetica,sans-Serif" font-size="10.00">_subtree</text>
</a>
</g>
</g>
<!-- Node1&#45;&gt;Node4 -->
<g id="edge3" class="edge">
<title>Node1&#45;&gt;Node4</title>
<path fill="none" stroke="midnightblue" d="M612.81,-284.31C595.79,-311.9 564.28,-356.96 526,-383.5 518.27,-388.86 509.5,-393.33 500.55,-397.04"/>
<polygon fill="midnightblue" stroke="midnightblue" points="615.85,-286.04 618.01,-275.67 609.85,-282.43 615.85,-286.04"/>
</g>
<!-- Node5 -->
<g id="node5" class="node">
<title>Node5</title>
<g id="a_node5"><a xlink:href="../../d3/dd2/classuxn_1_1patl_1_1impl_1_1vertex__generic.html#a283c433ce06f5d8a5143e46bba90520a" target="_top" xlink:title=" ">
<polygon fill="none" stroke="black" points="365,-294.5 365,-324.5 508,-324.5 508,-294.5 365,-294.5"/>
<text text-anchor="start" x="373" y="-312.5" font-family="Helvetica,sans-Serif" font-size="10.00">uxn::patl::impl::vertex</text>
<text text-anchor="middle" x="436.5" y="-301.5" font-family="Helvetica,sans-Serif" font-size="10.00">_generic::postorder_begin</text>
</a>
</g>
</g>
<!-- Node1&#45;&gt;Node5 -->
<g id="edge4" class="edge">
<title>Node1&#45;&gt;Node5</title>
<path fill="none" stroke="midnightblue" d="M558.81,-278.05C538.05,-283.43 515.42,-289.3 495.38,-294.49"/>
<polygon fill="midnightblue" stroke="midnightblue" points="559.71,-281.43 568.51,-275.53 557.95,-274.66 559.71,-281.43"/>
</g>
<!-- Node9 -->
<g id="node9" class="node">
<title>Node9</title>
<g id="a_node9"><a xlink:href="../../d3/d81/classuxn_1_1patl_1_1impl_1_1const__vertex__generic.html#a1e9ad82f586c9f991b83bc4d7f82cac6" target="_top" xlink:title=" ">
<polygon fill="none" stroke="black" points="347,-343.5 347,-373.5 526,-373.5 526,-343.5 347,-343.5"/>
<text text-anchor="start" x="355" y="-361.5" font-family="Helvetica,sans-Serif" font-size="10.00">uxn::patl::impl::const</text>
<text text-anchor="middle" x="436.5" y="-350.5" font-family="Helvetica,sans-Serif" font-size="10.00">_vertex_generic::postorder_begin</text>
</a>
</g>
</g>
<!-- Node1&#45;&gt;Node9 -->
<g id="edge8" class="edge">
<title>Node1&#45;&gt;Node9</title>
<path fill="none" stroke="midnightblue" d="M601.82,-282.28C582.39,-298.43 554.01,-319.91 526,-333.5 518.24,-337.26 509.82,-340.55 501.36,-343.4"/>
<polygon fill="midnightblue" stroke="midnightblue" points="604.19,-284.86 609.57,-275.73 599.67,-279.51 604.19,-284.86"/>
</g>
<!-- Node12 -->
<g id="node12" class="node">
<title>Node12</title>
<g id="a_node12"><a xlink:href="../../d3/dd2/classuxn_1_1patl_1_1impl_1_1vertex__generic.html#a15a35b331f697a69053ea6f1c3570f64" target="_top" xlink:title=" ">
<polygon fill="none" stroke="black" points="369.5,-245.5 369.5,-275.5 503.5,-275.5 503.5,-245.5 369.5,-245.5"/>
<text text-anchor="start" x="377.5" y="-263.5" font-family="Helvetica,sans-Serif" font-size="10.00">uxn::patl::impl::vertex</text>
<text text-anchor="middle" x="436.5" y="-252.5" font-family="Helvetica,sans-Serif" font-size="10.00">_generic::postorder_end</text>
</a>
</g>
</g>
<!-- Node1&#45;&gt;Node12 -->
<g id="edge11" class="edge">
<title>Node1&#45;&gt;Node12</title>
<path fill="none" stroke="midnightblue" d="M551.69,-260.5C535.82,-260.5 519.17,-260.5 503.65,-260.5"/>
<polygon fill="midnightblue" stroke="midnightblue" points="551.99,-264 561.99,-260.5 551.99,-257 551.99,-264"/>
</g>
<!-- Node15 -->
<g id="node15" class="node">
<title>Node15</title>
<g id="a_node15"><a xlink:href="../../d3/d81/classuxn_1_1patl_1_1impl_1_1const__vertex__generic.html#a26dd6b89c375f19cdce5f3e8fabd90bf" target="_top" xlink:title=" ">
<polygon fill="none" stroke="black" points="351.5,-196.5 351.5,-226.5 521.5,-226.5 521.5,-196.5 351.5,-196.5"/>
<text text-anchor="start" x="359.5" y="-214.5" font-family="Helvetica,sans-Serif" font-size="10.00">uxn::patl::impl::const</text>
<text text-anchor="middle" x="436.5" y="-203.5" font-family="Helvetica,sans-Serif" font-size="10.00">_vertex_generic::postorder_end</text>
</a>
</g>
</g>
<!-- Node1&#45;&gt;Node15 -->
<g id="edge15" class="edge">
<title>Node1&#45;&gt;Node15</title>
<path fill="none" stroke="midnightblue" d="M558.81,-242.95C538.05,-237.57 515.42,-231.7 495.38,-226.51"/>
<polygon fill="midnightblue" stroke="midnightblue" points="557.95,-246.34 568.51,-245.47 559.71,-239.57 557.95,-246.34"/>
</g>
<!-- Node18 -->
<g id="node18" class="node">
<title>Node18</title>
<g id="a_node18"><a xlink:href="../../d3/dd2/classuxn_1_1patl_1_1impl_1_1vertex__generic.html#a93cb05abf7716bd376e5773ee1683088" target="_top" xlink:title=" ">
<polygon fill="none" stroke="black" points="368,-147.5 368,-177.5 505,-177.5 505,-147.5 368,-147.5"/>
<text text-anchor="start" x="376" y="-165.5" font-family="Helvetica,sans-Serif" font-size="10.00">uxn::patl::impl::vertex</text>
<text text-anchor="middle" x="436.5" y="-154.5" font-family="Helvetica,sans-Serif" font-size="10.00">_generic::preorder_begin</text>
</a>
</g>
</g>
<!-- Node1&#45;&gt;Node18 -->
<g id="edge18" class="edge">
<title>Node1&#45;&gt;Node18</title>
<path fill="none" stroke="midnightblue" d="M602.26,-238.62C582.88,-222.16 554.34,-200.18 526,-186.5 518.98,-183.11 511.4,-180.14 503.74,-177.55"/>
<polygon fill="midnightblue" stroke="midnightblue" points="600.13,-241.4 609.98,-245.29 604.7,-236.1 600.13,-241.4"/>
</g>
<!-- Node19 -->
<g id="node19" class="node">
<title>Node19</title>
<g id="a_node19"><a xlink:href="../../d3/d81/classuxn_1_1patl_1_1impl_1_1const__vertex__generic.html#a1865e87ece3071fee4bf693f2595404f" target="_top" xlink:title=" ">
<polygon fill="none" stroke="black" points="349.5,-98.5 349.5,-128.5 523.5,-128.5 523.5,-98.5 349.5,-98.5"/>
<text text-anchor="start" x="357.5" y="-116.5" font-family="Helvetica,sans-Serif" font-size="10.00">uxn::patl::impl::const</text>
<text text-anchor="middle" x="436.5" y="-105.5" font-family="Helvetica,sans-Serif" font-size="10.00">_vertex_generic::preorder_begin</text>
</a>
</g>
</g>
<!-- Node1&#45;&gt;Node19 -->
<g id="edge19" class="edge">
<title>Node1&#45;&gt;Node19</title>
<path fill="none" stroke="midnightblue" d="M613.35,-236.72C596.67,-208.77 565.29,-162.98 526,-137.5 520.66,-134.04 514.82,-131.07 508.78,-128.53"/>
<polygon fill="midnightblue" stroke="midnightblue" points="610.38,-238.58 618.44,-245.46 616.44,-235.06 610.38,-238.58"/>
</g>
<!-- Node20 -->
<g id="node20" class="node">
<title>Node20</title>
<g id="a_node20"><a xlink:href="../../d3/dd2/classuxn_1_1patl_1_1impl_1_1vertex__generic.html#a3768ca15d6b08fb8628df37e2b3b481f" target="_top" xlink:title=" ">
<polygon fill="none" stroke="black" points="372.5,-49.5 372.5,-79.5 500.5,-79.5 500.5,-49.5 372.5,-49.5"/>
<text text-anchor="start" x="380.5" y="-67.5" font-family="Helvetica,sans-Serif" font-size="10.00">uxn::patl::impl::vertex</text>
<text text-anchor="middle" x="436.5" y="-56.5" font-family="Helvetica,sans-Serif" font-size="10.00">_generic::preorder_end</text>
</a>
</g>
</g>
<!-- Node1&#45;&gt;Node20 -->
<g id="edge20" class="edge">
<title>Node1&#45;&gt;Node20</title>
<path fill="none" stroke="midnightblue" d="M618.86,-235.79C605.95,-198.19 576.2,-126.93 526,-88.5 518.54,-82.79 509.82,-78.44 500.82,-75.12"/>
<polygon fill="midnightblue" stroke="midnightblue" points="615.6,-237.05 622.06,-245.45 622.24,-234.85 615.6,-237.05"/>
</g>
<!-- Node21 -->
<g id="node21" class="node">
<title>Node21</title>
<g id="a_node21"><a xlink:href="../../d3/d81/classuxn_1_1patl_1_1impl_1_1const__vertex__generic.html#ad3c55ee4923321d0508c674f8bda3225" target="_top" xlink:title=" ">
<polygon fill="none" stroke="black" points="354,-0.5 354,-30.5 519,-30.5 519,-0.5 354,-0.5"/>
<text text-anchor="start" x="362" y="-18.5" font-family="Helvetica,sans-Serif" font-size="10.00">uxn::patl::impl::const</text>
<text text-anchor="middle" x="436.5" y="-7.5" font-family="Helvetica,sans-Serif" font-size="10.00">_vertex_generic::preorder_end</text>
</a>
</g>
</g>
<!-- Node1&#45;&gt;Node21 -->
<g id="edge21" class="edge">
<title>Node1&#45;&gt;Node21</title>
<path fill="none" stroke="midnightblue" d="M622.24,-235.2C613.14,-189.17 587.4,-91.68 526,-39.5 522,-36.1 517.56,-33.17 512.85,-30.66"/>
<polygon fill="midnightblue" stroke="midnightblue" points="618.84,-236.04 624.12,-245.23 625.72,-234.76 618.84,-236.04"/>
</g>
<!-- Node6 -->
<g id="node6" class="node">
<title>Node6</title>
<g id="a_node6"><a xlink:href="../../d3/dd2/classuxn_1_1patl_1_1impl_1_1vertex__generic.html#ae55d80309c30384581e5cc5ef6c2cb74" target="_top" xlink:title=" ">
<polygon fill="none" stroke="black" points="176.5,-319.5 176.5,-349.5 301.5,-349.5 301.5,-319.5 176.5,-319.5"/>
<text text-anchor="start" x="184.5" y="-337.5" font-family="Helvetica,sans-Serif" font-size="10.00">uxn::patl::impl::vertex</text>
<text text-anchor="middle" x="239" y="-326.5" font-family="Helvetica,sans-Serif" font-size="10.00">_generic::begin</text>
</a>
</g>
</g>
<!-- Node5&#45;&gt;Node6 -->
<g id="edge5" class="edge">
<title>Node5&#45;&gt;Node6</title>
<path fill="none" stroke="midnightblue" d="M354.62,-319.84C336.95,-322.1 318.52,-324.46 301.74,-326.6"/>
<polygon fill="midnightblue" stroke="midnightblue" points="355.44,-323.27 364.92,-318.53 354.56,-316.32 355.44,-323.27"/>
</g>
<!-- Node8 -->
<g id="node8" class="node">
<title>Node8</title>
<g id="a_node8"><a xlink:href="../../d0/d55/classuxn_1_1patl_1_1impl_1_1trie__generic_3_01T_00_010_01_4.html#ac0822b84c8dbff5c9d14b158bbdb173e" target="_top" xlink:title=" ">
<polygon fill="none" stroke="black" points="167,-270.5 167,-300.5 311,-300.5 311,-270.5 167,-270.5"/>
<text text-anchor="start" x="175" y="-288.5" font-family="Helvetica,sans-Serif" font-size="10.00">uxn::patl::impl::trie</text>
<text text-anchor="middle" x="239" y="-277.5" font-family="Helvetica,sans-Serif" font-size="10.00">_generic&lt; T, 0 &gt;::del_tree</text>
</a>
</g>
</g>
<!-- Node5&#45;&gt;Node8 -->
<g id="edge7" class="edge">
<title>Node5&#45;&gt;Node8</title>
<path fill="none" stroke="midnightblue" d="M354.96,-299.61C340.43,-297.83 325.37,-295.98 311.13,-294.23"/>
<polygon fill="midnightblue" stroke="midnightblue" points="354.57,-303.09 364.92,-300.84 355.42,-296.14 354.57,-303.09"/>
</g>
<!-- Node7 -->
<g id="node7" class="node">
<title>Node7</title>
<g id="a_node7"><a xlink:href="../../d3/dd2/classuxn_1_1patl_1_1impl_1_1vertex__generic.html#aa6efe35c0a8b3a3112c49ca87e55645d" target="_top" xlink:title=" ">
<polygon fill="none" stroke="black" points="3,-319.5 3,-349.5 128,-349.5 128,-319.5 3,-319.5"/>
<text text-anchor="start" x="11" y="-337.5" font-family="Helvetica,sans-Serif" font-size="10.00">uxn::patl::impl::vertex</text>
<text text-anchor="middle" x="65.5" y="-326.5" font-family="Helvetica,sans-Serif" font-size="10.00">_generic::rend</text>
</a>
</g>
</g>
<!-- Node6&#45;&gt;Node7 -->
<g id="edge6" class="edge">
<title>Node6&#45;&gt;Node7</title>
<path fill="none" stroke="midnightblue" d="M166.06,-334.5C153.41,-334.5 140.36,-334.5 128.04,-334.5"/>
<polygon fill="midnightblue" stroke="midnightblue" points="166.08,-338 176.08,-334.5 166.08,-331 166.08,-338"/>
</g>
<!-- Node10 -->
<g id="node10" class="node">
<title>Node10</title>
<g id="a_node10"><a xlink:href="../../d3/d81/classuxn_1_1patl_1_1impl_1_1const__vertex__generic.html#af1cc8c30cc8f704fb4e35d3364538f48" target="_top" xlink:title=" ">
<polygon fill="none" stroke="black" points="175,-368.5 175,-398.5 303,-398.5 303,-368.5 175,-368.5"/>
<text text-anchor="start" x="183" y="-386.5" font-family="Helvetica,sans-Serif" font-size="10.00">uxn::patl::impl::const</text>
<text text-anchor="middle" x="239" y="-375.5" font-family="Helvetica,sans-Serif" font-size="10.00">_vertex_generic::begin</text>
</a>
</g>
</g>
<!-- Node9&#45;&gt;Node10 -->
<g id="edge9" class="edge">
<title>Node9&#45;&gt;Node10</title>
<path fill="none" stroke="midnightblue" d="M336.85,-371.12C325.4,-372.58 313.96,-374.04 303.17,-375.42"/>
<polygon fill="midnightblue" stroke="midnightblue" points="337.43,-374.57 346.9,-369.83 336.54,-367.63 337.43,-374.57"/>
</g>
<!-- Node11 -->
<g id="node11" class="node">
<title>Node11</title>
<g id="a_node11"><a xlink:href="../../d3/d81/classuxn_1_1patl_1_1impl_1_1const__vertex__generic.html#aa6879a68f2fd97b7998a8f1372e4f2e4" target="_top" xlink:title=" ">
<polygon fill="none" stroke="black" points="4.5,-368.5 4.5,-398.5 126.5,-398.5 126.5,-368.5 4.5,-368.5"/>
<text text-anchor="start" x="12.5" y="-386.5" font-family="Helvetica,sans-Serif" font-size="10.00">uxn::patl::impl::const</text>
<text text-anchor="middle" x="65.5" y="-375.5" font-family="Helvetica,sans-Serif" font-size="10.00">_vertex_generic::rend</text>
</a>
</g>
</g>
<!-- Node10&#45;&gt;Node11 -->
<g id="edge10" class="edge">
<title>Node10&#45;&gt;Node11</title>
<path fill="none" stroke="midnightblue" d="M164.6,-383.5C151.98,-383.5 138.99,-383.5 126.76,-383.5"/>
<polygon fill="midnightblue" stroke="midnightblue" points="164.63,-387 174.63,-383.5 164.63,-380 164.63,-387"/>
</g>
<!-- Node12&#45;&gt;Node8 -->
<g id="edge12" class="edge">
<title>Node12&#45;&gt;Node8</title>
<path fill="none" stroke="midnightblue" d="M359.07,-270.27C343.29,-272.29 326.73,-274.41 311.14,-276.4"/>
<polygon fill="midnightblue" stroke="midnightblue" points="359.84,-273.7 369.31,-268.96 358.95,-266.76 359.84,-273.7"/>
</g>
<!-- Node13 -->
<g id="node13" class="node">
<title>Node13</title>
<g id="a_node13"><a xlink:href="../../d3/dd2/classuxn_1_1patl_1_1impl_1_1vertex__generic.html#a92fd2973f401c4f0301c2d85b8a65f0f" target="_top" xlink:title=" ">
<polygon fill="none" stroke="black" points="176.5,-221.5 176.5,-251.5 301.5,-251.5 301.5,-221.5 176.5,-221.5"/>
<text text-anchor="start" x="184.5" y="-239.5" font-family="Helvetica,sans-Serif" font-size="10.00">uxn::patl::impl::vertex</text>
<text text-anchor="middle" x="239" y="-228.5" font-family="Helvetica,sans-Serif" font-size="10.00">_generic::end</text>
</a>
</g>
</g>
<!-- Node12&#45;&gt;Node13 -->
<g id="edge13" class="edge">
<title>Node12&#45;&gt;Node13</title>
<path fill="none" stroke="midnightblue" d="M359.14,-251.13C340.04,-248.78 319.79,-246.29 301.51,-244.05"/>
<polygon fill="midnightblue" stroke="midnightblue" points="358.96,-254.63 369.31,-252.37 359.81,-247.68 358.96,-254.63"/>
</g>
<!-- Node14 -->
<g id="node14" class="node">
<title>Node14</title>
<g id="a_node14"><a xlink:href="../../d3/dd2/classuxn_1_1patl_1_1impl_1_1vertex__generic.html#abdbc0f28cc1b04718d4f96e7a4c4e9d5" target="_top" xlink:title=" ">
<polygon fill="none" stroke="black" points="3,-221.5 3,-251.5 128,-251.5 128,-221.5 3,-221.5"/>
<text text-anchor="start" x="11" y="-239.5" font-family="Helvetica,sans-Serif" font-size="10.00">uxn::patl::impl::vertex</text>
<text text-anchor="middle" x="65.5" y="-228.5" font-family="Helvetica,sans-Serif" font-size="10.00">_generic::rbegin</text>
</a>
</g>
</g>
<!-- Node13&#45;&gt;Node14 -->
<g id="edge14" class="edge">
<title>Node13&#45;&gt;Node14</title>
<path fill="none" stroke="midnightblue" d="M166.06,-236.5C153.41,-236.5 140.36,-236.5 128.04,-236.5"/>
<polygon fill="midnightblue" stroke="midnightblue" points="166.08,-240 176.08,-236.5 166.08,-233 166.08,-240"/>
</g>
<!-- Node16 -->
<g id="node16" class="node">
<title>Node16</title>
<g id="a_node16"><a xlink:href="../../d3/d81/classuxn_1_1patl_1_1impl_1_1const__vertex__generic.html#a4fb77c7ae498153f1c96279d485ead76" target="_top" xlink:title=" ">
<polygon fill="none" stroke="black" points="179.5,-172.5 179.5,-202.5 298.5,-202.5 298.5,-172.5 179.5,-172.5"/>
<text text-anchor="start" x="187.5" y="-190.5" font-family="Helvetica,sans-Serif" font-size="10.00">uxn::patl::impl::const</text>
<text text-anchor="middle" x="239" y="-179.5" font-family="Helvetica,sans-Serif" font-size="10.00">_vertex_generic::end</text>
</a>
</g>
</g>
<!-- Node15&#45;&gt;Node16 -->
<g id="edge16" class="edge">
<title>Node15&#45;&gt;Node16</title>
<path fill="none" stroke="midnightblue" d="M341.39,-199.95C326.81,-198.16 312.12,-196.35 298.62,-194.7"/>
<polygon fill="midnightblue" stroke="midnightblue" points="341.1,-203.44 351.46,-201.18 341.96,-196.49 341.1,-203.44"/>
</g>
<!-- Node17 -->
<g id="node17" class="node">
<title>Node17</title>
<g id="a_node17"><a xlink:href="../../d3/d81/classuxn_1_1patl_1_1impl_1_1const__vertex__generic.html#ab808f932bee736d1a6c70c0cb70a10b7" target="_top" xlink:title=" ">
<polygon fill="none" stroke="black" points="0,-172.5 0,-202.5 131,-202.5 131,-172.5 0,-172.5"/>
<text text-anchor="start" x="8" y="-190.5" font-family="Helvetica,sans-Serif" font-size="10.00">uxn::patl::impl::const</text>
<text text-anchor="middle" x="65.5" y="-179.5" font-family="Helvetica,sans-Serif" font-size="10.00">_vertex_generic::rbegin</text>
</a>
</g>
</g>
<!-- Node16&#45;&gt;Node17 -->
<g id="edge17" class="edge">
<title>Node16&#45;&gt;Node17</title>
<path fill="none" stroke="midnightblue" d="M169.1,-187.5C156.61,-187.5 143.62,-187.5 131.25,-187.5"/>
<polygon fill="midnightblue" stroke="midnightblue" points="169.46,-191 179.46,-187.5 169.46,-184 169.46,-191"/>
</g>
</g>
</svg>
        <g id="navigator" transform="translate(0 0)" fill="#404254">
                <rect fill="#f2f5e9" fill-opacity="0.5" stroke="#606060" stroke-width=".5" x="0" y="0" width="60" height="60"/>
                <use id="zoomplus" xlink:href="#zoomPlus" x="17" y="9" onmousedown="handleZoom(evt,'in')"/>
                <use id="zoomminus" xlink:href="#zoomMin" x="42" y="9" onmousedown="handleZoom(evt,'out')"/>
                <use id="reset" xlink:href="#resetDef" x="30" y="36" onmousedown="handleReset()"/>
                <g id="arrowUp" xlink:href="#dirArrow" transform="translate(30 24)" onmousedown="handlePan(0,-1)">
                  <use xlink:href="#rim" fill="#404040">
                        <set attributeName="fill" to="#808080" begin="arrowUp.mouseover" end="arrowUp.mouseout"/>
                  </use>
                  <path fill="none" stroke="white" stroke-width="1.5" d="M0,-3.0v7 M-2.5,-0.5L0,-3.0L2.5,-0.5"/>
                </g>
                <g id="arrowRight" xlink:href="#dirArrow" transform="rotate(90) translate(36 -43)" onmousedown="handlePan(1,0)">
                  <use xlink:href="#rim" fill="#404040">
                        <set attributeName="fill" to="#808080" begin="arrowRight.mouseover" end="arrowRight.mouseout"/>
                  </use>
                  <path fill="none" stroke="white" stroke-width="1.5" d="M0,-3.0v7 M-2.5,-0.5L0,-3.0L2.5,-0.5"/>
                </g>
                <g id="arrowDown" xlink:href="#dirArrow" transform="rotate(180) translate(-30 -48)" onmousedown="handlePan(0,1)">
                  <use xlink:href="#rim" fill="#404040">
                        <set attributeName="fill" to="#808080" begin="arrowDown.mouseover" end="arrowDown.mouseout"/>
                  </use>
                  <path fill="none" stroke="white" stroke-width="1.5" d="M0,-3.0v7 M-2.5,-0.5L0,-3.0L2.5,-0.5"/>
                </g>
                <g id="arrowLeft" xlink:href="#dirArrow" transform="rotate(270) translate(-36 17)" onmousedown="handlePan(-1,0)">
                  <use xlink:href="#rim" fill="#404040">
                        <set attributeName="fill" to="#808080" begin="arrowLeft.mouseover" end="arrowLeft.mouseout"/>
                  </use>
                  <path fill="none" stroke="white" stroke-width="1.5" d="M0,-3.0v7 M-2.5,-0.5L0,-3.0L2.5,-0.5"/>
                </g>
        </g>
        <svg viewBox="0 0 15 15" width="100%" height="30px" preserveAspectRatio="xMaxYMin meet">
         <g id="arrow_out" transform="scale(0.3 0.3)">
          <a xlink:href="classuxn_1_1patl_1_1impl_1_1const__vertex__generic_a50f5c5fa0cf604e7a3ea38be470472c2_icgraph_org.svg" target="_base">
           <rect id="button" ry="5" rx="5" y="6" x="6" height="38" width="38"
                fill="#f2f5e9" fill-opacity="0.5" stroke="#606060" stroke-width="1.0"/>
           <path id="arrow"
             d="M 11.500037,31.436501 C 11.940474,20.09759 22.043105,11.32322 32.158766,21.979434 L 37.068811,17.246167 C 37.068811,17.246167 37.088388,32 37.088388,32 L 22.160133,31.978069 C 22.160133,31.978069 26.997745,27.140456 26.997745,27.140456 C 18.528582,18.264221 13.291696,25.230495 11.500037,31.436501 z"
             style="fill:#404040;"/>
          </a>
         </g>
        </svg>
</svg>
