<?xml version="1.0" encoding="UTF-8" standalone="no"?>
<!DOCTYPE svg PUBLIC "-//W3C//DTD SVG 1.1//EN"
 "http://www.w3.org/Graphics/SVG/1.1/DTD/svg11.dtd">
<!-- Generated by graphviz version 5.0.1 (20220820.1526)
 -->
<!-- Title: uxn::patl::impl::const_vertex_generic::skip Pages: 1 -->
<!--zoomable 420 -->
<svg id="main" version="1.1" xmlns="http://www.w3.org/2000/svg" xmlns:xlink="http://www.w3.org/1999/xlink" xml:space="preserve" onload="init(evt)">
<style type="text/css"><![CDATA[
.edge:hover path { stroke: red; }
.edge:hover polygon { stroke: red; fill: red; }
]]></style>
<script type="text/javascript"><![CDATA[
var edges = document.getElementsByTagName('g');
if (edges && edges.length) {
  for (var i=0;i<edges.length;i++) {
    if (edges[i].id.substr(0,4)=='edge') {
      edges[i].setAttribute('class','edge');
    }
  }
}
]]></script>
        <defs>
                <circle id="rim" cx="0" cy="0" r="7"/>
                <circle id="rim2" cx="0" cy="0" r="3.5"/>
                <g id="zoomPlus">
                        <use xlink:href="#rim" fill="#404040">
                                <set attributeName="fill" to="#808080" begin="zoomplus.mouseover" end="zoomplus.mouseout"/>
                        </use>
                        <path d="M-4,0h8M0,-4v8" fill="none" stroke="white" stroke-width="1.5" pointer-events="none"/>
                </g>
                <g id="zoomMin">
                        <use xlink:href="#rim" fill="#404040">
                                <set attributeName="fill" to="#808080" begin="zoomminus.mouseover" end="zoomminus.mouseout"/>
                        </use>
                        <path d="M-4,0h8" fill="none" stroke="white" stroke-width="1.5" pointer-events="none"/>
                </g>
                <g id="dirArrow">
                        <path fill="none" stroke="white" stroke-width="1.5" d="M0,-3.0v7 M-2.5,-0.5L0,-3.0L2.5,-0.5"/>
                </g>
               <g id="resetDef">
                       <use xlink:href="#rim2" fill="#404040">
                               <set attributeName="fill" to="#808080" begin="reset.mouseover" end="reset.mouseout"/>
                       </use>
               </g>
        </defs>

<script type="text/javascript">
var viewWidth = 576;
var viewHeight = 420;
var sectionId = 'dynsection-38';
</script>
<script xlink:href="../../svgpan.js"/>
<svg id="graph" class="graph">
<g id="viewport">
<title>uxn::patl::impl::const_vertex_generic::skip</title>
<!-- Node1 -->
<g id="node1" class="node">
<title>Node1</title>
<g id="a_node1"><a xlink:title=" ">
<polygon fill="#bfbfbf" stroke="black" points="447,-77 447,-107 568,-107 568,-77 447,-77"/>
<text text-anchor="start" x="455" y="-95" font-family="Helvetica,sans-Serif" font-size="10.00">uxn::patl::impl::const</text>
<text text-anchor="middle" x="507.5" y="-84" font-family="Helvetica,sans-Serif" font-size="10.00">_vertex_generic::skip</text>
</a>
</g>
</g>
<!-- Node2 -->
<g id="node2" class="node">
<title>Node2</title>
<g id="a_node2"><a xlink:href="../../db/dcd/classuxn_1_1patl_1_1impl_1_1trie__generic.html#a49134514a564c6c69cfbb52268ba45ae" target="_top" xlink:title=" ">
<polygon fill="none" stroke="black" points="284,-195 284,-225 394,-225 394,-195 284,-195"/>
<text text-anchor="start" x="292" y="-213" font-family="Helvetica,sans-Serif" font-size="10.00">uxn::patl::impl::trie</text>
<text text-anchor="middle" x="339" y="-202" font-family="Helvetica,sans-Serif" font-size="10.00">_generic::insert</text>
</a>
</g>
</g>
<!-- Node1&#45;&gt;Node2 -->
<g id="edge1" class="edge">
<title>Node1&#45;&gt;Node2</title>
<path fill="none" stroke="midnightblue" d="M476.67,-113.14C443.47,-136.67 390.65,-174.11 361.34,-194.87"/>
<polygon fill="midnightblue" stroke="midnightblue" points="478.94,-115.82 485.07,-107.18 474.89,-110.11 478.94,-115.82"/>
</g>
<!-- Node12 -->
<g id="node12" class="node">
<title>Node12</title>
<g id="a_node12"><a xlink:href="../../d3/d87/lz77_8cpp.html#a96bf5c98cb36266e461ecf6f31ac3aa7" target="_top" xlink:title=" ">
<polygon fill="none" stroke="black" points="300.5,-82.5 300.5,-101.5 377.5,-101.5 377.5,-82.5 300.5,-82.5"/>
<text text-anchor="middle" x="339" y="-89.5" font-family="Helvetica,sans-Serif" font-size="10.00">lz_compress</text>
</a>
</g>
</g>
<!-- Node1&#45;&gt;Node12 -->
<g id="edge11" class="edge">
<title>Node1&#45;&gt;Node12</title>
<path fill="none" stroke="midnightblue" d="M436.77,-92C416.62,-92 395.4,-92 377.97,-92"/>
<polygon fill="midnightblue" stroke="midnightblue" points="436.86,-95.5 446.86,-92 436.86,-88.5 436.86,-95.5"/>
</g>
<!-- Node14 -->
<g id="node14" class="node">
<title>Node14</title>
<g id="a_node14"><a xlink:href="../../d8/de6/classuxn_1_1patl_1_1impl_1_1patricia__dot__base_3_01suffix__set_3_01Type_00_01N_00_01Delta_00_01f366aa432e5874b34aa8e2df35cf2909.html#ad46e1416efddc2a1f178764861ab96c3" target="_top" xlink:title=" ">
<polygon fill="none" stroke="black" points="267,-0.5 267,-63.5 411,-63.5 411,-0.5 267,-0.5"/>
<text text-anchor="start" x="275" y="-51.5" font-family="Helvetica,sans-Serif" font-size="10.00">uxn::patl::impl::patricia</text>
<text text-anchor="start" x="275" y="-40.5" font-family="Helvetica,sans-Serif" font-size="10.00">_dot_base&lt; suffix_set&lt;</text>
<text text-anchor="start" x="275" y="-29.5" font-family="Helvetica,sans-Serif" font-size="10.00"> Type, N, Delta, BitComp,</text>
<text text-anchor="start" x="275" y="-18.5" font-family="Helvetica,sans-Serif" font-size="10.00"> Allocator &gt;, OutStream &gt;</text>
<text text-anchor="middle" x="339" y="-7.5" font-family="Helvetica,sans-Serif" font-size="10.00">::out_node</text>
</a>
</g>
</g>
<!-- Node1&#45;&gt;Node14 -->
<g id="edge13" class="edge">
<title>Node1&#45;&gt;Node14</title>
<path fill="none" stroke="midnightblue" d="M454.71,-73.34C440.92,-68.37 425.78,-62.91 411.15,-57.64"/>
<polygon fill="midnightblue" stroke="midnightblue" points="453.89,-76.76 464.49,-76.86 456.26,-70.18 453.89,-76.76"/>
</g>
<!-- Node3 -->
<g id="node3" class="node">
<title>Node3</title>
<g id="a_node3"><a xlink:href="../../d0/d55/classuxn_1_1patl_1_1impl_1_1trie__generic_3_01T_00_010_01_4.html#a6ab67a55ca01647d69a45cbb41059b95" target="_top" xlink:title="template of insert range">
<polygon fill="none" stroke="black" points="88,-381 88,-411 220,-411 220,-381 88,-381"/>
<text text-anchor="start" x="96" y="-399" font-family="Helvetica,sans-Serif" font-size="10.00">uxn::patl::impl::trie</text>
<text text-anchor="middle" x="154" y="-388" font-family="Helvetica,sans-Serif" font-size="10.00">_generic&lt; T, 0 &gt;::insert</text>
</a>
</g>
</g>
<!-- Node2&#45;&gt;Node3 -->
<g id="edge2" class="edge">
<title>Node2&#45;&gt;Node3</title>
<path fill="none" stroke="midnightblue" d="M327.93,-235.11C312.39,-270.72 279.24,-335.6 231,-372 226.47,-375.42 221.44,-378.36 216.19,-380.88"/>
<polygon fill="midnightblue" stroke="midnightblue" points="331.33,-236.05 332.02,-225.47 324.89,-233.32 331.33,-236.05"/>
</g>
<!-- Node4 -->
<g id="node4" class="node">
<title>Node4</title>
<g id="a_node4"><a xlink:href="../../db/dcd/classuxn_1_1patl_1_1impl_1_1trie__generic.html#acecaf24a53d260e2a70c3a1660ad721e" target="_top" xlink:title="just for backward compatibility with std assoc containers">
<polygon fill="none" stroke="black" points="99,-332 99,-362 209,-362 209,-332 99,-332"/>
<text text-anchor="start" x="107" y="-350" font-family="Helvetica,sans-Serif" font-size="10.00">uxn::patl::impl::trie</text>
<text text-anchor="middle" x="154" y="-339" font-family="Helvetica,sans-Serif" font-size="10.00">_generic::insert</text>
</a>
</g>
</g>
<!-- Node2&#45;&gt;Node4 -->
<g id="edge3" class="edge">
<title>Node2&#45;&gt;Node4</title>
<path fill="none" stroke="midnightblue" d="M321.13,-233.6C301.96,-258.83 268.43,-298.38 231,-322 224.3,-326.23 216.82,-329.81 209.24,-332.83"/>
<polygon fill="midnightblue" stroke="midnightblue" points="324.13,-235.44 327.3,-225.33 318.52,-231.26 324.13,-235.44"/>
</g>
<!-- Node5 -->
<g id="node5" class="node">
<title>Node5</title>
<g id="a_node5"><a xlink:href="../../d1/db2/insider_8cpp.html#ae66f6b31b5ad750f1fe042a706a4e3d4" target="_top" xlink:title=" ">
<polygon fill="none" stroke="black" points="133.5,-293.5 133.5,-312.5 174.5,-312.5 174.5,-293.5 133.5,-293.5"/>
<text text-anchor="middle" x="154" y="-300.5" font-family="Helvetica,sans-Serif" font-size="10.00">main</text>
</a>
</g>
</g>
<!-- Node2&#45;&gt;Node5 -->
<g id="edge4" class="edge">
<title>Node2&#45;&gt;Node5</title>
<path fill="none" stroke="midnightblue" d="M312.31,-231.75C291.58,-248.28 261.02,-270.41 231,-284 212.79,-292.24 190.43,-297.28 174.7,-300.08"/>
<polygon fill="midnightblue" stroke="midnightblue" points="314.73,-234.29 320.29,-225.28 310.32,-228.86 314.73,-234.29"/>
</g>
<!-- Node6 -->
<g id="node6" class="node">
<title>Node6</title>
<g id="a_node6"><a xlink:href="../../d0/d55/classuxn_1_1patl_1_1impl_1_1trie__generic_3_01T_00_010_01_4.html#ad08e0b6bcb306c000e90f512f8adf539" target="_top" xlink:title="merge two identical tries (instances of bit_compare must be equal)">
<polygon fill="none" stroke="black" points="86,-244 86,-274 222,-274 222,-244 86,-244"/>
<text text-anchor="start" x="94" y="-262" font-family="Helvetica,sans-Serif" font-size="10.00">uxn::patl::impl::trie</text>
<text text-anchor="middle" x="154" y="-251" font-family="Helvetica,sans-Serif" font-size="10.00">_generic&lt; T, 0 &gt;::merge</text>
</a>
</g>
</g>
<!-- Node2&#45;&gt;Node6 -->
<g id="edge5" class="edge">
<title>Node2&#45;&gt;Node6</title>
<path fill="none" stroke="midnightblue" d="M273.74,-227.21C253.32,-232.67 230.9,-238.68 211.1,-243.98"/>
<polygon fill="midnightblue" stroke="midnightblue" points="274.84,-230.54 283.59,-224.57 273.02,-223.77 274.84,-230.54"/>
</g>
<!-- Node7 -->
<g id="node7" class="node">
<title>Node7</title>
<g id="a_node7"><a xlink:href="../../d0/d55/classuxn_1_1patl_1_1impl_1_1trie__generic_3_01T_00_010_01_4.html#a6f500a7ecaca6f652065f8a17c608790" target="_top" xlink:title=" ">
<polygon fill="none" stroke="black" points="77,-195 77,-225 231,-225 231,-195 77,-195"/>
<text text-anchor="start" x="85" y="-213" font-family="Helvetica,sans-Serif" font-size="10.00">uxn::patl::impl::trie</text>
<text text-anchor="middle" x="154" y="-202" font-family="Helvetica,sans-Serif" font-size="10.00">_generic&lt; T, 0 &gt;::operator=</text>
</a>
</g>
</g>
<!-- Node2&#45;&gt;Node7 -->
<g id="edge6" class="edge">
<title>Node2&#45;&gt;Node7</title>
<path fill="none" stroke="midnightblue" d="M273.36,-210C259.73,-210 245.22,-210 231.21,-210"/>
<polygon fill="midnightblue" stroke="midnightblue" points="273.59,-213.5 283.59,-210 273.59,-206.5 273.59,-213.5"/>
</g>
<!-- Node8 -->
<g id="node8" class="node">
<title>Node8</title>
<g id="a_node8"><a xlink:href="../../d6/de8/muxoclon_8cpp.html#a8c4f4d8cc49976be28ff5ce5fef3015a" target="_top" xlink:title=" ">
<polygon fill="none" stroke="black" points="115,-156.5 115,-175.5 193,-175.5 193,-156.5 115,-156.5"/>
<text text-anchor="middle" x="154" y="-163.5" font-family="Helvetica,sans-Serif" font-size="10.00">search_work</text>
</a>
</g>
</g>
<!-- Node2&#45;&gt;Node8 -->
<g id="edge7" class="edge">
<title>Node2&#45;&gt;Node8</title>
<path fill="none" stroke="midnightblue" d="M273.85,-194.58C246.94,-188.11 216.55,-180.8 193.24,-175.19"/>
<polygon fill="midnightblue" stroke="midnightblue" points="273.05,-197.98 283.59,-196.92 274.68,-191.18 273.05,-197.98"/>
</g>
<!-- Node10 -->
<g id="node10" class="node">
<title>Node10</title>
<g id="a_node10"><a xlink:href="../../d0/d55/classuxn_1_1patl_1_1impl_1_1trie__generic_3_01T_00_010_01_4.html#a6dd70b09913e4246f3d8e618c13ec183" target="_top" xlink:title=" ">
<polygon fill="none" stroke="black" points="93.5,-96.5 93.5,-137.5 214.5,-137.5 214.5,-96.5 93.5,-96.5"/>
<text text-anchor="start" x="101.5" y="-125.5" font-family="Helvetica,sans-Serif" font-size="10.00">uxn::patl::impl::trie</text>
<text text-anchor="start" x="101.5" y="-114.5" font-family="Helvetica,sans-Serif" font-size="10.00">_generic&lt; T, 0 &gt;::trie</text>
<text text-anchor="middle" x="154" y="-103.5" font-family="Helvetica,sans-Serif" font-size="10.00">_generic</text>
</a>
</g>
</g>
<!-- Node2&#45;&gt;Node10 -->
<g id="edge9" class="edge">
<title>Node2&#45;&gt;Node10</title>
<path fill="none" stroke="midnightblue" d="M306.3,-189.56C285.37,-176.52 257.11,-159.74 231,-147 224.37,-143.76 217.3,-140.61 210.24,-137.63"/>
<polygon fill="midnightblue" stroke="midnightblue" points="304.46,-192.54 314.79,-194.9 308.18,-186.62 304.46,-192.54"/>
</g>
<!-- Node11 -->
<g id="node11" class="node">
<title>Node11</title>
<g id="a_node11"><a xlink:href="../../de/d34/classstrings__from__merged__files__generator.html#a85dd314b7f28a6c9daeb4f0fe255508f" target="_top" xlink:title=" ">
<polygon fill="none" stroke="black" points="90.5,-47 90.5,-77 217.5,-77 217.5,-47 90.5,-47"/>
<text text-anchor="start" x="98.5" y="-65" font-family="Helvetica,sans-Serif" font-size="10.00">strings_from_merged</text>
<text text-anchor="middle" x="154" y="-54" font-family="Helvetica,sans-Serif" font-size="10.00">_files_generator::while</text>
</a>
</g>
</g>
<!-- Node2&#45;&gt;Node11 -->
<g id="edge10" class="edge">
<title>Node2&#45;&gt;Node11</title>
<path fill="none" stroke="midnightblue" d="M323.1,-186.16C304.67,-158.54 270.82,-113.45 231,-87 225.21,-83.16 218.79,-79.86 212.2,-77.05"/>
<polygon fill="midnightblue" stroke="midnightblue" points="320.35,-188.35 328.74,-194.81 326.21,-184.52 320.35,-188.35"/>
</g>
<!-- Node9 -->
<g id="node9" class="node">
<title>Node9</title>
<g id="a_node9"><a xlink:href="../../d6/de8/muxoclon_8cpp.html#a0ddf1224851353fc92bfbff6f499fa97" target="_top" xlink:title=" ">
<polygon fill="none" stroke="black" points="0,-156.5 0,-175.5 41,-175.5 41,-156.5 0,-156.5"/>
<text text-anchor="middle" x="20.5" y="-163.5" font-family="Helvetica,sans-Serif" font-size="10.00">main</text>
</a>
</g>
</g>
<!-- Node8&#45;&gt;Node9 -->
<g id="edge8" class="edge">
<title>Node8&#45;&gt;Node9</title>
<path fill="none" stroke="midnightblue" d="M104.77,-166C82.78,-166 57.97,-166 41.2,-166"/>
<polygon fill="midnightblue" stroke="midnightblue" points="104.96,-169.5 114.96,-166 104.96,-162.5 104.96,-169.5"/>
</g>
<!-- Node13 -->
<g id="node13" class="node">
<title>Node13</title>
<g id="a_node13"><a xlink:href="../../d3/d87/lz77_8cpp.html#a0ddf1224851353fc92bfbff6f499fa97" target="_top" xlink:title=" ">
<polygon fill="none" stroke="black" points="133.5,-8.5 133.5,-27.5 174.5,-27.5 174.5,-8.5 133.5,-8.5"/>
<text text-anchor="middle" x="154" y="-15.5" font-family="Helvetica,sans-Serif" font-size="10.00">main</text>
</a>
</g>
</g>
<!-- Node12&#45;&gt;Node13 -->
<g id="edge12" class="edge">
<title>Node12&#45;&gt;Node13</title>
<path fill="none" stroke="midnightblue" d="M290.56,-83.02C282.4,-80.45 274.23,-77.17 267,-73 247.4,-61.69 250.69,-48.15 231,-37 213.48,-27.08 190.82,-22.28 174.81,-20"/>
<polygon fill="midnightblue" stroke="midnightblue" points="289.86,-86.47 300.44,-85.82 291.77,-79.73 289.86,-86.47"/>
</g>
</g>
</svg>
        <g id="navigator" transform="translate(0 0)" fill="#404254">
                <rect fill="#f2f5e9" fill-opacity="0.5" stroke="#606060" stroke-width=".5" x="0" y="0" width="60" height="60"/>
                <use id="zoomplus" xlink:href="#zoomPlus" x="17" y="9" onmousedown="handleZoom(evt,'in')"/>
                <use id="zoomminus" xlink:href="#zoomMin" x="42" y="9" onmousedown="handleZoom(evt,'out')"/>
                <use id="reset" xlink:href="#resetDef" x="30" y="36" onmousedown="handleReset()"/>
                <g id="arrowUp" xlink:href="#dirArrow" transform="translate(30 24)" onmousedown="handlePan(0,-1)">
                  <use xlink:href="#rim" fill="#404040">
                        <set attributeName="fill" to="#808080" begin="arrowUp.mouseover" end="arrowUp.mouseout"/>
                  </use>
                  <path fill="none" stroke="white" stroke-width="1.5" d="M0,-3.0v7 M-2.5,-0.5L0,-3.0L2.5,-0.5"/>
                </g>
                <g id="arrowRight" xlink:href="#dirArrow" transform="rotate(90) translate(36 -43)" onmousedown="handlePan(1,0)">
                  <use xlink:href="#rim" fill="#404040">
                        <set attributeName="fill" to="#808080" begin="arrowRight.mouseover" end="arrowRight.mouseout"/>
                  </use>
                  <path fill="none" stroke="white" stroke-width="1.5" d="M0,-3.0v7 M-2.5,-0.5L0,-3.0L2.5,-0.5"/>
                </g>
                <g id="arrowDown" xlink:href="#dirArrow" transform="rotate(180) translate(-30 -48)" onmousedown="handlePan(0,1)">
                  <use xlink:href="#rim" fill="#404040">
                        <set attributeName="fill" to="#808080" begin="arrowDown.mouseover" end="arrowDown.mouseout"/>
                  </use>
                  <path fill="none" stroke="white" stroke-width="1.5" d="M0,-3.0v7 M-2.5,-0.5L0,-3.0L2.5,-0.5"/>
                </g>
                <g id="arrowLeft" xlink:href="#dirArrow" transform="rotate(270) translate(-36 17)" onmousedown="handlePan(-1,0)">
                  <use xlink:href="#rim" fill="#404040">
                        <set attributeName="fill" to="#808080" begin="arrowLeft.mouseover" end="arrowLeft.mouseout"/>
                  </use>
                  <path fill="none" stroke="white" stroke-width="1.5" d="M0,-3.0v7 M-2.5,-0.5L0,-3.0L2.5,-0.5"/>
                </g>
        </g>
        <svg viewBox="0 0 15 15" width="100%" height="30px" preserveAspectRatio="xMaxYMin meet">
         <g id="arrow_out" transform="scale(0.3 0.3)">
          <a xlink:href="classuxn_1_1patl_1_1impl_1_1const__vertex__generic_aea777dfc1baa0c2ccc8566c7e613a91d_icgraph_org.svg" target="_base">
           <rect id="button" ry="5" rx="5" y="6" x="6" height="38" width="38"
                fill="#f2f5e9" fill-opacity="0.5" stroke="#606060" stroke-width="1.0"/>
           <path id="arrow"
             d="M 11.500037,31.436501 C 11.940474,20.09759 22.043105,11.32322 32.158766,21.979434 L 37.068811,17.246167 C 37.068811,17.246167 37.088388,32 37.088388,32 L 22.160133,31.978069 C 22.160133,31.978069 26.997745,27.140456 26.997745,27.140456 C 18.528582,18.264221 13.291696,25.230495 11.500037,31.436501 z"
             style="fill:#404040;"/>
          </a>
         </g>
        </svg>
</svg>
