<?xml version="1.0" encoding="UTF-8" standalone="no"?>
<!DOCTYPE svg PUBLIC "-//W3C//DTD SVG 1.1//EN"
 "http://www.w3.org/Graphics/SVG/1.1/DTD/svg11.dtd">
<!-- Generated by graphviz version 5.0.1 (20220820.1526)
 -->
<!-- Title: uxn::patl::impl::const_vertex_generic::iterate Pages: 1 -->
<svg width="855pt" height="39pt"
 viewBox="0.00 0.00 855.00 39.00" xmlns="http://www.w3.org/2000/svg" xmlns:xlink="http://www.w3.org/1999/xlink">
<g id="graph0" class="graph" transform="scale(1 1) rotate(0) translate(4 35)">
<title>uxn::patl::impl::const_vertex_generic::iterate</title>
<!-- Node1 -->
<g id="node1" class="node">
<title>Node1</title>
<g id="a_node1"><a xlink:title=" ">
<polygon fill="#bfbfbf" stroke="black" points="714,-0.5 714,-30.5 847,-30.5 847,-0.5 714,-0.5"/>
<text text-anchor="start" x="722" y="-18.5" font-family="Helvetica,sans-Serif" font-size="10.00">uxn::patl::impl::const</text>
<text text-anchor="middle" x="780.5" y="-7.5" font-family="Helvetica,sans-Serif" font-size="10.00">_vertex_generic::iterate</text>
</a>
</g>
</g>
<!-- Node2 -->
<g id="node2" class="node">
<title>Node2</title>
<g id="a_node2"><a xlink:href="../../d3/d81/classuxn_1_1patl_1_1impl_1_1const__vertex__generic.html#adf333e5ca6b4d370c815f82ee420ec96" target="_top" xlink:title="trie descend to the leaves">
<polygon fill="none" stroke="black" points="537,-0.5 537,-30.5 678,-30.5 678,-0.5 537,-0.5"/>
<text text-anchor="start" x="545" y="-18.5" font-family="Helvetica,sans-Serif" font-size="10.00">uxn::patl::impl::const</text>
<text text-anchor="middle" x="607.5" y="-7.5" font-family="Helvetica,sans-Serif" font-size="10.00">_vertex_generic::descend</text>
</a>
</g>
</g>
<!-- Node1&#45;&gt;Node2 -->
<g id="edge1" class="edge">
<title>Node1&#45;&gt;Node2</title>
<path fill="none" stroke="midnightblue" d="M703.64,-15.5C695.18,-15.5 686.59,-15.5 678.21,-15.5"/>
<polygon fill="midnightblue" stroke="midnightblue" points="703.88,-19 713.88,-15.5 703.88,-12 703.88,-19"/>
</g>
<!-- Node3 -->
<g id="node3" class="node">
<title>Node3</title>
<g id="a_node3"><a xlink:href="../../d3/d81/classuxn_1_1patl_1_1impl_1_1const__vertex__generic.html#a1e9ad82f586c9f991b83bc4d7f82cac6" target="_top" xlink:title=" ">
<polygon fill="none" stroke="black" points="322,-0.5 322,-30.5 501,-30.5 501,-0.5 322,-0.5"/>
<text text-anchor="start" x="330" y="-18.5" font-family="Helvetica,sans-Serif" font-size="10.00">uxn::patl::impl::const</text>
<text text-anchor="middle" x="411.5" y="-7.5" font-family="Helvetica,sans-Serif" font-size="10.00">_vertex_generic::postorder_begin</text>
</a>
</g>
</g>
<!-- Node2&#45;&gt;Node3 -->
<g id="edge2" class="edge">
<title>Node2&#45;&gt;Node3</title>
<path fill="none" stroke="midnightblue" d="M526.63,-15.5C518.26,-15.5 509.71,-15.5 501.24,-15.5"/>
<polygon fill="midnightblue" stroke="midnightblue" points="526.74,-19 536.74,-15.5 526.74,-12 526.74,-19"/>
</g>
<!-- Node4 -->
<g id="node4" class="node">
<title>Node4</title>
<g id="a_node4"><a xlink:href="../../d3/d81/classuxn_1_1patl_1_1impl_1_1const__vertex__generic.html#af1cc8c30cc8f704fb4e35d3364538f48" target="_top" xlink:title=" ">
<polygon fill="none" stroke="black" points="158,-0.5 158,-30.5 286,-30.5 286,-0.5 158,-0.5"/>
<text text-anchor="start" x="166" y="-18.5" font-family="Helvetica,sans-Serif" font-size="10.00">uxn::patl::impl::const</text>
<text text-anchor="middle" x="222" y="-7.5" font-family="Helvetica,sans-Serif" font-size="10.00">_vertex_generic::begin</text>
</a>
</g>
</g>
<!-- Node3&#45;&gt;Node4 -->
<g id="edge3" class="edge">
<title>Node3&#45;&gt;Node4</title>
<path fill="none" stroke="midnightblue" d="M311.72,-15.5C302.99,-15.5 294.33,-15.5 286.02,-15.5"/>
<polygon fill="midnightblue" stroke="midnightblue" points="311.97,-19 321.97,-15.5 311.97,-12 311.97,-19"/>
</g>
<!-- Node5 -->
<g id="node5" class="node">
<title>Node5</title>
<g id="a_node5"><a xlink:href="../../d3/d81/classuxn_1_1patl_1_1impl_1_1const__vertex__generic.html#aa6879a68f2fd97b7998a8f1372e4f2e4" target="_top" xlink:title=" ">
<polygon fill="none" stroke="black" points="0,-0.5 0,-30.5 122,-30.5 122,-0.5 0,-0.5"/>
<text text-anchor="start" x="8" y="-18.5" font-family="Helvetica,sans-Serif" font-size="10.00">uxn::patl::impl::const</text>
<text text-anchor="middle" x="61" y="-7.5" font-family="Helvetica,sans-Serif" font-size="10.00">_vertex_generic::rend</text>
</a>
</g>
</g>
<!-- Node4&#45;&gt;Node5 -->
<g id="edge4" class="edge">
<title>Node4&#45;&gt;Node5</title>
<path fill="none" stroke="midnightblue" d="M147.47,-15.5C139.02,-15.5 130.48,-15.5 122.23,-15.5"/>
<polygon fill="midnightblue" stroke="midnightblue" points="147.7,-19 157.7,-15.5 147.7,-12 147.7,-19"/>
</g>
</g>
</svg>
