<?xml version="1.0" encoding="UTF-8" standalone="no"?>
<!DOCTYPE svg PUBLIC "-//W3C//DTD SVG 1.1//EN"
 "http://www.w3.org/Graphics/SVG/1.1/DTD/svg11.dtd">
<!-- Generated by graphviz version 5.0.1 (20220820.1526)
 -->
<!-- Title: uxn::patl::impl::const_vertex_generic::compact Pages: 1 -->
<svg width="707pt" height="235pt"
 viewBox="0.00 0.00 707.00 235.00" xmlns="http://www.w3.org/2000/svg" xmlns:xlink="http://www.w3.org/1999/xlink">
<g id="graph0" class="graph" transform="scale(1 1) rotate(0) translate(4 231)">
<title>uxn::patl::impl::const_vertex_generic::compact</title>
<!-- Node1 -->
<g id="node1" class="node">
<title>Node1</title>
<g id="a_node1"><a xlink:title=" ">
<polygon fill="#bfbfbf" stroke="black" points="556,-98.5 556,-128.5 699,-128.5 699,-98.5 556,-98.5"/>
<text text-anchor="start" x="564" y="-116.5" font-family="Helvetica,sans-Serif" font-size="10.00">uxn::patl::impl::const</text>
<text text-anchor="middle" x="627.5" y="-105.5" font-family="Helvetica,sans-Serif" font-size="10.00">_vertex_generic::compact</text>
</a>
</g>
</g>
<!-- Node2 -->
<g id="node2" class="node">
<title>Node2</title>
<g id="a_node2"><a xlink:href="../../d3/d81/classuxn_1_1patl_1_1impl_1_1const__vertex__generic.html#a6964249da6d896c622e4adcfe95f9c3b" target="_top" xlink:title=" ">
<polygon fill="none" stroke="black" points="355.5,-196.5 355.5,-226.5 505.5,-226.5 505.5,-196.5 355.5,-196.5"/>
<text text-anchor="start" x="363.5" y="-214.5" font-family="Helvetica,sans-Serif" font-size="10.00">uxn::patl::impl::const</text>
<text text-anchor="middle" x="430.5" y="-203.5" font-family="Helvetica,sans-Serif" font-size="10.00">_vertex_generic::operator&lt;</text>
</a>
</g>
</g>
<!-- Node1&#45;&gt;Node2 -->
<g id="edge1" class="edge">
<title>Node1&#45;&gt;Node2</title>
<path fill="none" stroke="midnightblue" d="M600.87,-135.09C580.2,-151.53 549.78,-173.63 520,-187.5 512.78,-190.86 505.01,-193.83 497.18,-196.42"/>
<polygon fill="midnightblue" stroke="midnightblue" points="603.25,-137.66 608.83,-128.65 598.85,-132.22 603.25,-137.66"/>
</g>
<!-- Node3 -->
<g id="node3" class="node">
<title>Node3</title>
<g id="a_node3"><a xlink:href="../../d3/dd2/classuxn_1_1patl_1_1impl_1_1vertex__generic.html#a283c433ce06f5d8a5143e46bba90520a" target="_top" xlink:title=" ">
<polygon fill="none" stroke="black" points="359,-147.5 359,-177.5 502,-177.5 502,-147.5 359,-147.5"/>
<text text-anchor="start" x="367" y="-165.5" font-family="Helvetica,sans-Serif" font-size="10.00">uxn::patl::impl::vertex</text>
<text text-anchor="middle" x="430.5" y="-154.5" font-family="Helvetica,sans-Serif" font-size="10.00">_generic::postorder_begin</text>
</a>
</g>
</g>
<!-- Node1&#45;&gt;Node3 -->
<g id="edge2" class="edge">
<title>Node1&#45;&gt;Node3</title>
<path fill="none" stroke="midnightblue" d="M556.95,-130.98C535.46,-136.38 511.99,-142.28 491.22,-147.49"/>
<polygon fill="midnightblue" stroke="midnightblue" points="557.82,-134.37 566.67,-128.53 556.12,-127.58 557.82,-134.37"/>
</g>
<!-- Node7 -->
<g id="node7" class="node">
<title>Node7</title>
<g id="a_node7"><a xlink:href="../../d3/d81/classuxn_1_1patl_1_1impl_1_1const__vertex__generic.html#a1e9ad82f586c9f991b83bc4d7f82cac6" target="_top" xlink:title=" ">
<polygon fill="none" stroke="black" points="341,-98.5 341,-128.5 520,-128.5 520,-98.5 341,-98.5"/>
<text text-anchor="start" x="349" y="-116.5" font-family="Helvetica,sans-Serif" font-size="10.00">uxn::patl::impl::const</text>
<text text-anchor="middle" x="430.5" y="-105.5" font-family="Helvetica,sans-Serif" font-size="10.00">_vertex_generic::postorder_begin</text>
</a>
</g>
</g>
<!-- Node1&#45;&gt;Node7 -->
<g id="edge6" class="edge">
<title>Node1&#45;&gt;Node7</title>
<path fill="none" stroke="midnightblue" d="M545.69,-113.5C537.29,-113.5 528.73,-113.5 520.25,-113.5"/>
<polygon fill="midnightblue" stroke="midnightblue" points="545.82,-117 555.82,-113.5 545.82,-110 545.82,-117"/>
</g>
<!-- Node10 -->
<g id="node10" class="node">
<title>Node10</title>
<g id="a_node10"><a xlink:href="../../d3/dd2/classuxn_1_1patl_1_1impl_1_1vertex__generic.html#a93cb05abf7716bd376e5773ee1683088" target="_top" xlink:title=" ">
<polygon fill="none" stroke="black" points="362,-49.5 362,-79.5 499,-79.5 499,-49.5 362,-49.5"/>
<text text-anchor="start" x="370" y="-67.5" font-family="Helvetica,sans-Serif" font-size="10.00">uxn::patl::impl::vertex</text>
<text text-anchor="middle" x="430.5" y="-56.5" font-family="Helvetica,sans-Serif" font-size="10.00">_generic::preorder_begin</text>
</a>
</g>
</g>
<!-- Node1&#45;&gt;Node10 -->
<g id="edge9" class="edge">
<title>Node1&#45;&gt;Node10</title>
<path fill="none" stroke="midnightblue" d="M556.95,-96.02C535.46,-90.62 511.99,-84.72 491.22,-79.51"/>
<polygon fill="midnightblue" stroke="midnightblue" points="556.12,-99.42 566.67,-98.47 557.82,-92.63 556.12,-99.42"/>
</g>
<!-- Node11 -->
<g id="node11" class="node">
<title>Node11</title>
<g id="a_node11"><a xlink:href="../../d3/d81/classuxn_1_1patl_1_1impl_1_1const__vertex__generic.html#a1865e87ece3071fee4bf693f2595404f" target="_top" xlink:title=" ">
<polygon fill="none" stroke="black" points="343.5,-0.5 343.5,-30.5 517.5,-30.5 517.5,-0.5 343.5,-0.5"/>
<text text-anchor="start" x="351.5" y="-18.5" font-family="Helvetica,sans-Serif" font-size="10.00">uxn::patl::impl::const</text>
<text text-anchor="middle" x="430.5" y="-7.5" font-family="Helvetica,sans-Serif" font-size="10.00">_vertex_generic::preorder_begin</text>
</a>
</g>
</g>
<!-- Node1&#45;&gt;Node11 -->
<g id="edge10" class="edge">
<title>Node1&#45;&gt;Node11</title>
<path fill="none" stroke="midnightblue" d="M600.87,-91.91C580.2,-75.47 549.78,-53.37 520,-39.5 512.78,-36.14 505.01,-33.17 497.18,-30.58"/>
<polygon fill="midnightblue" stroke="midnightblue" points="598.85,-94.78 608.83,-98.35 603.25,-89.34 598.85,-94.78"/>
</g>
<!-- Node4 -->
<g id="node4" class="node">
<title>Node4</title>
<g id="a_node4"><a xlink:href="../../d3/dd2/classuxn_1_1patl_1_1impl_1_1vertex__generic.html#ae55d80309c30384581e5cc5ef6c2cb74" target="_top" xlink:title=" ">
<polygon fill="none" stroke="black" points="170.5,-196.5 170.5,-226.5 295.5,-226.5 295.5,-196.5 170.5,-196.5"/>
<text text-anchor="start" x="178.5" y="-214.5" font-family="Helvetica,sans-Serif" font-size="10.00">uxn::patl::impl::vertex</text>
<text text-anchor="middle" x="233" y="-203.5" font-family="Helvetica,sans-Serif" font-size="10.00">_generic::begin</text>
</a>
</g>
</g>
<!-- Node3&#45;&gt;Node4 -->
<g id="edge3" class="edge">
<title>Node3&#45;&gt;Node4</title>
<path fill="none" stroke="midnightblue" d="M359.77,-179.98C338.22,-185.38 314.69,-191.28 293.87,-196.49"/>
<polygon fill="midnightblue" stroke="midnightblue" points="360.67,-183.36 369.51,-177.53 358.96,-176.57 360.67,-183.36"/>
</g>
<!-- Node6 -->
<g id="node6" class="node">
<title>Node6</title>
<g id="a_node6"><a xlink:href="../../d0/d55/classuxn_1_1patl_1_1impl_1_1trie__generic_3_01T_00_010_01_4.html#ac0822b84c8dbff5c9d14b158bbdb173e" target="_top" xlink:title=" ">
<polygon fill="none" stroke="black" points="161,-147.5 161,-177.5 305,-177.5 305,-147.5 161,-147.5"/>
<text text-anchor="start" x="169" y="-165.5" font-family="Helvetica,sans-Serif" font-size="10.00">uxn::patl::impl::trie</text>
<text text-anchor="middle" x="233" y="-154.5" font-family="Helvetica,sans-Serif" font-size="10.00">_generic&lt; T, 0 &gt;::del_tree</text>
</a>
</g>
</g>
<!-- Node3&#45;&gt;Node6 -->
<g id="edge5" class="edge">
<title>Node3&#45;&gt;Node6</title>
<path fill="none" stroke="midnightblue" d="M348.54,-162.5C334.14,-162.5 319.24,-162.5 305.13,-162.5"/>
<polygon fill="midnightblue" stroke="midnightblue" points="348.92,-166 358.92,-162.5 348.92,-159 348.92,-166"/>
</g>
<!-- Node5 -->
<g id="node5" class="node">
<title>Node5</title>
<g id="a_node5"><a xlink:href="../../d3/dd2/classuxn_1_1patl_1_1impl_1_1vertex__generic.html#aa6efe35c0a8b3a3112c49ca87e55645d" target="_top" xlink:title=" ">
<polygon fill="none" stroke="black" points="0,-196.5 0,-226.5 125,-226.5 125,-196.5 0,-196.5"/>
<text text-anchor="start" x="8" y="-214.5" font-family="Helvetica,sans-Serif" font-size="10.00">uxn::patl::impl::vertex</text>
<text text-anchor="middle" x="62.5" y="-203.5" font-family="Helvetica,sans-Serif" font-size="10.00">_generic::rend</text>
</a>
</g>
</g>
<!-- Node4&#45;&gt;Node5 -->
<g id="edge4" class="edge">
<title>Node4&#45;&gt;Node5</title>
<path fill="none" stroke="midnightblue" d="M160.13,-211.5C148.53,-211.5 136.61,-211.5 125.28,-211.5"/>
<polygon fill="midnightblue" stroke="midnightblue" points="160.21,-215 170.21,-211.5 160.21,-208 160.21,-215"/>
</g>
<!-- Node8 -->
<g id="node8" class="node">
<title>Node8</title>
<g id="a_node8"><a xlink:href="../../d3/d81/classuxn_1_1patl_1_1impl_1_1const__vertex__generic.html#af1cc8c30cc8f704fb4e35d3364538f48" target="_top" xlink:title=" ">
<polygon fill="none" stroke="black" points="169,-98.5 169,-128.5 297,-128.5 297,-98.5 169,-98.5"/>
<text text-anchor="start" x="177" y="-116.5" font-family="Helvetica,sans-Serif" font-size="10.00">uxn::patl::impl::const</text>
<text text-anchor="middle" x="233" y="-105.5" font-family="Helvetica,sans-Serif" font-size="10.00">_vertex_generic::begin</text>
</a>
</g>
</g>
<!-- Node7&#45;&gt;Node8 -->
<g id="edge7" class="edge">
<title>Node7&#45;&gt;Node8</title>
<path fill="none" stroke="midnightblue" d="M330.85,-113.5C319.4,-113.5 307.96,-113.5 297.17,-113.5"/>
<polygon fill="midnightblue" stroke="midnightblue" points="330.9,-117 340.9,-113.5 330.9,-110 330.9,-117"/>
</g>
<!-- Node9 -->
<g id="node9" class="node">
<title>Node9</title>
<g id="a_node9"><a xlink:href="../../d3/d81/classuxn_1_1patl_1_1impl_1_1const__vertex__generic.html#aa6879a68f2fd97b7998a8f1372e4f2e4" target="_top" xlink:title=" ">
<polygon fill="none" stroke="black" points="1.5,-98.5 1.5,-128.5 123.5,-128.5 123.5,-98.5 1.5,-98.5"/>
<text text-anchor="start" x="9.5" y="-116.5" font-family="Helvetica,sans-Serif" font-size="10.00">uxn::patl::impl::const</text>
<text text-anchor="middle" x="62.5" y="-105.5" font-family="Helvetica,sans-Serif" font-size="10.00">_vertex_generic::rend</text>
</a>
</g>
</g>
<!-- Node8&#45;&gt;Node9 -->
<g id="edge8" class="edge">
<title>Node8&#45;&gt;Node9</title>
<path fill="none" stroke="midnightblue" d="M158.63,-113.5C146.97,-113.5 135.04,-113.5 123.73,-113.5"/>
<polygon fill="midnightblue" stroke="midnightblue" points="158.78,-117 168.78,-113.5 158.78,-110 158.78,-117"/>
</g>
</g>
</svg>
