<?xml version="1.0" encoding="UTF-8" standalone="no"?>
<!DOCTYPE svg PUBLIC "-//W3C//DTD SVG 1.1//EN"
 "http://www.w3.org/Graphics/SVG/1.1/DTD/svg11.dtd">
<!-- Generated by graphviz version 5.0.1 (20220820.1526)
 -->
<!-- Title: uxn::patl::impl::const_vertex_generic::ascend Pages: 1 -->
<svg width="315pt" height="110pt"
 viewBox="0.00 0.00 315.00 110.00" xmlns="http://www.w3.org/2000/svg" xmlns:xlink="http://www.w3.org/1999/xlink">
<g id="graph0" class="graph" transform="scale(1 1) rotate(0) translate(4 106)">
<title>uxn::patl::impl::const_vertex_generic::ascend</title>
<!-- Node1 -->
<g id="node1" class="node">
<title>Node1</title>
<g id="a_node1"><a xlink:title=" ">
<polygon fill="#bfbfbf" stroke="black" points="172,-36 172,-66 307,-66 307,-36 172,-36"/>
<text text-anchor="start" x="180" y="-54" font-family="Helvetica,sans-Serif" font-size="10.00">uxn::patl::impl::const</text>
<text text-anchor="middle" x="239.5" y="-43" font-family="Helvetica,sans-Serif" font-size="10.00">_vertex_generic::ascend</text>
</a>
</g>
</g>
<!-- Node2 -->
<g id="node2" class="node">
<title>Node2</title>
<g id="a_node2"><a xlink:href="../../d3/d81/classuxn_1_1patl_1_1impl_1_1const__vertex__generic.html#aa49b51df36f51c74829f096de09cf126" target="_top" xlink:title="generic part of all move functions">
<polygon fill="none" stroke="black" points="4,-60.5 4,-101.5 132,-101.5 132,-60.5 4,-60.5"/>
<text text-anchor="start" x="12" y="-89.5" font-family="Helvetica,sans-Serif" font-size="10.00">uxn::patl::impl::const</text>
<text text-anchor="start" x="12" y="-78.5" font-family="Helvetica,sans-Serif" font-size="10.00">_vertex_generic::move</text>
<text text-anchor="middle" x="68" y="-67.5" font-family="Helvetica,sans-Serif" font-size="10.00">_subtree</text>
</a>
</g>
</g>
<!-- Node1&#45;&gt;Node2 -->
<g id="edge1" class="edge">
<title>Node1&#45;&gt;Node2</title>
<path fill="none" stroke="midnightblue" d="M162.09,-64.52C152.12,-66.29 141.99,-68.08 132.27,-69.8"/>
<polygon fill="midnightblue" stroke="midnightblue" points="162.76,-67.96 172,-62.77 161.54,-61.07 162.76,-67.96"/>
</g>
<!-- Node3 -->
<g id="node3" class="node">
<title>Node3</title>
<g id="a_node3"><a xlink:href="../../dc/d4b/classuxn_1_1patl_1_1impl_1_1suffix__generic_1_1match__iterator.html#a178c99287b12e933bad30cac538486dc" target="_top" xlink:title=" ">
<polygon fill="none" stroke="black" points="0,-0.5 0,-41.5 136,-41.5 136,-0.5 0,-0.5"/>
<text text-anchor="start" x="8" y="-29.5" font-family="Helvetica,sans-Serif" font-size="10.00">uxn::patl::impl::suffix</text>
<text text-anchor="start" x="8" y="-18.5" font-family="Helvetica,sans-Serif" font-size="10.00">_generic::match_iterator</text>
<text text-anchor="middle" x="68" y="-7.5" font-family="Helvetica,sans-Serif" font-size="10.00">::operator++</text>
</a>
</g>
</g>
<!-- Node1&#45;&gt;Node3 -->
<g id="edge2" class="edge">
<title>Node1&#45;&gt;Node3</title>
<path fill="none" stroke="midnightblue" d="M161.96,-37.45C153.35,-35.93 144.63,-34.39 136.15,-32.88"/>
<polygon fill="midnightblue" stroke="midnightblue" points="161.54,-40.93 172,-39.23 162.76,-34.04 161.54,-40.93"/>
</g>
</g>
</svg>
