<?xml version="1.0" encoding="UTF-8" standalone="no"?>
<!DOCTYPE svg PUBLIC "-//W3C//DTD SVG 1.1//EN"
 "http://www.w3.org/Graphics/SVG/1.1/DTD/svg11.dtd">
<!-- Generated by graphviz version 5.0.1 (20220820.1526)
 -->
<!-- Title: uxn::patl::maxrep_iterator::functor::incr Pages: 1 -->
<svg width="692pt" height="88pt"
 viewBox="0.00 0.00 692.00 88.00" xmlns="http://www.w3.org/2000/svg" xmlns:xlink="http://www.w3.org/1999/xlink">
<g id="graph0" class="graph" transform="scale(1 1) rotate(0) translate(4 84)">
<title>uxn::patl::maxrep_iterator::functor::incr</title>
<!-- Node1 -->
<g id="node1" class="node">
<title>Node1</title>
<g id="a_node1"><a xlink:title=" ">
<polygon fill="#bfbfbf" stroke="black" points="0,-24.5 0,-54.5 144,-54.5 144,-24.5 0,-24.5"/>
<text text-anchor="start" x="8" y="-42.5" font-family="Helvetica,sans-Serif" font-size="10.00">uxn::patl::maxrep_iterator</text>
<text text-anchor="middle" x="72" y="-31.5" font-family="Helvetica,sans-Serif" font-size="10.00">::functor::incr</text>
</a>
</g>
</g>
<!-- Node2 -->
<g id="node2" class="node">
<title>Node2</title>
<g id="a_node2"><a xlink:href="../../d0/da8/structuxn_1_1patl_1_1maxrep__iterator_1_1functor.html#a0345dae83300ba4d211b846d99834ec0" target="_top" xlink:title=" ">
<polygon fill="none" stroke="black" points="180,-24.5 180,-54.5 324,-54.5 324,-24.5 180,-24.5"/>
<text text-anchor="start" x="188" y="-42.5" font-family="Helvetica,sans-Serif" font-size="10.00">uxn::patl::maxrep_iterator</text>
<text text-anchor="middle" x="252" y="-31.5" font-family="Helvetica,sans-Serif" font-size="10.00">::functor::update</text>
</a>
</g>
</g>
<!-- Node1&#45;&gt;Node2 -->
<g id="edge1" class="edge">
<title>Node1&#45;&gt;Node2</title>
<path fill="none" stroke="midnightblue" d="M144.12,-39.5C152.61,-39.5 161.33,-39.5 169.94,-39.5"/>
<polygon fill="midnightblue" stroke="midnightblue" points="170,-43 180,-39.5 170,-36 170,-43"/>
</g>
<!-- Node3 -->
<g id="node3" class="node">
<title>Node3</title>
<g id="a_node3"><a xlink:href="../../d6/d48/classuxn_1_1patl_1_1maxrep__iterator.html#a003445f9a8d1d1ddf3a49772aec20493" target="_top" xlink:title=" ">
<polygon fill="none" stroke="black" points="360,-24.5 360,-54.5 504,-54.5 504,-24.5 360,-24.5"/>
<text text-anchor="start" x="368" y="-42.5" font-family="Helvetica,sans-Serif" font-size="10.00">uxn::patl::maxrep_iterator</text>
<text text-anchor="middle" x="432" y="-31.5" font-family="Helvetica,sans-Serif" font-size="10.00">::bit31_update</text>
</a>
</g>
</g>
<!-- Node2&#45;&gt;Node3 -->
<g id="edge2" class="edge">
<title>Node2&#45;&gt;Node3</title>
<path fill="none" stroke="midnightblue" d="M324.12,-39.5C332.61,-39.5 341.33,-39.5 349.94,-39.5"/>
<polygon fill="midnightblue" stroke="midnightblue" points="350,-43 360,-39.5 350,-36 350,-43"/>
</g>
<!-- Node4 -->
<g id="node4" class="node">
<title>Node4</title>
<g id="a_node4"><a xlink:href="../../dd/d0e/namespaceuxn_1_1patl_1_1impl.html#a04d3ac0cb6757a014cab27da18666555" target="_top" xlink:title=" ">
<polygon fill="none" stroke="black" points="557.5,-49.5 557.5,-79.5 666.5,-79.5 666.5,-49.5 557.5,-49.5"/>
<text text-anchor="start" x="565.5" y="-67.5" font-family="Helvetica,sans-Serif" font-size="10.00">uxn::patl::impl::get</text>
<text text-anchor="middle" x="612" y="-56.5" font-family="Helvetica,sans-Serif" font-size="10.00">_highest_bit</text>
</a>
</g>
</g>
<!-- Node3&#45;&gt;Node4 -->
<g id="edge3" class="edge">
<title>Node3&#45;&gt;Node4</title>
<path fill="none" stroke="midnightblue" d="M504.12,-49.49C518.38,-51.49 533.28,-53.58 547.27,-55.55"/>
<polygon fill="midnightblue" stroke="midnightblue" points="546.88,-59.03 557.27,-56.95 547.86,-52.1 546.88,-59.03"/>
</g>
<!-- Node5 -->
<g id="node5" class="node">
<title>Node5</title>
<g id="a_node5"><a xlink:href="../../d6/d48/classuxn_1_1patl_1_1maxrep__iterator.html#a210ca6579e18c52cb2b050a1435ebdf3" target="_top" xlink:title=" ">
<polygon fill="none" stroke="black" points="540,-0.5 540,-30.5 684,-30.5 684,-0.5 540,-0.5"/>
<text text-anchor="start" x="548" y="-18.5" font-family="Helvetica,sans-Serif" font-size="10.00">uxn::patl::maxrep_iterator</text>
<text text-anchor="middle" x="612" y="-7.5" font-family="Helvetica,sans-Serif" font-size="10.00">::left_diff</text>
</a>
</g>
</g>
<!-- Node3&#45;&gt;Node5 -->
<g id="edge4" class="edge">
<title>Node3&#45;&gt;Node5</title>
<path fill="none" stroke="midnightblue" d="M504.12,-29.91C512.61,-28.77 521.33,-27.59 529.94,-26.43"/>
<polygon fill="midnightblue" stroke="midnightblue" points="530.55,-29.88 540,-25.07 529.62,-22.94 530.55,-29.88"/>
</g>
</g>
</svg>
