<?xml version="1.0" encoding="UTF-8" standalone="no"?>
<!DOCTYPE svg PUBLIC "-//W3C//DTD SVG 1.1//EN"
 "http://www.w3.org/Graphics/SVG/1.1/DTD/svg11.dtd">
<!-- Generated by graphviz version 5.0.1 (20220820.1526)
 -->
<!-- Title: uxn::patl::suffix_map::push_back Pages: 1 -->
<!--zoomable 548 -->
<svg id="main" version="1.1" xmlns="http://www.w3.org/2000/svg" xmlns:xlink="http://www.w3.org/1999/xlink" xml:space="preserve" onload="init(evt)">
<style type="text/css"><![CDATA[
.edge:hover path { stroke: red; }
.edge:hover polygon { stroke: red; fill: red; }
]]></style>
<script type="text/javascript"><![CDATA[
var edges = document.getElementsByTagName('g');
if (edges && edges.length) {
  for (var i=0;i<edges.length;i++) {
    if (edges[i].id.substr(0,4)=='edge') {
      edges[i].setAttribute('class','edge');
    }
  }
}
]]></script>
        <defs>
                <circle id="rim" cx="0" cy="0" r="7"/>
                <circle id="rim2" cx="0" cy="0" r="3.5"/>
                <g id="zoomPlus">
                        <use xlink:href="#rim" fill="#404040">
                                <set attributeName="fill" to="#808080" begin="zoomplus.mouseover" end="zoomplus.mouseout"/>
                        </use>
                        <path d="M-4,0h8M0,-4v8" fill="none" stroke="white" stroke-width="1.5" pointer-events="none"/>
                </g>
                <g id="zoomMin">
                        <use xlink:href="#rim" fill="#404040">
                                <set attributeName="fill" to="#808080" begin="zoomminus.mouseover" end="zoomminus.mouseout"/>
                        </use>
                        <path d="M-4,0h8" fill="none" stroke="white" stroke-width="1.5" pointer-events="none"/>
                </g>
                <g id="dirArrow">
                        <path fill="none" stroke="white" stroke-width="1.5" d="M0,-3.0v7 M-2.5,-0.5L0,-3.0L2.5,-0.5"/>
                </g>
               <g id="resetDef">
                       <use xlink:href="#rim2" fill="#404040">
                               <set attributeName="fill" to="#808080" begin="reset.mouseover" end="reset.mouseout"/>
                       </use>
               </g>
        </defs>

<script type="text/javascript">
var viewWidth = 318;
var viewHeight = 548;
var sectionId = 'dynsection-2';
</script>
<script xlink:href="../../svgpan.js"/>
<svg id="graph" class="graph">
<g id="viewport">
<title>uxn::patl::suffix_map::push_back</title>
<!-- Node1 -->
<g id="node1" class="node">
<title>Node1</title>
<g id="a_node1"><a xlink:title=" ">
<polygon fill="#bfbfbf" stroke="black" points="0,-254.5 0,-284.5 119,-284.5 119,-254.5 0,-254.5"/>
<text text-anchor="start" x="8" y="-272.5" font-family="Helvetica,sans-Serif" font-size="10.00">uxn::patl::suffix_map</text>
<text text-anchor="middle" x="59.5" y="-261.5" font-family="Helvetica,sans-Serif" font-size="10.00">::push_back</text>
</a>
</g>
</g>
<!-- Node2 -->
<g id="node2" class="node">
<title>Node2</title>
<g id="a_node2"><a xlink:href="../../db/db7/classuxn_1_1patl_1_1impl_1_1suffix__generic.html#a5f1a79ec8899f0e12680cb343470cc11" target="_top" xlink:title=" ">
<polygon fill="none" stroke="black" points="155,-465.5 155,-539.5 310,-539.5 310,-465.5 155,-465.5"/>
<text text-anchor="start" x="163" y="-527.5" font-family="Helvetica,sans-Serif" font-size="10.00">uxn::patl::impl::suffix</text>
<text text-anchor="start" x="163" y="-516.5" font-family="Helvetica,sans-Serif" font-size="10.00">_generic&lt; impl::suffix</text>
<text text-anchor="start" x="163" y="-505.5" font-family="Helvetica,sans-Serif" font-size="10.00">_map_traits&lt; Type, Datum,</text>
<text text-anchor="start" x="163" y="-494.5" font-family="Helvetica,sans-Serif" font-size="10.00"> 0, 1, bit_comparator&lt; Type,</text>
<text text-anchor="start" x="163" y="-483.5" font-family="Helvetica,sans-Serif" font-size="10.00"> 0 &gt;, std::allocator&lt; Type</text>
<text text-anchor="middle" x="232.5" y="-472.5" font-family="Helvetica,sans-Serif" font-size="10.00"> &gt; &gt; &gt;::capacity</text>
</a>
</g>
</g>
<!-- Node1&#45;&gt;Node2 -->
<g id="edge1" class="edge">
<title>Node1&#45;&gt;Node2</title>
<path fill="none" stroke="midnightblue" d="M64.9,-284.52C75.51,-318.63 105.36,-403.07 155,-456.5 155.53,-457.07 156.08,-457.64 156.63,-458.21"/>
<polygon fill="midnightblue" stroke="midnightblue" points="154.51,-461.02 164.21,-465.29 159.29,-455.9 154.51,-461.02"/>
</g>
<!-- Node3 -->
<g id="node3" class="node">
<title>Node3</title>
<g id="a_node3"><a xlink:href="../../db/db7/classuxn_1_1patl_1_1impl_1_1suffix__generic.html#a19845a4d480875e2b697c49d19bfa1ce" target="_top" xlink:title="return true if suffix_cont is empty OR full">
<polygon fill="none" stroke="black" points="155,-372.5 155,-446.5 310,-446.5 310,-372.5 155,-372.5"/>
<text text-anchor="start" x="163" y="-434.5" font-family="Helvetica,sans-Serif" font-size="10.00">uxn::patl::impl::suffix</text>
<text text-anchor="start" x="163" y="-423.5" font-family="Helvetica,sans-Serif" font-size="10.00">_generic&lt; impl::suffix</text>
<text text-anchor="start" x="163" y="-412.5" font-family="Helvetica,sans-Serif" font-size="10.00">_map_traits&lt; Type, Datum,</text>
<text text-anchor="start" x="163" y="-401.5" font-family="Helvetica,sans-Serif" font-size="10.00"> 0, 1, bit_comparator&lt; Type,</text>
<text text-anchor="start" x="163" y="-390.5" font-family="Helvetica,sans-Serif" font-size="10.00"> 0 &gt;, std::allocator&lt; Type</text>
<text text-anchor="middle" x="232.5" y="-379.5" font-family="Helvetica,sans-Serif" font-size="10.00"> &gt; &gt; &gt;::endpoint</text>
</a>
</g>
</g>
<!-- Node1&#45;&gt;Node3 -->
<g id="edge2" class="edge">
<title>Node1&#45;&gt;Node3</title>
<path fill="none" stroke="midnightblue" d="M73.6,-284.64C91,-304.22 123.24,-338.75 155,-363.5 156.34,-364.55 157.71,-365.59 159.11,-366.63"/>
<polygon fill="midnightblue" stroke="midnightblue" points="157.1,-369.5 167.27,-372.48 161.18,-363.81 157.1,-369.5"/>
</g>
<!-- Node4 -->
<g id="node4" class="node">
<title>Node4</title>
<g id="a_node4"><a xlink:href="../../db/db7/classuxn_1_1patl_1_1impl_1_1suffix__generic.html#a3758d1f5bf1e70bd5f67a7edb7d7971f" target="_top" xlink:title=" ">
<polygon fill="none" stroke="black" points="155,-279.5 155,-353.5 310,-353.5 310,-279.5 155,-279.5"/>
<text text-anchor="start" x="163" y="-341.5" font-family="Helvetica,sans-Serif" font-size="10.00">uxn::patl::impl::suffix</text>
<text text-anchor="start" x="163" y="-330.5" font-family="Helvetica,sans-Serif" font-size="10.00">_generic&lt; impl::suffix</text>
<text text-anchor="start" x="163" y="-319.5" font-family="Helvetica,sans-Serif" font-size="10.00">_map_traits&lt; Type, Datum,</text>
<text text-anchor="start" x="163" y="-308.5" font-family="Helvetica,sans-Serif" font-size="10.00"> 0, 1, bit_comparator&lt; Type,</text>
<text text-anchor="start" x="163" y="-297.5" font-family="Helvetica,sans-Serif" font-size="10.00"> 0 &gt;, std::allocator&lt; Type</text>
<text text-anchor="middle" x="232.5" y="-286.5" font-family="Helvetica,sans-Serif" font-size="10.00"> &gt; &gt; &gt;::push_back_generic</text>
</a>
</g>
</g>
<!-- Node1&#45;&gt;Node4 -->
<g id="edge3" class="edge">
<title>Node1&#45;&gt;Node4</title>
<path fill="none" stroke="midnightblue" d="M115.08,-284.5C124.63,-287.13 134.78,-289.92 144.95,-292.71"/>
<polygon fill="midnightblue" stroke="midnightblue" points="144.12,-296.11 154.69,-295.39 145.98,-289.36 144.12,-296.11"/>
</g>
<!-- Node5 -->
<g id="node5" class="node">
<title>Node5</title>
<g id="a_node5"><a xlink:href="../../db/db7/classuxn_1_1patl_1_1impl_1_1suffix__generic.html#a52f5d589814ab7cf08b9840cb90f1377" target="_top" xlink:title=" ">
<polygon fill="none" stroke="black" points="155,-186.5 155,-260.5 310,-260.5 310,-186.5 155,-186.5"/>
<text text-anchor="start" x="163" y="-248.5" font-family="Helvetica,sans-Serif" font-size="10.00">uxn::patl::impl::suffix</text>
<text text-anchor="start" x="163" y="-237.5" font-family="Helvetica,sans-Serif" font-size="10.00">_generic&lt; impl::suffix</text>
<text text-anchor="start" x="163" y="-226.5" font-family="Helvetica,sans-Serif" font-size="10.00">_map_traits&lt; Type, Datum,</text>
<text text-anchor="start" x="163" y="-215.5" font-family="Helvetica,sans-Serif" font-size="10.00"> 0, 1, bit_comparator&lt; Type,</text>
<text text-anchor="start" x="163" y="-204.5" font-family="Helvetica,sans-Serif" font-size="10.00"> 0 &gt;, std::allocator&lt; Type</text>
<text text-anchor="middle" x="232.5" y="-193.5" font-family="Helvetica,sans-Serif" font-size="10.00"> &gt; &gt; &gt;::push_back_root</text>
</a>
</g>
</g>
<!-- Node1&#45;&gt;Node5 -->
<g id="edge4" class="edge">
<title>Node1&#45;&gt;Node5</title>
<path fill="none" stroke="midnightblue" d="M116.49,-254.44C125.7,-251.96 135.42,-249.35 145.16,-246.73"/>
<polygon fill="midnightblue" stroke="midnightblue" points="146.14,-250.09 154.89,-244.11 144.32,-243.33 146.14,-250.09"/>
</g>
<!-- Node6 -->
<g id="node6" class="node">
<title>Node6</title>
<g id="a_node6"><a xlink:href="../../db/db7/classuxn_1_1patl_1_1impl_1_1suffix__generic.html#a3a8ccdc542ec789f363fbfacb3d3e344" target="_top" xlink:title=" ">
<polygon fill="none" stroke="black" points="155,-93.5 155,-167.5 310,-167.5 310,-93.5 155,-93.5"/>
<text text-anchor="start" x="163" y="-155.5" font-family="Helvetica,sans-Serif" font-size="10.00">uxn::patl::impl::suffix</text>
<text text-anchor="start" x="163" y="-144.5" font-family="Helvetica,sans-Serif" font-size="10.00">_generic&lt; impl::suffix</text>
<text text-anchor="start" x="163" y="-133.5" font-family="Helvetica,sans-Serif" font-size="10.00">_map_traits&lt; Type, Datum,</text>
<text text-anchor="start" x="163" y="-122.5" font-family="Helvetica,sans-Serif" font-size="10.00"> 0, 1, bit_comparator&lt; Type,</text>
<text text-anchor="start" x="163" y="-111.5" font-family="Helvetica,sans-Serif" font-size="10.00"> 0 &gt;, std::allocator&lt; Type</text>
<text text-anchor="middle" x="232.5" y="-100.5" font-family="Helvetica,sans-Serif" font-size="10.00"> &gt; &gt; &gt;::reserve</text>
</a>
</g>
</g>
<!-- Node1&#45;&gt;Node6 -->
<g id="edge5" class="edge">
<title>Node1&#45;&gt;Node6</title>
<path fill="none" stroke="midnightblue" d="M74,-254.43C91.58,-235.29 123.74,-201.83 155,-177.5 156.75,-176.14 158.54,-174.78 160.36,-173.44"/>
<polygon fill="midnightblue" stroke="midnightblue" points="162.42,-176.27 168.52,-167.61 158.35,-170.57 162.42,-176.27"/>
</g>
<!-- Node7 -->
<g id="node7" class="node">
<title>Node7</title>
<g id="a_node7"><a xlink:href="../../db/db7/classuxn_1_1patl_1_1impl_1_1suffix__generic.html#aa40451084d31ec23114745757ca30371" target="_top" xlink:title=" ">
<polygon fill="none" stroke="black" points="155,-0.5 155,-74.5 310,-74.5 310,-0.5 155,-0.5"/>
<text text-anchor="start" x="163" y="-62.5" font-family="Helvetica,sans-Serif" font-size="10.00">uxn::patl::impl::suffix</text>
<text text-anchor="start" x="163" y="-51.5" font-family="Helvetica,sans-Serif" font-size="10.00">_generic&lt; impl::suffix</text>
<text text-anchor="start" x="163" y="-40.5" font-family="Helvetica,sans-Serif" font-size="10.00">_map_traits&lt; Type, Datum,</text>
<text text-anchor="start" x="163" y="-29.5" font-family="Helvetica,sans-Serif" font-size="10.00"> 0, 1, bit_comparator&lt; Type,</text>
<text text-anchor="start" x="163" y="-18.5" font-family="Helvetica,sans-Serif" font-size="10.00"> 0 &gt;, std::allocator&lt; Type</text>
<text text-anchor="middle" x="232.5" y="-7.5" font-family="Helvetica,sans-Serif" font-size="10.00"> &gt; &gt; &gt;::size</text>
</a>
</g>
</g>
<!-- Node1&#45;&gt;Node7 -->
<g id="edge6" class="edge">
<title>Node1&#45;&gt;Node7</title>
<path fill="none" stroke="midnightblue" d="M65.06,-254.42C75.9,-220.59 106.04,-137.47 155,-84.5 155.89,-83.53 156.81,-82.58 157.75,-81.64"/>
<polygon fill="midnightblue" stroke="midnightblue" points="160.33,-84.03 165.33,-74.69 155.59,-78.87 160.33,-84.03"/>
</g>
</g>
</svg>
        <g id="navigator" transform="translate(0 0)" fill="#404254">
                <rect fill="#f2f5e9" fill-opacity="0.5" stroke="#606060" stroke-width=".5" x="0" y="0" width="60" height="60"/>
                <use id="zoomplus" xlink:href="#zoomPlus" x="17" y="9" onmousedown="handleZoom(evt,'in')"/>
                <use id="zoomminus" xlink:href="#zoomMin" x="42" y="9" onmousedown="handleZoom(evt,'out')"/>
                <use id="reset" xlink:href="#resetDef" x="30" y="36" onmousedown="handleReset()"/>
                <g id="arrowUp" xlink:href="#dirArrow" transform="translate(30 24)" onmousedown="handlePan(0,-1)">
                  <use xlink:href="#rim" fill="#404040">
                        <set attributeName="fill" to="#808080" begin="arrowUp.mouseover" end="arrowUp.mouseout"/>
                  </use>
                  <path fill="none" stroke="white" stroke-width="1.5" d="M0,-3.0v7 M-2.5,-0.5L0,-3.0L2.5,-0.5"/>
                </g>
                <g id="arrowRight" xlink:href="#dirArrow" transform="rotate(90) translate(36 -43)" onmousedown="handlePan(1,0)">
                  <use xlink:href="#rim" fill="#404040">
                        <set attributeName="fill" to="#808080" begin="arrowRight.mouseover" end="arrowRight.mouseout"/>
                  </use>
                  <path fill="none" stroke="white" stroke-width="1.5" d="M0,-3.0v7 M-2.5,-0.5L0,-3.0L2.5,-0.5"/>
                </g>
                <g id="arrowDown" xlink:href="#dirArrow" transform="rotate(180) translate(-30 -48)" onmousedown="handlePan(0,1)">
                  <use xlink:href="#rim" fill="#404040">
                        <set attributeName="fill" to="#808080" begin="arrowDown.mouseover" end="arrowDown.mouseout"/>
                  </use>
                  <path fill="none" stroke="white" stroke-width="1.5" d="M0,-3.0v7 M-2.5,-0.5L0,-3.0L2.5,-0.5"/>
                </g>
                <g id="arrowLeft" xlink:href="#dirArrow" transform="rotate(270) translate(-36 17)" onmousedown="handlePan(-1,0)">
                  <use xlink:href="#rim" fill="#404040">
                        <set attributeName="fill" to="#808080" begin="arrowLeft.mouseover" end="arrowLeft.mouseout"/>
                  </use>
                  <path fill="none" stroke="white" stroke-width="1.5" d="M0,-3.0v7 M-2.5,-0.5L0,-3.0L2.5,-0.5"/>
                </g>
        </g>
        <svg viewBox="0 0 15 15" width="100%" height="30px" preserveAspectRatio="xMaxYMin meet">
         <g id="arrow_out" transform="scale(0.3 0.3)">
          <a xlink:href="classuxn_1_1patl_1_1suffix__map_a5ae95c48d1319fedfee7680e530a6136_cgraph_org.svg" target="_base">
           <rect id="button" ry="5" rx="5" y="6" x="6" height="38" width="38"
                fill="#f2f5e9" fill-opacity="0.5" stroke="#606060" stroke-width="1.0"/>
           <path id="arrow"
             d="M 11.500037,31.436501 C 11.940474,20.09759 22.043105,11.32322 32.158766,21.979434 L 37.068811,17.246167 C 37.068811,17.246167 37.088388,32 37.088388,32 L 22.160133,31.978069 C 22.160133,31.978069 26.997745,27.140456 26.997745,27.140456 C 18.528582,18.264221 13.291696,25.230495 11.500037,31.436501 z"
             style="fill:#404040;"/>
          </a>
         </g>
        </svg>
</svg>
