<?xml version="1.0" encoding="UTF-8" standalone="no"?>
<!DOCTYPE svg PUBLIC "-//W3C//DTD SVG 1.1//EN"
 "http://www.w3.org/Graphics/SVG/1.1/DTD/svg11.dtd">
<!-- Generated by graphviz version 5.0.1 (20220820.1526)
 -->
<!-- Title: piece::length Pages: 1 -->
<svg width="383pt" height="176pt"
 viewBox="0.00 0.00 383.00 175.50" xmlns="http://www.w3.org/2000/svg" xmlns:xlink="http://www.w3.org/1999/xlink">
<g id="graph0" class="graph" transform="scale(1 1) rotate(0) translate(4 171.5)">
<title>piece::length</title>
<!-- Node1 -->
<g id="node1" class="node">
<title>Node1</title>
<g id="a_node1"><a xlink:title=" ">
<polygon fill="#bfbfbf" stroke="black" points="295,-68.5 295,-87.5 375,-87.5 375,-68.5 295,-68.5"/>
<text text-anchor="middle" x="335" y="-75.5" font-family="Helvetica,sans-Serif" font-size="10.00">piece::length</text>
</a>
</g>
</g>
<!-- Node2 -->
<g id="node2" class="node">
<title>Node2</title>
<g id="a_node2"><a xlink:href="../../dc/de3/classuxn_1_1patl_1_1bit__comparator_3_01piece_3_01T_01_4_01_4.html#a15b10a47d37cab6ece2d3bb05950eb24" target="_top" xlink:title=" ">
<polygon fill="none" stroke="black" points="93.5,-137 93.5,-167 242.5,-167 242.5,-137 93.5,-137"/>
<text text-anchor="start" x="101.5" y="-155" font-family="Helvetica,sans-Serif" font-size="10.00">uxn::patl::bit_comparator</text>
<text text-anchor="middle" x="168" y="-144" font-family="Helvetica,sans-Serif" font-size="10.00">&lt; piece&lt; T &gt; &gt;::bit_length</text>
</a>
</g>
</g>
<!-- Node1&#45;&gt;Node2 -->
<g id="edge1" class="edge">
<title>Node1&#45;&gt;Node2</title>
<path fill="none" stroke="midnightblue" d="M313.78,-94.14C299.27,-105.05 278.84,-119.04 259,-128 251.63,-131.33 243.71,-134.27 235.73,-136.86"/>
<polygon fill="midnightblue" stroke="midnightblue" points="316.21,-96.7 322,-87.83 311.94,-91.15 316.21,-96.7"/>
</g>
<!-- Node3 -->
<g id="node3" class="node">
<title>Node3</title>
<g id="a_node3"><a xlink:href="../../dc/de3/classuxn_1_1patl_1_1bit__comparator_3_01piece_3_01T_01_4_01_4.html#a6d0519eb9e9c102fe7632bd6880438e9" target="_top" xlink:title=" ">
<polygon fill="none" stroke="black" points="84.5,-88 84.5,-118 251.5,-118 251.5,-88 84.5,-88"/>
<text text-anchor="start" x="92.5" y="-106" font-family="Helvetica,sans-Serif" font-size="10.00">uxn::patl::bit_comparator</text>
<text text-anchor="middle" x="168" y="-95" font-family="Helvetica,sans-Serif" font-size="10.00">&lt; piece&lt; T &gt; &gt;::bit_mismatch</text>
</a>
</g>
</g>
<!-- Node1&#45;&gt;Node3 -->
<g id="edge2" class="edge">
<title>Node1&#45;&gt;Node3</title>
<path fill="none" stroke="midnightblue" d="M284.76,-85.46C274.3,-87.05 262.99,-88.76 251.67,-90.47"/>
<polygon fill="midnightblue" stroke="midnightblue" points="285.53,-88.88 294.9,-83.92 284.49,-81.96 285.53,-88.88"/>
</g>
<!-- Node4 -->
<g id="node4" class="node">
<title>Node4</title>
<g id="a_node4"><a xlink:href="../../dc/de3/classuxn_1_1patl_1_1bit__comparator_3_01piece_3_01T_01_4_01_4.html#a153a457895550e8c2be7a7a9118e043c" target="_top" xlink:title=" ">
<polygon fill="none" stroke="black" points="77,-39 77,-69 259,-69 259,-39 77,-39"/>
<text text-anchor="start" x="85" y="-57" font-family="Helvetica,sans-Serif" font-size="10.00">uxn::patl::bit_comparator</text>
<text text-anchor="middle" x="168" y="-46" font-family="Helvetica,sans-Serif" font-size="10.00">&lt; piece&lt; T &gt; &gt;::mismatch_intern</text>
</a>
</g>
</g>
<!-- Node1&#45;&gt;Node4 -->
<g id="edge3" class="edge">
<title>Node1&#45;&gt;Node4</title>
<path fill="none" stroke="midnightblue" d="M284.88,-70.86C276.73,-69.67 268.05,-68.41 259.26,-67.13"/>
<polygon fill="midnightblue" stroke="midnightblue" points="284.5,-74.34 294.9,-72.31 285.51,-67.41 284.5,-74.34"/>
</g>
<!-- Node5 -->
<g id="node5" class="node">
<title>Node5</title>
<g id="a_node5"><a xlink:href="../../da/d22/sort__lin_8cpp.html#a2f51d3a4cc778d255bd27a465be2986b" target="_top" xlink:title=" ">
<polygon fill="none" stroke="black" points="113,-0.5 113,-19.5 223,-19.5 223,-0.5 113,-0.5"/>
<text text-anchor="middle" x="168" y="-7.5" font-family="Helvetica,sans-Serif" font-size="10.00">sort_huge_text_file</text>
</a>
</g>
</g>
<!-- Node1&#45;&gt;Node5 -->
<g id="edge4" class="edge">
<title>Node1&#45;&gt;Node5</title>
<path fill="none" stroke="midnightblue" d="M313.79,-62.28C299.28,-51.72 278.86,-38.26 259,-30 247.77,-25.33 235.27,-21.67 223.25,-18.83"/>
<polygon fill="midnightblue" stroke="midnightblue" points="311.9,-65.24 322.01,-68.42 316.09,-59.63 311.9,-65.24"/>
</g>
<!-- Node6 -->
<g id="node6" class="node">
<title>Node6</title>
<g id="a_node6"><a xlink:href="../../da/d22/sort__lin_8cpp.html#a0ddf1224851353fc92bfbff6f499fa97" target="_top" xlink:title=" ">
<polygon fill="none" stroke="black" points="0,-0.5 0,-19.5 41,-19.5 41,-0.5 0,-0.5"/>
<text text-anchor="middle" x="20.5" y="-7.5" font-family="Helvetica,sans-Serif" font-size="10.00">main</text>
</a>
</g>
</g>
<!-- Node5&#45;&gt;Node6 -->
<g id="edge5" class="edge">
<title>Node5&#45;&gt;Node6</title>
<path fill="none" stroke="midnightblue" d="M102.71,-10C80.46,-10 57.14,-10 41.23,-10"/>
<polygon fill="midnightblue" stroke="midnightblue" points="102.82,-13.5 112.82,-10 102.82,-6.5 102.82,-13.5"/>
</g>
</g>
</svg>
