<?xml version="1.0" encoding="UTF-8" standalone="no"?>
<!DOCTYPE svg PUBLIC "-//W3C//DTD SVG 1.1//EN"
 "http://www.w3.org/Graphics/SVG/1.1/DTD/svg11.dtd">
<!-- Generated by graphviz version 5.0.1 (20220820.1526)
 -->
<!-- Title: uxn::patl::impl::suffix_generic&lt; T &gt; Pages: 1 -->
<svg width="512pt" height="1526pt"
 viewBox="0.00 0.00 511.64 1526.00" xmlns="http://www.w3.org/2000/svg" xmlns:xlink="http://www.w3.org/1999/xlink">
<g id="graph0" class="graph" transform="scale(1 1) rotate(0) translate(4 1522)">
<title>uxn::patl::impl::suffix_generic&lt; T &gt;</title>
<!-- Node1 -->
<g id="node1" class="node">
<title>Node1</title>
<g id="a_node1"><a xlink:title=" ">
<polygon fill="#bfbfbf" stroke="black" points="183.64,-0.5 183.64,-453.5 343.64,-453.5 343.64,-0.5 183.64,-0.5"/>
<text text-anchor="start" x="191.64" y="-441.5" font-family="Helvetica,sans-Serif" font-size="10.00">uxn::patl::impl::suffix</text>
<text text-anchor="middle" x="263.64" y="-430.5" font-family="Helvetica,sans-Serif" font-size="10.00">_generic&lt; T &gt;</text>
<polyline fill="none" stroke="black" points="183.64,-423.5 343.64,-423.5"/>
<text text-anchor="start" x="191.64" y="-411.5" font-family="Helvetica,sans-Serif" font-size="10.00">+ static const word_t N_</text>
<text text-anchor="start" x="191.64" y="-400.5" font-family="Helvetica,sans-Serif" font-size="10.00">+ static const word_t</text>
<text text-anchor="start" x="191.64" y="-389.5" font-family="Helvetica,sans-Serif" font-size="10.00"> delta</text>
<text text-anchor="start" x="191.64" y="-378.5" font-family="Helvetica,sans-Serif" font-size="10.00">+ static const word_t</text>
<text text-anchor="start" x="191.64" y="-367.5" font-family="Helvetica,sans-Serif" font-size="10.00"> bit_size</text>
<text text-anchor="start" x="191.64" y="-356.5" font-family="Helvetica,sans-Serif" font-size="10.00"># key_type keys_</text>
<polyline fill="none" stroke="black" points="183.64,-349.5 343.64,-349.5"/>
<text text-anchor="start" x="191.64" y="-337.5" font-family="Helvetica,sans-Serif" font-size="10.00">+ const_key_reference</text>
<text text-anchor="start" x="191.64" y="-326.5" font-family="Helvetica,sans-Serif" font-size="10.00"> get_key(const node</text>
<text text-anchor="start" x="191.64" y="-315.5" font-family="Helvetica,sans-Serif" font-size="10.00">_type *node) const</text>
<text text-anchor="start" x="191.64" y="-304.5" font-family="Helvetica,sans-Serif" font-size="10.00">+ suffix_generic(key</text>
<text text-anchor="start" x="191.64" y="-293.5" font-family="Helvetica,sans-Serif" font-size="10.00">_type keys, size_type</text>
<text text-anchor="start" x="191.64" y="-282.5" font-family="Helvetica,sans-Serif" font-size="10.00"> size, const bit_compare</text>
<text text-anchor="start" x="191.64" y="-271.5" font-family="Helvetica,sans-Serif" font-size="10.00"> &amp;bit_comp, const allocator</text>
<text text-anchor="start" x="191.64" y="-260.5" font-family="Helvetica,sans-Serif" font-size="10.00">_type &amp;alloc)</text>
<text text-anchor="start" x="191.64" y="-249.5" font-family="Helvetica,sans-Serif" font-size="10.00">+ size_type size() const</text>
<text text-anchor="start" x="191.64" y="-238.5" font-family="Helvetica,sans-Serif" font-size="10.00">+ size_type capacity</text>
<text text-anchor="start" x="191.64" y="-227.5" font-family="Helvetica,sans-Serif" font-size="10.00">() const</text>
<text text-anchor="start" x="191.64" y="-216.5" font-family="Helvetica,sans-Serif" font-size="10.00">+ const key_type keys</text>
<text text-anchor="start" x="191.64" y="-205.5" font-family="Helvetica,sans-Serif" font-size="10.00">() const</text>
<text text-anchor="start" x="191.64" y="-194.5" font-family="Helvetica,sans-Serif" font-size="10.00">+ void rebind(const key</text>
<text text-anchor="start" x="191.64" y="-183.5" font-family="Helvetica,sans-Serif" font-size="10.00">_type keys)</text>
<text text-anchor="start" x="191.64" y="-172.5" font-family="Helvetica,sans-Serif" font-size="10.00">+ word_t vertex_index</text>
<text text-anchor="start" x="191.64" y="-161.5" font-family="Helvetica,sans-Serif" font-size="10.00">_of(const const_vertex</text>
<text text-anchor="start" x="191.64" y="-150.5" font-family="Helvetica,sans-Serif" font-size="10.00"> &amp;vtx) const</text>
<text text-anchor="start" x="191.64" y="-139.5" font-family="Helvetica,sans-Serif" font-size="10.00">+ word_t index_of(const</text>
<text text-anchor="start" x="191.64" y="-128.5" font-family="Helvetica,sans-Serif" font-size="10.00"> const_vertex &amp;vtx) const</text>
<text text-anchor="start" x="191.64" y="-117.5" font-family="Helvetica,sans-Serif" font-size="10.00">+ word_t index_of(const</text>
<text text-anchor="start" x="191.64" y="-106.5" font-family="Helvetica,sans-Serif" font-size="10.00"> prefix &amp;pref) const</text>
<text text-anchor="start" x="191.64" y="-95.5" font-family="Helvetica,sans-Serif" font-size="10.00">+ prefix prefix_by(word</text>
<text text-anchor="start" x="191.64" y="-84.5" font-family="Helvetica,sans-Serif" font-size="10.00">_t id) const</text>
<text text-anchor="start" x="191.64" y="-73.5" font-family="Helvetica,sans-Serif" font-size="10.00">and 7 more...</text>
<text text-anchor="start" x="191.64" y="-62.5" font-family="Helvetica,sans-Serif" font-size="10.00"># vertex push_back_generic</text>
<text text-anchor="start" x="191.64" y="-51.5" font-family="Helvetica,sans-Serif" font-size="10.00">(const node_type &amp;init_node)</text>
<text text-anchor="start" x="191.64" y="-40.5" font-family="Helvetica,sans-Serif" font-size="10.00"># vertex push_back_root</text>
<text text-anchor="start" x="191.64" y="-29.5" font-family="Helvetica,sans-Serif" font-size="10.00">(const node_type &amp;init_node)</text>
<text text-anchor="start" x="191.64" y="-18.5" font-family="Helvetica,sans-Serif" font-size="10.00"># void erase_node(algorithm</text>
<text text-anchor="start" x="191.64" y="-7.5" font-family="Helvetica,sans-Serif" font-size="10.00"> &amp;pal)</text>
</a>
</g>
</g>
<!-- Node2 -->
<g id="node2" class="node">
<title>Node2</title>
<g id="a_node2"><a xlink:href="../../d2/da4/classuxn_1_1patl_1_1impl_1_1assoc__generic.html" target="_top" xlink:title=" ">
<polygon fill="none" stroke="black" points="100.64,-567.5 100.64,-745.5 250.64,-745.5 250.64,-567.5 100.64,-567.5"/>
<text text-anchor="start" x="108.64" y="-733.5" font-family="Helvetica,sans-Serif" font-size="10.00">uxn::patl::impl::assoc</text>
<text text-anchor="start" x="108.64" y="-722.5" font-family="Helvetica,sans-Serif" font-size="10.00">_generic&lt; suffix_generic</text>
<text text-anchor="start" x="108.64" y="-711.5" font-family="Helvetica,sans-Serif" font-size="10.00">&lt; T &gt;, suffix_generic_traits</text>
<text text-anchor="start" x="108.64" y="-700.5" font-family="Helvetica,sans-Serif" font-size="10.00">&lt; T, algorithm_gen_suffix,</text>
<text text-anchor="start" x="108.64" y="-689.5" font-family="Helvetica,sans-Serif" font-size="10.00"> core_prefix_generic, suffix</text>
<text text-anchor="middle" x="175.64" y="-678.5" font-family="Helvetica,sans-Serif" font-size="10.00">_generic&lt; T &gt; &gt;, T::N_ &gt;</text>
<polyline fill="none" stroke="black" points="100.64,-671.5 250.64,-671.5"/>
<text text-anchor="start" x="108.64" y="-659.5" font-family="Helvetica,sans-Serif" font-size="10.00">+ static const word_t N_</text>
<polyline fill="none" stroke="black" points="100.64,-652.5 250.64,-652.5"/>
<text text-anchor="start" x="108.64" y="-640.5" font-family="Helvetica,sans-Serif" font-size="10.00">+ assoc_generic()</text>
<text text-anchor="start" x="108.64" y="-629.5" font-family="Helvetica,sans-Serif" font-size="10.00">+ assoc_generic(const</text>
<text text-anchor="start" x="108.64" y="-618.5" font-family="Helvetica,sans-Serif" font-size="10.00"> bit_compare &amp;bit_comp)</text>
<text text-anchor="start" x="108.64" y="-607.5" font-family="Helvetica,sans-Serif" font-size="10.00"># word_t * get_shortcut</text>
<text text-anchor="start" x="108.64" y="-596.5" font-family="Helvetica,sans-Serif" font-size="10.00">(word_t a) const</text>
<text text-anchor="start" x="108.64" y="-585.5" font-family="Helvetica,sans-Serif" font-size="10.00"># word_t * create_shortcut</text>
<text text-anchor="start" x="108.64" y="-574.5" font-family="Helvetica,sans-Serif" font-size="10.00">(word_t a)</text>
</a>
</g>
</g>
<!-- Node2&#45;&gt;Node1 -->
<g id="edge1" class="edge">
<title>Node2&#45;&gt;Node1</title>
<path fill="none" stroke="midnightblue" d="M195.82,-557.45C202.26,-526.16 209.68,-490.14 217.19,-453.65"/>
<polygon fill="none" stroke="midnightblue" points="192.35,-556.94 193.76,-567.44 199.21,-558.35 192.35,-556.94"/>
</g>
<!-- Node3 -->
<g id="node3" class="node">
<title>Node3</title>
<g id="a_node3"><a xlink:title=" ">
<polygon fill="none" stroke="black" points="109.64,-1228.5 109.64,-1307.5 243.64,-1307.5 243.64,-1228.5 109.64,-1228.5"/>
<text text-anchor="start" x="117.64" y="-1295.5" font-family="Helvetica,sans-Serif" font-size="10.00">std::map&lt; word_t, word</text>
<text text-anchor="middle" x="176.64" y="-1284.5" font-family="Helvetica,sans-Serif" font-size="10.00">_t * &gt;</text>
<polyline fill="none" stroke="black" points="109.64,-1277.5 243.64,-1277.5"/>
<text text-anchor="start" x="117.64" y="-1265.5" font-family="Helvetica,sans-Serif" font-size="10.00">+ word_t keys</text>
<text text-anchor="start" x="117.64" y="-1254.5" font-family="Helvetica,sans-Serif" font-size="10.00">+ word_t * elements</text>
<polyline fill="none" stroke="black" points="109.64,-1247.5 243.64,-1247.5"/>
<text text-anchor="middle" x="176.64" y="-1235.5" font-family="Helvetica,sans-Serif" font-size="10.00"> </text>
</a>
</g>
</g>
<!-- Node3&#45;&gt;Node2 -->
<g id="edge2" class="edge">
<title>Node3&#45;&gt;Node2</title>
<path fill="none" stroke="#404040" d="M109.39,-1243.28C81.35,-1229.67 51.64,-1209.5 35.64,-1181 -24.85,-1073.26 3.98,-1022.43 35.64,-903 49.4,-851.08 76.99,-798.67 104.07,-755.69"/>
<polygon fill="none" stroke="#404040" points="104.1,-755.64 103.96,-748.43 110.57,-745.53 110.7,-752.74 104.1,-755.64"/>
<text text-anchor="middle" x="64.64" y="-1039.5" font-family="Helvetica,sans-Serif" font-size="10.00"> &#45;shortcuts_</text>
</g>
<!-- Node7 -->
<g id="node7" class="node">
<title>Node7</title>
<g id="a_node7"><a xlink:href="../../d2/da4/classuxn_1_1patl_1_1impl_1_1assoc__generic.html" target="_top" xlink:title=" ">
<polygon fill="none" stroke="black" points="102.64,-975 102.64,-1109 250.64,-1109 250.64,-975 102.64,-975"/>
<text text-anchor="start" x="110.64" y="-1097" font-family="Helvetica,sans-Serif" font-size="10.00">uxn::patl::impl::assoc</text>
<text text-anchor="middle" x="176.64" y="-1086" font-family="Helvetica,sans-Serif" font-size="10.00">_generic&lt; This, T, N &gt;</text>
<polyline fill="none" stroke="black" points="102.64,-1079 250.64,-1079"/>
<text text-anchor="start" x="110.64" y="-1067" font-family="Helvetica,sans-Serif" font-size="10.00">+ static const word_t N_</text>
<polyline fill="none" stroke="black" points="102.64,-1060 250.64,-1060"/>
<text text-anchor="start" x="110.64" y="-1048" font-family="Helvetica,sans-Serif" font-size="10.00">+ assoc_generic()</text>
<text text-anchor="start" x="110.64" y="-1037" font-family="Helvetica,sans-Serif" font-size="10.00">+ assoc_generic(const</text>
<text text-anchor="start" x="110.64" y="-1026" font-family="Helvetica,sans-Serif" font-size="10.00"> bit_compare &amp;bit_comp)</text>
<text text-anchor="start" x="110.64" y="-1015" font-family="Helvetica,sans-Serif" font-size="10.00"># word_t * get_shortcut</text>
<text text-anchor="start" x="110.64" y="-1004" font-family="Helvetica,sans-Serif" font-size="10.00">(word_t a) const</text>
<text text-anchor="start" x="110.64" y="-993" font-family="Helvetica,sans-Serif" font-size="10.00"># word_t * create_shortcut</text>
<text text-anchor="start" x="110.64" y="-982" font-family="Helvetica,sans-Serif" font-size="10.00">(word_t a)</text>
</a>
</g>
</g>
<!-- Node3&#45;&gt;Node7 -->
<g id="edge7" class="edge">
<title>Node3&#45;&gt;Node7</title>
<path fill="none" stroke="#404040" d="M176.64,-1228.49C176.64,-1199.05 176.64,-1157.47 176.64,-1121.14"/>
<polygon fill="none" stroke="#404040" points="176.64,-1121.05 172.64,-1115.05 176.64,-1109.05 180.64,-1115.05 176.64,-1121.05"/>
<text text-anchor="middle" x="205.64" y="-1202" font-family="Helvetica,sans-Serif" font-size="10.00"> &#45;shortcuts_</text>
</g>
<!-- Node4 -->
<g id="node4" class="node">
<title>Node4</title>
<g id="a_node4"><a xlink:title=" ">
<polygon fill="none" stroke="black" points="133.14,-1355.5 133.14,-1412.5 234.14,-1412.5 234.14,-1355.5 133.14,-1355.5"/>
<text text-anchor="middle" x="183.64" y="-1400.5" font-family="Helvetica,sans-Serif" font-size="10.00">std::map&lt; K, T &gt;</text>
<polyline fill="none" stroke="black" points="133.14,-1393.5 234.14,-1393.5"/>
<text text-anchor="middle" x="183.64" y="-1381.5" font-family="Helvetica,sans-Serif" font-size="10.00"> </text>
<polyline fill="none" stroke="black" points="133.14,-1374.5 234.14,-1374.5"/>
<text text-anchor="middle" x="183.64" y="-1362.5" font-family="Helvetica,sans-Serif" font-size="10.00"> </text>
</a>
</g>
</g>
<!-- Node4&#45;&gt;Node3 -->
<g id="edge3" class="edge">
<title>Node4&#45;&gt;Node3</title>
<path fill="none" stroke="orange" d="M181.31,-1345.18C180.57,-1333.08 179.75,-1319.68 179,-1307.54"/>
<polygon fill="orange" stroke="orange" points="177.84,-1345.64 181.94,-1355.4 184.82,-1345.21 177.84,-1345.64"/>
<text text-anchor="middle" x="234.64" y="-1329" font-family="Helvetica,sans-Serif" font-size="10.00"> &lt; word_t, word_t * &gt;</text>
</g>
<!-- Node5 -->
<g id="node5" class="node">
<title>Node5</title>
<g id="a_node5"><a xlink:title=" ">
<polygon fill="none" stroke="black" points="169.14,-1460.5 169.14,-1517.5 198.14,-1517.5 198.14,-1460.5 169.14,-1460.5"/>
<text text-anchor="middle" x="183.64" y="-1505.5" font-family="Helvetica,sans-Serif" font-size="10.00">K</text>
<polyline fill="none" stroke="black" points="169.14,-1498.5 198.14,-1498.5"/>
<text text-anchor="middle" x="183.64" y="-1486.5" font-family="Helvetica,sans-Serif" font-size="10.00"> </text>
<polyline fill="none" stroke="black" points="169.14,-1479.5 198.14,-1479.5"/>
<text text-anchor="middle" x="183.64" y="-1467.5" font-family="Helvetica,sans-Serif" font-size="10.00"> </text>
</a>
</g>
</g>
<!-- Node5&#45;&gt;Node4 -->
<g id="edge4" class="edge">
<title>Node5&#45;&gt;Node4</title>
<path fill="none" stroke="#404040" d="M183.64,-1460.4C183.64,-1449.55 183.64,-1436.87 183.64,-1425.05"/>
<polygon fill="none" stroke="#404040" points="183.64,-1424.68 179.64,-1418.68 183.64,-1412.68 187.64,-1418.68 183.64,-1424.68"/>
<text text-anchor="middle" x="200.64" y="-1434" font-family="Helvetica,sans-Serif" font-size="10.00"> +keys</text>
</g>
<!-- Node6 -->
<g id="node6" class="node">
<title>Node6</title>
<g id="a_node6"><a xlink:title=" ">
<polygon fill="none" stroke="black" points="268.14,-1460.5 268.14,-1517.5 297.14,-1517.5 297.14,-1460.5 268.14,-1460.5"/>
<text text-anchor="middle" x="282.64" y="-1505.5" font-family="Helvetica,sans-Serif" font-size="10.00">T</text>
<polyline fill="none" stroke="black" points="268.14,-1498.5 297.14,-1498.5"/>
<text text-anchor="middle" x="282.64" y="-1486.5" font-family="Helvetica,sans-Serif" font-size="10.00"> </text>
<polyline fill="none" stroke="black" points="268.14,-1479.5 297.14,-1479.5"/>
<text text-anchor="middle" x="282.64" y="-1467.5" font-family="Helvetica,sans-Serif" font-size="10.00"> </text>
</a>
</g>
</g>
<!-- Node6&#45;&gt;Node4 -->
<g id="edge5" class="edge">
<title>Node6&#45;&gt;Node4</title>
<path fill="none" stroke="#404040" d="M268.03,-1472.8C255.11,-1459.36 235.75,-1439.22 218.82,-1421.61"/>
<polygon fill="none" stroke="#404040" points="218.56,-1421.33 211.52,-1419.78 210.24,-1412.68 217.29,-1414.24 218.56,-1421.33"/>
<text text-anchor="middle" x="265.64" y="-1434" font-family="Helvetica,sans-Serif" font-size="10.00"> +elements</text>
</g>
<!-- Node11 -->
<g id="node11" class="node">
<title>Node11</title>
<g id="a_node11"><a xlink:title=" ">
<polygon fill="none" stroke="black" points="276.14,-1355.5 276.14,-1412.5 385.14,-1412.5 385.14,-1355.5 276.14,-1355.5"/>
<text text-anchor="middle" x="330.64" y="-1400.5" font-family="Helvetica,sans-Serif" font-size="10.00">std::allocator&lt; T &gt;</text>
<polyline fill="none" stroke="black" points="276.14,-1393.5 385.14,-1393.5"/>
<text text-anchor="middle" x="330.64" y="-1381.5" font-family="Helvetica,sans-Serif" font-size="10.00"> </text>
<polyline fill="none" stroke="black" points="276.14,-1374.5 385.14,-1374.5"/>
<text text-anchor="middle" x="330.64" y="-1362.5" font-family="Helvetica,sans-Serif" font-size="10.00"> </text>
</a>
</g>
</g>
<!-- Node6&#45;&gt;Node11 -->
<g id="edge12" class="edge">
<title>Node6&#45;&gt;Node11</title>
<path fill="none" stroke="#404040" d="M295.5,-1460.4C300.72,-1449.2 306.84,-1436.06 312.5,-1423.92"/>
<polygon fill="none" stroke="#404040" points="312.67,-1423.56 311.58,-1416.43 317.74,-1412.68 318.83,-1419.81 312.67,-1423.56"/>
<text text-anchor="middle" x="336.64" y="-1434" font-family="Helvetica,sans-Serif" font-size="10.00"> +elements</text>
</g>
<!-- Node7&#45;&gt;Node2 -->
<g id="edge6" class="edge">
<title>Node7&#45;&gt;Node2</title>
<path fill="none" stroke="orange" d="M176.44,-964.35C176.27,-901.25 176.04,-811.75 175.87,-745.68"/>
<polygon fill="orange" stroke="orange" points="172.94,-964.65 176.46,-974.64 179.94,-964.63 172.94,-964.65"/>
<text text-anchor="start" x="176.64" y="-877" font-family="Helvetica,sans-Serif" font-size="10.00"> &lt; suffix_generic&lt; T</text>
<text text-anchor="start" x="176.64" y="-866" font-family="Helvetica,sans-Serif" font-size="10.00"> &gt;, suffix_generic_traits</text>
<text text-anchor="start" x="176.64" y="-855" font-family="Helvetica,sans-Serif" font-size="10.00">&lt; T, algorithm_gen_suffix,</text>
<text text-anchor="start" x="176.64" y="-844" font-family="Helvetica,sans-Serif" font-size="10.00"> core_prefix_generic, suffix</text>
<text text-anchor="middle" x="242.64" y="-833" font-family="Helvetica,sans-Serif" font-size="10.00">_generic&lt; T &gt; &gt;, T::N_ &gt;</text>
</g>
<!-- Node8 -->
<g id="node8" class="node">
<title>Node8</title>
<g id="a_node8"><a xlink:href="../../d7/ddc/classuxn_1_1patl_1_1impl_1_1ring__buffer.html" target="_top" xlink:title=" ">
<polygon fill="none" stroke="black" points="268.64,-501.5 268.64,-811.5 436.64,-811.5 436.64,-501.5 268.64,-501.5"/>
<text text-anchor="start" x="276.64" y="-799.5" font-family="Helvetica,sans-Serif" font-size="10.00">uxn::patl::impl::ring</text>
<text text-anchor="start" x="276.64" y="-788.5" font-family="Helvetica,sans-Serif" font-size="10.00">_buffer&lt; node_type, typename</text>
<text text-anchor="start" x="276.64" y="-777.5" font-family="Helvetica,sans-Serif" font-size="10.00"> allocator_type::template</text>
<text text-anchor="middle" x="352.64" y="-766.5" font-family="Helvetica,sans-Serif" font-size="10.00"> rebind&lt; node_type &gt;::other &gt;</text>
<polyline fill="none" stroke="black" points="268.64,-759.5 436.64,-759.5"/>
<text text-anchor="start" x="276.64" y="-747.5" font-family="Helvetica,sans-Serif" font-size="10.00">&#45; allocator_type alloc_</text>
<text text-anchor="start" x="276.64" y="-736.5" font-family="Helvetica,sans-Serif" font-size="10.00">&#45; pointer head_</text>
<text text-anchor="start" x="276.64" y="-725.5" font-family="Helvetica,sans-Serif" font-size="10.00">&#45; pointer tail_</text>
<text text-anchor="start" x="276.64" y="-714.5" font-family="Helvetica,sans-Serif" font-size="10.00">&#45; pointer begin_</text>
<text text-anchor="start" x="276.64" y="-703.5" font-family="Helvetica,sans-Serif" font-size="10.00">&#45; pointer end_</text>
<text text-anchor="start" x="276.64" y="-692.5" font-family="Helvetica,sans-Serif" font-size="10.00">&#45; size_type size_</text>
<polyline fill="none" stroke="black" points="268.64,-685.5 436.64,-685.5"/>
<text text-anchor="start" x="276.64" y="-673.5" font-family="Helvetica,sans-Serif" font-size="10.00">+ ring_buffer(size_type</text>
<text text-anchor="start" x="276.64" y="-662.5" font-family="Helvetica,sans-Serif" font-size="10.00"> initSize, const allocator</text>
<text text-anchor="start" x="276.64" y="-651.5" font-family="Helvetica,sans-Serif" font-size="10.00">_type &amp;alloc=allocator_type())</text>
<text text-anchor="start" x="276.64" y="-640.5" font-family="Helvetica,sans-Serif" font-size="10.00">+ ~ring_buffer()</text>
<text text-anchor="start" x="276.64" y="-629.5" font-family="Helvetica,sans-Serif" font-size="10.00">+ void clear()</text>
<text text-anchor="start" x="276.64" y="-618.5" font-family="Helvetica,sans-Serif" font-size="10.00">+ bool empty() const</text>
<text text-anchor="start" x="276.64" y="-607.5" font-family="Helvetica,sans-Serif" font-size="10.00">+ bool endpoint() const</text>
<text text-anchor="start" x="276.64" y="-596.5" font-family="Helvetica,sans-Serif" font-size="10.00">+ size_type size() const</text>
<text text-anchor="start" x="276.64" y="-585.5" font-family="Helvetica,sans-Serif" font-size="10.00">+ size_type capacity</text>
<text text-anchor="start" x="276.64" y="-574.5" font-family="Helvetica,sans-Serif" font-size="10.00">() const</text>
<text text-anchor="start" x="276.64" y="-563.5" font-family="Helvetica,sans-Serif" font-size="10.00">+ void push_back(const</text>
<text text-anchor="start" x="276.64" y="-552.5" font-family="Helvetica,sans-Serif" font-size="10.00">_reference value)</text>
<text text-anchor="start" x="276.64" y="-541.5" font-family="Helvetica,sans-Serif" font-size="10.00">+ void pop_front()</text>
<text text-anchor="start" x="276.64" y="-530.5" font-family="Helvetica,sans-Serif" font-size="10.00">+ void push_front(const</text>
<text text-anchor="start" x="276.64" y="-519.5" font-family="Helvetica,sans-Serif" font-size="10.00">_reference value)</text>
<text text-anchor="start" x="276.64" y="-508.5" font-family="Helvetica,sans-Serif" font-size="10.00">and 13 more...</text>
</a>
</g>
</g>
<!-- Node8&#45;&gt;Node1 -->
<g id="edge8" class="edge">
<title>Node8&#45;&gt;Node1</title>
<path fill="none" stroke="#404040" d="M320.57,-501.46C318.14,-489.8 315.66,-477.88 313.15,-465.85"/>
<polygon fill="none" stroke="#404040" points="313.09,-465.55 307.95,-460.49 310.64,-453.8 315.78,-458.86 313.09,-465.55"/>
<text text-anchor="middle" x="332.64" y="-475" font-family="Helvetica,sans-Serif" font-size="10.00"> #trie_</text>
</g>
<!-- Node9 -->
<g id="node9" class="node">
<title>Node9</title>
<g id="a_node9"><a xlink:href="../../d7/ddc/classuxn_1_1patl_1_1impl_1_1ring__buffer.html" target="_top" xlink:title=" ">
<polygon fill="none" stroke="black" points="269.14,-903.5 269.14,-1180.5 436.14,-1180.5 436.14,-903.5 269.14,-903.5"/>
<text text-anchor="start" x="277.14" y="-1168.5" font-family="Helvetica,sans-Serif" font-size="10.00">uxn::patl::impl::ring</text>
<text text-anchor="middle" x="352.64" y="-1157.5" font-family="Helvetica,sans-Serif" font-size="10.00">_buffer&lt; Type, Allocator &gt;</text>
<polyline fill="none" stroke="black" points="269.14,-1150.5 436.14,-1150.5"/>
<text text-anchor="start" x="277.14" y="-1138.5" font-family="Helvetica,sans-Serif" font-size="10.00">&#45; pointer head_</text>
<text text-anchor="start" x="277.14" y="-1127.5" font-family="Helvetica,sans-Serif" font-size="10.00">&#45; pointer tail_</text>
<text text-anchor="start" x="277.14" y="-1116.5" font-family="Helvetica,sans-Serif" font-size="10.00">&#45; pointer begin_</text>
<text text-anchor="start" x="277.14" y="-1105.5" font-family="Helvetica,sans-Serif" font-size="10.00">&#45; pointer end_</text>
<text text-anchor="start" x="277.14" y="-1094.5" font-family="Helvetica,sans-Serif" font-size="10.00">&#45; size_type size_</text>
<polyline fill="none" stroke="black" points="269.14,-1087.5 436.14,-1087.5"/>
<text text-anchor="start" x="277.14" y="-1075.5" font-family="Helvetica,sans-Serif" font-size="10.00">+ ring_buffer(size_type</text>
<text text-anchor="start" x="277.14" y="-1064.5" font-family="Helvetica,sans-Serif" font-size="10.00"> initSize, const allocator</text>
<text text-anchor="start" x="277.14" y="-1053.5" font-family="Helvetica,sans-Serif" font-size="10.00">_type &amp;alloc=allocator_type())</text>
<text text-anchor="start" x="277.14" y="-1042.5" font-family="Helvetica,sans-Serif" font-size="10.00">+ ~ring_buffer()</text>
<text text-anchor="start" x="277.14" y="-1031.5" font-family="Helvetica,sans-Serif" font-size="10.00">+ void clear()</text>
<text text-anchor="start" x="277.14" y="-1020.5" font-family="Helvetica,sans-Serif" font-size="10.00">+ bool empty() const</text>
<text text-anchor="start" x="277.14" y="-1009.5" font-family="Helvetica,sans-Serif" font-size="10.00">+ bool endpoint() const</text>
<text text-anchor="start" x="277.14" y="-998.5" font-family="Helvetica,sans-Serif" font-size="10.00">+ size_type size() const</text>
<text text-anchor="start" x="277.14" y="-987.5" font-family="Helvetica,sans-Serif" font-size="10.00">+ size_type capacity</text>
<text text-anchor="start" x="277.14" y="-976.5" font-family="Helvetica,sans-Serif" font-size="10.00">() const</text>
<text text-anchor="start" x="277.14" y="-965.5" font-family="Helvetica,sans-Serif" font-size="10.00">+ void push_back(const</text>
<text text-anchor="start" x="277.14" y="-954.5" font-family="Helvetica,sans-Serif" font-size="10.00">_reference value)</text>
<text text-anchor="start" x="277.14" y="-943.5" font-family="Helvetica,sans-Serif" font-size="10.00">+ void pop_front()</text>
<text text-anchor="start" x="277.14" y="-932.5" font-family="Helvetica,sans-Serif" font-size="10.00">+ void push_front(const</text>
<text text-anchor="start" x="277.14" y="-921.5" font-family="Helvetica,sans-Serif" font-size="10.00">_reference value)</text>
<text text-anchor="start" x="277.14" y="-910.5" font-family="Helvetica,sans-Serif" font-size="10.00">and 13 more...</text>
</a>
</g>
</g>
<!-- Node9&#45;&gt;Node8 -->
<g id="edge9" class="edge">
<title>Node9&#45;&gt;Node8</title>
<path fill="none" stroke="orange" d="M352.64,-893.18C352.64,-866.45 352.64,-838.52 352.64,-811.62"/>
<polygon fill="orange" stroke="orange" points="349.14,-893.36 352.64,-903.36 356.14,-893.36 349.14,-893.36"/>
<text text-anchor="start" x="352.64" y="-866" font-family="Helvetica,sans-Serif" font-size="10.00"> &lt; node_type, typename</text>
<text text-anchor="start" x="352.64" y="-855" font-family="Helvetica,sans-Serif" font-size="10.00"> allocator_type::template</text>
<text text-anchor="middle" x="428.14" y="-844" font-family="Helvetica,sans-Serif" font-size="10.00"> rebind&lt; node_type &gt;::other &gt;</text>
</g>
<!-- Node10 -->
<g id="node10" class="node">
<title>Node10</title>
<g id="a_node10"><a xlink:title=" ">
<polygon fill="none" stroke="black" points="276.14,-1239.5 276.14,-1296.5 401.14,-1296.5 401.14,-1239.5 276.14,-1239.5"/>
<text text-anchor="middle" x="338.64" y="-1284.5" font-family="Helvetica,sans-Serif" font-size="10.00">std::allocator&lt; Type &gt;</text>
<polyline fill="none" stroke="black" points="276.14,-1277.5 401.14,-1277.5"/>
<text text-anchor="start" x="284.14" y="-1265.5" font-family="Helvetica,sans-Serif" font-size="10.00">+ Type elements</text>
<polyline fill="none" stroke="black" points="276.14,-1258.5 401.14,-1258.5"/>
<text text-anchor="middle" x="338.64" y="-1246.5" font-family="Helvetica,sans-Serif" font-size="10.00"> </text>
</a>
</g>
</g>
<!-- Node10&#45;&gt;Node9 -->
<g id="edge10" class="edge">
<title>Node10&#45;&gt;Node9</title>
<path fill="none" stroke="#404040" d="M340.38,-1239.08C341.18,-1226.35 342.19,-1210.2 343.28,-1192.65"/>
<polygon fill="none" stroke="#404040" points="343.29,-1192.6 339.67,-1186.36 344.03,-1180.62 347.65,-1186.86 343.29,-1192.6"/>
<text text-anchor="middle" x="360.64" y="-1202" font-family="Helvetica,sans-Serif" font-size="10.00"> &#45;alloc_</text>
</g>
<!-- Node11&#45;&gt;Node10 -->
<g id="edge11" class="edge">
<title>Node11&#45;&gt;Node10</title>
<path fill="none" stroke="orange" d="M333.28,-1345.36C334.39,-1329.5 335.66,-1311.35 336.69,-1296.74"/>
<polygon fill="orange" stroke="orange" points="329.78,-1345.18 332.57,-1355.4 336.76,-1345.67 329.78,-1345.18"/>
<text text-anchor="middle" x="359.14" y="-1329" font-family="Helvetica,sans-Serif" font-size="10.00"> &lt; Type &gt;</text>
</g>
</g>
</svg>
