<?xml version="1.0" encoding="UTF-8" standalone="no"?>
<!DOCTYPE svg PUBLIC "-//W3C//DTD SVG 1.1//EN"
 "http://www.w3.org/Graphics/SVG/1.1/DTD/svg11.dtd">
<!-- Generated by graphviz version 5.0.1 (20220820.1526)
 -->
<!-- Title: uxn::patl::patricia_dot_creator&lt; Cont, OutStream, Base &gt; Pages: 1 -->
<!--zoomable 807 -->
<svg id="main" version="1.1" xmlns="http://www.w3.org/2000/svg" xmlns:xlink="http://www.w3.org/1999/xlink" xml:space="preserve" onload="init(evt)">
<style type="text/css"><![CDATA[
.edge:hover path { stroke: red; }
.edge:hover polygon { stroke: red; fill: red; }
]]></style>
<script type="text/javascript"><![CDATA[
var edges = document.getElementsByTagName('g');
if (edges && edges.length) {
  for (var i=0;i<edges.length;i++) {
    if (edges[i].id.substr(0,4)=='edge') {
      edges[i].setAttribute('class','edge');
    }
  }
}
]]></script>
        <defs>
                <circle id="rim" cx="0" cy="0" r="7"/>
                <circle id="rim2" cx="0" cy="0" r="3.5"/>
                <g id="zoomPlus">
                        <use xlink:href="#rim" fill="#404040">
                                <set attributeName="fill" to="#808080" begin="zoomplus.mouseover" end="zoomplus.mouseout"/>
                        </use>
                        <path d="M-4,0h8M0,-4v8" fill="none" stroke="white" stroke-width="1.5" pointer-events="none"/>
                </g>
                <g id="zoomMin">
                        <use xlink:href="#rim" fill="#404040">
                                <set attributeName="fill" to="#808080" begin="zoomminus.mouseover" end="zoomminus.mouseout"/>
                        </use>
                        <path d="M-4,0h8" fill="none" stroke="white" stroke-width="1.5" pointer-events="none"/>
                </g>
                <g id="dirArrow">
                        <path fill="none" stroke="white" stroke-width="1.5" d="M0,-3.0v7 M-2.5,-0.5L0,-3.0L2.5,-0.5"/>
                </g>
               <g id="resetDef">
                       <use xlink:href="#rim2" fill="#404040">
                               <set attributeName="fill" to="#808080" begin="reset.mouseover" end="reset.mouseout"/>
                       </use>
               </g>
        </defs>

<script type="text/javascript">
var viewWidth = 345;
var viewHeight = 807;
var sectionId = 'dynsection-0';
</script>
<script xlink:href="../../svgpan.js"/>
<svg id="graph" class="graph">
<g id="viewport">
<title>uxn::patl::patricia_dot_creator&lt; Cont, OutStream, Base &gt;</title>
<!-- Node1 -->
<g id="node1" class="node">
<title>Node1</title>
<g id="a_node1"><a xlink:title=" ">
<polygon fill="#bfbfbf" stroke="black" points="65,-0.5 65,-277.5 223,-277.5 223,-0.5 65,-0.5"/>
<text text-anchor="start" x="73" y="-265.5" font-family="Helvetica,sans-Serif" font-size="10.00">uxn::patl::patricia</text>
<text text-anchor="start" x="73" y="-254.5" font-family="Helvetica,sans-Serif" font-size="10.00">_dot_creator&lt; Cont,</text>
<text text-anchor="middle" x="144" y="-243.5" font-family="Helvetica,sans-Serif" font-size="10.00"> OutStream, Base &gt;</text>
<polyline fill="none" stroke="black" points="65,-236.5 223,-236.5"/>
<text text-anchor="start" x="73" y="-224.5" font-family="Helvetica,sans-Serif" font-size="10.00">&#45; static const word_t</text>
<text text-anchor="start" x="73" y="-213.5" font-family="Helvetica,sans-Serif" font-size="10.00"> bit_size</text>
<polyline fill="none" stroke="black" points="65,-206.5 223,-206.5"/>
<text text-anchor="start" x="73" y="-194.5" font-family="Helvetica,sans-Serif" font-size="10.00">+ patricia_dot_creator</text>
<text text-anchor="start" x="73" y="-183.5" font-family="Helvetica,sans-Serif" font-size="10.00">(OutStream &amp;out=std::</text>
<text text-anchor="start" x="73" y="-172.5" font-family="Helvetica,sans-Serif" font-size="10.00">cout, const Base &amp;base</text>
<text text-anchor="start" x="73" y="-161.5" font-family="Helvetica,sans-Serif" font-size="10.00">=Base(), word_t dpi=96)</text>
<text text-anchor="start" x="73" y="-150.5" font-family="Helvetica,sans-Serif" font-size="10.00">+ ~patricia_dot_creator()</text>
<text text-anchor="start" x="73" y="-139.5" font-family="Helvetica,sans-Serif" font-size="10.00">+ void create(const const</text>
<text text-anchor="start" x="73" y="-128.5" font-family="Helvetica,sans-Serif" font-size="10.00">_vertex &amp;vtx, bool clustering</text>
<text text-anchor="start" x="73" y="-117.5" font-family="Helvetica,sans-Serif" font-size="10.00">=false) const</text>
<text text-anchor="start" x="73" y="-106.5" font-family="Helvetica,sans-Serif" font-size="10.00">&#45; patricia_dot_creator</text>
<text text-anchor="start" x="73" y="-95.5" font-family="Helvetica,sans-Serif" font-size="10.00"> &amp; operator=(const patricia</text>
<text text-anchor="start" x="73" y="-84.5" font-family="Helvetica,sans-Serif" font-size="10.00">_dot_creator &amp;)</text>
<text text-anchor="start" x="73" y="-73.5" font-family="Helvetica,sans-Serif" font-size="10.00">&#45; void out_node(const</text>
<text text-anchor="start" x="73" y="-62.5" font-family="Helvetica,sans-Serif" font-size="10.00"> const_vertex &amp;vtx) const</text>
<text text-anchor="start" x="73" y="-51.5" font-family="Helvetica,sans-Serif" font-size="10.00">&#45; void out_edge(const</text>
<text text-anchor="start" x="73" y="-40.5" font-family="Helvetica,sans-Serif" font-size="10.00"> const_vertex &amp;vtx) const</text>
<text text-anchor="start" x="73" y="-29.5" font-family="Helvetica,sans-Serif" font-size="10.00">&#45; void out_cluster(word</text>
<text text-anchor="start" x="73" y="-18.5" font-family="Helvetica,sans-Serif" font-size="10.00">_t &amp;n, const prefix &amp;root)</text>
<text text-anchor="start" x="73" y="-7.5" font-family="Helvetica,sans-Serif" font-size="10.00"> const</text>
</a>
</g>
</g>
<!-- Node2 -->
<g id="node2" class="node">
<title>Node2</title>
<g id="a_node2"><a xlink:title=" ">
<polygon fill="none" stroke="black" points="32,-358.5 32,-415.5 110,-415.5 110,-358.5 32,-358.5"/>
<text text-anchor="middle" x="71" y="-403.5" font-family="Helvetica,sans-Serif" font-size="10.00">std::ostream</text>
<polyline fill="none" stroke="black" points="32,-396.5 110,-396.5"/>
<text text-anchor="middle" x="71" y="-384.5" font-family="Helvetica,sans-Serif" font-size="10.00"> </text>
<polyline fill="none" stroke="black" points="32,-377.5 110,-377.5"/>
<text text-anchor="middle" x="71" y="-365.5" font-family="Helvetica,sans-Serif" font-size="10.00"> </text>
</a>
</g>
</g>
<!-- Node2&#45;&gt;Node1 -->
<g id="edge1" class="edge">
<title>Node2&#45;&gt;Node1</title>
<path fill="none" stroke="#404040" d="M79.23,-358.26C84.51,-340.47 91.82,-315.84 99.64,-289.5"/>
<polygon fill="none" stroke="#404040" points="99.72,-289.22 97.59,-282.33 103.13,-277.71 105.26,-284.6 99.72,-289.22"/>
<text text-anchor="middle" x="111" y="-299" font-family="Helvetica,sans-Serif" font-size="10.00"> &#45;out_</text>
</g>
<!-- Node3 -->
<g id="node3" class="node">
<title>Node3</title>
<g id="a_node3"><a xlink:title=" ">
<polygon fill="none" stroke="black" points="9.5,-518.5 9.5,-586.5 118.5,-586.5 118.5,-518.5 9.5,-518.5"/>
<text text-anchor="start" x="17.5" y="-574.5" font-family="Helvetica,sans-Serif" font-size="10.00">std::basic_ostream</text>
<text text-anchor="middle" x="64" y="-563.5" font-family="Helvetica,sans-Serif" font-size="10.00">&lt; Char &gt;</text>
<polyline fill="none" stroke="black" points="9.5,-556.5 118.5,-556.5"/>
<text text-anchor="middle" x="64" y="-544.5" font-family="Helvetica,sans-Serif" font-size="10.00"> </text>
<polyline fill="none" stroke="black" points="9.5,-537.5 118.5,-537.5"/>
<text text-anchor="middle" x="64" y="-525.5" font-family="Helvetica,sans-Serif" font-size="10.00"> </text>
</a>
</g>
</g>
<!-- Node3&#45;&gt;Node2 -->
<g id="edge2" class="edge">
<title>Node3&#45;&gt;Node2</title>
<path fill="none" stroke="midnightblue" d="M65.84,-508.42C67.1,-479.03 68.73,-440.99 69.82,-415.61"/>
<polygon fill="none" stroke="midnightblue" points="62.35,-508.27 65.42,-518.41 69.34,-508.57 62.35,-508.27"/>
</g>
<!-- Node4 -->
<g id="node4" class="node">
<title>Node4</title>
<g id="a_node4"><a xlink:title=" ">
<polygon fill="none" stroke="black" points="0,-646.5 0,-703.5 128,-703.5 128,-646.5 0,-646.5"/>
<text text-anchor="middle" x="64" y="-691.5" font-family="Helvetica,sans-Serif" font-size="10.00">std::basic_ios&lt; Char &gt;</text>
<polyline fill="none" stroke="black" points="0,-684.5 128,-684.5"/>
<text text-anchor="middle" x="64" y="-672.5" font-family="Helvetica,sans-Serif" font-size="10.00"> </text>
<polyline fill="none" stroke="black" points="0,-665.5 128,-665.5"/>
<text text-anchor="middle" x="64" y="-653.5" font-family="Helvetica,sans-Serif" font-size="10.00"> </text>
</a>
</g>
</g>
<!-- Node4&#45;&gt;Node3 -->
<g id="edge3" class="edge">
<title>Node4&#45;&gt;Node3</title>
<path fill="none" stroke="midnightblue" d="M64,-636.3C64,-620.37 64,-601.98 64,-586.59"/>
<polygon fill="none" stroke="midnightblue" points="60.5,-636.35 64,-646.35 67.5,-636.35 60.5,-636.35"/>
</g>
<!-- Node5 -->
<g id="node5" class="node">
<title>Node5</title>
<g id="a_node5"><a xlink:title=" ">
<polygon fill="none" stroke="black" points="24,-741.5 24,-798.5 104,-798.5 104,-741.5 24,-741.5"/>
<text text-anchor="middle" x="64" y="-786.5" font-family="Helvetica,sans-Serif" font-size="10.00">std::ios_base</text>
<polyline fill="none" stroke="black" points="24,-779.5 104,-779.5"/>
<text text-anchor="middle" x="64" y="-767.5" font-family="Helvetica,sans-Serif" font-size="10.00"> </text>
<polyline fill="none" stroke="black" points="24,-760.5 104,-760.5"/>
<text text-anchor="middle" x="64" y="-748.5" font-family="Helvetica,sans-Serif" font-size="10.00"> </text>
</a>
</g>
</g>
<!-- Node5&#45;&gt;Node4 -->
<g id="edge4" class="edge">
<title>Node5&#45;&gt;Node4</title>
<path fill="none" stroke="midnightblue" d="M64,-731.24C64,-722.03 64,-712.35 64,-703.71"/>
<polygon fill="none" stroke="midnightblue" points="60.5,-731.35 64,-741.35 67.5,-731.35 60.5,-731.35"/>
</g>
<!-- Node6 -->
<g id="node6" class="node">
<title>Node6</title>
<g id="a_node6"><a xlink:href="../../d9/d89/classuxn_1_1patl_1_1impl_1_1patricia__dot__base.html" target="_top" xlink:title=" ">
<polygon fill="none" stroke="black" points="131.5,-325.5 131.5,-448.5 310.5,-448.5 310.5,-325.5 131.5,-325.5"/>
<text text-anchor="start" x="139.5" y="-436.5" font-family="Helvetica,sans-Serif" font-size="10.00">uxn::patl::impl::patricia</text>
<text text-anchor="middle" x="221" y="-425.5" font-family="Helvetica,sans-Serif" font-size="10.00">_dot_base&lt; Cont, std::ostream &gt;</text>
<polyline fill="none" stroke="black" points="131.5,-418.5 310.5,-418.5"/>
<text text-anchor="middle" x="221" y="-406.5" font-family="Helvetica,sans-Serif" font-size="10.00"> </text>
<polyline fill="none" stroke="black" points="131.5,-399.5 310.5,-399.5"/>
<text text-anchor="start" x="139.5" y="-387.5" font-family="Helvetica,sans-Serif" font-size="10.00">+ static void out_node</text>
<text text-anchor="start" x="139.5" y="-376.5" font-family="Helvetica,sans-Serif" font-size="10.00">(std::ostream &amp;out, const</text>
<text text-anchor="start" x="139.5" y="-365.5" font-family="Helvetica,sans-Serif" font-size="10.00"> vertex &amp;vtx)</text>
<text text-anchor="start" x="139.5" y="-354.5" font-family="Helvetica,sans-Serif" font-size="10.00">+ static void out_edge</text>
<text text-anchor="start" x="139.5" y="-343.5" font-family="Helvetica,sans-Serif" font-size="10.00">(std::ostream &amp;, const</text>
<text text-anchor="start" x="139.5" y="-332.5" font-family="Helvetica,sans-Serif" font-size="10.00"> vertex &amp;)</text>
</a>
</g>
</g>
<!-- Node6&#45;&gt;Node1 -->
<g id="edge5" class="edge">
<title>Node6&#45;&gt;Node1</title>
<path fill="none" stroke="#404040" d="M201.97,-325.19C198.45,-313.97 194.65,-301.81 190.72,-289.27"/>
<polygon fill="none" stroke="#404040" points="190.68,-289.12 185.07,-284.59 187.09,-277.67 192.7,-282.2 190.68,-289.12"/>
<text text-anchor="middle" x="215" y="-299" font-family="Helvetica,sans-Serif" font-size="10.00"> &#45;base_</text>
</g>
<!-- Node7 -->
<g id="node7" class="node">
<title>Node7</title>
<g id="a_node7"><a xlink:href="../../d9/d89/classuxn_1_1patl_1_1impl_1_1patricia__dot__base.html" target="_top" xlink:title=" ">
<polygon fill="none" stroke="black" points="137,-496.5 137,-608.5 307,-608.5 307,-496.5 137,-496.5"/>
<text text-anchor="start" x="145" y="-596.5" font-family="Helvetica,sans-Serif" font-size="10.00">uxn::patl::impl::patricia</text>
<text text-anchor="middle" x="222" y="-585.5" font-family="Helvetica,sans-Serif" font-size="10.00">_dot_base&lt; Cont, OutStream &gt;</text>
<polyline fill="none" stroke="black" points="137,-578.5 307,-578.5"/>
<text text-anchor="middle" x="222" y="-566.5" font-family="Helvetica,sans-Serif" font-size="10.00"> </text>
<polyline fill="none" stroke="black" points="137,-559.5 307,-559.5"/>
<text text-anchor="start" x="145" y="-547.5" font-family="Helvetica,sans-Serif" font-size="10.00">+ static void out_node</text>
<text text-anchor="start" x="145" y="-536.5" font-family="Helvetica,sans-Serif" font-size="10.00">(OutStream &amp;out, const</text>
<text text-anchor="start" x="145" y="-525.5" font-family="Helvetica,sans-Serif" font-size="10.00"> vertex &amp;vtx)</text>
<text text-anchor="start" x="145" y="-514.5" font-family="Helvetica,sans-Serif" font-size="10.00">+ static void out_edge</text>
<text text-anchor="start" x="145" y="-503.5" font-family="Helvetica,sans-Serif" font-size="10.00">(OutStream &amp;, const vertex &amp;)</text>
</a>
</g>
</g>
<!-- Node7&#45;&gt;Node6 -->
<g id="edge6" class="edge">
<title>Node7&#45;&gt;Node6</title>
<path fill="none" stroke="orange" d="M221.6,-485.94C221.52,-473.62 221.45,-460.79 221.37,-448.63"/>
<polygon fill="orange" stroke="orange" points="218.1,-486.17 221.66,-496.15 225.1,-486.13 218.1,-486.17"/>
<text text-anchor="middle" x="279" y="-470" font-family="Helvetica,sans-Serif" font-size="10.00"> &lt; Cont, std::ostream &gt;</text>
</g>
</g>
</svg>
        <g id="navigator" transform="translate(0 0)" fill="#404254">
                <rect fill="#f2f5e9" fill-opacity="0.5" stroke="#606060" stroke-width=".5" x="0" y="0" width="60" height="60"/>
                <use id="zoomplus" xlink:href="#zoomPlus" x="17" y="9" onmousedown="handleZoom(evt,'in')"/>
                <use id="zoomminus" xlink:href="#zoomMin" x="42" y="9" onmousedown="handleZoom(evt,'out')"/>
                <use id="reset" xlink:href="#resetDef" x="30" y="36" onmousedown="handleReset()"/>
                <g id="arrowUp" xlink:href="#dirArrow" transform="translate(30 24)" onmousedown="handlePan(0,-1)">
                  <use xlink:href="#rim" fill="#404040">
                        <set attributeName="fill" to="#808080" begin="arrowUp.mouseover" end="arrowUp.mouseout"/>
                  </use>
                  <path fill="none" stroke="white" stroke-width="1.5" d="M0,-3.0v7 M-2.5,-0.5L0,-3.0L2.5,-0.5"/>
                </g>
                <g id="arrowRight" xlink:href="#dirArrow" transform="rotate(90) translate(36 -43)" onmousedown="handlePan(1,0)">
                  <use xlink:href="#rim" fill="#404040">
                        <set attributeName="fill" to="#808080" begin="arrowRight.mouseover" end="arrowRight.mouseout"/>
                  </use>
                  <path fill="none" stroke="white" stroke-width="1.5" d="M0,-3.0v7 M-2.5,-0.5L0,-3.0L2.5,-0.5"/>
                </g>
                <g id="arrowDown" xlink:href="#dirArrow" transform="rotate(180) translate(-30 -48)" onmousedown="handlePan(0,1)">
                  <use xlink:href="#rim" fill="#404040">
                        <set attributeName="fill" to="#808080" begin="arrowDown.mouseover" end="arrowDown.mouseout"/>
                  </use>
                  <path fill="none" stroke="white" stroke-width="1.5" d="M0,-3.0v7 M-2.5,-0.5L0,-3.0L2.5,-0.5"/>
                </g>
                <g id="arrowLeft" xlink:href="#dirArrow" transform="rotate(270) translate(-36 17)" onmousedown="handlePan(-1,0)">
                  <use xlink:href="#rim" fill="#404040">
                        <set attributeName="fill" to="#808080" begin="arrowLeft.mouseover" end="arrowLeft.mouseout"/>
                  </use>
                  <path fill="none" stroke="white" stroke-width="1.5" d="M0,-3.0v7 M-2.5,-0.5L0,-3.0L2.5,-0.5"/>
                </g>
        </g>
        <svg viewBox="0 0 15 15" width="100%" height="30px" preserveAspectRatio="xMaxYMin meet">
         <g id="arrow_out" transform="scale(0.3 0.3)">
          <a xlink:href="classuxn_1_1patl_1_1patricia__dot__creator__coll__graph_org.svg" target="_base">
           <rect id="button" ry="5" rx="5" y="6" x="6" height="38" width="38"
                fill="#f2f5e9" fill-opacity="0.5" stroke="#606060" stroke-width="1.0"/>
           <path id="arrow"
             d="M 11.500037,31.436501 C 11.940474,20.09759 22.043105,11.32322 32.158766,21.979434 L 37.068811,17.246167 C 37.068811,17.246167 37.088388,32 37.088388,32 L 22.160133,31.978069 C 22.160133,31.978069 26.997745,27.140456 26.997745,27.140456 C 18.528582,18.264221 13.291696,25.230495 11.500037,31.436501 z"
             style="fill:#404040;"/>
          </a>
         </g>
        </svg>
</svg>
