<?xml version="1.0" encoding="UTF-8" standalone="no"?>
<!DOCTYPE svg PUBLIC "-//W3C//DTD SVG 1.1//EN"
 "http://www.w3.org/Graphics/SVG/1.1/DTD/svg11.dtd">
<!-- Generated by graphviz version 5.0.1 (20220820.1526)
 -->
<!-- Title: uxn::patl::patricia_dot_creator&lt; Cont, OutStream, Base &gt; Pages: 1 -->
<svg width="345pt" height="807pt"
 viewBox="0.00 0.00 345.00 807.00" xmlns="http://www.w3.org/2000/svg" xmlns:xlink="http://www.w3.org/1999/xlink">
<g id="graph0" class="graph" transform="scale(1 1) rotate(0) translate(4 803)">
<title>uxn::patl::patricia_dot_creator&lt; Cont, OutStream, Base &gt;</title>
<!-- Node1 -->
<g id="node1" class="node">
<title>Node1</title>
<g id="a_node1"><a xlink:title=" ">
<polygon fill="#bfbfbf" stroke="black" points="65,-0.5 65,-277.5 223,-277.5 223,-0.5 65,-0.5"/>
<text text-anchor="start" x="73" y="-265.5" font-family="Helvetica,sans-Serif" font-size="10.00">uxn::patl::patricia</text>
<text text-anchor="start" x="73" y="-254.5" font-family="Helvetica,sans-Serif" font-size="10.00">_dot_creator&lt; Cont,</text>
<text text-anchor="middle" x="144" y="-243.5" font-family="Helvetica,sans-Serif" font-size="10.00"> OutStream, Base &gt;</text>
<polyline fill="none" stroke="black" points="65,-236.5 223,-236.5"/>
<text text-anchor="start" x="73" y="-224.5" font-family="Helvetica,sans-Serif" font-size="10.00">&#45; static const word_t</text>
<text text-anchor="start" x="73" y="-213.5" font-family="Helvetica,sans-Serif" font-size="10.00"> bit_size</text>
<polyline fill="none" stroke="black" points="65,-206.5 223,-206.5"/>
<text text-anchor="start" x="73" y="-194.5" font-family="Helvetica,sans-Serif" font-size="10.00">+ patricia_dot_creator</text>
<text text-anchor="start" x="73" y="-183.5" font-family="Helvetica,sans-Serif" font-size="10.00">(OutStream &amp;out=std::</text>
<text text-anchor="start" x="73" y="-172.5" font-family="Helvetica,sans-Serif" font-size="10.00">cout, const Base &amp;base</text>
<text text-anchor="start" x="73" y="-161.5" font-family="Helvetica,sans-Serif" font-size="10.00">=Base(), word_t dpi=96)</text>
<text text-anchor="start" x="73" y="-150.5" font-family="Helvetica,sans-Serif" font-size="10.00">+ ~patricia_dot_creator()</text>
<text text-anchor="start" x="73" y="-139.5" font-family="Helvetica,sans-Serif" font-size="10.00">+ void create(const const</text>
<text text-anchor="start" x="73" y="-128.5" font-family="Helvetica,sans-Serif" font-size="10.00">_vertex &amp;vtx, bool clustering</text>
<text text-anchor="start" x="73" y="-117.5" font-family="Helvetica,sans-Serif" font-size="10.00">=false) const</text>
<text text-anchor="start" x="73" y="-106.5" font-family="Helvetica,sans-Serif" font-size="10.00">&#45; patricia_dot_creator</text>
<text text-anchor="start" x="73" y="-95.5" font-family="Helvetica,sans-Serif" font-size="10.00"> &amp; operator=(const patricia</text>
<text text-anchor="start" x="73" y="-84.5" font-family="Helvetica,sans-Serif" font-size="10.00">_dot_creator &amp;)</text>
<text text-anchor="start" x="73" y="-73.5" font-family="Helvetica,sans-Serif" font-size="10.00">&#45; void out_node(const</text>
<text text-anchor="start" x="73" y="-62.5" font-family="Helvetica,sans-Serif" font-size="10.00"> const_vertex &amp;vtx) const</text>
<text text-anchor="start" x="73" y="-51.5" font-family="Helvetica,sans-Serif" font-size="10.00">&#45; void out_edge(const</text>
<text text-anchor="start" x="73" y="-40.5" font-family="Helvetica,sans-Serif" font-size="10.00"> const_vertex &amp;vtx) const</text>
<text text-anchor="start" x="73" y="-29.5" font-family="Helvetica,sans-Serif" font-size="10.00">&#45; void out_cluster(word</text>
<text text-anchor="start" x="73" y="-18.5" font-family="Helvetica,sans-Serif" font-size="10.00">_t &amp;n, const prefix &amp;root)</text>
<text text-anchor="start" x="73" y="-7.5" font-family="Helvetica,sans-Serif" font-size="10.00"> const</text>
</a>
</g>
</g>
<!-- Node2 -->
<g id="node2" class="node">
<title>Node2</title>
<g id="a_node2"><a xlink:title=" ">
<polygon fill="none" stroke="black" points="32,-358.5 32,-415.5 110,-415.5 110,-358.5 32,-358.5"/>
<text text-anchor="middle" x="71" y="-403.5" font-family="Helvetica,sans-Serif" font-size="10.00">std::ostream</text>
<polyline fill="none" stroke="black" points="32,-396.5 110,-396.5"/>
<text text-anchor="middle" x="71" y="-384.5" font-family="Helvetica,sans-Serif" font-size="10.00"> </text>
<polyline fill="none" stroke="black" points="32,-377.5 110,-377.5"/>
<text text-anchor="middle" x="71" y="-365.5" font-family="Helvetica,sans-Serif" font-size="10.00"> </text>
</a>
</g>
</g>
<!-- Node2&#45;&gt;Node1 -->
<g id="edge1" class="edge">
<title>Node2&#45;&gt;Node1</title>
<path fill="none" stroke="#404040" d="M79.23,-358.26C84.51,-340.47 91.82,-315.84 99.64,-289.5"/>
<polygon fill="none" stroke="#404040" points="99.72,-289.22 97.59,-282.33 103.13,-277.71 105.26,-284.6 99.72,-289.22"/>
<text text-anchor="middle" x="111" y="-299" font-family="Helvetica,sans-Serif" font-size="10.00"> &#45;out_</text>
</g>
<!-- Node3 -->
<g id="node3" class="node">
<title>Node3</title>
<g id="a_node3"><a xlink:title=" ">
<polygon fill="none" stroke="black" points="9.5,-518.5 9.5,-586.5 118.5,-586.5 118.5,-518.5 9.5,-518.5"/>
<text text-anchor="start" x="17.5" y="-574.5" font-family="Helvetica,sans-Serif" font-size="10.00">std::basic_ostream</text>
<text text-anchor="middle" x="64" y="-563.5" font-family="Helvetica,sans-Serif" font-size="10.00">&lt; Char &gt;</text>
<polyline fill="none" stroke="black" points="9.5,-556.5 118.5,-556.5"/>
<text text-anchor="middle" x="64" y="-544.5" font-family="Helvetica,sans-Serif" font-size="10.00"> </text>
<polyline fill="none" stroke="black" points="9.5,-537.5 118.5,-537.5"/>
<text text-anchor="middle" x="64" y="-525.5" font-family="Helvetica,sans-Serif" font-size="10.00"> </text>
</a>
</g>
</g>
<!-- Node3&#45;&gt;Node2 -->
<g id="edge2" class="edge">
<title>Node3&#45;&gt;Node2</title>
<path fill="none" stroke="midnightblue" d="M65.84,-508.42C67.1,-479.03 68.73,-440.99 69.82,-415.61"/>
<polygon fill="none" stroke="midnightblue" points="62.35,-508.27 65.42,-518.41 69.34,-508.57 62.35,-508.27"/>
</g>
<!-- Node4 -->
<g id="node4" class="node">
<title>Node4</title>
<g id="a_node4"><a xlink:title=" ">
<polygon fill="none" stroke="black" points="0,-646.5 0,-703.5 128,-703.5 128,-646.5 0,-646.5"/>
<text text-anchor="middle" x="64" y="-691.5" font-family="Helvetica,sans-Serif" font-size="10.00">std::basic_ios&lt; Char &gt;</text>
<polyline fill="none" stroke="black" points="0,-684.5 128,-684.5"/>
<text text-anchor="middle" x="64" y="-672.5" font-family="Helvetica,sans-Serif" font-size="10.00"> </text>
<polyline fill="none" stroke="black" points="0,-665.5 128,-665.5"/>
<text text-anchor="middle" x="64" y="-653.5" font-family="Helvetica,sans-Serif" font-size="10.00"> </text>
</a>
</g>
</g>
<!-- Node4&#45;&gt;Node3 -->
<g id="edge3" class="edge">
<title>Node4&#45;&gt;Node3</title>
<path fill="none" stroke="midnightblue" d="M64,-636.3C64,-620.37 64,-601.98 64,-586.59"/>
<polygon fill="none" stroke="midnightblue" points="60.5,-636.35 64,-646.35 67.5,-636.35 60.5,-636.35"/>
</g>
<!-- Node5 -->
<g id="node5" class="node">
<title>Node5</title>
<g id="a_node5"><a xlink:title=" ">
<polygon fill="none" stroke="black" points="24,-741.5 24,-798.5 104,-798.5 104,-741.5 24,-741.5"/>
<text text-anchor="middle" x="64" y="-786.5" font-family="Helvetica,sans-Serif" font-size="10.00">std::ios_base</text>
<polyline fill="none" stroke="black" points="24,-779.5 104,-779.5"/>
<text text-anchor="middle" x="64" y="-767.5" font-family="Helvetica,sans-Serif" font-size="10.00"> </text>
<polyline fill="none" stroke="black" points="24,-760.5 104,-760.5"/>
<text text-anchor="middle" x="64" y="-748.5" font-family="Helvetica,sans-Serif" font-size="10.00"> </text>
</a>
</g>
</g>
<!-- Node5&#45;&gt;Node4 -->
<g id="edge4" class="edge">
<title>Node5&#45;&gt;Node4</title>
<path fill="none" stroke="midnightblue" d="M64,-731.24C64,-722.03 64,-712.35 64,-703.71"/>
<polygon fill="none" stroke="midnightblue" points="60.5,-731.35 64,-741.35 67.5,-731.35 60.5,-731.35"/>
</g>
<!-- Node6 -->
<g id="node6" class="node">
<title>Node6</title>
<g id="a_node6"><a xlink:href="../../d9/d89/classuxn_1_1patl_1_1impl_1_1patricia__dot__base.html" target="_top" xlink:title=" ">
<polygon fill="none" stroke="black" points="131.5,-325.5 131.5,-448.5 310.5,-448.5 310.5,-325.5 131.5,-325.5"/>
<text text-anchor="start" x="139.5" y="-436.5" font-family="Helvetica,sans-Serif" font-size="10.00">uxn::patl::impl::patricia</text>
<text text-anchor="middle" x="221" y="-425.5" font-family="Helvetica,sans-Serif" font-size="10.00">_dot_base&lt; Cont, std::ostream &gt;</text>
<polyline fill="none" stroke="black" points="131.5,-418.5 310.5,-418.5"/>
<text text-anchor="middle" x="221" y="-406.5" font-family="Helvetica,sans-Serif" font-size="10.00"> </text>
<polyline fill="none" stroke="black" points="131.5,-399.5 310.5,-399.5"/>
<text text-anchor="start" x="139.5" y="-387.5" font-family="Helvetica,sans-Serif" font-size="10.00">+ static void out_node</text>
<text text-anchor="start" x="139.5" y="-376.5" font-family="Helvetica,sans-Serif" font-size="10.00">(std::ostream &amp;out, const</text>
<text text-anchor="start" x="139.5" y="-365.5" font-family="Helvetica,sans-Serif" font-size="10.00"> vertex &amp;vtx)</text>
<text text-anchor="start" x="139.5" y="-354.5" font-family="Helvetica,sans-Serif" font-size="10.00">+ static void out_edge</text>
<text text-anchor="start" x="139.5" y="-343.5" font-family="Helvetica,sans-Serif" font-size="10.00">(std::ostream &amp;, const</text>
<text text-anchor="start" x="139.5" y="-332.5" font-family="Helvetica,sans-Serif" font-size="10.00"> vertex &amp;)</text>
</a>
</g>
</g>
<!-- Node6&#45;&gt;Node1 -->
<g id="edge5" class="edge">
<title>Node6&#45;&gt;Node1</title>
<path fill="none" stroke="#404040" d="M201.97,-325.19C198.45,-313.97 194.65,-301.81 190.72,-289.27"/>
<polygon fill="none" stroke="#404040" points="190.68,-289.12 185.07,-284.59 187.09,-277.67 192.7,-282.2 190.68,-289.12"/>
<text text-anchor="middle" x="215" y="-299" font-family="Helvetica,sans-Serif" font-size="10.00"> &#45;base_</text>
</g>
<!-- Node7 -->
<g id="node7" class="node">
<title>Node7</title>
<g id="a_node7"><a xlink:href="../../d9/d89/classuxn_1_1patl_1_1impl_1_1patricia__dot__base.html" target="_top" xlink:title=" ">
<polygon fill="none" stroke="black" points="137,-496.5 137,-608.5 307,-608.5 307,-496.5 137,-496.5"/>
<text text-anchor="start" x="145" y="-596.5" font-family="Helvetica,sans-Serif" font-size="10.00">uxn::patl::impl::patricia</text>
<text text-anchor="middle" x="222" y="-585.5" font-family="Helvetica,sans-Serif" font-size="10.00">_dot_base&lt; Cont, OutStream &gt;</text>
<polyline fill="none" stroke="black" points="137,-578.5 307,-578.5"/>
<text text-anchor="middle" x="222" y="-566.5" font-family="Helvetica,sans-Serif" font-size="10.00"> </text>
<polyline fill="none" stroke="black" points="137,-559.5 307,-559.5"/>
<text text-anchor="start" x="145" y="-547.5" font-family="Helvetica,sans-Serif" font-size="10.00">+ static void out_node</text>
<text text-anchor="start" x="145" y="-536.5" font-family="Helvetica,sans-Serif" font-size="10.00">(OutStream &amp;out, const</text>
<text text-anchor="start" x="145" y="-525.5" font-family="Helvetica,sans-Serif" font-size="10.00"> vertex &amp;vtx)</text>
<text text-anchor="start" x="145" y="-514.5" font-family="Helvetica,sans-Serif" font-size="10.00">+ static void out_edge</text>
<text text-anchor="start" x="145" y="-503.5" font-family="Helvetica,sans-Serif" font-size="10.00">(OutStream &amp;, const vertex &amp;)</text>
</a>
</g>
</g>
<!-- Node7&#45;&gt;Node6 -->
<g id="edge6" class="edge">
<title>Node7&#45;&gt;Node6</title>
<path fill="none" stroke="orange" d="M221.6,-485.94C221.52,-473.62 221.45,-460.79 221.37,-448.63"/>
<polygon fill="orange" stroke="orange" points="218.1,-486.17 221.66,-496.15 225.1,-486.13 218.1,-486.17"/>
<text text-anchor="middle" x="279" y="-470" font-family="Helvetica,sans-Serif" font-size="10.00"> &lt; Cont, std::ostream &gt;</text>
</g>
</g>
</svg>
