<?xml version="1.0" encoding="UTF-8" standalone="no"?>
<!DOCTYPE svg PUBLIC "-//W3C//DTD SVG 1.1//EN"
 "http://www.w3.org/Graphics/SVG/1.1/DTD/svg11.dtd">
<!-- Generated by graphviz version 5.0.1 (20220820.1526)
 -->
<!-- Title: uxn::patl::bit_comparator&lt; unsigned char, 8 &gt; Pages: 1 -->
<svg width="190pt" height="310pt"
 viewBox="0.00 0.00 189.50 310.00" xmlns="http://www.w3.org/2000/svg" xmlns:xlink="http://www.w3.org/1999/xlink">
<g id="graph0" class="graph" transform="scale(1 1) rotate(0) translate(4 306)">
<title>uxn::patl::bit_comparator&lt; unsigned char, 8 &gt;</title>
<!-- Node1 -->
<g id="node1" class="node">
<title>Node1</title>
<g id="a_node1"><a xlink:title=" ">
<polygon fill="#bfbfbf" stroke="black" points="0,-0.5 0,-79.5 151,-79.5 151,-0.5 0,-0.5"/>
<text text-anchor="start" x="8" y="-67.5" font-family="Helvetica,sans-Serif" font-size="10.00">uxn::patl::bit_comparator</text>
<text text-anchor="middle" x="75.5" y="-56.5" font-family="Helvetica,sans-Serif" font-size="10.00">&lt; unsigned char, 8 &gt;</text>
<polyline fill="none" stroke="black" points="0,-49.5 151,-49.5"/>
<text text-anchor="middle" x="75.5" y="-37.5" font-family="Helvetica,sans-Serif" font-size="10.00"> </text>
<polyline fill="none" stroke="black" points="0,-30.5 151,-30.5"/>
<text text-anchor="start" x="8" y="-18.5" font-family="Helvetica,sans-Serif" font-size="10.00">+ word_t get_bits(unsigned</text>
<text text-anchor="start" x="8" y="-7.5" font-family="Helvetica,sans-Serif" font-size="10.00"> char val, word_t) const</text>
</a>
</g>
</g>
<!-- Node2 -->
<g id="node2" class="node">
<title>Node2</title>
<g id="a_node2"><a xlink:href="../../d2/db7/classuxn_1_1patl_1_1bit__comparator.html" target="_top" xlink:title=" ">
<polygon fill="none" stroke="black" points="5.5,-117.5 5.5,-185.5 145.5,-185.5 145.5,-117.5 5.5,-117.5"/>
<text text-anchor="start" x="13.5" y="-173.5" font-family="Helvetica,sans-Serif" font-size="10.00">uxn::patl::bit_comparator</text>
<text text-anchor="middle" x="75.5" y="-162.5" font-family="Helvetica,sans-Serif" font-size="10.00">&lt; unsigned char, 0 &gt;</text>
<polyline fill="none" stroke="black" points="5.5,-155.5 145.5,-155.5"/>
<text text-anchor="middle" x="75.5" y="-143.5" font-family="Helvetica,sans-Serif" font-size="10.00"> </text>
<polyline fill="none" stroke="black" points="5.5,-136.5 145.5,-136.5"/>
<text text-anchor="middle" x="75.5" y="-124.5" font-family="Helvetica,sans-Serif" font-size="10.00"> </text>
</a>
</g>
</g>
<!-- Node2&#45;&gt;Node1 -->
<g id="edge1" class="edge">
<title>Node2&#45;&gt;Node1</title>
<path fill="none" stroke="midnightblue" d="M75.5,-107.34C75.5,-98.25 75.5,-88.72 75.5,-79.81"/>
<polygon fill="none" stroke="midnightblue" points="72,-107.35 75.5,-117.35 79,-107.35 72,-107.35"/>
</g>
<!-- Node3 -->
<g id="node3" class="node">
<title>Node3</title>
<g id="a_node3"><a xlink:href="../../d2/db7/classuxn_1_1patl_1_1bit__comparator.html" target="_top" xlink:title=" ">
<polygon fill="none" stroke="black" points="5.5,-233.5 5.5,-301.5 145.5,-301.5 145.5,-233.5 5.5,-233.5"/>
<text text-anchor="start" x="13.5" y="-289.5" font-family="Helvetica,sans-Serif" font-size="10.00">uxn::patl::bit_comparator</text>
<text text-anchor="middle" x="75.5" y="-278.5" font-family="Helvetica,sans-Serif" font-size="10.00">&lt; T, N &gt;</text>
<polyline fill="none" stroke="black" points="5.5,-271.5 145.5,-271.5"/>
<text text-anchor="middle" x="75.5" y="-259.5" font-family="Helvetica,sans-Serif" font-size="10.00"> </text>
<polyline fill="none" stroke="black" points="5.5,-252.5 145.5,-252.5"/>
<text text-anchor="middle" x="75.5" y="-240.5" font-family="Helvetica,sans-Serif" font-size="10.00"> </text>
</a>
</g>
</g>
<!-- Node3&#45;&gt;Node2 -->
<g id="edge2" class="edge">
<title>Node3&#45;&gt;Node2</title>
<path fill="none" stroke="orange" d="M75.5,-223.06C75.5,-210.64 75.5,-197.32 75.5,-185.62"/>
<polygon fill="orange" stroke="orange" points="72,-223.22 75.5,-233.22 79,-223.22 72,-223.22"/>
<text text-anchor="middle" x="128.5" y="-207" font-family="Helvetica,sans-Serif" font-size="10.00"> &lt; unsigned char, 0 &gt;</text>
</g>
</g>
</svg>
