<?xml version="1.0" encoding="UTF-8" standalone="no"?>
<!DOCTYPE svg PUBLIC "-//W3C//DTD SVG 1.1//EN"
 "http://www.w3.org/Graphics/SVG/1.1/DTD/svg11.dtd">
<!-- Generated by graphviz version 5.0.1 (20220820.1526)
 -->
<!-- Title: uxn/patl/aux_/file_utils.hpp Pages: 1 -->
<svg width="598pt" height="173pt"
 viewBox="0.00 0.00 597.50 173.00" xmlns="http://www.w3.org/2000/svg" xmlns:xlink="http://www.w3.org/1999/xlink">
<g id="graph0" class="graph" transform="scale(1 1) rotate(0) translate(4 169)">
<title>uxn/patl/aux_/file_utils.hpp</title>
<!-- Node1 -->
<g id="node1" class="node">
<title>Node1</title>
<g id="a_node1"><a xlink:title=" ">
<polygon fill="#bfbfbf" stroke="black" points="136,-134.5 136,-164.5 237,-164.5 237,-134.5 136,-134.5"/>
<text text-anchor="start" x="144" y="-152.5" font-family="Helvetica,sans-Serif" font-size="10.00">uxn/patl/aux_/file</text>
<text text-anchor="middle" x="186.5" y="-141.5" font-family="Helvetica,sans-Serif" font-size="10.00">_utils.hpp</text>
</a>
</g>
</g>
<!-- Node2 -->
<g id="node2" class="node">
<title>Node2</title>
<g id="a_node2"><a xlink:href="../../d5/d74/multi__search_8cpp.html" target="_top" xlink:title=" ">
<polygon fill="none" stroke="black" points="0,-0.5 0,-30.5 137,-30.5 137,-0.5 0,-0.5"/>
<text text-anchor="start" x="8" y="-18.5" font-family="Helvetica,sans-Serif" font-size="10.00">uxn/demos/multi_search</text>
<text text-anchor="middle" x="68.5" y="-7.5" font-family="Helvetica,sans-Serif" font-size="10.00">/multi_search.cpp</text>
</a>
</g>
</g>
<!-- Node1&#45;&gt;Node2 -->
<g id="edge1" class="edge">
<title>Node1&#45;&gt;Node2</title>
<path fill="none" stroke="midnightblue" d="M130.55,-130.29C114.58,-122.61 98.53,-112.1 87.5,-98 72.1,-78.32 68.82,-48.3 68.32,-30.71"/>
<polygon fill="midnightblue" stroke="midnightblue" points="129.34,-133.58 139.9,-134.48 132.21,-127.2 129.34,-133.58"/>
</g>
<!-- Node3 -->
<g id="node3" class="node">
<title>Node3</title>
<g id="a_node3"><a xlink:href="../../da/d22/sort__lin_8cpp.html" target="_top" xlink:title=" ">
<polygon fill="none" stroke="black" points="155.5,-0.5 155.5,-30.5 265.5,-30.5 265.5,-0.5 155.5,-0.5"/>
<text text-anchor="start" x="163.5" y="-18.5" font-family="Helvetica,sans-Serif" font-size="10.00">uxn/demos/sort_lin</text>
<text text-anchor="middle" x="210.5" y="-7.5" font-family="Helvetica,sans-Serif" font-size="10.00">/sort_lin.cpp</text>
</a>
</g>
</g>
<!-- Node1&#45;&gt;Node3 -->
<g id="edge2" class="edge">
<title>Node1&#45;&gt;Node3</title>
<path fill="none" stroke="midnightblue" d="M197.71,-124.89C201.15,-116.57 204.54,-107.04 206.5,-98 211.53,-74.74 211.68,-46.91 211.19,-30.52"/>
<polygon fill="midnightblue" stroke="midnightblue" points="194.38,-123.75 193.58,-134.31 200.8,-126.56 194.38,-123.75"/>
</g>
<!-- Node4 -->
<g id="node4" class="node">
<title>Node4</title>
<g id="a_node4"><a xlink:href="../../d2/d6c/buffered__io_8hpp.html" target="_top" xlink:title=" ">
<polygon fill="none" stroke="black" points="276.5,-67.5 276.5,-97.5 402.5,-97.5 402.5,-67.5 276.5,-67.5"/>
<text text-anchor="start" x="284.5" y="-85.5" font-family="Helvetica,sans-Serif" font-size="10.00">uxn/patl/aux_/buffered</text>
<text text-anchor="middle" x="339.5" y="-74.5" font-family="Helvetica,sans-Serif" font-size="10.00">_io.hpp</text>
</a>
</g>
</g>
<!-- Node1&#45;&gt;Node4 -->
<g id="edge3" class="edge">
<title>Node1&#45;&gt;Node4</title>
<path fill="none" stroke="midnightblue" d="M229.09,-130.41C253.52,-120.03 283.72,-107.2 306.37,-97.58"/>
<polygon fill="midnightblue" stroke="midnightblue" points="227.53,-127.26 219.7,-134.4 230.27,-133.71 227.53,-127.26"/>
</g>
<!-- Node7 -->
<g id="node7" class="node">
<title>Node7</title>
<g id="a_node7"><a xlink:href="../../df/dee/file__mapping__io_8hpp.html" target="_top" xlink:title=" ">
<polygon fill="none" stroke="black" points="97,-67.5 97,-97.5 198,-97.5 198,-67.5 97,-67.5"/>
<text text-anchor="start" x="105" y="-85.5" font-family="Helvetica,sans-Serif" font-size="10.00">uxn/patl/aux_/file</text>
<text text-anchor="middle" x="147.5" y="-74.5" font-family="Helvetica,sans-Serif" font-size="10.00">_mapping_io.hpp</text>
</a>
</g>
</g>
<!-- Node1&#45;&gt;Node7 -->
<g id="edge7" class="edge">
<title>Node1&#45;&gt;Node7</title>
<path fill="none" stroke="midnightblue" d="M172.75,-125.58C167.14,-116.24 160.85,-105.75 155.95,-97.58"/>
<polygon fill="midnightblue" stroke="midnightblue" points="169.89,-127.62 178.04,-134.4 175.89,-124.02 169.89,-127.62"/>
</g>
<!-- Node4&#45;&gt;Node3 -->
<g id="edge4" class="edge">
<title>Node4&#45;&gt;Node3</title>
<path fill="none" stroke="midnightblue" d="M302.49,-62.85C282.1,-52.58 257.19,-40.03 238.44,-30.58"/>
<polygon fill="midnightblue" stroke="midnightblue" points="301,-66.02 311.51,-67.4 304.15,-59.77 301,-66.02"/>
</g>
<!-- Node5 -->
<g id="node5" class="node">
<title>Node5</title>
<g id="a_node5"><a xlink:href="../../d9/de5/usort3_8cpp.html" target="_top" xlink:title=" ">
<polygon fill="none" stroke="black" points="283.5,-6 283.5,-25 441.5,-25 441.5,-6 283.5,-6"/>
<text text-anchor="middle" x="362.5" y="-13" font-family="Helvetica,sans-Serif" font-size="10.00">uxn/demos/usort3/usort3.cpp</text>
</a>
</g>
</g>
<!-- Node4&#45;&gt;Node5 -->
<g id="edge5" class="edge">
<title>Node4&#45;&gt;Node5</title>
<path fill="none" stroke="midnightblue" d="M347.84,-57.94C351.87,-46.54 356.47,-33.55 359.42,-25.19"/>
<polygon fill="midnightblue" stroke="midnightblue" points="344.53,-56.8 344.49,-67.4 351.13,-59.14 344.53,-56.8"/>
</g>
<!-- Node6 -->
<g id="node6" class="node">
<title>Node6</title>
<g id="a_node6"><a xlink:href="../../d1/d40/word__suffix_8cpp.html" target="_top" xlink:title=" ">
<polygon fill="none" stroke="black" points="459.5,-0.5 459.5,-30.5 589.5,-30.5 589.5,-0.5 459.5,-0.5"/>
<text text-anchor="start" x="467.5" y="-18.5" font-family="Helvetica,sans-Serif" font-size="10.00">uxn/demos/word_suffix</text>
<text text-anchor="middle" x="524.5" y="-7.5" font-family="Helvetica,sans-Serif" font-size="10.00">/word_suffix.cpp</text>
</a>
</g>
</g>
<!-- Node4&#45;&gt;Node6 -->
<g id="edge6" class="edge">
<title>Node4&#45;&gt;Node6</title>
<path fill="none" stroke="midnightblue" d="M389.44,-63.96C419.24,-53.48 456.57,-40.37 484.44,-30.58"/>
<polygon fill="midnightblue" stroke="midnightblue" points="387.92,-60.78 379.64,-67.4 390.24,-67.38 387.92,-60.78"/>
</g>
<!-- Node7&#45;&gt;Node2 -->
<g id="edge8" class="edge">
<title>Node7&#45;&gt;Node2</title>
<path fill="none" stroke="midnightblue" d="M122.44,-60.88C110.44,-51.01 96.37,-39.43 85.61,-30.58"/>
<polygon fill="midnightblue" stroke="midnightblue" points="120.41,-63.75 130.36,-67.4 124.86,-58.34 120.41,-63.75"/>
</g>
<!-- Node7&#45;&gt;Node3 -->
<g id="edge9" class="edge">
<title>Node7&#45;&gt;Node3</title>
<path fill="none" stroke="midnightblue" d="M168.31,-60.02C177.7,-50.34 188.52,-39.17 196.86,-30.58"/>
<polygon fill="midnightblue" stroke="midnightblue" points="165.62,-57.78 161.17,-67.4 170.64,-62.65 165.62,-57.78"/>
</g>
</g>
</svg>
