<?xml version="1.0" encoding="UTF-8" standalone="no"?>
<!DOCTYPE svg PUBLIC "-//W3C//DTD SVG 1.1//EN"
 "http://www.w3.org/Graphics/SVG/1.1/DTD/svg11.dtd">
<!-- Generated by graphviz version 5.0.1 (20220820.1526)
 -->
<!-- Title: uxn::patl::impl::suffix_generic::reserve Pages: 1 -->
<svg width="276pt" height="88pt"
 viewBox="0.00 0.00 276.00 88.00" xmlns="http://www.w3.org/2000/svg" xmlns:xlink="http://www.w3.org/1999/xlink">
<g id="graph0" class="graph" transform="scale(1 1) rotate(0) translate(4 84)">
<title>uxn::patl::impl::suffix_generic::reserve</title>
<!-- Node1 -->
<g id="node1" class="node">
<title>Node1</title>
<g id="a_node1"><a xlink:title=" ">
<polygon fill="#bfbfbf" stroke="black" points="0,-24.5 0,-54.5 120,-54.5 120,-24.5 0,-24.5"/>
<text text-anchor="start" x="8" y="-42.5" font-family="Helvetica,sans-Serif" font-size="10.00">uxn::patl::impl::suffix</text>
<text text-anchor="middle" x="60" y="-31.5" font-family="Helvetica,sans-Serif" font-size="10.00">_generic::reserve</text>
</a>
</g>
</g>
<!-- Node2 -->
<g id="node2" class="node">
<title>Node2</title>
<g id="a_node2"><a xlink:href="../../d7/ddc/classuxn_1_1patl_1_1impl_1_1ring__buffer.html#a0cb9f62a800a2b3f636ef598d5547df9" target="_top" xlink:title=" ">
<polygon fill="none" stroke="black" points="156,-49.5 156,-79.5 268,-79.5 268,-49.5 156,-49.5"/>
<text text-anchor="start" x="164" y="-67.5" font-family="Helvetica,sans-Serif" font-size="10.00">uxn::patl::impl::ring</text>
<text text-anchor="middle" x="212" y="-56.5" font-family="Helvetica,sans-Serif" font-size="10.00">_buffer::index_of</text>
</a>
</g>
</g>
<!-- Node1&#45;&gt;Node2 -->
<g id="edge1" class="edge">
<title>Node1&#45;&gt;Node2</title>
<path fill="none" stroke="midnightblue" d="M120.28,-49.38C128.55,-50.76 137.08,-52.18 145.46,-53.58"/>
<polygon fill="midnightblue" stroke="midnightblue" points="145.13,-57.07 155.57,-55.26 146.28,-50.16 145.13,-57.07"/>
</g>
<!-- Node3 -->
<g id="node3" class="node">
<title>Node3</title>
<g id="a_node3"><a xlink:href="../../d7/ddc/classuxn_1_1patl_1_1impl_1_1ring__buffer.html#afda5a14d91fbdcf42da666bfdcc4368e" target="_top" xlink:title=" ">
<polygon fill="none" stroke="black" points="156,-0.5 156,-30.5 268,-30.5 268,-0.5 156,-0.5"/>
<text text-anchor="start" x="164" y="-18.5" font-family="Helvetica,sans-Serif" font-size="10.00">uxn::patl::impl::ring</text>
<text text-anchor="middle" x="212" y="-7.5" font-family="Helvetica,sans-Serif" font-size="10.00">_buffer::reserve</text>
</a>
</g>
</g>
<!-- Node1&#45;&gt;Node3 -->
<g id="edge2" class="edge">
<title>Node1&#45;&gt;Node3</title>
<path fill="none" stroke="midnightblue" d="M120.28,-30.01C128.55,-28.69 137.08,-27.33 145.46,-25.99"/>
<polygon fill="midnightblue" stroke="midnightblue" points="146.24,-29.41 155.57,-24.37 145.14,-22.49 146.24,-29.41"/>
</g>
</g>
</svg>
