<?xml version="1.0" encoding="UTF-8" standalone="no"?>
<!DOCTYPE svg PUBLIC "-//W3C//DTD SVG 1.1//EN"
 "http://www.w3.org/Graphics/SVG/1.1/DTD/svg11.dtd">
<!-- Generated by graphviz version 5.0.1 (20220820.1526)
 -->
<!-- Title: uxn::patl::impl::suffix_generic::rebind Pages: 1 -->
<svg width="318pt" height="66pt"
 viewBox="0.00 0.00 318.00 66.00" xmlns="http://www.w3.org/2000/svg" xmlns:xlink="http://www.w3.org/1999/xlink">
<g id="graph0" class="graph" transform="scale(1 1) rotate(0) translate(4 62)">
<title>uxn::patl::impl::suffix_generic::rebind</title>
<!-- Node1 -->
<g id="node1" class="node">
<title>Node1</title>
<g id="a_node1"><a xlink:title=" ">
<polygon fill="#bfbfbf" stroke="black" points="190,-14 190,-44 310,-44 310,-14 190,-14"/>
<text text-anchor="start" x="198" y="-32" font-family="Helvetica,sans-Serif" font-size="10.00">uxn::patl::impl::suffix</text>
<text text-anchor="middle" x="250" y="-21" font-family="Helvetica,sans-Serif" font-size="10.00">_generic::rebind</text>
</a>
</g>
</g>
<!-- Node2 -->
<g id="node2" class="node">
<title>Node2</title>
<g id="a_node2"><a xlink:href="../../d3/d87/lz77_8cpp.html#a96bf5c98cb36266e461ecf6f31ac3aa7" target="_top" xlink:title=" ">
<polygon fill="none" stroke="black" points="77,-38.5 77,-57.5 154,-57.5 154,-38.5 77,-38.5"/>
<text text-anchor="middle" x="115.5" y="-45.5" font-family="Helvetica,sans-Serif" font-size="10.00">lz_compress</text>
</a>
</g>
</g>
<!-- Node1&#45;&gt;Node2 -->
<g id="edge1" class="edge">
<title>Node1&#45;&gt;Node2</title>
<path fill="none" stroke="midnightblue" d="M179.74,-38.93C170.89,-40.2 162.12,-41.46 154.05,-42.62"/>
<polygon fill="midnightblue" stroke="midnightblue" points="180.32,-42.38 189.73,-37.5 179.33,-35.45 180.32,-42.38"/>
</g>
<!-- Node4 -->
<g id="node4" class="node">
<title>Node4</title>
<g id="a_node4"><a xlink:href="../../d1/db2/insider_8cpp.html#ae66f6b31b5ad750f1fe042a706a4e3d4" target="_top" xlink:title=" ">
<polygon fill="none" stroke="black" points="95,-0.5 95,-19.5 136,-19.5 136,-0.5 95,-0.5"/>
<text text-anchor="middle" x="115.5" y="-7.5" font-family="Helvetica,sans-Serif" font-size="10.00">main</text>
</a>
</g>
</g>
<!-- Node1&#45;&gt;Node4 -->
<g id="edge3" class="edge">
<title>Node1&#45;&gt;Node4</title>
<path fill="none" stroke="midnightblue" d="M179.74,-19.07C163.7,-16.77 147.89,-14.5 136.1,-12.81"/>
<polygon fill="midnightblue" stroke="midnightblue" points="179.33,-22.55 189.73,-20.5 180.32,-15.62 179.33,-22.55"/>
</g>
<!-- Node3 -->
<g id="node3" class="node">
<title>Node3</title>
<g id="a_node3"><a xlink:href="../../d3/d87/lz77_8cpp.html#a0ddf1224851353fc92bfbff6f499fa97" target="_top" xlink:title=" ">
<polygon fill="none" stroke="black" points="0,-38.5 0,-57.5 41,-57.5 41,-38.5 0,-38.5"/>
<text text-anchor="middle" x="20.5" y="-45.5" font-family="Helvetica,sans-Serif" font-size="10.00">main</text>
</a>
</g>
</g>
<!-- Node2&#45;&gt;Node3 -->
<g id="edge2" class="edge">
<title>Node2&#45;&gt;Node3</title>
<path fill="none" stroke="midnightblue" d="M66.73,-48C57.65,-48 48.63,-48 41.06,-48"/>
<polygon fill="midnightblue" stroke="midnightblue" points="66.94,-51.5 76.94,-48 66.94,-44.5 66.94,-51.5"/>
</g>
</g>
</svg>
