<?xml version="1.0" encoding="UTF-8" standalone="no"?>
<!DOCTYPE svg PUBLIC "-//W3C//DTD SVG 1.1//EN"
 "http://www.w3.org/Graphics/SVG/1.1/DTD/svg11.dtd">
<!-- Generated by graphviz version 5.0.1 (20220820.1526)
 -->
<!-- Title: uxn::patl::impl::suffix_generic::keys Pages: 1 -->
<svg width="509pt" height="134pt"
 viewBox="0.00 0.00 509.00 133.50" xmlns="http://www.w3.org/2000/svg" xmlns:xlink="http://www.w3.org/1999/xlink">
<g id="graph0" class="graph" transform="scale(1 1) rotate(0) translate(4 129.5)">
<title>uxn::patl::impl::suffix_generic::keys</title>
<!-- Node1 -->
<g id="node1" class="node">
<title>Node1</title>
<g id="a_node1"><a xlink:title=" ">
<polygon fill="#bfbfbf" stroke="black" points="381,-44.5 381,-74.5 501,-74.5 501,-44.5 381,-44.5"/>
<text text-anchor="start" x="389" y="-62.5" font-family="Helvetica,sans-Serif" font-size="10.00">uxn::patl::impl::suffix</text>
<text text-anchor="middle" x="441" y="-51.5" font-family="Helvetica,sans-Serif" font-size="10.00">_generic::keys</text>
</a>
</g>
</g>
<!-- Node2 -->
<g id="node2" class="node">
<title>Node2</title>
<g id="a_node2"><a xlink:href="../../d1/db2/insider_8cpp.html#ae66f6b31b5ad750f1fe042a706a4e3d4" target="_top" xlink:title=" ">
<polygon fill="none" stroke="black" points="95,-47 95,-66 136,-66 136,-47 95,-47"/>
<text text-anchor="middle" x="115.5" y="-54" font-family="Helvetica,sans-Serif" font-size="10.00">main</text>
</a>
</g>
</g>
<!-- Node1&#45;&gt;Node2 -->
<g id="edge1" class="edge">
<title>Node1&#45;&gt;Node2</title>
<path fill="none" stroke="midnightblue" d="M370.4,-58.85C295.73,-58.16 181.75,-57.11 136.26,-56.68"/>
<polygon fill="midnightblue" stroke="midnightblue" points="370.63,-62.36 380.67,-58.95 370.7,-55.36 370.63,-62.36"/>
</g>
<!-- Node3 -->
<g id="node3" class="node">
<title>Node3</title>
<g id="a_node3"><a xlink:href="../../d2/d55/multi__align_8cpp.html#a8bb6226b18c9169ccad9269f94d55e27" target="_top" xlink:title=" ">
<polygon fill="none" stroke="black" points="190,-88 190,-107 345,-107 345,-88 190,-88"/>
<text text-anchor="middle" x="267.5" y="-95" font-family="Helvetica,sans-Serif" font-size="10.00">multiple_common_substring</text>
</a>
</g>
</g>
<!-- Node1&#45;&gt;Node3 -->
<g id="edge2" class="edge">
<title>Node1&#45;&gt;Node3</title>
<path fill="none" stroke="midnightblue" d="M371.19,-74.75C350.98,-79.22 329.47,-83.99 311.38,-88"/>
<polygon fill="midnightblue" stroke="midnightblue" points="371.97,-78.16 380.98,-72.58 370.46,-71.32 371.97,-78.16"/>
</g>
<!-- Node5 -->
<g id="node5" class="node">
<title>Node5</title>
<g id="a_node5"><a xlink:href="../../db/db7/classuxn_1_1patl_1_1impl_1_1suffix__generic.html#a4911ef44eacdb8fd9169fa7327941b3b" target="_top" xlink:title=" ">
<polygon fill="none" stroke="black" points="207.5,-0.5 207.5,-30.5 327.5,-30.5 327.5,-0.5 207.5,-0.5"/>
<text text-anchor="start" x="215.5" y="-18.5" font-family="Helvetica,sans-Serif" font-size="10.00">uxn::patl::impl::suffix</text>
<text text-anchor="middle" x="267.5" y="-7.5" font-family="Helvetica,sans-Serif" font-size="10.00">_generic::rebind</text>
</a>
</g>
</g>
<!-- Node1&#45;&gt;Node5 -->
<g id="edge5" class="edge">
<title>Node1&#45;&gt;Node5</title>
<path fill="none" stroke="midnightblue" d="M371.42,-41.91C356.73,-38.14 341.34,-34.19 327.07,-30.53"/>
<polygon fill="midnightblue" stroke="midnightblue" points="370.9,-45.39 381.46,-44.48 372.64,-38.61 370.9,-45.39"/>
</g>
<!-- Node3&#45;&gt;Node3 -->
<g id="edge4" class="edge">
<title>Node3&#45;&gt;Node3</title>
<path fill="none" stroke="midnightblue" d="M295.87,-116.15C294.69,-121.44 285.23,-125.5 267.5,-125.5 240.48,-125.5 232.68,-116.07 244.07,-107.26"/>
<polygon fill="midnightblue" stroke="midnightblue" points="298.84,-114.3 290.93,-107.26 292.73,-117.7 298.84,-114.3"/>
</g>
<!-- Node4 -->
<g id="node4" class="node">
<title>Node4</title>
<g id="a_node4"><a xlink:href="../../d2/d55/multi__align_8cpp.html#a0ddf1224851353fc92bfbff6f499fa97" target="_top" xlink:title=" ">
<polygon fill="none" stroke="black" points="95,-88 95,-107 136,-107 136,-88 95,-88"/>
<text text-anchor="middle" x="115.5" y="-95" font-family="Helvetica,sans-Serif" font-size="10.00">main</text>
</a>
</g>
</g>
<!-- Node3&#45;&gt;Node4 -->
<g id="edge3" class="edge">
<title>Node3&#45;&gt;Node4</title>
<path fill="none" stroke="midnightblue" d="M179.53,-97.5C163.24,-97.5 147.72,-97.5 136.16,-97.5"/>
<polygon fill="midnightblue" stroke="midnightblue" points="179.74,-101 189.74,-97.5 179.74,-94 179.74,-101"/>
</g>
<!-- Node5&#45;&gt;Node2 -->
<g id="edge8" class="edge">
<title>Node5&#45;&gt;Node2</title>
<path fill="none" stroke="midnightblue" d="M201.83,-33.18C178.19,-39.64 153.15,-46.48 136.35,-51.07"/>
<polygon fill="midnightblue" stroke="midnightblue" points="202.77,-36.55 211.5,-30.53 200.93,-29.79 202.77,-36.55"/>
</g>
<!-- Node6 -->
<g id="node6" class="node">
<title>Node6</title>
<g id="a_node6"><a xlink:href="../../d3/d87/lz77_8cpp.html#a96bf5c98cb36266e461ecf6f31ac3aa7" target="_top" xlink:title=" ">
<polygon fill="none" stroke="black" points="77,-6 77,-25 154,-25 154,-6 77,-6"/>
<text text-anchor="middle" x="115.5" y="-13" font-family="Helvetica,sans-Serif" font-size="10.00">lz_compress</text>
</a>
</g>
</g>
<!-- Node5&#45;&gt;Node6 -->
<g id="edge6" class="edge">
<title>Node5&#45;&gt;Node6</title>
<path fill="none" stroke="midnightblue" d="M197.07,-15.5C182.31,-15.5 167.26,-15.5 154.22,-15.5"/>
<polygon fill="midnightblue" stroke="midnightblue" points="197.22,-19 207.22,-15.5 197.22,-12 197.22,-19"/>
</g>
<!-- Node7 -->
<g id="node7" class="node">
<title>Node7</title>
<g id="a_node7"><a xlink:href="../../d3/d87/lz77_8cpp.html#a0ddf1224851353fc92bfbff6f499fa97" target="_top" xlink:title=" ">
<polygon fill="none" stroke="black" points="0,-6 0,-25 41,-25 41,-6 0,-6"/>
<text text-anchor="middle" x="20.5" y="-13" font-family="Helvetica,sans-Serif" font-size="10.00">main</text>
</a>
</g>
</g>
<!-- Node6&#45;&gt;Node7 -->
<g id="edge7" class="edge">
<title>Node6&#45;&gt;Node7</title>
<path fill="none" stroke="midnightblue" d="M66.73,-15.5C57.65,-15.5 48.63,-15.5 41.06,-15.5"/>
<polygon fill="midnightblue" stroke="midnightblue" points="66.94,-19 76.94,-15.5 66.94,-12 66.94,-19"/>
</g>
</g>
</svg>
