<?xml version="1.0" encoding="UTF-8" standalone="no"?>
<!DOCTYPE svg PUBLIC "-//W3C//DTD SVG 1.1//EN"
 "http://www.w3.org/Graphics/SVG/1.1/DTD/svg11.dtd">
<!-- Generated by graphviz version 5.0.1 (20220820.1526)
 -->
<!-- Title: uxn::patl::impl::suffix_generic::pop_back Pages: 1 -->
<svg width="432pt" height="186pt"
 viewBox="0.00 0.00 432.00 186.00" xmlns="http://www.w3.org/2000/svg" xmlns:xlink="http://www.w3.org/1999/xlink">
<g id="graph0" class="graph" transform="scale(1 1) rotate(0) translate(4 182)">
<title>uxn::patl::impl::suffix_generic::pop_back</title>
<!-- Node1 -->
<g id="node1" class="node">
<title>Node1</title>
<g id="a_node1"><a xlink:title="erase back suffix">
<polygon fill="#bfbfbf" stroke="black" points="0,-73.5 0,-103.5 120,-103.5 120,-73.5 0,-73.5"/>
<text text-anchor="start" x="8" y="-91.5" font-family="Helvetica,sans-Serif" font-size="10.00">uxn::patl::impl::suffix</text>
<text text-anchor="middle" x="60" y="-80.5" font-family="Helvetica,sans-Serif" font-size="10.00">_generic::pop_back</text>
</a>
</g>
</g>
<!-- Node2 -->
<g id="node2" class="node">
<title>Node2</title>
<g id="a_node2"><a xlink:href="../../d7/ddc/classuxn_1_1patl_1_1impl_1_1ring__buffer.html#a91e3e603e6e1dba1912967bea3194b69" target="_top" xlink:title=" ">
<polygon fill="none" stroke="black" points="160,-147.5 160,-177.5 272,-177.5 272,-147.5 160,-147.5"/>
<text text-anchor="start" x="168" y="-165.5" font-family="Helvetica,sans-Serif" font-size="10.00">uxn::patl::impl::ring</text>
<text text-anchor="middle" x="216" y="-154.5" font-family="Helvetica,sans-Serif" font-size="10.00">_buffer::back</text>
</a>
</g>
</g>
<!-- Node1&#45;&gt;Node2 -->
<g id="edge1" class="edge">
<title>Node1&#45;&gt;Node2</title>
<path fill="none" stroke="midnightblue" d="M88.08,-103.66C106.9,-113.97 132.68,-127.65 156,-138.5 159.56,-140.16 163.28,-141.82 167.03,-143.45"/>
<polygon fill="midnightblue" stroke="midnightblue" points="165.79,-146.73 176.36,-147.42 168.53,-140.28 165.79,-146.73"/>
</g>
<!-- Node3 -->
<g id="node3" class="node">
<title>Node3</title>
<g id="a_node3"><a xlink:href="../../db/db7/classuxn_1_1patl_1_1impl_1_1suffix__generic.html#a571330e184188a382f424ee06908bb1b" target="_top" xlink:title=" ">
<polygon fill="none" stroke="black" points="156,-98.5 156,-128.5 276,-128.5 276,-98.5 156,-98.5"/>
<text text-anchor="start" x="164" y="-116.5" font-family="Helvetica,sans-Serif" font-size="10.00">uxn::patl::impl::suffix</text>
<text text-anchor="middle" x="216" y="-105.5" font-family="Helvetica,sans-Serif" font-size="10.00">_generic::erase_node</text>
</a>
</g>
</g>
<!-- Node1&#45;&gt;Node3 -->
<g id="edge2" class="edge">
<title>Node1&#45;&gt;Node3</title>
<path fill="none" stroke="midnightblue" d="M120.1,-98.09C128.51,-99.46 137.23,-100.87 145.81,-102.27"/>
<polygon fill="midnightblue" stroke="midnightblue" points="145.37,-105.74 155.8,-103.89 146.49,-98.83 145.37,-105.74"/>
</g>
<!-- Node4 -->
<g id="node4" class="node">
<title>Node4</title>
<g id="a_node4"><a xlink:href="../../db/db7/classuxn_1_1patl_1_1impl_1_1suffix__generic.html#adfbf6945c5896f08d3acace2c26b2f49" target="_top" xlink:title=" ">
<polygon fill="none" stroke="black" points="156,-49.5 156,-79.5 276,-79.5 276,-49.5 156,-49.5"/>
<text text-anchor="start" x="164" y="-67.5" font-family="Helvetica,sans-Serif" font-size="10.00">uxn::patl::impl::suffix</text>
<text text-anchor="middle" x="216" y="-56.5" font-family="Helvetica,sans-Serif" font-size="10.00">_generic::get_key</text>
</a>
</g>
</g>
<!-- Node1&#45;&gt;Node4 -->
<g id="edge3" class="edge">
<title>Node1&#45;&gt;Node4</title>
<path fill="none" stroke="midnightblue" d="M120.1,-79.29C128.51,-77.98 137.23,-76.62 145.81,-75.28"/>
<polygon fill="midnightblue" stroke="midnightblue" points="146.46,-78.72 155.8,-73.73 145.38,-71.81 146.46,-78.72"/>
</g>
<!-- Node6 -->
<g id="node6" class="node">
<title>Node6</title>
<g id="a_node6"><a xlink:href="../../d7/ddc/classuxn_1_1patl_1_1impl_1_1ring__buffer.html#a30faf2ceb002575a83be6453a76f46c7" target="_top" xlink:title=" ">
<polygon fill="none" stroke="black" points="160,-0.5 160,-30.5 272,-30.5 272,-0.5 160,-0.5"/>
<text text-anchor="start" x="168" y="-18.5" font-family="Helvetica,sans-Serif" font-size="10.00">uxn::patl::impl::ring</text>
<text text-anchor="middle" x="216" y="-7.5" font-family="Helvetica,sans-Serif" font-size="10.00">_buffer::pop_back</text>
</a>
</g>
</g>
<!-- Node1&#45;&gt;Node6 -->
<g id="edge5" class="edge">
<title>Node1&#45;&gt;Node6</title>
<path fill="none" stroke="midnightblue" d="M89.86,-73.29C108.56,-63.58 133.54,-50.92 156,-40.5 160.14,-38.58 164.47,-36.63 168.83,-34.71"/>
<polygon fill="midnightblue" stroke="midnightblue" points="170.54,-37.78 178.32,-30.59 167.76,-31.36 170.54,-37.78"/>
</g>
<!-- Node5 -->
<g id="node5" class="node">
<title>Node5</title>
<g id="a_node5"><a xlink:href="../../d7/ddc/classuxn_1_1patl_1_1impl_1_1ring__buffer.html#a0cb9f62a800a2b3f636ef598d5547df9" target="_top" xlink:title=" ">
<polygon fill="none" stroke="black" points="312,-49.5 312,-79.5 424,-79.5 424,-49.5 312,-49.5"/>
<text text-anchor="start" x="320" y="-67.5" font-family="Helvetica,sans-Serif" font-size="10.00">uxn::patl::impl::ring</text>
<text text-anchor="middle" x="368" y="-56.5" font-family="Helvetica,sans-Serif" font-size="10.00">_buffer::index_of</text>
</a>
</g>
</g>
<!-- Node4&#45;&gt;Node5 -->
<g id="edge4" class="edge">
<title>Node4&#45;&gt;Node5</title>
<path fill="none" stroke="midnightblue" d="M276.28,-64.5C284.55,-64.5 293.08,-64.5 301.46,-64.5"/>
<polygon fill="midnightblue" stroke="midnightblue" points="301.57,-68 311.57,-64.5 301.57,-61 301.57,-68"/>
</g>
</g>
</svg>
