<?xml version="1.0" encoding="UTF-8" standalone="no"?>
<!DOCTYPE svg PUBLIC "-//W3C//DTD SVG 1.1//EN"
 "http://www.w3.org/Graphics/SVG/1.1/DTD/svg11.dtd">
<!-- Generated by graphviz version 5.0.1 (20220820.1526)
 -->
<!-- Title: main Pages: 1 -->
<svg width="383pt" height="400pt"
 viewBox="0.00 0.00 383.00 400.00" xmlns="http://www.w3.org/2000/svg" xmlns:xlink="http://www.w3.org/1999/xlink">
<g id="graph0" class="graph" transform="scale(1 1) rotate(0) translate(4 396)">
<title>main</title>
<!-- Node1 -->
<g id="node1" class="node">
<title>Node1</title>
<g id="a_node1"><a xlink:title=" ">
<polygon fill="#bfbfbf" stroke="black" points="0,-192.5 0,-211.5 41,-211.5 41,-192.5 0,-192.5"/>
<text text-anchor="middle" x="20.5" y="-199.5" font-family="Helvetica,sans-Serif" font-size="10.00">main</text>
</a>
</g>
</g>
<!-- Node2 -->
<g id="node2" class="node">
<title>Node2</title>
<g id="a_node2"><a xlink:href="../../da/d22/sort__lin_8cpp.html#a2f51d3a4cc778d255bd27a465be2986b" target="_top" xlink:title=" ">
<polygon fill="none" stroke="black" points="77,-192.5 77,-211.5 187,-211.5 187,-192.5 77,-192.5"/>
<text text-anchor="middle" x="132" y="-199.5" font-family="Helvetica,sans-Serif" font-size="10.00">sort_huge_text_file</text>
</a>
</g>
</g>
<!-- Node1&#45;&gt;Node2 -->
<g id="edge1" class="edge">
<title>Node1&#45;&gt;Node2</title>
<path fill="none" stroke="midnightblue" d="M41.08,-202C48.49,-202 57.38,-202 66.66,-202"/>
<polygon fill="midnightblue" stroke="midnightblue" points="66.83,-205.5 76.83,-202 66.83,-198.5 66.83,-205.5"/>
</g>
<!-- Node3 -->
<g id="node3" class="node">
<title>Node3</title>
<g id="a_node3"><a xlink:href="../../d8/d3c/classpiece.html#a14b7ea47d46175f8158bb54132d4d444" target="_top" xlink:title=" ">
<polygon fill="none" stroke="black" points="261,-372.5 261,-391.5 337,-391.5 337,-372.5 261,-372.5"/>
<text text-anchor="middle" x="299" y="-379.5" font-family="Helvetica,sans-Serif" font-size="10.00">piece::begin</text>
</a>
</g>
</g>
<!-- Node2&#45;&gt;Node3 -->
<g id="edge2" class="edge">
<title>Node2&#45;&gt;Node3</title>
<path fill="none" stroke="midnightblue" d="M135.51,-211.76C143.27,-239.95 169.65,-322.06 223,-363 231.07,-369.19 240.93,-373.39 250.82,-376.22"/>
<polygon fill="midnightblue" stroke="midnightblue" points="250.1,-379.65 260.65,-378.62 251.76,-372.85 250.1,-379.65"/>
</g>
<!-- Node4 -->
<g id="node4" class="node">
<title>Node4</title>
<g id="a_node4"><a xlink:href="../../df/d91/namespaceuxn_1_1patl_1_1aux.html#a46704b78e389b452d1434308b5d92cce" target="_top" xlink:title=" ">
<polygon fill="none" stroke="black" points="229,-334.5 229,-353.5 369,-353.5 369,-334.5 229,-334.5"/>
<text text-anchor="middle" x="299" y="-341.5" font-family="Helvetica,sans-Serif" font-size="10.00">uxn::patl::aux::delete_file</text>
</a>
</g>
</g>
<!-- Node2&#45;&gt;Node4 -->
<g id="edge3" class="edge">
<title>Node2&#45;&gt;Node4</title>
<path fill="none" stroke="midnightblue" d="M137.25,-211.77C147.97,-235.22 178.47,-294.95 223,-325 226.08,-327.08 229.36,-328.92 232.78,-330.57"/>
<polygon fill="midnightblue" stroke="midnightblue" points="231.48,-333.82 242.06,-334.48 234.2,-327.37 231.48,-333.82"/>
</g>
<!-- Node5 -->
<g id="node5" class="node">
<title>Node5</title>
<g id="a_node5"><a xlink:href="../../d8/d3c/classpiece.html#a658a8607b2ca6bca43d4dea17620297a" target="_top" xlink:title=" ">
<polygon fill="none" stroke="black" points="259,-296.5 259,-315.5 339,-315.5 339,-296.5 259,-296.5"/>
<text text-anchor="middle" x="299" y="-303.5" font-family="Helvetica,sans-Serif" font-size="10.00">piece::empty</text>
</a>
</g>
</g>
<!-- Node2&#45;&gt;Node5 -->
<g id="edge4" class="edge">
<title>Node2&#45;&gt;Node5</title>
<path fill="none" stroke="midnightblue" d="M140.28,-211.56C154.29,-229.25 186.84,-267.13 223,-287 231.04,-291.42 240.13,-294.83 249.13,-297.46"/>
<polygon fill="midnightblue" stroke="midnightblue" points="248.26,-300.85 258.82,-300.02 250.04,-294.08 248.26,-300.85"/>
</g>
<!-- Node6 -->
<g id="node6" class="node">
<title>Node6</title>
<g id="a_node6"><a xlink:href="../../de/d34/classstrings__from__merged__files__generator.html#a14507e3e2f7b680f704197292767c6c4" target="_top" xlink:title=" ">
<polygon fill="none" stroke="black" points="238.5,-236.5 238.5,-277.5 359.5,-277.5 359.5,-236.5 238.5,-236.5"/>
<text text-anchor="start" x="246.5" y="-265.5" font-family="Helvetica,sans-Serif" font-size="10.00">strings_from_merged</text>
<text text-anchor="start" x="246.5" y="-254.5" font-family="Helvetica,sans-Serif" font-size="10.00">_files_generator::first</text>
<text text-anchor="middle" x="299" y="-243.5" font-family="Helvetica,sans-Serif" font-size="10.00">_tmpfname</text>
</a>
</g>
</g>
<!-- Node2&#45;&gt;Node6 -->
<g id="edge5" class="edge">
<title>Node2&#45;&gt;Node6</title>
<path fill="none" stroke="midnightblue" d="M161.74,-211.58C180.24,-217.75 205.14,-226.05 228.58,-233.86"/>
<polygon fill="midnightblue" stroke="midnightblue" points="227.58,-237.21 238.17,-237.06 229.79,-230.57 227.58,-237.21"/>
</g>
<!-- Node7 -->
<g id="node7" class="node">
<title>Node7</title>
<g id="a_node7"><a xlink:href="../../df/d91/namespaceuxn_1_1patl_1_1aux.html#a14b7d18f53570d26aac1bc74f5729b2b" target="_top" xlink:title=" ">
<polygon fill="none" stroke="black" points="246.5,-187 246.5,-217 351.5,-217 351.5,-187 246.5,-187"/>
<text text-anchor="start" x="254.5" y="-205" font-family="Helvetica,sans-Serif" font-size="10.00">uxn::patl::aux::get</text>
<text text-anchor="middle" x="299" y="-194" font-family="Helvetica,sans-Serif" font-size="10.00">_temp_file_name</text>
</a>
</g>
</g>
<!-- Node2&#45;&gt;Node7 -->
<g id="edge6" class="edge">
<title>Node2&#45;&gt;Node7</title>
<path fill="none" stroke="midnightblue" d="M187.03,-202C202.68,-202 219.89,-202 235.99,-202"/>
<polygon fill="midnightblue" stroke="midnightblue" points="236.38,-205.5 246.38,-202 236.38,-198.5 236.38,-205.5"/>
</g>
<!-- Node8 -->
<g id="node8" class="node">
<title>Node8</title>
<g id="a_node8"><a xlink:href="../../d8/d3c/classpiece.html#a278f277a34dd7f6954b787bd7ad3dddb" target="_top" xlink:title=" ">
<polygon fill="none" stroke="black" points="259,-148.5 259,-167.5 339,-167.5 339,-148.5 259,-148.5"/>
<text text-anchor="middle" x="299" y="-155.5" font-family="Helvetica,sans-Serif" font-size="10.00">piece::length</text>
</a>
</g>
</g>
<!-- Node2&#45;&gt;Node8 -->
<g id="edge7" class="edge">
<title>Node2&#45;&gt;Node8</title>
<path fill="none" stroke="midnightblue" d="M168.8,-192.45C193.34,-185.91 226.1,-177.17 252.5,-170.13"/>
<polygon fill="midnightblue" stroke="midnightblue" points="253.51,-173.49 262.27,-167.53 251.7,-166.72 253.51,-173.49"/>
</g>
<!-- Node9 -->
<g id="node9" class="node">
<title>Node9</title>
<g id="a_node9"><a xlink:href="../../df/d91/namespaceuxn_1_1patl_1_1aux.html#a84de1d8ea56669ac53ce79d0b20892c4" target="_top" xlink:title=" ">
<polygon fill="none" stroke="black" points="230.5,-110.5 230.5,-129.5 367.5,-129.5 367.5,-110.5 230.5,-110.5"/>
<text text-anchor="middle" x="299" y="-117.5" font-family="Helvetica,sans-Serif" font-size="10.00">uxn::patl::aux::move_file</text>
</a>
</g>
</g>
<!-- Node2&#45;&gt;Node9 -->
<g id="edge8" class="edge">
<title>Node2&#45;&gt;Node9</title>
<path fill="none" stroke="midnightblue" d="M143.83,-192.42C159.97,-178.63 191.79,-153.29 223,-139 228.32,-136.56 234,-134.41 239.77,-132.5"/>
<polygon fill="midnightblue" stroke="midnightblue" points="240.95,-135.8 249.5,-129.54 238.91,-129.1 240.95,-135.8"/>
</g>
<!-- Node10 -->
<g id="node10" class="node">
<title>Node10</title>
<g id="a_node10"><a xlink:href="../../de/d34/classstrings__from__merged__files__generator.html#afaa6b85aee343c914e1368e33b18be61" target="_top" xlink:title=" ">
<polygon fill="none" stroke="black" points="223,-61 223,-91 375,-91 375,-61 223,-61"/>
<text text-anchor="start" x="231" y="-79" font-family="Helvetica,sans-Serif" font-size="10.00">strings_from_merged</text>
<text text-anchor="middle" x="299" y="-68" font-family="Helvetica,sans-Serif" font-size="10.00">_files_generator::push_front</text>
</a>
</g>
</g>
<!-- Node2&#45;&gt;Node10 -->
<g id="edge9" class="edge">
<title>Node2&#45;&gt;Node10</title>
<path fill="none" stroke="midnightblue" d="M138.98,-192.43C151.89,-172.54 184.36,-126.45 223,-101 226.11,-98.95 229.39,-97.06 232.79,-95.31"/>
<polygon fill="midnightblue" stroke="midnightblue" points="234.41,-98.42 241.99,-91.01 231.45,-92.08 234.41,-98.42"/>
</g>
<!-- Node11 -->
<g id="node11" class="node">
<title>Node11</title>
<g id="a_node11"><a xlink:href="../../de/d34/classstrings__from__merged__files__generator.html#a17bc7a447b082ea1186c9c8e42e3026a" target="_top" xlink:title=" ">
<polygon fill="none" stroke="black" points="238.5,-0.5 238.5,-41.5 359.5,-41.5 359.5,-0.5 238.5,-0.5"/>
<text text-anchor="start" x="246.5" y="-29.5" font-family="Helvetica,sans-Serif" font-size="10.00">strings_from_merged</text>
<text text-anchor="start" x="246.5" y="-18.5" font-family="Helvetica,sans-Serif" font-size="10.00">_files_generator::sole</text>
<text text-anchor="middle" x="299" y="-7.5" font-family="Helvetica,sans-Serif" font-size="10.00">_tmpfname</text>
</a>
</g>
</g>
<!-- Node2&#45;&gt;Node11 -->
<g id="edge10" class="edge">
<title>Node2&#45;&gt;Node11</title>
<path fill="none" stroke="midnightblue" d="M136.39,-192.13C145.92,-165.78 175.37,-93.03 223,-52 225.01,-50.27 227.13,-48.63 229.33,-47.07"/>
<polygon fill="midnightblue" stroke="midnightblue" points="231.6,-49.77 238.17,-41.46 227.85,-43.86 231.6,-49.77"/>
</g>
</g>
</svg>
