<?xml version="1.0" encoding="UTF-8" standalone="no"?>
<!DOCTYPE svg PUBLIC "-//W3C//DTD SVG 1.1//EN"
 "http://www.w3.org/Graphics/SVG/1.1/DTD/svg11.dtd">
<!-- Generated by graphviz version 5.0.1 (20220820.1526)
 -->
<!-- Title: sort_huge_text_file Pages: 1 -->
<svg width="306pt" height="400pt"
 viewBox="0.00 0.00 306.00 400.00" xmlns="http://www.w3.org/2000/svg" xmlns:xlink="http://www.w3.org/1999/xlink">
<g id="graph0" class="graph" transform="scale(1 1) rotate(0) translate(4 396)">
<title>sort_huge_text_file</title>
<!-- Node1 -->
<g id="node1" class="node">
<title>Node1</title>
<g id="a_node1"><a xlink:title=" ">
<polygon fill="#bfbfbf" stroke="black" points="0,-192.5 0,-211.5 110,-211.5 110,-192.5 0,-192.5"/>
<text text-anchor="middle" x="55" y="-199.5" font-family="Helvetica,sans-Serif" font-size="10.00">sort_huge_text_file</text>
</a>
</g>
</g>
<!-- Node2 -->
<g id="node2" class="node">
<title>Node2</title>
<g id="a_node2"><a xlink:href="../../d8/d3c/classpiece.html#a14b7ea47d46175f8158bb54132d4d444" target="_top" xlink:title=" ">
<polygon fill="none" stroke="black" points="184,-372.5 184,-391.5 260,-391.5 260,-372.5 184,-372.5"/>
<text text-anchor="middle" x="222" y="-379.5" font-family="Helvetica,sans-Serif" font-size="10.00">piece::begin</text>
</a>
</g>
</g>
<!-- Node1&#45;&gt;Node2 -->
<g id="edge1" class="edge">
<title>Node1&#45;&gt;Node2</title>
<path fill="none" stroke="midnightblue" d="M58.51,-211.76C66.27,-239.95 92.65,-322.06 146,-363 154.07,-369.19 163.93,-373.39 173.82,-376.22"/>
<polygon fill="midnightblue" stroke="midnightblue" points="173.1,-379.65 183.65,-378.62 174.76,-372.85 173.1,-379.65"/>
</g>
<!-- Node3 -->
<g id="node3" class="node">
<title>Node3</title>
<g id="a_node3"><a xlink:href="../../df/d91/namespaceuxn_1_1patl_1_1aux.html#a46704b78e389b452d1434308b5d92cce" target="_top" xlink:title=" ">
<polygon fill="none" stroke="black" points="152,-334.5 152,-353.5 292,-353.5 292,-334.5 152,-334.5"/>
<text text-anchor="middle" x="222" y="-341.5" font-family="Helvetica,sans-Serif" font-size="10.00">uxn::patl::aux::delete_file</text>
</a>
</g>
</g>
<!-- Node1&#45;&gt;Node3 -->
<g id="edge2" class="edge">
<title>Node1&#45;&gt;Node3</title>
<path fill="none" stroke="midnightblue" d="M60.25,-211.77C70.97,-235.22 101.47,-294.95 146,-325 149.08,-327.08 152.36,-328.92 155.78,-330.57"/>
<polygon fill="midnightblue" stroke="midnightblue" points="154.48,-333.82 165.06,-334.48 157.2,-327.37 154.48,-333.82"/>
</g>
<!-- Node4 -->
<g id="node4" class="node">
<title>Node4</title>
<g id="a_node4"><a xlink:href="../../d8/d3c/classpiece.html#a658a8607b2ca6bca43d4dea17620297a" target="_top" xlink:title=" ">
<polygon fill="none" stroke="black" points="182,-296.5 182,-315.5 262,-315.5 262,-296.5 182,-296.5"/>
<text text-anchor="middle" x="222" y="-303.5" font-family="Helvetica,sans-Serif" font-size="10.00">piece::empty</text>
</a>
</g>
</g>
<!-- Node1&#45;&gt;Node4 -->
<g id="edge3" class="edge">
<title>Node1&#45;&gt;Node4</title>
<path fill="none" stroke="midnightblue" d="M63.28,-211.56C77.29,-229.25 109.84,-267.13 146,-287 154.04,-291.42 163.13,-294.83 172.13,-297.46"/>
<polygon fill="midnightblue" stroke="midnightblue" points="171.26,-300.85 181.82,-300.02 173.04,-294.08 171.26,-300.85"/>
</g>
<!-- Node5 -->
<g id="node5" class="node">
<title>Node5</title>
<g id="a_node5"><a xlink:href="../../de/d34/classstrings__from__merged__files__generator.html#a14507e3e2f7b680f704197292767c6c4" target="_top" xlink:title=" ">
<polygon fill="none" stroke="black" points="161.5,-236.5 161.5,-277.5 282.5,-277.5 282.5,-236.5 161.5,-236.5"/>
<text text-anchor="start" x="169.5" y="-265.5" font-family="Helvetica,sans-Serif" font-size="10.00">strings_from_merged</text>
<text text-anchor="start" x="169.5" y="-254.5" font-family="Helvetica,sans-Serif" font-size="10.00">_files_generator::first</text>
<text text-anchor="middle" x="222" y="-243.5" font-family="Helvetica,sans-Serif" font-size="10.00">_tmpfname</text>
</a>
</g>
</g>
<!-- Node1&#45;&gt;Node5 -->
<g id="edge4" class="edge">
<title>Node1&#45;&gt;Node5</title>
<path fill="none" stroke="midnightblue" d="M84.74,-211.58C103.24,-217.75 128.14,-226.05 151.58,-233.86"/>
<polygon fill="midnightblue" stroke="midnightblue" points="150.58,-237.21 161.17,-237.06 152.79,-230.57 150.58,-237.21"/>
</g>
<!-- Node6 -->
<g id="node6" class="node">
<title>Node6</title>
<g id="a_node6"><a xlink:href="../../df/d91/namespaceuxn_1_1patl_1_1aux.html#a14b7d18f53570d26aac1bc74f5729b2b" target="_top" xlink:title=" ">
<polygon fill="none" stroke="black" points="169.5,-187 169.5,-217 274.5,-217 274.5,-187 169.5,-187"/>
<text text-anchor="start" x="177.5" y="-205" font-family="Helvetica,sans-Serif" font-size="10.00">uxn::patl::aux::get</text>
<text text-anchor="middle" x="222" y="-194" font-family="Helvetica,sans-Serif" font-size="10.00">_temp_file_name</text>
</a>
</g>
</g>
<!-- Node1&#45;&gt;Node6 -->
<g id="edge5" class="edge">
<title>Node1&#45;&gt;Node6</title>
<path fill="none" stroke="midnightblue" d="M110.03,-202C125.68,-202 142.89,-202 158.99,-202"/>
<polygon fill="midnightblue" stroke="midnightblue" points="159.38,-205.5 169.38,-202 159.38,-198.5 159.38,-205.5"/>
</g>
<!-- Node7 -->
<g id="node7" class="node">
<title>Node7</title>
<g id="a_node7"><a xlink:href="../../d8/d3c/classpiece.html#a278f277a34dd7f6954b787bd7ad3dddb" target="_top" xlink:title=" ">
<polygon fill="none" stroke="black" points="182,-148.5 182,-167.5 262,-167.5 262,-148.5 182,-148.5"/>
<text text-anchor="middle" x="222" y="-155.5" font-family="Helvetica,sans-Serif" font-size="10.00">piece::length</text>
</a>
</g>
</g>
<!-- Node1&#45;&gt;Node7 -->
<g id="edge6" class="edge">
<title>Node1&#45;&gt;Node7</title>
<path fill="none" stroke="midnightblue" d="M91.8,-192.45C116.34,-185.91 149.1,-177.17 175.5,-170.13"/>
<polygon fill="midnightblue" stroke="midnightblue" points="176.51,-173.49 185.27,-167.53 174.7,-166.72 176.51,-173.49"/>
</g>
<!-- Node8 -->
<g id="node8" class="node">
<title>Node8</title>
<g id="a_node8"><a xlink:href="../../df/d91/namespaceuxn_1_1patl_1_1aux.html#a84de1d8ea56669ac53ce79d0b20892c4" target="_top" xlink:title=" ">
<polygon fill="none" stroke="black" points="153.5,-110.5 153.5,-129.5 290.5,-129.5 290.5,-110.5 153.5,-110.5"/>
<text text-anchor="middle" x="222" y="-117.5" font-family="Helvetica,sans-Serif" font-size="10.00">uxn::patl::aux::move_file</text>
</a>
</g>
</g>
<!-- Node1&#45;&gt;Node8 -->
<g id="edge7" class="edge">
<title>Node1&#45;&gt;Node8</title>
<path fill="none" stroke="midnightblue" d="M66.83,-192.42C82.97,-178.63 114.79,-153.29 146,-139 151.32,-136.56 157,-134.41 162.77,-132.5"/>
<polygon fill="midnightblue" stroke="midnightblue" points="163.95,-135.8 172.5,-129.54 161.91,-129.1 163.95,-135.8"/>
</g>
<!-- Node9 -->
<g id="node9" class="node">
<title>Node9</title>
<g id="a_node9"><a xlink:href="../../de/d34/classstrings__from__merged__files__generator.html#afaa6b85aee343c914e1368e33b18be61" target="_top" xlink:title=" ">
<polygon fill="none" stroke="black" points="146,-61 146,-91 298,-91 298,-61 146,-61"/>
<text text-anchor="start" x="154" y="-79" font-family="Helvetica,sans-Serif" font-size="10.00">strings_from_merged</text>
<text text-anchor="middle" x="222" y="-68" font-family="Helvetica,sans-Serif" font-size="10.00">_files_generator::push_front</text>
</a>
</g>
</g>
<!-- Node1&#45;&gt;Node9 -->
<g id="edge8" class="edge">
<title>Node1&#45;&gt;Node9</title>
<path fill="none" stroke="midnightblue" d="M61.98,-192.43C74.89,-172.54 107.36,-126.45 146,-101 149.11,-98.95 152.39,-97.06 155.79,-95.31"/>
<polygon fill="midnightblue" stroke="midnightblue" points="157.41,-98.42 164.99,-91.01 154.45,-92.08 157.41,-98.42"/>
</g>
<!-- Node10 -->
<g id="node10" class="node">
<title>Node10</title>
<g id="a_node10"><a xlink:href="../../de/d34/classstrings__from__merged__files__generator.html#a17bc7a447b082ea1186c9c8e42e3026a" target="_top" xlink:title=" ">
<polygon fill="none" stroke="black" points="161.5,-0.5 161.5,-41.5 282.5,-41.5 282.5,-0.5 161.5,-0.5"/>
<text text-anchor="start" x="169.5" y="-29.5" font-family="Helvetica,sans-Serif" font-size="10.00">strings_from_merged</text>
<text text-anchor="start" x="169.5" y="-18.5" font-family="Helvetica,sans-Serif" font-size="10.00">_files_generator::sole</text>
<text text-anchor="middle" x="222" y="-7.5" font-family="Helvetica,sans-Serif" font-size="10.00">_tmpfname</text>
</a>
</g>
</g>
<!-- Node1&#45;&gt;Node10 -->
<g id="edge9" class="edge">
<title>Node1&#45;&gt;Node10</title>
<path fill="none" stroke="midnightblue" d="M59.39,-192.13C68.92,-165.78 98.37,-93.03 146,-52 148.01,-50.27 150.13,-48.63 152.33,-47.07"/>
<polygon fill="midnightblue" stroke="midnightblue" points="154.6,-49.77 161.17,-41.46 150.85,-43.86 154.6,-49.77"/>
</g>
</g>
</svg>
