<?xml version="1.0" encoding="UTF-8" standalone="no"?>
<!DOCTYPE svg PUBLIC "-//W3C//DTD SVG 1.1//EN"
 "http://www.w3.org/Graphics/SVG/1.1/DTD/svg11.dtd">
<!-- Generated by graphviz version 5.0.1 (20220820.1526)
 -->
<!-- Title: uxn/demos/word_suffix/word_suffix.cpp Pages: 1 -->
<svg width="1440pt" height="397pt"
 viewBox="0.00 0.00 1440.46 397.00" xmlns="http://www.w3.org/2000/svg" xmlns:xlink="http://www.w3.org/1999/xlink">
<g id="graph0" class="graph" transform="scale(1 1) rotate(0) translate(4 393)">
<title>uxn/demos/word_suffix/word_suffix.cpp</title>
<!-- Node1 -->
<g id="node1" class="node">
<title>Node1</title>
<g id="a_node1"><a xlink:title=" ">
<polygon fill="#bfbfbf" stroke="black" points="987.96,-358.5 987.96,-388.5 1117.96,-388.5 1117.96,-358.5 987.96,-358.5"/>
<text text-anchor="start" x="995.96" y="-376.5" font-family="Helvetica,sans-Serif" font-size="10.00">uxn/demos/word_suffix</text>
<text text-anchor="middle" x="1052.96" y="-365.5" font-family="Helvetica,sans-Serif" font-size="10.00">/word_suffix.cpp</text>
</a>
</g>
</g>
<!-- Node2 -->
<g id="node2" class="node">
<title>Node2</title>
<g id="a_node2"><a xlink:title=" ">
<polygon fill="none" stroke="#bfbfbf" points="1137.46,-112.5 1137.46,-131.5 1184.46,-131.5 1184.46,-112.5 1137.46,-112.5"/>
<text text-anchor="middle" x="1160.96" y="-119.5" font-family="Helvetica,sans-Serif" font-size="10.00">vector</text>
</a>
</g>
</g>
<!-- Node1&#45;&gt;Node2 -->
<g id="edge1" class="edge">
<title>Node1&#45;&gt;Node2</title>
<path fill="none" stroke="midnightblue" d="M1061.75,-358.37C1067.58,-348.48 1075.05,-334.81 1079.96,-322 1105.22,-256.18 1084.02,-229.79 1117.96,-168 1124.03,-156.95 1133.51,-146.62 1142.02,-138.65"/>
<polygon fill="midnightblue" stroke="midnightblue" points="1144.59,-141.05 1149.74,-131.79 1139.94,-135.82 1144.59,-141.05"/>
</g>
<!-- Node3 -->
<g id="node3" class="node">
<title>Node3</title>
<g id="a_node3"><a xlink:title=" ">
<polygon fill="none" stroke="#bfbfbf" points="274.46,-174 274.46,-193 339.46,-193 339.46,-174 274.46,-174"/>
<text text-anchor="middle" x="306.96" y="-181" font-family="Helvetica,sans-Serif" font-size="10.00">functional</text>
</a>
</g>
</g>
<!-- Node1&#45;&gt;Node3 -->
<g id="edge2" class="edge">
<title>Node1&#45;&gt;Node3</title>
<path fill="none" stroke="midnightblue" d="M987.8,-362.26C888.59,-345.98 694.2,-311.33 532.96,-266 461.25,-245.84 379.61,-214.14 336.79,-196.82"/>
<polygon fill="midnightblue" stroke="midnightblue" points="338.09,-193.57 327.51,-193.04 335.46,-200.06 338.09,-193.57"/>
</g>
<!-- Node4 -->
<g id="node4" class="node">
<title>Node4</title>
<g id="a_node4"><a xlink:href="../../d2/d6c/buffered__io_8hpp.html" target="_top" xlink:title=" ">
<polygon fill="none" stroke="black" points="66.96,-235.5 66.96,-265.5 192.96,-265.5 192.96,-235.5 66.96,-235.5"/>
<text text-anchor="start" x="74.96" y="-253.5" font-family="Helvetica,sans-Serif" font-size="10.00">uxn/patl/aux_/buffered</text>
<text text-anchor="middle" x="129.96" y="-242.5" font-family="Helvetica,sans-Serif" font-size="10.00">_io.hpp</text>
</a>
</g>
</g>
<!-- Node1&#45;&gt;Node4 -->
<g id="edge3" class="edge">
<title>Node1&#45;&gt;Node4</title>
<path fill="none" stroke="midnightblue" d="M987.57,-371.17C870.01,-367.95 615.5,-357.17 403.96,-322 326.64,-309.15 239.26,-284.93 184.4,-268.5"/>
<polygon fill="midnightblue" stroke="midnightblue" points="185.12,-265.07 174.54,-265.53 183.1,-271.77 185.12,-265.07"/>
</g>
<!-- Node11 -->
<g id="node11" class="node">
<title>Node11</title>
<g id="a_node11"><a xlink:href="../../df/d3f/char_8hpp.html" target="_top" xlink:title=" ">
<polygon fill="none" stroke="black" points="1203.46,-302.5 1203.46,-321.5 1330.46,-321.5 1330.46,-302.5 1203.46,-302.5"/>
<text text-anchor="middle" x="1266.96" y="-309.5" font-family="Helvetica,sans-Serif" font-size="10.00">uxn/patl/aux_/char.hpp</text>
</a>
</g>
</g>
<!-- Node1&#45;&gt;Node11 -->
<g id="edge13" class="edge">
<title>Node1&#45;&gt;Node11</title>
<path fill="none" stroke="midnightblue" d="M1103.41,-358.47C1140.97,-348.03 1191.58,-333.96 1226.51,-324.25"/>
<polygon fill="midnightblue" stroke="midnightblue" points="1227.67,-327.56 1236.37,-321.51 1225.8,-320.81 1227.67,-327.56"/>
</g>
<!-- Node12 -->
<g id="node12" class="node">
<title>Node12</title>
<g id="a_node12"><a xlink:href="../../d4/db1/trie__set_8hpp.html" target="_top" xlink:title=" ">
<polygon fill="none" stroke="black" points="807.46,-302.5 807.46,-321.5 924.46,-321.5 924.46,-302.5 807.46,-302.5"/>
<text text-anchor="middle" x="865.96" y="-309.5" font-family="Helvetica,sans-Serif" font-size="10.00">uxn/patl/trie_set.hpp</text>
</a>
</g>
</g>
<!-- Node1&#45;&gt;Node12 -->
<g id="edge14" class="edge">
<title>Node1&#45;&gt;Node12</title>
<path fill="none" stroke="midnightblue" d="M1008.65,-358.4C976.33,-348.12 933.06,-334.35 902.68,-324.68"/>
<polygon fill="midnightblue" stroke="midnightblue" points="903.49,-321.27 892.9,-321.57 901.37,-327.94 903.49,-321.27"/>
</g>
<!-- Node32 -->
<g id="node32" class="node">
<title>Node32</title>
<g id="a_node32"><a xlink:href="../../d2/d18/maxrep__iterator_8hpp.html" target="_top" xlink:title=" ">
<polygon fill="none" stroke="black" points="1126.96,-174 1126.96,-193 1284.96,-193 1284.96,-174 1126.96,-174"/>
<text text-anchor="middle" x="1205.96" y="-181" font-family="Helvetica,sans-Serif" font-size="10.00">uxn/patl/maxrep_iterator.hpp</text>
</a>
</g>
</g>
<!-- Node1&#45;&gt;Node32 -->
<g id="edge48" class="edge">
<title>Node1&#45;&gt;Node32</title>
<path fill="none" stroke="midnightblue" d="M1073.24,-358.42C1085.72,-349.08 1101.47,-335.99 1112.96,-322 1140.99,-287.88 1135.45,-271.04 1160.96,-235 1169.66,-222.72 1180.92,-210.08 1190,-200.52"/>
<polygon fill="midnightblue" stroke="midnightblue" points="1192.57,-202.9 1197.01,-193.29 1187.54,-198.03 1192.57,-202.9"/>
</g>
<!-- Node33 -->
<g id="node33" class="node">
<title>Node33</title>
<g id="a_node33"><a xlink:href="../../da/d0a/super__maxrep__iterator_8hpp.html" target="_top" xlink:title=" ">
<polygon fill="none" stroke="black" points="1303.46,-168.5 1303.46,-198.5 1432.46,-198.5 1432.46,-168.5 1303.46,-168.5"/>
<text text-anchor="start" x="1311.46" y="-186.5" font-family="Helvetica,sans-Serif" font-size="10.00">uxn/patl/super_maxrep</text>
<text text-anchor="middle" x="1367.96" y="-175.5" font-family="Helvetica,sans-Serif" font-size="10.00">_iterator.hpp</text>
</a>
</g>
</g>
<!-- Node1&#45;&gt;Node33 -->
<g id="edge52" class="edge">
<title>Node1&#45;&gt;Node33</title>
<path fill="none" stroke="midnightblue" d="M1076.64,-358.37C1132.41,-325.08 1272.14,-241.69 1335.64,-203.79"/>
<polygon fill="midnightblue" stroke="midnightblue" points="1337.65,-206.67 1344.44,-198.54 1334.06,-200.66 1337.65,-206.67"/>
</g>
<!-- Node35 -->
<g id="node35" class="node">
<title>Node35</title>
<g id="a_node35"><a xlink:href="../../d4/dc0/suffix__set_8hpp.html" target="_top" xlink:title=" ">
<polygon fill="none" stroke="black" points="942.96,-302.5 942.96,-321.5 1070.96,-321.5 1070.96,-302.5 942.96,-302.5"/>
<text text-anchor="middle" x="1006.96" y="-309.5" font-family="Helvetica,sans-Serif" font-size="10.00">uxn/patl/suffix_set.hpp</text>
</a>
</g>
</g>
<!-- Node1&#45;&gt;Node35 -->
<g id="edge56" class="edge">
<title>Node1&#45;&gt;Node35</title>
<path fill="none" stroke="midnightblue" d="M1042.06,-358.4C1035.38,-349.75 1026.79,-338.64 1019.78,-329.58"/>
<polygon fill="midnightblue" stroke="midnightblue" points="1022.54,-327.43 1013.66,-321.66 1017,-331.71 1022.54,-327.43"/>
</g>
<!-- Node5 -->
<g id="node5" class="node">
<title>Node5</title>
<g id="a_node5"><a xlink:href="../../d8/dfd/config_8hpp.html" target="_top" xlink:title=" ">
<polygon fill="none" stroke="black" points="627.96,-0.5 627.96,-19.5 703.96,-19.5 703.96,-0.5 627.96,-0.5"/>
<text text-anchor="middle" x="665.96" y="-7.5" font-family="Helvetica,sans-Serif" font-size="10.00">../config.hpp</text>
</a>
</g>
</g>
<!-- Node4&#45;&gt;Node5 -->
<g id="edge4" class="edge">
<title>Node4&#45;&gt;Node5</title>
<path fill="none" stroke="midnightblue" d="M66.66,-238.4C44.26,-231.1 21.34,-219.01 7.96,-199 -18.14,-159.95 27.35,-135.59 67.96,-112 140.41,-69.91 165.92,-73.01 247.96,-56 380.14,-28.6 539.5,-17.3 617.78,-13.14"/>
<polygon fill="midnightblue" stroke="midnightblue" points="618.02,-16.63 627.82,-12.62 617.66,-9.64 618.02,-16.63"/>
</g>
<!-- Node6 -->
<g id="node6" class="node">
<title>Node6</title>
<g id="a_node6"><a xlink:href="../../d9/df1/file__utils_8hpp.html" target="_top" xlink:title=" ">
<polygon fill="none" stroke="black" points="177.46,-174 177.46,-193 256.46,-193 256.46,-174 177.46,-174"/>
<text text-anchor="middle" x="216.96" y="-181" font-family="Helvetica,sans-Serif" font-size="10.00">file_utils.hpp</text>
</a>
</g>
</g>
<!-- Node4&#45;&gt;Node6 -->
<g id="edge5" class="edge">
<title>Node4&#45;&gt;Node6</title>
<path fill="none" stroke="midnightblue" d="M148.84,-235.4C163.08,-224.76 182.56,-210.2 197.04,-199.38"/>
<polygon fill="midnightblue" stroke="midnightblue" points="199.41,-201.98 205.32,-193.19 195.22,-196.38 199.41,-201.98"/>
</g>
<!-- Node8 -->
<g id="node8" class="node">
<title>Node8</title>
<g id="a_node8"><a xlink:title=" ">
<polygon fill="none" stroke="#bfbfbf" points="76.96,-112.5 76.96,-131.5 144.96,-131.5 144.96,-112.5 76.96,-112.5"/>
<text text-anchor="middle" x="110.96" y="-119.5" font-family="Helvetica,sans-Serif" font-size="10.00">windows.h</text>
</a>
</g>
</g>
<!-- Node4&#45;&gt;Node8 -->
<g id="edge12" class="edge">
<title>Node4&#45;&gt;Node8</title>
<path fill="none" stroke="midnightblue" d="M127.86,-235.48C124.42,-212.62 117.61,-167.3 113.77,-141.71"/>
<polygon fill="midnightblue" stroke="midnightblue" points="117.23,-141.16 112.28,-131.79 110.31,-142.2 117.23,-141.16"/>
</g>
<!-- Node9 -->
<g id="node9" class="node">
<title>Node9</title>
<g id="a_node9"><a xlink:title=" ">
<polygon fill="none" stroke="#bfbfbf" points="200.96,-112.5 200.96,-131.5 264.96,-131.5 264.96,-112.5 200.96,-112.5"/>
<text text-anchor="middle" x="232.96" y="-119.5" font-family="Helvetica,sans-Serif" font-size="10.00">algorithm</text>
</a>
</g>
</g>
<!-- Node4&#45;&gt;Node9 -->
<g id="edge10" class="edge">
<title>Node4&#45;&gt;Node9</title>
<path fill="none" stroke="midnightblue" d="M134.05,-235.26C139.58,-217.91 150.75,-188.41 167.96,-168 178.72,-155.25 193.9,-144.47 206.9,-136.66"/>
<polygon fill="midnightblue" stroke="midnightblue" points="208.94,-139.52 215.87,-131.51 205.46,-133.45 208.94,-139.52"/>
</g>
<!-- Node10 -->
<g id="node10" class="node">
<title>Node10</title>
<g id="a_node10"><a xlink:title=" ">
<polygon fill="none" stroke="#bfbfbf" points="17.46,-174 17.46,-193 82.46,-193 82.46,-174 17.46,-174"/>
<text text-anchor="middle" x="49.96" y="-181" font-family="Helvetica,sans-Serif" font-size="10.00">exception</text>
</a>
</g>
</g>
<!-- Node4&#45;&gt;Node10 -->
<g id="edge11" class="edge">
<title>Node4&#45;&gt;Node10</title>
<path fill="none" stroke="midnightblue" d="M112.6,-235.4C99.64,-224.86 81.93,-210.48 68.66,-199.69"/>
<polygon fill="midnightblue" stroke="midnightblue" points="70.63,-196.78 60.66,-193.19 66.22,-202.22 70.63,-196.78"/>
</g>
<!-- Node6&#45;&gt;Node2 -->
<g id="edge8" class="edge">
<title>Node6&#45;&gt;Node2</title>
<path fill="none" stroke="midnightblue" d="M241.1,-173.93C248.65,-171.59 257.07,-169.34 264.96,-168 626.78,-106.45 724.27,-163.1 1089.96,-132 1102.22,-130.96 1115.61,-129.38 1127.43,-127.83"/>
<polygon fill="midnightblue" stroke="midnightblue" points="1127.9,-131.3 1137.35,-126.49 1126.97,-124.36 1127.9,-131.3"/>
</g>
<!-- Node6&#45;&gt;Node5 -->
<g id="edge6" class="edge">
<title>Node6&#45;&gt;Node5</title>
<path fill="none" stroke="midnightblue" d="M209.11,-173.89C197.19,-159.75 177.39,-131.26 191.96,-112 243.1,-44.39 507.4,-20.64 617.61,-13.59"/>
<polygon fill="midnightblue" stroke="midnightblue" points="618.02,-17.07 627.79,-12.96 617.59,-10.09 618.02,-17.07"/>
</g>
<!-- Node7 -->
<g id="node7" class="node">
<title>Node7</title>
<g id="a_node7"><a xlink:title=" ">
<polygon fill="none" stroke="#bfbfbf" points="450.96,-112.5 450.96,-131.5 494.96,-131.5 494.96,-112.5 450.96,-112.5"/>
<text text-anchor="middle" x="472.96" y="-119.5" font-family="Helvetica,sans-Serif" font-size="10.00">string</text>
</a>
</g>
</g>
<!-- Node6&#45;&gt;Node7 -->
<g id="edge7" class="edge">
<title>Node6&#45;&gt;Node7</title>
<path fill="none" stroke="midnightblue" d="M243.75,-173.93C250.63,-171.87 258.04,-169.75 264.96,-168 339.35,-149.2 361.64,-150.67 440.71,-131.89"/>
<polygon fill="midnightblue" stroke="midnightblue" points="441.73,-135.25 450.64,-129.5 440.09,-128.44 441.73,-135.25"/>
</g>
<!-- Node6&#45;&gt;Node8 -->
<g id="edge9" class="edge">
<title>Node6&#45;&gt;Node8</title>
<path fill="none" stroke="midnightblue" d="M201.77,-173.98C184.3,-164.17 155.38,-147.93 134.88,-136.42"/>
<polygon fill="midnightblue" stroke="midnightblue" points="136.55,-133.35 126.12,-131.51 133.13,-139.46 136.55,-133.35"/>
</g>
<!-- Node13 -->
<g id="node13" class="node">
<title>Node13</title>
<g id="a_node13"><a xlink:href="../../d9/d25/trie__generic_8hpp.html" target="_top" xlink:title=" ">
<polygon fill="none" stroke="black" points="541.96,-241 541.96,-260 661.96,-260 661.96,-241 541.96,-241"/>
<text text-anchor="middle" x="601.96" y="-248" font-family="Helvetica,sans-Serif" font-size="10.00">impl/trie_generic.hpp</text>
</a>
</g>
</g>
<!-- Node12&#45;&gt;Node13 -->
<g id="edge15" class="edge">
<title>Node12&#45;&gt;Node13</title>
<path fill="none" stroke="midnightblue" d="M828.14,-302.48C781.09,-291.87 700.73,-273.76 649.55,-262.22"/>
<polygon fill="midnightblue" stroke="midnightblue" points="650.24,-258.79 639.72,-260.01 648.7,-265.62 650.24,-258.79"/>
</g>
<!-- Node31 -->
<g id="node31" class="node">
<title>Node31</title>
<g id="a_node31"><a xlink:href="../../d1/dff/bit__comp_8hpp.html" target="_top" xlink:title=" ">
<polygon fill="none" stroke="black" points="987.46,-174 987.46,-193 1070.46,-193 1070.46,-174 987.46,-174"/>
<text text-anchor="middle" x="1028.96" y="-181" font-family="Helvetica,sans-Serif" font-size="10.00">bit_comp.hpp</text>
</a>
</g>
</g>
<!-- Node12&#45;&gt;Node31 -->
<g id="edge44" class="edge">
<title>Node12&#45;&gt;Node31</title>
<path fill="none" stroke="midnightblue" d="M877.17,-302.31C904.5,-281.09 974.89,-226.46 1009.36,-199.72"/>
<polygon fill="midnightblue" stroke="midnightblue" points="1011.93,-202.15 1017.68,-193.26 1007.63,-196.62 1011.93,-202.15"/>
</g>
<!-- Node13&#45;&gt;Node3 -->
<g id="edge17" class="edge">
<title>Node13&#45;&gt;Node3</title>
<path fill="none" stroke="midnightblue" d="M552.7,-240.95C502.42,-231.87 422.29,-216.45 353.96,-199 350.36,-198.08 346.62,-197.05 342.9,-195.98"/>
<polygon fill="midnightblue" stroke="midnightblue" points="343.76,-192.59 333.18,-193.09 341.77,-199.3 343.76,-192.59"/>
</g>
<!-- Node13&#45;&gt;Node9 -->
<g id="edge16" class="edge">
<title>Node13&#45;&gt;Node9</title>
<path fill="none" stroke="midnightblue" d="M541.65,-242.57C497.18,-235.77 436.13,-222.82 386.96,-199 367.04,-189.35 367.15,-179.05 347.96,-168 323.68,-154.02 294.23,-142.59 271.21,-134.75"/>
<polygon fill="midnightblue" stroke="midnightblue" points="272.04,-131.34 261.45,-131.5 269.83,-137.98 272.04,-131.34"/>
</g>
<!-- Node14 -->
<g id="node14" class="node">
<title>Node14</title>
<g id="a_node14"><a xlink:href="../../d3/d09/node_8hpp.html" target="_top" xlink:title=" ">
<polygon fill="none" stroke="black" points="395.96,-174 395.96,-193 457.96,-193 457.96,-174 395.96,-174"/>
<text text-anchor="middle" x="426.96" y="-181" font-family="Helvetica,sans-Serif" font-size="10.00">node.hpp</text>
</a>
</g>
</g>
<!-- Node13&#45;&gt;Node14 -->
<g id="edge18" class="edge">
<title>Node13&#45;&gt;Node14</title>
<path fill="none" stroke="midnightblue" d="M578.72,-240.87C548.17,-229.52 494.34,-209.52 459.68,-196.65"/>
<polygon fill="midnightblue" stroke="midnightblue" points="460.61,-193.26 450.02,-193.06 458.17,-199.83 460.61,-193.26"/>
</g>
<!-- Node15 -->
<g id="node15" class="node">
<title>Node15</title>
<g id="a_node15"><a xlink:href="../../d0/dd1/core__algorithm_8hpp.html" target="_top" xlink:title=" ">
<polygon fill="none" stroke="black" points="747.46,-174 747.46,-193 858.46,-193 858.46,-174 747.46,-174"/>
<text text-anchor="middle" x="802.96" y="-181" font-family="Helvetica,sans-Serif" font-size="10.00">core_algorithm.hpp</text>
</a>
</g>
</g>
<!-- Node13&#45;&gt;Node15 -->
<g id="edge21" class="edge">
<title>Node13&#45;&gt;Node15</title>
<path fill="none" stroke="midnightblue" d="M628.65,-240.87C664.19,-229.38 727.17,-209.01 766.91,-196.16"/>
<polygon fill="midnightblue" stroke="midnightblue" points="768.04,-199.47 776.48,-193.06 765.89,-192.81 768.04,-199.47"/>
</g>
<!-- Node21 -->
<g id="node21" class="node">
<title>Node21</title>
<g id="a_node21"><a xlink:href="../../de/d50/assoc__generic_8hpp.html" target="_top" xlink:title=" ">
<polygon fill="none" stroke="black" points="622.46,-174 622.46,-193 729.46,-193 729.46,-174 622.46,-174"/>
<text text-anchor="middle" x="675.96" y="-181" font-family="Helvetica,sans-Serif" font-size="10.00">assoc_generic.hpp</text>
</a>
</g>
</g>
<!-- Node13&#45;&gt;Node21 -->
<g id="edge29" class="edge">
<title>Node13&#45;&gt;Node21</title>
<path fill="none" stroke="midnightblue" d="M611.94,-240.73C623.81,-230.31 643.85,-212.71 658.35,-199.97"/>
<polygon fill="midnightblue" stroke="midnightblue" points="660.94,-202.36 666.14,-193.13 656.32,-197.1 660.94,-202.36"/>
</g>
<!-- Node29 -->
<g id="node29" class="node">
<title>Node29</title>
<g id="a_node29"><a xlink:href="../../d7/dd8/core__prefix_8hpp.html" target="_top" xlink:title=" ">
<polygon fill="none" stroke="black" points="876.96,-174 876.96,-193 968.96,-193 968.96,-174 876.96,-174"/>
<text text-anchor="middle" x="922.96" y="-181" font-family="Helvetica,sans-Serif" font-size="10.00">core_prefix.hpp</text>
</a>
</g>
</g>
<!-- Node13&#45;&gt;Node29 -->
<g id="edge42" class="edge">
<title>Node13&#45;&gt;Node29</title>
<path fill="none" stroke="midnightblue" d="M642.28,-240.99C651.99,-238.98 662.34,-236.88 671.96,-235 758.89,-218.02 781.52,-218.3 867.96,-199 872.65,-197.95 877.55,-196.78 882.4,-195.56"/>
<polygon fill="midnightblue" stroke="midnightblue" points="883.41,-198.92 892.23,-193.04 881.67,-192.14 883.41,-198.92"/>
</g>
<!-- Node14&#45;&gt;Node5 -->
<g id="edge20" class="edge">
<title>Node14&#45;&gt;Node5</title>
<path fill="none" stroke="midnightblue" d="M398.86,-173.98C365.39,-162.36 316.44,-139.77 336.96,-112 370.63,-66.45 534.88,-32.97 617.83,-18.67"/>
<polygon fill="midnightblue" stroke="midnightblue" points="618.49,-22.1 627.77,-16.98 617.32,-15.2 618.49,-22.1"/>
</g>
<!-- Node14&#45;&gt;Node9 -->
<g id="edge19" class="edge">
<title>Node14&#45;&gt;Node9</title>
<path fill="none" stroke="midnightblue" d="M400.81,-173.98C394.64,-172 388.07,-169.91 381.96,-168 344.53,-156.32 301.67,-143.42 271.55,-134.44"/>
<polygon fill="midnightblue" stroke="midnightblue" points="272.44,-131.05 261.85,-131.55 270.44,-137.76 272.44,-131.05"/>
</g>
<!-- Node16 -->
<g id="node16" class="node">
<title>Node16</title>
<g id="a_node16"><a xlink:href="../../de/d55/algorithm_8hpp.html" target="_top" xlink:title=" ">
<polygon fill="none" stroke="black" points="995.46,-112.5 995.46,-131.5 1080.46,-131.5 1080.46,-112.5 995.46,-112.5"/>
<text text-anchor="middle" x="1037.96" y="-119.5" font-family="Helvetica,sans-Serif" font-size="10.00">algorithm.hpp</text>
</a>
</g>
</g>
<!-- Node15&#45;&gt;Node16 -->
<g id="edge22" class="edge">
<title>Node15&#45;&gt;Node16</title>
<path fill="none" stroke="midnightblue" d="M836.63,-173.98C878.16,-163.46 948.85,-145.56 994.46,-134.01"/>
<polygon fill="midnightblue" stroke="midnightblue" points="995.52,-137.36 1004.35,-131.51 993.8,-130.57 995.52,-137.36"/>
</g>
<!-- Node16&#45;&gt;Node5 -->
<g id="edge23" class="edge">
<title>Node16&#45;&gt;Node5</title>
<path fill="none" stroke="midnightblue" d="M1017.64,-112.39C985.47,-99 920.66,-72.95 863.96,-56 813.52,-40.92 754.55,-28.12 714.16,-20.07"/>
<polygon fill="midnightblue" stroke="midnightblue" points="714.8,-16.63 704.31,-18.13 713.45,-23.5 714.8,-16.63"/>
</g>
<!-- Node17 -->
<g id="node17" class="node">
<title>Node17</title>
<g id="a_node17"><a xlink:href="../../d9/d3a/trivial_8hpp.html" target="_top" xlink:title=" ">
<polygon fill="none" stroke="black" points="1120.96,-56.5 1120.96,-75.5 1186.96,-75.5 1186.96,-56.5 1120.96,-56.5"/>
<text text-anchor="middle" x="1153.96" y="-63.5" font-family="Helvetica,sans-Serif" font-size="10.00">trivial.hpp</text>
</a>
</g>
</g>
<!-- Node16&#45;&gt;Node17 -->
<g id="edge24" class="edge">
<title>Node16&#45;&gt;Node17</title>
<path fill="none" stroke="midnightblue" d="M1056.34,-112.44C1075.18,-103.68 1104.69,-89.94 1126.34,-79.86"/>
<polygon fill="midnightblue" stroke="midnightblue" points="1128.08,-82.91 1135.67,-75.52 1125.12,-76.56 1128.08,-82.91"/>
</g>
<!-- Node17&#45;&gt;Node5 -->
<g id="edge25" class="edge">
<title>Node17&#45;&gt;Node5</title>
<path fill="none" stroke="midnightblue" d="M1120.9,-58.29C1116.23,-57.46 1111.48,-56.66 1106.96,-56 965.04,-35.21 796.01,-20.84 714.58,-14.56"/>
<polygon fill="midnightblue" stroke="midnightblue" points="714.39,-11.04 704.15,-13.76 713.85,-18.02 714.39,-11.04"/>
</g>
<!-- Node18 -->
<g id="node18" class="node">
<title>Node18</title>
<g id="a_node18"><a xlink:title=" ">
<polygon fill="none" stroke="#bfbfbf" points="1119.46,-0.5 1119.46,-19.5 1188.46,-19.5 1188.46,-0.5 1119.46,-0.5"/>
<text text-anchor="middle" x="1153.96" y="-7.5" font-family="Helvetica,sans-Serif" font-size="10.00">type_traits</text>
</a>
</g>
</g>
<!-- Node17&#45;&gt;Node18 -->
<g id="edge26" class="edge">
<title>Node17&#45;&gt;Node18</title>
<path fill="none" stroke="midnightblue" d="M1153.96,-56.08C1153.96,-49.01 1153.96,-38.86 1153.96,-29.99"/>
<polygon fill="midnightblue" stroke="midnightblue" points="1157.46,-29.75 1153.96,-19.75 1150.46,-29.75 1157.46,-29.75"/>
</g>
<!-- Node19 -->
<g id="node19" class="node">
<title>Node19</title>
<g id="a_node19"><a xlink:title=" ">
<polygon fill="none" stroke="#bfbfbf" points="1206.96,-0.5 1206.96,-19.5 1258.96,-19.5 1258.96,-0.5 1206.96,-0.5"/>
<text text-anchor="middle" x="1232.96" y="-7.5" font-family="Helvetica,sans-Serif" font-size="10.00">cassert</text>
</a>
</g>
</g>
<!-- Node17&#45;&gt;Node19 -->
<g id="edge27" class="edge">
<title>Node17&#45;&gt;Node19</title>
<path fill="none" stroke="midnightblue" d="M1166.65,-56.32C1178.86,-47.98 1197.54,-35.21 1211.96,-25.35"/>
<polygon fill="midnightblue" stroke="midnightblue" points="1214.02,-28.19 1220.3,-19.65 1210.07,-22.41 1214.02,-28.19"/>
</g>
<!-- Node20 -->
<g id="node20" class="node">
<title>Node20</title>
<g id="a_node20"><a xlink:title=" ">
<polygon fill="none" stroke="#bfbfbf" points="1050.46,-0.5 1050.46,-19.5 1101.46,-19.5 1101.46,-0.5 1050.46,-0.5"/>
<text text-anchor="middle" x="1075.96" y="-7.5" font-family="Helvetica,sans-Serif" font-size="10.00">intrin.h</text>
</a>
</g>
</g>
<!-- Node17&#45;&gt;Node20 -->
<g id="edge28" class="edge">
<title>Node17&#45;&gt;Node20</title>
<path fill="none" stroke="midnightblue" d="M1141.43,-56.32C1129.38,-47.98 1110.93,-35.21 1096.69,-25.35"/>
<polygon fill="midnightblue" stroke="midnightblue" points="1098.68,-22.47 1088.46,-19.65 1094.69,-28.22 1098.68,-22.47"/>
</g>
<!-- Node22 -->
<g id="node22" class="node">
<title>Node22</title>
<g id="a_node22"><a xlink:href="../../d5/db7/preorder__iterator_8hpp.html" target="_top" xlink:title=" ">
<polygon fill="none" stroke="black" points="620.46,-112.5 620.46,-131.5 739.46,-131.5 739.46,-112.5 620.46,-112.5"/>
<text text-anchor="middle" x="679.96" y="-119.5" font-family="Helvetica,sans-Serif" font-size="10.00">preorder_iterator.hpp</text>
</a>
</g>
</g>
<!-- Node21&#45;&gt;Node22 -->
<g id="edge30" class="edge">
<title>Node21&#45;&gt;Node22</title>
<path fill="none" stroke="midnightblue" d="M676.53,-173.98C677.1,-165.58 677.98,-152.48 678.71,-141.66"/>
<polygon fill="midnightblue" stroke="midnightblue" points="682.21,-141.72 679.39,-131.51 675.23,-141.25 682.21,-141.72"/>
</g>
<!-- Node23 -->
<g id="node23" class="node">
<title>Node23</title>
<g id="a_node23"><a xlink:href="../../d1/d2d/vertex_8hpp.html" target="_top" xlink:title=" ">
<polygon fill="none" stroke="black" points="785.46,-56.5 785.46,-75.5 854.46,-75.5 854.46,-56.5 785.46,-56.5"/>
<text text-anchor="middle" x="819.96" y="-63.5" font-family="Helvetica,sans-Serif" font-size="10.00">vertex.hpp</text>
</a>
</g>
</g>
<!-- Node21&#45;&gt;Node23 -->
<g id="edge40" class="edge">
<title>Node21&#45;&gt;Node23</title>
<path fill="none" stroke="midnightblue" d="M711.54,-173.95C720.47,-171.9 730.05,-169.79 738.96,-168 785.17,-158.71 917.6,-168.04 947.96,-132 974.89,-100.04 911.61,-82.06 864.76,-73.46"/>
<polygon fill="midnightblue" stroke="midnightblue" points="865.2,-69.98 854.75,-71.71 864,-76.88 865.2,-69.98"/>
</g>
<!-- Node25 -->
<g id="node25" class="node">
<title>Node25</title>
<g id="a_node25"><a xlink:href="../../df/d24/postorder__iterator_8hpp.html" target="_top" xlink:title=" ">
<polygon fill="none" stroke="black" points="757.46,-112.5 757.46,-131.5 882.46,-131.5 882.46,-112.5 757.46,-112.5"/>
<text text-anchor="middle" x="819.96" y="-119.5" font-family="Helvetica,sans-Serif" font-size="10.00">postorder_iterator.hpp</text>
</a>
</g>
</g>
<!-- Node21&#45;&gt;Node25 -->
<g id="edge33" class="edge">
<title>Node21&#45;&gt;Node25</title>
<path fill="none" stroke="midnightblue" d="M696.59,-173.98C721.08,-163.86 762.11,-146.9 790.07,-135.35"/>
<polygon fill="midnightblue" stroke="midnightblue" points="791.46,-138.56 799.37,-131.51 788.79,-132.09 791.46,-138.56"/>
</g>
<!-- Node26 -->
<g id="node26" class="node">
<title>Node26</title>
<g id="a_node26"><a xlink:href="../../d9/dde/iterator_8hpp.html" target="_top" xlink:title=" ">
<polygon fill="none" stroke="black" points="359.46,-112.5 359.46,-131.5 432.46,-131.5 432.46,-112.5 359.46,-112.5"/>
<text text-anchor="middle" x="395.96" y="-119.5" font-family="Helvetica,sans-Serif" font-size="10.00">iterator.hpp</text>
</a>
</g>
</g>
<!-- Node21&#45;&gt;Node26 -->
<g id="edge36" class="edge">
<title>Node21&#45;&gt;Node26</title>
<path fill="none" stroke="midnightblue" d="M636.05,-173.98C626.83,-172.02 617.05,-169.93 607.96,-168 551.06,-155.9 485.57,-142 442.61,-132.89"/>
<polygon fill="midnightblue" stroke="midnightblue" points="443.24,-129.44 432.73,-130.79 441.79,-136.29 443.24,-129.44"/>
</g>
<!-- Node27 -->
<g id="node27" class="node">
<title>Node27</title>
<g id="a_node27"><a xlink:href="../../d7/d8f/partimator_8hpp.html" target="_top" xlink:title=" ">
<polygon fill="none" stroke="black" points="513.46,-112.5 513.46,-131.5 602.46,-131.5 602.46,-112.5 513.46,-112.5"/>
<text text-anchor="middle" x="557.96" y="-119.5" font-family="Helvetica,sans-Serif" font-size="10.00">partimator.hpp</text>
</a>
</g>
</g>
<!-- Node21&#45;&gt;Node27 -->
<g id="edge38" class="edge">
<title>Node21&#45;&gt;Node27</title>
<path fill="none" stroke="midnightblue" d="M659.06,-173.98C639.43,-164.08 606.83,-147.64 583.97,-136.12"/>
<polygon fill="midnightblue" stroke="midnightblue" points="585.34,-132.89 574.84,-131.51 582.19,-139.14 585.34,-132.89"/>
</g>
<!-- Node28 -->
<g id="node28" class="node">
<title>Node28</title>
<g id="a_node28"><a xlink:title=" ">
<polygon fill="none" stroke="#bfbfbf" points="900.96,-112.5 900.96,-131.5 938.96,-131.5 938.96,-112.5 900.96,-112.5"/>
<text text-anchor="middle" x="919.96" y="-119.5" font-family="Helvetica,sans-Serif" font-size="10.00">map</text>
</a>
</g>
</g>
<!-- Node21&#45;&gt;Node28 -->
<g id="edge41" class="edge">
<title>Node21&#45;&gt;Node28</title>
<path fill="none" stroke="midnightblue" d="M712.69,-174C765.08,-161.85 857.92,-140.29 890.98,-131.97"/>
<polygon fill="midnightblue" stroke="midnightblue" points="891.96,-135.33 900.74,-129.4 890.18,-128.56 891.96,-135.33"/>
</g>
<!-- Node22&#45;&gt;Node23 -->
<g id="edge31" class="edge">
<title>Node22&#45;&gt;Node23</title>
<path fill="none" stroke="midnightblue" d="M702.15,-112.44C725.39,-103.48 762.11,-89.31 788.38,-79.18"/>
<polygon fill="midnightblue" stroke="midnightblue" points="789.81,-82.38 797.88,-75.52 787.29,-75.85 789.81,-82.38"/>
</g>
<!-- Node24 -->
<g id="node24" class="node">
<title>Node24</title>
<g id="a_node24"><a xlink:title=" ">
<polygon fill="none" stroke="#bfbfbf" points="531.46,-56.5 531.46,-75.5 584.46,-75.5 584.46,-56.5 531.46,-56.5"/>
<text text-anchor="middle" x="557.96" y="-63.5" font-family="Helvetica,sans-Serif" font-size="10.00">iterator</text>
</a>
</g>
</g>
<!-- Node22&#45;&gt;Node24 -->
<g id="edge32" class="edge">
<title>Node22&#45;&gt;Node24</title>
<path fill="none" stroke="midnightblue" d="M660.63,-112.44C640.64,-103.6 609.22,-89.69 586.4,-79.59"/>
<polygon fill="midnightblue" stroke="midnightblue" points="587.76,-76.36 577.2,-75.52 584.93,-82.76 587.76,-76.36"/>
</g>
<!-- Node25&#45;&gt;Node23 -->
<g id="edge34" class="edge">
<title>Node25&#45;&gt;Node23</title>
<path fill="none" stroke="midnightblue" d="M819.96,-112.08C819.96,-105.01 819.96,-94.86 819.96,-85.99"/>
<polygon fill="midnightblue" stroke="midnightblue" points="823.46,-85.75 819.96,-75.75 816.46,-85.75 823.46,-85.75"/>
</g>
<!-- Node25&#45;&gt;Node24 -->
<g id="edge35" class="edge">
<title>Node25&#45;&gt;Node24</title>
<path fill="none" stroke="midnightblue" d="M778.45,-112.44C727.77,-102 642.86,-84.5 594.54,-74.54"/>
<polygon fill="midnightblue" stroke="midnightblue" points="595.02,-71.06 584.52,-72.47 593.61,-77.92 595.02,-71.06"/>
</g>
<!-- Node26&#45;&gt;Node24 -->
<g id="edge37" class="edge">
<title>Node26&#45;&gt;Node24</title>
<path fill="none" stroke="midnightblue" d="M421.63,-112.44C448.88,-103.36 492.15,-88.94 522.61,-78.78"/>
<polygon fill="midnightblue" stroke="midnightblue" points="524.03,-82 532.41,-75.52 521.82,-75.36 524.03,-82"/>
</g>
<!-- Node27&#45;&gt;Node24 -->
<g id="edge39" class="edge">
<title>Node27&#45;&gt;Node24</title>
<path fill="none" stroke="midnightblue" d="M557.96,-112.08C557.96,-105.01 557.96,-94.86 557.96,-85.99"/>
<polygon fill="midnightblue" stroke="midnightblue" points="561.46,-85.75 557.96,-75.75 554.46,-85.75 561.46,-85.75"/>
</g>
<!-- Node30 -->
<g id="node30" class="node">
<title>Node30</title>
<g id="a_node30"><a xlink:href="../../d0/d34/prefix_8hpp.html" target="_top" xlink:title=" ">
<polygon fill="none" stroke="black" points="1241.46,-112.5 1241.46,-131.5 1306.46,-131.5 1306.46,-112.5 1241.46,-112.5"/>
<text text-anchor="middle" x="1273.96" y="-119.5" font-family="Helvetica,sans-Serif" font-size="10.00">prefix.hpp</text>
</a>
</g>
</g>
<!-- Node29&#45;&gt;Node30 -->
<g id="edge43" class="edge">
<title>Node29&#45;&gt;Node30</title>
<path fill="none" stroke="midnightblue" d="M953.64,-173.96C961.83,-171.84 970.7,-169.7 978.96,-168 1067.83,-149.77 1173.14,-135.42 1230.83,-128.18"/>
<polygon fill="midnightblue" stroke="midnightblue" points="1231.54,-131.62 1241.03,-126.91 1230.67,-124.67 1231.54,-131.62"/>
</g>
<!-- Node31&#45;&gt;Node2 -->
<g id="edge46" class="edge">
<title>Node31&#45;&gt;Node2</title>
<path fill="none" stroke="midnightblue" d="M1047.87,-173.98C1070.12,-163.95 1107.27,-147.2 1132.89,-135.65"/>
<polygon fill="midnightblue" stroke="midnightblue" points="1134.41,-138.81 1142.08,-131.51 1131.53,-132.43 1134.41,-138.81"/>
</g>
<!-- Node31&#45;&gt;Node7 -->
<g id="edge45" class="edge">
<title>Node31&#45;&gt;Node7</title>
<path fill="none" stroke="midnightblue" d="M1002.73,-173.95C994.84,-171.68 986.12,-169.45 977.96,-168 773.65,-131.56 714.41,-167.56 505.28,-131.63"/>
<polygon fill="midnightblue" stroke="midnightblue" points="505.66,-128.15 495.21,-129.87 504.46,-135.04 505.66,-128.15"/>
</g>
<!-- Node31&#45;&gt;Node17 -->
<g id="edge47" class="edge">
<title>Node31&#45;&gt;Node17</title>
<path fill="none" stroke="midnightblue" d="M1040.04,-173.88C1052.49,-164.08 1073.14,-147.43 1089.96,-132 1107.36,-116.04 1126.19,-96.63 1138.9,-83.2"/>
<polygon fill="midnightblue" stroke="midnightblue" points="1141.65,-85.38 1145.94,-75.69 1136.55,-80.58 1141.65,-85.38"/>
</g>
<!-- Node32&#45;&gt;Node2 -->
<g id="edge49" class="edge">
<title>Node32&#45;&gt;Node2</title>
<path fill="none" stroke="midnightblue" d="M1199.51,-173.98C1192.76,-165.05 1181.99,-150.81 1173.55,-139.64"/>
<polygon fill="midnightblue" stroke="midnightblue" points="1176.22,-137.37 1167.4,-131.51 1170.64,-141.6 1176.22,-137.37"/>
</g>
<!-- Node32&#45;&gt;Node5 -->
<g id="edge50" class="edge">
<title>Node32&#45;&gt;Node5</title>
<path fill="none" stroke="midnightblue" d="M1207.32,-173.76C1209.1,-158.89 1210.27,-128.7 1193.96,-112 1160.35,-77.57 838.32,-33.08 714.31,-17.07"/>
<polygon fill="midnightblue" stroke="midnightblue" points="714.7,-13.59 704.33,-15.79 713.8,-20.53 714.7,-13.59"/>
</g>
<!-- Node32&#45;&gt;Node30 -->
<g id="edge51" class="edge">
<title>Node32&#45;&gt;Node30</title>
<path fill="none" stroke="midnightblue" d="M1215.7,-173.98C1226.31,-164.7 1243.48,-149.67 1256.44,-138.33"/>
<polygon fill="midnightblue" stroke="midnightblue" points="1259.02,-140.73 1264.24,-131.51 1254.41,-135.46 1259.02,-140.73"/>
</g>
<!-- Node33&#45;&gt;Node2 -->
<g id="edge54" class="edge">
<title>Node33&#45;&gt;Node2</title>
<path fill="none" stroke="midnightblue" d="M1319.17,-168.47C1280.71,-157.42 1228.12,-142.3 1194.34,-132.59"/>
<polygon fill="midnightblue" stroke="midnightblue" points="1195.07,-129.16 1184.5,-129.76 1193.14,-135.89 1195.07,-129.16"/>
</g>
<!-- Node33&#45;&gt;Node30 -->
<g id="edge55" class="edge">
<title>Node33&#45;&gt;Node30</title>
<path fill="none" stroke="midnightblue" d="M1345.68,-168.4C1330.76,-158.95 1311.18,-146.56 1296.25,-137.11"/>
<polygon fill="midnightblue" stroke="midnightblue" points="1297.96,-134.05 1287.64,-131.66 1294.22,-139.96 1297.96,-134.05"/>
</g>
<!-- Node34 -->
<g id="node34" class="node">
<title>Node34</title>
<g id="a_node34"><a xlink:title=" ">
<polygon fill="none" stroke="#bfbfbf" points="1351.96,-112.5 1351.96,-131.5 1383.96,-131.5 1383.96,-112.5 1351.96,-112.5"/>
<text text-anchor="middle" x="1367.96" y="-119.5" font-family="Helvetica,sans-Serif" font-size="10.00">set</text>
</a>
</g>
</g>
<!-- Node33&#45;&gt;Node34 -->
<g id="edge53" class="edge">
<title>Node33&#45;&gt;Node34</title>
<path fill="none" stroke="midnightblue" d="M1367.96,-168.4C1367.96,-160.47 1367.96,-150.46 1367.96,-141.86"/>
<polygon fill="midnightblue" stroke="midnightblue" points="1371.46,-141.66 1367.96,-131.66 1364.46,-141.66 1371.46,-141.66"/>
</g>
<!-- Node35&#45;&gt;Node31 -->
<g id="edge64" class="edge">
<title>Node35&#45;&gt;Node31</title>
<path fill="none" stroke="midnightblue" d="M1008.47,-302.31C1012.01,-281.99 1020.87,-231.05 1025.7,-203.28"/>
<polygon fill="midnightblue" stroke="midnightblue" points="1029.17,-203.71 1027.44,-193.26 1022.28,-202.51 1029.17,-203.71"/>
</g>
<!-- Node36 -->
<g id="node36" class="node">
<title>Node36</title>
<g id="a_node36"><a xlink:href="../../d5/dfc/suffix__generic_8hpp.html" target="_top" xlink:title=" ">
<polygon fill="none" stroke="black" points="680.46,-241 680.46,-260 811.46,-260 811.46,-241 680.46,-241"/>
<text text-anchor="middle" x="745.96" y="-248" font-family="Helvetica,sans-Serif" font-size="10.00">impl/suffix_generic.hpp</text>
</a>
</g>
</g>
<!-- Node35&#45;&gt;Node36 -->
<g id="edge57" class="edge">
<title>Node35&#45;&gt;Node36</title>
<path fill="none" stroke="midnightblue" d="M969.57,-302.48C923.15,-291.89 843.94,-273.84 793.32,-262.3"/>
<polygon fill="midnightblue" stroke="midnightblue" points="793.82,-258.82 783.29,-260.01 792.26,-265.64 793.82,-258.82"/>
</g>
<!-- Node36&#45;&gt;Node14 -->
<g id="edge59" class="edge">
<title>Node36&#45;&gt;Node14</title>
<path fill="none" stroke="midnightblue" d="M702.36,-240.95C692.07,-238.96 681.13,-236.88 670.96,-235 580.43,-218.26 555.91,-222.78 466.96,-199 463.99,-198.21 460.92,-197.29 457.88,-196.3"/>
<polygon fill="midnightblue" stroke="midnightblue" points="458.93,-192.96 448.33,-193.02 456.65,-199.58 458.93,-192.96"/>
</g>
<!-- Node36&#45;&gt;Node15 -->
<g id="edge60" class="edge">
<title>Node36&#45;&gt;Node15</title>
<path fill="none" stroke="midnightblue" d="M753.65,-240.73C762.62,-230.5 777.65,-213.36 788.76,-200.69"/>
<polygon fill="midnightblue" stroke="midnightblue" points="791.43,-202.95 795.4,-193.13 786.17,-198.34 791.43,-202.95"/>
</g>
<!-- Node36&#45;&gt;Node21 -->
<g id="edge62" class="edge">
<title>Node36&#45;&gt;Node21</title>
<path fill="none" stroke="midnightblue" d="M736.52,-240.73C725.29,-230.31 706.34,-212.71 692.63,-199.97"/>
<polygon fill="midnightblue" stroke="midnightblue" points="694.96,-197.37 685.25,-193.13 690.2,-202.5 694.96,-197.37"/>
</g>
<!-- Node36&#45;&gt;Node24 -->
<g id="edge58" class="edge">
<title>Node36&#45;&gt;Node24</title>
<path fill="none" stroke="midnightblue" d="M716.54,-240.99C689.04,-232.41 647.32,-217.76 613.96,-199 594.36,-187.97 594.6,-176.95 573.96,-168 481.46,-127.87 415.36,-208.75 349.96,-132 301.9,-75.6 449.14,-67.45 520.97,-66.74"/>
<polygon fill="midnightblue" stroke="midnightblue" points="521.01,-70.24 530.99,-66.68 520.97,-63.24 521.01,-70.24"/>
</g>
<!-- Node36&#45;&gt;Node29 -->
<g id="edge63" class="edge">
<title>Node36&#45;&gt;Node29</title>
<path fill="none" stroke="midnightblue" d="M769.47,-240.87C800.36,-229.52 854.82,-209.52 889.87,-196.65"/>
<polygon fill="midnightblue" stroke="midnightblue" points="891.46,-199.8 899.64,-193.06 889.05,-193.23 891.46,-199.8"/>
</g>
<!-- Node37 -->
<g id="node37" class="node">
<title>Node37</title>
<g id="a_node37"><a xlink:href="../../d3/dcf/ring__buffer_8hpp.html" target="_top" xlink:title=" ">
<polygon fill="none" stroke="black" points="476.46,-174 476.46,-193 565.46,-193 565.46,-174 476.46,-174"/>
<text text-anchor="middle" x="520.96" y="-181" font-family="Helvetica,sans-Serif" font-size="10.00">ring_buffer.hpp</text>
</a>
</g>
</g>
<!-- Node36&#45;&gt;Node37 -->
<g id="edge61" class="edge">
<title>Node36&#45;&gt;Node37</title>
<path fill="none" stroke="midnightblue" d="M716.08,-240.87C676.05,-229.3 604.9,-208.75 560.47,-195.91"/>
<polygon fill="midnightblue" stroke="midnightblue" points="561.18,-192.48 550.61,-193.06 559.24,-199.2 561.18,-192.48"/>
</g>
</g>
</svg>
