<?xml version="1.0" encoding="UTF-8" standalone="no"?>
<!DOCTYPE svg PUBLIC "-//W3C//DTD SVG 1.1//EN"
 "http://www.w3.org/Graphics/SVG/1.1/DTD/svg11.dtd">
<!-- Generated by graphviz version 5.0.1 (20220820.1526)
 -->
<!-- Title: search_work Pages: 1 -->
<svg width="389pt" height="100pt"
 viewBox="0.00 0.00 389.00 99.50" xmlns="http://www.w3.org/2000/svg" xmlns:xlink="http://www.w3.org/1999/xlink">
<g id="graph0" class="graph" transform="scale(1 1) rotate(0) translate(4 95.5)">
<title>search_work</title>
<!-- Node1 -->
<g id="node1" class="node">
<title>Node1</title>
<g id="a_node1"><a xlink:title=" ">
<polygon fill="#bfbfbf" stroke="black" points="0,-50 0,-69 78,-69 78,-50 0,-50"/>
<text text-anchor="middle" x="39" y="-57" font-family="Helvetica,sans-Serif" font-size="10.00">search_work</text>
</a>
</g>
</g>
<!-- Node2 -->
<g id="node2" class="node">
<title>Node2</title>
<g id="a_node2"><a xlink:href="../../d6/de8/muxoclon_8cpp.html#ae679a4ab64cc41d8f5f236b0c7f2b6a2" target="_top" xlink:title=" ">
<polygon fill="none" stroke="black" points="122,-72 122,-91 216,-91 216,-72 122,-72"/>
<text text-anchor="middle" x="169" y="-79" font-family="Helvetica,sans-Serif" font-size="10.00">directed_search</text>
</a>
</g>
</g>
<!-- Node1&#45;&gt;Node2 -->
<g id="edge1" class="edge">
<title>Node1&#45;&gt;Node2</title>
<path fill="none" stroke="midnightblue" d="M78.06,-66.04C88.66,-67.86 100.4,-69.88 111.81,-71.84"/>
<polygon fill="midnightblue" stroke="midnightblue" points="111.27,-75.3 121.71,-73.54 112.45,-68.4 111.27,-75.3"/>
</g>
<!-- Node3 -->
<g id="node3" class="node">
<title>Node3</title>
<g id="a_node3"><a xlink:href="../../db/dcd/classuxn_1_1patl_1_1impl_1_1trie__generic.html#a49134514a564c6c69cfbb52268ba45ae" target="_top" xlink:title=" ">
<polygon fill="none" stroke="black" points="114,-22.5 114,-52.5 224,-52.5 224,-22.5 114,-22.5"/>
<text text-anchor="start" x="122" y="-40.5" font-family="Helvetica,sans-Serif" font-size="10.00">uxn::patl::impl::trie</text>
<text text-anchor="middle" x="169" y="-29.5" font-family="Helvetica,sans-Serif" font-size="10.00">_generic::insert</text>
</a>
</g>
</g>
<!-- Node1&#45;&gt;Node3 -->
<g id="edge2" class="edge">
<title>Node1&#45;&gt;Node3</title>
<path fill="none" stroke="midnightblue" d="M78.06,-52.96C86.2,-51.56 95.01,-50.05 103.82,-48.53"/>
<polygon fill="midnightblue" stroke="midnightblue" points="104.48,-51.97 113.75,-46.82 103.3,-45.07 104.48,-51.97"/>
</g>
<!-- Node4 -->
<g id="node4" class="node">
<title>Node4</title>
<g id="a_node4"><a xlink:href="../../dd/d0e/namespaceuxn_1_1patl_1_1impl.html#ab90f63027d43b408cc70d2f0db94c9fc" target="_top" xlink:title=" ">
<polygon fill="none" stroke="black" points="260,-50 260,-69 381,-69 381,-50 260,-50"/>
<text text-anchor="middle" x="320.5" y="-57" font-family="Helvetica,sans-Serif" font-size="10.00">uxn::patl::impl::max0</text>
</a>
</g>
</g>
<!-- Node3&#45;&gt;Node4 -->
<g id="edge3" class="edge">
<title>Node3&#45;&gt;Node4</title>
<path fill="none" stroke="midnightblue" d="M224.4,-45.5C232.68,-46.72 241.32,-48 249.87,-49.25"/>
<polygon fill="midnightblue" stroke="midnightblue" points="249.44,-52.73 259.84,-50.72 250.46,-45.8 249.44,-52.73"/>
</g>
<!-- Node5 -->
<g id="node5" class="node">
<title>Node5</title>
<g id="a_node5"><a xlink:href="../../d3/d81/classuxn_1_1patl_1_1impl_1_1const__vertex__generic.html#aea777dfc1baa0c2ccc8566c7e613a91d" target="_top" xlink:title=" ">
<polygon fill="none" stroke="black" points="260,-0.5 260,-30.5 381,-30.5 381,-0.5 260,-0.5"/>
<text text-anchor="start" x="268" y="-18.5" font-family="Helvetica,sans-Serif" font-size="10.00">uxn::patl::impl::const</text>
<text text-anchor="middle" x="320.5" y="-7.5" font-family="Helvetica,sans-Serif" font-size="10.00">_vertex_generic::skip</text>
</a>
</g>
</g>
<!-- Node3&#45;&gt;Node5 -->
<g id="edge4" class="edge">
<title>Node3&#45;&gt;Node5</title>
<path fill="none" stroke="midnightblue" d="M224.4,-29.5C232.68,-28.28 241.32,-27 249.87,-25.75"/>
<polygon fill="midnightblue" stroke="midnightblue" points="250.46,-29.2 259.84,-24.28 249.44,-22.27 250.46,-29.2"/>
</g>
</g>
</svg>
