<?xml version="1.0" encoding="UTF-8" standalone="no"?>
<!DOCTYPE svg PUBLIC "-//W3C//DTD SVG 1.1//EN"
 "http://www.w3.org/Graphics/SVG/1.1/DTD/svg11.dtd">
<!-- Generated by graphviz version 5.0.1 (20220820.1526)
 -->
<!-- Title: main Pages: 1 -->
<svg width="466pt" height="100pt"
 viewBox="0.00 0.00 466.00 99.50" xmlns="http://www.w3.org/2000/svg" xmlns:xlink="http://www.w3.org/1999/xlink">
<g id="graph0" class="graph" transform="scale(1 1) rotate(0) translate(4 95.5)">
<title>main</title>
<!-- Node1 -->
<g id="node1" class="node">
<title>Node1</title>
<g id="a_node1"><a xlink:title=" ">
<polygon fill="#bfbfbf" stroke="black" points="0,-50 0,-69 41,-69 41,-50 0,-50"/>
<text text-anchor="middle" x="20.5" y="-57" font-family="Helvetica,sans-Serif" font-size="10.00">main</text>
</a>
</g>
</g>
<!-- Node2 -->
<g id="node2" class="node">
<title>Node2</title>
<g id="a_node2"><a xlink:href="../../d6/de8/muxoclon_8cpp.html#a8c4f4d8cc49976be28ff5ce5fef3015a" target="_top" xlink:title=" ">
<polygon fill="none" stroke="black" points="77,-50 77,-69 155,-69 155,-50 77,-50"/>
<text text-anchor="middle" x="116" y="-57" font-family="Helvetica,sans-Serif" font-size="10.00">search_work</text>
</a>
</g>
</g>
<!-- Node1&#45;&gt;Node2 -->
<g id="edge1" class="edge">
<title>Node1&#45;&gt;Node2</title>
<path fill="none" stroke="midnightblue" d="M41.33,-59.5C48.81,-59.5 57.68,-59.5 66.63,-59.5"/>
<polygon fill="midnightblue" stroke="midnightblue" points="66.7,-63 76.7,-59.5 66.7,-56 66.7,-63"/>
</g>
<!-- Node3 -->
<g id="node3" class="node">
<title>Node3</title>
<g id="a_node3"><a xlink:href="../../d6/de8/muxoclon_8cpp.html#ae679a4ab64cc41d8f5f236b0c7f2b6a2" target="_top" xlink:title=" ">
<polygon fill="none" stroke="black" points="199,-72 199,-91 293,-91 293,-72 199,-72"/>
<text text-anchor="middle" x="246" y="-79" font-family="Helvetica,sans-Serif" font-size="10.00">directed_search</text>
</a>
</g>
</g>
<!-- Node2&#45;&gt;Node3 -->
<g id="edge2" class="edge">
<title>Node2&#45;&gt;Node3</title>
<path fill="none" stroke="midnightblue" d="M155.06,-66.04C165.66,-67.86 177.4,-69.88 188.81,-71.84"/>
<polygon fill="midnightblue" stroke="midnightblue" points="188.27,-75.3 198.71,-73.54 189.45,-68.4 188.27,-75.3"/>
</g>
<!-- Node4 -->
<g id="node4" class="node">
<title>Node4</title>
<g id="a_node4"><a xlink:href="../../db/dcd/classuxn_1_1patl_1_1impl_1_1trie__generic.html#a49134514a564c6c69cfbb52268ba45ae" target="_top" xlink:title=" ">
<polygon fill="none" stroke="black" points="191,-22.5 191,-52.5 301,-52.5 301,-22.5 191,-22.5"/>
<text text-anchor="start" x="199" y="-40.5" font-family="Helvetica,sans-Serif" font-size="10.00">uxn::patl::impl::trie</text>
<text text-anchor="middle" x="246" y="-29.5" font-family="Helvetica,sans-Serif" font-size="10.00">_generic::insert</text>
</a>
</g>
</g>
<!-- Node2&#45;&gt;Node4 -->
<g id="edge3" class="edge">
<title>Node2&#45;&gt;Node4</title>
<path fill="none" stroke="midnightblue" d="M155.06,-52.96C163.2,-51.56 172.01,-50.05 180.82,-48.53"/>
<polygon fill="midnightblue" stroke="midnightblue" points="181.48,-51.97 190.75,-46.82 180.3,-45.07 181.48,-51.97"/>
</g>
<!-- Node5 -->
<g id="node5" class="node">
<title>Node5</title>
<g id="a_node5"><a xlink:href="../../dd/d0e/namespaceuxn_1_1patl_1_1impl.html#ab90f63027d43b408cc70d2f0db94c9fc" target="_top" xlink:title=" ">
<polygon fill="none" stroke="black" points="337,-50 337,-69 458,-69 458,-50 337,-50"/>
<text text-anchor="middle" x="397.5" y="-57" font-family="Helvetica,sans-Serif" font-size="10.00">uxn::patl::impl::max0</text>
</a>
</g>
</g>
<!-- Node4&#45;&gt;Node5 -->
<g id="edge4" class="edge">
<title>Node4&#45;&gt;Node5</title>
<path fill="none" stroke="midnightblue" d="M301.4,-45.5C309.68,-46.72 318.32,-48 326.87,-49.25"/>
<polygon fill="midnightblue" stroke="midnightblue" points="326.44,-52.73 336.84,-50.72 327.46,-45.8 326.44,-52.73"/>
</g>
<!-- Node6 -->
<g id="node6" class="node">
<title>Node6</title>
<g id="a_node6"><a xlink:href="../../d3/d81/classuxn_1_1patl_1_1impl_1_1const__vertex__generic.html#aea777dfc1baa0c2ccc8566c7e613a91d" target="_top" xlink:title=" ">
<polygon fill="none" stroke="black" points="337,-0.5 337,-30.5 458,-30.5 458,-0.5 337,-0.5"/>
<text text-anchor="start" x="345" y="-18.5" font-family="Helvetica,sans-Serif" font-size="10.00">uxn::patl::impl::const</text>
<text text-anchor="middle" x="397.5" y="-7.5" font-family="Helvetica,sans-Serif" font-size="10.00">_vertex_generic::skip</text>
</a>
</g>
</g>
<!-- Node4&#45;&gt;Node6 -->
<g id="edge5" class="edge">
<title>Node4&#45;&gt;Node6</title>
<path fill="none" stroke="midnightblue" d="M301.4,-29.5C309.68,-28.28 318.32,-27 326.87,-25.75"/>
<polygon fill="midnightblue" stroke="midnightblue" points="327.46,-29.2 336.84,-24.28 326.44,-22.27 327.46,-29.2"/>
</g>
</g>
</svg>
