<?xml version="1.0" encoding="UTF-8" standalone="no"?>
<!DOCTYPE svg PUBLIC "-//W3C//DTD SVG 1.1//EN"
 "http://www.w3.org/Graphics/SVG/1.1/DTD/svg11.dtd">
<!-- Generated by graphviz version 5.0.1 (20220820.1526)
 -->
<!-- Title: uxn/demos/sort_lin/sort_lin.cpp Pages: 1 -->
<svg width="1480pt" height="408pt"
 viewBox="0.00 0.00 1479.50 408.00" xmlns="http://www.w3.org/2000/svg" xmlns:xlink="http://www.w3.org/1999/xlink">
<g id="graph0" class="graph" transform="scale(1 1) rotate(0) translate(4 404)">
<title>uxn/demos/sort_lin/sort_lin.cpp</title>
<!-- Node1 -->
<g id="node1" class="node">
<title>Node1</title>
<g id="a_node1"><a xlink:title=" ">
<polygon fill="#bfbfbf" stroke="black" points="253,-369.5 253,-399.5 363,-399.5 363,-369.5 253,-369.5"/>
<text text-anchor="start" x="261" y="-387.5" font-family="Helvetica,sans-Serif" font-size="10.00">uxn/demos/sort_lin</text>
<text text-anchor="middle" x="308" y="-376.5" font-family="Helvetica,sans-Serif" font-size="10.00">/sort_lin.cpp</text>
</a>
</g>
</g>
<!-- Node2 -->
<g id="node2" class="node">
<title>Node2</title>
<g id="a_node2"><a xlink:title=" ">
<polygon fill="none" stroke="#bfbfbf" points="0,-308 0,-327 32,-327 32,-308 0,-308"/>
<text text-anchor="middle" x="16" y="-315" font-family="Helvetica,sans-Serif" font-size="10.00">list</text>
</a>
</g>
</g>
<!-- Node1&#45;&gt;Node2 -->
<g id="edge1" class="edge">
<title>Node1&#45;&gt;Node2</title>
<path fill="none" stroke="midnightblue" d="M252.85,-378.57C197.81,-372.39 111.52,-359.24 41,-333 39.97,-332.62 38.92,-332.19 37.88,-331.73"/>
<polygon fill="midnightblue" stroke="midnightblue" points="39.31,-328.53 28.82,-327.05 36.1,-334.75 39.31,-328.53"/>
</g>
<!-- Node3 -->
<g id="node3" class="node">
<title>Node3</title>
<g id="a_node3"><a xlink:href="../../d6/d3c/generator_8hpp.html" target="_top" xlink:title=" ">
<polygon fill="none" stroke="black" points="50,-308 50,-327 202,-327 202,-308 50,-308"/>
<text text-anchor="middle" x="126" y="-315" font-family="Helvetica,sans-Serif" font-size="10.00">uxn/patl/impl/generator.hpp</text>
</a>
</g>
</g>
<!-- Node1&#45;&gt;Node3 -->
<g id="edge2" class="edge">
<title>Node1&#45;&gt;Node3</title>
<path fill="none" stroke="midnightblue" d="M268.51,-369.4C235.87,-357.74 190.04,-341.37 159.25,-330.38"/>
<polygon fill="midnightblue" stroke="midnightblue" points="160.41,-327.07 149.82,-327.01 158.06,-333.67 160.41,-327.07"/>
</g>
<!-- Node4 -->
<g id="node4" class="node">
<title>Node4</title>
<g id="a_node4"><a xlink:href="../../d9/df1/file__utils_8hpp.html" target="_top" xlink:title=" ">
<polygon fill="none" stroke="black" points="227.5,-112.5 227.5,-142.5 328.5,-142.5 328.5,-112.5 227.5,-112.5"/>
<text text-anchor="start" x="235.5" y="-130.5" font-family="Helvetica,sans-Serif" font-size="10.00">uxn/patl/aux_/file</text>
<text text-anchor="middle" x="278" y="-119.5" font-family="Helvetica,sans-Serif" font-size="10.00">_utils.hpp</text>
</a>
</g>
</g>
<!-- Node1&#45;&gt;Node4 -->
<g id="edge3" class="edge">
<title>Node1&#45;&gt;Node4</title>
<path fill="none" stroke="midnightblue" d="M300.92,-369.31C296.35,-359.4 290.75,-345.72 288,-333 274.19,-269.12 275.06,-191.52 276.64,-152.85"/>
<polygon fill="midnightblue" stroke="midnightblue" points="280.15,-152.74 277.12,-142.59 273.16,-152.42 280.15,-152.74"/>
</g>
<!-- Node9 -->
<g id="node9" class="node">
<title>Node9</title>
<g id="a_node9"><a xlink:href="../../df/dee/file__mapping__io_8hpp.html" target="_top" xlink:title=" ">
<polygon fill="none" stroke="black" points="138.5,-179.5 138.5,-209.5 239.5,-209.5 239.5,-179.5 138.5,-179.5"/>
<text text-anchor="start" x="146.5" y="-197.5" font-family="Helvetica,sans-Serif" font-size="10.00">uxn/patl/aux_/file</text>
<text text-anchor="middle" x="189" y="-186.5" font-family="Helvetica,sans-Serif" font-size="10.00">_mapping_io.hpp</text>
</a>
</g>
</g>
<!-- Node1&#45;&gt;Node9 -->
<g id="edge8" class="edge">
<title>Node1&#45;&gt;Node9</title>
<path fill="none" stroke="midnightblue" d="M289.8,-369.49C278.46,-360.08 264.14,-346.9 254,-333 227.53,-296.71 207.54,-247.94 197.1,-219.29"/>
<polygon fill="midnightblue" stroke="midnightblue" points="200.34,-217.96 193.7,-209.71 193.75,-220.31 200.34,-217.96"/>
</g>
<!-- Node14 -->
<g id="node14" class="node">
<title>Node14</title>
<g id="a_node14"><a xlink:href="../../d2/d6c/buffered__io_8hpp.html" target="_top" xlink:title=" ">
<polygon fill="none" stroke="black" points="320,-179.5 320,-209.5 446,-209.5 446,-179.5 320,-179.5"/>
<text text-anchor="start" x="328" y="-197.5" font-family="Helvetica,sans-Serif" font-size="10.00">uxn/patl/aux_/buffered</text>
<text text-anchor="middle" x="383" y="-186.5" font-family="Helvetica,sans-Serif" font-size="10.00">_io.hpp</text>
</a>
</g>
</g>
<!-- Node1&#45;&gt;Node14 -->
<g id="edge17" class="edge">
<title>Node1&#45;&gt;Node14</title>
<path fill="none" stroke="midnightblue" d="M363.04,-369.49C381.54,-361.87 400.2,-350.32 411,-333 433.23,-297.34 412.79,-247.31 397.09,-218.46"/>
<polygon fill="midnightblue" stroke="midnightblue" points="400,-216.5 392.01,-209.54 393.92,-219.96 400,-216.5"/>
</g>
<!-- Node17 -->
<g id="node17" class="node">
<title>Node17</title>
<g id="a_node17"><a xlink:href="../../d9/df3/perf__timer_8hpp.html" target="_top" xlink:title=" ">
<polygon fill="none" stroke="black" points="296.5,-302.5 296.5,-332.5 401.5,-332.5 401.5,-302.5 296.5,-302.5"/>
<text text-anchor="start" x="304.5" y="-320.5" font-family="Helvetica,sans-Serif" font-size="10.00">uxn/patl/aux_/perf</text>
<text text-anchor="middle" x="349" y="-309.5" font-family="Helvetica,sans-Serif" font-size="10.00">_timer.hpp</text>
</a>
</g>
</g>
<!-- Node1&#45;&gt;Node17 -->
<g id="edge23" class="edge">
<title>Node1&#45;&gt;Node17</title>
<path fill="none" stroke="midnightblue" d="M316.9,-369.4C322.11,-361.13 328.81,-350.51 334.74,-341.1"/>
<polygon fill="midnightblue" stroke="midnightblue" points="337.75,-342.9 340.12,-332.58 331.83,-339.17 337.75,-342.9"/>
</g>
<!-- Node19 -->
<g id="node19" class="node">
<title>Node19</title>
<g id="a_node19"><a xlink:href="../../d4/db1/trie__set_8hpp.html" target="_top" xlink:title=" ">
<polygon fill="none" stroke="black" points="600.5,-308 600.5,-327 717.5,-327 717.5,-308 600.5,-308"/>
<text text-anchor="middle" x="659" y="-315" font-family="Helvetica,sans-Serif" font-size="10.00">uxn/patl/trie_set.hpp</text>
</a>
</g>
</g>
<!-- Node1&#45;&gt;Node19 -->
<g id="edge25" class="edge">
<title>Node1&#45;&gt;Node19</title>
<path fill="none" stroke="midnightblue" d="M363.15,-374.22C420.26,-364.48 512.02,-348.46 591,-333 597.22,-331.78 603.75,-330.45 610.2,-329.11"/>
<polygon fill="midnightblue" stroke="midnightblue" points="611.14,-332.49 620.21,-327.01 609.7,-325.64 611.14,-332.49"/>
</g>
<!-- Node36 -->
<g id="node36" class="node">
<title>Node36</title>
<g id="a_node36"><a xlink:href="../../df/dc9/trie__map_8hpp.html" target="_top" xlink:title=" ">
<polygon fill="none" stroke="black" points="458,-308 458,-327 582,-327 582,-308 458,-308"/>
<text text-anchor="middle" x="520" y="-315" font-family="Helvetica,sans-Serif" font-size="10.00">uxn/patl/trie_map.hpp</text>
</a>
</g>
</g>
<!-- Node1&#45;&gt;Node36 -->
<g id="edge55" class="edge">
<title>Node1&#45;&gt;Node36</title>
<path fill="none" stroke="midnightblue" d="M353.74,-369.48C392.24,-357.67 446.61,-341 482.56,-329.98"/>
<polygon fill="midnightblue" stroke="midnightblue" points="483.65,-333.31 492.18,-327.03 481.6,-326.61 483.65,-333.31"/>
</g>
<!-- Node5 -->
<g id="node5" class="node">
<title>Node5</title>
<g id="a_node5"><a xlink:href="../../d8/dfd/config_8hpp.html" target="_top" xlink:title=" ">
<polygon fill="none" stroke="black" points="362,-0.5 362,-19.5 438,-19.5 438,-0.5 362,-0.5"/>
<text text-anchor="middle" x="400" y="-7.5" font-family="Helvetica,sans-Serif" font-size="10.00">../config.hpp</text>
</a>
</g>
</g>
<!-- Node4&#45;&gt;Node5 -->
<g id="edge4" class="edge">
<title>Node4&#45;&gt;Node5</title>
<path fill="none" stroke="midnightblue" d="M273.62,-112.39C269.79,-97.07 266.45,-72.57 278,-56 294.65,-32.11 325.51,-20.87 352.02,-15.59"/>
<polygon fill="midnightblue" stroke="midnightblue" points="352.69,-19.03 361.93,-13.85 351.48,-12.14 352.69,-19.03"/>
</g>
<!-- Node6 -->
<g id="node6" class="node">
<title>Node6</title>
<g id="a_node6"><a xlink:title=" ">
<polygon fill="none" stroke="#bfbfbf" points="287,-56.5 287,-75.5 331,-75.5 331,-56.5 287,-56.5"/>
<text text-anchor="middle" x="309" y="-63.5" font-family="Helvetica,sans-Serif" font-size="10.00">string</text>
</a>
</g>
</g>
<!-- Node4&#45;&gt;Node6 -->
<g id="edge5" class="edge">
<title>Node4&#45;&gt;Node6</title>
<path fill="none" stroke="midnightblue" d="M285.35,-112.4C289.67,-104.11 295.17,-93.55 299.77,-84.71"/>
<polygon fill="midnightblue" stroke="midnightblue" points="302.97,-86.14 304.49,-75.66 296.76,-82.91 302.97,-86.14"/>
</g>
<!-- Node7 -->
<g id="node7" class="node">
<title>Node7</title>
<g id="a_node7"><a xlink:title=" ">
<polygon fill="none" stroke="#bfbfbf" points="407.5,-56.5 407.5,-75.5 454.5,-75.5 454.5,-56.5 407.5,-56.5"/>
<text text-anchor="middle" x="431" y="-63.5" font-family="Helvetica,sans-Serif" font-size="10.00">vector</text>
</a>
</g>
</g>
<!-- Node4&#45;&gt;Node7 -->
<g id="edge6" class="edge">
<title>Node4&#45;&gt;Node7</title>
<path fill="none" stroke="midnightblue" d="M314.26,-112.4C340.04,-102.37 374.36,-89.03 399.1,-79.4"/>
<polygon fill="midnightblue" stroke="midnightblue" points="400.69,-82.54 408.74,-75.66 398.15,-76.02 400.69,-82.54"/>
</g>
<!-- Node8 -->
<g id="node8" class="node">
<title>Node8</title>
<g id="a_node8"><a xlink:title=" ">
<polygon fill="none" stroke="#bfbfbf" points="163,-56.5 163,-75.5 231,-75.5 231,-56.5 163,-56.5"/>
<text text-anchor="middle" x="197" y="-63.5" font-family="Helvetica,sans-Serif" font-size="10.00">windows.h</text>
</a>
</g>
</g>
<!-- Node4&#45;&gt;Node8 -->
<g id="edge7" class="edge">
<title>Node4&#45;&gt;Node8</title>
<path fill="none" stroke="midnightblue" d="M258.8,-112.4C246.18,-103.13 229.71,-91.03 216.94,-81.65"/>
<polygon fill="midnightblue" stroke="midnightblue" points="218.92,-78.76 208.79,-75.66 214.77,-84.4 218.92,-78.76"/>
</g>
<!-- Node9&#45;&gt;Node4 -->
<g id="edge15" class="edge">
<title>Node9&#45;&gt;Node4</title>
<path fill="none" stroke="midnightblue" d="M208.31,-179.4C220.67,-170.37 236.9,-158.51 250.59,-148.52"/>
<polygon fill="midnightblue" stroke="midnightblue" points="252.71,-151.3 258.73,-142.58 248.59,-145.65 252.71,-151.3"/>
</g>
<!-- Node9&#45;&gt;Node5 -->
<g id="edge9" class="edge">
<title>Node9&#45;&gt;Node5</title>
<path fill="none" stroke="midnightblue" d="M178.15,-179.25C158.91,-152.12 123.56,-92.52 154,-56 178.62,-26.46 286.95,-16.26 351.36,-12.77"/>
<polygon fill="midnightblue" stroke="midnightblue" points="351.87,-16.25 361.69,-12.25 351.52,-9.26 351.87,-16.25"/>
</g>
<!-- Node9&#45;&gt;Node8 -->
<g id="edge16" class="edge">
<title>Node9&#45;&gt;Node8</title>
<path fill="none" stroke="midnightblue" d="M186.77,-179.3C184.56,-162.99 181.93,-135.46 185,-112 186.16,-103.18 188.53,-93.63 190.87,-85.61"/>
<polygon fill="midnightblue" stroke="midnightblue" points="194.29,-86.42 193.91,-75.83 187.6,-84.34 194.29,-86.42"/>
</g>
<!-- Node10 -->
<g id="node10" class="node">
<title>Node10</title>
<g id="a_node10"><a xlink:href="../../d9/d3a/trivial_8hpp.html" target="_top" xlink:title=" ">
<polygon fill="none" stroke="black" points="526,-56.5 526,-75.5 626,-75.5 626,-56.5 526,-56.5"/>
<text text-anchor="middle" x="576" y="-63.5" font-family="Helvetica,sans-Serif" font-size="10.00">../impl/trivial.hpp</text>
</a>
</g>
</g>
<!-- Node9&#45;&gt;Node10 -->
<g id="edge10" class="edge">
<title>Node9&#45;&gt;Node10</title>
<path fill="none" stroke="midnightblue" d="M239.77,-187.38C340.22,-175.17 555.19,-148.47 561,-143 576.42,-128.48 578.54,-103.06 577.9,-85.65"/>
<polygon fill="midnightblue" stroke="midnightblue" points="581.38,-85.28 577.18,-75.56 574.4,-85.78 581.38,-85.28"/>
</g>
<!-- Node10&#45;&gt;Node5 -->
<g id="edge11" class="edge">
<title>Node10&#45;&gt;Node5</title>
<path fill="none" stroke="midnightblue" d="M548.11,-56.44C518.25,-47.28 470.69,-32.69 437.54,-22.52"/>
<polygon fill="midnightblue" stroke="midnightblue" points="438.34,-19.1 427.76,-19.52 436.29,-25.8 438.34,-19.1"/>
</g>
<!-- Node11 -->
<g id="node11" class="node">
<title>Node11</title>
<g id="a_node11"><a xlink:title=" ">
<polygon fill="none" stroke="#bfbfbf" points="462.5,-0.5 462.5,-19.5 531.5,-19.5 531.5,-0.5 462.5,-0.5"/>
<text text-anchor="middle" x="497" y="-7.5" font-family="Helvetica,sans-Serif" font-size="10.00">type_traits</text>
</a>
</g>
</g>
<!-- Node10&#45;&gt;Node11 -->
<g id="edge12" class="edge">
<title>Node10&#45;&gt;Node11</title>
<path fill="none" stroke="midnightblue" d="M563.31,-56.32C551.1,-47.98 532.42,-35.21 518,-25.35"/>
<polygon fill="midnightblue" stroke="midnightblue" points="519.89,-22.41 509.66,-19.65 515.94,-28.19 519.89,-22.41"/>
</g>
<!-- Node12 -->
<g id="node12" class="node">
<title>Node12</title>
<g id="a_node12"><a xlink:title=" ">
<polygon fill="none" stroke="#bfbfbf" points="550,-0.5 550,-19.5 602,-19.5 602,-0.5 550,-0.5"/>
<text text-anchor="middle" x="576" y="-7.5" font-family="Helvetica,sans-Serif" font-size="10.00">cassert</text>
</a>
</g>
</g>
<!-- Node10&#45;&gt;Node12 -->
<g id="edge13" class="edge">
<title>Node10&#45;&gt;Node12</title>
<path fill="none" stroke="midnightblue" d="M576,-56.08C576,-49.01 576,-38.86 576,-29.99"/>
<polygon fill="midnightblue" stroke="midnightblue" points="579.5,-29.75 576,-19.75 572.5,-29.75 579.5,-29.75"/>
</g>
<!-- Node13 -->
<g id="node13" class="node">
<title>Node13</title>
<g id="a_node13"><a xlink:title=" ">
<polygon fill="none" stroke="#bfbfbf" points="620.5,-0.5 620.5,-19.5 671.5,-19.5 671.5,-0.5 620.5,-0.5"/>
<text text-anchor="middle" x="646" y="-7.5" font-family="Helvetica,sans-Serif" font-size="10.00">intrin.h</text>
</a>
</g>
</g>
<!-- Node10&#45;&gt;Node13 -->
<g id="edge14" class="edge">
<title>Node10&#45;&gt;Node13</title>
<path fill="none" stroke="midnightblue" d="M587.25,-56.32C597.8,-48.18 613.8,-35.84 626.44,-26.09"/>
<polygon fill="midnightblue" stroke="midnightblue" points="628.77,-28.71 634.55,-19.83 624.49,-23.17 628.77,-28.71"/>
</g>
<!-- Node14&#45;&gt;Node4 -->
<g id="edge19" class="edge">
<title>Node14&#45;&gt;Node4</title>
<path fill="none" stroke="midnightblue" d="M360.22,-179.4C345.36,-170.2 325.76,-158.07 309.43,-147.95"/>
<polygon fill="midnightblue" stroke="midnightblue" points="311.08,-144.86 300.74,-142.58 307.4,-150.82 311.08,-144.86"/>
</g>
<!-- Node14&#45;&gt;Node5 -->
<g id="edge18" class="edge">
<title>Node14&#45;&gt;Node5</title>
<path fill="none" stroke="midnightblue" d="M380.87,-179.39C379.46,-169.29 377.73,-155.34 377,-143 376.19,-129.25 375.46,-125.69 377,-112 380.31,-82.6 388.86,-49.27 394.56,-29.21"/>
<polygon fill="midnightblue" stroke="midnightblue" points="397.94,-30.11 397.37,-19.53 391.22,-28.16 397.94,-30.11"/>
</g>
<!-- Node14&#45;&gt;Node8 -->
<g id="edge22" class="edge">
<title>Node14&#45;&gt;Node8</title>
<path fill="none" stroke="midnightblue" d="M319.74,-188.73C285.35,-182.91 244.53,-170.27 218,-143 203.19,-127.77 198.62,-103.08 197.31,-85.99"/>
<polygon fill="midnightblue" stroke="midnightblue" points="200.79,-85.42 196.85,-75.59 193.8,-85.73 200.79,-85.42"/>
</g>
<!-- Node15 -->
<g id="node15" class="node">
<title>Node15</title>
<g id="a_node15"><a xlink:title=" ">
<polygon fill="none" stroke="#bfbfbf" points="712,-118 712,-137 776,-137 776,-118 712,-118"/>
<text text-anchor="middle" x="744" y="-125" font-family="Helvetica,sans-Serif" font-size="10.00">algorithm</text>
</a>
</g>
</g>
<!-- Node14&#45;&gt;Node15 -->
<g id="edge20" class="edge">
<title>Node14&#45;&gt;Node15</title>
<path fill="none" stroke="midnightblue" d="M446.23,-186.99C511.29,-179.49 615.22,-165.25 703,-143 706.05,-142.23 709.19,-141.32 712.32,-140.35"/>
<polygon fill="midnightblue" stroke="midnightblue" points="713.72,-143.57 722.1,-137.08 711.51,-136.93 713.72,-143.57"/>
</g>
<!-- Node16 -->
<g id="node16" class="node">
<title>Node16</title>
<g id="a_node16"><a xlink:title=" ">
<polygon fill="none" stroke="#bfbfbf" points="385.5,-118 385.5,-137 450.5,-137 450.5,-118 385.5,-118"/>
<text text-anchor="middle" x="418" y="-125" font-family="Helvetica,sans-Serif" font-size="10.00">exception</text>
</a>
</g>
</g>
<!-- Node14&#45;&gt;Node16 -->
<g id="edge21" class="edge">
<title>Node14&#45;&gt;Node16</title>
<path fill="none" stroke="midnightblue" d="M390.59,-179.4C395.84,-169.66 402.84,-156.65 408.46,-146.21"/>
<polygon fill="midnightblue" stroke="midnightblue" points="411.66,-147.66 413.32,-137.19 405.5,-144.34 411.66,-147.66"/>
</g>
<!-- Node18 -->
<g id="node18" class="node">
<title>Node18</title>
<g id="a_node18"><a xlink:title=" ">
<polygon fill="none" stroke="#bfbfbf" points="318,-246.5 318,-265.5 380,-265.5 380,-246.5 318,-246.5"/>
<text text-anchor="middle" x="349" y="-253.5" font-family="Helvetica,sans-Serif" font-size="10.00">cinttypes</text>
</a>
</g>
</g>
<!-- Node17&#45;&gt;Node18 -->
<g id="edge24" class="edge">
<title>Node17&#45;&gt;Node18</title>
<path fill="none" stroke="midnightblue" d="M349,-302.4C349,-294.47 349,-284.46 349,-275.86"/>
<polygon fill="midnightblue" stroke="midnightblue" points="352.5,-275.66 349,-265.66 345.5,-275.66 352.5,-275.66"/>
</g>
<!-- Node20 -->
<g id="node20" class="node">
<title>Node20</title>
<g id="a_node20"><a xlink:href="../../d9/d25/trie__generic_8hpp.html" target="_top" xlink:title=" ">
<polygon fill="none" stroke="black" points="709,-246.5 709,-265.5 829,-265.5 829,-246.5 709,-246.5"/>
<text text-anchor="middle" x="769" y="-253.5" font-family="Helvetica,sans-Serif" font-size="10.00">impl/trie_generic.hpp</text>
</a>
</g>
</g>
<!-- Node19&#45;&gt;Node20 -->
<g id="edge26" class="edge">
<title>Node19&#45;&gt;Node20</title>
<path fill="none" stroke="midnightblue" d="M674.76,-307.98C692.98,-298.12 723.17,-281.79 744.47,-270.27"/>
<polygon fill="midnightblue" stroke="midnightblue" points="746.14,-273.35 753.27,-265.51 742.81,-267.19 746.14,-273.35"/>
</g>
<!-- Node35 -->
<g id="node35" class="node">
<title>Node35</title>
<g id="a_node35"><a xlink:href="../../d1/dff/bit__comp_8hpp.html" target="_top" xlink:title=" ">
<polygon fill="none" stroke="black" points="468.5,-118 468.5,-137 551.5,-137 551.5,-118 468.5,-118"/>
<text text-anchor="middle" x="510" y="-125" font-family="Helvetica,sans-Serif" font-size="10.00">bit_comp.hpp</text>
</a>
</g>
</g>
<!-- Node19&#45;&gt;Node35 -->
<g id="edge51" class="edge">
<title>Node19&#45;&gt;Node35</title>
<path fill="none" stroke="midnightblue" d="M652.21,-307.93C629.23,-278.94 554.1,-184.14 523.33,-145.31"/>
<polygon fill="midnightblue" stroke="midnightblue" points="525.78,-142.78 516.83,-137.12 520.3,-147.13 525.78,-142.78"/>
</g>
<!-- Node20&#45;&gt;Node15 -->
<g id="edge27" class="edge">
<title>Node20&#45;&gt;Node15</title>
<path fill="none" stroke="midnightblue" d="M766.99,-246.39C764.9,-237.35 761.58,-222.71 759,-210 754.63,-188.46 750.13,-163.61 747.22,-147.07"/>
<polygon fill="midnightblue" stroke="midnightblue" points="750.64,-146.33 745.47,-137.09 743.75,-147.54 750.64,-146.33"/>
</g>
<!-- Node21 -->
<g id="node21" class="node">
<title>Node21</title>
<g id="a_node21"><a xlink:title=" ">
<polygon fill="none" stroke="#bfbfbf" points="848.5,-185 848.5,-204 913.5,-204 913.5,-185 848.5,-185"/>
<text text-anchor="middle" x="881" y="-192" font-family="Helvetica,sans-Serif" font-size="10.00">functional</text>
</a>
</g>
</g>
<!-- Node20&#45;&gt;Node21 -->
<g id="edge28" class="edge">
<title>Node20&#45;&gt;Node21</title>
<path fill="none" stroke="midnightblue" d="M785.05,-246.48C803.59,-236.62 834.34,-220.29 856.02,-208.77"/>
<polygon fill="midnightblue" stroke="midnightblue" points="857.79,-211.79 864.98,-204.01 854.51,-205.61 857.79,-211.79"/>
</g>
<!-- Node22 -->
<g id="node22" class="node">
<title>Node22</title>
<g id="a_node22"><a xlink:href="../../d3/d09/node_8hpp.html" target="_top" xlink:title=" ">
<polygon fill="none" stroke="black" points="768,-185 768,-204 830,-204 830,-185 768,-185"/>
<text text-anchor="middle" x="799" y="-192" font-family="Helvetica,sans-Serif" font-size="10.00">node.hpp</text>
</a>
</g>
</g>
<!-- Node20&#45;&gt;Node22 -->
<g id="edge29" class="edge">
<title>Node20&#45;&gt;Node22</title>
<path fill="none" stroke="midnightblue" d="M773.3,-246.48C777.66,-237.82 784.56,-224.15 790.1,-213.15"/>
<polygon fill="midnightblue" stroke="midnightblue" points="793.33,-214.51 794.71,-204.01 787.08,-211.36 793.33,-214.51"/>
</g>
<!-- Node23 -->
<g id="node23" class="node">
<title>Node23</title>
<g id="a_node23"><a xlink:href="../../d0/dd1/core__algorithm_8hpp.html" target="_top" xlink:title=" ">
<polygon fill="none" stroke="black" points="597.5,-185 597.5,-204 708.5,-204 708.5,-185 597.5,-185"/>
<text text-anchor="middle" x="653" y="-192" font-family="Helvetica,sans-Serif" font-size="10.00">core_algorithm.hpp</text>
</a>
</g>
</g>
<!-- Node20&#45;&gt;Node23 -->
<g id="edge32" class="edge">
<title>Node20&#45;&gt;Node23</title>
<path fill="none" stroke="midnightblue" d="M752.38,-246.48C733.08,-236.58 701.04,-220.14 678.57,-208.62"/>
<polygon fill="midnightblue" stroke="midnightblue" points="680.08,-205.46 669.59,-204.01 676.89,-211.69 680.08,-205.46"/>
</g>
<!-- Node25 -->
<g id="node25" class="node">
<title>Node25</title>
<g id="a_node25"><a xlink:href="../../de/d50/assoc__generic_8hpp.html" target="_top" xlink:title=" ">
<polygon fill="none" stroke="black" points="1036.5,-185 1036.5,-204 1143.5,-204 1143.5,-185 1036.5,-185"/>
<text text-anchor="middle" x="1090" y="-192" font-family="Helvetica,sans-Serif" font-size="10.00">assoc_generic.hpp</text>
</a>
</g>
</g>
<!-- Node20&#45;&gt;Node25 -->
<g id="edge36" class="edge">
<title>Node20&#45;&gt;Node25</title>
<path fill="none" stroke="midnightblue" d="M814.99,-246.48C872.8,-235.76 971.95,-217.38 1034.08,-205.87"/>
<polygon fill="midnightblue" stroke="midnightblue" points="1034.9,-209.27 1044.09,-204.01 1033.62,-202.39 1034.9,-209.27"/>
</g>
<!-- Node33 -->
<g id="node33" class="node">
<title>Node33</title>
<g id="a_node33"><a xlink:href="../../d7/dd8/core__prefix_8hpp.html" target="_top" xlink:title=" ">
<polygon fill="none" stroke="black" points="1277,-185 1277,-204 1369,-204 1369,-185 1277,-185"/>
<text text-anchor="middle" x="1323" y="-192" font-family="Helvetica,sans-Serif" font-size="10.00">core_prefix.hpp</text>
</a>
</g>
</g>
<!-- Node20&#45;&gt;Node33 -->
<g id="edge49" class="edge">
<title>Node20&#45;&gt;Node33</title>
<path fill="none" stroke="midnightblue" d="M829.08,-248.55C936.84,-236.97 1161.5,-212.85 1266.56,-201.56"/>
<polygon fill="midnightblue" stroke="midnightblue" points="1267.08,-205.03 1276.65,-200.48 1266.33,-198.07 1267.08,-205.03"/>
</g>
<!-- Node22&#45;&gt;Node5 -->
<g id="edge31" class="edge">
<title>Node22&#45;&gt;Node5</title>
<path fill="none" stroke="midnightblue" d="M800.11,-184.75C801.67,-168.46 802.58,-133.23 785,-112 739.6,-57.2 703.52,-75.2 635,-56 600.66,-46.38 506.68,-29.42 448.5,-19.3"/>
<polygon fill="midnightblue" stroke="midnightblue" points="448.88,-15.81 438.43,-17.55 447.69,-22.71 448.88,-15.81"/>
</g>
<!-- Node22&#45;&gt;Node15 -->
<g id="edge30" class="edge">
<title>Node22&#45;&gt;Node15</title>
<path fill="none" stroke="midnightblue" d="M791.58,-184.73C783.01,-174.6 768.7,-157.69 758.01,-145.06"/>
<polygon fill="midnightblue" stroke="midnightblue" points="760.43,-142.5 751.3,-137.13 755.09,-147.02 760.43,-142.5"/>
</g>
<!-- Node24 -->
<g id="node24" class="node">
<title>Node24</title>
<g id="a_node24"><a xlink:href="../../de/d55/algorithm_8hpp.html" target="_top" xlink:title=" ">
<polygon fill="none" stroke="black" points="608.5,-118 608.5,-137 693.5,-137 693.5,-118 608.5,-118"/>
<text text-anchor="middle" x="651" y="-125" font-family="Helvetica,sans-Serif" font-size="10.00">algorithm.hpp</text>
</a>
</g>
</g>
<!-- Node23&#45;&gt;Node24 -->
<g id="edge33" class="edge">
<title>Node23&#45;&gt;Node24</title>
<path fill="none" stroke="midnightblue" d="M652.73,-184.73C652.44,-175.18 651.96,-159.62 651.58,-147.28"/>
<polygon fill="midnightblue" stroke="midnightblue" points="655.07,-147.01 651.27,-137.13 648.07,-147.23 655.07,-147.01"/>
</g>
<!-- Node24&#45;&gt;Node5 -->
<g id="edge34" class="edge">
<title>Node24&#45;&gt;Node5</title>
<path fill="none" stroke="midnightblue" d="M624.85,-117.92C597.5,-108.65 553.55,-92.93 517,-76 483.27,-60.38 446.01,-38.9 422.8,-24.98"/>
<polygon fill="midnightblue" stroke="midnightblue" points="424.43,-21.88 414.06,-19.7 420.81,-27.87 424.43,-21.88"/>
</g>
<!-- Node24&#45;&gt;Node10 -->
<g id="edge35" class="edge">
<title>Node24&#45;&gt;Node10</title>
<path fill="none" stroke="midnightblue" d="M640.25,-117.98C628.45,-108.61 609.26,-93.38 594.92,-82.01"/>
<polygon fill="midnightblue" stroke="midnightblue" points="596.74,-78.98 586.73,-75.51 592.38,-84.47 596.74,-78.98"/>
</g>
<!-- Node26 -->
<g id="node26" class="node">
<title>Node26</title>
<g id="a_node26"><a xlink:href="../../d5/db7/preorder__iterator_8hpp.html" target="_top" xlink:title=" ">
<polygon fill="none" stroke="black" points="1030.5,-118 1030.5,-137 1149.5,-137 1149.5,-118 1030.5,-118"/>
<text text-anchor="middle" x="1090" y="-125" font-family="Helvetica,sans-Serif" font-size="10.00">preorder_iterator.hpp</text>
</a>
</g>
</g>
<!-- Node25&#45;&gt;Node26 -->
<g id="edge37" class="edge">
<title>Node25&#45;&gt;Node26</title>
<path fill="none" stroke="midnightblue" d="M1090,-184.73C1090,-175.18 1090,-159.62 1090,-147.28"/>
<polygon fill="midnightblue" stroke="midnightblue" points="1093.5,-147.13 1090,-137.13 1086.5,-147.13 1093.5,-147.13"/>
</g>
<!-- Node27 -->
<g id="node27" class="node">
<title>Node27</title>
<g id="a_node27"><a xlink:href="../../d1/d2d/vertex_8hpp.html" target="_top" xlink:title=" ">
<polygon fill="none" stroke="black" points="1252.5,-56.5 1252.5,-75.5 1321.5,-75.5 1321.5,-56.5 1252.5,-56.5"/>
<text text-anchor="middle" x="1287" y="-63.5" font-family="Helvetica,sans-Serif" font-size="10.00">vertex.hpp</text>
</a>
</g>
</g>
<!-- Node25&#45;&gt;Node27 -->
<g id="edge47" class="edge">
<title>Node25&#45;&gt;Node27</title>
<path fill="none" stroke="midnightblue" d="M1143.67,-191.27C1214.17,-187.08 1332.19,-175.32 1359,-143 1367.8,-132.4 1365.68,-124.05 1359,-112 1350.91,-97.41 1335.9,-86.92 1321.66,-79.76"/>
<polygon fill="midnightblue" stroke="midnightblue" points="1323.05,-76.55 1312.5,-75.53 1320.11,-82.9 1323.05,-76.55"/>
</g>
<!-- Node29 -->
<g id="node29" class="node">
<title>Node29</title>
<g id="a_node29"><a xlink:href="../../df/d24/postorder__iterator_8hpp.html" target="_top" xlink:title=" ">
<polygon fill="none" stroke="black" points="1224.5,-118 1224.5,-137 1349.5,-137 1349.5,-118 1224.5,-118"/>
<text text-anchor="middle" x="1287" y="-125" font-family="Helvetica,sans-Serif" font-size="10.00">postorder_iterator.hpp</text>
</a>
</g>
</g>
<!-- Node25&#45;&gt;Node29 -->
<g id="edge40" class="edge">
<title>Node25&#45;&gt;Node29</title>
<path fill="none" stroke="midnightblue" d="M1116.16,-184.87C1150.84,-173.42 1212.2,-153.18 1251.17,-140.32"/>
<polygon fill="midnightblue" stroke="midnightblue" points="1252.65,-143.52 1261.05,-137.06 1250.45,-136.87 1252.65,-143.52"/>
</g>
<!-- Node30 -->
<g id="node30" class="node">
<title>Node30</title>
<g id="a_node30"><a xlink:href="../../d9/dde/iterator_8hpp.html" target="_top" xlink:title=" ">
<polygon fill="none" stroke="black" points="939.5,-118 939.5,-137 1012.5,-137 1012.5,-118 939.5,-118"/>
<text text-anchor="middle" x="976" y="-125" font-family="Helvetica,sans-Serif" font-size="10.00">iterator.hpp</text>
</a>
</g>
</g>
<!-- Node25&#45;&gt;Node30 -->
<g id="edge43" class="edge">
<title>Node25&#45;&gt;Node30</title>
<path fill="none" stroke="midnightblue" d="M1074.63,-184.73C1055.48,-173.82 1022.56,-155.05 1000.06,-142.22"/>
<polygon fill="midnightblue" stroke="midnightblue" points="1001.55,-139.04 991.13,-137.13 998.08,-145.12 1001.55,-139.04"/>
</g>
<!-- Node31 -->
<g id="node31" class="node">
<title>Node31</title>
<g id="a_node31"><a xlink:href="../../d7/d8f/partimator_8hpp.html" target="_top" xlink:title=" ">
<polygon fill="none" stroke="black" points="832.5,-118 832.5,-137 921.5,-137 921.5,-118 832.5,-118"/>
<text text-anchor="middle" x="877" y="-125" font-family="Helvetica,sans-Serif" font-size="10.00">partimator.hpp</text>
</a>
</g>
</g>
<!-- Node25&#45;&gt;Node31 -->
<g id="edge45" class="edge">
<title>Node25&#45;&gt;Node31</title>
<path fill="none" stroke="midnightblue" d="M1061.72,-184.87C1023.89,-173.33 956.75,-152.84 914.67,-140"/>
<polygon fill="midnightblue" stroke="midnightblue" points="915.65,-136.63 905.06,-137.06 913.61,-143.33 915.65,-136.63"/>
</g>
<!-- Node32 -->
<g id="node32" class="node">
<title>Node32</title>
<g id="a_node32"><a xlink:title=" ">
<polygon fill="none" stroke="#bfbfbf" points="1168,-118 1168,-137 1206,-137 1206,-118 1168,-118"/>
<text text-anchor="middle" x="1187" y="-125" font-family="Helvetica,sans-Serif" font-size="10.00">map</text>
</a>
</g>
</g>
<!-- Node25&#45;&gt;Node32 -->
<g id="edge48" class="edge">
<title>Node25&#45;&gt;Node32</title>
<path fill="none" stroke="midnightblue" d="M1103.08,-184.73C1119.15,-173.96 1146.63,-155.55 1165.75,-142.74"/>
<polygon fill="midnightblue" stroke="midnightblue" points="1167.77,-145.6 1174.13,-137.13 1163.87,-139.79 1167.77,-145.6"/>
</g>
<!-- Node26&#45;&gt;Node27 -->
<g id="edge38" class="edge">
<title>Node26&#45;&gt;Node27</title>
<path fill="none" stroke="midnightblue" d="M1118.23,-117.98C1152.6,-107.59 1210.81,-90.01 1249.08,-78.45"/>
<polygon fill="midnightblue" stroke="midnightblue" points="1250.27,-81.75 1258.83,-75.51 1248.24,-75.05 1250.27,-81.75"/>
</g>
<!-- Node28 -->
<g id="node28" class="node">
<title>Node28</title>
<g id="a_node28"><a xlink:title=" ">
<polygon fill="none" stroke="#bfbfbf" points="1006.5,-56.5 1006.5,-75.5 1059.5,-75.5 1059.5,-56.5 1006.5,-56.5"/>
<text text-anchor="middle" x="1033" y="-63.5" font-family="Helvetica,sans-Serif" font-size="10.00">iterator</text>
</a>
</g>
</g>
<!-- Node26&#45;&gt;Node28 -->
<g id="edge39" class="edge">
<title>Node26&#45;&gt;Node28</title>
<path fill="none" stroke="midnightblue" d="M1081.83,-117.98C1073.11,-108.87 1059.1,-94.24 1048.31,-82.98"/>
<polygon fill="midnightblue" stroke="midnightblue" points="1050.6,-80.31 1041.15,-75.51 1045.54,-85.15 1050.6,-80.31"/>
</g>
<!-- Node29&#45;&gt;Node27 -->
<g id="edge41" class="edge">
<title>Node29&#45;&gt;Node27</title>
<path fill="none" stroke="midnightblue" d="M1287,-117.98C1287,-109.58 1287,-96.48 1287,-85.66"/>
<polygon fill="midnightblue" stroke="midnightblue" points="1290.5,-85.51 1287,-75.51 1283.5,-85.51 1290.5,-85.51"/>
</g>
<!-- Node29&#45;&gt;Node28 -->
<g id="edge42" class="edge">
<title>Node29&#45;&gt;Node28</title>
<path fill="none" stroke="midnightblue" d="M1250.61,-117.98C1202.43,-106.69 1117.95,-86.9 1069.64,-75.58"/>
<polygon fill="midnightblue" stroke="midnightblue" points="1070.16,-72.11 1059.62,-73.24 1068.56,-78.92 1070.16,-72.11"/>
</g>
<!-- Node30&#45;&gt;Node28 -->
<g id="edge44" class="edge">
<title>Node30&#45;&gt;Node28</title>
<path fill="none" stroke="midnightblue" d="M984.17,-117.98C992.89,-108.87 1006.9,-94.24 1017.69,-82.98"/>
<polygon fill="midnightblue" stroke="midnightblue" points="1020.46,-85.15 1024.85,-75.51 1015.4,-80.31 1020.46,-85.15"/>
</g>
<!-- Node31&#45;&gt;Node28 -->
<g id="edge46" class="edge">
<title>Node31&#45;&gt;Node28</title>
<path fill="none" stroke="midnightblue" d="M899.35,-117.98C925.99,-107.81 970.71,-90.76 1001.01,-79.2"/>
<polygon fill="midnightblue" stroke="midnightblue" points="1002.59,-82.34 1010.69,-75.51 1000.1,-75.8 1002.59,-82.34"/>
</g>
<!-- Node34 -->
<g id="node34" class="node">
<title>Node34</title>
<g id="a_node34"><a xlink:href="../../d0/d34/prefix_8hpp.html" target="_top" xlink:title=" ">
<polygon fill="none" stroke="black" points="1406.5,-118 1406.5,-137 1471.5,-137 1471.5,-118 1406.5,-118"/>
<text text-anchor="middle" x="1439" y="-125" font-family="Helvetica,sans-Serif" font-size="10.00">prefix.hpp</text>
</a>
</g>
</g>
<!-- Node33&#45;&gt;Node34 -->
<g id="edge50" class="edge">
<title>Node33&#45;&gt;Node34</title>
<path fill="none" stroke="midnightblue" d="M1338.64,-184.73C1358.21,-173.77 1391.92,-154.88 1414.82,-142.05"/>
<polygon fill="midnightblue" stroke="midnightblue" points="1416.59,-145.07 1423.6,-137.13 1413.17,-138.96 1416.59,-145.07"/>
</g>
<!-- Node35&#45;&gt;Node6 -->
<g id="edge52" class="edge">
<title>Node35&#45;&gt;Node6</title>
<path fill="none" stroke="midnightblue" d="M481.2,-117.98C444.03,-106.97 379.56,-87.89 340.93,-76.45"/>
<polygon fill="midnightblue" stroke="midnightblue" points="341.81,-73.06 331.23,-73.58 339.83,-79.78 341.81,-73.06"/>
</g>
<!-- Node35&#45;&gt;Node7 -->
<g id="edge53" class="edge">
<title>Node35&#45;&gt;Node7</title>
<path fill="none" stroke="midnightblue" d="M498.68,-117.98C486.13,-108.52 465.65,-93.1 450.5,-81.69"/>
<polygon fill="midnightblue" stroke="midnightblue" points="452.39,-78.73 442.3,-75.51 448.18,-84.32 452.39,-78.73"/>
</g>
<!-- Node35&#45;&gt;Node10 -->
<g id="edge54" class="edge">
<title>Node35&#45;&gt;Node10</title>
<path fill="none" stroke="midnightblue" d="M519.46,-117.98C529.75,-108.7 546.42,-93.67 558.99,-82.33"/>
<polygon fill="midnightblue" stroke="midnightblue" points="561.48,-84.8 566.56,-75.51 556.79,-79.61 561.48,-84.8"/>
</g>
<!-- Node36&#45;&gt;Node20 -->
<g id="edge56" class="edge">
<title>Node36&#45;&gt;Node20</title>
<path fill="none" stroke="midnightblue" d="M555.68,-307.98C599.87,-297.42 675.21,-279.41 723.51,-267.87"/>
<polygon fill="midnightblue" stroke="midnightblue" points="724.48,-271.24 733.39,-265.51 722.85,-264.43 724.48,-271.24"/>
</g>
<!-- Node36&#45;&gt;Node35 -->
<g id="edge57" class="edge">
<title>Node36&#45;&gt;Node35</title>
<path fill="none" stroke="midnightblue" d="M519.54,-307.93C518.03,-279.43 513.13,-187.32 511,-147.33"/>
<polygon fill="midnightblue" stroke="midnightblue" points="514.48,-146.92 510.46,-137.12 507.49,-147.29 514.48,-146.92"/>
</g>
</g>
</svg>
