<?xml version="1.0" encoding="UTF-8" standalone="no"?>
<!DOCTYPE svg PUBLIC "-//W3C//DTD SVG 1.1//EN"
 "http://www.w3.org/Graphics/SVG/1.1/DTD/svg11.dtd">
<!-- Generated by graphviz version 5.0.1 (20220820.1526)
 -->
<!-- Title: patricia_dot_base::out_node Pages: 1 -->
<svg width="288pt" height="78pt"
 viewBox="0.00 0.00 288.00 77.50" xmlns="http://www.w3.org/2000/svg" xmlns:xlink="http://www.w3.org/1999/xlink">
<g id="graph0" class="graph" transform="scale(1 1) rotate(0) translate(4 73.5)">
<title>patricia_dot_base::out_node</title>
<!-- Node1 -->
<g id="node1" class="node">
<title>Node1</title>
<g id="a_node1"><a xlink:title=" ">
<polygon fill="#bfbfbf" stroke="black" points="0,-17 0,-47 109,-47 109,-17 0,-17"/>
<text text-anchor="start" x="8" y="-35" font-family="Helvetica,sans-Serif" font-size="10.00">patricia_dot_base::</text>
<text text-anchor="middle" x="54.5" y="-24" font-family="Helvetica,sans-Serif" font-size="10.00">out_node</text>
</a>
</g>
</g>
<!-- Node2 -->
<g id="node2" class="node">
<title>Node2</title>
<g id="a_node2"><a xlink:href="../../dd/d0e/namespaceuxn_1_1patl_1_1impl.html#a2fa8af2a32a8d3dd66e657e71ff6288d" target="_top" xlink:title=" ">
<polygon fill="none" stroke="black" points="145,-39 145,-69 280,-69 280,-39 145,-39"/>
<text text-anchor="start" x="153" y="-57" font-family="Helvetica,sans-Serif" font-size="10.00">uxn::patl::impl::graphviz</text>
<text text-anchor="middle" x="212.5" y="-46" font-family="Helvetica,sans-Serif" font-size="10.00">_printable_string</text>
</a>
</g>
</g>
<!-- Node1&#45;&gt;Node2 -->
<g id="edge1" class="edge">
<title>Node1&#45;&gt;Node2</title>
<path fill="none" stroke="midnightblue" d="M109.19,-39.57C117.42,-40.73 126.06,-41.95 134.68,-43.17"/>
<polygon fill="midnightblue" stroke="midnightblue" points="134.37,-46.66 144.76,-44.59 135.35,-39.73 134.37,-46.66"/>
</g>
<!-- Node3 -->
<g id="node3" class="node">
<title>Node3</title>
<g id="a_node3"><a xlink:href="../../dd/d0e/namespaceuxn_1_1patl_1_1impl.html#ab90f63027d43b408cc70d2f0db94c9fc" target="_top" xlink:title=" ">
<polygon fill="none" stroke="black" points="152,-0.5 152,-19.5 273,-19.5 273,-0.5 152,-0.5"/>
<text text-anchor="middle" x="212.5" y="-7.5" font-family="Helvetica,sans-Serif" font-size="10.00">uxn::patl::impl::max0</text>
</a>
</g>
</g>
<!-- Node1&#45;&gt;Node3 -->
<g id="edge2" class="edge">
<title>Node1&#45;&gt;Node3</title>
<path fill="none" stroke="midnightblue" d="M109.19,-24.43C119.71,-22.94 130.9,-21.37 141.86,-19.82"/>
<polygon fill="midnightblue" stroke="midnightblue" points="142.42,-23.28 151.83,-18.41 141.44,-16.35 142.42,-23.28"/>
</g>
</g>
</svg>
