<?xml version="1.0" encoding="UTF-8" standalone="no"?>
<!DOCTYPE svg PUBLIC "-//W3C//DTD SVG 1.1//EN"
 "http://www.w3.org/Graphics/SVG/1.1/DTD/svg11.dtd">
<!-- Generated by graphviz version 5.0.1 (20220820.1526)
 -->
<!-- Title: patricia_dot_base&lt; Cont, OutStream &gt; Pages: 1 -->
<!--zoomable 502 -->
<svg id="main" version="1.1" xmlns="http://www.w3.org/2000/svg" xmlns:xlink="http://www.w3.org/1999/xlink" xml:space="preserve" onload="init(evt)">
<style type="text/css"><![CDATA[
.edge:hover path { stroke: red; }
.edge:hover polygon { stroke: red; fill: red; }
]]></style>
<script type="text/javascript"><![CDATA[
var edges = document.getElementsByTagName('g');
if (edges && edges.length) {
  for (var i=0;i<edges.length;i++) {
    if (edges[i].id.substr(0,4)=='edge') {
      edges[i].setAttribute('class','edge');
    }
  }
}
]]></script>
        <defs>
                <circle id="rim" cx="0" cy="0" r="7"/>
                <circle id="rim2" cx="0" cy="0" r="3.5"/>
                <g id="zoomPlus">
                        <use xlink:href="#rim" fill="#404040">
                                <set attributeName="fill" to="#808080" begin="zoomplus.mouseover" end="zoomplus.mouseout"/>
                        </use>
                        <path d="M-4,0h8M0,-4v8" fill="none" stroke="white" stroke-width="1.5" pointer-events="none"/>
                </g>
                <g id="zoomMin">
                        <use xlink:href="#rim" fill="#404040">
                                <set attributeName="fill" to="#808080" begin="zoomminus.mouseover" end="zoomminus.mouseout"/>
                        </use>
                        <path d="M-4,0h8" fill="none" stroke="white" stroke-width="1.5" pointer-events="none"/>
                </g>
                <g id="dirArrow">
                        <path fill="none" stroke="white" stroke-width="1.5" d="M0,-3.0v7 M-2.5,-0.5L0,-3.0L2.5,-0.5"/>
                </g>
               <g id="resetDef">
                       <use xlink:href="#rim2" fill="#404040">
                               <set attributeName="fill" to="#808080" begin="reset.mouseover" end="reset.mouseout"/>
                       </use>
               </g>
        </defs>

<script type="text/javascript">
var viewWidth = 278;
var viewHeight = 502;
var sectionId = 'dynsection-0';
</script>
<script xlink:href="../../svgpan.js"/>
<svg id="graph" class="graph">
<g id="viewport">
<title>patricia_dot_base&lt; Cont, OutStream &gt;</title>
<!-- Node1 -->
<g id="node1" class="node">
<title>Node1</title>
<g id="a_node1"><a xlink:title=" ">
<polygon fill="#bfbfbf" stroke="black" points="59,-0.5 59,-178.5 212,-178.5 212,-0.5 59,-0.5"/>
<text text-anchor="start" x="67" y="-166.5" font-family="Helvetica,sans-Serif" font-size="10.00">patricia_dot_base&lt;</text>
<text text-anchor="middle" x="135.5" y="-155.5" font-family="Helvetica,sans-Serif" font-size="10.00"> Cont, OutStream &gt;</text>
<polyline fill="none" stroke="black" points="59,-148.5 212,-148.5"/>
<text text-anchor="start" x="67" y="-136.5" font-family="Helvetica,sans-Serif" font-size="10.00">+ static const word_t</text>
<text text-anchor="start" x="67" y="-125.5" font-family="Helvetica,sans-Serif" font-size="10.00"> bit_size</text>
<polyline fill="none" stroke="black" points="59,-118.5 212,-118.5"/>
<text text-anchor="start" x="67" y="-106.5" font-family="Helvetica,sans-Serif" font-size="10.00">+ patricia_dot_base</text>
<text text-anchor="start" x="67" y="-95.5" font-family="Helvetica,sans-Serif" font-size="10.00">(const std::vector&lt;</text>
<text text-anchor="start" x="67" y="-84.5" font-family="Helvetica,sans-Serif" font-size="10.00"> id_type &gt; *ids, const</text>
<text text-anchor="start" x="67" y="-73.5" font-family="Helvetica,sans-Serif" font-size="10.00"> std::vector&lt; word_t &gt; *h)</text>
<text text-anchor="start" x="67" y="-62.5" font-family="Helvetica,sans-Serif" font-size="10.00">+ void out_node(OutStream</text>
<text text-anchor="start" x="67" y="-51.5" font-family="Helvetica,sans-Serif" font-size="10.00"> &amp;out, const const_vertex</text>
<text text-anchor="start" x="67" y="-40.5" font-family="Helvetica,sans-Serif" font-size="10.00"> &amp;vtx) const</text>
<text text-anchor="start" x="67" y="-29.5" font-family="Helvetica,sans-Serif" font-size="10.00">+ void out_edge(OutStream</text>
<text text-anchor="start" x="67" y="-18.5" font-family="Helvetica,sans-Serif" font-size="10.00"> &amp;out, const vertex &amp;vtx)</text>
<text text-anchor="start" x="67" y="-7.5" font-family="Helvetica,sans-Serif" font-size="10.00"> const</text>
</a>
</g>
</g>
<!-- Node2 -->
<g id="node2" class="node">
<title>Node2</title>
<g id="a_node2"><a xlink:title=" ">
<polygon fill="none" stroke="black" points="0,-226.5 0,-283.5 127,-283.5 127,-226.5 0,-226.5"/>
<text text-anchor="middle" x="63.5" y="-271.5" font-family="Helvetica,sans-Serif" font-size="10.00">std::vector&lt; id_type &gt;</text>
<polyline fill="none" stroke="black" points="0,-264.5 127,-264.5"/>
<text text-anchor="start" x="8" y="-252.5" font-family="Helvetica,sans-Serif" font-size="10.00">+ id_type elements</text>
<polyline fill="none" stroke="black" points="0,-245.5 127,-245.5"/>
<text text-anchor="middle" x="63.5" y="-233.5" font-family="Helvetica,sans-Serif" font-size="10.00"> </text>
</a>
</g>
</g>
<!-- Node2&#45;&gt;Node1 -->
<g id="edge1" class="edge">
<title>Node2&#45;&gt;Node1</title>
<path fill="none" stroke="#404040" d="M75.71,-226.26C80.32,-215.8 85.87,-203.2 91.71,-189.95"/>
<polygon fill="none" stroke="#404040" points="91.82,-189.68 90.58,-182.58 96.66,-178.7 97.9,-185.8 91.82,-189.68"/>
<text text-anchor="middle" x="101" y="-200" font-family="Helvetica,sans-Serif" font-size="10.00"> &#45;ids_</text>
</g>
<!-- Node3 -->
<g id="node3" class="node">
<title>Node3</title>
<g id="a_node3"><a xlink:title=" ">
<polygon fill="none" stroke="black" points="86,-331.5 86,-388.5 183,-388.5 183,-331.5 86,-331.5"/>
<text text-anchor="middle" x="134.5" y="-376.5" font-family="Helvetica,sans-Serif" font-size="10.00">std::vector&lt; T &gt;</text>
<polyline fill="none" stroke="black" points="86,-369.5 183,-369.5"/>
<text text-anchor="middle" x="134.5" y="-357.5" font-family="Helvetica,sans-Serif" font-size="10.00"> </text>
<polyline fill="none" stroke="black" points="86,-350.5 183,-350.5"/>
<text text-anchor="middle" x="134.5" y="-338.5" font-family="Helvetica,sans-Serif" font-size="10.00"> </text>
</a>
</g>
</g>
<!-- Node3&#45;&gt;Node2 -->
<g id="edge2" class="edge">
<title>Node3&#45;&gt;Node2</title>
<path fill="none" stroke="orange" d="M109.78,-323.14C100.86,-310.2 90.94,-295.81 82.58,-283.68"/>
<polygon fill="orange" stroke="orange" points="106.92,-325.15 115.47,-331.4 112.68,-321.18 106.92,-325.15"/>
<text text-anchor="middle" x="132.5" y="-305" font-family="Helvetica,sans-Serif" font-size="10.00"> &lt; id_type &gt;</text>
</g>
<!-- Node5 -->
<g id="node5" class="node">
<title>Node5</title>
<g id="a_node5"><a xlink:title=" ">
<polygon fill="none" stroke="black" points="145.5,-226.5 145.5,-283.5 269.5,-283.5 269.5,-226.5 145.5,-226.5"/>
<text text-anchor="middle" x="207.5" y="-271.5" font-family="Helvetica,sans-Serif" font-size="10.00">std::vector&lt; word_t &gt;</text>
<polyline fill="none" stroke="black" points="145.5,-264.5 269.5,-264.5"/>
<text text-anchor="start" x="153.5" y="-252.5" font-family="Helvetica,sans-Serif" font-size="10.00">+ word_t elements</text>
<polyline fill="none" stroke="black" points="145.5,-245.5 269.5,-245.5"/>
<text text-anchor="middle" x="207.5" y="-233.5" font-family="Helvetica,sans-Serif" font-size="10.00"> </text>
</a>
</g>
</g>
<!-- Node3&#45;&gt;Node5 -->
<g id="edge5" class="edge">
<title>Node3&#45;&gt;Node5</title>
<path fill="none" stroke="orange" d="M160.39,-322.98C162.8,-319.61 165.2,-316.24 167.5,-313 174.29,-303.44 181.67,-292.94 188.23,-283.58"/>
<polygon fill="orange" stroke="orange" points="157.41,-321.13 154.44,-331.3 163.11,-325.21 157.41,-321.13"/>
<text text-anchor="middle" x="205" y="-305" font-family="Helvetica,sans-Serif" font-size="10.00"> &lt; word_t &gt;</text>
</g>
<!-- Node4 -->
<g id="node4" class="node">
<title>Node4</title>
<g id="a_node4"><a xlink:title=" ">
<polygon fill="none" stroke="black" points="120,-436.5 120,-493.5 149,-493.5 149,-436.5 120,-436.5"/>
<text text-anchor="middle" x="134.5" y="-481.5" font-family="Helvetica,sans-Serif" font-size="10.00">T</text>
<polyline fill="none" stroke="black" points="120,-474.5 149,-474.5"/>
<text text-anchor="middle" x="134.5" y="-462.5" font-family="Helvetica,sans-Serif" font-size="10.00"> </text>
<polyline fill="none" stroke="black" points="120,-455.5 149,-455.5"/>
<text text-anchor="middle" x="134.5" y="-443.5" font-family="Helvetica,sans-Serif" font-size="10.00"> </text>
</a>
</g>
</g>
<!-- Node4&#45;&gt;Node3 -->
<g id="edge3" class="edge">
<title>Node4&#45;&gt;Node3</title>
<path fill="none" stroke="#404040" d="M134.5,-436.4C134.5,-425.55 134.5,-412.87 134.5,-401.05"/>
<polygon fill="none" stroke="#404040" points="134.5,-400.68 130.5,-394.68 134.5,-388.68 138.5,-394.68 134.5,-400.68"/>
<text text-anchor="middle" x="163.5" y="-410" font-family="Helvetica,sans-Serif" font-size="10.00"> +elements</text>
</g>
<!-- Node5&#45;&gt;Node1 -->
<g id="edge4" class="edge">
<title>Node5&#45;&gt;Node1</title>
<path fill="none" stroke="#404040" d="M195.29,-226.26C190.68,-215.8 185.13,-203.2 179.29,-189.95"/>
<polygon fill="none" stroke="#404040" points="179.18,-189.68 173.1,-185.8 174.34,-178.7 180.42,-182.58 179.18,-189.68"/>
<text text-anchor="middle" x="195" y="-200" font-family="Helvetica,sans-Serif" font-size="10.00"> &#45;h_</text>
</g>
</g>
</svg>
        <g id="navigator" transform="translate(0 0)" fill="#404254">
                <rect fill="#f2f5e9" fill-opacity="0.5" stroke="#606060" stroke-width=".5" x="0" y="0" width="60" height="60"/>
                <use id="zoomplus" xlink:href="#zoomPlus" x="17" y="9" onmousedown="handleZoom(evt,'in')"/>
                <use id="zoomminus" xlink:href="#zoomMin" x="42" y="9" onmousedown="handleZoom(evt,'out')"/>
                <use id="reset" xlink:href="#resetDef" x="30" y="36" onmousedown="handleReset()"/>
                <g id="arrowUp" xlink:href="#dirArrow" transform="translate(30 24)" onmousedown="handlePan(0,-1)">
                  <use xlink:href="#rim" fill="#404040">
                        <set attributeName="fill" to="#808080" begin="arrowUp.mouseover" end="arrowUp.mouseout"/>
                  </use>
                  <path fill="none" stroke="white" stroke-width="1.5" d="M0,-3.0v7 M-2.5,-0.5L0,-3.0L2.5,-0.5"/>
                </g>
                <g id="arrowRight" xlink:href="#dirArrow" transform="rotate(90) translate(36 -43)" onmousedown="handlePan(1,0)">
                  <use xlink:href="#rim" fill="#404040">
                        <set attributeName="fill" to="#808080" begin="arrowRight.mouseover" end="arrowRight.mouseout"/>
                  </use>
                  <path fill="none" stroke="white" stroke-width="1.5" d="M0,-3.0v7 M-2.5,-0.5L0,-3.0L2.5,-0.5"/>
                </g>
                <g id="arrowDown" xlink:href="#dirArrow" transform="rotate(180) translate(-30 -48)" onmousedown="handlePan(0,1)">
                  <use xlink:href="#rim" fill="#404040">
                        <set attributeName="fill" to="#808080" begin="arrowDown.mouseover" end="arrowDown.mouseout"/>
                  </use>
                  <path fill="none" stroke="white" stroke-width="1.5" d="M0,-3.0v7 M-2.5,-0.5L0,-3.0L2.5,-0.5"/>
                </g>
                <g id="arrowLeft" xlink:href="#dirArrow" transform="rotate(270) translate(-36 17)" onmousedown="handlePan(-1,0)">
                  <use xlink:href="#rim" fill="#404040">
                        <set attributeName="fill" to="#808080" begin="arrowLeft.mouseover" end="arrowLeft.mouseout"/>
                  </use>
                  <path fill="none" stroke="white" stroke-width="1.5" d="M0,-3.0v7 M-2.5,-0.5L0,-3.0L2.5,-0.5"/>
                </g>
        </g>
        <svg viewBox="0 0 15 15" width="100%" height="30px" preserveAspectRatio="xMaxYMin meet">
         <g id="arrow_out" transform="scale(0.3 0.3)">
          <a xlink:href="classpatricia__dot__base__coll__graph_org.svg" target="_base">
           <rect id="button" ry="5" rx="5" y="6" x="6" height="38" width="38"
                fill="#f2f5e9" fill-opacity="0.5" stroke="#606060" stroke-width="1.0"/>
           <path id="arrow"
             d="M 11.500037,31.436501 C 11.940474,20.09759 22.043105,11.32322 32.158766,21.979434 L 37.068811,17.246167 C 37.068811,17.246167 37.088388,32 37.088388,32 L 22.160133,31.978069 C 22.160133,31.978069 26.997745,27.140456 26.997745,27.140456 C 18.528582,18.264221 13.291696,25.230495 11.500037,31.436501 z"
             style="fill:#404040;"/>
          </a>
         </g>
        </svg>
</svg>
