<?xml version="1.0" encoding="UTF-8" standalone="no"?>
<!DOCTYPE svg PUBLIC "-//W3C//DTD SVG 1.1//EN"
 "http://www.w3.org/Graphics/SVG/1.1/DTD/svg11.dtd">
<!-- Generated by graphviz version 5.0.1 (20220820.1526)
 -->
<!-- Title: patricia_dot_base&lt; Cont, OutStream &gt; Pages: 1 -->
<svg width="278pt" height="502pt"
 viewBox="0.00 0.00 277.50 502.00" xmlns="http://www.w3.org/2000/svg" xmlns:xlink="http://www.w3.org/1999/xlink">
<g id="graph0" class="graph" transform="scale(1 1) rotate(0) translate(4 498)">
<title>patricia_dot_base&lt; Cont, OutStream &gt;</title>
<!-- Node1 -->
<g id="node1" class="node">
<title>Node1</title>
<g id="a_node1"><a xlink:title=" ">
<polygon fill="#bfbfbf" stroke="black" points="59,-0.5 59,-178.5 212,-178.5 212,-0.5 59,-0.5"/>
<text text-anchor="start" x="67" y="-166.5" font-family="Helvetica,sans-Serif" font-size="10.00">patricia_dot_base&lt;</text>
<text text-anchor="middle" x="135.5" y="-155.5" font-family="Helvetica,sans-Serif" font-size="10.00"> Cont, OutStream &gt;</text>
<polyline fill="none" stroke="black" points="59,-148.5 212,-148.5"/>
<text text-anchor="start" x="67" y="-136.5" font-family="Helvetica,sans-Serif" font-size="10.00">+ static const word_t</text>
<text text-anchor="start" x="67" y="-125.5" font-family="Helvetica,sans-Serif" font-size="10.00"> bit_size</text>
<polyline fill="none" stroke="black" points="59,-118.5 212,-118.5"/>
<text text-anchor="start" x="67" y="-106.5" font-family="Helvetica,sans-Serif" font-size="10.00">+ patricia_dot_base</text>
<text text-anchor="start" x="67" y="-95.5" font-family="Helvetica,sans-Serif" font-size="10.00">(const std::vector&lt;</text>
<text text-anchor="start" x="67" y="-84.5" font-family="Helvetica,sans-Serif" font-size="10.00"> id_type &gt; *ids, const</text>
<text text-anchor="start" x="67" y="-73.5" font-family="Helvetica,sans-Serif" font-size="10.00"> std::vector&lt; word_t &gt; *h)</text>
<text text-anchor="start" x="67" y="-62.5" font-family="Helvetica,sans-Serif" font-size="10.00">+ void out_node(OutStream</text>
<text text-anchor="start" x="67" y="-51.5" font-family="Helvetica,sans-Serif" font-size="10.00"> &amp;out, const const_vertex</text>
<text text-anchor="start" x="67" y="-40.5" font-family="Helvetica,sans-Serif" font-size="10.00"> &amp;vtx) const</text>
<text text-anchor="start" x="67" y="-29.5" font-family="Helvetica,sans-Serif" font-size="10.00">+ void out_edge(OutStream</text>
<text text-anchor="start" x="67" y="-18.5" font-family="Helvetica,sans-Serif" font-size="10.00"> &amp;out, const vertex &amp;vtx)</text>
<text text-anchor="start" x="67" y="-7.5" font-family="Helvetica,sans-Serif" font-size="10.00"> const</text>
</a>
</g>
</g>
<!-- Node2 -->
<g id="node2" class="node">
<title>Node2</title>
<g id="a_node2"><a xlink:title=" ">
<polygon fill="none" stroke="black" points="0,-226.5 0,-283.5 127,-283.5 127,-226.5 0,-226.5"/>
<text text-anchor="middle" x="63.5" y="-271.5" font-family="Helvetica,sans-Serif" font-size="10.00">std::vector&lt; id_type &gt;</text>
<polyline fill="none" stroke="black" points="0,-264.5 127,-264.5"/>
<text text-anchor="start" x="8" y="-252.5" font-family="Helvetica,sans-Serif" font-size="10.00">+ id_type elements</text>
<polyline fill="none" stroke="black" points="0,-245.5 127,-245.5"/>
<text text-anchor="middle" x="63.5" y="-233.5" font-family="Helvetica,sans-Serif" font-size="10.00"> </text>
</a>
</g>
</g>
<!-- Node2&#45;&gt;Node1 -->
<g id="edge1" class="edge">
<title>Node2&#45;&gt;Node1</title>
<path fill="none" stroke="#404040" d="M75.71,-226.26C80.32,-215.8 85.87,-203.2 91.71,-189.95"/>
<polygon fill="none" stroke="#404040" points="91.82,-189.68 90.58,-182.58 96.66,-178.7 97.9,-185.8 91.82,-189.68"/>
<text text-anchor="middle" x="101" y="-200" font-family="Helvetica,sans-Serif" font-size="10.00"> &#45;ids_</text>
</g>
<!-- Node3 -->
<g id="node3" class="node">
<title>Node3</title>
<g id="a_node3"><a xlink:title=" ">
<polygon fill="none" stroke="black" points="86,-331.5 86,-388.5 183,-388.5 183,-331.5 86,-331.5"/>
<text text-anchor="middle" x="134.5" y="-376.5" font-family="Helvetica,sans-Serif" font-size="10.00">std::vector&lt; T &gt;</text>
<polyline fill="none" stroke="black" points="86,-369.5 183,-369.5"/>
<text text-anchor="middle" x="134.5" y="-357.5" font-family="Helvetica,sans-Serif" font-size="10.00"> </text>
<polyline fill="none" stroke="black" points="86,-350.5 183,-350.5"/>
<text text-anchor="middle" x="134.5" y="-338.5" font-family="Helvetica,sans-Serif" font-size="10.00"> </text>
</a>
</g>
</g>
<!-- Node3&#45;&gt;Node2 -->
<g id="edge2" class="edge">
<title>Node3&#45;&gt;Node2</title>
<path fill="none" stroke="orange" d="M109.78,-323.14C100.86,-310.2 90.94,-295.81 82.58,-283.68"/>
<polygon fill="orange" stroke="orange" points="106.92,-325.15 115.47,-331.4 112.68,-321.18 106.92,-325.15"/>
<text text-anchor="middle" x="132.5" y="-305" font-family="Helvetica,sans-Serif" font-size="10.00"> &lt; id_type &gt;</text>
</g>
<!-- Node5 -->
<g id="node5" class="node">
<title>Node5</title>
<g id="a_node5"><a xlink:title=" ">
<polygon fill="none" stroke="black" points="145.5,-226.5 145.5,-283.5 269.5,-283.5 269.5,-226.5 145.5,-226.5"/>
<text text-anchor="middle" x="207.5" y="-271.5" font-family="Helvetica,sans-Serif" font-size="10.00">std::vector&lt; word_t &gt;</text>
<polyline fill="none" stroke="black" points="145.5,-264.5 269.5,-264.5"/>
<text text-anchor="start" x="153.5" y="-252.5" font-family="Helvetica,sans-Serif" font-size="10.00">+ word_t elements</text>
<polyline fill="none" stroke="black" points="145.5,-245.5 269.5,-245.5"/>
<text text-anchor="middle" x="207.5" y="-233.5" font-family="Helvetica,sans-Serif" font-size="10.00"> </text>
</a>
</g>
</g>
<!-- Node3&#45;&gt;Node5 -->
<g id="edge5" class="edge">
<title>Node3&#45;&gt;Node5</title>
<path fill="none" stroke="orange" d="M160.39,-322.98C162.8,-319.61 165.2,-316.24 167.5,-313 174.29,-303.44 181.67,-292.94 188.23,-283.58"/>
<polygon fill="orange" stroke="orange" points="157.41,-321.13 154.44,-331.3 163.11,-325.21 157.41,-321.13"/>
<text text-anchor="middle" x="205" y="-305" font-family="Helvetica,sans-Serif" font-size="10.00"> &lt; word_t &gt;</text>
</g>
<!-- Node4 -->
<g id="node4" class="node">
<title>Node4</title>
<g id="a_node4"><a xlink:title=" ">
<polygon fill="none" stroke="black" points="120,-436.5 120,-493.5 149,-493.5 149,-436.5 120,-436.5"/>
<text text-anchor="middle" x="134.5" y="-481.5" font-family="Helvetica,sans-Serif" font-size="10.00">T</text>
<polyline fill="none" stroke="black" points="120,-474.5 149,-474.5"/>
<text text-anchor="middle" x="134.5" y="-462.5" font-family="Helvetica,sans-Serif" font-size="10.00"> </text>
<polyline fill="none" stroke="black" points="120,-455.5 149,-455.5"/>
<text text-anchor="middle" x="134.5" y="-443.5" font-family="Helvetica,sans-Serif" font-size="10.00"> </text>
</a>
</g>
</g>
<!-- Node4&#45;&gt;Node3 -->
<g id="edge3" class="edge">
<title>Node4&#45;&gt;Node3</title>
<path fill="none" stroke="#404040" d="M134.5,-436.4C134.5,-425.55 134.5,-412.87 134.5,-401.05"/>
<polygon fill="none" stroke="#404040" points="134.5,-400.68 130.5,-394.68 134.5,-388.68 138.5,-394.68 134.5,-400.68"/>
<text text-anchor="middle" x="163.5" y="-410" font-family="Helvetica,sans-Serif" font-size="10.00"> +elements</text>
</g>
<!-- Node5&#45;&gt;Node1 -->
<g id="edge4" class="edge">
<title>Node5&#45;&gt;Node1</title>
<path fill="none" stroke="#404040" d="M195.29,-226.26C190.68,-215.8 185.13,-203.2 179.29,-189.95"/>
<polygon fill="none" stroke="#404040" points="179.18,-189.68 173.1,-185.8 174.34,-178.7 180.42,-182.58 179.18,-189.68"/>
<text text-anchor="middle" x="195" y="-200" font-family="Helvetica,sans-Serif" font-size="10.00"> &#45;h_</text>
</g>
</g>
</svg>
