<?xml version="1.0" encoding="UTF-8" standalone="no"?>
<!DOCTYPE svg PUBLIC "-//W3C//DTD SVG 1.1//EN"
 "http://www.w3.org/Graphics/SVG/1.1/DTD/svg11.dtd">
<!-- Generated by graphviz version 5.0.1 (20220820.1526)
 -->
<!-- Title: uxn/patl/super_maxrep_iterator.hpp Pages: 1 -->
<svg width="318pt" height="106pt"
 viewBox="0.00 0.00 318.00 106.00" xmlns="http://www.w3.org/2000/svg" xmlns:xlink="http://www.w3.org/1999/xlink">
<g id="graph0" class="graph" transform="scale(1 1) rotate(0) translate(4 102)">
<title>uxn/patl/super_maxrep_iterator.hpp</title>
<!-- Node1 -->
<g id="node1" class="node">
<title>Node1</title>
<g id="a_node1"><a xlink:title=" ">
<polygon fill="#bfbfbf" stroke="black" points="98.5,-67.5 98.5,-97.5 227.5,-97.5 227.5,-67.5 98.5,-67.5"/>
<text text-anchor="start" x="106.5" y="-85.5" font-family="Helvetica,sans-Serif" font-size="10.00">uxn/patl/super_maxrep</text>
<text text-anchor="middle" x="163" y="-74.5" font-family="Helvetica,sans-Serif" font-size="10.00">_iterator.hpp</text>
</a>
</g>
</g>
<!-- Node2 -->
<g id="node2" class="node">
<title>Node2</title>
<g id="a_node2"><a xlink:href="../../d1/db2/insider_8cpp.html" target="_top" xlink:title=" ">
<polygon fill="none" stroke="black" points="0,-6 0,-25 162,-25 162,-6 0,-6"/>
<text text-anchor="middle" x="81" y="-13" font-family="Helvetica,sans-Serif" font-size="10.00">uxn/demos/insider/insider.cpp</text>
</a>
</g>
</g>
<!-- Node1&#45;&gt;Node2 -->
<g id="edge1" class="edge">
<title>Node1&#45;&gt;Node2</title>
<path fill="none" stroke="midnightblue" d="M137.15,-61.01C121.93,-48.94 103.46,-34.3 91.97,-25.19"/>
<polygon fill="midnightblue" stroke="midnightblue" points="135.2,-63.93 145.21,-67.4 139.54,-58.44 135.2,-63.93"/>
</g>
<!-- Node3 -->
<g id="node3" class="node">
<title>Node3</title>
<g id="a_node3"><a xlink:href="../../d1/d40/word__suffix_8cpp.html" target="_top" xlink:title=" ">
<polygon fill="none" stroke="black" points="180,-0.5 180,-30.5 310,-30.5 310,-0.5 180,-0.5"/>
<text text-anchor="start" x="188" y="-18.5" font-family="Helvetica,sans-Serif" font-size="10.00">uxn/demos/word_suffix</text>
<text text-anchor="middle" x="245" y="-7.5" font-family="Helvetica,sans-Serif" font-size="10.00">/word_suffix.cpp</text>
</a>
</g>
</g>
<!-- Node1&#45;&gt;Node3 -->
<g id="edge2" class="edge">
<title>Node1&#45;&gt;Node3</title>
<path fill="none" stroke="midnightblue" d="M188.65,-61.17C201.19,-51.23 215.97,-39.51 227.24,-30.58"/>
<polygon fill="midnightblue" stroke="midnightblue" points="186.46,-58.44 180.79,-67.4 190.8,-63.93 186.46,-58.44"/>
</g>
</g>
</svg>
