<?xml version="1.0" encoding="UTF-8" standalone="no"?>
<!DOCTYPE svg PUBLIC "-//W3C//DTD SVG 1.1//EN"
 "http://www.w3.org/Graphics/SVG/1.1/DTD/svg11.dtd">
<!-- Generated by graphviz version 5.0.1 (20220820.1526)
 -->
<!-- Title: uxn::patl::aux::bit_output::put_bits Pages: 1 -->
<svg width="267pt" height="88pt"
 viewBox="0.00 0.00 267.00 88.00" xmlns="http://www.w3.org/2000/svg" xmlns:xlink="http://www.w3.org/1999/xlink">
<g id="graph0" class="graph" transform="scale(1 1) rotate(0) translate(4 84)">
<title>uxn::patl::aux::bit_output::put_bits</title>
<!-- Node1 -->
<g id="node1" class="node">
<title>Node1</title>
<g id="a_node1"><a xlink:title=" ">
<polygon fill="#bfbfbf" stroke="black" points="157,-24.5 157,-54.5 259,-54.5 259,-24.5 157,-24.5"/>
<text text-anchor="start" x="165" y="-42.5" font-family="Helvetica,sans-Serif" font-size="10.00">uxn::patl::aux::bit</text>
<text text-anchor="middle" x="208" y="-31.5" font-family="Helvetica,sans-Serif" font-size="10.00">_output::put_bits</text>
</a>
</g>
</g>
<!-- Node2 -->
<g id="node2" class="node">
<title>Node2</title>
<g id="a_node2"><a xlink:href="../../d2/d48/classuxn_1_1patl_1_1aux_1_1bit__output.html#abb032cf29a1bfa1a355f12b5b7475abc" target="_top" xlink:title=" ">
<polygon fill="none" stroke="black" points="7,-49.5 7,-79.5 114,-79.5 114,-49.5 7,-49.5"/>
<text text-anchor="start" x="15" y="-67.5" font-family="Helvetica,sans-Serif" font-size="10.00">uxn::patl::aux::bit</text>
<text text-anchor="middle" x="60.5" y="-56.5" font-family="Helvetica,sans-Serif" font-size="10.00">_output::put_bytes</text>
</a>
</g>
</g>
<!-- Node1&#45;&gt;Node2 -->
<g id="edge1" class="edge">
<title>Node1&#45;&gt;Node2</title>
<path fill="none" stroke="midnightblue" d="M147.05,-49.8C136.13,-51.68 124.83,-53.62 114.14,-55.45"/>
<polygon fill="midnightblue" stroke="midnightblue" points="147.66,-53.25 156.93,-48.1 146.48,-46.35 147.66,-53.25"/>
</g>
<!-- Node3 -->
<g id="node3" class="node">
<title>Node3</title>
<g id="a_node3"><a xlink:href="../../d2/d48/classuxn_1_1patl_1_1aux_1_1bit__output.html#ac7ad39829c532b47cb1431707502c6fe" target="_top" xlink:title=" ">
<polygon fill="none" stroke="black" points="0,-0.5 0,-30.5 121,-30.5 121,-0.5 0,-0.5"/>
<text text-anchor="start" x="8" y="-18.5" font-family="Helvetica,sans-Serif" font-size="10.00">uxn::patl::aux::bit</text>
<text text-anchor="middle" x="60.5" y="-7.5" font-family="Helvetica,sans-Serif" font-size="10.00">_output::put_fib_code</text>
</a>
</g>
</g>
<!-- Node1&#45;&gt;Node3 -->
<g id="edge2" class="edge">
<title>Node1&#45;&gt;Node3</title>
<path fill="none" stroke="midnightblue" d="M147.05,-29.61C138.51,-28.2 129.73,-26.75 121.2,-25.35"/>
<polygon fill="midnightblue" stroke="midnightblue" points="146.49,-33.07 156.93,-31.24 147.63,-26.16 146.49,-33.07"/>
</g>
</g>
</svg>
