<?xml version="1.0" encoding="UTF-8" standalone="no"?>
<!DOCTYPE svg PUBLIC "-//W3C//DTD SVG 1.1//EN"
 "http://www.w3.org/Graphics/SVG/1.1/DTD/svg11.dtd">
<!-- Generated by graphviz version 5.0.1 (20220820.1526)
 -->
<!-- Title: uxn::patl::aux::bit_output::put_bytes Pages: 1 -->
<svg width="395pt" height="88pt"
 viewBox="0.00 0.00 395.00 88.00" xmlns="http://www.w3.org/2000/svg" xmlns:xlink="http://www.w3.org/1999/xlink">
<g id="graph0" class="graph" transform="scale(1 1) rotate(0) translate(4 84)">
<title>uxn::patl::aux::bit_output::put_bytes</title>
<!-- Node1 -->
<g id="node1" class="node">
<title>Node1</title>
<g id="a_node1"><a xlink:title=" ">
<polygon fill="#bfbfbf" stroke="black" points="0,-24.5 0,-54.5 107,-54.5 107,-24.5 0,-24.5"/>
<text text-anchor="start" x="8" y="-42.5" font-family="Helvetica,sans-Serif" font-size="10.00">uxn::patl::aux::bit</text>
<text text-anchor="middle" x="53.5" y="-31.5" font-family="Helvetica,sans-Serif" font-size="10.00">_output::put_bytes</text>
</a>
</g>
</g>
<!-- Node2 -->
<g id="node2" class="node">
<title>Node2</title>
<g id="a_node2"><a xlink:href="../../d2/d48/classuxn_1_1patl_1_1aux_1_1bit__output.html#adffd721504bed1846931bbef31a723d8" target="_top" xlink:title=" ">
<polygon fill="none" stroke="black" points="144,-49.5 144,-79.5 246,-79.5 246,-49.5 144,-49.5"/>
<text text-anchor="start" x="152" y="-67.5" font-family="Helvetica,sans-Serif" font-size="10.00">uxn::patl::aux::bit</text>
<text text-anchor="middle" x="195" y="-56.5" font-family="Helvetica,sans-Serif" font-size="10.00">_output::put_bits</text>
</a>
</g>
</g>
<!-- Node1&#45;&gt;Node2 -->
<g id="edge1" class="edge">
<title>Node1&#45;&gt;Node2</title>
<path fill="none" stroke="midnightblue" d="M107.24,-48.95C115.98,-50.52 125.11,-52.15 134.02,-53.75"/>
<polygon fill="midnightblue" stroke="midnightblue" points="133.49,-57.21 143.95,-55.53 134.73,-50.32 133.49,-57.21"/>
</g>
<!-- Node4 -->
<g id="node4" class="node">
<title>Node4</title>
<g id="a_node4"><a xlink:href="../../d2/d48/classuxn_1_1patl_1_1aux_1_1bit__output.html#a7947d7e552fcf3c4ed59813c5cf3ac6d" target="_top" xlink:title=" ">
<polygon fill="none" stroke="black" points="143,-0.5 143,-30.5 247,-30.5 247,-0.5 143,-0.5"/>
<text text-anchor="start" x="151" y="-18.5" font-family="Helvetica,sans-Serif" font-size="10.00">uxn::patl::aux::bit</text>
<text text-anchor="middle" x="195" y="-7.5" font-family="Helvetica,sans-Serif" font-size="10.00">_output::put_word</text>
</a>
</g>
</g>
<!-- Node1&#45;&gt;Node4 -->
<g id="edge3" class="edge">
<title>Node1&#45;&gt;Node4</title>
<path fill="none" stroke="midnightblue" d="M107.24,-30.43C115.56,-29 124.22,-27.51 132.71,-26.04"/>
<polygon fill="midnightblue" stroke="midnightblue" points="133.31,-29.49 142.57,-24.35 132.12,-22.59 133.31,-29.49"/>
</g>
<!-- Node3 -->
<g id="node3" class="node">
<title>Node3</title>
<g id="a_node3"><a xlink:href="../../d2/d48/classuxn_1_1patl_1_1aux_1_1bit__output.html#ab3a2a80c6efe45f502ec23f5929a972a" target="_top" xlink:title=" ">
<polygon fill="none" stroke="black" points="283,-24.5 283,-54.5 387,-54.5 387,-24.5 283,-24.5"/>
<text text-anchor="start" x="291" y="-42.5" font-family="Helvetica,sans-Serif" font-size="10.00">uxn::patl::aux::bit</text>
<text text-anchor="middle" x="335" y="-31.5" font-family="Helvetica,sans-Serif" font-size="10.00">_output::flush_full</text>
</a>
</g>
</g>
<!-- Node2&#45;&gt;Node3 -->
<g id="edge2" class="edge">
<title>Node2&#45;&gt;Node3</title>
<path fill="none" stroke="midnightblue" d="M246.21,-55.4C254.83,-53.84 263.88,-52.2 272.75,-50.6"/>
<polygon fill="midnightblue" stroke="midnightblue" points="273.45,-54.03 282.67,-48.8 272.2,-47.14 273.45,-54.03"/>
</g>
<!-- Node4&#45;&gt;Node3 -->
<g id="edge4" class="edge">
<title>Node4&#45;&gt;Node3</title>
<path fill="none" stroke="midnightblue" d="M247.39,-24.44C255.56,-25.86 264.08,-27.34 272.46,-28.8"/>
<polygon fill="midnightblue" stroke="midnightblue" points="272.12,-32.29 282.57,-30.56 273.32,-25.39 272.12,-32.29"/>
</g>
</g>
</svg>
