<?xml version="1.0" encoding="UTF-8" standalone="no"?>
<!DOCTYPE svg PUBLIC "-//W3C//DTD SVG 1.1//EN"
 "http://www.w3.org/Graphics/SVG/1.1/DTD/svg11.dtd">
<!-- Generated by graphviz version 5.0.1 (20220820.1526)
 -->
<!-- Title: uxn::patl::aux::bit_output::flush_full Pages: 1 -->
<svg width="409pt" height="137pt"
 viewBox="0.00 0.00 409.00 137.00" xmlns="http://www.w3.org/2000/svg" xmlns:xlink="http://www.w3.org/1999/xlink">
<g id="graph0" class="graph" transform="scale(1 1) rotate(0) translate(4 133)">
<title>uxn::patl::aux::bit_output::flush_full</title>
<!-- Node1 -->
<g id="node1" class="node">
<title>Node1</title>
<g id="a_node1"><a xlink:title=" ">
<polygon fill="#bfbfbf" stroke="black" points="297,-49.5 297,-79.5 401,-79.5 401,-49.5 297,-49.5"/>
<text text-anchor="start" x="305" y="-67.5" font-family="Helvetica,sans-Serif" font-size="10.00">uxn::patl::aux::bit</text>
<text text-anchor="middle" x="349" y="-56.5" font-family="Helvetica,sans-Serif" font-size="10.00">_output::flush_full</text>
</a>
</g>
</g>
<!-- Node2 -->
<g id="node2" class="node">
<title>Node2</title>
<g id="a_node2"><a xlink:href="../../d2/d48/classuxn_1_1patl_1_1aux_1_1bit__output.html#a5917f7f58b189d9f3ed265658107e275" target="_top" xlink:title=" ">
<polygon fill="none" stroke="black" points="158,-98.5 158,-128.5 260,-128.5 260,-98.5 158,-98.5"/>
<text text-anchor="start" x="166" y="-116.5" font-family="Helvetica,sans-Serif" font-size="10.00">uxn::patl::aux::bit</text>
<text text-anchor="middle" x="209" y="-105.5" font-family="Helvetica,sans-Serif" font-size="10.00">_output::put_bit</text>
</a>
</g>
</g>
<!-- Node1&#45;&gt;Node2 -->
<g id="edge1" class="edge">
<title>Node1&#45;&gt;Node2</title>
<path fill="none" stroke="midnightblue" d="M295.8,-83.04C281.55,-88.1 266.28,-93.52 252.63,-98.36"/>
<polygon fill="midnightblue" stroke="midnightblue" points="297.22,-86.25 305.47,-79.6 294.87,-79.65 297.22,-86.25"/>
</g>
<!-- Node3 -->
<g id="node3" class="node">
<title>Node3</title>
<g id="a_node3"><a xlink:href="../../d2/d48/classuxn_1_1patl_1_1aux_1_1bit__output.html#adffd721504bed1846931bbef31a723d8" target="_top" xlink:title=" ">
<polygon fill="none" stroke="black" points="158,-0.5 158,-30.5 260,-30.5 260,-0.5 158,-0.5"/>
<text text-anchor="start" x="166" y="-18.5" font-family="Helvetica,sans-Serif" font-size="10.00">uxn::patl::aux::bit</text>
<text text-anchor="middle" x="209" y="-7.5" font-family="Helvetica,sans-Serif" font-size="10.00">_output::put_bits</text>
</a>
</g>
</g>
<!-- Node1&#45;&gt;Node3 -->
<g id="edge2" class="edge">
<title>Node1&#45;&gt;Node3</title>
<path fill="none" stroke="midnightblue" d="M295.8,-45.96C281.55,-40.9 266.28,-35.48 252.63,-30.64"/>
<polygon fill="midnightblue" stroke="midnightblue" points="294.87,-49.35 305.47,-49.4 297.22,-42.75 294.87,-49.35"/>
</g>
<!-- Node6 -->
<g id="node6" class="node">
<title>Node6</title>
<g id="a_node6"><a xlink:href="../../d2/d48/classuxn_1_1patl_1_1aux_1_1bit__output.html#a7947d7e552fcf3c4ed59813c5cf3ac6d" target="_top" xlink:title=" ">
<polygon fill="none" stroke="black" points="157,-49.5 157,-79.5 261,-79.5 261,-49.5 157,-49.5"/>
<text text-anchor="start" x="165" y="-67.5" font-family="Helvetica,sans-Serif" font-size="10.00">uxn::patl::aux::bit</text>
<text text-anchor="middle" x="209" y="-56.5" font-family="Helvetica,sans-Serif" font-size="10.00">_output::put_word</text>
</a>
</g>
</g>
<!-- Node1&#45;&gt;Node6 -->
<g id="edge5" class="edge">
<title>Node1&#45;&gt;Node6</title>
<path fill="none" stroke="midnightblue" d="M286.5,-64.5C278.13,-64.5 269.6,-64.5 261.43,-64.5"/>
<polygon fill="midnightblue" stroke="midnightblue" points="286.61,-68 296.61,-64.5 286.61,-61 286.61,-68"/>
</g>
<!-- Node4 -->
<g id="node4" class="node">
<title>Node4</title>
<g id="a_node4"><a xlink:href="../../d2/d48/classuxn_1_1patl_1_1aux_1_1bit__output.html#abb032cf29a1bfa1a355f12b5b7475abc" target="_top" xlink:title=" ">
<polygon fill="none" stroke="black" points="7,-49.5 7,-79.5 114,-79.5 114,-49.5 7,-49.5"/>
<text text-anchor="start" x="15" y="-67.5" font-family="Helvetica,sans-Serif" font-size="10.00">uxn::patl::aux::bit</text>
<text text-anchor="middle" x="60.5" y="-56.5" font-family="Helvetica,sans-Serif" font-size="10.00">_output::put_bytes</text>
</a>
</g>
</g>
<!-- Node3&#45;&gt;Node4 -->
<g id="edge3" class="edge">
<title>Node3&#45;&gt;Node4</title>
<path fill="none" stroke="midnightblue" d="M152.97,-33.91C137.64,-39.03 121.18,-44.54 106.5,-49.45"/>
<polygon fill="midnightblue" stroke="midnightblue" points="154.48,-37.09 162.85,-30.6 152.26,-30.45 154.48,-37.09"/>
</g>
<!-- Node5 -->
<g id="node5" class="node">
<title>Node5</title>
<g id="a_node5"><a xlink:href="../../d2/d48/classuxn_1_1patl_1_1aux_1_1bit__output.html#ac7ad39829c532b47cb1431707502c6fe" target="_top" xlink:title=" ">
<polygon fill="none" stroke="black" points="0,-0.5 0,-30.5 121,-30.5 121,-0.5 0,-0.5"/>
<text text-anchor="start" x="8" y="-18.5" font-family="Helvetica,sans-Serif" font-size="10.00">uxn::patl::aux::bit</text>
<text text-anchor="middle" x="60.5" y="-7.5" font-family="Helvetica,sans-Serif" font-size="10.00">_output::put_fib_code</text>
</a>
</g>
</g>
<!-- Node3&#45;&gt;Node5 -->
<g id="edge4" class="edge">
<title>Node3&#45;&gt;Node5</title>
<path fill="none" stroke="midnightblue" d="M147.81,-15.5C139,-15.5 129.94,-15.5 121.15,-15.5"/>
<polygon fill="midnightblue" stroke="midnightblue" points="147.99,-19 157.99,-15.5 147.99,-12 147.99,-19"/>
</g>
<!-- Node6&#45;&gt;Node4 -->
<g id="edge6" class="edge">
<title>Node6&#45;&gt;Node4</title>
<path fill="none" stroke="midnightblue" d="M146.64,-64.5C135.94,-64.5 124.9,-64.5 114.45,-64.5"/>
<polygon fill="midnightblue" stroke="midnightblue" points="146.76,-68 156.76,-64.5 146.76,-61 146.76,-68"/>
</g>
</g>
</svg>
