<?xml version="1.0" encoding="UTF-8" standalone="no"?>
<!DOCTYPE svg PUBLIC "-//W3C//DTD SVG 1.1//EN"
 "http://www.w3.org/Graphics/SVG/1.1/DTD/svg11.dtd">
<!-- Generated by graphviz version 5.0.1 (20220820.1526)
 -->
<!-- Title: uxn::patl::impl::const_partimator_generic::operator++ Pages: 1 -->
<svg width="723pt" height="50pt"
 viewBox="0.00 0.00 723.00 50.00" xmlns="http://www.w3.org/2000/svg" xmlns:xlink="http://www.w3.org/1999/xlink">
<g id="graph0" class="graph" transform="scale(1 1) rotate(0) translate(4 46)">
<title>uxn::patl::impl::const_partimator_generic::operator++</title>
<!-- Node1 -->
<g id="node1" class="node">
<title>Node1</title>
<g id="a_node1"><a xlink:title=" ">
<polygon fill="#bfbfbf" stroke="black" points="0,-6 0,-36 179,-36 179,-6 0,-6"/>
<text text-anchor="start" x="8" y="-24" font-family="Helvetica,sans-Serif" font-size="10.00">uxn::patl::impl::const</text>
<text text-anchor="middle" x="89.5" y="-13" font-family="Helvetica,sans-Serif" font-size="10.00">_partimator_generic::operator++</text>
</a>
</g>
</g>
<!-- Node2 -->
<g id="node2" class="node">
<title>Node2</title>
<g id="a_node2"><a xlink:href="../../da/dd2/classuxn_1_1patl_1_1impl_1_1const__partimator__generic.html#a074c93ecb70c2c54b13fa41ae2587f64" target="_top" xlink:title=" ">
<polygon fill="none" stroke="black" points="215,-6 215,-36 373,-36 373,-6 215,-6"/>
<text text-anchor="start" x="223" y="-24" font-family="Helvetica,sans-Serif" font-size="10.00">uxn::patl::impl::const</text>
<text text-anchor="middle" x="294" y="-13" font-family="Helvetica,sans-Serif" font-size="10.00">_partimator_generic::next_fit</text>
</a>
</g>
</g>
<!-- Node1&#45;&gt;Node2 -->
<g id="edge1" class="edge">
<title>Node1&#45;&gt;Node2</title>
<path fill="none" stroke="midnightblue" d="M179.02,-21C187.5,-21 196.09,-21 204.57,-21"/>
<polygon fill="midnightblue" stroke="midnightblue" points="204.83,-24.5 214.83,-21 204.83,-17.5 204.83,-24.5"/>
</g>
<!-- Node3 -->
<g id="node3" class="node">
<title>Node3</title>
<g id="a_node3"><a xlink:href="../../da/dd2/classuxn_1_1patl_1_1impl_1_1const__partimator__generic.html#a37844a7c181d484e8685c20f21988e91" target="_top" xlink:title=" ">
<polygon fill="none" stroke="black" points="409,-0.5 409,-41.5 558,-41.5 558,-0.5 409,-0.5"/>
<text text-anchor="start" x="417" y="-29.5" font-family="Helvetica,sans-Serif" font-size="10.00">uxn::patl::impl::const</text>
<text text-anchor="start" x="417" y="-18.5" font-family="Helvetica,sans-Serif" font-size="10.00">_partimator_generic::prove</text>
<text text-anchor="middle" x="483.5" y="-7.5" font-family="Helvetica,sans-Serif" font-size="10.00">_branch</text>
</a>
</g>
</g>
<!-- Node2&#45;&gt;Node3 -->
<g id="edge2" class="edge">
<title>Node2&#45;&gt;Node3</title>
<path fill="none" stroke="midnightblue" d="M373.16,-21C381.68,-21 390.38,-21 398.96,-21"/>
<polygon fill="midnightblue" stroke="midnightblue" points="398.97,-24.5 408.97,-21 398.97,-17.5 398.97,-24.5"/>
</g>
<!-- Node4 -->
<g id="node4" class="node">
<title>Node4</title>
<g id="a_node4"><a xlink:href="../../dd/d0e/namespaceuxn_1_1patl_1_1impl.html#ab90f63027d43b408cc70d2f0db94c9fc" target="_top" xlink:title=" ">
<polygon fill="none" stroke="black" points="594,-11.5 594,-30.5 715,-30.5 715,-11.5 594,-11.5"/>
<text text-anchor="middle" x="654.5" y="-18.5" font-family="Helvetica,sans-Serif" font-size="10.00">uxn::patl::impl::max0</text>
</a>
</g>
</g>
<!-- Node3&#45;&gt;Node4 -->
<g id="edge3" class="edge">
<title>Node3&#45;&gt;Node4</title>
<path fill="none" stroke="midnightblue" d="M558.13,-21C566.61,-21 575.23,-21 583.65,-21"/>
<polygon fill="midnightblue" stroke="midnightblue" points="583.8,-24.5 593.8,-21 583.8,-17.5 583.8,-24.5"/>
</g>
</g>
</svg>
