<?xml version="1.0" encoding="UTF-8" standalone="no"?>
<!DOCTYPE svg PUBLIC "-//W3C//DTD SVG 1.1//EN"
 "http://www.w3.org/Graphics/SVG/1.1/DTD/svg11.dtd">
<!-- Generated by graphviz version 5.0.1 (20220820.1526)
 -->
<!-- Title: uxn::patl::impl::const_partimator_generic::const_partimator_generic Pages: 1 -->
<svg width="691pt" height="50pt"
 viewBox="0.00 0.00 691.00 50.00" xmlns="http://www.w3.org/2000/svg" xmlns:xlink="http://www.w3.org/1999/xlink">
<g id="graph0" class="graph" transform="scale(1 1) rotate(0) translate(4 46)">
<title>uxn::patl::impl::const_partimator_generic::const_partimator_generic</title>
<!-- Node1 -->
<g id="node1" class="node">
<title>Node1</title>
<g id="a_node1"><a xlink:title=" ">
<polygon fill="#bfbfbf" stroke="black" points="0,-0.5 0,-41.5 147,-41.5 147,-0.5 0,-0.5"/>
<text text-anchor="start" x="8" y="-29.5" font-family="Helvetica,sans-Serif" font-size="10.00">uxn::patl::impl::const</text>
<text text-anchor="start" x="8" y="-18.5" font-family="Helvetica,sans-Serif" font-size="10.00">_partimator_generic::const</text>
<text text-anchor="middle" x="73.5" y="-7.5" font-family="Helvetica,sans-Serif" font-size="10.00">_partimator_generic</text>
</a>
</g>
</g>
<!-- Node2 -->
<g id="node2" class="node">
<title>Node2</title>
<g id="a_node2"><a xlink:href="../../da/dd2/classuxn_1_1patl_1_1impl_1_1const__partimator__generic.html#a074c93ecb70c2c54b13fa41ae2587f64" target="_top" xlink:title=" ">
<polygon fill="none" stroke="black" points="183,-6 183,-36 341,-36 341,-6 183,-6"/>
<text text-anchor="start" x="191" y="-24" font-family="Helvetica,sans-Serif" font-size="10.00">uxn::patl::impl::const</text>
<text text-anchor="middle" x="262" y="-13" font-family="Helvetica,sans-Serif" font-size="10.00">_partimator_generic::next_fit</text>
</a>
</g>
</g>
<!-- Node1&#45;&gt;Node2 -->
<g id="edge1" class="edge">
<title>Node1&#45;&gt;Node2</title>
<path fill="none" stroke="midnightblue" d="M147.14,-21C155.52,-21 164.13,-21 172.69,-21"/>
<polygon fill="midnightblue" stroke="midnightblue" points="172.7,-24.5 182.7,-21 172.7,-17.5 172.7,-24.5"/>
</g>
<!-- Node3 -->
<g id="node3" class="node">
<title>Node3</title>
<g id="a_node3"><a xlink:href="../../da/dd2/classuxn_1_1patl_1_1impl_1_1const__partimator__generic.html#a37844a7c181d484e8685c20f21988e91" target="_top" xlink:title=" ">
<polygon fill="none" stroke="black" points="377,-0.5 377,-41.5 526,-41.5 526,-0.5 377,-0.5"/>
<text text-anchor="start" x="385" y="-29.5" font-family="Helvetica,sans-Serif" font-size="10.00">uxn::patl::impl::const</text>
<text text-anchor="start" x="385" y="-18.5" font-family="Helvetica,sans-Serif" font-size="10.00">_partimator_generic::prove</text>
<text text-anchor="middle" x="451.5" y="-7.5" font-family="Helvetica,sans-Serif" font-size="10.00">_branch</text>
</a>
</g>
</g>
<!-- Node2&#45;&gt;Node3 -->
<g id="edge2" class="edge">
<title>Node2&#45;&gt;Node3</title>
<path fill="none" stroke="midnightblue" d="M341.16,-21C349.68,-21 358.38,-21 366.96,-21"/>
<polygon fill="midnightblue" stroke="midnightblue" points="366.97,-24.5 376.97,-21 366.97,-17.5 366.97,-24.5"/>
</g>
<!-- Node4 -->
<g id="node4" class="node">
<title>Node4</title>
<g id="a_node4"><a xlink:href="../../dd/d0e/namespaceuxn_1_1patl_1_1impl.html#ab90f63027d43b408cc70d2f0db94c9fc" target="_top" xlink:title=" ">
<polygon fill="none" stroke="black" points="562,-11.5 562,-30.5 683,-30.5 683,-11.5 562,-11.5"/>
<text text-anchor="middle" x="622.5" y="-18.5" font-family="Helvetica,sans-Serif" font-size="10.00">uxn::patl::impl::max0</text>
</a>
</g>
</g>
<!-- Node3&#45;&gt;Node4 -->
<g id="edge3" class="edge">
<title>Node3&#45;&gt;Node4</title>
<path fill="none" stroke="midnightblue" d="M526.13,-21C534.61,-21 543.23,-21 551.65,-21"/>
<polygon fill="midnightblue" stroke="midnightblue" points="551.8,-24.5 561.8,-21 551.8,-17.5 551.8,-24.5"/>
</g>
</g>
</svg>
