<?xml version="1.0" encoding="UTF-8" standalone="no"?>
<!DOCTYPE svg PUBLIC "-//W3C//DTD SVG 1.1//EN"
 "http://www.w3.org/Graphics/SVG/1.1/DTD/svg11.dtd">
<!-- Generated by graphviz version 5.0.1 (20220820.1526)
 -->
<!-- Title: uxn::patl::impl::const_partimator_generic::next_fit Pages: 1 -->
<svg width="508pt" height="50pt"
 viewBox="0.00 0.00 508.00 50.00" xmlns="http://www.w3.org/2000/svg" xmlns:xlink="http://www.w3.org/1999/xlink">
<g id="graph0" class="graph" transform="scale(1 1) rotate(0) translate(4 46)">
<title>uxn::patl::impl::const_partimator_generic::next_fit</title>
<!-- Node1 -->
<g id="node1" class="node">
<title>Node1</title>
<g id="a_node1"><a xlink:title=" ">
<polygon fill="#bfbfbf" stroke="black" points="0,-6 0,-36 158,-36 158,-6 0,-6"/>
<text text-anchor="start" x="8" y="-24" font-family="Helvetica,sans-Serif" font-size="10.00">uxn::patl::impl::const</text>
<text text-anchor="middle" x="79" y="-13" font-family="Helvetica,sans-Serif" font-size="10.00">_partimator_generic::next_fit</text>
</a>
</g>
</g>
<!-- Node2 -->
<g id="node2" class="node">
<title>Node2</title>
<g id="a_node2"><a xlink:href="../../da/dd2/classuxn_1_1patl_1_1impl_1_1const__partimator__generic.html#a37844a7c181d484e8685c20f21988e91" target="_top" xlink:title=" ">
<polygon fill="none" stroke="black" points="194,-0.5 194,-41.5 343,-41.5 343,-0.5 194,-0.5"/>
<text text-anchor="start" x="202" y="-29.5" font-family="Helvetica,sans-Serif" font-size="10.00">uxn::patl::impl::const</text>
<text text-anchor="start" x="202" y="-18.5" font-family="Helvetica,sans-Serif" font-size="10.00">_partimator_generic::prove</text>
<text text-anchor="middle" x="268.5" y="-7.5" font-family="Helvetica,sans-Serif" font-size="10.00">_branch</text>
</a>
</g>
</g>
<!-- Node1&#45;&gt;Node2 -->
<g id="edge1" class="edge">
<title>Node1&#45;&gt;Node2</title>
<path fill="none" stroke="midnightblue" d="M158.16,-21C166.68,-21 175.38,-21 183.96,-21"/>
<polygon fill="midnightblue" stroke="midnightblue" points="183.97,-24.5 193.97,-21 183.97,-17.5 183.97,-24.5"/>
</g>
<!-- Node3 -->
<g id="node3" class="node">
<title>Node3</title>
<g id="a_node3"><a xlink:href="../../dd/d0e/namespaceuxn_1_1patl_1_1impl.html#ab90f63027d43b408cc70d2f0db94c9fc" target="_top" xlink:title=" ">
<polygon fill="none" stroke="black" points="379,-11.5 379,-30.5 500,-30.5 500,-11.5 379,-11.5"/>
<text text-anchor="middle" x="439.5" y="-18.5" font-family="Helvetica,sans-Serif" font-size="10.00">uxn::patl::impl::max0</text>
</a>
</g>
</g>
<!-- Node2&#45;&gt;Node3 -->
<g id="edge2" class="edge">
<title>Node2&#45;&gt;Node3</title>
<path fill="none" stroke="midnightblue" d="M343.13,-21C351.61,-21 360.23,-21 368.65,-21"/>
<polygon fill="midnightblue" stroke="midnightblue" points="368.8,-24.5 378.8,-21 368.8,-17.5 368.8,-24.5"/>
</g>
</g>
</svg>
