<?xml version="1.0" encoding="UTF-8" standalone="no"?>
<!DOCTYPE svg PUBLIC "-//W3C//DTD SVG 1.1//EN"
 "http://www.w3.org/Graphics/SVG/1.1/DTD/svg11.dtd">
<!-- Generated by graphviz version 5.0.1 (20220820.1526)
 -->
<!-- Title: uxn::patl::impl::const_partimator_generic::prove_branch Pages: 1 -->
<svg width="566pt" height="100pt"
 viewBox="0.00 0.00 566.00 99.50" xmlns="http://www.w3.org/2000/svg" xmlns:xlink="http://www.w3.org/1999/xlink">
<g id="graph0" class="graph" transform="scale(1 1) rotate(0) translate(4 95.5)">
<title>uxn::patl::impl::const_partimator_generic::prove_branch</title>
<!-- Node1 -->
<g id="node1" class="node">
<title>Node1</title>
<g id="a_node1"><a xlink:title=" ">
<polygon fill="#bfbfbf" stroke="black" points="409,-22 409,-63 558,-63 558,-22 409,-22"/>
<text text-anchor="start" x="417" y="-51" font-family="Helvetica,sans-Serif" font-size="10.00">uxn::patl::impl::const</text>
<text text-anchor="start" x="417" y="-40" font-family="Helvetica,sans-Serif" font-size="10.00">_partimator_generic::prove</text>
<text text-anchor="middle" x="483.5" y="-29" font-family="Helvetica,sans-Serif" font-size="10.00">_branch</text>
</a>
</g>
</g>
<!-- Node2 -->
<g id="node2" class="node">
<title>Node2</title>
<g id="a_node2"><a xlink:href="../../da/dd2/classuxn_1_1patl_1_1impl_1_1const__partimator__generic.html#a074c93ecb70c2c54b13fa41ae2587f64" target="_top" xlink:title=" ">
<polygon fill="none" stroke="black" points="215,-27.5 215,-57.5 373,-57.5 373,-27.5 215,-27.5"/>
<text text-anchor="start" x="223" y="-45.5" font-family="Helvetica,sans-Serif" font-size="10.00">uxn::patl::impl::const</text>
<text text-anchor="middle" x="294" y="-34.5" font-family="Helvetica,sans-Serif" font-size="10.00">_partimator_generic::next_fit</text>
</a>
</g>
</g>
<!-- Node1&#45;&gt;Node2 -->
<g id="edge1" class="edge">
<title>Node1&#45;&gt;Node2</title>
<path fill="none" stroke="midnightblue" d="M398.7,-42.5C390.25,-42.5 381.69,-42.5 373.3,-42.5"/>
<polygon fill="midnightblue" stroke="midnightblue" points="398.93,-46 408.93,-42.5 398.93,-39 398.93,-46"/>
</g>
<!-- Node3 -->
<g id="node3" class="node">
<title>Node3</title>
<g id="a_node3"><a xlink:href="../../da/dd2/classuxn_1_1patl_1_1impl_1_1const__partimator__generic.html#a04f671c089da7c2bf15f652dd2f07d12" target="_top" xlink:title=" ">
<polygon fill="none" stroke="black" points="16,-50 16,-91 163,-91 163,-50 16,-50"/>
<text text-anchor="start" x="24" y="-79" font-family="Helvetica,sans-Serif" font-size="10.00">uxn::patl::impl::const</text>
<text text-anchor="start" x="24" y="-68" font-family="Helvetica,sans-Serif" font-size="10.00">_partimator_generic::const</text>
<text text-anchor="middle" x="89.5" y="-57" font-family="Helvetica,sans-Serif" font-size="10.00">_partimator_generic</text>
</a>
</g>
</g>
<!-- Node2&#45;&gt;Node3 -->
<g id="edge2" class="edge">
<title>Node2&#45;&gt;Node3</title>
<path fill="none" stroke="midnightblue" d="M204.92,-54.68C190.97,-56.61 176.69,-58.58 163.15,-60.45"/>
<polygon fill="midnightblue" stroke="midnightblue" points="205.57,-58.12 215,-53.29 204.61,-51.19 205.57,-58.12"/>
</g>
<!-- Node4 -->
<g id="node4" class="node">
<title>Node4</title>
<g id="a_node4"><a xlink:href="../../da/dd2/classuxn_1_1patl_1_1impl_1_1const__partimator__generic.html#af88d75bc3b143d58af2fea167cdf75e1" target="_top" xlink:title=" ">
<polygon fill="none" stroke="black" points="0,-0.5 0,-30.5 179,-30.5 179,-0.5 0,-0.5"/>
<text text-anchor="start" x="8" y="-18.5" font-family="Helvetica,sans-Serif" font-size="10.00">uxn::patl::impl::const</text>
<text text-anchor="middle" x="89.5" y="-7.5" font-family="Helvetica,sans-Serif" font-size="10.00">_partimator_generic::operator++</text>
</a>
</g>
</g>
<!-- Node2&#45;&gt;Node4 -->
<g id="edge3" class="edge">
<title>Node2&#45;&gt;Node4</title>
<path fill="none" stroke="midnightblue" d="M205.04,-30.77C196.49,-29.63 187.82,-28.48 179.26,-27.33"/>
<polygon fill="midnightblue" stroke="midnightblue" points="204.62,-34.25 215,-32.1 205.55,-27.31 204.62,-34.25"/>
</g>
</g>
</svg>
