<?xml version="1.0" encoding="UTF-8" standalone="no"?>
<!DOCTYPE svg PUBLIC "-//W3C//DTD SVG 1.1//EN"
 "http://www.w3.org/Graphics/SVG/1.1/DTD/svg11.dtd">
<!-- Generated by graphviz version 5.0.1 (20220820.1526)
 -->
<!-- Title: uxn/patl/impl/prefix.hpp Pages: 1 -->
<svg width="1868pt" height="352pt"
 viewBox="0.00 0.00 1867.50 352.00" xmlns="http://www.w3.org/2000/svg" xmlns:xlink="http://www.w3.org/1999/xlink">
<g id="graph0" class="graph" transform="scale(1 1) rotate(0) translate(4 348)">
<title>uxn/patl/impl/prefix.hpp</title>
<!-- Node1 -->
<g id="node1" class="node">
<title>Node1</title>
<g id="a_node1"><a xlink:title=" ">
<polygon fill="#bfbfbf" stroke="black" points="879,-324.5 879,-343.5 1012,-343.5 1012,-324.5 879,-324.5"/>
<text text-anchor="middle" x="945.5" y="-331.5" font-family="Helvetica,sans-Serif" font-size="10.00">uxn/patl/impl/prefix.hpp</text>
</a>
</g>
</g>
<!-- Node2 -->
<g id="node2" class="node">
<title>Node2</title>
<g id="a_node2"><a xlink:href="../../d7/dd8/core__prefix_8hpp.html" target="_top" xlink:title=" ">
<polygon fill="none" stroke="black" points="812,-257.5 812,-287.5 917,-287.5 917,-257.5 812,-257.5"/>
<text text-anchor="start" x="820" y="-275.5" font-family="Helvetica,sans-Serif" font-size="10.00">uxn/patl/impl/core</text>
<text text-anchor="middle" x="864.5" y="-264.5" font-family="Helvetica,sans-Serif" font-size="10.00">_prefix.hpp</text>
</a>
</g>
</g>
<!-- Node1&#45;&gt;Node2 -->
<g id="edge1" class="edge">
<title>Node1&#45;&gt;Node2</title>
<path fill="none" stroke="midnightblue" d="M925.72,-318.47C912.89,-309.05 896.27,-296.84 883.59,-287.52"/>
<polygon fill="midnightblue" stroke="midnightblue" points="923.76,-321.38 933.89,-324.48 927.91,-315.73 923.76,-321.38"/>
</g>
<!-- Node23 -->
<g id="node23" class="node">
<title>Node23</title>
<g id="a_node23"><a xlink:href="../../d2/d18/maxrep__iterator_8hpp.html" target="_top" xlink:title=" ">
<polygon fill="none" stroke="black" points="835.5,-129 835.5,-148 993.5,-148 993.5,-129 835.5,-129"/>
<text text-anchor="middle" x="914.5" y="-136" font-family="Helvetica,sans-Serif" font-size="10.00">uxn/patl/maxrep_iterator.hpp</text>
</a>
</g>
</g>
<!-- Node1&#45;&gt;Node23 -->
<g id="edge26" class="edge">
<title>Node1&#45;&gt;Node23</title>
<path fill="none" stroke="midnightblue" d="M942.54,-314.55C936.04,-273.94 920.68,-178.07 915.93,-148.41"/>
<polygon fill="midnightblue" stroke="midnightblue" points="939.09,-315.12 944.13,-324.44 946,-314.01 939.09,-315.12"/>
</g>
<!-- Node24 -->
<g id="node24" class="node">
<title>Node24</title>
<g id="a_node24"><a xlink:href="../../da/d0a/super__maxrep__iterator_8hpp.html" target="_top" xlink:title=" ">
<polygon fill="none" stroke="black" points="1012,-123.5 1012,-153.5 1141,-153.5 1141,-123.5 1012,-123.5"/>
<text text-anchor="start" x="1020" y="-141.5" font-family="Helvetica,sans-Serif" font-size="10.00">uxn/patl/super_maxrep</text>
<text text-anchor="middle" x="1076.5" y="-130.5" font-family="Helvetica,sans-Serif" font-size="10.00">_iterator.hpp</text>
</a>
</g>
</g>
<!-- Node1&#45;&gt;Node24 -->
<g id="edge29" class="edge">
<title>Node1&#45;&gt;Node24</title>
<path fill="none" stroke="midnightblue" d="M956.97,-316.06C982.44,-278.44 1043.34,-188.48 1066.93,-153.63"/>
<polygon fill="midnightblue" stroke="midnightblue" points="954.01,-314.19 951.3,-324.44 959.8,-318.12 954.01,-314.19"/>
</g>
<!-- Node3 -->
<g id="node3" class="node">
<title>Node3</title>
<g id="a_node3"><a xlink:href="../../d5/dfc/suffix__generic_8hpp.html" target="_top" xlink:title=" ">
<polygon fill="none" stroke="black" points="604,-190.5 604,-220.5 715,-220.5 715,-190.5 604,-190.5"/>
<text text-anchor="start" x="612" y="-208.5" font-family="Helvetica,sans-Serif" font-size="10.00">uxn/patl/impl/suffix</text>
<text text-anchor="middle" x="659.5" y="-197.5" font-family="Helvetica,sans-Serif" font-size="10.00">_generic.hpp</text>
</a>
</g>
</g>
<!-- Node2&#45;&gt;Node3 -->
<g id="edge2" class="edge">
<title>Node2&#45;&gt;Node3</title>
<path fill="none" stroke="midnightblue" d="M810.71,-254.44C777.48,-243.91 735.35,-230.55 704,-220.61"/>
<polygon fill="midnightblue" stroke="midnightblue" points="809.68,-257.79 820.27,-257.48 811.8,-251.12 809.68,-257.79"/>
</g>
<!-- Node14 -->
<g id="node14" class="node">
<title>Node14</title>
<g id="a_node14"><a xlink:href="../../d9/d25/trie__generic_8hpp.html" target="_top" xlink:title=" ">
<polygon fill="none" stroke="black" points="1182,-190.5 1182,-220.5 1283,-220.5 1283,-190.5 1182,-190.5"/>
<text text-anchor="start" x="1190" y="-208.5" font-family="Helvetica,sans-Serif" font-size="10.00">uxn/patl/impl/trie</text>
<text text-anchor="middle" x="1232.5" y="-197.5" font-family="Helvetica,sans-Serif" font-size="10.00">_generic.hpp</text>
</a>
</g>
</g>
<!-- Node2&#45;&gt;Node14 -->
<g id="edge13" class="edge">
<title>Node2&#45;&gt;Node14</title>
<path fill="none" stroke="midnightblue" d="M927.5,-260.37C999.43,-247.67 1115.67,-227.14 1181.94,-215.43"/>
<polygon fill="midnightblue" stroke="midnightblue" points="926.46,-257 917.23,-262.19 927.68,-263.89 926.46,-257"/>
</g>
<!-- Node4 -->
<g id="node4" class="node">
<title>Node4</title>
<g id="a_node4"><a xlink:href="../../d5/d01/suffix__map_8hpp.html" target="_top" xlink:title=" ">
<polygon fill="none" stroke="black" points="368.5,-129 368.5,-148 502.5,-148 502.5,-129 368.5,-129"/>
<text text-anchor="middle" x="435.5" y="-136" font-family="Helvetica,sans-Serif" font-size="10.00">uxn/patl/suffix_map.hpp</text>
</a>
</g>
</g>
<!-- Node3&#45;&gt;Node4 -->
<g id="edge3" class="edge">
<title>Node3&#45;&gt;Node4</title>
<path fill="none" stroke="midnightblue" d="M601.5,-187.67C557.72,-174.97 499.47,-158.06 464.89,-148.03"/>
<polygon fill="midnightblue" stroke="midnightblue" points="600.59,-191.05 611.17,-190.48 602.54,-184.33 600.59,-191.05"/>
</g>
<!-- Node5 -->
<g id="node5" class="node">
<title>Node5</title>
<g id="a_node5"><a xlink:href="../../d4/dc0/suffix__set_8hpp.html" target="_top" xlink:title=" ">
<polygon fill="none" stroke="black" points="520.5,-129 520.5,-148 648.5,-148 648.5,-129 520.5,-129"/>
<text text-anchor="middle" x="584.5" y="-136" font-family="Helvetica,sans-Serif" font-size="10.00">uxn/patl/suffix_set.hpp</text>
</a>
</g>
</g>
<!-- Node3&#45;&gt;Node5 -->
<g id="edge4" class="edge">
<title>Node3&#45;&gt;Node5</title>
<path fill="none" stroke="midnightblue" d="M635.47,-183.67C621.62,-171.67 604.95,-157.22 594.53,-148.19"/>
<polygon fill="midnightblue" stroke="midnightblue" points="633.38,-186.49 643.23,-190.4 637.96,-181.2 633.38,-186.49"/>
</g>
<!-- Node13 -->
<g id="node13" class="node">
<title>Node13</title>
<g id="a_node13"><a xlink:href="../../d8/d0a/suffix__utils_8hpp.html" target="_top" xlink:title=" ">
<polygon fill="none" stroke="black" points="666.5,-129 666.5,-148 800.5,-148 800.5,-129 666.5,-129"/>
<text text-anchor="middle" x="733.5" y="-136" font-family="Helvetica,sans-Serif" font-size="10.00">uxn/patl/suffix_utils.hpp</text>
</a>
</g>
</g>
<!-- Node3&#45;&gt;Node13 -->
<g id="edge12" class="edge">
<title>Node3&#45;&gt;Node13</title>
<path fill="none" stroke="midnightblue" d="M683.21,-183.67C696.87,-171.67 713.33,-157.22 723.6,-148.19"/>
<polygon fill="midnightblue" stroke="midnightblue" points="680.76,-181.17 675.56,-190.4 685.38,-186.43 680.76,-181.17"/>
</g>
<!-- Node6 -->
<g id="node6" class="node">
<title>Node6</title>
<g id="a_node6"><a xlink:href="../../d1/db2/insider_8cpp.html" target="_top" xlink:title=" ">
<polygon fill="none" stroke="black" points="832.5,-62 832.5,-81 994.5,-81 994.5,-62 832.5,-62"/>
<text text-anchor="middle" x="913.5" y="-69" font-family="Helvetica,sans-Serif" font-size="10.00">uxn/demos/insider/insider.cpp</text>
</a>
</g>
</g>
<!-- Node5&#45;&gt;Node6 -->
<g id="edge5" class="edge">
<title>Node5&#45;&gt;Node6</title>
<path fill="none" stroke="midnightblue" d="M637.24,-127.02C644.05,-125.66 650.94,-124.3 657.5,-123 732.16,-108.22 819.08,-91.09 870.01,-81.06"/>
<polygon fill="midnightblue" stroke="midnightblue" points="636.47,-123.6 627.34,-128.98 637.84,-130.47 636.47,-123.6"/>
</g>
<!-- Node7 -->
<g id="node7" class="node">
<title>Node7</title>
<g id="a_node7"><a xlink:href="../../d3/d87/lz77_8cpp.html" target="_top" xlink:title=" ">
<polygon fill="none" stroke="black" points="0,-62 0,-81 137,-81 137,-62 0,-62"/>
<text text-anchor="middle" x="68.5" y="-69" font-family="Helvetica,sans-Serif" font-size="10.00">uxn/demos/lz77/lz77.cpp</text>
</a>
</g>
</g>
<!-- Node5&#45;&gt;Node7 -->
<g id="edge6" class="edge">
<title>Node5&#45;&gt;Node7</title>
<path fill="none" stroke="midnightblue" d="M535.32,-127.05C527.38,-125.56 519.23,-124.14 511.5,-123 349.81,-99.05 307.3,-110.15 145.5,-87 134.05,-85.36 121.72,-83.21 110.35,-81.07"/>
<polygon fill="midnightblue" stroke="midnightblue" points="534.74,-130.5 545.22,-128.96 536.07,-123.63 534.74,-130.5"/>
</g>
<!-- Node8 -->
<g id="node8" class="node">
<title>Node8</title>
<g id="a_node8"><a xlink:href="../../d7/d82/maxpals_8cpp.html" target="_top" xlink:title=" ">
<polygon fill="none" stroke="black" points="155,-62 155,-81 336,-81 336,-62 155,-62"/>
<text text-anchor="middle" x="245.5" y="-69" font-family="Helvetica,sans-Serif" font-size="10.00">uxn/demos/maxpals/maxpals.cpp</text>
</a>
</g>
</g>
<!-- Node5&#45;&gt;Node8 -->
<g id="edge7" class="edge">
<title>Node5&#45;&gt;Node8</title>
<path fill="none" stroke="midnightblue" d="M531.77,-126.97C524.95,-125.63 518.06,-124.27 511.5,-123 434.21,-107.99 344.19,-91 291.18,-81.05"/>
<polygon fill="midnightblue" stroke="midnightblue" points="531.18,-130.42 541.67,-128.93 532.53,-123.55 531.18,-130.42"/>
</g>
<!-- Node9 -->
<g id="node9" class="node">
<title>Node9</title>
<g id="a_node9"><a xlink:href="../../d2/d55/multi__align_8cpp.html" target="_top" xlink:title=" ">
<polygon fill="none" stroke="black" points="354.5,-56.5 354.5,-86.5 482.5,-86.5 482.5,-56.5 354.5,-56.5"/>
<text text-anchor="start" x="362.5" y="-74.5" font-family="Helvetica,sans-Serif" font-size="10.00">uxn/demos/multi_align</text>
<text text-anchor="middle" x="418.5" y="-63.5" font-family="Helvetica,sans-Serif" font-size="10.00">/multi_align.cpp</text>
</a>
</g>
</g>
<!-- Node5&#45;&gt;Node9 -->
<g id="edge8" class="edge">
<title>Node5&#45;&gt;Node9</title>
<path fill="none" stroke="midnightblue" d="M553.09,-125.2C524.96,-114.19 483.73,-98.04 454.33,-86.53"/>
<polygon fill="midnightblue" stroke="midnightblue" points="551.87,-128.48 562.46,-128.87 554.42,-121.96 551.87,-128.48"/>
</g>
<!-- Node10 -->
<g id="node10" class="node">
<title>Node10</title>
<g id="a_node10"><a xlink:href="../../d5/d74/multi__search_8cpp.html" target="_top" xlink:title=" ">
<polygon fill="none" stroke="black" points="501,-56.5 501,-86.5 638,-86.5 638,-56.5 501,-56.5"/>
<text text-anchor="start" x="509" y="-74.5" font-family="Helvetica,sans-Serif" font-size="10.00">uxn/demos/multi_search</text>
<text text-anchor="middle" x="569.5" y="-63.5" font-family="Helvetica,sans-Serif" font-size="10.00">/multi_search.cpp</text>
</a>
</g>
</g>
<!-- Node5&#45;&gt;Node10 -->
<g id="edge9" class="edge">
<title>Node5&#45;&gt;Node10</title>
<path fill="none" stroke="midnightblue" d="M580.17,-118.74C577.8,-108.49 574.92,-96 572.75,-86.59"/>
<polygon fill="midnightblue" stroke="midnightblue" points="576.82,-119.78 582.48,-128.73 583.64,-118.2 576.82,-119.78"/>
</g>
<!-- Node11 -->
<g id="node11" class="node">
<title>Node11</title>
<g id="a_node11"><a xlink:href="../../d9/de5/usort3_8cpp.html" target="_top" xlink:title=" ">
<polygon fill="none" stroke="black" points="656.5,-62 656.5,-81 814.5,-81 814.5,-62 656.5,-62"/>
<text text-anchor="middle" x="735.5" y="-69" font-family="Helvetica,sans-Serif" font-size="10.00">uxn/demos/usort3/usort3.cpp</text>
</a>
</g>
</g>
<!-- Node5&#45;&gt;Node11 -->
<g id="edge10" class="edge">
<title>Node5&#45;&gt;Node11</title>
<path fill="none" stroke="midnightblue" d="M614.05,-124.78C643.95,-111.91 689.38,-92.35 715.37,-81.17"/>
<polygon fill="midnightblue" stroke="midnightblue" points="612.35,-121.7 604.55,-128.87 615.12,-128.13 612.35,-121.7"/>
</g>
<!-- Node12 -->
<g id="node12" class="node">
<title>Node12</title>
<g id="a_node12"><a xlink:href="../../d1/d40/word__suffix_8cpp.html" target="_top" xlink:title=" ">
<polygon fill="none" stroke="black" points="1012.5,-56.5 1012.5,-86.5 1142.5,-86.5 1142.5,-56.5 1012.5,-56.5"/>
<text text-anchor="start" x="1020.5" y="-74.5" font-family="Helvetica,sans-Serif" font-size="10.00">uxn/demos/word_suffix</text>
<text text-anchor="middle" x="1077.5" y="-63.5" font-family="Helvetica,sans-Serif" font-size="10.00">/word_suffix.cpp</text>
</a>
</g>
</g>
<!-- Node5&#45;&gt;Node12 -->
<g id="edge11" class="edge">
<title>Node5&#45;&gt;Node12</title>
<path fill="none" stroke="midnightblue" d="M634.22,-126.99C641.99,-125.53 649.95,-124.14 657.5,-123 810.37,-99.91 850.6,-109.89 1003.5,-87 1006.35,-86.57 1009.25,-86.11 1012.19,-85.63"/>
<polygon fill="midnightblue" stroke="midnightblue" points="633.32,-123.6 624.16,-128.93 634.65,-130.47 633.32,-123.6"/>
</g>
<!-- Node15 -->
<g id="node15" class="node">
<title>Node15</title>
<g id="a_node15"><a xlink:href="../../df/dc9/trie__map_8hpp.html" target="_top" xlink:title=" ">
<polygon fill="none" stroke="black" points="1170.5,-129 1170.5,-148 1294.5,-148 1294.5,-129 1170.5,-129"/>
<text text-anchor="middle" x="1232.5" y="-136" font-family="Helvetica,sans-Serif" font-size="10.00">uxn/patl/trie_map.hpp</text>
</a>
</g>
</g>
<!-- Node14&#45;&gt;Node15 -->
<g id="edge14" class="edge">
<title>Node14&#45;&gt;Node15</title>
<path fill="none" stroke="midnightblue" d="M1232.5,-180.25C1232.5,-169.02 1232.5,-156.38 1232.5,-148.19"/>
<polygon fill="midnightblue" stroke="midnightblue" points="1229,-180.4 1232.5,-190.4 1236,-180.4 1229,-180.4"/>
</g>
<!-- Node18 -->
<g id="node18" class="node">
<title>Node18</title>
<g id="a_node18"><a xlink:href="../../d4/db1/trie__set_8hpp.html" target="_top" xlink:title=" ">
<polygon fill="none" stroke="black" points="1319,-129 1319,-148 1436,-148 1436,-129 1319,-129"/>
<text text-anchor="middle" x="1377.5" y="-136" font-family="Helvetica,sans-Serif" font-size="10.00">uxn/patl/trie_set.hpp</text>
</a>
</g>
</g>
<!-- Node14&#45;&gt;Node18 -->
<g id="edge17" class="edge">
<title>Node14&#45;&gt;Node18</title>
<path fill="none" stroke="midnightblue" d="M1273.11,-186.3C1301.07,-173.76 1336.94,-157.68 1358.52,-148.01"/>
<polygon fill="midnightblue" stroke="midnightblue" points="1271.66,-183.11 1263.96,-190.4 1274.52,-189.5 1271.66,-183.11"/>
</g>
<!-- Node16 -->
<g id="node16" class="node">
<title>Node16</title>
<g id="a_node16"><a xlink:href="../../da/d22/sort__lin_8cpp.html" target="_top" xlink:title=" ">
<polygon fill="none" stroke="black" points="1198.5,-56.5 1198.5,-86.5 1308.5,-86.5 1308.5,-56.5 1198.5,-56.5"/>
<text text-anchor="start" x="1206.5" y="-74.5" font-family="Helvetica,sans-Serif" font-size="10.00">uxn/demos/sort_lin</text>
<text text-anchor="middle" x="1253.5" y="-63.5" font-family="Helvetica,sans-Serif" font-size="10.00">/sort_lin.cpp</text>
</a>
</g>
</g>
<!-- Node15&#45;&gt;Node16 -->
<g id="edge15" class="edge">
<title>Node15&#45;&gt;Node16</title>
<path fill="none" stroke="midnightblue" d="M1238.46,-119.06C1241.79,-108.75 1245.87,-96.1 1248.95,-86.59"/>
<polygon fill="midnightblue" stroke="midnightblue" points="1235.08,-118.14 1235.33,-128.73 1241.74,-120.29 1235.08,-118.14"/>
</g>
<!-- Node17 -->
<g id="node17" class="node">
<title>Node17</title>
<g id="a_node17"><a xlink:href="../../d5/d3f/patcont_8cpp.html" target="_top" xlink:title=" ">
<polygon fill="none" stroke="black" points="1428.5,-0.5 1428.5,-19.5 1544.5,-19.5 1544.5,-0.5 1428.5,-0.5"/>
<text text-anchor="middle" x="1486.5" y="-7.5" font-family="Helvetica,sans-Serif" font-size="10.00">uxn/patl/patcont.cpp</text>
</a>
</g>
</g>
<!-- Node15&#45;&gt;Node17 -->
<g id="edge16" class="edge">
<title>Node15&#45;&gt;Node17</title>
<path fill="none" stroke="midnightblue" d="M1214.25,-122.18C1195.72,-104.81 1172.07,-76.27 1189.5,-56 1219.68,-20.91 1350.79,-12.84 1428.36,-11.2"/>
<polygon fill="midnightblue" stroke="midnightblue" points="1211.95,-124.82 1221.74,-128.89 1216.62,-119.61 1211.95,-124.82"/>
</g>
<!-- Node18&#45;&gt;Node6 -->
<g id="edge19" class="edge">
<title>Node18&#45;&gt;Node6</title>
<path fill="none" stroke="midnightblue" d="M1327.06,-127.1C1319.19,-125.63 1311.14,-124.2 1303.5,-123 1170.85,-102.07 1136.48,-105.68 1003.5,-87 990.81,-85.22 977.13,-83.11 964.37,-81.06"/>
<polygon fill="midnightblue" stroke="midnightblue" points="1326.4,-130.54 1336.88,-128.98 1327.72,-123.66 1326.4,-130.54"/>
</g>
<!-- Node18&#45;&gt;Node12 -->
<g id="edge23" class="edge">
<title>Node18&#45;&gt;Node12</title>
<path fill="none" stroke="midnightblue" d="M1327.9,-126.75C1277.16,-115.76 1198.08,-98.63 1142.39,-86.56"/>
<polygon fill="midnightblue" stroke="midnightblue" points="1327.46,-130.24 1337.97,-128.94 1328.94,-123.4 1327.46,-130.24"/>
</g>
<!-- Node18&#45;&gt;Node16 -->
<g id="edge22" class="edge">
<title>Node18&#45;&gt;Node16</title>
<path fill="none" stroke="midnightblue" d="M1352.12,-124.19C1331.26,-113.26 1301.78,-97.81 1280.5,-86.65"/>
<polygon fill="midnightblue" stroke="midnightblue" points="1350.55,-127.33 1361.03,-128.87 1353.8,-121.13 1350.55,-127.33"/>
</g>
<!-- Node19 -->
<g id="node19" class="node">
<title>Node19</title>
<g id="a_node19"><a xlink:href="../../d5/d69/ins__test_8cpp.html" target="_top" xlink:title=" ">
<polygon fill="none" stroke="black" points="1326.5,-56.5 1326.5,-86.5 1438.5,-86.5 1438.5,-56.5 1326.5,-56.5"/>
<text text-anchor="start" x="1334.5" y="-74.5" font-family="Helvetica,sans-Serif" font-size="10.00">uxn/demos/ins_test</text>
<text text-anchor="middle" x="1382.5" y="-63.5" font-family="Helvetica,sans-Serif" font-size="10.00">/ins_test.cpp</text>
</a>
</g>
</g>
<!-- Node18&#45;&gt;Node19 -->
<g id="edge18" class="edge">
<title>Node18&#45;&gt;Node19</title>
<path fill="none" stroke="midnightblue" d="M1378.94,-118.74C1379.73,-108.49 1380.69,-96 1381.42,-86.59"/>
<polygon fill="midnightblue" stroke="midnightblue" points="1375.45,-118.49 1378.17,-128.73 1382.43,-119.03 1375.45,-118.49"/>
</g>
<!-- Node20 -->
<g id="node20" class="node">
<title>Node20</title>
<g id="a_node20"><a xlink:href="../../de/dd6/levenshtein_8cpp.html" target="_top" xlink:title=" ">
<polygon fill="none" stroke="black" points="1457,-56.5 1457,-86.5 1588,-86.5 1588,-56.5 1457,-56.5"/>
<text text-anchor="start" x="1465" y="-74.5" font-family="Helvetica,sans-Serif" font-size="10.00">uxn/demos/levenshtein</text>
<text text-anchor="middle" x="1522.5" y="-63.5" font-family="Helvetica,sans-Serif" font-size="10.00">/levenshtein.cpp</text>
</a>
</g>
</g>
<!-- Node18&#45;&gt;Node20 -->
<g id="edge20" class="edge">
<title>Node18&#45;&gt;Node20</title>
<path fill="none" stroke="midnightblue" d="M1405.9,-124.77C1430.45,-113.77 1465.86,-97.89 1491.21,-86.53"/>
<polygon fill="midnightblue" stroke="midnightblue" points="1404.45,-121.58 1396.75,-128.87 1407.31,-127.97 1404.45,-121.58"/>
</g>
<!-- Node21 -->
<g id="node21" class="node">
<title>Node21</title>
<g id="a_node21"><a xlink:href="../../d6/de8/muxoclon_8cpp.html" target="_top" xlink:title=" ">
<polygon fill="none" stroke="black" points="1606,-56.5 1606,-86.5 1727,-86.5 1727,-56.5 1606,-56.5"/>
<text text-anchor="start" x="1614" y="-74.5" font-family="Helvetica,sans-Serif" font-size="10.00">uxn/demos/muxoclon</text>
<text text-anchor="middle" x="1666.5" y="-63.5" font-family="Helvetica,sans-Serif" font-size="10.00">/muxoclon.cpp</text>
</a>
</g>
</g>
<!-- Node18&#45;&gt;Node21 -->
<g id="edge21" class="edge">
<title>Node18&#45;&gt;Node21</title>
<path fill="none" stroke="midnightblue" d="M1425.39,-126.73C1474.86,-115.6 1552.21,-98.21 1605.9,-86.13"/>
<polygon fill="midnightblue" stroke="midnightblue" points="1424.57,-123.33 1415.58,-128.94 1426.1,-130.16 1424.57,-123.33"/>
</g>
<!-- Node22 -->
<g id="node22" class="node">
<title>Node22</title>
<g id="a_node22"><a xlink:href="../../db/d8f/priority_8hpp.html" target="_top" xlink:title=" ">
<polygon fill="none" stroke="black" points="1745.5,-62 1745.5,-81 1859.5,-81 1859.5,-62 1745.5,-62"/>
<text text-anchor="middle" x="1802.5" y="-69" font-family="Helvetica,sans-Serif" font-size="10.00">uxn/patl/priority.hpp</text>
</a>
</g>
</g>
<!-- Node18&#45;&gt;Node22 -->
<g id="edge24" class="edge">
<title>Node18&#45;&gt;Node22</title>
<path fill="none" stroke="midnightblue" d="M1446.53,-129.38C1519,-120.49 1636.13,-105.06 1736.5,-87 1746.08,-85.28 1756.39,-83.15 1765.94,-81.05"/>
<polygon fill="midnightblue" stroke="midnightblue" points="1445.67,-125.96 1436.17,-130.65 1446.52,-132.91 1445.67,-125.96"/>
</g>
<!-- Node22&#45;&gt;Node17 -->
<g id="edge25" class="edge">
<title>Node22&#45;&gt;Node17</title>
<path fill="none" stroke="midnightblue" d="M1754.69,-59.77C1748.58,-58.47 1742.4,-57.18 1736.5,-56 1667.74,-42.26 1587.95,-28.23 1537.36,-19.57"/>
<polygon fill="midnightblue" stroke="midnightblue" points="1754.34,-63.28 1764.86,-61.97 1755.82,-56.44 1754.34,-63.28"/>
</g>
<!-- Node23&#45;&gt;Node6 -->
<g id="edge27" class="edge">
<title>Node23&#45;&gt;Node6</title>
<path fill="none" stroke="midnightblue" d="M914.21,-118.54C914.02,-106.17 913.78,-90.62 913.63,-81.13"/>
<polygon fill="midnightblue" stroke="midnightblue" points="910.71,-118.79 914.37,-128.73 917.71,-118.68 910.71,-118.79"/>
</g>
<!-- Node23&#45;&gt;Node12 -->
<g id="edge28" class="edge">
<title>Node23&#45;&gt;Node12</title>
<path fill="none" stroke="midnightblue" d="M945.7,-125.06C973.31,-114.05 1013.57,-97.99 1042.32,-86.53"/>
<polygon fill="midnightblue" stroke="midnightblue" points="944.14,-121.91 936.15,-128.87 946.73,-128.42 944.14,-121.91"/>
</g>
<!-- Node24&#45;&gt;Node6 -->
<g id="edge30" class="edge">
<title>Node24&#45;&gt;Node6</title>
<path fill="none" stroke="midnightblue" d="M1031.67,-119.62C1000.12,-107.04 959.31,-90.77 934.83,-81.01"/>
<polygon fill="midnightblue" stroke="midnightblue" points="1030.55,-122.94 1041.13,-123.4 1033.14,-116.44 1030.55,-122.94"/>
</g>
<!-- Node24&#45;&gt;Node12 -->
<g id="edge31" class="edge">
<title>Node24&#45;&gt;Node12</title>
<path fill="none" stroke="midnightblue" d="M1076.88,-113.11C1077.01,-104.15 1077.16,-94.32 1077.28,-86.58"/>
<polygon fill="midnightblue" stroke="midnightblue" points="1073.37,-113.34 1076.72,-123.4 1080.37,-113.45 1073.37,-113.34"/>
</g>
</g>
</svg>
