<?xml version="1.0" encoding="UTF-8" standalone="no"?>
<!DOCTYPE svg PUBLIC "-//W3C//DTD SVG 1.1//EN"
 "http://www.w3.org/Graphics/SVG/1.1/DTD/svg11.dtd">
<!-- Generated by graphviz version 5.0.1 (20220820.1526)
 -->
<!-- Title: uxn::patl::maxrep_iterator&lt; Container &gt;::functor Pages: 1 -->
<!--zoomable 728 -->
<svg id="main" version="1.1" xmlns="http://www.w3.org/2000/svg" xmlns:xlink="http://www.w3.org/1999/xlink" xml:space="preserve" onload="init(evt)">
<style type="text/css"><![CDATA[
.edge:hover path { stroke: red; }
.edge:hover polygon { stroke: red; fill: red; }
]]></style>
<script type="text/javascript"><![CDATA[
var edges = document.getElementsByTagName('g');
if (edges && edges.length) {
  for (var i=0;i<edges.length;i++) {
    if (edges[i].id.substr(0,4)=='edge') {
      edges[i].setAttribute('class','edge');
    }
  }
}
]]></script>
        <defs>
                <circle id="rim" cx="0" cy="0" r="7"/>
                <circle id="rim2" cx="0" cy="0" r="3.5"/>
                <g id="zoomPlus">
                        <use xlink:href="#rim" fill="#404040">
                                <set attributeName="fill" to="#808080" begin="zoomplus.mouseover" end="zoomplus.mouseout"/>
                        </use>
                        <path d="M-4,0h8M0,-4v8" fill="none" stroke="white" stroke-width="1.5" pointer-events="none"/>
                </g>
                <g id="zoomMin">
                        <use xlink:href="#rim" fill="#404040">
                                <set attributeName="fill" to="#808080" begin="zoomminus.mouseover" end="zoomminus.mouseout"/>
                        </use>
                        <path d="M-4,0h8" fill="none" stroke="white" stroke-width="1.5" pointer-events="none"/>
                </g>
                <g id="dirArrow">
                        <path fill="none" stroke="white" stroke-width="1.5" d="M0,-3.0v7 M-2.5,-0.5L0,-3.0L2.5,-0.5"/>
                </g>
               <g id="resetDef">
                       <use xlink:href="#rim2" fill="#404040">
                               <set attributeName="fill" to="#808080" begin="reset.mouseover" end="reset.mouseout"/>
                       </use>
               </g>
        </defs>

<script type="text/javascript">
var viewWidth = 384;
var viewHeight = 728;
var sectionId = 'dynsection-0';
</script>
<script xlink:href="../../svgpan.js"/>
<svg id="graph" class="graph">
<g id="viewport">
<title>uxn::patl::maxrep_iterator&lt; Container &gt;::functor</title>
<!-- Node1 -->
<g id="node1" class="node">
<title>Node1</title>
<g id="a_node1"><a xlink:title=" ">
<polygon fill="#bfbfbf" stroke="black" points="0,-0.5 0,-134.5 150,-134.5 150,-0.5 0,-0.5"/>
<text text-anchor="start" x="8" y="-122.5" font-family="Helvetica,sans-Serif" font-size="10.00">uxn::patl::maxrep_iterator</text>
<text text-anchor="middle" x="75" y="-111.5" font-family="Helvetica,sans-Serif" font-size="10.00">&lt; Container &gt;::functor</text>
<polyline fill="none" stroke="black" points="0,-104.5 150,-104.5"/>
<text text-anchor="middle" x="75" y="-92.5" font-family="Helvetica,sans-Serif" font-size="10.00"> </text>
<polyline fill="none" stroke="black" points="0,-85.5 150,-85.5"/>
<text text-anchor="start" x="8" y="-73.5" font-family="Helvetica,sans-Serif" font-size="10.00">+ void init(maxrep_iterator</text>
<text text-anchor="start" x="8" y="-62.5" font-family="Helvetica,sans-Serif" font-size="10.00"> *mrit)</text>
<text text-anchor="start" x="8" y="-51.5" font-family="Helvetica,sans-Serif" font-size="10.00">+ void push()</text>
<text text-anchor="start" x="8" y="-40.5" font-family="Helvetica,sans-Serif" font-size="10.00">+ void incr()</text>
<text text-anchor="start" x="8" y="-29.5" font-family="Helvetica,sans-Serif" font-size="10.00">+ void update()</text>
<text text-anchor="start" x="8" y="-18.5" font-family="Helvetica,sans-Serif" font-size="10.00">+ void merge()</text>
<text text-anchor="start" x="8" y="-7.5" font-family="Helvetica,sans-Serif" font-size="10.00">+ bool cond() const</text>
</a>
</g>
</g>
<!-- Node2 -->
<g id="node2" class="node">
<title>Node2</title>
<g id="a_node2"><a xlink:href="../../d6/d48/classuxn_1_1patl_1_1maxrep__iterator.html" target="_top" xlink:title=" ">
<polygon fill="none" stroke="black" points="94.5,-182.5 94.5,-382.5 279.5,-382.5 279.5,-182.5 94.5,-182.5"/>
<text text-anchor="start" x="102.5" y="-370.5" font-family="Helvetica,sans-Serif" font-size="10.00">uxn::patl::maxrep_iterator</text>
<text text-anchor="middle" x="187" y="-359.5" font-family="Helvetica,sans-Serif" font-size="10.00">&lt; Container &gt;</text>
<polyline fill="none" stroke="black" points="94.5,-352.5 279.5,-352.5"/>
<text text-anchor="start" x="102.5" y="-340.5" font-family="Helvetica,sans-Serif" font-size="10.00">&#45; prefix pref_</text>
<polyline fill="none" stroke="black" points="94.5,-333.5 279.5,-333.5"/>
<text text-anchor="start" x="102.5" y="-321.5" font-family="Helvetica,sans-Serif" font-size="10.00">+ maxrep_iterator(const</text>
<text text-anchor="start" x="102.5" y="-310.5" font-family="Helvetica,sans-Serif" font-size="10.00"> Container *cont)</text>
<text text-anchor="start" x="102.5" y="-299.5" font-family="Helvetica,sans-Serif" font-size="10.00">+ const prefix &amp; operator*</text>
<text text-anchor="start" x="102.5" y="-288.5" font-family="Helvetica,sans-Serif" font-size="10.00">() const</text>
<text text-anchor="start" x="102.5" y="-277.5" font-family="Helvetica,sans-Serif" font-size="10.00">+ const prefix * operator</text>
<text text-anchor="start" x="102.5" y="-266.5" font-family="Helvetica,sans-Serif" font-size="10.00">&#45;&gt;() const</text>
<text text-anchor="start" x="102.5" y="-255.5" font-family="Helvetica,sans-Serif" font-size="10.00">+ word_t freq() const</text>
<text text-anchor="start" x="102.5" y="-244.5" font-family="Helvetica,sans-Serif" font-size="10.00">+ maxrep_iterator &amp; operator++()</text>
<text text-anchor="start" x="102.5" y="-233.5" font-family="Helvetica,sans-Serif" font-size="10.00">+ maxrep_iterator operator</text>
<text text-anchor="start" x="102.5" y="-222.5" font-family="Helvetica,sans-Serif" font-size="10.00">++(int)</text>
<text text-anchor="start" x="102.5" y="-211.5" font-family="Helvetica,sans-Serif" font-size="10.00">&#45; bool left_diff() const</text>
<text text-anchor="start" x="102.5" y="-200.5" font-family="Helvetica,sans-Serif" font-size="10.00">&#45; void bit31_update()</text>
<text text-anchor="start" x="102.5" y="-189.5" font-family="Helvetica,sans-Serif" font-size="10.00">&#45; void merge()</text>
</a>
</g>
</g>
<!-- Node2&#45;&gt;Node1 -->
<g id="edge1" class="edge">
<title>Node2&#45;&gt;Node1</title>
<path fill="none" stroke="#404040" d="M134.93,-182.48C128.42,-170.09 121.83,-157.56 115.53,-145.57"/>
<polygon fill="none" stroke="#404040" points="115.41,-145.35 109.08,-141.9 109.83,-134.73 116.16,-138.18 115.41,-145.35"/>
<text text-anchor="middle" x="141.5" y="-156" font-family="Helvetica,sans-Serif" font-size="10.00"> &#45;mrit_</text>
</g>
<!-- Node4 -->
<g id="node4" class="node">
<title>Node4</title>
<g id="a_node4"><a xlink:href="../../d0/da8/structuxn_1_1patl_1_1maxrep__iterator_1_1functor.html" target="_top" xlink:title=" ">
<polygon fill="none" stroke="black" points="168,-0.5 168,-134.5 318,-134.5 318,-0.5 168,-0.5"/>
<text text-anchor="start" x="176" y="-122.5" font-family="Helvetica,sans-Serif" font-size="10.00">uxn::patl::maxrep_iterator</text>
<text text-anchor="middle" x="243" y="-111.5" font-family="Helvetica,sans-Serif" font-size="10.00">&lt; Container &gt;::functor</text>
<polyline fill="none" stroke="black" points="168,-104.5 318,-104.5"/>
<text text-anchor="middle" x="243" y="-92.5" font-family="Helvetica,sans-Serif" font-size="10.00"> </text>
<polyline fill="none" stroke="black" points="168,-85.5 318,-85.5"/>
<text text-anchor="start" x="176" y="-73.5" font-family="Helvetica,sans-Serif" font-size="10.00">+ void init(maxrep_iterator</text>
<text text-anchor="start" x="176" y="-62.5" font-family="Helvetica,sans-Serif" font-size="10.00"> *mrit)</text>
<text text-anchor="start" x="176" y="-51.5" font-family="Helvetica,sans-Serif" font-size="10.00">+ void push()</text>
<text text-anchor="start" x="176" y="-40.5" font-family="Helvetica,sans-Serif" font-size="10.00">+ void incr()</text>
<text text-anchor="start" x="176" y="-29.5" font-family="Helvetica,sans-Serif" font-size="10.00">+ void update()</text>
<text text-anchor="start" x="176" y="-18.5" font-family="Helvetica,sans-Serif" font-size="10.00">+ void merge()</text>
<text text-anchor="start" x="176" y="-7.5" font-family="Helvetica,sans-Serif" font-size="10.00">+ bool cond() const</text>
</a>
</g>
</g>
<!-- Node2&#45;&gt;Node4 -->
<g id="edge4" class="edge">
<title>Node2&#45;&gt;Node4</title>
<path fill="none" stroke="#404040" d="M178.17,-182.35C179.21,-172.31 181.05,-162.37 184,-153 184.76,-150.6 185.61,-148.21 186.54,-145.83"/>
<polygon fill="none" stroke="#404040" points="186.55,-145.8 185.35,-138.69 191.45,-134.84 192.65,-141.95 186.55,-145.8"/>
<text text-anchor="middle" x="200.5" y="-156" font-family="Helvetica,sans-Serif" font-size="10.00"> &#45;mrit_</text>
</g>
<!-- Node3 -->
<g id="node3" class="node">
<title>Node3</title>
<g id="a_node3"><a xlink:title=" ">
<polygon fill="none" stroke="black" points="108.5,-430.5 108.5,-509.5 233.5,-509.5 233.5,-430.5 108.5,-430.5"/>
<text text-anchor="start" x="116.5" y="-497.5" font-family="Helvetica,sans-Serif" font-size="10.00">std::iterator&lt; std</text>
<text text-anchor="start" x="116.5" y="-486.5" font-family="Helvetica,sans-Serif" font-size="10.00">::forward_iterator_tag,</text>
<text text-anchor="middle" x="171" y="-475.5" font-family="Helvetica,sans-Serif" font-size="10.00"> Container::prefix &gt;</text>
<polyline fill="none" stroke="black" points="108.5,-468.5 233.5,-468.5"/>
<text text-anchor="middle" x="171" y="-456.5" font-family="Helvetica,sans-Serif" font-size="10.00"> </text>
<polyline fill="none" stroke="black" points="108.5,-449.5 233.5,-449.5"/>
<text text-anchor="middle" x="171" y="-437.5" font-family="Helvetica,sans-Serif" font-size="10.00"> </text>
</a>
</g>
</g>
<!-- Node3&#45;&gt;Node2 -->
<g id="edge2" class="edge">
<title>Node3&#45;&gt;Node2</title>
<path fill="none" stroke="midnightblue" d="M175.24,-419.87C176.23,-408.32 177.33,-395.61 178.44,-382.73"/>
<polygon fill="none" stroke="midnightblue" points="171.73,-419.85 174.35,-430.11 178.7,-420.45 171.73,-419.85"/>
</g>
<!-- Node4&#45;&gt;Node2 -->
<g id="edge3" class="edge">
<title>Node4&#45;&gt;Node2</title>
<path fill="none" stroke="#404040" d="M228.27,-134.63C225.92,-144.5 223.46,-154.53 221,-164 220.44,-166.14 219.88,-168.3 219.3,-170.48"/>
<polygon fill="none" stroke="#404040" points="219.25,-170.65 221.56,-177.49 216.14,-182.24 213.83,-175.41 219.25,-170.65"/>
<text text-anchor="middle" x="240" y="-156" font-family="Helvetica,sans-Serif" font-size="10.00"> &#45;func_</text>
</g>
<!-- Node5 -->
<g id="node5" class="node">
<title>Node5</title>
<g id="a_node5"><a xlink:title=" ">
<polygon fill="none" stroke="black" points="252,-441.5 252,-498.5 376,-498.5 376,-441.5 252,-441.5"/>
<text text-anchor="middle" x="314" y="-486.5" font-family="Helvetica,sans-Serif" font-size="10.00">std::vector&lt; word_t &gt;</text>
<polyline fill="none" stroke="black" points="252,-479.5 376,-479.5"/>
<text text-anchor="start" x="260" y="-467.5" font-family="Helvetica,sans-Serif" font-size="10.00">+ word_t elements</text>
<polyline fill="none" stroke="black" points="252,-460.5 376,-460.5"/>
<text text-anchor="middle" x="314" y="-448.5" font-family="Helvetica,sans-Serif" font-size="10.00"> </text>
</a>
</g>
</g>
<!-- Node5&#45;&gt;Node2 -->
<g id="edge5" class="edge">
<title>Node5&#45;&gt;Node2</title>
<path fill="none" stroke="#404040" d="M294.99,-441.23C285.76,-427.75 274.02,-410.6 261.7,-392.6"/>
<polygon fill="none" stroke="#404040" points="261.58,-392.44 254.89,-389.75 254.8,-382.54 261.49,-385.23 261.58,-392.44"/>
<text text-anchor="middle" x="290.5" y="-404" font-family="Helvetica,sans-Serif" font-size="10.00"> &#45;sfreq_</text>
</g>
<!-- Node6 -->
<g id="node6" class="node">
<title>Node6</title>
<g id="a_node6"><a xlink:title=" ">
<polygon fill="none" stroke="black" points="265.5,-557.5 265.5,-614.5 362.5,-614.5 362.5,-557.5 265.5,-557.5"/>
<text text-anchor="middle" x="314" y="-602.5" font-family="Helvetica,sans-Serif" font-size="10.00">std::vector&lt; T &gt;</text>
<polyline fill="none" stroke="black" points="265.5,-595.5 362.5,-595.5"/>
<text text-anchor="middle" x="314" y="-583.5" font-family="Helvetica,sans-Serif" font-size="10.00"> </text>
<polyline fill="none" stroke="black" points="265.5,-576.5 362.5,-576.5"/>
<text text-anchor="middle" x="314" y="-564.5" font-family="Helvetica,sans-Serif" font-size="10.00"> </text>
</a>
</g>
</g>
<!-- Node6&#45;&gt;Node5 -->
<g id="edge6" class="edge">
<title>Node6&#45;&gt;Node5</title>
<path fill="none" stroke="orange" d="M314,-547.36C314,-531.5 314,-513.35 314,-498.74"/>
<polygon fill="orange" stroke="orange" points="310.5,-547.4 314,-557.4 317.5,-547.4 310.5,-547.4"/>
<text text-anchor="middle" x="343.5" y="-531" font-family="Helvetica,sans-Serif" font-size="10.00"> &lt; word_t &gt;</text>
</g>
<!-- Node7 -->
<g id="node7" class="node">
<title>Node7</title>
<g id="a_node7"><a xlink:title=" ">
<polygon fill="none" stroke="black" points="299.5,-662.5 299.5,-719.5 328.5,-719.5 328.5,-662.5 299.5,-662.5"/>
<text text-anchor="middle" x="314" y="-707.5" font-family="Helvetica,sans-Serif" font-size="10.00">T</text>
<polyline fill="none" stroke="black" points="299.5,-700.5 328.5,-700.5"/>
<text text-anchor="middle" x="314" y="-688.5" font-family="Helvetica,sans-Serif" font-size="10.00"> </text>
<polyline fill="none" stroke="black" points="299.5,-681.5 328.5,-681.5"/>
<text text-anchor="middle" x="314" y="-669.5" font-family="Helvetica,sans-Serif" font-size="10.00"> </text>
</a>
</g>
</g>
<!-- Node7&#45;&gt;Node6 -->
<g id="edge7" class="edge">
<title>Node7&#45;&gt;Node6</title>
<path fill="none" stroke="#404040" d="M314,-662.4C314,-651.55 314,-638.87 314,-627.05"/>
<polygon fill="none" stroke="#404040" points="314,-626.68 310,-620.68 314,-614.68 318,-620.68 314,-626.68"/>
<text text-anchor="middle" x="343" y="-636" font-family="Helvetica,sans-Serif" font-size="10.00"> +elements</text>
</g>
</g>
</svg>
        <g id="navigator" transform="translate(0 0)" fill="#404254">
                <rect fill="#f2f5e9" fill-opacity="0.5" stroke="#606060" stroke-width=".5" x="0" y="0" width="60" height="60"/>
                <use id="zoomplus" xlink:href="#zoomPlus" x="17" y="9" onmousedown="handleZoom(evt,'in')"/>
                <use id="zoomminus" xlink:href="#zoomMin" x="42" y="9" onmousedown="handleZoom(evt,'out')"/>
                <use id="reset" xlink:href="#resetDef" x="30" y="36" onmousedown="handleReset()"/>
                <g id="arrowUp" xlink:href="#dirArrow" transform="translate(30 24)" onmousedown="handlePan(0,-1)">
                  <use xlink:href="#rim" fill="#404040">
                        <set attributeName="fill" to="#808080" begin="arrowUp.mouseover" end="arrowUp.mouseout"/>
                  </use>
                  <path fill="none" stroke="white" stroke-width="1.5" d="M0,-3.0v7 M-2.5,-0.5L0,-3.0L2.5,-0.5"/>
                </g>
                <g id="arrowRight" xlink:href="#dirArrow" transform="rotate(90) translate(36 -43)" onmousedown="handlePan(1,0)">
                  <use xlink:href="#rim" fill="#404040">
                        <set attributeName="fill" to="#808080" begin="arrowRight.mouseover" end="arrowRight.mouseout"/>
                  </use>
                  <path fill="none" stroke="white" stroke-width="1.5" d="M0,-3.0v7 M-2.5,-0.5L0,-3.0L2.5,-0.5"/>
                </g>
                <g id="arrowDown" xlink:href="#dirArrow" transform="rotate(180) translate(-30 -48)" onmousedown="handlePan(0,1)">
                  <use xlink:href="#rim" fill="#404040">
                        <set attributeName="fill" to="#808080" begin="arrowDown.mouseover" end="arrowDown.mouseout"/>
                  </use>
                  <path fill="none" stroke="white" stroke-width="1.5" d="M0,-3.0v7 M-2.5,-0.5L0,-3.0L2.5,-0.5"/>
                </g>
                <g id="arrowLeft" xlink:href="#dirArrow" transform="rotate(270) translate(-36 17)" onmousedown="handlePan(-1,0)">
                  <use xlink:href="#rim" fill="#404040">
                        <set attributeName="fill" to="#808080" begin="arrowLeft.mouseover" end="arrowLeft.mouseout"/>
                  </use>
                  <path fill="none" stroke="white" stroke-width="1.5" d="M0,-3.0v7 M-2.5,-0.5L0,-3.0L2.5,-0.5"/>
                </g>
        </g>
        <svg viewBox="0 0 15 15" width="100%" height="30px" preserveAspectRatio="xMaxYMin meet">
         <g id="arrow_out" transform="scale(0.3 0.3)">
          <a xlink:href="structuxn_1_1patl_1_1maxrep__iterator_1_1functor__coll__graph_org.svg" target="_base">
           <rect id="button" ry="5" rx="5" y="6" x="6" height="38" width="38"
                fill="#f2f5e9" fill-opacity="0.5" stroke="#606060" stroke-width="1.0"/>
           <path id="arrow"
             d="M 11.500037,31.436501 C 11.940474,20.09759 22.043105,11.32322 32.158766,21.979434 L 37.068811,17.246167 C 37.068811,17.246167 37.088388,32 37.088388,32 L 22.160133,31.978069 C 22.160133,31.978069 26.997745,27.140456 26.997745,27.140456 C 18.528582,18.264221 13.291696,25.230495 11.500037,31.436501 z"
             style="fill:#404040;"/>
          </a>
         </g>
        </svg>
</svg>
