<?xml version="1.0" encoding="UTF-8" standalone="no"?>
<!DOCTYPE svg PUBLIC "-//W3C//DTD SVG 1.1//EN"
 "http://www.w3.org/Graphics/SVG/1.1/DTD/svg11.dtd">
<!-- Generated by graphviz version 5.0.1 (20220820.1526)
 -->
<!-- Title: uxn/demos/lz77/lz77.cpp Pages: 1 -->
<!--zoomable 375 -->
<svg id="main" version="1.1" xmlns="http://www.w3.org/2000/svg" xmlns:xlink="http://www.w3.org/1999/xlink" xml:space="preserve" onload="init(evt)">
<style type="text/css"><![CDATA[
.edge:hover path { stroke: red; }
.edge:hover polygon { stroke: red; fill: red; }
]]></style>
<script type="text/javascript"><![CDATA[
var edges = document.getElementsByTagName('g');
if (edges && edges.length) {
  for (var i=0;i<edges.length;i++) {
    if (edges[i].id.substr(0,4)=='edge') {
      edges[i].setAttribute('class','edge');
    }
  }
}
]]></script>
        <defs>
                <circle id="rim" cx="0" cy="0" r="7"/>
                <circle id="rim2" cx="0" cy="0" r="3.5"/>
                <g id="zoomPlus">
                        <use xlink:href="#rim" fill="#404040">
                                <set attributeName="fill" to="#808080" begin="zoomplus.mouseover" end="zoomplus.mouseout"/>
                        </use>
                        <path d="M-4,0h8M0,-4v8" fill="none" stroke="white" stroke-width="1.5" pointer-events="none"/>
                </g>
                <g id="zoomMin">
                        <use xlink:href="#rim" fill="#404040">
                                <set attributeName="fill" to="#808080" begin="zoomminus.mouseover" end="zoomminus.mouseout"/>
                        </use>
                        <path d="M-4,0h8" fill="none" stroke="white" stroke-width="1.5" pointer-events="none"/>
                </g>
                <g id="dirArrow">
                        <path fill="none" stroke="white" stroke-width="1.5" d="M0,-3.0v7 M-2.5,-0.5L0,-3.0L2.5,-0.5"/>
                </g>
               <g id="resetDef">
                       <use xlink:href="#rim2" fill="#404040">
                               <set attributeName="fill" to="#808080" begin="reset.mouseover" end="reset.mouseout"/>
                       </use>
               </g>
        </defs>

<script type="text/javascript">
var viewWidth = 1136;
var viewHeight = 375;
var sectionId = 'dynsection-0';
</script>
<script xlink:href="../../svgpan.js"/>
<svg id="graph" class="graph">
<g id="viewport">
<title>uxn/demos/lz77/lz77.cpp</title>
<!-- Node1 -->
<g id="node1" class="node">
<title>Node1</title>
<g id="a_node1"><a xlink:title=" ">
<polygon fill="#bfbfbf" stroke="black" points="63,-347.5 63,-366.5 200,-366.5 200,-347.5 63,-347.5"/>
<text text-anchor="middle" x="131.5" y="-354.5" font-family="Helvetica,sans-Serif" font-size="10.00">uxn/demos/lz77/lz77.cpp</text>
</a>
</g>
</g>
<!-- Node2 -->
<g id="node2" class="node">
<title>Node2</title>
<g id="a_node2"><a xlink:href="../../d6/dd0/bitwise__io_8hpp.html" target="_top" xlink:title=" ">
<polygon fill="none" stroke="black" points="0,-112.5 0,-142.5 121,-142.5 121,-112.5 0,-112.5"/>
<text text-anchor="start" x="8" y="-130.5" font-family="Helvetica,sans-Serif" font-size="10.00">uxn/patl/aux_/bitwise</text>
<text text-anchor="middle" x="60.5" y="-119.5" font-family="Helvetica,sans-Serif" font-size="10.00">_io.hpp</text>
</a>
</g>
</g>
<!-- Node1&#45;&gt;Node2 -->
<g id="edge1" class="edge">
<title>Node1&#45;&gt;Node2</title>
<path fill="none" stroke="midnightblue" d="M128.8,-347.36C118.78,-315.23 83.43,-201.96 67.9,-152.22"/>
<polygon fill="midnightblue" stroke="midnightblue" points="71.23,-151.13 64.91,-142.62 64.55,-153.21 71.23,-151.13"/>
</g>
<!-- Node9 -->
<g id="node9" class="node">
<title>Node9</title>
<g id="a_node9"><a xlink:href="../../d4/dc0/suffix__set_8hpp.html" target="_top" xlink:title=" ">
<polygon fill="none" stroke="black" points="137.5,-291.5 137.5,-310.5 265.5,-310.5 265.5,-291.5 137.5,-291.5"/>
<text text-anchor="middle" x="201.5" y="-298.5" font-family="Helvetica,sans-Serif" font-size="10.00">uxn/patl/suffix_set.hpp</text>
</a>
</g>
</g>
<!-- Node1&#45;&gt;Node9 -->
<g id="edge9" class="edge">
<title>Node1&#45;&gt;Node9</title>
<path fill="none" stroke="midnightblue" d="M142.75,-347.32C153.3,-339.18 169.3,-326.84 181.94,-317.09"/>
<polygon fill="midnightblue" stroke="midnightblue" points="184.27,-319.71 190.05,-310.83 179.99,-314.17 184.27,-319.71"/>
</g>
<!-- Node3 -->
<g id="node3" class="node">
<title>Node3</title>
<g id="a_node3"><a xlink:href="../../d8/dfd/config_8hpp.html" target="_top" xlink:title=" ">
<polygon fill="none" stroke="black" points="227.5,-0.5 227.5,-19.5 303.5,-19.5 303.5,-0.5 227.5,-0.5"/>
<text text-anchor="middle" x="265.5" y="-7.5" font-family="Helvetica,sans-Serif" font-size="10.00">../config.hpp</text>
</a>
</g>
</g>
<!-- Node2&#45;&gt;Node3 -->
<g id="edge2" class="edge">
<title>Node2&#45;&gt;Node3</title>
<path fill="none" stroke="midnightblue" d="M121.03,-113.53C149.2,-105.63 182.22,-93.59 208.5,-76 227.33,-63.4 243.77,-43.06 254.09,-28.49"/>
<polygon fill="midnightblue" stroke="midnightblue" points="257.22,-30.12 259.96,-19.89 251.43,-26.18 257.22,-30.12"/>
</g>
<!-- Node4 -->
<g id="node4" class="node">
<title>Node4</title>
<g id="a_node4"><a xlink:href="../../d9/d3a/trivial_8hpp.html" target="_top" xlink:title=" ">
<polygon fill="none" stroke="black" points="99.5,-56.5 99.5,-75.5 199.5,-75.5 199.5,-56.5 99.5,-56.5"/>
<text text-anchor="middle" x="149.5" y="-63.5" font-family="Helvetica,sans-Serif" font-size="10.00">../impl/trivial.hpp</text>
</a>
</g>
</g>
<!-- Node2&#45;&gt;Node4 -->
<g id="edge3" class="edge">
<title>Node2&#45;&gt;Node4</title>
<path fill="none" stroke="midnightblue" d="M81.59,-112.4C95.59,-103.04 113.91,-90.79 127.99,-81.38"/>
<polygon fill="midnightblue" stroke="midnightblue" points="130.18,-84.13 136.55,-75.66 126.29,-78.31 130.18,-84.13"/>
</g>
<!-- Node8 -->
<g id="node8" class="node">
<title>Node8</title>
<g id="a_node8"><a xlink:title=" ">
<polygon fill="none" stroke="#bfbfbf" points="31.5,-56.5 31.5,-75.5 81.5,-75.5 81.5,-56.5 31.5,-56.5"/>
<text text-anchor="middle" x="56.5" y="-63.5" font-family="Helvetica,sans-Serif" font-size="10.00">cstring</text>
</a>
</g>
</g>
<!-- Node2&#45;&gt;Node8 -->
<g id="edge8" class="edge">
<title>Node2&#45;&gt;Node8</title>
<path fill="none" stroke="midnightblue" d="M59.55,-112.4C59.02,-104.47 58.35,-94.46 57.77,-85.86"/>
<polygon fill="midnightblue" stroke="midnightblue" points="61.24,-85.4 57.08,-75.66 54.26,-85.87 61.24,-85.4"/>
</g>
<!-- Node4&#45;&gt;Node3 -->
<g id="edge4" class="edge">
<title>Node4&#45;&gt;Node3</title>
<path fill="none" stroke="midnightblue" d="M167.88,-56.44C186.72,-47.68 216.23,-33.94 237.88,-23.86"/>
<polygon fill="midnightblue" stroke="midnightblue" points="239.62,-26.91 247.21,-19.52 236.66,-20.56 239.62,-26.91"/>
</g>
<!-- Node5 -->
<g id="node5" class="node">
<title>Node5</title>
<g id="a_node5"><a xlink:title=" ">
<polygon fill="none" stroke="#bfbfbf" points="70,-0.5 70,-19.5 139,-19.5 139,-0.5 70,-0.5"/>
<text text-anchor="middle" x="104.5" y="-7.5" font-family="Helvetica,sans-Serif" font-size="10.00">type_traits</text>
</a>
</g>
</g>
<!-- Node4&#45;&gt;Node5 -->
<g id="edge5" class="edge">
<title>Node4&#45;&gt;Node5</title>
<path fill="none" stroke="midnightblue" d="M142.07,-56.08C135.65,-48.38 126.19,-37.03 118.38,-27.65"/>
<polygon fill="midnightblue" stroke="midnightblue" points="120.88,-25.19 111.79,-19.75 115.51,-29.67 120.88,-25.19"/>
</g>
<!-- Node6 -->
<g id="node6" class="node">
<title>Node6</title>
<g id="a_node6"><a xlink:title=" ">
<polygon fill="none" stroke="#bfbfbf" points="157.5,-0.5 157.5,-19.5 209.5,-19.5 209.5,-0.5 157.5,-0.5"/>
<text text-anchor="middle" x="183.5" y="-7.5" font-family="Helvetica,sans-Serif" font-size="10.00">cassert</text>
</a>
</g>
</g>
<!-- Node4&#45;&gt;Node6 -->
<g id="edge6" class="edge">
<title>Node4&#45;&gt;Node6</title>
<path fill="none" stroke="midnightblue" d="M155.11,-56.08C159.87,-48.53 166.82,-37.49 172.65,-28.23"/>
<polygon fill="midnightblue" stroke="midnightblue" points="175.62,-30.08 177.99,-19.75 169.7,-26.35 175.62,-30.08"/>
</g>
<!-- Node7 -->
<g id="node7" class="node">
<title>Node7</title>
<g id="a_node7"><a xlink:title=" ">
<polygon fill="none" stroke="#bfbfbf" points="1,-0.5 1,-19.5 52,-19.5 52,-0.5 1,-0.5"/>
<text text-anchor="middle" x="26.5" y="-7.5" font-family="Helvetica,sans-Serif" font-size="10.00">intrin.h</text>
</a>
</g>
</g>
<!-- Node4&#45;&gt;Node7 -->
<g id="edge7" class="edge">
<title>Node4&#45;&gt;Node7</title>
<path fill="none" stroke="midnightblue" d="M130.01,-56.44C109.86,-47.6 78.18,-33.69 55.17,-23.59"/>
<polygon fill="midnightblue" stroke="midnightblue" points="56.46,-20.33 45.9,-19.52 53.65,-26.74 56.46,-20.33"/>
</g>
<!-- Node10 -->
<g id="node10" class="node">
<title>Node10</title>
<g id="a_node10"><a xlink:href="../../d5/dfc/suffix__generic_8hpp.html" target="_top" xlink:title=" ">
<polygon fill="none" stroke="black" points="507,-235.5 507,-254.5 638,-254.5 638,-235.5 507,-235.5"/>
<text text-anchor="middle" x="572.5" y="-242.5" font-family="Helvetica,sans-Serif" font-size="10.00">impl/suffix_generic.hpp</text>
</a>
</g>
</g>
<!-- Node9&#45;&gt;Node10 -->
<g id="edge10" class="edge">
<title>Node9&#45;&gt;Node10</title>
<path fill="none" stroke="midnightblue" d="M260.29,-291.44C326.5,-281.81 433.97,-266.16 503.95,-255.98"/>
<polygon fill="midnightblue" stroke="midnightblue" points="504.6,-259.42 513.99,-254.52 503.59,-252.49 504.6,-259.42"/>
</g>
<!-- Node26 -->
<g id="node26" class="node">
<title>Node26</title>
<g id="a_node26"><a xlink:href="../../d1/dff/bit__comp_8hpp.html" target="_top" xlink:title=" ">
<polygon fill="none" stroke="black" points="160,-235.5 160,-254.5 243,-254.5 243,-235.5 160,-235.5"/>
<text text-anchor="middle" x="201.5" y="-242.5" font-family="Helvetica,sans-Serif" font-size="10.00">bit_comp.hpp</text>
</a>
</g>
</g>
<!-- Node9&#45;&gt;Node26 -->
<g id="edge35" class="edge">
<title>Node9&#45;&gt;Node26</title>
<path fill="none" stroke="midnightblue" d="M201.5,-291.08C201.5,-284.01 201.5,-273.86 201.5,-264.99"/>
<polygon fill="midnightblue" stroke="midnightblue" points="205,-264.75 201.5,-254.75 198,-264.75 205,-264.75"/>
</g>
<!-- Node11 -->
<g id="node11" class="node">
<title>Node11</title>
<g id="a_node11"><a xlink:title=" ">
<polygon fill="none" stroke="#bfbfbf" points="817,-56.5 817,-75.5 870,-75.5 870,-56.5 817,-56.5"/>
<text text-anchor="middle" x="843.5" y="-63.5" font-family="Helvetica,sans-Serif" font-size="10.00">iterator</text>
</a>
</g>
</g>
<!-- Node10&#45;&gt;Node11 -->
<g id="edge11" class="edge">
<title>Node10&#45;&gt;Node11</title>
<path fill="none" stroke="midnightblue" d="M638.36,-237.76C744.46,-226.19 945.66,-197.48 988.5,-143 1020.62,-102.15 932.92,-80.89 880.15,-72.07"/>
<polygon fill="midnightblue" stroke="midnightblue" points="880.54,-68.59 870.11,-70.47 879.43,-75.5 880.54,-68.59"/>
</g>
<!-- Node12 -->
<g id="node12" class="node">
<title>Node12</title>
<g id="a_node12"><a xlink:href="../../d3/d09/node_8hpp.html" target="_top" xlink:title=" ">
<polygon fill="none" stroke="black" points="541.5,-179.5 541.5,-198.5 603.5,-198.5 603.5,-179.5 541.5,-179.5"/>
<text text-anchor="middle" x="572.5" y="-186.5" font-family="Helvetica,sans-Serif" font-size="10.00">node.hpp</text>
</a>
</g>
</g>
<!-- Node10&#45;&gt;Node12 -->
<g id="edge12" class="edge">
<title>Node10&#45;&gt;Node12</title>
<path fill="none" stroke="midnightblue" d="M572.5,-235.08C572.5,-228.01 572.5,-217.86 572.5,-208.99"/>
<polygon fill="midnightblue" stroke="midnightblue" points="576,-208.75 572.5,-198.75 569,-208.75 576,-208.75"/>
</g>
<!-- Node14 -->
<g id="node14" class="node">
<title>Node14</title>
<g id="a_node14"><a xlink:href="../../d0/dd1/core__algorithm_8hpp.html" target="_top" xlink:title=" ">
<polygon fill="none" stroke="black" points="306,-179.5 306,-198.5 417,-198.5 417,-179.5 306,-179.5"/>
<text text-anchor="middle" x="361.5" y="-186.5" font-family="Helvetica,sans-Serif" font-size="10.00">core_algorithm.hpp</text>
</a>
</g>
</g>
<!-- Node10&#45;&gt;Node14 -->
<g id="edge15" class="edge">
<title>Node10&#45;&gt;Node14</title>
<path fill="none" stroke="midnightblue" d="M539.07,-235.44C502.64,-226.12 444.27,-211.18 404.47,-201"/>
<polygon fill="midnightblue" stroke="midnightblue" points="405.33,-197.61 394.78,-198.52 403.6,-204.39 405.33,-197.61"/>
</g>
<!-- Node16 -->
<g id="node16" class="node">
<title>Node16</title>
<g id="a_node16"><a xlink:href="../../d3/dcf/ring__buffer_8hpp.html" target="_top" xlink:title=" ">
<polygon fill="none" stroke="black" points="435,-179.5 435,-198.5 524,-198.5 524,-179.5 435,-179.5"/>
<text text-anchor="middle" x="479.5" y="-186.5" font-family="Helvetica,sans-Serif" font-size="10.00">ring_buffer.hpp</text>
</a>
</g>
</g>
<!-- Node10&#45;&gt;Node16 -->
<g id="edge19" class="edge">
<title>Node10&#45;&gt;Node16</title>
<path fill="none" stroke="midnightblue" d="M557.56,-235.32C542.91,-226.82 520.37,-213.73 503.26,-203.8"/>
<polygon fill="midnightblue" stroke="midnightblue" points="504.81,-200.65 494.4,-198.65 501.3,-206.7 504.81,-200.65"/>
</g>
<!-- Node17 -->
<g id="node17" class="node">
<title>Node17</title>
<g id="a_node17"><a xlink:href="../../de/d50/assoc__generic_8hpp.html" target="_top" xlink:title=" ">
<polygon fill="none" stroke="black" points="622,-179.5 622,-198.5 729,-198.5 729,-179.5 622,-179.5"/>
<text text-anchor="middle" x="675.5" y="-186.5" font-family="Helvetica,sans-Serif" font-size="10.00">assoc_generic.hpp</text>
</a>
</g>
</g>
<!-- Node10&#45;&gt;Node17 -->
<g id="edge20" class="edge">
<title>Node10&#45;&gt;Node17</title>
<path fill="none" stroke="midnightblue" d="M589.05,-235.32C605.49,-226.7 630.93,-213.36 649.97,-203.39"/>
<polygon fill="midnightblue" stroke="midnightblue" points="651.76,-206.4 658.99,-198.65 648.51,-200.2 651.76,-206.4"/>
</g>
<!-- Node24 -->
<g id="node24" class="node">
<title>Node24</title>
<g id="a_node24"><a xlink:href="../../d7/dd8/core__prefix_8hpp.html" target="_top" xlink:title=" ">
<polygon fill="none" stroke="black" points="1035.5,-179.5 1035.5,-198.5 1127.5,-198.5 1127.5,-179.5 1035.5,-179.5"/>
<text text-anchor="middle" x="1081.5" y="-186.5" font-family="Helvetica,sans-Serif" font-size="10.00">core_prefix.hpp</text>
</a>
</g>
</g>
<!-- Node10&#45;&gt;Node24 -->
<g id="edge33" class="edge">
<title>Node10&#45;&gt;Node24</title>
<path fill="none" stroke="midnightblue" d="M638.05,-238.44C725.59,-230.79 885.46,-216.01 1021.5,-199 1022.76,-198.84 1024.04,-198.68 1025.33,-198.51"/>
<polygon fill="midnightblue" stroke="midnightblue" points="1025.9,-201.97 1035.34,-197.16 1024.96,-195.03 1025.9,-201.97"/>
</g>
<!-- Node12&#45;&gt;Node3 -->
<g id="edge14" class="edge">
<title>Node12&#45;&gt;Node3</title>
<path fill="none" stroke="midnightblue" d="M541.44,-180.03C514.61,-172.49 475.26,-159.81 443.5,-143 379.16,-108.94 312.69,-53.12 282.39,-26.31"/>
<polygon fill="midnightblue" stroke="midnightblue" points="284.62,-23.61 274.83,-19.56 279.96,-28.83 284.62,-23.61"/>
</g>
<!-- Node13 -->
<g id="node13" class="node">
<title>Node13</title>
<g id="a_node13"><a xlink:title=" ">
<polygon fill="none" stroke="#bfbfbf" points="303.5,-118 303.5,-137 367.5,-137 367.5,-118 303.5,-118"/>
<text text-anchor="middle" x="335.5" y="-125" font-family="Helvetica,sans-Serif" font-size="10.00">algorithm</text>
</a>
</g>
</g>
<!-- Node12&#45;&gt;Node13 -->
<g id="edge13" class="edge">
<title>Node12&#45;&gt;Node13</title>
<path fill="none" stroke="midnightblue" d="M541.3,-180.78C491.19,-169.17 396.82,-147.21 381.5,-143 378.17,-142.08 374.72,-141.09 371.27,-140.06"/>
<polygon fill="midnightblue" stroke="midnightblue" points="372.26,-136.7 361.67,-137.12 370.21,-143.39 372.26,-136.7"/>
</g>
<!-- Node15 -->
<g id="node15" class="node">
<title>Node15</title>
<g id="a_node15"><a xlink:href="../../de/d55/algorithm_8hpp.html" target="_top" xlink:title=" ">
<polygon fill="none" stroke="black" points="200,-118 200,-137 285,-137 285,-118 200,-118"/>
<text text-anchor="middle" x="242.5" y="-125" font-family="Helvetica,sans-Serif" font-size="10.00">algorithm.hpp</text>
</a>
</g>
</g>
<!-- Node14&#45;&gt;Node15 -->
<g id="edge16" class="edge">
<title>Node14&#45;&gt;Node15</title>
<path fill="none" stroke="midnightblue" d="M344.45,-179.48C324.66,-169.58 291.78,-153.14 268.73,-141.62"/>
<polygon fill="midnightblue" stroke="midnightblue" points="270.03,-138.35 259.52,-137.01 266.9,-144.61 270.03,-138.35"/>
</g>
<!-- Node15&#45;&gt;Node3 -->
<g id="edge17" class="edge">
<title>Node15&#45;&gt;Node3</title>
<path fill="none" stroke="midnightblue" d="M244.23,-117.82C247.94,-99.17 256.75,-54.94 261.79,-29.63"/>
<polygon fill="midnightblue" stroke="midnightblue" points="265.23,-30.27 263.75,-19.78 258.37,-28.91 265.23,-30.27"/>
</g>
<!-- Node15&#45;&gt;Node4 -->
<g id="edge18" class="edge">
<title>Node15&#45;&gt;Node4</title>
<path fill="none" stroke="midnightblue" d="M229.18,-117.98C214.12,-108.34 189.38,-92.52 171.46,-81.05"/>
<polygon fill="midnightblue" stroke="midnightblue" points="173.11,-77.95 162.8,-75.51 169.34,-83.85 173.11,-77.95"/>
</g>
<!-- Node18 -->
<g id="node18" class="node">
<title>Node18</title>
<g id="a_node18"><a xlink:href="../../d5/db7/preorder__iterator_8hpp.html" target="_top" xlink:title=" ">
<polygon fill="none" stroke="black" points="662,-118 662,-137 781,-137 781,-118 662,-118"/>
<text text-anchor="middle" x="721.5" y="-125" font-family="Helvetica,sans-Serif" font-size="10.00">preorder_iterator.hpp</text>
</a>
</g>
</g>
<!-- Node17&#45;&gt;Node18 -->
<g id="edge21" class="edge">
<title>Node17&#45;&gt;Node18</title>
<path fill="none" stroke="midnightblue" d="M682.09,-179.48C688.99,-170.55 700,-156.31 708.63,-145.14"/>
<polygon fill="midnightblue" stroke="midnightblue" points="711.57,-147.06 714.92,-137.01 706.04,-142.78 711.57,-147.06"/>
</g>
<!-- Node19 -->
<g id="node19" class="node">
<title>Node19</title>
<g id="a_node19"><a xlink:href="../../d1/d2d/vertex_8hpp.html" target="_top" xlink:title=" ">
<polygon fill="none" stroke="black" points="490,-56.5 490,-75.5 559,-75.5 559,-56.5 490,-56.5"/>
<text text-anchor="middle" x="524.5" y="-63.5" font-family="Helvetica,sans-Serif" font-size="10.00">vertex.hpp</text>
</a>
</g>
</g>
<!-- Node17&#45;&gt;Node19 -->
<g id="edge31" class="edge">
<title>Node17&#45;&gt;Node19</title>
<path fill="none" stroke="midnightblue" d="M625.34,-179.48C561.56,-168.4 458.97,-149.69 453.5,-143 444.78,-132.33 446.86,-124.07 453.5,-112 461.39,-97.66 475.99,-87.25 489.9,-80.08"/>
<polygon fill="midnightblue" stroke="midnightblue" points="491.79,-83.06 499.34,-75.62 488.8,-76.73 491.79,-83.06"/>
</g>
<!-- Node20 -->
<g id="node20" class="node">
<title>Node20</title>
<g id="a_node20"><a xlink:href="../../df/d24/postorder__iterator_8hpp.html" target="_top" xlink:title=" ">
<polygon fill="none" stroke="black" points="462,-118 462,-137 587,-137 587,-118 462,-118"/>
<text text-anchor="middle" x="524.5" y="-125" font-family="Helvetica,sans-Serif" font-size="10.00">postorder_iterator.hpp</text>
</a>
</g>
</g>
<!-- Node17&#45;&gt;Node20 -->
<g id="edge24" class="edge">
<title>Node17&#45;&gt;Node20</title>
<path fill="none" stroke="midnightblue" d="M653.87,-179.48C628.08,-169.31 584.79,-152.26 555.46,-140.7"/>
<polygon fill="midnightblue" stroke="midnightblue" points="556.68,-137.42 546.09,-137.01 554.12,-143.93 556.68,-137.42"/>
</g>
<!-- Node21 -->
<g id="node21" class="node">
<title>Node21</title>
<g id="a_node21"><a xlink:href="../../d9/dde/iterator_8hpp.html" target="_top" xlink:title=" ">
<polygon fill="none" stroke="black" points="906,-118 906,-137 979,-137 979,-118 906,-118"/>
<text text-anchor="middle" x="942.5" y="-125" font-family="Helvetica,sans-Serif" font-size="10.00">iterator.hpp</text>
</a>
</g>
</g>
<!-- Node17&#45;&gt;Node21 -->
<g id="edge27" class="edge">
<title>Node17&#45;&gt;Node21</title>
<path fill="none" stroke="midnightblue" d="M725.68,-179.48C770.92,-171.41 839.1,-158.28 897.5,-143 900.86,-142.12 904.33,-141.14 907.8,-140.11"/>
<polygon fill="midnightblue" stroke="midnightblue" points="908.9,-143.43 917.42,-137.13 906.83,-136.74 908.9,-143.43"/>
</g>
<!-- Node22 -->
<g id="node22" class="node">
<title>Node22</title>
<g id="a_node22"><a xlink:href="../../d7/d8f/partimator_8hpp.html" target="_top" xlink:title=" ">
<polygon fill="none" stroke="black" points="799,-118 799,-137 888,-137 888,-118 799,-118"/>
<text text-anchor="middle" x="843.5" y="-125" font-family="Helvetica,sans-Serif" font-size="10.00">partimator.hpp</text>
</a>
</g>
</g>
<!-- Node17&#45;&gt;Node22 -->
<g id="edge29" class="edge">
<title>Node17&#45;&gt;Node22</title>
<path fill="none" stroke="midnightblue" d="M699.57,-179.48C728.51,-169.22 777.26,-151.96 809.9,-140.4"/>
<polygon fill="midnightblue" stroke="midnightblue" points="811.22,-143.65 819.47,-137.01 808.88,-137.05 811.22,-143.65"/>
</g>
<!-- Node23 -->
<g id="node23" class="node">
<title>Node23</title>
<g id="a_node23"><a xlink:title=" ">
<polygon fill="none" stroke="#bfbfbf" points="605.5,-118 605.5,-137 643.5,-137 643.5,-118 605.5,-118"/>
<text text-anchor="middle" x="624.5" y="-125" font-family="Helvetica,sans-Serif" font-size="10.00">map</text>
</a>
</g>
</g>
<!-- Node17&#45;&gt;Node23 -->
<g id="edge32" class="edge">
<title>Node17&#45;&gt;Node23</title>
<path fill="none" stroke="midnightblue" d="M668.19,-179.48C660.47,-170.46 648.09,-156.02 638.48,-144.81"/>
<polygon fill="midnightblue" stroke="midnightblue" points="640.96,-142.32 631.79,-137.01 635.64,-146.88 640.96,-142.32"/>
</g>
<!-- Node18&#45;&gt;Node11 -->
<g id="edge23" class="edge">
<title>Node18&#45;&gt;Node11</title>
<path fill="none" stroke="midnightblue" d="M738.98,-117.98C759.36,-108.03 793.28,-91.49 816.92,-79.96"/>
<polygon fill="midnightblue" stroke="midnightblue" points="818.6,-83.04 826.05,-75.51 815.53,-76.75 818.6,-83.04"/>
</g>
<!-- Node18&#45;&gt;Node19 -->
<g id="edge22" class="edge">
<title>Node18&#45;&gt;Node19</title>
<path fill="none" stroke="midnightblue" d="M693.27,-117.98C658.9,-107.59 600.69,-90.01 562.42,-78.45"/>
<polygon fill="midnightblue" stroke="midnightblue" points="563.26,-75.05 552.67,-75.51 561.23,-81.75 563.26,-75.05"/>
</g>
<!-- Node20&#45;&gt;Node11 -->
<g id="edge26" class="edge">
<title>Node20&#45;&gt;Node11</title>
<path fill="none" stroke="midnightblue" d="M566.35,-117.93C576.23,-115.95 586.73,-113.87 596.5,-112 671.08,-97.7 758.54,-82.02 806.82,-73.46"/>
<polygon fill="midnightblue" stroke="midnightblue" points="807.55,-76.89 816.79,-71.7 806.33,-70 807.55,-76.89"/>
</g>
<!-- Node20&#45;&gt;Node19 -->
<g id="edge25" class="edge">
<title>Node20&#45;&gt;Node19</title>
<path fill="none" stroke="midnightblue" d="M524.5,-117.98C524.5,-109.58 524.5,-96.48 524.5,-85.66"/>
<polygon fill="midnightblue" stroke="midnightblue" points="528,-85.51 524.5,-75.51 521,-85.51 528,-85.51"/>
</g>
<!-- Node21&#45;&gt;Node11 -->
<g id="edge28" class="edge">
<title>Node21&#45;&gt;Node11</title>
<path fill="none" stroke="midnightblue" d="M928.32,-117.98C912.14,-108.25 885.47,-92.23 866.36,-80.74"/>
<polygon fill="midnightblue" stroke="midnightblue" points="868.03,-77.66 857.66,-75.51 864.43,-83.66 868.03,-77.66"/>
</g>
<!-- Node22&#45;&gt;Node11 -->
<g id="edge30" class="edge">
<title>Node22&#45;&gt;Node11</title>
<path fill="none" stroke="midnightblue" d="M843.5,-117.98C843.5,-109.58 843.5,-96.48 843.5,-85.66"/>
<polygon fill="midnightblue" stroke="midnightblue" points="847,-85.51 843.5,-75.51 840,-85.51 847,-85.51"/>
</g>
<!-- Node25 -->
<g id="node25" class="node">
<title>Node25</title>
<g id="a_node25"><a xlink:href="../../d0/d34/prefix_8hpp.html" target="_top" xlink:title=" ">
<polygon fill="none" stroke="black" points="1049,-118 1049,-137 1114,-137 1114,-118 1049,-118"/>
<text text-anchor="middle" x="1081.5" y="-125" font-family="Helvetica,sans-Serif" font-size="10.00">prefix.hpp</text>
</a>
</g>
</g>
<!-- Node24&#45;&gt;Node25 -->
<g id="edge34" class="edge">
<title>Node24&#45;&gt;Node25</title>
<path fill="none" stroke="midnightblue" d="M1081.5,-179.48C1081.5,-171.08 1081.5,-157.98 1081.5,-147.16"/>
<polygon fill="midnightblue" stroke="midnightblue" points="1085,-147.01 1081.5,-137.01 1078,-147.01 1085,-147.01"/>
</g>
<!-- Node26&#45;&gt;Node4 -->
<g id="edge38" class="edge">
<title>Node26&#45;&gt;Node4</title>
<path fill="none" stroke="midnightblue" d="M193.52,-235.44C186.04,-226.89 175.18,-213.04 169.5,-199 154.06,-160.82 150.42,-112.04 149.64,-85.77"/>
<polygon fill="midnightblue" stroke="midnightblue" points="153.13,-85.63 149.45,-75.7 146.13,-85.76 153.13,-85.63"/>
</g>
<!-- Node27 -->
<g id="node27" class="node">
<title>Node27</title>
<g id="a_node27"><a xlink:title=" ">
<polygon fill="none" stroke="#bfbfbf" points="243.5,-179.5 243.5,-198.5 287.5,-198.5 287.5,-179.5 243.5,-179.5"/>
<text text-anchor="middle" x="265.5" y="-186.5" font-family="Helvetica,sans-Serif" font-size="10.00">string</text>
</a>
</g>
</g>
<!-- Node26&#45;&gt;Node27 -->
<g id="edge36" class="edge">
<title>Node26&#45;&gt;Node27</title>
<path fill="none" stroke="midnightblue" d="M211.78,-235.32C221.34,-227.26 235.78,-215.08 247.28,-205.37"/>
<polygon fill="midnightblue" stroke="midnightblue" points="249.64,-207.96 255.03,-198.83 245.13,-202.61 249.64,-207.96"/>
</g>
<!-- Node28 -->
<g id="node28" class="node">
<title>Node28</title>
<g id="a_node28"><a xlink:title=" ">
<polygon fill="none" stroke="#bfbfbf" points="178,-179.5 178,-198.5 225,-198.5 225,-179.5 178,-179.5"/>
<text text-anchor="middle" x="201.5" y="-186.5" font-family="Helvetica,sans-Serif" font-size="10.00">vector</text>
</a>
</g>
</g>
<!-- Node26&#45;&gt;Node28 -->
<g id="edge37" class="edge">
<title>Node26&#45;&gt;Node28</title>
<path fill="none" stroke="midnightblue" d="M201.5,-235.08C201.5,-228.01 201.5,-217.86 201.5,-208.99"/>
<polygon fill="midnightblue" stroke="midnightblue" points="205,-208.75 201.5,-198.75 198,-208.75 205,-208.75"/>
</g>
</g>
</svg>
        <g id="navigator" transform="translate(0 0)" fill="#404254">
                <rect fill="#f2f5e9" fill-opacity="0.5" stroke="#606060" stroke-width=".5" x="0" y="0" width="60" height="60"/>
                <use id="zoomplus" xlink:href="#zoomPlus" x="17" y="9" onmousedown="handleZoom(evt,'in')"/>
                <use id="zoomminus" xlink:href="#zoomMin" x="42" y="9" onmousedown="handleZoom(evt,'out')"/>
                <use id="reset" xlink:href="#resetDef" x="30" y="36" onmousedown="handleReset()"/>
                <g id="arrowUp" xlink:href="#dirArrow" transform="translate(30 24)" onmousedown="handlePan(0,-1)">
                  <use xlink:href="#rim" fill="#404040">
                        <set attributeName="fill" to="#808080" begin="arrowUp.mouseover" end="arrowUp.mouseout"/>
                  </use>
                  <path fill="none" stroke="white" stroke-width="1.5" d="M0,-3.0v7 M-2.5,-0.5L0,-3.0L2.5,-0.5"/>
                </g>
                <g id="arrowRight" xlink:href="#dirArrow" transform="rotate(90) translate(36 -43)" onmousedown="handlePan(1,0)">
                  <use xlink:href="#rim" fill="#404040">
                        <set attributeName="fill" to="#808080" begin="arrowRight.mouseover" end="arrowRight.mouseout"/>
                  </use>
                  <path fill="none" stroke="white" stroke-width="1.5" d="M0,-3.0v7 M-2.5,-0.5L0,-3.0L2.5,-0.5"/>
                </g>
                <g id="arrowDown" xlink:href="#dirArrow" transform="rotate(180) translate(-30 -48)" onmousedown="handlePan(0,1)">
                  <use xlink:href="#rim" fill="#404040">
                        <set attributeName="fill" to="#808080" begin="arrowDown.mouseover" end="arrowDown.mouseout"/>
                  </use>
                  <path fill="none" stroke="white" stroke-width="1.5" d="M0,-3.0v7 M-2.5,-0.5L0,-3.0L2.5,-0.5"/>
                </g>
                <g id="arrowLeft" xlink:href="#dirArrow" transform="rotate(270) translate(-36 17)" onmousedown="handlePan(-1,0)">
                  <use xlink:href="#rim" fill="#404040">
                        <set attributeName="fill" to="#808080" begin="arrowLeft.mouseover" end="arrowLeft.mouseout"/>
                  </use>
                  <path fill="none" stroke="white" stroke-width="1.5" d="M0,-3.0v7 M-2.5,-0.5L0,-3.0L2.5,-0.5"/>
                </g>
        </g>
        <svg viewBox="0 0 15 15" width="100%" height="30px" preserveAspectRatio="xMaxYMin meet">
         <g id="arrow_out" transform="scale(0.3 0.3)">
          <a xlink:href="lz77_8cpp__incl_org.svg" target="_base">
           <rect id="button" ry="5" rx="5" y="6" x="6" height="38" width="38"
                fill="#f2f5e9" fill-opacity="0.5" stroke="#606060" stroke-width="1.0"/>
           <path id="arrow"
             d="M 11.500037,31.436501 C 11.940474,20.09759 22.043105,11.32322 32.158766,21.979434 L 37.068811,17.246167 C 37.068811,17.246167 37.088388,32 37.088388,32 L 22.160133,31.978069 C 22.160133,31.978069 26.997745,27.140456 26.997745,27.140456 C 18.528582,18.264221 13.291696,25.230495 11.500037,31.436501 z"
             style="fill:#404040;"/>
          </a>
         </g>
        </svg>
</svg>
