<?xml version="1.0" encoding="UTF-8" standalone="no"?>
<!DOCTYPE svg PUBLIC "-//W3C//DTD SVG 1.1//EN"
 "http://www.w3.org/Graphics/SVG/1.1/DTD/svg11.dtd">
<!-- Generated by graphviz version 5.0.1 (20220820.1526)
 -->
<!-- Title: uxn::patl::maxrep_iterator&lt; Container &gt; Pages: 1 -->
<!--zoomable 976 -->
<svg id="main" version="1.1" xmlns="http://www.w3.org/2000/svg" xmlns:xlink="http://www.w3.org/1999/xlink" xml:space="preserve" onload="init(evt)">
<style type="text/css"><![CDATA[
.edge:hover path { stroke: red; }
.edge:hover polygon { stroke: red; fill: red; }
]]></style>
<script type="text/javascript"><![CDATA[
var edges = document.getElementsByTagName('g');
if (edges && edges.length) {
  for (var i=0;i<edges.length;i++) {
    if (edges[i].id.substr(0,4)=='edge') {
      edges[i].setAttribute('class','edge');
    }
  }
}
]]></script>
        <defs>
                <circle id="rim" cx="0" cy="0" r="7"/>
                <circle id="rim2" cx="0" cy="0" r="3.5"/>
                <g id="zoomPlus">
                        <use xlink:href="#rim" fill="#404040">
                                <set attributeName="fill" to="#808080" begin="zoomplus.mouseover" end="zoomplus.mouseout"/>
                        </use>
                        <path d="M-4,0h8M0,-4v8" fill="none" stroke="white" stroke-width="1.5" pointer-events="none"/>
                </g>
                <g id="zoomMin">
                        <use xlink:href="#rim" fill="#404040">
                                <set attributeName="fill" to="#808080" begin="zoomminus.mouseover" end="zoomminus.mouseout"/>
                        </use>
                        <path d="M-4,0h8" fill="none" stroke="white" stroke-width="1.5" pointer-events="none"/>
                </g>
                <g id="dirArrow">
                        <path fill="none" stroke="white" stroke-width="1.5" d="M0,-3.0v7 M-2.5,-0.5L0,-3.0L2.5,-0.5"/>
                </g>
               <g id="resetDef">
                       <use xlink:href="#rim2" fill="#404040">
                               <set attributeName="fill" to="#808080" begin="reset.mouseover" end="reset.mouseout"/>
                       </use>
               </g>
        </defs>

<script type="text/javascript">
var viewWidth = 301;
var viewHeight = 976;
var sectionId = 'dynsection-1';
</script>
<script xlink:href="../../svgpan.js"/>
<svg id="graph" class="graph">
<g id="viewport">
<title>uxn::patl::maxrep_iterator&lt; Container &gt;</title>
<!-- Node1 -->
<g id="node1" class="node">
<title>Node1</title>
<g id="a_node1"><a xlink:title=" ">
<polygon fill="#bfbfbf" stroke="black" points="27.56,-0.5 27.56,-200.5 212.56,-200.5 212.56,-0.5 27.56,-0.5"/>
<text text-anchor="start" x="35.56" y="-188.5" font-family="Helvetica,sans-Serif" font-size="10.00">uxn::patl::maxrep_iterator</text>
<text text-anchor="middle" x="120.06" y="-177.5" font-family="Helvetica,sans-Serif" font-size="10.00">&lt; Container &gt;</text>
<polyline fill="none" stroke="black" points="27.56,-170.5 212.56,-170.5"/>
<text text-anchor="start" x="35.56" y="-158.5" font-family="Helvetica,sans-Serif" font-size="10.00">&#45; prefix pref_</text>
<polyline fill="none" stroke="black" points="27.56,-151.5 212.56,-151.5"/>
<text text-anchor="start" x="35.56" y="-139.5" font-family="Helvetica,sans-Serif" font-size="10.00">+ maxrep_iterator(const</text>
<text text-anchor="start" x="35.56" y="-128.5" font-family="Helvetica,sans-Serif" font-size="10.00"> Container *cont)</text>
<text text-anchor="start" x="35.56" y="-117.5" font-family="Helvetica,sans-Serif" font-size="10.00">+ const prefix &amp; operator*</text>
<text text-anchor="start" x="35.56" y="-106.5" font-family="Helvetica,sans-Serif" font-size="10.00">() const</text>
<text text-anchor="start" x="35.56" y="-95.5" font-family="Helvetica,sans-Serif" font-size="10.00">+ const prefix * operator</text>
<text text-anchor="start" x="35.56" y="-84.5" font-family="Helvetica,sans-Serif" font-size="10.00">&#45;&gt;() const</text>
<text text-anchor="start" x="35.56" y="-73.5" font-family="Helvetica,sans-Serif" font-size="10.00">+ word_t freq() const</text>
<text text-anchor="start" x="35.56" y="-62.5" font-family="Helvetica,sans-Serif" font-size="10.00">+ maxrep_iterator &amp; operator++()</text>
<text text-anchor="start" x="35.56" y="-51.5" font-family="Helvetica,sans-Serif" font-size="10.00">+ maxrep_iterator operator</text>
<text text-anchor="start" x="35.56" y="-40.5" font-family="Helvetica,sans-Serif" font-size="10.00">++(int)</text>
<text text-anchor="start" x="35.56" y="-29.5" font-family="Helvetica,sans-Serif" font-size="10.00">&#45; bool left_diff() const</text>
<text text-anchor="start" x="35.56" y="-18.5" font-family="Helvetica,sans-Serif" font-size="10.00">&#45; void bit31_update()</text>
<text text-anchor="start" x="35.56" y="-7.5" font-family="Helvetica,sans-Serif" font-size="10.00">&#45; void merge()</text>
</a>
</g>
</g>
<!-- Node2 -->
<g id="node2" class="node">
<title>Node2</title>
<g id="a_node2"><a xlink:title=" ">
<polygon fill="none" stroke="black" points="6.56,-678.5 6.56,-757.5 131.56,-757.5 131.56,-678.5 6.56,-678.5"/>
<text text-anchor="start" x="14.56" y="-745.5" font-family="Helvetica,sans-Serif" font-size="10.00">std::iterator&lt; std</text>
<text text-anchor="start" x="14.56" y="-734.5" font-family="Helvetica,sans-Serif" font-size="10.00">::forward_iterator_tag,</text>
<text text-anchor="middle" x="69.06" y="-723.5" font-family="Helvetica,sans-Serif" font-size="10.00"> Container::prefix &gt;</text>
<polyline fill="none" stroke="black" points="6.56,-716.5 131.56,-716.5"/>
<text text-anchor="middle" x="69.06" y="-704.5" font-family="Helvetica,sans-Serif" font-size="10.00"> </text>
<polyline fill="none" stroke="black" points="6.56,-697.5 131.56,-697.5"/>
<text text-anchor="middle" x="69.06" y="-685.5" font-family="Helvetica,sans-Serif" font-size="10.00"> </text>
</a>
</g>
</g>
<!-- Node2&#45;&gt;Node1 -->
<g id="edge1" class="edge">
<title>Node2&#45;&gt;Node1</title>
<path fill="none" stroke="midnightblue" d="M41.48,-668.75C35.94,-656.78 30.94,-643.73 28.06,-631 -9.5,-464.94 -11.36,-411.52 36.06,-248 40.67,-232.09 47.34,-216.07 54.94,-200.76"/>
<polygon fill="none" stroke="midnightblue" points="38.49,-670.62 46.01,-678.09 44.79,-667.56 38.49,-670.62"/>
</g>
<!-- Node4 -->
<g id="node4" class="node">
<title>Node4</title>
<g id="a_node4"><a xlink:href="../../d6/d48/classuxn_1_1patl_1_1maxrep__iterator.html" target="_top" xlink:title=" ">
<polygon fill="none" stroke="black" points="36.56,-430.5 36.56,-630.5 221.56,-630.5 221.56,-430.5 36.56,-430.5"/>
<text text-anchor="start" x="44.56" y="-618.5" font-family="Helvetica,sans-Serif" font-size="10.00">uxn::patl::maxrep_iterator</text>
<text text-anchor="middle" x="129.06" y="-607.5" font-family="Helvetica,sans-Serif" font-size="10.00">&lt; Container &gt;</text>
<polyline fill="none" stroke="black" points="36.56,-600.5 221.56,-600.5"/>
<text text-anchor="start" x="44.56" y="-588.5" font-family="Helvetica,sans-Serif" font-size="10.00">&#45; prefix pref_</text>
<polyline fill="none" stroke="black" points="36.56,-581.5 221.56,-581.5"/>
<text text-anchor="start" x="44.56" y="-569.5" font-family="Helvetica,sans-Serif" font-size="10.00">+ maxrep_iterator(const</text>
<text text-anchor="start" x="44.56" y="-558.5" font-family="Helvetica,sans-Serif" font-size="10.00"> Container *cont)</text>
<text text-anchor="start" x="44.56" y="-547.5" font-family="Helvetica,sans-Serif" font-size="10.00">+ const prefix &amp; operator*</text>
<text text-anchor="start" x="44.56" y="-536.5" font-family="Helvetica,sans-Serif" font-size="10.00">() const</text>
<text text-anchor="start" x="44.56" y="-525.5" font-family="Helvetica,sans-Serif" font-size="10.00">+ const prefix * operator</text>
<text text-anchor="start" x="44.56" y="-514.5" font-family="Helvetica,sans-Serif" font-size="10.00">&#45;&gt;() const</text>
<text text-anchor="start" x="44.56" y="-503.5" font-family="Helvetica,sans-Serif" font-size="10.00">+ word_t freq() const</text>
<text text-anchor="start" x="44.56" y="-492.5" font-family="Helvetica,sans-Serif" font-size="10.00">+ maxrep_iterator &amp; operator++()</text>
<text text-anchor="start" x="44.56" y="-481.5" font-family="Helvetica,sans-Serif" font-size="10.00">+ maxrep_iterator operator</text>
<text text-anchor="start" x="44.56" y="-470.5" font-family="Helvetica,sans-Serif" font-size="10.00">++(int)</text>
<text text-anchor="start" x="44.56" y="-459.5" font-family="Helvetica,sans-Serif" font-size="10.00">&#45; bool left_diff() const</text>
<text text-anchor="start" x="44.56" y="-448.5" font-family="Helvetica,sans-Serif" font-size="10.00">&#45; void bit31_update()</text>
<text text-anchor="start" x="44.56" y="-437.5" font-family="Helvetica,sans-Serif" font-size="10.00">&#45; void merge()</text>
</a>
</g>
</g>
<!-- Node2&#45;&gt;Node4 -->
<g id="edge4" class="edge">
<title>Node2&#45;&gt;Node4</title>
<path fill="none" stroke="midnightblue" d="M84.72,-668.57C88.52,-656.84 92.71,-643.87 96.97,-630.73"/>
<polygon fill="none" stroke="midnightblue" points="81.39,-667.52 81.64,-678.11 88.05,-669.68 81.39,-667.52"/>
</g>
<!-- Node3 -->
<g id="node3" class="node">
<title>Node3</title>
<g id="a_node3"><a xlink:href="../../d0/da8/structuxn_1_1patl_1_1maxrep__iterator_1_1functor.html" target="_top" xlink:title=" ">
<polygon fill="none" stroke="black" points="45.06,-248.5 45.06,-382.5 195.06,-382.5 195.06,-248.5 45.06,-248.5"/>
<text text-anchor="start" x="53.06" y="-370.5" font-family="Helvetica,sans-Serif" font-size="10.00">uxn::patl::maxrep_iterator</text>
<text text-anchor="middle" x="120.06" y="-359.5" font-family="Helvetica,sans-Serif" font-size="10.00">&lt; Container &gt;::functor</text>
<polyline fill="none" stroke="black" points="45.06,-352.5 195.06,-352.5"/>
<text text-anchor="middle" x="120.06" y="-340.5" font-family="Helvetica,sans-Serif" font-size="10.00"> </text>
<polyline fill="none" stroke="black" points="45.06,-333.5 195.06,-333.5"/>
<text text-anchor="start" x="53.06" y="-321.5" font-family="Helvetica,sans-Serif" font-size="10.00">+ void init(maxrep_iterator</text>
<text text-anchor="start" x="53.06" y="-310.5" font-family="Helvetica,sans-Serif" font-size="10.00"> *mrit)</text>
<text text-anchor="start" x="53.06" y="-299.5" font-family="Helvetica,sans-Serif" font-size="10.00">+ void push()</text>
<text text-anchor="start" x="53.06" y="-288.5" font-family="Helvetica,sans-Serif" font-size="10.00">+ void incr()</text>
<text text-anchor="start" x="53.06" y="-277.5" font-family="Helvetica,sans-Serif" font-size="10.00">+ void update()</text>
<text text-anchor="start" x="53.06" y="-266.5" font-family="Helvetica,sans-Serif" font-size="10.00">+ void merge()</text>
<text text-anchor="start" x="53.06" y="-255.5" font-family="Helvetica,sans-Serif" font-size="10.00">+ bool cond() const</text>
</a>
</g>
</g>
<!-- Node3&#45;&gt;Node1 -->
<g id="edge2" class="edge">
<title>Node3&#45;&gt;Node1</title>
<path fill="none" stroke="#404040" d="M120.06,-248.27C120.06,-236.92 120.06,-224.84 120.06,-212.69"/>
<polygon fill="none" stroke="#404040" points="120.06,-212.53 116.06,-206.53 120.06,-200.53 124.06,-206.53 120.06,-212.53"/>
<text text-anchor="middle" x="137.06" y="-222" font-family="Helvetica,sans-Serif" font-size="10.00"> &#45;func_</text>
</g>
<!-- Node3&#45;&gt;Node4 -->
<g id="edge5" class="edge">
<title>Node3&#45;&gt;Node4</title>
<path fill="none" stroke="#404040" d="M128.66,-382.86C129.23,-388.98 129.71,-395.1 130.06,-401 130.39,-406.62 130.65,-412.38 130.84,-418.2"/>
<polygon fill="none" stroke="#404040" points="130.84,-418.2 135,-424.1 131.15,-430.2 127,-424.3 130.84,-418.2"/>
<text text-anchor="middle" x="147.06" y="-404" font-family="Helvetica,sans-Serif" font-size="10.00"> &#45;func_</text>
</g>
<!-- Node4&#45;&gt;Node3 -->
<g id="edge3" class="edge">
<title>Node4&#45;&gt;Node3</title>
<path fill="none" stroke="#404040" d="M96.68,-430.31C95.78,-420.46 95.78,-410.57 97.06,-401 97.35,-398.83 97.68,-396.64 98.04,-394.44"/>
<polygon fill="none" stroke="#404040" points="98.06,-394.37 95.24,-387.73 100.29,-382.58 103.1,-389.22 98.06,-394.37"/>
<text text-anchor="middle" x="113.56" y="-404" font-family="Helvetica,sans-Serif" font-size="10.00"> &#45;mrit_</text>
</g>
<!-- Node5 -->
<g id="node5" class="node">
<title>Node5</title>
<g id="a_node5"><a xlink:title=" ">
<polygon fill="none" stroke="black" points="169.06,-689.5 169.06,-746.5 293.06,-746.5 293.06,-689.5 169.06,-689.5"/>
<text text-anchor="middle" x="231.06" y="-734.5" font-family="Helvetica,sans-Serif" font-size="10.00">std::vector&lt; word_t &gt;</text>
<polyline fill="none" stroke="black" points="169.06,-727.5 293.06,-727.5"/>
<text text-anchor="start" x="177.06" y="-715.5" font-family="Helvetica,sans-Serif" font-size="10.00">+ word_t elements</text>
<polyline fill="none" stroke="black" points="169.06,-708.5 293.06,-708.5"/>
<text text-anchor="middle" x="231.06" y="-696.5" font-family="Helvetica,sans-Serif" font-size="10.00"> </text>
</a>
</g>
</g>
<!-- Node5&#45;&gt;Node1 -->
<g id="edge9" class="edge">
<title>Node5&#45;&gt;Node1</title>
<path fill="none" stroke="#404040" d="M234.58,-689.29C242.94,-615.2 259.33,-407.31 204.06,-248 199.87,-235.91 194.66,-223.69 188.91,-211.73"/>
<polygon fill="none" stroke="#404040" points="188.83,-211.57 182.58,-207.98 183.49,-200.82 189.75,-204.42 188.83,-211.57"/>
<text text-anchor="middle" x="255.56" y="-404" font-family="Helvetica,sans-Serif" font-size="10.00"> &#45;sfreq_</text>
</g>
<!-- Node5&#45;&gt;Node4 -->
<g id="edge6" class="edge">
<title>Node5&#45;&gt;Node4</title>
<path fill="none" stroke="#404040" d="M214.77,-689.27C209.39,-680 203.41,-669.59 198.06,-660 194.66,-653.91 191.2,-647.64 187.72,-641.3"/>
<polygon fill="none" stroke="#404040" points="187.62,-641.12 181.23,-637.78 181.86,-630.59 188.25,-633.94 187.62,-641.12"/>
<text text-anchor="middle" x="216.56" y="-652" font-family="Helvetica,sans-Serif" font-size="10.00"> &#45;sfreq_</text>
</g>
<!-- Node6 -->
<g id="node6" class="node">
<title>Node6</title>
<g id="a_node6"><a xlink:title=" ">
<polygon fill="none" stroke="black" points="182.56,-805.5 182.56,-862.5 279.56,-862.5 279.56,-805.5 182.56,-805.5"/>
<text text-anchor="middle" x="231.06" y="-850.5" font-family="Helvetica,sans-Serif" font-size="10.00">std::vector&lt; T &gt;</text>
<polyline fill="none" stroke="black" points="182.56,-843.5 279.56,-843.5"/>
<text text-anchor="middle" x="231.06" y="-831.5" font-family="Helvetica,sans-Serif" font-size="10.00"> </text>
<polyline fill="none" stroke="black" points="182.56,-824.5 279.56,-824.5"/>
<text text-anchor="middle" x="231.06" y="-812.5" font-family="Helvetica,sans-Serif" font-size="10.00"> </text>
</a>
</g>
</g>
<!-- Node6&#45;&gt;Node5 -->
<g id="edge7" class="edge">
<title>Node6&#45;&gt;Node5</title>
<path fill="none" stroke="orange" d="M231.06,-795.36C231.06,-779.5 231.06,-761.35 231.06,-746.74"/>
<polygon fill="orange" stroke="orange" points="227.56,-795.4 231.06,-805.4 234.56,-795.4 227.56,-795.4"/>
<text text-anchor="middle" x="260.56" y="-779" font-family="Helvetica,sans-Serif" font-size="10.00"> &lt; word_t &gt;</text>
</g>
<!-- Node7 -->
<g id="node7" class="node">
<title>Node7</title>
<g id="a_node7"><a xlink:title=" ">
<polygon fill="none" stroke="black" points="216.56,-910.5 216.56,-967.5 245.56,-967.5 245.56,-910.5 216.56,-910.5"/>
<text text-anchor="middle" x="231.06" y="-955.5" font-family="Helvetica,sans-Serif" font-size="10.00">T</text>
<polyline fill="none" stroke="black" points="216.56,-948.5 245.56,-948.5"/>
<text text-anchor="middle" x="231.06" y="-936.5" font-family="Helvetica,sans-Serif" font-size="10.00"> </text>
<polyline fill="none" stroke="black" points="216.56,-929.5 245.56,-929.5"/>
<text text-anchor="middle" x="231.06" y="-917.5" font-family="Helvetica,sans-Serif" font-size="10.00"> </text>
</a>
</g>
</g>
<!-- Node7&#45;&gt;Node6 -->
<g id="edge8" class="edge">
<title>Node7&#45;&gt;Node6</title>
<path fill="none" stroke="#404040" d="M231.06,-910.4C231.06,-899.55 231.06,-886.87 231.06,-875.05"/>
<polygon fill="none" stroke="#404040" points="231.06,-874.68 227.06,-868.68 231.06,-862.68 235.06,-868.68 231.06,-874.68"/>
<text text-anchor="middle" x="260.06" y="-884" font-family="Helvetica,sans-Serif" font-size="10.00"> +elements</text>
</g>
</g>
</svg>
        <g id="navigator" transform="translate(0 0)" fill="#404254">
                <rect fill="#f2f5e9" fill-opacity="0.5" stroke="#606060" stroke-width=".5" x="0" y="0" width="60" height="60"/>
                <use id="zoomplus" xlink:href="#zoomPlus" x="17" y="9" onmousedown="handleZoom(evt,'in')"/>
                <use id="zoomminus" xlink:href="#zoomMin" x="42" y="9" onmousedown="handleZoom(evt,'out')"/>
                <use id="reset" xlink:href="#resetDef" x="30" y="36" onmousedown="handleReset()"/>
                <g id="arrowUp" xlink:href="#dirArrow" transform="translate(30 24)" onmousedown="handlePan(0,-1)">
                  <use xlink:href="#rim" fill="#404040">
                        <set attributeName="fill" to="#808080" begin="arrowUp.mouseover" end="arrowUp.mouseout"/>
                  </use>
                  <path fill="none" stroke="white" stroke-width="1.5" d="M0,-3.0v7 M-2.5,-0.5L0,-3.0L2.5,-0.5"/>
                </g>
                <g id="arrowRight" xlink:href="#dirArrow" transform="rotate(90) translate(36 -43)" onmousedown="handlePan(1,0)">
                  <use xlink:href="#rim" fill="#404040">
                        <set attributeName="fill" to="#808080" begin="arrowRight.mouseover" end="arrowRight.mouseout"/>
                  </use>
                  <path fill="none" stroke="white" stroke-width="1.5" d="M0,-3.0v7 M-2.5,-0.5L0,-3.0L2.5,-0.5"/>
                </g>
                <g id="arrowDown" xlink:href="#dirArrow" transform="rotate(180) translate(-30 -48)" onmousedown="handlePan(0,1)">
                  <use xlink:href="#rim" fill="#404040">
                        <set attributeName="fill" to="#808080" begin="arrowDown.mouseover" end="arrowDown.mouseout"/>
                  </use>
                  <path fill="none" stroke="white" stroke-width="1.5" d="M0,-3.0v7 M-2.5,-0.5L0,-3.0L2.5,-0.5"/>
                </g>
                <g id="arrowLeft" xlink:href="#dirArrow" transform="rotate(270) translate(-36 17)" onmousedown="handlePan(-1,0)">
                  <use xlink:href="#rim" fill="#404040">
                        <set attributeName="fill" to="#808080" begin="arrowLeft.mouseover" end="arrowLeft.mouseout"/>
                  </use>
                  <path fill="none" stroke="white" stroke-width="1.5" d="M0,-3.0v7 M-2.5,-0.5L0,-3.0L2.5,-0.5"/>
                </g>
        </g>
        <svg viewBox="0 0 15 15" width="100%" height="30px" preserveAspectRatio="xMaxYMin meet">
         <g id="arrow_out" transform="scale(0.3 0.3)">
          <a xlink:href="classuxn_1_1patl_1_1maxrep__iterator__coll__graph_org.svg" target="_base">
           <rect id="button" ry="5" rx="5" y="6" x="6" height="38" width="38"
                fill="#f2f5e9" fill-opacity="0.5" stroke="#606060" stroke-width="1.0"/>
           <path id="arrow"
             d="M 11.500037,31.436501 C 11.940474,20.09759 22.043105,11.32322 32.158766,21.979434 L 37.068811,17.246167 C 37.068811,17.246167 37.088388,32 37.088388,32 L 22.160133,31.978069 C 22.160133,31.978069 26.997745,27.140456 26.997745,27.140456 C 18.528582,18.264221 13.291696,25.230495 11.500037,31.436501 z"
             style="fill:#404040;"/>
          </a>
         </g>
        </svg>
</svg>
