<?xml version="1.0" encoding="UTF-8" standalone="no"?>
<!DOCTYPE svg PUBLIC "-//W3C//DTD SVG 1.1//EN"
 "http://www.w3.org/Graphics/SVG/1.1/DTD/svg11.dtd">
<!-- Generated by graphviz version 5.0.1 (20220820.1526)
 -->
<!-- Title: uxn::patl::aux::buffered_input::fill_buffer Pages: 1 -->
<svg width="470pt" height="235pt"
 viewBox="0.00 0.00 470.00 235.00" xmlns="http://www.w3.org/2000/svg" xmlns:xlink="http://www.w3.org/1999/xlink">
<g id="graph0" class="graph" transform="scale(1 1) rotate(0) translate(4 231)">
<title>uxn::patl::aux::buffered_input::fill_buffer</title>
<!-- Node1 -->
<g id="node1" class="node">
<title>Node1</title>
<g id="a_node1"><a xlink:title=" ">
<polygon fill="#bfbfbf" stroke="black" points="332,-98.5 332,-128.5 462,-128.5 462,-98.5 332,-98.5"/>
<text text-anchor="start" x="340" y="-116.5" font-family="Helvetica,sans-Serif" font-size="10.00">uxn::patl::aux::buffered</text>
<text text-anchor="middle" x="397" y="-105.5" font-family="Helvetica,sans-Serif" font-size="10.00">_input::fill_buffer</text>
</a>
</g>
</g>
<!-- Node1&#45;&gt;Node1 -->
<g id="edge3" class="edge">
<title>Node1&#45;&gt;Node1</title>
<path fill="none" stroke="midnightblue" d="M426.5,-138.96C422.84,-143.68 413,-147 397,-147 370.74,-147 361.1,-138.06 368.07,-128.66"/>
<polygon fill="midnightblue" stroke="midnightblue" points="429.97,-138.45 425.93,-128.66 422.98,-138.84 429.97,-138.45"/>
</g>
<!-- Node2 -->
<g id="node2" class="node">
<title>Node2</title>
<g id="a_node2"><a xlink:href="../../d9/dbc/classuxn_1_1patl_1_1aux_1_1buffered__input.html#a48c8c116fa120f8441585133ddb094cf" target="_top" xlink:title=" ">
<polygon fill="none" stroke="black" points="166,-196.5 166,-226.5 296,-226.5 296,-196.5 166,-196.5"/>
<text text-anchor="start" x="174" y="-214.5" font-family="Helvetica,sans-Serif" font-size="10.00">uxn::patl::aux::buffered</text>
<text text-anchor="middle" x="231" y="-203.5" font-family="Helvetica,sans-Serif" font-size="10.00">_input::buffered_input</text>
</a>
</g>
</g>
<!-- Node1&#45;&gt;Node2 -->
<g id="edge1" class="edge">
<title>Node1&#45;&gt;Node2</title>
<path fill="none" stroke="midnightblue" d="M370.81,-135.24C351.35,-151.24 323.23,-172.7 296,-187.5 290.06,-190.73 283.59,-193.71 277.12,-196.4"/>
<polygon fill="midnightblue" stroke="midnightblue" points="373.16,-137.84 378.59,-128.75 368.67,-132.46 373.16,-137.84"/>
</g>
<!-- Node3 -->
<g id="node3" class="node">
<title>Node3</title>
<g id="a_node3"><a xlink:href="../../d9/dbc/classuxn_1_1patl_1_1aux_1_1buffered__input.html#afb030f856e76cdfa6a1c6851a1ddd8d1" target="_top" xlink:title=" ">
<polygon fill="none" stroke="black" points="166,-147.5 166,-177.5 296,-177.5 296,-147.5 166,-147.5"/>
<text text-anchor="start" x="174" y="-165.5" font-family="Helvetica,sans-Serif" font-size="10.00">uxn::patl::aux::buffered</text>
<text text-anchor="middle" x="231" y="-154.5" font-family="Helvetica,sans-Serif" font-size="10.00">_input::drop_back</text>
</a>
</g>
</g>
<!-- Node1&#45;&gt;Node3 -->
<g id="edge2" class="edge">
<title>Node1&#45;&gt;Node3</title>
<path fill="none" stroke="midnightblue" d="M335.87,-131.47C318.29,-136.72 299.28,-142.4 282.38,-147.45"/>
<polygon fill="midnightblue" stroke="midnightblue" points="336.88,-134.82 345.46,-128.6 334.87,-128.11 336.88,-134.82"/>
</g>
<!-- Node4 -->
<g id="node4" class="node">
<title>Node4</title>
<g id="a_node4"><a xlink:href="../../d9/dbc/classuxn_1_1patl_1_1aux_1_1buffered__input.html#a026098ab1a7b17fa8c5439fcd6016841" target="_top" xlink:title=" ">
<polygon fill="none" stroke="black" points="166,-98.5 166,-128.5 296,-128.5 296,-98.5 166,-98.5"/>
<text text-anchor="start" x="174" y="-116.5" font-family="Helvetica,sans-Serif" font-size="10.00">uxn::patl::aux::buffered</text>
<text text-anchor="middle" x="231" y="-105.5" font-family="Helvetica,sans-Serif" font-size="10.00">_input::read_byte</text>
</a>
</g>
</g>
<!-- Node1&#45;&gt;Node4 -->
<g id="edge4" class="edge">
<title>Node1&#45;&gt;Node4</title>
<path fill="none" stroke="midnightblue" d="M321.44,-113.5C313,-113.5 304.45,-113.5 296.16,-113.5"/>
<polygon fill="midnightblue" stroke="midnightblue" points="321.65,-117 331.65,-113.5 321.65,-110 321.65,-117"/>
</g>
<!-- Node6 -->
<g id="node6" class="node">
<title>Node6</title>
<g id="a_node6"><a xlink:href="../../d9/dbc/classuxn_1_1patl_1_1aux_1_1buffered__input.html#a3b87f113ef5f1065be13a00211faed4b" target="_top" xlink:title=" ">
<polygon fill="none" stroke="black" points="166,-49.5 166,-79.5 296,-79.5 296,-49.5 166,-49.5"/>
<text text-anchor="start" x="174" y="-67.5" font-family="Helvetica,sans-Serif" font-size="10.00">uxn::patl::aux::buffered</text>
<text text-anchor="middle" x="231" y="-56.5" font-family="Helvetica,sans-Serif" font-size="10.00">_input::read_bytes</text>
</a>
</g>
</g>
<!-- Node1&#45;&gt;Node6 -->
<g id="edge6" class="edge">
<title>Node1&#45;&gt;Node6</title>
<path fill="none" stroke="midnightblue" d="M335.87,-95.53C318.29,-90.28 299.28,-84.6 282.38,-79.55"/>
<polygon fill="midnightblue" stroke="midnightblue" points="334.87,-98.89 345.46,-98.4 336.88,-92.18 334.87,-98.89"/>
</g>
<!-- Node7 -->
<g id="node7" class="node">
<title>Node7</title>
<g id="a_node7"><a xlink:href="../../d9/dbc/classuxn_1_1patl_1_1aux_1_1buffered__input.html#ab93a5ebf8888833bc4fda59ebbcf9e66" target="_top" xlink:title=" ">
<polygon fill="none" stroke="black" points="166,-0.5 166,-30.5 296,-30.5 296,-0.5 166,-0.5"/>
<text text-anchor="start" x="174" y="-18.5" font-family="Helvetica,sans-Serif" font-size="10.00">uxn::patl::aux::buffered</text>
<text text-anchor="middle" x="231" y="-7.5" font-family="Helvetica,sans-Serif" font-size="10.00">_input::skip_data</text>
</a>
</g>
</g>
<!-- Node1&#45;&gt;Node7 -->
<g id="edge7" class="edge">
<title>Node1&#45;&gt;Node7</title>
<path fill="none" stroke="midnightblue" d="M370.35,-91.9C350.85,-76.21 322.88,-55.24 296,-40.5 289.41,-36.89 282.19,-33.54 275.04,-30.54"/>
<polygon fill="midnightblue" stroke="midnightblue" points="368.2,-94.66 378.16,-98.27 372.62,-89.24 368.2,-94.66"/>
</g>
<!-- Node5 -->
<g id="node5" class="node">
<title>Node5</title>
<g id="a_node5"><a xlink:href="../../d9/dbc/classuxn_1_1patl_1_1aux_1_1buffered__input.html#a28fc8b624109d3a957451618934af7b1" target="_top" xlink:title=" ">
<polygon fill="none" stroke="black" points="0,-98.5 0,-128.5 130,-128.5 130,-98.5 0,-98.5"/>
<text text-anchor="start" x="8" y="-116.5" font-family="Helvetica,sans-Serif" font-size="10.00">uxn::patl::aux::buffered</text>
<text text-anchor="middle" x="65" y="-105.5" font-family="Helvetica,sans-Serif" font-size="10.00">_input::read_word</text>
</a>
</g>
</g>
<!-- Node4&#45;&gt;Node5 -->
<g id="edge5" class="edge">
<title>Node4&#45;&gt;Node5</title>
<path fill="none" stroke="midnightblue" d="M155.44,-113.5C147,-113.5 138.45,-113.5 130.16,-113.5"/>
<polygon fill="midnightblue" stroke="midnightblue" points="155.65,-117 165.65,-113.5 155.65,-110 155.65,-117"/>
</g>
</g>
</svg>
