<?xml version="1.0" encoding="UTF-8" standalone="no"?>
<!DOCTYPE svg PUBLIC "-//W3C//DTD SVG 1.1//EN"
 "http://www.w3.org/Graphics/SVG/1.1/DTD/svg11.dtd">
<!-- Generated by graphviz version 5.0.1 (20220820.1526)
 -->
<!-- Title: uxn::patl::impl::trie_generic&lt; T, 0 &gt; Pages: 1 -->
<svg width="322pt" height="1274pt"
 viewBox="0.00 0.00 321.50 1274.00" xmlns="http://www.w3.org/2000/svg" xmlns:xlink="http://www.w3.org/1999/xlink">
<g id="graph0" class="graph" transform="scale(1 1) rotate(0) translate(4 1270)">
<title>uxn::patl::impl::trie_generic&lt; T, 0 &gt;</title>
<!-- Node1 -->
<g id="node1" class="node">
<title>Node1</title>
<g id="a_node1"><a xlink:title=" ">
<polygon fill="#bfbfbf" stroke="black" points="0,-0.5 0,-475.5 187,-475.5 187,-0.5 0,-0.5"/>
<text text-anchor="start" x="8" y="-463.5" font-family="Helvetica,sans-Serif" font-size="10.00">uxn::patl::impl::trie</text>
<text text-anchor="middle" x="93.5" y="-452.5" font-family="Helvetica,sans-Serif" font-size="10.00">_generic&lt; T, 0 &gt;</text>
<polyline fill="none" stroke="black" points="0,-445.5 187,-445.5"/>
<text text-anchor="start" x="8" y="-433.5" font-family="Helvetica,sans-Serif" font-size="10.00">+ static const word_t N_</text>
<text text-anchor="start" x="8" y="-422.5" font-family="Helvetica,sans-Serif" font-size="10.00"># allocator_type::template</text>
<text text-anchor="start" x="8" y="-411.5" font-family="Helvetica,sans-Serif" font-size="10.00"> rebind&lt; node_type &gt;::other alloc_</text>
<text text-anchor="start" x="8" y="-400.5" font-family="Helvetica,sans-Serif" font-size="10.00"># size_type size_</text>
<polyline fill="none" stroke="black" points="0,-393.5 187,-393.5"/>
<text text-anchor="start" x="8" y="-381.5" font-family="Helvetica,sans-Serif" font-size="10.00">+ trie_generic(const</text>
<text text-anchor="start" x="8" y="-370.5" font-family="Helvetica,sans-Serif" font-size="10.00"> bit_compare &amp;bit_comp,</text>
<text text-anchor="start" x="8" y="-359.5" font-family="Helvetica,sans-Serif" font-size="10.00"> const allocator_type</text>
<text text-anchor="start" x="8" y="-348.5" font-family="Helvetica,sans-Serif" font-size="10.00"> &amp;alloc)</text>
<text text-anchor="start" x="8" y="-337.5" font-family="Helvetica,sans-Serif" font-size="10.00">+ trie_generic(const</text>
<text text-anchor="start" x="8" y="-326.5" font-family="Helvetica,sans-Serif" font-size="10.00"> this_t &amp;b)</text>
<text text-anchor="start" x="8" y="-315.5" font-family="Helvetica,sans-Serif" font-size="10.00">+ trie_generic(const</text>
<text text-anchor="start" x="8" y="-304.5" font-family="Helvetica,sans-Serif" font-size="10.00"> value_type *first,</text>
<text text-anchor="start" x="8" y="-293.5" font-family="Helvetica,sans-Serif" font-size="10.00"> const value_type *last,</text>
<text text-anchor="start" x="8" y="-282.5" font-family="Helvetica,sans-Serif" font-size="10.00"> const bit_compare &amp;bit</text>
<text text-anchor="start" x="8" y="-271.5" font-family="Helvetica,sans-Serif" font-size="10.00">_comp, const allocator_type</text>
<text text-anchor="start" x="8" y="-260.5" font-family="Helvetica,sans-Serif" font-size="10.00"> &amp;alloc)</text>
<text text-anchor="start" x="8" y="-249.5" font-family="Helvetica,sans-Serif" font-size="10.00">+ ~trie_generic()</text>
<text text-anchor="start" x="8" y="-238.5" font-family="Helvetica,sans-Serif" font-size="10.00">+ this_t &amp; operator=</text>
<text text-anchor="start" x="8" y="-227.5" font-family="Helvetica,sans-Serif" font-size="10.00">(const this_t &amp;b)</text>
<text text-anchor="start" x="8" y="-216.5" font-family="Helvetica,sans-Serif" font-size="10.00">+ void swap(this_t &amp;b)</text>
<text text-anchor="start" x="8" y="-205.5" font-family="Helvetica,sans-Serif" font-size="10.00">+ void clear()</text>
<text text-anchor="start" x="8" y="-194.5" font-family="Helvetica,sans-Serif" font-size="10.00">+ size_type size() const</text>
<text text-anchor="start" x="8" y="-183.5" font-family="Helvetica,sans-Serif" font-size="10.00">+ size_type max_size</text>
<text text-anchor="start" x="8" y="-172.5" font-family="Helvetica,sans-Serif" font-size="10.00">() const</text>
<text text-anchor="start" x="8" y="-161.5" font-family="Helvetica,sans-Serif" font-size="10.00">+ allocator_type get</text>
<text text-anchor="start" x="8" y="-150.5" font-family="Helvetica,sans-Serif" font-size="10.00">_allocator() const</text>
<text text-anchor="start" x="8" y="-139.5" font-family="Helvetica,sans-Serif" font-size="10.00">and 11 more...</text>
<text text-anchor="start" x="8" y="-128.5" font-family="Helvetica,sans-Serif" font-size="10.00"># algorithm add_root</text>
<text text-anchor="start" x="8" y="-117.5" font-family="Helvetica,sans-Serif" font-size="10.00">(const value_type &amp;val)</text>
<text text-anchor="start" x="8" y="-106.5" font-family="Helvetica,sans-Serif" font-size="10.00"># algorithm add(const</text>
<text text-anchor="start" x="8" y="-95.5" font-family="Helvetica,sans-Serif" font-size="10.00"> value_type &amp;val, algorithm</text>
<text text-anchor="start" x="8" y="-84.5" font-family="Helvetica,sans-Serif" font-size="10.00"> &amp;pal, word_t prefixLen)</text>
<text text-anchor="start" x="8" y="-73.5" font-family="Helvetica,sans-Serif" font-size="10.00">&#45; void del_tree(node</text>
<text text-anchor="start" x="8" y="-62.5" font-family="Helvetica,sans-Serif" font-size="10.00">_type *node)</text>
<text text-anchor="start" x="8" y="-51.5" font-family="Helvetica,sans-Serif" font-size="10.00">&#45; void del_node(node</text>
<text text-anchor="start" x="8" y="-40.5" font-family="Helvetica,sans-Serif" font-size="10.00">_type *node)</text>
<text text-anchor="start" x="8" y="-29.5" font-family="Helvetica,sans-Serif" font-size="10.00">&#45; void erase_subtree</text>
<text text-anchor="start" x="8" y="-18.5" font-family="Helvetica,sans-Serif" font-size="10.00">(algorithm pal)</text>
<text text-anchor="start" x="8" y="-7.5" font-family="Helvetica,sans-Serif" font-size="10.00">&#45; void erase_node(algorithm pal)</text>
</a>
</g>
</g>
<!-- Node2 -->
<g id="node2" class="node">
<title>Node2</title>
<g id="a_node2"><a xlink:href="../../d2/da4/classuxn_1_1patl_1_1impl_1_1assoc__generic.html" target="_top" xlink:title=" ">
<polygon fill="none" stroke="black" points="8,-513.5 8,-691.5 179,-691.5 179,-513.5 8,-513.5"/>
<text text-anchor="start" x="16" y="-679.5" font-family="Helvetica,sans-Serif" font-size="10.00">uxn::patl::impl::assoc</text>
<text text-anchor="start" x="16" y="-668.5" font-family="Helvetica,sans-Serif" font-size="10.00">_generic&lt; trie_generic</text>
<text text-anchor="start" x="16" y="-657.5" font-family="Helvetica,sans-Serif" font-size="10.00">&lt; T, T::N_ &gt;, trie_generic</text>
<text text-anchor="start" x="16" y="-646.5" font-family="Helvetica,sans-Serif" font-size="10.00">_traits&lt; T, node_gen, algorithm</text>
<text text-anchor="start" x="16" y="-635.5" font-family="Helvetica,sans-Serif" font-size="10.00">_gen, core_prefix_generic, trie</text>
<text text-anchor="middle" x="93.5" y="-624.5" font-family="Helvetica,sans-Serif" font-size="10.00">_generic&lt; T, T::N_ &gt; &gt;, T::N_ &gt;</text>
<polyline fill="none" stroke="black" points="8,-617.5 179,-617.5"/>
<text text-anchor="start" x="16" y="-605.5" font-family="Helvetica,sans-Serif" font-size="10.00">+ static const word_t N_</text>
<polyline fill="none" stroke="black" points="8,-598.5 179,-598.5"/>
<text text-anchor="start" x="16" y="-586.5" font-family="Helvetica,sans-Serif" font-size="10.00">+ assoc_generic()</text>
<text text-anchor="start" x="16" y="-575.5" font-family="Helvetica,sans-Serif" font-size="10.00">+ assoc_generic(const</text>
<text text-anchor="start" x="16" y="-564.5" font-family="Helvetica,sans-Serif" font-size="10.00"> bit_compare &amp;bit_comp)</text>
<text text-anchor="start" x="16" y="-553.5" font-family="Helvetica,sans-Serif" font-size="10.00"># word_t * get_shortcut</text>
<text text-anchor="start" x="16" y="-542.5" font-family="Helvetica,sans-Serif" font-size="10.00">(word_t a) const</text>
<text text-anchor="start" x="16" y="-531.5" font-family="Helvetica,sans-Serif" font-size="10.00"># word_t * create_shortcut</text>
<text text-anchor="start" x="16" y="-520.5" font-family="Helvetica,sans-Serif" font-size="10.00">(word_t a)</text>
</a>
</g>
</g>
<!-- Node2&#45;&gt;Node1 -->
<g id="edge1" class="edge">
<title>Node2&#45;&gt;Node1</title>
<path fill="none" stroke="midnightblue" d="M93.5,-503.04C93.5,-494.17 93.5,-484.97 93.5,-475.54"/>
<polygon fill="none" stroke="midnightblue" points="90,-503.29 93.5,-513.29 97,-503.29 90,-503.29"/>
</g>
<!-- Node3 -->
<g id="node3" class="node">
<title>Node3</title>
<g id="a_node3"><a xlink:title=" ">
<polygon fill="none" stroke="black" points="26.5,-976.5 26.5,-1055.5 160.5,-1055.5 160.5,-976.5 26.5,-976.5"/>
<text text-anchor="start" x="34.5" y="-1043.5" font-family="Helvetica,sans-Serif" font-size="10.00">std::map&lt; word_t, word</text>
<text text-anchor="middle" x="93.5" y="-1032.5" font-family="Helvetica,sans-Serif" font-size="10.00">_t * &gt;</text>
<polyline fill="none" stroke="black" points="26.5,-1025.5 160.5,-1025.5"/>
<text text-anchor="start" x="34.5" y="-1013.5" font-family="Helvetica,sans-Serif" font-size="10.00">+ word_t keys</text>
<text text-anchor="start" x="34.5" y="-1002.5" font-family="Helvetica,sans-Serif" font-size="10.00">+ word_t * elements</text>
<polyline fill="none" stroke="black" points="26.5,-995.5 160.5,-995.5"/>
<text text-anchor="middle" x="93.5" y="-983.5" font-family="Helvetica,sans-Serif" font-size="10.00"> </text>
</a>
</g>
</g>
<!-- Node3&#45;&gt;Node2 -->
<g id="edge2" class="edge">
<title>Node3&#45;&gt;Node2</title>
<path fill="none" stroke="#404040" d="M89.66,-976.08C88.38,-961.35 87.13,-944.42 86.5,-929 83.43,-853.53 85.48,-768.15 88.13,-703.78"/>
<polygon fill="none" stroke="#404040" points="88.14,-703.59 84.4,-697.42 88.65,-691.6 92.39,-697.76 88.14,-703.59"/>
<text text-anchor="middle" x="115.5" y="-859" font-family="Helvetica,sans-Serif" font-size="10.00"> &#45;shortcuts_</text>
</g>
<!-- Node7 -->
<g id="node7" class="node">
<title>Node7</title>
<g id="a_node7"><a xlink:href="../../d2/da4/classuxn_1_1patl_1_1impl_1_1assoc__generic.html" target="_top" xlink:title=" ">
<polygon fill="none" stroke="black" points="153.5,-794.5 153.5,-928.5 301.5,-928.5 301.5,-794.5 153.5,-794.5"/>
<text text-anchor="start" x="161.5" y="-916.5" font-family="Helvetica,sans-Serif" font-size="10.00">uxn::patl::impl::assoc</text>
<text text-anchor="middle" x="227.5" y="-905.5" font-family="Helvetica,sans-Serif" font-size="10.00">_generic&lt; This, T, N &gt;</text>
<polyline fill="none" stroke="black" points="153.5,-898.5 301.5,-898.5"/>
<text text-anchor="start" x="161.5" y="-886.5" font-family="Helvetica,sans-Serif" font-size="10.00">+ static const word_t N_</text>
<polyline fill="none" stroke="black" points="153.5,-879.5 301.5,-879.5"/>
<text text-anchor="start" x="161.5" y="-867.5" font-family="Helvetica,sans-Serif" font-size="10.00">+ assoc_generic()</text>
<text text-anchor="start" x="161.5" y="-856.5" font-family="Helvetica,sans-Serif" font-size="10.00">+ assoc_generic(const</text>
<text text-anchor="start" x="161.5" y="-845.5" font-family="Helvetica,sans-Serif" font-size="10.00"> bit_compare &amp;bit_comp)</text>
<text text-anchor="start" x="161.5" y="-834.5" font-family="Helvetica,sans-Serif" font-size="10.00"># word_t * get_shortcut</text>
<text text-anchor="start" x="161.5" y="-823.5" font-family="Helvetica,sans-Serif" font-size="10.00">(word_t a) const</text>
<text text-anchor="start" x="161.5" y="-812.5" font-family="Helvetica,sans-Serif" font-size="10.00"># word_t * create_shortcut</text>
<text text-anchor="start" x="161.5" y="-801.5" font-family="Helvetica,sans-Serif" font-size="10.00">(word_t a)</text>
</a>
</g>
</g>
<!-- Node3&#45;&gt;Node7 -->
<g id="edge7" class="edge">
<title>Node3&#45;&gt;Node7</title>
<path fill="none" stroke="#404040" d="M127.66,-976.12C137.99,-964.36 149.71,-951.03 161.39,-937.74"/>
<polygon fill="none" stroke="#404040" points="161.53,-937.58 162.49,-930.43 169.45,-928.56 168.5,-935.71 161.53,-937.58"/>
<text text-anchor="middle" x="180.5" y="-950" font-family="Helvetica,sans-Serif" font-size="10.00"> &#45;shortcuts_</text>
</g>
<!-- Node4 -->
<g id="node4" class="node">
<title>Node4</title>
<g id="a_node4"><a xlink:title=" ">
<polygon fill="none" stroke="black" points="43,-1103.5 43,-1160.5 144,-1160.5 144,-1103.5 43,-1103.5"/>
<text text-anchor="middle" x="93.5" y="-1148.5" font-family="Helvetica,sans-Serif" font-size="10.00">std::map&lt; K, T &gt;</text>
<polyline fill="none" stroke="black" points="43,-1141.5 144,-1141.5"/>
<text text-anchor="middle" x="93.5" y="-1129.5" font-family="Helvetica,sans-Serif" font-size="10.00"> </text>
<polyline fill="none" stroke="black" points="43,-1122.5 144,-1122.5"/>
<text text-anchor="middle" x="93.5" y="-1110.5" font-family="Helvetica,sans-Serif" font-size="10.00"> </text>
</a>
</g>
</g>
<!-- Node4&#45;&gt;Node3 -->
<g id="edge3" class="edge">
<title>Node4&#45;&gt;Node3</title>
<path fill="none" stroke="orange" d="M93.5,-1093.18C93.5,-1081.08 93.5,-1067.68 93.5,-1055.54"/>
<polygon fill="orange" stroke="orange" points="90,-1093.4 93.5,-1103.4 97,-1093.4 90,-1093.4"/>
<text text-anchor="middle" x="146.5" y="-1077" font-family="Helvetica,sans-Serif" font-size="10.00"> &lt; word_t, word_t * &gt;</text>
</g>
<!-- Node5 -->
<g id="node5" class="node">
<title>Node5</title>
<g id="a_node5"><a xlink:title=" ">
<polygon fill="none" stroke="black" points="51,-1208.5 51,-1265.5 80,-1265.5 80,-1208.5 51,-1208.5"/>
<text text-anchor="middle" x="65.5" y="-1253.5" font-family="Helvetica,sans-Serif" font-size="10.00">K</text>
<polyline fill="none" stroke="black" points="51,-1246.5 80,-1246.5"/>
<text text-anchor="middle" x="65.5" y="-1234.5" font-family="Helvetica,sans-Serif" font-size="10.00"> </text>
<polyline fill="none" stroke="black" points="51,-1227.5 80,-1227.5"/>
<text text-anchor="middle" x="65.5" y="-1215.5" font-family="Helvetica,sans-Serif" font-size="10.00"> </text>
</a>
</g>
</g>
<!-- Node5&#45;&gt;Node4 -->
<g id="edge4" class="edge">
<title>Node5&#45;&gt;Node4</title>
<path fill="none" stroke="#404040" d="M63.17,-1208.33C63.11,-1198.88 63.87,-1188.34 66.5,-1179 67.19,-1176.56 68.03,-1174.12 69,-1171.7"/>
<polygon fill="none" stroke="#404040" points="69.09,-1171.52 68.04,-1164.39 74.23,-1160.68 75.27,-1167.82 69.09,-1171.52"/>
<text text-anchor="middle" x="83.5" y="-1182" font-family="Helvetica,sans-Serif" font-size="10.00"> +keys</text>
</g>
<!-- Node6 -->
<g id="node6" class="node">
<title>Node6</title>
<g id="a_node6"><a xlink:title=" ">
<polygon fill="none" stroke="black" points="108,-1208.5 108,-1265.5 137,-1265.5 137,-1208.5 108,-1208.5"/>
<text text-anchor="middle" x="122.5" y="-1253.5" font-family="Helvetica,sans-Serif" font-size="10.00">T</text>
<polyline fill="none" stroke="black" points="108,-1246.5 137,-1246.5"/>
<text text-anchor="middle" x="122.5" y="-1234.5" font-family="Helvetica,sans-Serif" font-size="10.00"> </text>
<polyline fill="none" stroke="black" points="108,-1227.5 137,-1227.5"/>
<text text-anchor="middle" x="122.5" y="-1215.5" font-family="Helvetica,sans-Serif" font-size="10.00"> </text>
</a>
</g>
</g>
<!-- Node6&#45;&gt;Node4 -->
<g id="edge5" class="edge">
<title>Node6&#45;&gt;Node4</title>
<path fill="none" stroke="#404040" d="M114.73,-1208.4C111.61,-1197.31 107.95,-1184.33 104.56,-1172.3"/>
<polygon fill="none" stroke="#404040" points="104.55,-1172.23 99.07,-1167.54 101.29,-1160.68 106.77,-1165.37 104.55,-1172.23"/>
<text text-anchor="middle" x="137.5" y="-1182" font-family="Helvetica,sans-Serif" font-size="10.00"> +elements</text>
</g>
<!-- Node7&#45;&gt;Node2 -->
<g id="edge6" class="edge">
<title>Node7&#45;&gt;Node2</title>
<path fill="none" stroke="orange" d="M188.33,-785.37C173.04,-756.05 155.4,-722.22 139.51,-691.75"/>
<polygon fill="orange" stroke="orange" points="185.26,-787.07 192.99,-794.32 191.47,-783.83 185.26,-787.07"/>
<text text-anchor="start" x="179.5" y="-768" font-family="Helvetica,sans-Serif" font-size="10.00"> &lt; trie_generic&lt; T,</text>
<text text-anchor="start" x="179.5" y="-757" font-family="Helvetica,sans-Serif" font-size="10.00"> T::N_ &gt;, trie_generic</text>
<text text-anchor="start" x="179.5" y="-746" font-family="Helvetica,sans-Serif" font-size="10.00">_traits&lt; T, node_gen,</text>
<text text-anchor="start" x="179.5" y="-735" font-family="Helvetica,sans-Serif" font-size="10.00"> algorithm_gen, core_prefix</text>
<text text-anchor="start" x="179.5" y="-724" font-family="Helvetica,sans-Serif" font-size="10.00">_generic, trie_generic&lt; T,</text>
<text text-anchor="middle" x="246.5" y="-713" font-family="Helvetica,sans-Serif" font-size="10.00"> T::N_ &gt; &gt;, T::N_ &gt;</text>
</g>
</g>
</svg>
