<?xml version="1.0" encoding="UTF-8" standalone="no"?>
<!DOCTYPE svg PUBLIC "-//W3C//DTD SVG 1.1//EN"
 "http://www.w3.org/Graphics/SVG/1.1/DTD/svg11.dtd">
<!-- Generated by graphviz version 5.0.1 (20220820.1526)
 -->
<!-- Title: uxn::patl::suffix_set::push_back Pages: 1 -->
<svg width="306pt" height="548pt"
 viewBox="0.00 0.00 306.00 548.00" xmlns="http://www.w3.org/2000/svg" xmlns:xlink="http://www.w3.org/1999/xlink">
<g id="graph0" class="graph" transform="scale(1 1) rotate(0) translate(4 544)">
<title>uxn::patl::suffix_set::push_back</title>
<!-- Node1 -->
<g id="node1" class="node">
<title>Node1</title>
<g id="a_node1"><a xlink:title=" ">
<polygon fill="#bfbfbf" stroke="black" points="0,-254.5 0,-284.5 113,-284.5 113,-254.5 0,-254.5"/>
<text text-anchor="start" x="8" y="-272.5" font-family="Helvetica,sans-Serif" font-size="10.00">uxn::patl::suffix_set</text>
<text text-anchor="middle" x="56.5" y="-261.5" font-family="Helvetica,sans-Serif" font-size="10.00">::push_back</text>
</a>
</g>
</g>
<!-- Node2 -->
<g id="node2" class="node">
<title>Node2</title>
<g id="a_node2"><a xlink:href="../../db/db7/classuxn_1_1patl_1_1impl_1_1suffix__generic.html#a5f1a79ec8899f0e12680cb343470cc11" target="_top" xlink:title=" ">
<polygon fill="none" stroke="black" points="153.5,-465.5 153.5,-539.5 293.5,-539.5 293.5,-465.5 153.5,-465.5"/>
<text text-anchor="start" x="161.5" y="-527.5" font-family="Helvetica,sans-Serif" font-size="10.00">uxn::patl::impl::suffix</text>
<text text-anchor="start" x="161.5" y="-516.5" font-family="Helvetica,sans-Serif" font-size="10.00">_generic&lt; impl::suffix</text>
<text text-anchor="start" x="161.5" y="-505.5" font-family="Helvetica,sans-Serif" font-size="10.00">_set_traits&lt; Type, 0, 1,</text>
<text text-anchor="start" x="161.5" y="-494.5" font-family="Helvetica,sans-Serif" font-size="10.00"> bit_comparator&lt; Type, 0</text>
<text text-anchor="start" x="161.5" y="-483.5" font-family="Helvetica,sans-Serif" font-size="10.00"> &gt;, std::allocator&lt; Type</text>
<text text-anchor="middle" x="223.5" y="-472.5" font-family="Helvetica,sans-Serif" font-size="10.00"> &gt; &gt; &gt;::capacity</text>
</a>
</g>
</g>
<!-- Node1&#45;&gt;Node2 -->
<g id="edge1" class="edge">
<title>Node1&#45;&gt;Node2</title>
<path fill="none" stroke="midnightblue" d="M61.77,-284.72C71.98,-318.87 100.62,-402.79 149,-456.5 149.62,-457.19 150.25,-457.86 150.89,-458.54"/>
<polygon fill="midnightblue" stroke="midnightblue" points="148.51,-461.1 158.16,-465.48 153.35,-456.04 148.51,-461.1"/>
</g>
<!-- Node3 -->
<g id="node3" class="node">
<title>Node3</title>
<g id="a_node3"><a xlink:href="../../db/db7/classuxn_1_1patl_1_1impl_1_1suffix__generic.html#a19845a4d480875e2b697c49d19bfa1ce" target="_top" xlink:title="return true if suffix_cont is empty OR full">
<polygon fill="none" stroke="black" points="153.5,-372.5 153.5,-446.5 293.5,-446.5 293.5,-372.5 153.5,-372.5"/>
<text text-anchor="start" x="161.5" y="-434.5" font-family="Helvetica,sans-Serif" font-size="10.00">uxn::patl::impl::suffix</text>
<text text-anchor="start" x="161.5" y="-423.5" font-family="Helvetica,sans-Serif" font-size="10.00">_generic&lt; impl::suffix</text>
<text text-anchor="start" x="161.5" y="-412.5" font-family="Helvetica,sans-Serif" font-size="10.00">_set_traits&lt; Type, 0, 1,</text>
<text text-anchor="start" x="161.5" y="-401.5" font-family="Helvetica,sans-Serif" font-size="10.00"> bit_comparator&lt; Type, 0</text>
<text text-anchor="start" x="161.5" y="-390.5" font-family="Helvetica,sans-Serif" font-size="10.00"> &gt;, std::allocator&lt; Type</text>
<text text-anchor="middle" x="223.5" y="-379.5" font-family="Helvetica,sans-Serif" font-size="10.00"> &gt; &gt; &gt;::endpoint</text>
</a>
</g>
</g>
<!-- Node1&#45;&gt;Node3 -->
<g id="edge2" class="edge">
<title>Node1&#45;&gt;Node3</title>
<path fill="none" stroke="midnightblue" d="M70.16,-284.59C86.97,-304.13 118.16,-338.61 149,-363.5 150.17,-364.45 151.36,-365.39 152.57,-366.32"/>
<polygon fill="midnightblue" stroke="midnightblue" points="150.66,-369.26 160.77,-372.43 154.84,-363.65 150.66,-369.26"/>
</g>
<!-- Node4 -->
<g id="node4" class="node">
<title>Node4</title>
<g id="a_node4"><a xlink:href="../../db/db7/classuxn_1_1patl_1_1impl_1_1suffix__generic.html#a3758d1f5bf1e70bd5f67a7edb7d7971f" target="_top" xlink:title=" ">
<polygon fill="none" stroke="black" points="149,-279.5 149,-353.5 298,-353.5 298,-279.5 149,-279.5"/>
<text text-anchor="start" x="157" y="-341.5" font-family="Helvetica,sans-Serif" font-size="10.00">uxn::patl::impl::suffix</text>
<text text-anchor="start" x="157" y="-330.5" font-family="Helvetica,sans-Serif" font-size="10.00">_generic&lt; impl::suffix</text>
<text text-anchor="start" x="157" y="-319.5" font-family="Helvetica,sans-Serif" font-size="10.00">_set_traits&lt; Type, 0, 1,</text>
<text text-anchor="start" x="157" y="-308.5" font-family="Helvetica,sans-Serif" font-size="10.00"> bit_comparator&lt; Type, 0</text>
<text text-anchor="start" x="157" y="-297.5" font-family="Helvetica,sans-Serif" font-size="10.00"> &gt;, std::allocator&lt; Type</text>
<text text-anchor="middle" x="223.5" y="-286.5" font-family="Helvetica,sans-Serif" font-size="10.00"> &gt; &gt; &gt;::push_back_generic</text>
</a>
</g>
</g>
<!-- Node1&#45;&gt;Node4 -->
<g id="edge3" class="edge">
<title>Node1&#45;&gt;Node4</title>
<path fill="none" stroke="midnightblue" d="M110.16,-284.5C119.43,-287.14 129.27,-289.94 139.14,-292.75"/>
<polygon fill="midnightblue" stroke="midnightblue" points="138.41,-296.19 148.98,-295.56 140.33,-289.45 138.41,-296.19"/>
</g>
<!-- Node5 -->
<g id="node5" class="node">
<title>Node5</title>
<g id="a_node5"><a xlink:href="../../db/db7/classuxn_1_1patl_1_1impl_1_1suffix__generic.html#a52f5d589814ab7cf08b9840cb90f1377" target="_top" xlink:title=" ">
<polygon fill="none" stroke="black" points="153.5,-186.5 153.5,-260.5 293.5,-260.5 293.5,-186.5 153.5,-186.5"/>
<text text-anchor="start" x="161.5" y="-248.5" font-family="Helvetica,sans-Serif" font-size="10.00">uxn::patl::impl::suffix</text>
<text text-anchor="start" x="161.5" y="-237.5" font-family="Helvetica,sans-Serif" font-size="10.00">_generic&lt; impl::suffix</text>
<text text-anchor="start" x="161.5" y="-226.5" font-family="Helvetica,sans-Serif" font-size="10.00">_set_traits&lt; Type, 0, 1,</text>
<text text-anchor="start" x="161.5" y="-215.5" font-family="Helvetica,sans-Serif" font-size="10.00"> bit_comparator&lt; Type, 0</text>
<text text-anchor="start" x="161.5" y="-204.5" font-family="Helvetica,sans-Serif" font-size="10.00"> &gt;, std::allocator&lt; Type</text>
<text text-anchor="middle" x="223.5" y="-193.5" font-family="Helvetica,sans-Serif" font-size="10.00"> &gt; &gt; &gt;::push_back_root</text>
</a>
</g>
</g>
<!-- Node1&#45;&gt;Node5 -->
<g id="edge4" class="edge">
<title>Node1&#45;&gt;Node5</title>
<path fill="none" stroke="midnightblue" d="M111.53,-254.44C121.75,-251.59 132.63,-248.56 143.43,-245.54"/>
<polygon fill="midnightblue" stroke="midnightblue" points="144.62,-248.85 153.31,-242.79 142.74,-242.1 144.62,-248.85"/>
</g>
<!-- Node6 -->
<g id="node6" class="node">
<title>Node6</title>
<g id="a_node6"><a xlink:href="../../db/db7/classuxn_1_1patl_1_1impl_1_1suffix__generic.html#a3a8ccdc542ec789f363fbfacb3d3e344" target="_top" xlink:title=" ">
<polygon fill="none" stroke="black" points="153.5,-93.5 153.5,-167.5 293.5,-167.5 293.5,-93.5 153.5,-93.5"/>
<text text-anchor="start" x="161.5" y="-155.5" font-family="Helvetica,sans-Serif" font-size="10.00">uxn::patl::impl::suffix</text>
<text text-anchor="start" x="161.5" y="-144.5" font-family="Helvetica,sans-Serif" font-size="10.00">_generic&lt; impl::suffix</text>
<text text-anchor="start" x="161.5" y="-133.5" font-family="Helvetica,sans-Serif" font-size="10.00">_set_traits&lt; Type, 0, 1,</text>
<text text-anchor="start" x="161.5" y="-122.5" font-family="Helvetica,sans-Serif" font-size="10.00"> bit_comparator&lt; Type, 0</text>
<text text-anchor="start" x="161.5" y="-111.5" font-family="Helvetica,sans-Serif" font-size="10.00"> &gt;, std::allocator&lt; Type</text>
<text text-anchor="middle" x="223.5" y="-100.5" font-family="Helvetica,sans-Serif" font-size="10.00"> &gt; &gt; &gt;::reserve</text>
</a>
</g>
</g>
<!-- Node1&#45;&gt;Node6 -->
<g id="edge5" class="edge">
<title>Node1&#45;&gt;Node6</title>
<path fill="none" stroke="midnightblue" d="M70.55,-254.47C87.54,-235.38 118.66,-201.96 149,-177.5 150.55,-176.25 152.13,-175.01 153.74,-173.77"/>
<polygon fill="midnightblue" stroke="midnightblue" points="156.03,-176.43 161.97,-167.67 151.86,-170.81 156.03,-176.43"/>
</g>
<!-- Node7 -->
<g id="node7" class="node">
<title>Node7</title>
<g id="a_node7"><a xlink:href="../../db/db7/classuxn_1_1patl_1_1impl_1_1suffix__generic.html#aa40451084d31ec23114745757ca30371" target="_top" xlink:title=" ">
<polygon fill="none" stroke="black" points="153.5,-0.5 153.5,-74.5 293.5,-74.5 293.5,-0.5 153.5,-0.5"/>
<text text-anchor="start" x="161.5" y="-62.5" font-family="Helvetica,sans-Serif" font-size="10.00">uxn::patl::impl::suffix</text>
<text text-anchor="start" x="161.5" y="-51.5" font-family="Helvetica,sans-Serif" font-size="10.00">_generic&lt; impl::suffix</text>
<text text-anchor="start" x="161.5" y="-40.5" font-family="Helvetica,sans-Serif" font-size="10.00">_set_traits&lt; Type, 0, 1,</text>
<text text-anchor="start" x="161.5" y="-29.5" font-family="Helvetica,sans-Serif" font-size="10.00"> bit_comparator&lt; Type, 0</text>
<text text-anchor="start" x="161.5" y="-18.5" font-family="Helvetica,sans-Serif" font-size="10.00"> &gt;, std::allocator&lt; Type</text>
<text text-anchor="middle" x="223.5" y="-7.5" font-family="Helvetica,sans-Serif" font-size="10.00"> &gt; &gt; &gt;::size</text>
</a>
</g>
</g>
<!-- Node1&#45;&gt;Node7 -->
<g id="edge6" class="edge">
<title>Node1&#45;&gt;Node7</title>
<path fill="none" stroke="midnightblue" d="M61.85,-254.48C72.23,-220.77 101.18,-137.87 149,-84.5 149.76,-83.65 150.53,-82.82 151.33,-81.99"/>
<polygon fill="midnightblue" stroke="midnightblue" points="154.05,-84.23 158.88,-74.8 149.22,-79.16 154.05,-84.23"/>
</g>
</g>
</svg>
