<?xml version="1.0" encoding="UTF-8" standalone="no"?>
<!DOCTYPE svg PUBLIC "-//W3C//DTD SVG 1.1//EN"
 "http://www.w3.org/Graphics/SVG/1.1/DTD/svg11.dtd">
<!-- Generated by graphviz version 5.0.1 (20220820.1526)
 -->
<!-- Title: uxn::patl::suffix_set::push_back Pages: 1 -->
<svg width="502pt" height="152pt"
 viewBox="0.00 0.00 502.00 152.42" xmlns="http://www.w3.org/2000/svg" xmlns:xlink="http://www.w3.org/1999/xlink">
<g id="graph0" class="graph" transform="scale(1 1) rotate(0) translate(4 148.42)">
<title>uxn::patl::suffix_set::push_back</title>
<!-- Node1 -->
<g id="node1" class="node">
<title>Node1</title>
<g id="a_node1"><a xlink:title=" ">
<polygon fill="#bfbfbf" stroke="black" points="381,-79 381,-109 494,-109 494,-79 381,-79"/>
<text text-anchor="start" x="389" y="-97" font-family="Helvetica,sans-Serif" font-size="10.00">uxn::patl::suffix_set</text>
<text text-anchor="middle" x="437.5" y="-86" font-family="Helvetica,sans-Serif" font-size="10.00">::push_back</text>
</a>
</g>
</g>
<!-- Node2 -->
<g id="node2" class="node">
<title>Node2</title>
<g id="a_node2"><a xlink:href="../../d3/d87/lz77_8cpp.html#a96bf5c98cb36266e461ecf6f31ac3aa7" target="_top" xlink:title=" ">
<polygon fill="none" stroke="black" points="77,-103.5 77,-122.5 154,-122.5 154,-103.5 77,-103.5"/>
<text text-anchor="middle" x="115.5" y="-110.5" font-family="Helvetica,sans-Serif" font-size="10.00">lz_compress</text>
</a>
</g>
</g>
<!-- Node1&#45;&gt;Node2 -->
<g id="edge1" class="edge">
<title>Node1&#45;&gt;Node2</title>
<path fill="none" stroke="midnightblue" d="M401.41,-113.91C384.86,-122.19 364.49,-130.83 345,-135 277.63,-149.4 258.16,-144.98 190,-135 173.66,-132.61 155.9,-127.37 141.94,-122.61"/>
<polygon fill="midnightblue" stroke="midnightblue" points="403.41,-116.81 410.68,-109.11 400.19,-110.6 403.41,-116.81"/>
</g>
<!-- Node4 -->
<g id="node4" class="node">
<title>Node4</title>
<g id="a_node4"><a xlink:href="../../d7/d82/maxpals_8cpp.html#ae66f6b31b5ad750f1fe042a706a4e3d4" target="_top" xlink:title=" ">
<polygon fill="none" stroke="black" points="247,-106.5 247,-125.5 288,-125.5 288,-106.5 247,-106.5"/>
<text text-anchor="middle" x="267.5" y="-113.5" font-family="Helvetica,sans-Serif" font-size="10.00">main</text>
</a>
</g>
</g>
<!-- Node1&#45;&gt;Node4 -->
<g id="edge3" class="edge">
<title>Node1&#45;&gt;Node4</title>
<path fill="none" stroke="midnightblue" d="M370.29,-102.67C340.84,-106.53 308.33,-110.78 288.15,-113.43"/>
<polygon fill="midnightblue" stroke="midnightblue" points="371.1,-106.09 380.56,-101.33 370.19,-99.15 371.1,-106.09"/>
</g>
<!-- Node5 -->
<g id="node5" class="node">
<title>Node5</title>
<g id="a_node5"><a xlink:href="../../d2/d55/multi__align_8cpp.html#a8bb6226b18c9169ccad9269f94d55e27" target="_top" xlink:title=" ">
<polygon fill="none" stroke="black" points="190,-0.5 190,-19.5 345,-19.5 345,-0.5 190,-0.5"/>
<text text-anchor="middle" x="267.5" y="-7.5" font-family="Helvetica,sans-Serif" font-size="10.00">multiple_common_substring</text>
</a>
</g>
</g>
<!-- Node1&#45;&gt;Node5 -->
<g id="edge4" class="edge">
<title>Node1&#45;&gt;Node5</title>
<path fill="none" stroke="midnightblue" d="M397.26,-74.22C381.09,-66.08 362.15,-56.57 345,-48 325.5,-38.26 303.17,-27.17 287.69,-19.5"/>
<polygon fill="midnightblue" stroke="midnightblue" points="395.93,-77.47 406.43,-78.84 399.08,-71.22 395.93,-77.47"/>
</g>
<!-- Node7 -->
<g id="node7" class="node">
<title>Node7</title>
<g id="a_node7"><a xlink:href="../../dd/dbb/classuxn_1_1patl_1_1suffix__set.html#a58a8b893b58cc975b1c33581c6200d42" target="_top" xlink:title=" ">
<polygon fill="none" stroke="black" points="211,-57 211,-87 324,-87 324,-57 211,-57"/>
<text text-anchor="start" x="219" y="-75" font-family="Helvetica,sans-Serif" font-size="10.00">uxn::patl::suffix_set</text>
<text text-anchor="middle" x="267.5" y="-64" font-family="Helvetica,sans-Serif" font-size="10.00">::push_reindex</text>
</a>
</g>
</g>
<!-- Node1&#45;&gt;Node7 -->
<g id="edge7" class="edge">
<title>Node1&#45;&gt;Node7</title>
<path fill="none" stroke="midnightblue" d="M370.61,-85.37C355.26,-83.36 339.06,-81.24 324.2,-79.29"/>
<polygon fill="midnightblue" stroke="midnightblue" points="370.19,-88.85 380.56,-86.67 371.1,-81.91 370.19,-88.85"/>
</g>
<!-- Node3 -->
<g id="node3" class="node">
<title>Node3</title>
<g id="a_node3"><a xlink:href="../../d3/d87/lz77_8cpp.html#a0ddf1224851353fc92bfbff6f499fa97" target="_top" xlink:title=" ">
<polygon fill="none" stroke="black" points="0,-103.5 0,-122.5 41,-122.5 41,-103.5 0,-103.5"/>
<text text-anchor="middle" x="20.5" y="-110.5" font-family="Helvetica,sans-Serif" font-size="10.00">main</text>
</a>
</g>
</g>
<!-- Node2&#45;&gt;Node3 -->
<g id="edge2" class="edge">
<title>Node2&#45;&gt;Node3</title>
<path fill="none" stroke="midnightblue" d="M66.73,-113C57.65,-113 48.63,-113 41.06,-113"/>
<polygon fill="midnightblue" stroke="midnightblue" points="66.94,-116.5 76.94,-113 66.94,-109.5 66.94,-116.5"/>
</g>
<!-- Node5&#45;&gt;Node5 -->
<g id="edge6" class="edge">
<title>Node5&#45;&gt;Node5</title>
<path fill="none" stroke="midnightblue" d="M295.87,-28.65C294.69,-33.94 285.23,-38 267.5,-38 240.48,-38 232.68,-28.57 244.07,-19.76"/>
<polygon fill="midnightblue" stroke="midnightblue" points="298.84,-26.8 290.93,-19.76 292.73,-30.2 298.84,-26.8"/>
</g>
<!-- Node6 -->
<g id="node6" class="node">
<title>Node6</title>
<g id="a_node6"><a xlink:href="../../d2/d55/multi__align_8cpp.html#a0ddf1224851353fc92bfbff6f499fa97" target="_top" xlink:title=" ">
<polygon fill="none" stroke="black" points="95,-0.5 95,-19.5 136,-19.5 136,-0.5 95,-0.5"/>
<text text-anchor="middle" x="115.5" y="-7.5" font-family="Helvetica,sans-Serif" font-size="10.00">main</text>
</a>
</g>
</g>
<!-- Node5&#45;&gt;Node6 -->
<g id="edge5" class="edge">
<title>Node5&#45;&gt;Node6</title>
<path fill="none" stroke="midnightblue" d="M179.53,-10C163.24,-10 147.72,-10 136.16,-10"/>
<polygon fill="midnightblue" stroke="midnightblue" points="179.74,-13.5 189.74,-10 179.74,-6.5 179.74,-13.5"/>
</g>
<!-- Node7&#45;&gt;Node2 -->
<g id="edge8" class="edge">
<title>Node7&#45;&gt;Node2</title>
<path fill="none" stroke="midnightblue" d="M201.48,-89.77C184.28,-94.47 166.37,-99.37 151.46,-103.45"/>
<polygon fill="midnightblue" stroke="midnightblue" points="202.77,-93.05 211.5,-87.03 200.93,-86.29 202.77,-93.05"/>
</g>
</g>
</svg>
