<?xml version="1.0" encoding="UTF-8" standalone="no"?>
<!DOCTYPE svg PUBLIC "-//W3C//DTD SVG 1.1//EN"
 "http://www.w3.org/Graphics/SVG/1.1/DTD/svg11.dtd">
<!-- Generated by graphviz version 5.0.1 (20220820.1526)
 -->
<!-- Title: uxn/patl/config.hpp Pages: 1 -->
<svg width="1869pt" height="475pt"
 viewBox="0.00 0.00 1868.50 475.00" xmlns="http://www.w3.org/2000/svg" xmlns:xlink="http://www.w3.org/1999/xlink">
<g id="graph0" class="graph" transform="scale(1 1) rotate(0) translate(4 471)">
<title>uxn/patl/config.hpp</title>
<!-- Node1 -->
<g id="node1" class="node">
<title>Node1</title>
<g id="a_node1"><a xlink:title=" ">
<polygon fill="#bfbfbf" stroke="black" points="668.5,-447.5 668.5,-466.5 778.5,-466.5 778.5,-447.5 668.5,-447.5"/>
<text text-anchor="middle" x="723.5" y="-454.5" font-family="Helvetica,sans-Serif" font-size="10.00">uxn/patl/config.hpp</text>
</a>
</g>
</g>
<!-- Node2 -->
<g id="node2" class="node">
<title>Node2</title>
<g id="a_node2"><a xlink:href="../../d6/dd0/bitwise__io_8hpp.html" target="_top" xlink:title=" ">
<polygon fill="none" stroke="black" points="487,-324.5 487,-354.5 608,-354.5 608,-324.5 487,-324.5"/>
<text text-anchor="start" x="495" y="-342.5" font-family="Helvetica,sans-Serif" font-size="10.00">uxn/patl/aux_/bitwise</text>
<text text-anchor="middle" x="547.5" y="-331.5" font-family="Helvetica,sans-Serif" font-size="10.00">_io.hpp</text>
</a>
</g>
</g>
<!-- Node1&#45;&gt;Node2 -->
<g id="edge1" class="edge">
<title>Node1&#45;&gt;Node2</title>
<path fill="none" stroke="midnightblue" d="M699.41,-442.39C684.32,-433.7 664.56,-422.04 647.5,-411 618.79,-392.42 586.64,-369.33 566.73,-354.74"/>
<polygon fill="midnightblue" stroke="midnightblue" points="697.72,-445.46 708.14,-447.38 701.2,-439.38 697.72,-445.46"/>
</g>
<!-- Node4 -->
<g id="node4" class="node">
<title>Node4</title>
<g id="a_node4"><a xlink:href="../../d2/d6c/buffered__io_8hpp.html" target="_top" xlink:title=" ">
<polygon fill="none" stroke="black" points="316.5,-123.5 316.5,-153.5 442.5,-153.5 442.5,-123.5 316.5,-123.5"/>
<text text-anchor="start" x="324.5" y="-141.5" font-family="Helvetica,sans-Serif" font-size="10.00">uxn/patl/aux_/buffered</text>
<text text-anchor="middle" x="379.5" y="-130.5" font-family="Helvetica,sans-Serif" font-size="10.00">_io.hpp</text>
</a>
</g>
</g>
<!-- Node1&#45;&gt;Node4 -->
<g id="edge3" class="edge">
<title>Node1&#45;&gt;Node4</title>
<path fill="none" stroke="midnightblue" d="M657.97,-454.83C579.5,-449.54 458.5,-427.32 458.5,-340.5 458.5,-340.5 458.5,-340.5 458.5,-271.5 458.5,-234.2 458.05,-221.76 438.5,-190 429.38,-175.19 414.47,-162.48 401.92,-153.52"/>
<polygon fill="midnightblue" stroke="midnightblue" points="658.08,-458.34 668.27,-455.44 658.5,-451.35 658.08,-458.34"/>
</g>
<!-- Node8 -->
<g id="node8" class="node">
<title>Node8</title>
<g id="a_node8"><a xlink:href="../../df/dee/file__mapping__io_8hpp.html" target="_top" xlink:title=" ">
<polygon fill="none" stroke="black" points="121,-123.5 121,-153.5 222,-153.5 222,-123.5 121,-123.5"/>
<text text-anchor="start" x="129" y="-141.5" font-family="Helvetica,sans-Serif" font-size="10.00">uxn/patl/aux_/file</text>
<text text-anchor="middle" x="171.5" y="-130.5" font-family="Helvetica,sans-Serif" font-size="10.00">_mapping_io.hpp</text>
</a>
</g>
</g>
<!-- Node1&#45;&gt;Node8 -->
<g id="edge7" class="edge">
<title>Node1&#45;&gt;Node8</title>
<path fill="none" stroke="midnightblue" d="M658.04,-454.66C521.21,-450.08 217.5,-429.86 217.5,-340.5 217.5,-340.5 217.5,-340.5 217.5,-271.5 217.5,-226.36 193.22,-177.13 179.94,-153.59"/>
<polygon fill="midnightblue" stroke="midnightblue" points="658.28,-458.17 668.39,-454.99 658.5,-451.17 658.28,-458.17"/>
</g>
<!-- Node10 -->
<g id="node10" class="node">
<title>Node10</title>
<g id="a_node10"><a xlink:href="../../d9/df1/file__utils_8hpp.html" target="_top" xlink:title=" ">
<polygon fill="none" stroke="black" points="329,-190.5 329,-220.5 430,-220.5 430,-190.5 329,-190.5"/>
<text text-anchor="start" x="337" y="-208.5" font-family="Helvetica,sans-Serif" font-size="10.00">uxn/patl/aux_/file</text>
<text text-anchor="middle" x="379.5" y="-197.5" font-family="Helvetica,sans-Serif" font-size="10.00">_utils.hpp</text>
</a>
</g>
</g>
<!-- Node1&#45;&gt;Node10 -->
<g id="edge10" class="edge">
<title>Node1&#45;&gt;Node10</title>
<path fill="none" stroke="midnightblue" d="M658,-453.22C585.79,-448.85 475.67,-437.87 444.5,-411 386.09,-360.65 379.64,-258.02 379.31,-220.57"/>
<polygon fill="midnightblue" stroke="midnightblue" points="658.19,-456.74 668.37,-453.82 658.59,-449.75 658.19,-456.74"/>
</g>
<!-- Node11 -->
<g id="node11" class="node">
<title>Node11</title>
<g id="a_node11"><a xlink:href="../../de/d55/algorithm_8hpp.html" target="_top" xlink:title=" ">
<polygon fill="none" stroke="black" points="898.5,-330 898.5,-349 1050.5,-349 1050.5,-330 898.5,-330"/>
<text text-anchor="middle" x="974.5" y="-337" font-family="Helvetica,sans-Serif" font-size="10.00">uxn/patl/impl/algorithm.hpp</text>
</a>
</g>
</g>
<!-- Node1&#45;&gt;Node11 -->
<g id="edge15" class="edge">
<title>Node1&#45;&gt;Node11</title>
<path fill="none" stroke="midnightblue" d="M751.61,-443.06C803.29,-419.28 912.07,-369.23 955.76,-349.12"/>
<polygon fill="midnightblue" stroke="midnightblue" points="749.99,-439.96 742.37,-447.32 752.91,-446.32 749.99,-439.96"/>
</g>
<!-- Node28 -->
<g id="node28" class="node">
<title>Node28</title>
<g id="a_node28"><a xlink:href="../../dd/d42/lca__base_8hpp.html" target="_top" xlink:title=" ">
<polygon fill="none" stroke="black" points="1330.5,-391.5 1330.5,-410.5 1478.5,-410.5 1478.5,-391.5 1330.5,-391.5"/>
<text text-anchor="middle" x="1404.5" y="-398.5" font-family="Helvetica,sans-Serif" font-size="10.00">uxn/patl/impl/lca_base.hpp</text>
</a>
</g>
</g>
<!-- Node1&#45;&gt;Node28 -->
<g id="edge41" class="edge">
<title>Node1&#45;&gt;Node28</title>
<path fill="none" stroke="midnightblue" d="M788.64,-450.83C915.78,-440.75 1196.26,-418.51 1330.32,-407.88"/>
<polygon fill="midnightblue" stroke="midnightblue" points="788.34,-447.35 778.65,-451.63 788.9,-454.33 788.34,-447.35"/>
</g>
<!-- Node30 -->
<g id="node30" class="node">
<title>Node30</title>
<g id="a_node30"><a xlink:href="../../d3/d09/node_8hpp.html" target="_top" xlink:title=" ">
<polygon fill="none" stroke="black" points="1014,-263 1014,-282 1143,-282 1143,-263 1014,-263"/>
<text text-anchor="middle" x="1078.5" y="-270" font-family="Helvetica,sans-Serif" font-size="10.00">uxn/patl/impl/node.hpp</text>
</a>
</g>
</g>
<!-- Node1&#45;&gt;Node30 -->
<g id="edge45" class="edge">
<title>Node1&#45;&gt;Node30</title>
<path fill="none" stroke="midnightblue" d="M789.06,-454.94C865.1,-450.04 989.02,-430.07 1059.5,-355 1078.59,-334.66 1079.73,-298.99 1079.11,-282.42"/>
<polygon fill="midnightblue" stroke="midnightblue" points="788.44,-451.47 778.66,-455.54 788.84,-458.46 788.44,-451.47"/>
</g>
<!-- Node31 -->
<g id="node31" class="node">
<title>Node31</title>
<g id="a_node31"><a xlink:href="../../d9/d3a/trivial_8hpp.html" target="_top" xlink:title=" ">
<polygon fill="none" stroke="black" points="656.5,-391.5 656.5,-410.5 790.5,-410.5 790.5,-391.5 656.5,-391.5"/>
<text text-anchor="middle" x="723.5" y="-398.5" font-family="Helvetica,sans-Serif" font-size="10.00">uxn/patl/impl/trivial.hpp</text>
</a>
</g>
</g>
<!-- Node1&#45;&gt;Node31 -->
<g id="edge48" class="edge">
<title>Node1&#45;&gt;Node31</title>
<path fill="none" stroke="midnightblue" d="M723.5,-436.8C723.5,-427.91 723.5,-417.78 723.5,-410.75"/>
<polygon fill="midnightblue" stroke="midnightblue" points="720,-437.08 723.5,-447.08 727,-437.08 720,-437.08"/>
</g>
<!-- Node36 -->
<g id="node36" class="node">
<title>Node36</title>
<g id="a_node36"><a xlink:href="../../d2/d18/maxrep__iterator_8hpp.html" target="_top" xlink:title=" ">
<polygon fill="none" stroke="black" points="1380.5,-129 1380.5,-148 1538.5,-148 1538.5,-129 1380.5,-129"/>
<text text-anchor="middle" x="1459.5" y="-136" font-family="Helvetica,sans-Serif" font-size="10.00">uxn/patl/maxrep_iterator.hpp</text>
</a>
</g>
</g>
<!-- Node1&#45;&gt;Node36 -->
<g id="edge61" class="edge">
<title>Node1&#45;&gt;Node36</title>
<path fill="none" stroke="midnightblue" d="M788.63,-454.24C922.36,-448.86 1215.5,-427.19 1215.5,-340.5 1215.5,-340.5 1215.5,-340.5 1215.5,-271.5 1215.5,-222.86 1367.42,-168.79 1431.51,-148.15"/>
<polygon fill="midnightblue" stroke="midnightblue" points="788.37,-450.75 778.51,-454.63 788.63,-457.75 788.37,-450.75"/>
</g>
<!-- Node3 -->
<g id="node3" class="node">
<title>Node3</title>
<g id="a_node3"><a xlink:href="../../d3/d87/lz77_8cpp.html" target="_top" xlink:title=" ">
<polygon fill="none" stroke="black" points="1197,-62 1197,-81 1334,-81 1334,-62 1197,-62"/>
<text text-anchor="middle" x="1265.5" y="-69" font-family="Helvetica,sans-Serif" font-size="10.00">uxn/demos/lz77/lz77.cpp</text>
</a>
</g>
</g>
<!-- Node2&#45;&gt;Node3 -->
<g id="edge2" class="edge">
<title>Node2&#45;&gt;Node3</title>
<path fill="none" stroke="midnightblue" d="M587.58,-319.77C626.4,-299.92 684.79,-265.32 722.5,-221 753.56,-184.5 728.3,-150.57 767.5,-123 844.12,-69.11 1094.67,-99.58 1187.5,-87 1199.37,-85.39 1212.19,-83.2 1223.93,-81.01"/>
<polygon fill="midnightblue" stroke="midnightblue" points="585.52,-316.89 578.15,-324.5 588.66,-323.14 585.52,-316.89"/>
</g>
<!-- Node5 -->
<g id="node5" class="node">
<title>Node5</title>
<g id="a_node5"><a xlink:href="../../da/d22/sort__lin_8cpp.html" target="_top" xlink:title=" ">
<polygon fill="none" stroke="black" points="155.5,-56.5 155.5,-86.5 265.5,-86.5 265.5,-56.5 155.5,-56.5"/>
<text text-anchor="start" x="163.5" y="-74.5" font-family="Helvetica,sans-Serif" font-size="10.00">uxn/demos/sort_lin</text>
<text text-anchor="middle" x="210.5" y="-63.5" font-family="Helvetica,sans-Serif" font-size="10.00">/sort_lin.cpp</text>
</a>
</g>
</g>
<!-- Node4&#45;&gt;Node5 -->
<g id="edge4" class="edge">
<title>Node4&#45;&gt;Node5</title>
<path fill="none" stroke="midnightblue" d="M333.17,-119.68C306.07,-109.26 272.33,-96.28 247.1,-86.58"/>
<polygon fill="midnightblue" stroke="midnightblue" points="332.24,-123.07 342.83,-123.4 334.75,-116.54 332.24,-123.07"/>
</g>
<!-- Node6 -->
<g id="node6" class="node">
<title>Node6</title>
<g id="a_node6"><a xlink:href="../../d9/de5/usort3_8cpp.html" target="_top" xlink:title=" ">
<polygon fill="none" stroke="black" points="872.5,-62 872.5,-81 1030.5,-81 1030.5,-62 872.5,-62"/>
<text text-anchor="middle" x="951.5" y="-69" font-family="Helvetica,sans-Serif" font-size="10.00">uxn/demos/usort3/usort3.cpp</text>
</a>
</g>
</g>
<!-- Node4&#45;&gt;Node6 -->
<g id="edge5" class="edge">
<title>Node4&#45;&gt;Node6</title>
<path fill="none" stroke="midnightblue" d="M452.58,-122.95C635.15,-97.27 684.34,-109.55 863.5,-87 876.56,-85.36 890.65,-83.21 903.64,-81.07"/>
<polygon fill="midnightblue" stroke="midnightblue" points="452.05,-119.49 442.65,-124.37 453.04,-126.42 452.05,-119.49"/>
</g>
<!-- Node7 -->
<g id="node7" class="node">
<title>Node7</title>
<g id="a_node7"><a xlink:href="../../d1/d40/word__suffix_8cpp.html" target="_top" xlink:title=" ">
<polygon fill="none" stroke="black" points="1048.5,-56.5 1048.5,-86.5 1178.5,-86.5 1178.5,-56.5 1048.5,-56.5"/>
<text text-anchor="start" x="1056.5" y="-74.5" font-family="Helvetica,sans-Serif" font-size="10.00">uxn/demos/word_suffix</text>
<text text-anchor="middle" x="1113.5" y="-63.5" font-family="Helvetica,sans-Serif" font-size="10.00">/word_suffix.cpp</text>
</a>
</g>
</g>
<!-- Node4&#45;&gt;Node7 -->
<g id="edge6" class="edge">
<title>Node4&#45;&gt;Node7</title>
<path fill="none" stroke="midnightblue" d="M452.76,-122.97C712.89,-89.86 783.09,-119.82 1039.5,-87 1042.36,-86.63 1045.27,-86.22 1048.21,-85.78"/>
<polygon fill="midnightblue" stroke="midnightblue" points="452.1,-119.52 442.63,-124.27 453,-126.46 452.1,-119.52"/>
</g>
<!-- Node8&#45;&gt;Node5 -->
<g id="edge9" class="edge">
<title>Node8&#45;&gt;Node5</title>
<path fill="none" stroke="midnightblue" d="M185.25,-114.58C190.86,-105.24 197.15,-94.75 202.05,-86.58"/>
<polygon fill="midnightblue" stroke="midnightblue" points="182.11,-113.02 179.96,-123.4 188.11,-116.62 182.11,-113.02"/>
</g>
<!-- Node9 -->
<g id="node9" class="node">
<title>Node9</title>
<g id="a_node9"><a xlink:href="../../d5/d74/multi__search_8cpp.html" target="_top" xlink:title=" ">
<polygon fill="none" stroke="black" points="0,-56.5 0,-86.5 137,-86.5 137,-56.5 0,-56.5"/>
<text text-anchor="start" x="8" y="-74.5" font-family="Helvetica,sans-Serif" font-size="10.00">uxn/demos/multi_search</text>
<text text-anchor="middle" x="68.5" y="-63.5" font-family="Helvetica,sans-Serif" font-size="10.00">/multi_search.cpp</text>
</a>
</g>
</g>
<!-- Node8&#45;&gt;Node9 -->
<g id="edge8" class="edge">
<title>Node8&#45;&gt;Node9</title>
<path fill="none" stroke="midnightblue" d="M140.62,-118.02C124.6,-107.9 105.37,-95.77 90.81,-86.58"/>
<polygon fill="midnightblue" stroke="midnightblue" points="138.83,-121.02 149.15,-123.4 142.56,-115.1 138.83,-121.02"/>
</g>
<!-- Node10&#45;&gt;Node4 -->
<g id="edge13" class="edge">
<title>Node10&#45;&gt;Node4</title>
<path fill="none" stroke="midnightblue" d="M379.5,-180.11C379.5,-171.15 379.5,-161.32 379.5,-153.58"/>
<polygon fill="midnightblue" stroke="midnightblue" points="376,-180.4 379.5,-190.4 383,-180.4 376,-180.4"/>
</g>
<!-- Node10&#45;&gt;Node5 -->
<g id="edge12" class="edge">
<title>Node10&#45;&gt;Node5</title>
<path fill="none" stroke="midnightblue" d="M350.08,-184.72C336.87,-175.62 321.2,-164.53 307.5,-154 278.2,-131.48 245.58,-103.42 226.62,-86.79"/>
<polygon fill="midnightblue" stroke="midnightblue" points="348.13,-187.63 358.36,-190.39 352.08,-181.85 348.13,-187.63"/>
</g>
<!-- Node10&#45;&gt;Node8 -->
<g id="edge14" class="edge">
<title>Node10&#45;&gt;Node8</title>
<path fill="none" stroke="midnightblue" d="M324.92,-187.44C291.2,-176.91 248.46,-163.55 216.65,-153.61"/>
<polygon fill="midnightblue" stroke="midnightblue" points="324.03,-190.83 334.62,-190.48 326.12,-184.15 324.03,-190.83"/>
</g>
<!-- Node10&#45;&gt;Node9 -->
<g id="edge11" class="edge">
<title>Node10&#45;&gt;Node9</title>
<path fill="none" stroke="midnightblue" d="M331.15,-186.54C310.53,-177.96 286.62,-166.77 266.5,-154 248.67,-142.68 248.96,-133.24 230.5,-123 200.75,-106.49 164.87,-94.6 134.44,-86.52"/>
<polygon fill="midnightblue" stroke="midnightblue" points="330.1,-189.88 340.68,-190.41 332.73,-183.4 330.1,-189.88"/>
</g>
<!-- Node12 -->
<g id="node12" class="node">
<title>Node12</title>
<g id="a_node12"><a xlink:href="../../d0/dd1/core__algorithm_8hpp.html" target="_top" xlink:title=" ">
<polygon fill="none" stroke="black" points="891,-257.5 891,-287.5 996,-287.5 996,-257.5 891,-257.5"/>
<text text-anchor="start" x="899" y="-275.5" font-family="Helvetica,sans-Serif" font-size="10.00">uxn/patl/impl/core</text>
<text text-anchor="middle" x="943.5" y="-264.5" font-family="Helvetica,sans-Serif" font-size="10.00">_algorithm.hpp</text>
</a>
</g>
</g>
<!-- Node11&#45;&gt;Node12 -->
<g id="edge16" class="edge">
<title>Node11&#45;&gt;Node12</title>
<path fill="none" stroke="midnightblue" d="M965.86,-320.39C960.92,-310.02 954.8,-297.2 950.22,-287.59"/>
<polygon fill="midnightblue" stroke="midnightblue" points="962.86,-322.21 970.32,-329.73 969.17,-319.2 962.86,-322.21"/>
</g>
<!-- Node13 -->
<g id="node13" class="node">
<title>Node13</title>
<g id="a_node13"><a xlink:href="../../d5/dfc/suffix__generic_8hpp.html" target="_top" xlink:title=" ">
<polygon fill="none" stroke="black" points="1023,-190.5 1023,-220.5 1134,-220.5 1134,-190.5 1023,-190.5"/>
<text text-anchor="start" x="1031" y="-208.5" font-family="Helvetica,sans-Serif" font-size="10.00">uxn/patl/impl/suffix</text>
<text text-anchor="middle" x="1078.5" y="-197.5" font-family="Helvetica,sans-Serif" font-size="10.00">_generic.hpp</text>
</a>
</g>
</g>
<!-- Node12&#45;&gt;Node13 -->
<g id="edge17" class="edge">
<title>Node12&#45;&gt;Node13</title>
<path fill="none" stroke="midnightblue" d="M981.94,-252.99C1003.34,-242.69 1029.55,-230.07 1049.26,-220.58"/>
<polygon fill="midnightblue" stroke="midnightblue" points="980.28,-249.9 972.79,-257.4 983.32,-256.21 980.28,-249.9"/>
</g>
<!-- Node20 -->
<g id="node20" class="node">
<title>Node20</title>
<g id="a_node20"><a xlink:href="../../d9/d25/trie__generic_8hpp.html" target="_top" xlink:title=" ">
<polygon fill="none" stroke="black" points="613,-190.5 613,-220.5 714,-220.5 714,-190.5 613,-190.5"/>
<text text-anchor="start" x="621" y="-208.5" font-family="Helvetica,sans-Serif" font-size="10.00">uxn/patl/impl/trie</text>
<text text-anchor="middle" x="663.5" y="-197.5" font-family="Helvetica,sans-Serif" font-size="10.00">_generic.hpp</text>
</a>
</g>
</g>
<!-- Node12&#45;&gt;Node20 -->
<g id="edge28" class="edge">
<title>Node12&#45;&gt;Node20</title>
<path fill="none" stroke="midnightblue" d="M881.04,-257C830.73,-245.32 760.89,-229.11 714.04,-218.23"/>
<polygon fill="midnightblue" stroke="midnightblue" points="880.3,-260.42 890.83,-259.27 881.88,-253.6 880.3,-260.42"/>
</g>
<!-- Node14 -->
<g id="node14" class="node">
<title>Node14</title>
<g id="a_node14"><a xlink:href="../../d5/d01/suffix__map_8hpp.html" target="_top" xlink:title=" ">
<polygon fill="none" stroke="black" points="1076.5,-129 1076.5,-148 1210.5,-148 1210.5,-129 1076.5,-129"/>
<text text-anchor="middle" x="1143.5" y="-136" font-family="Helvetica,sans-Serif" font-size="10.00">uxn/patl/suffix_map.hpp</text>
</a>
</g>
</g>
<!-- Node13&#45;&gt;Node14 -->
<g id="edge18" class="edge">
<title>Node13&#45;&gt;Node14</title>
<path fill="none" stroke="midnightblue" d="M1100,-183C1111.87,-171.13 1125.95,-157.05 1134.81,-148.19"/>
<polygon fill="midnightblue" stroke="midnightblue" points="1097.2,-180.85 1092.6,-190.4 1102.15,-185.8 1097.2,-180.85"/>
</g>
<!-- Node15 -->
<g id="node15" class="node">
<title>Node15</title>
<g id="a_node15"><a xlink:href="../../d4/dc0/suffix__set_8hpp.html" target="_top" xlink:title=" ">
<polygon fill="none" stroke="black" points="930.5,-129 930.5,-148 1058.5,-148 1058.5,-129 930.5,-129"/>
<text text-anchor="middle" x="994.5" y="-136" font-family="Helvetica,sans-Serif" font-size="10.00">uxn/patl/suffix_set.hpp</text>
</a>
</g>
</g>
<!-- Node13&#45;&gt;Node15 -->
<g id="edge19" class="edge">
<title>Node13&#45;&gt;Node15</title>
<path fill="none" stroke="midnightblue" d="M1052.02,-184.01C1036.42,-171.94 1017.51,-157.3 1005.74,-148.19"/>
<polygon fill="midnightblue" stroke="midnightblue" points="1050.22,-187.04 1060.27,-190.4 1054.51,-181.51 1050.22,-187.04"/>
</g>
<!-- Node19 -->
<g id="node19" class="node">
<title>Node19</title>
<g id="a_node19"><a xlink:href="../../d8/d0a/suffix__utils_8hpp.html" target="_top" xlink:title=" ">
<polygon fill="none" stroke="black" points="1228.5,-129 1228.5,-148 1362.5,-148 1362.5,-129 1228.5,-129"/>
<text text-anchor="middle" x="1295.5" y="-136" font-family="Helvetica,sans-Serif" font-size="10.00">uxn/patl/suffix_utils.hpp</text>
</a>
</g>
</g>
<!-- Node13&#45;&gt;Node19 -->
<g id="edge27" class="edge">
<title>Node13&#45;&gt;Node19</title>
<path fill="none" stroke="midnightblue" d="M1134.95,-187.59C1177.33,-174.9 1233.6,-158.04 1267.03,-148.03"/>
<polygon fill="midnightblue" stroke="midnightblue" points="1133.89,-184.25 1125.32,-190.48 1135.9,-190.96 1133.89,-184.25"/>
</g>
<!-- Node15&#45;&gt;Node3 -->
<g id="edge21" class="edge">
<title>Node15&#45;&gt;Node3</title>
<path fill="none" stroke="midnightblue" d="M1040.09,-126.56C1093.52,-113.75 1180.93,-92.78 1229.71,-81.08"/>
<polygon fill="midnightblue" stroke="midnightblue" points="1039.12,-123.2 1030.21,-128.94 1040.75,-130.01 1039.12,-123.2"/>
</g>
<!-- Node15&#45;&gt;Node6 -->
<g id="edge25" class="edge">
<title>Node15&#45;&gt;Node6</title>
<path fill="none" stroke="midnightblue" d="M982.95,-120.03C974.62,-107.45 963.74,-91.01 957.21,-81.13"/>
<polygon fill="midnightblue" stroke="midnightblue" points="980.26,-122.32 988.7,-128.73 986.1,-118.46 980.26,-122.32"/>
</g>
<!-- Node15&#45;&gt;Node7 -->
<g id="edge26" class="edge">
<title>Node15&#45;&gt;Node7</title>
<path fill="none" stroke="midnightblue" d="M1019.4,-123.9C1039.42,-112.97 1067.45,-97.65 1087.71,-86.59"/>
<polygon fill="midnightblue" stroke="midnightblue" points="1017.65,-120.87 1010.55,-128.73 1021,-127.01 1017.65,-120.87"/>
</g>
<!-- Node15&#45;&gt;Node9 -->
<g id="edge24" class="edge">
<title>Node15&#45;&gt;Node9</title>
<path fill="none" stroke="midnightblue" d="M947.31,-127.06C938.76,-125.47 929.89,-124.02 921.5,-123 579.22,-81.29 489.03,-126.6 146.5,-87 143.49,-86.65 140.42,-86.26 137.33,-85.82"/>
<polygon fill="midnightblue" stroke="midnightblue" points="946.68,-130.5 957.16,-128.97 948.01,-123.63 946.68,-130.5"/>
</g>
<!-- Node16 -->
<g id="node16" class="node">
<title>Node16</title>
<g id="a_node16"><a xlink:href="../../d1/db2/insider_8cpp.html" target="_top" xlink:title=" ">
<polygon fill="none" stroke="black" points="1352.5,-62 1352.5,-81 1514.5,-81 1514.5,-62 1352.5,-62"/>
<text text-anchor="middle" x="1433.5" y="-69" font-family="Helvetica,sans-Serif" font-size="10.00">uxn/demos/insider/insider.cpp</text>
</a>
</g>
</g>
<!-- Node15&#45;&gt;Node16 -->
<g id="edge20" class="edge">
<title>Node15&#45;&gt;Node16</title>
<path fill="none" stroke="midnightblue" d="M1044.8,-127.06C1052.39,-125.61 1060.14,-124.21 1067.5,-123 1189.13,-102.98 1220.51,-104.7 1342.5,-87 1355.17,-85.16 1368.8,-83.06 1381.57,-81.03"/>
<polygon fill="midnightblue" stroke="midnightblue" points="1044.11,-123.63 1034.96,-128.97 1045.44,-130.5 1044.11,-123.63"/>
</g>
<!-- Node17 -->
<g id="node17" class="node">
<title>Node17</title>
<g id="a_node17"><a xlink:href="../../d7/d82/maxpals_8cpp.html" target="_top" xlink:title=" ">
<polygon fill="none" stroke="black" points="1533,-62 1533,-81 1714,-81 1714,-62 1533,-62"/>
<text text-anchor="middle" x="1623.5" y="-69" font-family="Helvetica,sans-Serif" font-size="10.00">uxn/demos/maxpals/maxpals.cpp</text>
</a>
</g>
</g>
<!-- Node15&#45;&gt;Node17 -->
<g id="edge22" class="edge">
<title>Node15&#45;&gt;Node17</title>
<path fill="none" stroke="midnightblue" d="M1042.84,-127.07C1051.04,-125.54 1059.49,-124.11 1067.5,-123 1268.88,-95.15 1321.46,-109.6 1523.5,-87 1538.41,-85.33 1554.51,-83.16 1569.35,-81.01"/>
<polygon fill="midnightblue" stroke="midnightblue" points="1042.15,-123.64 1033,-128.97 1043.48,-130.51 1042.15,-123.64"/>
</g>
<!-- Node18 -->
<g id="node18" class="node">
<title>Node18</title>
<g id="a_node18"><a xlink:href="../../d2/d55/multi__align_8cpp.html" target="_top" xlink:title=" ">
<polygon fill="none" stroke="black" points="1732.5,-56.5 1732.5,-86.5 1860.5,-86.5 1860.5,-56.5 1732.5,-56.5"/>
<text text-anchor="start" x="1740.5" y="-74.5" font-family="Helvetica,sans-Serif" font-size="10.00">uxn/demos/multi_align</text>
<text text-anchor="middle" x="1796.5" y="-63.5" font-family="Helvetica,sans-Serif" font-size="10.00">/multi_align.cpp</text>
</a>
</g>
</g>
<!-- Node15&#45;&gt;Node18 -->
<g id="edge23" class="edge">
<title>Node15&#45;&gt;Node18</title>
<path fill="none" stroke="midnightblue" d="M1042.25,-127.01C1050.63,-125.46 1059.3,-124.03 1067.5,-123 1357.2,-86.47 1433.8,-123.53 1723.5,-87 1726.45,-86.63 1729.46,-86.21 1732.49,-85.75"/>
<polygon fill="midnightblue" stroke="midnightblue" points="1041.38,-123.62 1032.22,-128.95 1042.71,-130.49 1041.38,-123.62"/>
</g>
<!-- Node21 -->
<g id="node21" class="node">
<title>Node21</title>
<g id="a_node21"><a xlink:href="../../df/dc9/trie__map_8hpp.html" target="_top" xlink:title=" ">
<polygon fill="none" stroke="black" points="460.5,-129 460.5,-148 584.5,-148 584.5,-129 460.5,-129"/>
<text text-anchor="middle" x="522.5" y="-136" font-family="Helvetica,sans-Serif" font-size="10.00">uxn/patl/trie_map.hpp</text>
</a>
</g>
</g>
<!-- Node20&#45;&gt;Node21 -->
<g id="edge29" class="edge">
<title>Node20&#45;&gt;Node21</title>
<path fill="none" stroke="midnightblue" d="M623.65,-186.13C596.52,-173.62 561.85,-157.64 540.95,-148.01"/>
<polygon fill="midnightblue" stroke="midnightblue" points="622.36,-189.39 632.91,-190.4 625.29,-183.03 622.36,-189.39"/>
</g>
<!-- Node23 -->
<g id="node23" class="node">
<title>Node23</title>
<g id="a_node23"><a xlink:href="../../d4/db1/trie__set_8hpp.html" target="_top" xlink:title=" ">
<polygon fill="none" stroke="black" points="603,-129 603,-148 720,-148 720,-129 603,-129"/>
<text text-anchor="middle" x="661.5" y="-136" font-family="Helvetica,sans-Serif" font-size="10.00">uxn/patl/trie_set.hpp</text>
</a>
</g>
</g>
<!-- Node20&#45;&gt;Node23 -->
<g id="edge32" class="edge">
<title>Node20&#45;&gt;Node23</title>
<path fill="none" stroke="midnightblue" d="M662.75,-180.25C662.41,-169.02 662.02,-156.38 661.77,-148.19"/>
<polygon fill="midnightblue" stroke="midnightblue" points="659.26,-180.51 663.07,-190.4 666.26,-180.29 659.26,-180.51"/>
</g>
<!-- Node21&#45;&gt;Node5 -->
<g id="edge30" class="edge">
<title>Node21&#45;&gt;Node5</title>
<path fill="none" stroke="midnightblue" d="M471.15,-126.86C421.96,-116.67 345.65,-100.82 279.5,-87 275.07,-86.07 270.47,-85.11 265.86,-84.14"/>
<polygon fill="midnightblue" stroke="midnightblue" points="470.72,-130.35 481.22,-128.95 472.14,-123.49 470.72,-130.35"/>
</g>
<!-- Node22 -->
<g id="node22" class="node">
<title>Node22</title>
<g id="a_node22"><a xlink:href="../../d5/d3f/patcont_8cpp.html" target="_top" xlink:title=" ">
<polygon fill="none" stroke="black" points="487.5,-0.5 487.5,-19.5 603.5,-19.5 603.5,-0.5 487.5,-0.5"/>
<text text-anchor="middle" x="545.5" y="-7.5" font-family="Helvetica,sans-Serif" font-size="10.00">uxn/patl/patcont.cpp</text>
</a>
</g>
</g>
<!-- Node21&#45;&gt;Node22 -->
<g id="edge31" class="edge">
<title>Node21&#45;&gt;Node22</title>
<path fill="none" stroke="midnightblue" d="M471.17,-126.81C410.62,-113.96 317.49,-93.33 312.5,-87 303.97,-76.18 303.73,-66.63 312.5,-56 334.27,-29.63 425.77,-18.54 487.43,-14"/>
<polygon fill="midnightblue" stroke="midnightblue" points="470.82,-130.32 481.33,-128.96 472.27,-123.47 470.82,-130.32"/>
</g>
<!-- Node23&#45;&gt;Node5 -->
<g id="edge37" class="edge">
<title>Node23&#45;&gt;Node5</title>
<path fill="none" stroke="midnightblue" d="M614.2,-126.89C607.28,-125.49 600.22,-124.14 593.5,-123 469.38,-101.85 437.28,-103.86 312.5,-87 297.26,-84.94 280.74,-82.63 265.53,-80.47"/>
<polygon fill="midnightblue" stroke="midnightblue" points="613.69,-130.36 624.2,-128.97 615.12,-123.5 613.69,-130.36"/>
</g>
<!-- Node23&#45;&gt;Node7 -->
<g id="edge38" class="edge">
<title>Node23&#45;&gt;Node7</title>
<path fill="none" stroke="midnightblue" d="M711.51,-127.03C719.19,-125.57 727.05,-124.18 734.5,-123 869.32,-101.69 904.65,-108.14 1039.5,-87 1042.35,-86.55 1045.25,-86.08 1048.18,-85.58"/>
<polygon fill="midnightblue" stroke="midnightblue" points="710.71,-123.62 701.56,-128.95 712.04,-130.49 710.71,-123.62"/>
</g>
<!-- Node23&#45;&gt;Node16 -->
<g id="edge34" class="edge">
<title>Node23&#45;&gt;Node16</title>
<path fill="none" stroke="midnightblue" d="M728.33,-127.6C741.31,-125.89 754.81,-124.26 767.5,-123 1022.3,-97.63 1088,-115.18 1342.5,-87 1356.49,-85.45 1371.62,-83.25 1385.44,-81.04"/>
<polygon fill="midnightblue" stroke="midnightblue" points="727.51,-124.18 718.07,-128.98 728.45,-131.11 727.51,-124.18"/>
</g>
<!-- Node24 -->
<g id="node24" class="node">
<title>Node24</title>
<g id="a_node24"><a xlink:href="../../d5/d69/ins__test_8cpp.html" target="_top" xlink:title=" ">
<polygon fill="none" stroke="black" points="321.5,-56.5 321.5,-86.5 433.5,-86.5 433.5,-56.5 321.5,-56.5"/>
<text text-anchor="start" x="329.5" y="-74.5" font-family="Helvetica,sans-Serif" font-size="10.00">uxn/demos/ins_test</text>
<text text-anchor="middle" x="377.5" y="-63.5" font-family="Helvetica,sans-Serif" font-size="10.00">/ins_test.cpp</text>
</a>
</g>
</g>
<!-- Node23&#45;&gt;Node24 -->
<g id="edge33" class="edge">
<title>Node23&#45;&gt;Node24</title>
<path fill="none" stroke="midnightblue" d="M614.23,-126.68C564.54,-115.31 486.39,-97.42 433.61,-85.34"/>
<polygon fill="midnightblue" stroke="midnightblue" points="613.55,-130.12 624.08,-128.94 615.11,-123.29 613.55,-130.12"/>
</g>
<!-- Node25 -->
<g id="node25" class="node">
<title>Node25</title>
<g id="a_node25"><a xlink:href="../../de/dd6/levenshtein_8cpp.html" target="_top" xlink:title=" ">
<polygon fill="none" stroke="black" points="452,-56.5 452,-86.5 583,-86.5 583,-56.5 452,-56.5"/>
<text text-anchor="start" x="460" y="-74.5" font-family="Helvetica,sans-Serif" font-size="10.00">uxn/demos/levenshtein</text>
<text text-anchor="middle" x="517.5" y="-63.5" font-family="Helvetica,sans-Serif" font-size="10.00">/levenshtein.cpp</text>
</a>
</g>
</g>
<!-- Node23&#45;&gt;Node25 -->
<g id="edge35" class="edge">
<title>Node23&#45;&gt;Node25</title>
<path fill="none" stroke="midnightblue" d="M632.97,-124.62C608.61,-113.63 573.64,-97.84 548.58,-86.53"/>
<polygon fill="midnightblue" stroke="midnightblue" points="631.82,-127.94 642.38,-128.87 634.7,-121.56 631.82,-127.94"/>
</g>
<!-- Node26 -->
<g id="node26" class="node">
<title>Node26</title>
<g id="a_node26"><a xlink:href="../../d6/de8/muxoclon_8cpp.html" target="_top" xlink:title=" ">
<polygon fill="none" stroke="black" points="601,-56.5 601,-86.5 722,-86.5 722,-56.5 601,-56.5"/>
<text text-anchor="start" x="609" y="-74.5" font-family="Helvetica,sans-Serif" font-size="10.00">uxn/demos/muxoclon</text>
<text text-anchor="middle" x="661.5" y="-63.5" font-family="Helvetica,sans-Serif" font-size="10.00">/muxoclon.cpp</text>
</a>
</g>
</g>
<!-- Node23&#45;&gt;Node26 -->
<g id="edge36" class="edge">
<title>Node23&#45;&gt;Node26</title>
<path fill="none" stroke="midnightblue" d="M661.5,-118.41C661.5,-108.22 661.5,-95.9 661.5,-86.59"/>
<polygon fill="midnightblue" stroke="midnightblue" points="658,-118.73 661.5,-128.73 665,-118.73 658,-118.73"/>
</g>
<!-- Node27 -->
<g id="node27" class="node">
<title>Node27</title>
<g id="a_node27"><a xlink:href="../../db/d8f/priority_8hpp.html" target="_top" xlink:title=" ">
<polygon fill="none" stroke="black" points="740.5,-62 740.5,-81 854.5,-81 854.5,-62 740.5,-62"/>
<text text-anchor="middle" x="797.5" y="-69" font-family="Helvetica,sans-Serif" font-size="10.00">uxn/patl/priority.hpp</text>
</a>
</g>
</g>
<!-- Node23&#45;&gt;Node27 -->
<g id="edge39" class="edge">
<title>Node23&#45;&gt;Node27</title>
<path fill="none" stroke="midnightblue" d="M688.82,-124.44C715.76,-111.57 756.16,-92.26 779.37,-81.17"/>
<polygon fill="midnightblue" stroke="midnightblue" points="687.07,-121.4 679.56,-128.87 690.09,-127.71 687.07,-121.4"/>
</g>
<!-- Node27&#45;&gt;Node22 -->
<g id="edge40" class="edge">
<title>Node27&#45;&gt;Node22</title>
<path fill="none" stroke="midnightblue" d="M751.39,-59.61C702.48,-48.07 626.23,-30.06 581.54,-19.51"/>
<polygon fill="midnightblue" stroke="midnightblue" points="750.86,-63.08 761.39,-61.98 752.47,-56.27 750.86,-63.08"/>
</g>
<!-- Node29 -->
<g id="node29" class="node">
<title>Node29</title>
<g id="a_node29"><a xlink:href="../../d2/df8/lca__oracle_8hpp.html" target="_top" xlink:title=" ">
<polygon fill="none" stroke="black" points="1558.5,-129 1558.5,-148 1688.5,-148 1688.5,-129 1558.5,-129"/>
<text text-anchor="middle" x="1623.5" y="-136" font-family="Helvetica,sans-Serif" font-size="10.00">uxn/patl/lca_oracle.hpp</text>
</a>
</g>
</g>
<!-- Node28&#45;&gt;Node29 -->
<g id="edge42" class="edge">
<title>Node28&#45;&gt;Node29</title>
<path fill="none" stroke="midnightblue" d="M1418.42,-383.45C1460.37,-333.54 1584.7,-185.66 1616.19,-148.2"/>
<polygon fill="midnightblue" stroke="midnightblue" points="1415.54,-381.43 1411.79,-391.33 1420.9,-385.93 1415.54,-381.43"/>
</g>
<!-- Node29&#45;&gt;Node17 -->
<g id="edge43" class="edge">
<title>Node29&#45;&gt;Node17</title>
<path fill="none" stroke="midnightblue" d="M1623.5,-118.54C1623.5,-106.17 1623.5,-90.62 1623.5,-81.13"/>
<polygon fill="midnightblue" stroke="midnightblue" points="1620,-118.73 1623.5,-128.73 1627,-118.73 1620,-118.73"/>
</g>
<!-- Node29&#45;&gt;Node18 -->
<g id="edge44" class="edge">
<title>Node29&#45;&gt;Node18</title>
<path fill="none" stroke="midnightblue" d="M1655.85,-125.35C1685.17,-114.33 1728.38,-98.09 1759.16,-86.53"/>
<polygon fill="midnightblue" stroke="midnightblue" points="1654.6,-122.07 1646.47,-128.87 1657.07,-128.63 1654.6,-122.07"/>
</g>
<!-- Node30&#45;&gt;Node13 -->
<g id="edge46" class="edge">
<title>Node30&#45;&gt;Node13</title>
<path fill="none" stroke="midnightblue" d="M1078.5,-252.41C1078.5,-242.22 1078.5,-229.9 1078.5,-220.59"/>
<polygon fill="midnightblue" stroke="midnightblue" points="1075,-252.73 1078.5,-262.73 1082,-252.73 1075,-252.73"/>
</g>
<!-- Node30&#45;&gt;Node20 -->
<g id="edge47" class="edge">
<title>Node30&#45;&gt;Node20</title>
<path fill="none" stroke="midnightblue" d="M1026.68,-261.03C1019.25,-259.62 1011.68,-258.24 1004.5,-257 949.72,-247.58 794.91,-225.24 714.07,-213.69"/>
<polygon fill="midnightblue" stroke="midnightblue" points="1026.21,-264.5 1036.69,-262.96 1027.53,-257.63 1026.21,-264.5"/>
</g>
<!-- Node31&#45;&gt;Node2 -->
<g id="edge49" class="edge">
<title>Node31&#45;&gt;Node2</title>
<path fill="none" stroke="midnightblue" d="M688.69,-388.23C660.03,-378.54 619.32,-364.78 588.98,-354.52"/>
<polygon fill="midnightblue" stroke="midnightblue" points="687.69,-391.59 698.28,-391.48 689.93,-384.96 687.69,-391.59"/>
</g>
<!-- Node31&#45;&gt;Node8 -->
<g id="edge50" class="edge">
<title>Node31&#45;&gt;Node8</title>
<path fill="none" stroke="midnightblue" d="M705.68,-384.92C685.24,-368.22 650.17,-341.35 616.5,-324 492.3,-260.02 447.15,-277.79 319.5,-221 273.54,-200.55 222.74,-170.92 194.21,-153.59"/>
<polygon fill="midnightblue" stroke="midnightblue" points="703.57,-387.72 713.51,-391.4 708.04,-382.33 703.57,-387.72"/>
</g>
<!-- Node31&#45;&gt;Node11 -->
<g id="edge57" class="edge">
<title>Node31&#45;&gt;Node11</title>
<path fill="none" stroke="midnightblue" d="M769.42,-389.11C818.14,-377.57 894.09,-359.56 938.6,-349.01"/>
<polygon fill="midnightblue" stroke="midnightblue" points="768.39,-385.76 759.46,-391.48 770,-392.57 768.39,-385.76"/>
</g>
<!-- Node32 -->
<g id="node32" class="node">
<title>Node32</title>
<g id="a_node32"><a xlink:href="../../d1/dff/bit__comp_8hpp.html" target="_top" xlink:title=" ">
<polygon fill="none" stroke="black" points="778,-196 778,-215 903,-215 903,-196 778,-196"/>
<text text-anchor="middle" x="840.5" y="-203" font-family="Helvetica,sans-Serif" font-size="10.00">uxn/patl/bit_comp.hpp</text>
</a>
</g>
</g>
<!-- Node31&#45;&gt;Node32 -->
<g id="edge51" class="edge">
<title>Node31&#45;&gt;Node32</title>
<path fill="none" stroke="midnightblue" d="M709,-383.4C702.95,-375.39 696.62,-365.3 693.5,-355 680.56,-312.28 685,-289.6 715.5,-257 736.29,-234.78 768.2,-222.1 794.57,-215.01"/>
<polygon fill="midnightblue" stroke="midnightblue" points="706.28,-385.6 715.29,-391.18 711.73,-381.2 706.28,-385.6"/>
</g>
<!-- Node34 -->
<g id="node34" class="node">
<title>Node34</title>
<g id="a_node34"><a xlink:href="../../d3/dee/primes_8hpp.html" target="_top" xlink:title=" ">
<polygon fill="none" stroke="black" points="703,-330 703,-349 842,-349 842,-330 703,-330"/>
<text text-anchor="middle" x="772.5" y="-337" font-family="Helvetica,sans-Serif" font-size="10.00">uxn/patl/impl/primes.hpp</text>
</a>
</g>
</g>
<!-- Node31&#45;&gt;Node34 -->
<g id="edge58" class="edge">
<title>Node31&#45;&gt;Node34</title>
<path fill="none" stroke="midnightblue" d="M736.95,-383.67C746.19,-372.45 758.07,-358.02 765.49,-349.01"/>
<polygon fill="midnightblue" stroke="midnightblue" points="734.18,-381.53 730.52,-391.48 739.58,-385.98 734.18,-381.53"/>
</g>
<!-- Node35 -->
<g id="node35" class="node">
<title>Node35</title>
<g id="a_node35"><a xlink:href="../../da/de5/unordered_8hpp.html" target="_top" xlink:title=" ">
<polygon fill="none" stroke="black" points="724.5,-263 724.5,-282 854.5,-282 854.5,-263 724.5,-263"/>
<text text-anchor="middle" x="789.5" y="-270" font-family="Helvetica,sans-Serif" font-size="10.00">uxn/patl/unordered.hpp</text>
</a>
</g>
</g>
<!-- Node31&#45;&gt;Node35 -->
<g id="edge60" class="edge">
<title>Node31&#45;&gt;Node35</title>
<path fill="none" stroke="midnightblue" d="M800.39,-389.04C819.87,-382.4 838.61,-371.83 850.5,-355 869.57,-328.01 828.23,-296.96 804.56,-282.19"/>
<polygon fill="midnightblue" stroke="midnightblue" points="799.33,-385.7 790.8,-391.99 801.39,-392.39 799.33,-385.7"/>
</g>
<!-- Node32&#45;&gt;Node14 -->
<g id="edge53" class="edge">
<title>Node32&#45;&gt;Node14</title>
<path fill="none" stroke="midnightblue" d="M890.36,-193.8C949.99,-181.01 1048.6,-159.86 1103.49,-148.08"/>
<polygon fill="midnightblue" stroke="midnightblue" points="889.47,-190.42 880.42,-195.94 890.94,-197.26 889.47,-190.42"/>
</g>
<!-- Node32&#45;&gt;Node15 -->
<g id="edge54" class="edge">
<title>Node32&#45;&gt;Node15</title>
<path fill="none" stroke="midnightblue" d="M870.24,-191.95C900.73,-179.08 947.34,-159.4 973.97,-148.17"/>
<polygon fill="midnightblue" stroke="midnightblue" points="868.8,-188.76 860.95,-195.87 871.52,-195.2 868.8,-188.76"/>
</g>
<!-- Node32&#45;&gt;Node21 -->
<g id="edge55" class="edge">
<title>Node32&#45;&gt;Node21</title>
<path fill="none" stroke="midnightblue" d="M788.54,-193.88C725.91,-181.08 621.91,-159.82 564.24,-148.03"/>
<polygon fill="midnightblue" stroke="midnightblue" points="788.1,-197.36 798.6,-195.94 789.5,-190.5 788.1,-197.36"/>
</g>
<!-- Node32&#45;&gt;Node23 -->
<g id="edge56" class="edge">
<title>Node32&#45;&gt;Node23</title>
<path fill="none" stroke="midnightblue" d="M807.28,-192.44C771.77,-179.54 716.37,-159.42 685.08,-148.06"/>
<polygon fill="midnightblue" stroke="midnightblue" points="806.14,-195.75 816.73,-195.87 808.53,-189.17 806.14,-195.75"/>
</g>
<!-- Node33 -->
<g id="node33" class="node">
<title>Node33</title>
<g id="a_node33"><a xlink:href="../../d4/dca/ngram__stat_8hpp.html" target="_top" xlink:title=" ">
<polygon fill="none" stroke="black" points="776.5,-129 776.5,-148 912.5,-148 912.5,-129 776.5,-129"/>
<text text-anchor="middle" x="844.5" y="-136" font-family="Helvetica,sans-Serif" font-size="10.00">uxn/patl/ngram_stat.hpp</text>
</a>
</g>
</g>
<!-- Node32&#45;&gt;Node33 -->
<g id="edge52" class="edge">
<title>Node32&#45;&gt;Node33</title>
<path fill="none" stroke="midnightblue" d="M841.67,-185.54C842.43,-173.17 843.38,-157.62 843.97,-148.13"/>
<polygon fill="midnightblue" stroke="midnightblue" points="838.16,-185.54 841.04,-195.73 845.15,-185.97 838.16,-185.54"/>
</g>
<!-- Node34&#45;&gt;Node35 -->
<g id="edge59" class="edge">
<title>Node34&#45;&gt;Node35</title>
<path fill="none" stroke="midnightblue" d="M777.36,-319.91C780.61,-307.49 784.74,-291.72 787.24,-282.13"/>
<polygon fill="midnightblue" stroke="midnightblue" points="773.94,-319.17 774.79,-329.73 780.71,-320.94 773.94,-319.17"/>
</g>
<!-- Node36&#45;&gt;Node7 -->
<g id="edge63" class="edge">
<title>Node36&#45;&gt;Node7</title>
<path fill="none" stroke="midnightblue" d="M1402.88,-127.16C1347.84,-117.06 1261.89,-101.19 1187.5,-87 1184.67,-86.46 1181.78,-85.91 1178.86,-85.34"/>
<polygon fill="midnightblue" stroke="midnightblue" points="1402.32,-130.61 1412.79,-128.97 1403.58,-123.73 1402.32,-130.61"/>
</g>
<!-- Node36&#45;&gt;Node16 -->
<g id="edge62" class="edge">
<title>Node36&#45;&gt;Node16</title>
<path fill="none" stroke="midnightblue" d="M1452.22,-119.29C1447.22,-106.81 1440.83,-90.81 1436.95,-81.13"/>
<polygon fill="midnightblue" stroke="midnightblue" points="1449.03,-120.75 1455.99,-128.73 1455.53,-118.15 1449.03,-120.75"/>
</g>
</g>
</svg>
