<?xml version="1.0" encoding="UTF-8" standalone="no"?>
<!DOCTYPE svg PUBLIC "-//W3C//DTD SVG 1.1//EN"
 "http://www.w3.org/Graphics/SVG/1.1/DTD/svg11.dtd">
<!-- Generated by graphviz version 5.0.1 (20220820.1526)
 -->
<!-- Title: uxn::patl::hamming_distance&lt; Container, SameLength &gt; Pages: 1 -->
<svg width="322pt" height="920pt"
 viewBox="0.00 0.00 322.00 920.00" xmlns="http://www.w3.org/2000/svg" xmlns:xlink="http://www.w3.org/1999/xlink">
<g id="graph0" class="graph" transform="scale(1 1) rotate(0) translate(4 916)">
<title>uxn::patl::hamming_distance&lt; Container, SameLength &gt;</title>
<!-- Node1 -->
<g id="node1" class="node">
<title>Node1</title>
<g id="a_node1"><a xlink:title="Hamming distance decision functor.">
<polygon fill="#bfbfbf" stroke="black" points="89.5,-0.5 89.5,-222.5 252.5,-222.5 252.5,-0.5 89.5,-0.5"/>
<text text-anchor="start" x="97.5" y="-210.5" font-family="Helvetica,sans-Serif" font-size="10.00">uxn::patl::hamming</text>
<text text-anchor="start" x="97.5" y="-199.5" font-family="Helvetica,sans-Serif" font-size="10.00">_distance&lt; Container,</text>
<text text-anchor="middle" x="171" y="-188.5" font-family="Helvetica,sans-Serif" font-size="10.00"> SameLength &gt;</text>
<polyline fill="none" stroke="black" points="89.5,-181.5 252.5,-181.5"/>
<text text-anchor="start" x="97.5" y="-169.5" font-family="Helvetica,sans-Serif" font-size="10.00">&#45; word_t dist_</text>
<polyline fill="none" stroke="black" points="89.5,-162.5 252.5,-162.5"/>
<text text-anchor="start" x="97.5" y="-150.5" font-family="Helvetica,sans-Serif" font-size="10.00">+ hamming_distance(const</text>
<text text-anchor="start" x="97.5" y="-139.5" font-family="Helvetica,sans-Serif" font-size="10.00"> Container &amp;cont, word</text>
<text text-anchor="start" x="97.5" y="-128.5" font-family="Helvetica,sans-Serif" font-size="10.00">_t dist, const key_type</text>
<text text-anchor="start" x="97.5" y="-117.5" font-family="Helvetica,sans-Serif" font-size="10.00"> &amp;mask, word_t mask_len</text>
<text text-anchor="start" x="97.5" y="-106.5" font-family="Helvetica,sans-Serif" font-size="10.00">=~word_t(0), const char_type</text>
<text text-anchor="start" x="97.5" y="-95.5" font-family="Helvetica,sans-Serif" font-size="10.00"> &amp;terminator=char_type())</text>
<text text-anchor="start" x="97.5" y="-84.5" font-family="Helvetica,sans-Serif" font-size="10.00">+ word_t distance() const</text>
<text text-anchor="start" x="97.5" y="-73.5" font-family="Helvetica,sans-Serif" font-size="10.00">+ void init()</text>
<text text-anchor="start" x="97.5" y="-62.5" font-family="Helvetica,sans-Serif" font-size="10.00">+ bool operator()(word</text>
<text text-anchor="start" x="97.5" y="-51.5" font-family="Helvetica,sans-Serif" font-size="10.00">_t i) const</text>
<text text-anchor="start" x="97.5" y="-40.5" font-family="Helvetica,sans-Serif" font-size="10.00">+ bool operator()(word</text>
<text text-anchor="start" x="97.5" y="-29.5" font-family="Helvetica,sans-Serif" font-size="10.00">_t i, const char_type &amp;ch)</text>
<text text-anchor="start" x="97.5" y="-18.5" font-family="Helvetica,sans-Serif" font-size="10.00">+ bool bit_level(word</text>
<text text-anchor="start" x="97.5" y="-7.5" font-family="Helvetica,sans-Serif" font-size="10.00">_t skip, word_t id)</text>
</a>
</g>
</g>
<!-- Node2 -->
<g id="node2" class="node">
<title>Node2</title>
<g id="a_node2"><a xlink:href="../../d6/d28/classuxn_1_1patl_1_1impl_1_1partial__base.html" target="_top" xlink:title=" ">
<polygon fill="none" stroke="black" points="10,-270.5 10,-514.5 172,-514.5 172,-270.5 10,-270.5"/>
<text text-anchor="start" x="18" y="-502.5" font-family="Helvetica,sans-Serif" font-size="10.00">uxn::patl::impl::partial</text>
<text text-anchor="middle" x="91" y="-491.5" font-family="Helvetica,sans-Serif" font-size="10.00">_base&lt; Container, false &gt;</text>
<polyline fill="none" stroke="black" points="10,-484.5 172,-484.5"/>
<text text-anchor="start" x="18" y="-472.5" font-family="Helvetica,sans-Serif" font-size="10.00">+ static const bool accept</text>
<text text-anchor="start" x="18" y="-461.5" font-family="Helvetica,sans-Serif" font-size="10.00">_subtree</text>
<text text-anchor="start" x="18" y="-450.5" font-family="Helvetica,sans-Serif" font-size="10.00"># key_type mask_</text>
<text text-anchor="start" x="18" y="-439.5" font-family="Helvetica,sans-Serif" font-size="10.00"># word_t mask_len_</text>
<text text-anchor="start" x="18" y="-428.5" font-family="Helvetica,sans-Serif" font-size="10.00"># word_t mask_bit_len_</text>
<text text-anchor="start" x="18" y="-417.5" font-family="Helvetica,sans-Serif" font-size="10.00"># char_type terminator_</text>
<text text-anchor="start" x="18" y="-406.5" font-family="Helvetica,sans-Serif" font-size="10.00"># bit_compare bit_comp_</text>
<polyline fill="none" stroke="black" points="10,-399.5 172,-399.5"/>
<text text-anchor="start" x="18" y="-387.5" font-family="Helvetica,sans-Serif" font-size="10.00">+ partial_base(const</text>
<text text-anchor="start" x="18" y="-376.5" font-family="Helvetica,sans-Serif" font-size="10.00"> Container &amp;cont, const</text>
<text text-anchor="start" x="18" y="-365.5" font-family="Helvetica,sans-Serif" font-size="10.00"> key_type &amp;mask, word_t</text>
<text text-anchor="start" x="18" y="-354.5" font-family="Helvetica,sans-Serif" font-size="10.00"> mask_len=~word_t(0), const</text>
<text text-anchor="start" x="18" y="-343.5" font-family="Helvetica,sans-Serif" font-size="10.00"> char_type &amp;terminator=&#39;\0&#39;)</text>
<text text-anchor="start" x="18" y="-332.5" font-family="Helvetica,sans-Serif" font-size="10.00">+ bool operator()(word</text>
<text text-anchor="start" x="18" y="-321.5" font-family="Helvetica,sans-Serif" font-size="10.00">_t i) const</text>
<text text-anchor="start" x="18" y="-310.5" font-family="Helvetica,sans-Serif" font-size="10.00">+ bool bit_level(word</text>
<text text-anchor="start" x="18" y="-299.5" font-family="Helvetica,sans-Serif" font-size="10.00">_t, word_t) const</text>
<text text-anchor="start" x="18" y="-288.5" font-family="Helvetica,sans-Serif" font-size="10.00">+ const key_type &amp; mask</text>
<text text-anchor="start" x="18" y="-277.5" font-family="Helvetica,sans-Serif" font-size="10.00">() const</text>
</a>
</g>
</g>
<!-- Node2&#45;&gt;Node1 -->
<g id="edge1" class="edge">
<title>Node2&#45;&gt;Node1</title>
<path fill="none" stroke="midnightblue" d="M128.52,-260.63C132.18,-247.9 135.85,-235.07 139.44,-222.57"/>
<polygon fill="none" stroke="midnightblue" points="125.13,-259.77 125.74,-270.34 131.86,-261.7 125.13,-259.77"/>
</g>
<!-- Node3 -->
<g id="node3" class="node">
<title>Node3</title>
<g id="a_node3"><a xlink:href="../../d6/d28/classuxn_1_1patl_1_1impl_1_1partial__base.html" target="_top" xlink:title=" ">
<polygon fill="none" stroke="black" points="0,-562.5 0,-806.5 182,-806.5 182,-562.5 0,-562.5"/>
<text text-anchor="start" x="8" y="-794.5" font-family="Helvetica,sans-Serif" font-size="10.00">uxn::patl::impl::partial</text>
<text text-anchor="middle" x="91" y="-783.5" font-family="Helvetica,sans-Serif" font-size="10.00">_base&lt; Container, SameLength &gt;</text>
<polyline fill="none" stroke="black" points="0,-776.5 182,-776.5"/>
<text text-anchor="start" x="8" y="-764.5" font-family="Helvetica,sans-Serif" font-size="10.00">+ static const bool accept</text>
<text text-anchor="start" x="8" y="-753.5" font-family="Helvetica,sans-Serif" font-size="10.00">_subtree</text>
<text text-anchor="start" x="8" y="-742.5" font-family="Helvetica,sans-Serif" font-size="10.00"># key_type mask_</text>
<text text-anchor="start" x="8" y="-731.5" font-family="Helvetica,sans-Serif" font-size="10.00"># word_t mask_len_</text>
<text text-anchor="start" x="8" y="-720.5" font-family="Helvetica,sans-Serif" font-size="10.00"># word_t mask_bit_len_</text>
<text text-anchor="start" x="8" y="-709.5" font-family="Helvetica,sans-Serif" font-size="10.00"># char_type terminator_</text>
<text text-anchor="start" x="8" y="-698.5" font-family="Helvetica,sans-Serif" font-size="10.00"># bit_compare bit_comp_</text>
<polyline fill="none" stroke="black" points="0,-691.5 182,-691.5"/>
<text text-anchor="start" x="8" y="-679.5" font-family="Helvetica,sans-Serif" font-size="10.00">+ partial_base(const</text>
<text text-anchor="start" x="8" y="-668.5" font-family="Helvetica,sans-Serif" font-size="10.00"> Container &amp;cont, const</text>
<text text-anchor="start" x="8" y="-657.5" font-family="Helvetica,sans-Serif" font-size="10.00"> key_type &amp;mask, word_t</text>
<text text-anchor="start" x="8" y="-646.5" font-family="Helvetica,sans-Serif" font-size="10.00"> mask_len=~word_t(0), const</text>
<text text-anchor="start" x="8" y="-635.5" font-family="Helvetica,sans-Serif" font-size="10.00"> char_type &amp;terminator=&#39;\0&#39;)</text>
<text text-anchor="start" x="8" y="-624.5" font-family="Helvetica,sans-Serif" font-size="10.00">+ bool operator()(word</text>
<text text-anchor="start" x="8" y="-613.5" font-family="Helvetica,sans-Serif" font-size="10.00">_t i) const</text>
<text text-anchor="start" x="8" y="-602.5" font-family="Helvetica,sans-Serif" font-size="10.00">+ bool bit_level(word</text>
<text text-anchor="start" x="8" y="-591.5" font-family="Helvetica,sans-Serif" font-size="10.00">_t, word_t) const</text>
<text text-anchor="start" x="8" y="-580.5" font-family="Helvetica,sans-Serif" font-size="10.00">+ const key_type &amp; mask</text>
<text text-anchor="start" x="8" y="-569.5" font-family="Helvetica,sans-Serif" font-size="10.00">() const</text>
</a>
</g>
</g>
<!-- Node3&#45;&gt;Node2 -->
<g id="edge2" class="edge">
<title>Node3&#45;&gt;Node2</title>
<path fill="none" stroke="orange" d="M91,-551.86C91,-539.51 91,-527.03 91,-514.79"/>
<polygon fill="orange" stroke="orange" points="87.5,-552.19 91,-562.19 94.5,-552.19 87.5,-552.19"/>
<text text-anchor="middle" x="142.5" y="-536" font-family="Helvetica,sans-Serif" font-size="10.00"> &lt; Container, false &gt;</text>
</g>
<!-- Node4 -->
<g id="node4" class="node">
<title>Node4</title>
<g id="a_node4"><a xlink:title=" ">
<polygon fill="none" stroke="black" points="190,-364 190,-421 314,-421 314,-364 190,-364"/>
<text text-anchor="middle" x="252" y="-409" font-family="Helvetica,sans-Serif" font-size="10.00">std::vector&lt; word_t &gt;</text>
<polyline fill="none" stroke="black" points="190,-402 314,-402"/>
<text text-anchor="start" x="198" y="-390" font-family="Helvetica,sans-Serif" font-size="10.00">+ word_t elements</text>
<polyline fill="none" stroke="black" points="190,-383 314,-383"/>
<text text-anchor="middle" x="252" y="-371" font-family="Helvetica,sans-Serif" font-size="10.00"> </text>
</a>
</g>
</g>
<!-- Node4&#45;&gt;Node1 -->
<g id="edge3" class="edge">
<title>Node4&#45;&gt;Node1</title>
<path fill="none" stroke="#404040" d="M244.01,-363.98C235.18,-333.57 220.35,-282.47 206.35,-234.25"/>
<polygon fill="none" stroke="#404040" points="206.35,-234.25 200.83,-229.6 203,-222.73 208.52,-227.37 206.35,-234.25"/>
<text text-anchor="middle" x="226" y="-244" font-family="Helvetica,sans-Serif" font-size="10.00"> &#45;diff_</text>
</g>
<!-- Node5 -->
<g id="node5" class="node">
<title>Node5</title>
<g id="a_node5"><a xlink:title=" ">
<polygon fill="none" stroke="black" points="203.5,-656 203.5,-713 300.5,-713 300.5,-656 203.5,-656"/>
<text text-anchor="middle" x="252" y="-701" font-family="Helvetica,sans-Serif" font-size="10.00">std::vector&lt; T &gt;</text>
<polyline fill="none" stroke="black" points="203.5,-694 300.5,-694"/>
<text text-anchor="middle" x="252" y="-682" font-family="Helvetica,sans-Serif" font-size="10.00"> </text>
<polyline fill="none" stroke="black" points="203.5,-675 300.5,-675"/>
<text text-anchor="middle" x="252" y="-663" font-family="Helvetica,sans-Serif" font-size="10.00"> </text>
</a>
</g>
</g>
<!-- Node5&#45;&gt;Node4 -->
<g id="edge4" class="edge">
<title>Node5&#45;&gt;Node4</title>
<path fill="none" stroke="orange" d="M252,-645.93C252,-586.86 252,-473.62 252,-421.28"/>
<polygon fill="orange" stroke="orange" points="248.5,-645.96 252,-655.96 255.5,-645.96 248.5,-645.96"/>
<text text-anchor="middle" x="281.5" y="-536" font-family="Helvetica,sans-Serif" font-size="10.00"> &lt; word_t &gt;</text>
</g>
<!-- Node6 -->
<g id="node6" class="node">
<title>Node6</title>
<g id="a_node6"><a xlink:title=" ">
<polygon fill="none" stroke="black" points="237.5,-854.5 237.5,-911.5 266.5,-911.5 266.5,-854.5 237.5,-854.5"/>
<text text-anchor="middle" x="252" y="-899.5" font-family="Helvetica,sans-Serif" font-size="10.00">T</text>
<polyline fill="none" stroke="black" points="237.5,-892.5 266.5,-892.5"/>
<text text-anchor="middle" x="252" y="-880.5" font-family="Helvetica,sans-Serif" font-size="10.00"> </text>
<polyline fill="none" stroke="black" points="237.5,-873.5 266.5,-873.5"/>
<text text-anchor="middle" x="252" y="-861.5" font-family="Helvetica,sans-Serif" font-size="10.00"> </text>
</a>
</g>
</g>
<!-- Node6&#45;&gt;Node5 -->
<g id="edge5" class="edge">
<title>Node6&#45;&gt;Node5</title>
<path fill="none" stroke="#404040" d="M252,-854.26C252,-820.62 252,-763.65 252,-725.32"/>
<polygon fill="none" stroke="#404040" points="252,-725.1 248,-719.1 252,-713.1 256,-719.1 252,-725.1"/>
<text text-anchor="middle" x="281" y="-828" font-family="Helvetica,sans-Serif" font-size="10.00"> +elements</text>
</g>
</g>
</svg>
