<?xml version="1.0" encoding="UTF-8" standalone="no"?>
<!DOCTYPE svg PUBLIC "-//W3C//DTD SVG 1.1//EN"
 "http://www.w3.org/Graphics/SVG/1.1/DTD/svg11.dtd">
<!-- Generated by graphviz version 5.0.1 (20220820.1526)
 -->
<!-- Title: uxn::patl::super_maxrep_iterator&lt; Container &gt; Pages: 1 -->
<!--zoomable 1130 -->
<svg id="main" version="1.1" xmlns="http://www.w3.org/2000/svg" xmlns:xlink="http://www.w3.org/1999/xlink" xml:space="preserve" onload="init(evt)">
<style type="text/css"><![CDATA[
.edge:hover path { stroke: red; }
.edge:hover polygon { stroke: red; fill: red; }
]]></style>
<script type="text/javascript"><![CDATA[
var edges = document.getElementsByTagName('g');
if (edges && edges.length) {
  for (var i=0;i<edges.length;i++) {
    if (edges[i].id.substr(0,4)=='edge') {
      edges[i].setAttribute('class','edge');
    }
  }
}
]]></script>
        <defs>
                <circle id="rim" cx="0" cy="0" r="7"/>
                <circle id="rim2" cx="0" cy="0" r="3.5"/>
                <g id="zoomPlus">
                        <use xlink:href="#rim" fill="#404040">
                                <set attributeName="fill" to="#808080" begin="zoomplus.mouseover" end="zoomplus.mouseout"/>
                        </use>
                        <path d="M-4,0h8M0,-4v8" fill="none" stroke="white" stroke-width="1.5" pointer-events="none"/>
                </g>
                <g id="zoomMin">
                        <use xlink:href="#rim" fill="#404040">
                                <set attributeName="fill" to="#808080" begin="zoomminus.mouseover" end="zoomminus.mouseout"/>
                        </use>
                        <path d="M-4,0h8" fill="none" stroke="white" stroke-width="1.5" pointer-events="none"/>
                </g>
                <g id="dirArrow">
                        <path fill="none" stroke="white" stroke-width="1.5" d="M0,-3.0v7 M-2.5,-0.5L0,-3.0L2.5,-0.5"/>
                </g>
               <g id="resetDef">
                       <use xlink:href="#rim2" fill="#404040">
                               <set attributeName="fill" to="#808080" begin="reset.mouseover" end="reset.mouseout"/>
                       </use>
               </g>
        </defs>

<script type="text/javascript">
var viewWidth = 351;
var viewHeight = 1130;
var sectionId = 'dynsection-1';
</script>
<script xlink:href="../../svgpan.js"/>
<svg id="graph" class="graph">
<g id="viewport">
<title>uxn::patl::super_maxrep_iterator&lt; Container &gt;</title>
<!-- Node1 -->
<g id="node1" class="node">
<title>Node1</title>
<g id="a_node1"><a xlink:title=" ">
<polygon fill="#bfbfbf" stroke="black" points="78,-0.5 78,-266.5 223,-266.5 223,-0.5 78,-0.5"/>
<text text-anchor="start" x="86" y="-254.5" font-family="Helvetica,sans-Serif" font-size="10.00">uxn::patl::super_maxrep</text>
<text text-anchor="middle" x="150.5" y="-243.5" font-family="Helvetica,sans-Serif" font-size="10.00">_iterator&lt; Container &gt;</text>
<polyline fill="none" stroke="black" points="78,-236.5 223,-236.5"/>
<text text-anchor="start" x="86" y="-224.5" font-family="Helvetica,sans-Serif" font-size="10.00">&#45; prefix pref_</text>
<polyline fill="none" stroke="black" points="78,-217.5 223,-217.5"/>
<text text-anchor="start" x="86" y="-205.5" font-family="Helvetica,sans-Serif" font-size="10.00">+ super_maxrep_iterator</text>
<text text-anchor="start" x="86" y="-194.5" font-family="Helvetica,sans-Serif" font-size="10.00">(const Container *cont)</text>
<text text-anchor="start" x="86" y="-183.5" font-family="Helvetica,sans-Serif" font-size="10.00">+ const prefix &amp; operator*</text>
<text text-anchor="start" x="86" y="-172.5" font-family="Helvetica,sans-Serif" font-size="10.00">() const</text>
<text text-anchor="start" x="86" y="-161.5" font-family="Helvetica,sans-Serif" font-size="10.00">+ const prefix * operator</text>
<text text-anchor="start" x="86" y="-150.5" font-family="Helvetica,sans-Serif" font-size="10.00">&#45;&gt;() const</text>
<text text-anchor="start" x="86" y="-139.5" font-family="Helvetica,sans-Serif" font-size="10.00">+ word_t freq() const</text>
<text text-anchor="start" x="86" y="-128.5" font-family="Helvetica,sans-Serif" font-size="10.00">+ super_maxrep_iterator</text>
<text text-anchor="start" x="86" y="-117.5" font-family="Helvetica,sans-Serif" font-size="10.00"> &amp; operator++()</text>
<text text-anchor="start" x="86" y="-106.5" font-family="Helvetica,sans-Serif" font-size="10.00">+ super_maxrep_iterator</text>
<text text-anchor="start" x="86" y="-95.5" font-family="Helvetica,sans-Serif" font-size="10.00"> operator++(int)</text>
<text text-anchor="start" x="86" y="-84.5" font-family="Helvetica,sans-Serif" font-size="10.00">&#45; void push_new_pair()</text>
<text text-anchor="start" x="86" y="-73.5" font-family="Helvetica,sans-Serif" font-size="10.00">&#45; void unique_update</text>
<text text-anchor="start" x="86" y="-62.5" font-family="Helvetica,sans-Serif" font-size="10.00">(unique_type &amp;us, const</text>
<text text-anchor="start" x="86" y="-51.5" font-family="Helvetica,sans-Serif" font-size="10.00"> prefix &amp;pref)</text>
<text text-anchor="start" x="86" y="-40.5" font-family="Helvetica,sans-Serif" font-size="10.00">&#45; void unique_update</text>
<text text-anchor="start" x="86" y="-29.5" font-family="Helvetica,sans-Serif" font-size="10.00">(unique_type &amp;us, const</text>
<text text-anchor="start" x="86" y="-18.5" font-family="Helvetica,sans-Serif" font-size="10.00"> unique_type &amp;us1)</text>
<text text-anchor="start" x="86" y="-7.5" font-family="Helvetica,sans-Serif" font-size="10.00">&#45; void merge()</text>
</a>
</g>
</g>
<!-- Node2 -->
<g id="node2" class="node">
<title>Node2</title>
<g id="a_node2"><a xlink:title=" ">
<polygon fill="none" stroke="black" points="0,-821.5 0,-900.5 125,-900.5 125,-821.5 0,-821.5"/>
<text text-anchor="start" x="8" y="-888.5" font-family="Helvetica,sans-Serif" font-size="10.00">std::iterator&lt; std</text>
<text text-anchor="start" x="8" y="-877.5" font-family="Helvetica,sans-Serif" font-size="10.00">::forward_iterator_tag,</text>
<text text-anchor="middle" x="62.5" y="-866.5" font-family="Helvetica,sans-Serif" font-size="10.00"> Container::prefix &gt;</text>
<polyline fill="none" stroke="black" points="0,-859.5 125,-859.5"/>
<text text-anchor="middle" x="62.5" y="-847.5" font-family="Helvetica,sans-Serif" font-size="10.00"> </text>
<polyline fill="none" stroke="black" points="0,-840.5 125,-840.5"/>
<text text-anchor="middle" x="62.5" y="-828.5" font-family="Helvetica,sans-Serif" font-size="10.00"> </text>
</a>
</g>
</g>
<!-- Node2&#45;&gt;Node1 -->
<g id="edge1" class="edge">
<title>Node2&#45;&gt;Node1</title>
<path fill="none" stroke="midnightblue" d="M56.74,-811.3C46.76,-714.95 30.88,-493.77 70.5,-314 73.95,-298.34 78.83,-282.38 84.5,-266.76"/>
<polygon fill="none" stroke="midnightblue" points="53.27,-811.75 57.81,-821.33 60.23,-811.01 53.27,-811.75"/>
</g>
<!-- Node4 -->
<g id="node4" class="node">
<title>Node4</title>
<g id="a_node4"><a xlink:href="../../d5/d4f/classuxn_1_1patl_1_1super__maxrep__iterator.html" target="_top" xlink:title=" ">
<polygon fill="none" stroke="black" points="79,-507.5 79,-773.5 224,-773.5 224,-507.5 79,-507.5"/>
<text text-anchor="start" x="87" y="-761.5" font-family="Helvetica,sans-Serif" font-size="10.00">uxn::patl::super_maxrep</text>
<text text-anchor="middle" x="151.5" y="-750.5" font-family="Helvetica,sans-Serif" font-size="10.00">_iterator&lt; Container &gt;</text>
<polyline fill="none" stroke="black" points="79,-743.5 224,-743.5"/>
<text text-anchor="start" x="87" y="-731.5" font-family="Helvetica,sans-Serif" font-size="10.00">&#45; prefix pref_</text>
<polyline fill="none" stroke="black" points="79,-724.5 224,-724.5"/>
<text text-anchor="start" x="87" y="-712.5" font-family="Helvetica,sans-Serif" font-size="10.00">+ super_maxrep_iterator</text>
<text text-anchor="start" x="87" y="-701.5" font-family="Helvetica,sans-Serif" font-size="10.00">(const Container *cont)</text>
<text text-anchor="start" x="87" y="-690.5" font-family="Helvetica,sans-Serif" font-size="10.00">+ const prefix &amp; operator*</text>
<text text-anchor="start" x="87" y="-679.5" font-family="Helvetica,sans-Serif" font-size="10.00">() const</text>
<text text-anchor="start" x="87" y="-668.5" font-family="Helvetica,sans-Serif" font-size="10.00">+ const prefix * operator</text>
<text text-anchor="start" x="87" y="-657.5" font-family="Helvetica,sans-Serif" font-size="10.00">&#45;&gt;() const</text>
<text text-anchor="start" x="87" y="-646.5" font-family="Helvetica,sans-Serif" font-size="10.00">+ word_t freq() const</text>
<text text-anchor="start" x="87" y="-635.5" font-family="Helvetica,sans-Serif" font-size="10.00">+ super_maxrep_iterator</text>
<text text-anchor="start" x="87" y="-624.5" font-family="Helvetica,sans-Serif" font-size="10.00"> &amp; operator++()</text>
<text text-anchor="start" x="87" y="-613.5" font-family="Helvetica,sans-Serif" font-size="10.00">+ super_maxrep_iterator</text>
<text text-anchor="start" x="87" y="-602.5" font-family="Helvetica,sans-Serif" font-size="10.00"> operator++(int)</text>
<text text-anchor="start" x="87" y="-591.5" font-family="Helvetica,sans-Serif" font-size="10.00">&#45; void push_new_pair()</text>
<text text-anchor="start" x="87" y="-580.5" font-family="Helvetica,sans-Serif" font-size="10.00">&#45; void unique_update</text>
<text text-anchor="start" x="87" y="-569.5" font-family="Helvetica,sans-Serif" font-size="10.00">(unique_type &amp;us, const</text>
<text text-anchor="start" x="87" y="-558.5" font-family="Helvetica,sans-Serif" font-size="10.00"> prefix &amp;pref)</text>
<text text-anchor="start" x="87" y="-547.5" font-family="Helvetica,sans-Serif" font-size="10.00">&#45; void unique_update</text>
<text text-anchor="start" x="87" y="-536.5" font-family="Helvetica,sans-Serif" font-size="10.00">(unique_type &amp;us, const</text>
<text text-anchor="start" x="87" y="-525.5" font-family="Helvetica,sans-Serif" font-size="10.00"> unique_type &amp;us1)</text>
<text text-anchor="start" x="87" y="-514.5" font-family="Helvetica,sans-Serif" font-size="10.00">&#45; void merge()</text>
</a>
</g>
</g>
<!-- Node2&#45;&gt;Node4 -->
<g id="edge4" class="edge">
<title>Node2&#45;&gt;Node4</title>
<path fill="none" stroke="midnightblue" d="M82.05,-811.99C86.8,-800.34 92.11,-787.31 97.61,-773.79"/>
<polygon fill="none" stroke="midnightblue" points="78.74,-810.86 78.21,-821.44 85.22,-813.5 78.74,-810.86"/>
</g>
<!-- Node3 -->
<g id="node3" class="node">
<title>Node3</title>
<g id="a_node3"><a xlink:href="../../dd/dbc/structuxn_1_1patl_1_1super__maxrep__iterator_1_1functor.html" target="_top" xlink:title=" ">
<polygon fill="none" stroke="black" points="80,-314.5 80,-459.5 221,-459.5 221,-314.5 80,-314.5"/>
<text text-anchor="start" x="88" y="-447.5" font-family="Helvetica,sans-Serif" font-size="10.00">uxn::patl::super_maxrep</text>
<text text-anchor="start" x="88" y="-436.5" font-family="Helvetica,sans-Serif" font-size="10.00">_iterator&lt; Container &gt;</text>
<text text-anchor="middle" x="150.5" y="-425.5" font-family="Helvetica,sans-Serif" font-size="10.00">::functor</text>
<polyline fill="none" stroke="black" points="80,-418.5 221,-418.5"/>
<text text-anchor="middle" x="150.5" y="-406.5" font-family="Helvetica,sans-Serif" font-size="10.00"> </text>
<polyline fill="none" stroke="black" points="80,-399.5 221,-399.5"/>
<text text-anchor="start" x="88" y="-387.5" font-family="Helvetica,sans-Serif" font-size="10.00">+ void init(super_maxrep</text>
<text text-anchor="start" x="88" y="-376.5" font-family="Helvetica,sans-Serif" font-size="10.00">_iterator *mrit)</text>
<text text-anchor="start" x="88" y="-365.5" font-family="Helvetica,sans-Serif" font-size="10.00">+ void push()</text>
<text text-anchor="start" x="88" y="-354.5" font-family="Helvetica,sans-Serif" font-size="10.00">+ void incr()</text>
<text text-anchor="start" x="88" y="-343.5" font-family="Helvetica,sans-Serif" font-size="10.00">+ void update()</text>
<text text-anchor="start" x="88" y="-332.5" font-family="Helvetica,sans-Serif" font-size="10.00">+ void merge()</text>
<text text-anchor="start" x="88" y="-321.5" font-family="Helvetica,sans-Serif" font-size="10.00">+ bool cond() const</text>
</a>
</g>
</g>
<!-- Node3&#45;&gt;Node1 -->
<g id="edge2" class="edge">
<title>Node3&#45;&gt;Node1</title>
<path fill="none" stroke="#404040" d="M150.5,-314.27C150.5,-303.05 150.5,-291.13 150.5,-278.96"/>
<polygon fill="none" stroke="#404040" points="150.5,-278.74 146.5,-272.74 150.5,-266.74 154.5,-272.74 150.5,-278.74"/>
<text text-anchor="middle" x="167.5" y="-288" font-family="Helvetica,sans-Serif" font-size="10.00"> &#45;func_</text>
</g>
<!-- Node3&#45;&gt;Node4 -->
<g id="edge5" class="edge">
<title>Node3&#45;&gt;Node4</title>
<path fill="none" stroke="#404040" d="M151.37,-459.72C151.42,-465.9 151.47,-472.06 151.5,-478 151.53,-483.66 151.56,-489.43 151.58,-495.26"/>
<polygon fill="none" stroke="#404040" points="151.58,-495.3 155.6,-501.28 151.62,-507.3 147.6,-501.31 151.58,-495.3"/>
<text text-anchor="middle" x="168.5" y="-481" font-family="Helvetica,sans-Serif" font-size="10.00"> &#45;func_</text>
</g>
<!-- Node4&#45;&gt;Node3 -->
<g id="edge3" class="edge">
<title>Node4&#45;&gt;Node3</title>
<path fill="none" stroke="#404040" d="M116.36,-507.42C116.21,-497.48 116.85,-487.59 118.5,-478 118.87,-475.83 119.3,-473.64 119.76,-471.44"/>
<polygon fill="none" stroke="#404040" points="119.79,-471.3 117.31,-464.53 122.6,-459.63 125.09,-466.4 119.79,-471.3"/>
<text text-anchor="middle" x="135" y="-481" font-family="Helvetica,sans-Serif" font-size="10.00"> &#45;mrit_</text>
</g>
<!-- Node5 -->
<g id="node5" class="node">
<title>Node5</title>
<g id="a_node5"><a xlink:title=" ">
<polygon fill="none" stroke="black" points="166,-821.5 166,-900.5 315,-900.5 315,-821.5 166,-821.5"/>
<text text-anchor="start" x="174" y="-888.5" font-family="Helvetica,sans-Serif" font-size="10.00">std::vector&lt; std::pair</text>
<text text-anchor="middle" x="240.5" y="-877.5" font-family="Helvetica,sans-Serif" font-size="10.00">&lt; word_t, unique_type &gt; &gt;</text>
<polyline fill="none" stroke="black" points="166,-870.5 315,-870.5"/>
<text text-anchor="start" x="174" y="-858.5" font-family="Helvetica,sans-Serif" font-size="10.00">+ std::pair&lt; word_t,</text>
<text text-anchor="start" x="174" y="-847.5" font-family="Helvetica,sans-Serif" font-size="10.00"> unique_type &gt; elements</text>
<polyline fill="none" stroke="black" points="166,-840.5 315,-840.5"/>
<text text-anchor="middle" x="240.5" y="-828.5" font-family="Helvetica,sans-Serif" font-size="10.00"> </text>
</a>
</g>
</g>
<!-- Node5&#45;&gt;Node1 -->
<g id="edge9" class="edge">
<title>Node5&#45;&gt;Node1</title>
<path fill="none" stroke="#404040" d="M245.01,-821.32C254.39,-731.1 271.91,-500.25 230.5,-314 227.86,-302.14 224.41,-290.1 220.42,-278.17"/>
<polygon fill="none" stroke="#404040" points="220.4,-278.1 214.64,-273.75 216.44,-266.77 222.2,-271.12 220.4,-278.1"/>
<text text-anchor="middle" x="271" y="-481" font-family="Helvetica,sans-Serif" font-size="10.00"> &#45;sfreq_</text>
</g>
<!-- Node5&#45;&gt;Node4 -->
<g id="edge6" class="edge">
<title>Node5&#45;&gt;Node4</title>
<path fill="none" stroke="#404040" d="M211.83,-821.37C208.06,-815.39 204.47,-809.15 201.5,-803 198.67,-797.14 195.95,-791.08 193.35,-784.9"/>
<polygon fill="none" stroke="#404040" points="193.3,-784.78 187.34,-780.73 188.79,-773.66 194.75,-777.72 193.3,-784.78"/>
<text text-anchor="middle" x="220" y="-795" font-family="Helvetica,sans-Serif" font-size="10.00"> &#45;sfreq_</text>
</g>
<!-- Node6 -->
<g id="node6" class="node">
<title>Node6</title>
<g id="a_node6"><a xlink:title=" ">
<polygon fill="none" stroke="black" points="192,-959.5 192,-1016.5 289,-1016.5 289,-959.5 192,-959.5"/>
<text text-anchor="middle" x="240.5" y="-1004.5" font-family="Helvetica,sans-Serif" font-size="10.00">std::vector&lt; T &gt;</text>
<polyline fill="none" stroke="black" points="192,-997.5 289,-997.5"/>
<text text-anchor="middle" x="240.5" y="-985.5" font-family="Helvetica,sans-Serif" font-size="10.00"> </text>
<polyline fill="none" stroke="black" points="192,-978.5 289,-978.5"/>
<text text-anchor="middle" x="240.5" y="-966.5" font-family="Helvetica,sans-Serif" font-size="10.00"> </text>
</a>
</g>
</g>
<!-- Node6&#45;&gt;Node5 -->
<g id="edge7" class="edge">
<title>Node6&#45;&gt;Node5</title>
<path fill="none" stroke="orange" d="M240.5,-949.06C240.5,-933.7 240.5,-915.99 240.5,-900.57"/>
<polygon fill="orange" stroke="orange" points="237,-949.26 240.5,-959.26 244,-949.26 237,-949.26"/>
<text text-anchor="start" x="240.5" y="-933" font-family="Helvetica,sans-Serif" font-size="10.00"> &lt; std::pair&lt; word_t,</text>
<text text-anchor="middle" x="291.5" y="-922" font-family="Helvetica,sans-Serif" font-size="10.00"> unique_type &gt; &gt;</text>
</g>
<!-- Node7 -->
<g id="node7" class="node">
<title>Node7</title>
<g id="a_node7"><a xlink:title=" ">
<polygon fill="none" stroke="black" points="226,-1064.5 226,-1121.5 255,-1121.5 255,-1064.5 226,-1064.5"/>
<text text-anchor="middle" x="240.5" y="-1109.5" font-family="Helvetica,sans-Serif" font-size="10.00">T</text>
<polyline fill="none" stroke="black" points="226,-1102.5 255,-1102.5"/>
<text text-anchor="middle" x="240.5" y="-1090.5" font-family="Helvetica,sans-Serif" font-size="10.00"> </text>
<polyline fill="none" stroke="black" points="226,-1083.5 255,-1083.5"/>
<text text-anchor="middle" x="240.5" y="-1071.5" font-family="Helvetica,sans-Serif" font-size="10.00"> </text>
</a>
</g>
</g>
<!-- Node7&#45;&gt;Node6 -->
<g id="edge8" class="edge">
<title>Node7&#45;&gt;Node6</title>
<path fill="none" stroke="#404040" d="M240.5,-1064.4C240.5,-1053.55 240.5,-1040.87 240.5,-1029.05"/>
<polygon fill="none" stroke="#404040" points="240.5,-1028.68 236.5,-1022.68 240.5,-1016.68 244.5,-1022.68 240.5,-1028.68"/>
<text text-anchor="middle" x="269.5" y="-1038" font-family="Helvetica,sans-Serif" font-size="10.00"> +elements</text>
</g>
</g>
</svg>
        <g id="navigator" transform="translate(0 0)" fill="#404254">
                <rect fill="#f2f5e9" fill-opacity="0.5" stroke="#606060" stroke-width=".5" x="0" y="0" width="60" height="60"/>
                <use id="zoomplus" xlink:href="#zoomPlus" x="17" y="9" onmousedown="handleZoom(evt,'in')"/>
                <use id="zoomminus" xlink:href="#zoomMin" x="42" y="9" onmousedown="handleZoom(evt,'out')"/>
                <use id="reset" xlink:href="#resetDef" x="30" y="36" onmousedown="handleReset()"/>
                <g id="arrowUp" xlink:href="#dirArrow" transform="translate(30 24)" onmousedown="handlePan(0,-1)">
                  <use xlink:href="#rim" fill="#404040">
                        <set attributeName="fill" to="#808080" begin="arrowUp.mouseover" end="arrowUp.mouseout"/>
                  </use>
                  <path fill="none" stroke="white" stroke-width="1.5" d="M0,-3.0v7 M-2.5,-0.5L0,-3.0L2.5,-0.5"/>
                </g>
                <g id="arrowRight" xlink:href="#dirArrow" transform="rotate(90) translate(36 -43)" onmousedown="handlePan(1,0)">
                  <use xlink:href="#rim" fill="#404040">
                        <set attributeName="fill" to="#808080" begin="arrowRight.mouseover" end="arrowRight.mouseout"/>
                  </use>
                  <path fill="none" stroke="white" stroke-width="1.5" d="M0,-3.0v7 M-2.5,-0.5L0,-3.0L2.5,-0.5"/>
                </g>
                <g id="arrowDown" xlink:href="#dirArrow" transform="rotate(180) translate(-30 -48)" onmousedown="handlePan(0,1)">
                  <use xlink:href="#rim" fill="#404040">
                        <set attributeName="fill" to="#808080" begin="arrowDown.mouseover" end="arrowDown.mouseout"/>
                  </use>
                  <path fill="none" stroke="white" stroke-width="1.5" d="M0,-3.0v7 M-2.5,-0.5L0,-3.0L2.5,-0.5"/>
                </g>
                <g id="arrowLeft" xlink:href="#dirArrow" transform="rotate(270) translate(-36 17)" onmousedown="handlePan(-1,0)">
                  <use xlink:href="#rim" fill="#404040">
                        <set attributeName="fill" to="#808080" begin="arrowLeft.mouseover" end="arrowLeft.mouseout"/>
                  </use>
                  <path fill="none" stroke="white" stroke-width="1.5" d="M0,-3.0v7 M-2.5,-0.5L0,-3.0L2.5,-0.5"/>
                </g>
        </g>
        <svg viewBox="0 0 15 15" width="100%" height="30px" preserveAspectRatio="xMaxYMin meet">
         <g id="arrow_out" transform="scale(0.3 0.3)">
          <a xlink:href="classuxn_1_1patl_1_1super__maxrep__iterator__coll__graph_org.svg" target="_base">
           <rect id="button" ry="5" rx="5" y="6" x="6" height="38" width="38"
                fill="#f2f5e9" fill-opacity="0.5" stroke="#606060" stroke-width="1.0"/>
           <path id="arrow"
             d="M 11.500037,31.436501 C 11.940474,20.09759 22.043105,11.32322 32.158766,21.979434 L 37.068811,17.246167 C 37.068811,17.246167 37.088388,32 37.088388,32 L 22.160133,31.978069 C 22.160133,31.978069 26.997745,27.140456 26.997745,27.140456 C 18.528582,18.264221 13.291696,25.230495 11.500037,31.436501 z"
             style="fill:#404040;"/>
          </a>
         </g>
        </svg>
</svg>
