<?xml version="1.0" encoding="UTF-8" standalone="no"?>
<!DOCTYPE svg PUBLIC "-//W3C//DTD SVG 1.1//EN"
 "http://www.w3.org/Graphics/SVG/1.1/DTD/svg11.dtd">
<!-- Generated by graphviz version 5.0.1 (20220820.1526)
 -->
<!-- Title: uxn/patl/impl/trivial.hpp Pages: 1 -->
<!--zoomable 408 -->
<svg id="main" version="1.1" xmlns="http://www.w3.org/2000/svg" xmlns:xlink="http://www.w3.org/1999/xlink" xml:space="preserve" onload="init(evt)">
<style type="text/css"><![CDATA[
.edge:hover path { stroke: red; }
.edge:hover polygon { stroke: red; fill: red; }
]]></style>
<script type="text/javascript"><![CDATA[
var edges = document.getElementsByTagName('g');
if (edges && edges.length) {
  for (var i=0;i<edges.length;i++) {
    if (edges[i].id.substr(0,4)=='edge') {
      edges[i].setAttribute('class','edge');
    }
  }
}
]]></script>
        <defs>
                <circle id="rim" cx="0" cy="0" r="7"/>
                <circle id="rim2" cx="0" cy="0" r="3.5"/>
                <g id="zoomPlus">
                        <use xlink:href="#rim" fill="#404040">
                                <set attributeName="fill" to="#808080" begin="zoomplus.mouseover" end="zoomplus.mouseout"/>
                        </use>
                        <path d="M-4,0h8M0,-4v8" fill="none" stroke="white" stroke-width="1.5" pointer-events="none"/>
                </g>
                <g id="zoomMin">
                        <use xlink:href="#rim" fill="#404040">
                                <set attributeName="fill" to="#808080" begin="zoomminus.mouseover" end="zoomminus.mouseout"/>
                        </use>
                        <path d="M-4,0h8" fill="none" stroke="white" stroke-width="1.5" pointer-events="none"/>
                </g>
                <g id="dirArrow">
                        <path fill="none" stroke="white" stroke-width="1.5" d="M0,-3.0v7 M-2.5,-0.5L0,-3.0L2.5,-0.5"/>
                </g>
               <g id="resetDef">
                       <use xlink:href="#rim2" fill="#404040">
                               <set attributeName="fill" to="#808080" begin="reset.mouseover" end="reset.mouseout"/>
                       </use>
               </g>
        </defs>

<script type="text/javascript">
var viewWidth = 1845;
var viewHeight = 408;
var sectionId = 'dynsection-1';
</script>
<script xlink:href="../../svgpan.js"/>
<svg id="graph" class="graph">
<g id="viewport">
<title>uxn/patl/impl/trivial.hpp</title>
<!-- Node1 -->
<g id="node1" class="node">
<title>Node1</title>
<g id="a_node1"><a xlink:title=" ">
<polygon fill="#bfbfbf" stroke="black" points="872.5,-380.5 872.5,-399.5 1006.5,-399.5 1006.5,-380.5 872.5,-380.5"/>
<text text-anchor="middle" x="939.5" y="-387.5" font-family="Helvetica,sans-Serif" font-size="10.00">uxn/patl/impl/trivial.hpp</text>
</a>
</g>
</g>
<!-- Node2 -->
<g id="node2" class="node">
<title>Node2</title>
<g id="a_node2"><a xlink:href="../../d6/dd0/bitwise__io_8hpp.html" target="_top" xlink:title=" ">
<polygon fill="none" stroke="black" points="490,-257.5 490,-287.5 611,-287.5 611,-257.5 490,-257.5"/>
<text text-anchor="start" x="498" y="-275.5" font-family="Helvetica,sans-Serif" font-size="10.00">uxn/patl/aux_/bitwise</text>
<text text-anchor="middle" x="550.5" y="-264.5" font-family="Helvetica,sans-Serif" font-size="10.00">_io.hpp</text>
</a>
</g>
</g>
<!-- Node1&#45;&gt;Node2 -->
<g id="edge1" class="edge">
<title>Node1&#45;&gt;Node2</title>
<path fill="none" stroke="midnightblue" d="M895.42,-378.01C860.99,-369.26 812.03,-356.47 769.5,-344 707.21,-325.74 635.76,-302.26 591.88,-287.54"/>
<polygon fill="midnightblue" stroke="midnightblue" points="894.61,-381.42 905.16,-380.48 896.33,-374.63 894.61,-381.42"/>
</g>
<!-- Node4 -->
<g id="node4" class="node">
<title>Node4</title>
<g id="a_node4"><a xlink:href="../../df/dee/file__mapping__io_8hpp.html" target="_top" xlink:title=" ">
<polygon fill="none" stroke="black" points="733,-123.5 733,-153.5 834,-153.5 834,-123.5 733,-123.5"/>
<text text-anchor="start" x="741" y="-141.5" font-family="Helvetica,sans-Serif" font-size="10.00">uxn/patl/aux_/file</text>
<text text-anchor="middle" x="783.5" y="-130.5" font-family="Helvetica,sans-Serif" font-size="10.00">_mapping_io.hpp</text>
</a>
</g>
</g>
<!-- Node1&#45;&gt;Node4 -->
<g id="edge3" class="edge">
<title>Node1&#45;&gt;Node4</title>
<path fill="none" stroke="midnightblue" d="M862.64,-380.05C839.98,-373.57 817.32,-362.58 802.5,-344 756.82,-286.7 772.24,-189.62 780.09,-153.55"/>
<polygon fill="midnightblue" stroke="midnightblue" points="861.77,-383.44 872.33,-382.55 863.53,-376.66 861.77,-383.44"/>
</g>
<!-- Node7 -->
<g id="node7" class="node">
<title>Node7</title>
<g id="a_node7"><a xlink:href="../../d1/dff/bit__comp_8hpp.html" target="_top" xlink:title=" ">
<polygon fill="none" stroke="black" points="970,-196 970,-215 1095,-215 1095,-196 970,-196"/>
<text text-anchor="middle" x="1032.5" y="-203" font-family="Helvetica,sans-Serif" font-size="10.00">uxn/patl/bit_comp.hpp</text>
</a>
</g>
</g>
<!-- Node1&#45;&gt;Node7 -->
<g id="edge6" class="edge">
<title>Node1&#45;&gt;Node7</title>
<path fill="none" stroke="midnightblue" d="M953.04,-372.4C959.41,-364.16 966.82,-353.87 972.5,-344 999.13,-297.72 1021.58,-237.39 1029.48,-215.19"/>
<polygon fill="midnightblue" stroke="midnightblue" points="950.15,-370.42 946.68,-380.43 955.63,-374.77 950.15,-370.42"/>
</g>
<!-- Node23 -->
<g id="node23" class="node">
<title>Node23</title>
<g id="a_node23"><a xlink:href="../../de/d55/algorithm_8hpp.html" target="_top" xlink:title=" ">
<polygon fill="none" stroke="black" points="811.5,-324.5 811.5,-343.5 963.5,-343.5 963.5,-324.5 811.5,-324.5"/>
<text text-anchor="middle" x="887.5" y="-331.5" font-family="Helvetica,sans-Serif" font-size="10.00">uxn/patl/impl/algorithm.hpp</text>
</a>
</g>
</g>
<!-- Node1&#45;&gt;Node23 -->
<g id="edge29" class="edge">
<title>Node1&#45;&gt;Node23</title>
<path fill="none" stroke="midnightblue" d="M923.82,-372.72C914.66,-363.2 903.45,-351.56 895.93,-343.75"/>
<polygon fill="midnightblue" stroke="midnightblue" points="921.46,-375.31 930.91,-380.08 926.5,-370.45 921.46,-375.31"/>
</g>
<!-- Node28 -->
<g id="node28" class="node">
<title>Node28</title>
<g id="a_node28"><a xlink:href="../../d3/dee/primes_8hpp.html" target="_top" xlink:title=" ">
<polygon fill="none" stroke="black" points="1058,-324.5 1058,-343.5 1197,-343.5 1197,-324.5 1058,-324.5"/>
<text text-anchor="middle" x="1127.5" y="-331.5" font-family="Helvetica,sans-Serif" font-size="10.00">uxn/patl/impl/primes.hpp</text>
</a>
</g>
</g>
<!-- Node1&#45;&gt;Node28 -->
<g id="edge38" class="edge">
<title>Node1&#45;&gt;Node28</title>
<path fill="none" stroke="midnightblue" d="M979.3,-377.57C1014.77,-367.38 1065.87,-352.7 1097.85,-343.52"/>
<polygon fill="midnightblue" stroke="midnightblue" points="977.93,-374.32 969.29,-380.44 979.87,-381.05 977.93,-374.32"/>
</g>
<!-- Node29 -->
<g id="node29" class="node">
<title>Node29</title>
<g id="a_node29"><a xlink:href="../../da/de5/unordered_8hpp.html" target="_top" xlink:title=" ">
<polygon fill="none" stroke="black" points="1040.5,-263 1040.5,-282 1170.5,-282 1170.5,-263 1040.5,-263"/>
<text text-anchor="middle" x="1105.5" y="-270" font-family="Helvetica,sans-Serif" font-size="10.00">uxn/patl/unordered.hpp</text>
</a>
</g>
</g>
<!-- Node1&#45;&gt;Node29 -->
<g id="edge40" class="edge">
<title>Node1&#45;&gt;Node29</title>
<path fill="none" stroke="midnightblue" d="M960.48,-374.82C973.48,-366 990.5,-354.4 1005.5,-344 1037.45,-321.85 1074.82,-295.34 1093.54,-282.03"/>
<polygon fill="midnightblue" stroke="midnightblue" points="958.51,-371.93 952.19,-380.43 962.44,-377.72 958.51,-371.93"/>
</g>
<!-- Node3 -->
<g id="node3" class="node">
<title>Node3</title>
<g id="a_node3"><a xlink:href="../../d3/d87/lz77_8cpp.html" target="_top" xlink:title=" ">
<polygon fill="none" stroke="black" points="0,-62 0,-81 137,-81 137,-62 0,-62"/>
<text text-anchor="middle" x="68.5" y="-69" font-family="Helvetica,sans-Serif" font-size="10.00">uxn/demos/lz77/lz77.cpp</text>
</a>
</g>
</g>
<!-- Node2&#45;&gt;Node3 -->
<g id="edge2" class="edge">
<title>Node2&#45;&gt;Node3</title>
<path fill="none" stroke="midnightblue" d="M506.97,-253.53C406.6,-212.09 161.96,-111.09 89.23,-81.06"/>
<polygon fill="midnightblue" stroke="midnightblue" points="505.64,-256.77 516.22,-257.35 508.31,-250.3 505.64,-256.77"/>
</g>
<!-- Node5 -->
<g id="node5" class="node">
<title>Node5</title>
<g id="a_node5"><a xlink:href="../../d5/d74/multi__search_8cpp.html" target="_top" xlink:title=" ">
<polygon fill="none" stroke="black" points="677,-56.5 677,-86.5 814,-86.5 814,-56.5 677,-56.5"/>
<text text-anchor="start" x="685" y="-74.5" font-family="Helvetica,sans-Serif" font-size="10.00">uxn/demos/multi_search</text>
<text text-anchor="middle" x="745.5" y="-63.5" font-family="Helvetica,sans-Serif" font-size="10.00">/multi_search.cpp</text>
</a>
</g>
</g>
<!-- Node4&#45;&gt;Node5 -->
<g id="edge4" class="edge">
<title>Node4&#45;&gt;Node5</title>
<path fill="none" stroke="midnightblue" d="M770.1,-114.58C764.64,-105.24 758.51,-94.75 753.73,-86.58"/>
<polygon fill="midnightblue" stroke="midnightblue" points="767.19,-116.53 775.25,-123.4 773.23,-113 767.19,-116.53"/>
</g>
<!-- Node6 -->
<g id="node6" class="node">
<title>Node6</title>
<g id="a_node6"><a xlink:href="../../da/d22/sort__lin_8cpp.html" target="_top" xlink:title=" ">
<polygon fill="none" stroke="black" points="1292.5,-56.5 1292.5,-86.5 1402.5,-86.5 1402.5,-56.5 1292.5,-56.5"/>
<text text-anchor="start" x="1300.5" y="-74.5" font-family="Helvetica,sans-Serif" font-size="10.00">uxn/demos/sort_lin</text>
<text text-anchor="middle" x="1347.5" y="-63.5" font-family="Helvetica,sans-Serif" font-size="10.00">/sort_lin.cpp</text>
</a>
</g>
</g>
<!-- Node4&#45;&gt;Node6 -->
<g id="edge5" class="edge">
<title>Node4&#45;&gt;Node6</title>
<path fill="none" stroke="midnightblue" d="M844.12,-123.09C1039,-92.67 1092.78,-116.26 1283.5,-87 1286.43,-86.55 1289.42,-86.04 1292.44,-85.49"/>
<polygon fill="midnightblue" stroke="midnightblue" points="843.45,-119.65 834.13,-124.68 844.55,-126.57 843.45,-119.65"/>
</g>
<!-- Node8 -->
<g id="node8" class="node">
<title>Node8</title>
<g id="a_node8"><a xlink:href="../../d4/dca/ngram__stat_8hpp.html" target="_top" xlink:title=" ">
<polygon fill="none" stroke="black" points="1004.5,-129 1004.5,-148 1140.5,-148 1140.5,-129 1004.5,-129"/>
<text text-anchor="middle" x="1072.5" y="-136" font-family="Helvetica,sans-Serif" font-size="10.00">uxn/patl/ngram_stat.hpp</text>
</a>
</g>
</g>
<!-- Node7&#45;&gt;Node8 -->
<g id="edge7" class="edge">
<title>Node7&#45;&gt;Node8</title>
<path fill="none" stroke="midnightblue" d="M1043.25,-187.03C1050.99,-174.45 1061.11,-158.01 1067.19,-148.13"/>
<polygon fill="midnightblue" stroke="midnightblue" points="1040.15,-185.38 1037.89,-195.73 1046.12,-189.05 1040.15,-185.38"/>
</g>
<!-- Node9 -->
<g id="node9" class="node">
<title>Node9</title>
<g id="a_node9"><a xlink:href="../../d5/d01/suffix__map_8hpp.html" target="_top" xlink:title=" ">
<polygon fill="none" stroke="black" points="852.5,-129 852.5,-148 986.5,-148 986.5,-129 852.5,-129"/>
<text text-anchor="middle" x="919.5" y="-136" font-family="Helvetica,sans-Serif" font-size="10.00">uxn/patl/suffix_map.hpp</text>
</a>
</g>
</g>
<!-- Node7&#45;&gt;Node9 -->
<g id="edge8" class="edge">
<title>Node7&#45;&gt;Node9</title>
<path fill="none" stroke="midnightblue" d="M1008.36,-190.62C985.97,-177.74 953.36,-158.98 934.5,-148.13"/>
<polygon fill="midnightblue" stroke="midnightblue" points="1006.85,-193.78 1017.26,-195.73 1010.34,-187.71 1006.85,-193.78"/>
</g>
<!-- Node10 -->
<g id="node10" class="node">
<title>Node10</title>
<g id="a_node10"><a xlink:href="../../d4/dc0/suffix__set_8hpp.html" target="_top" xlink:title=" ">
<polygon fill="none" stroke="black" points="586.5,-129 586.5,-148 714.5,-148 714.5,-129 586.5,-129"/>
<text text-anchor="middle" x="650.5" y="-136" font-family="Helvetica,sans-Serif" font-size="10.00">uxn/patl/suffix_set.hpp</text>
</a>
</g>
</g>
<!-- Node7&#45;&gt;Node10 -->
<g id="edge9" class="edge">
<title>Node7&#45;&gt;Node10</title>
<path fill="none" stroke="midnightblue" d="M966.73,-194.42C904.1,-184.66 807.23,-169.15 723.5,-154 713.33,-152.16 702.38,-150.05 692.15,-148.03"/>
<polygon fill="midnightblue" stroke="midnightblue" points="966.44,-197.91 976.86,-195.99 967.52,-191 966.44,-197.91"/>
</g>
<!-- Node16 -->
<g id="node16" class="node">
<title>Node16</title>
<g id="a_node16"><a xlink:href="../../df/dc9/trie__map_8hpp.html" target="_top" xlink:title=" ">
<polygon fill="none" stroke="black" points="1294.5,-129 1294.5,-148 1418.5,-148 1418.5,-129 1294.5,-129"/>
<text text-anchor="middle" x="1356.5" y="-136" font-family="Helvetica,sans-Serif" font-size="10.00">uxn/patl/trie_map.hpp</text>
</a>
</g>
</g>
<!-- Node7&#45;&gt;Node16 -->
<g id="edge17" class="edge">
<title>Node7&#45;&gt;Node16</title>
<path fill="none" stroke="midnightblue" d="M1085.33,-194.03C1136.52,-183.86 1216.35,-167.96 1285.5,-154 1295,-152.08 1305.2,-150.01 1314.83,-148.04"/>
<polygon fill="midnightblue" stroke="midnightblue" points="1084.61,-190.6 1075.49,-195.98 1085.98,-197.47 1084.61,-190.6"/>
</g>
<!-- Node18 -->
<g id="node18" class="node">
<title>Node18</title>
<g id="a_node18"><a xlink:href="../../d4/db1/trie__set_8hpp.html" target="_top" xlink:title=" ">
<polygon fill="none" stroke="black" points="1159,-129 1159,-148 1276,-148 1276,-129 1159,-129"/>
<text text-anchor="middle" x="1217.5" y="-136" font-family="Helvetica,sans-Serif" font-size="10.00">uxn/patl/trie_set.hpp</text>
</a>
</g>
</g>
<!-- Node7&#45;&gt;Node18 -->
<g id="edge20" class="edge">
<title>Node7&#45;&gt;Node18</title>
<path fill="none" stroke="midnightblue" d="M1066.84,-192.44C1103.54,-179.54 1160.79,-159.42 1193.13,-148.06"/>
<polygon fill="midnightblue" stroke="midnightblue" points="1065.34,-189.25 1057.07,-195.87 1067.66,-195.86 1065.34,-189.25"/>
</g>
<!-- Node10&#45;&gt;Node3 -->
<g id="edge11" class="edge">
<title>Node10&#45;&gt;Node3</title>
<path fill="none" stroke="midnightblue" d="M601.61,-127C593.58,-125.5 585.33,-124.1 577.5,-123 387.15,-96.23 337.01,-112.6 146.5,-87 134.62,-85.4 121.81,-83.22 110.07,-81.03"/>
<polygon fill="midnightblue" stroke="midnightblue" points="601.13,-130.47 611.62,-128.93 602.46,-123.6 601.13,-130.47"/>
</g>
<!-- Node10&#45;&gt;Node5 -->
<g id="edge14" class="edge">
<title>Node10&#45;&gt;Node5</title>
<path fill="none" stroke="midnightblue" d="M671.91,-122.85C687.77,-112 709.25,-97.3 724.91,-86.59"/>
<polygon fill="midnightblue" stroke="midnightblue" points="669.59,-120.2 663.31,-128.73 673.54,-125.98 669.59,-120.2"/>
</g>
<!-- Node11 -->
<g id="node11" class="node">
<title>Node11</title>
<g id="a_node11"><a xlink:href="../../d1/db2/insider_8cpp.html" target="_top" xlink:title=" ">
<polygon fill="none" stroke="black" points="832.5,-62 832.5,-81 994.5,-81 994.5,-62 832.5,-62"/>
<text text-anchor="middle" x="913.5" y="-69" font-family="Helvetica,sans-Serif" font-size="10.00">uxn/demos/insider/insider.cpp</text>
</a>
</g>
</g>
<!-- Node10&#45;&gt;Node11 -->
<g id="edge10" class="edge">
<title>Node10&#45;&gt;Node11</title>
<path fill="none" stroke="midnightblue" d="M695.07,-126.48C746.95,-113.66 831.52,-92.76 878.77,-81.08"/>
<polygon fill="midnightblue" stroke="midnightblue" points="694.02,-123.14 685.15,-128.94 695.7,-129.93 694.02,-123.14"/>
</g>
<!-- Node12 -->
<g id="node12" class="node">
<title>Node12</title>
<g id="a_node12"><a xlink:href="../../d7/d82/maxpals_8cpp.html" target="_top" xlink:title=" ">
<polygon fill="none" stroke="black" points="478,-62 478,-81 659,-81 659,-62 478,-62"/>
<text text-anchor="middle" x="568.5" y="-69" font-family="Helvetica,sans-Serif" font-size="10.00">uxn/demos/maxpals/maxpals.cpp</text>
</a>
</g>
</g>
<!-- Node10&#45;&gt;Node12 -->
<g id="edge12" class="edge">
<title>Node10&#45;&gt;Node12</title>
<path fill="none" stroke="midnightblue" d="M631.22,-122.21C615.06,-109.41 592.58,-91.59 579.38,-81.13"/>
<polygon fill="midnightblue" stroke="midnightblue" points="629.43,-125.26 639.44,-128.73 633.78,-119.78 629.43,-125.26"/>
</g>
<!-- Node13 -->
<g id="node13" class="node">
<title>Node13</title>
<g id="a_node13"><a xlink:href="../../d2/d55/multi__align_8cpp.html" target="_top" xlink:title=" ">
<polygon fill="none" stroke="black" points="155.5,-56.5 155.5,-86.5 283.5,-86.5 283.5,-56.5 155.5,-56.5"/>
<text text-anchor="start" x="163.5" y="-74.5" font-family="Helvetica,sans-Serif" font-size="10.00">uxn/demos/multi_align</text>
<text text-anchor="middle" x="219.5" y="-63.5" font-family="Helvetica,sans-Serif" font-size="10.00">/multi_align.cpp</text>
</a>
</g>
</g>
<!-- Node10&#45;&gt;Node13 -->
<g id="edge13" class="edge">
<title>Node10&#45;&gt;Node13</title>
<path fill="none" stroke="midnightblue" d="M600.21,-127.03C592.61,-125.59 584.86,-124.19 577.5,-123 451.48,-102.55 418.52,-107.45 292.5,-87 289.57,-86.52 286.57,-86.02 283.55,-85.49"/>
<polygon fill="midnightblue" stroke="midnightblue" points="599.56,-130.47 610.05,-128.94 600.9,-123.6 599.56,-130.47"/>
</g>
<!-- Node14 -->
<g id="node14" class="node">
<title>Node14</title>
<g id="a_node14"><a xlink:href="../../d9/de5/usort3_8cpp.html" target="_top" xlink:title=" ">
<polygon fill="none" stroke="black" points="301.5,-62 301.5,-81 459.5,-81 459.5,-62 301.5,-62"/>
<text text-anchor="middle" x="380.5" y="-69" font-family="Helvetica,sans-Serif" font-size="10.00">uxn/demos/usort3/usort3.cpp</text>
</a>
</g>
</g>
<!-- Node10&#45;&gt;Node14 -->
<g id="edge15" class="edge">
<title>Node10&#45;&gt;Node14</title>
<path fill="none" stroke="midnightblue" d="M605.07,-126.56C551.85,-113.75 464.76,-92.78 416.15,-81.08"/>
<polygon fill="midnightblue" stroke="midnightblue" points="604.38,-130 614.92,-128.94 606.02,-123.19 604.38,-130"/>
</g>
<!-- Node15 -->
<g id="node15" class="node">
<title>Node15</title>
<g id="a_node15"><a xlink:href="../../d1/d40/word__suffix_8cpp.html" target="_top" xlink:title=" ">
<polygon fill="none" stroke="black" points="1012.5,-56.5 1012.5,-86.5 1142.5,-86.5 1142.5,-56.5 1012.5,-56.5"/>
<text text-anchor="start" x="1020.5" y="-74.5" font-family="Helvetica,sans-Serif" font-size="10.00">uxn/demos/word_suffix</text>
<text text-anchor="middle" x="1077.5" y="-63.5" font-family="Helvetica,sans-Serif" font-size="10.00">/word_suffix.cpp</text>
</a>
</g>
</g>
<!-- Node10&#45;&gt;Node15 -->
<g id="edge16" class="edge">
<title>Node10&#45;&gt;Node15</title>
<path fill="none" stroke="midnightblue" d="M700.8,-127.04C708.39,-125.6 716.14,-124.2 723.5,-123 847.33,-102.77 879.65,-107.07 1003.5,-87 1006.34,-86.54 1009.24,-86.05 1012.17,-85.54"/>
<polygon fill="midnightblue" stroke="midnightblue" points="700.1,-123.61 690.95,-128.95 701.44,-130.48 700.1,-123.61"/>
</g>
<!-- Node16&#45;&gt;Node6 -->
<g id="edge18" class="edge">
<title>Node16&#45;&gt;Node6</title>
<path fill="none" stroke="midnightblue" d="M1353.9,-118.74C1352.48,-108.49 1350.75,-96 1349.45,-86.59"/>
<polygon fill="midnightblue" stroke="midnightblue" points="1350.45,-119.31 1355.29,-128.73 1357.38,-118.35 1350.45,-119.31"/>
</g>
<!-- Node17 -->
<g id="node17" class="node">
<title>Node17</title>
<g id="a_node17"><a xlink:href="../../d5/d3f/patcont_8cpp.html" target="_top" xlink:title=" ">
<polygon fill="none" stroke="black" points="1475.5,-0.5 1475.5,-19.5 1591.5,-19.5 1591.5,-0.5 1475.5,-0.5"/>
<text text-anchor="middle" x="1533.5" y="-7.5" font-family="Helvetica,sans-Serif" font-size="10.00">uxn/patl/patcont.cpp</text>
</a>
</g>
</g>
<!-- Node16&#45;&gt;Node17 -->
<g id="edge19" class="edge">
<title>Node16&#45;&gt;Node17</title>
<path fill="none" stroke="midnightblue" d="M1429.22,-135C1555.45,-129.91 1804.2,-116.26 1830.5,-87 1839.71,-76.75 1839.48,-66.45 1830.5,-56 1800.32,-20.91 1669.21,-12.84 1591.64,-11.2"/>
<polygon fill="midnightblue" stroke="midnightblue" points="1428.73,-131.52 1418.88,-135.41 1429.01,-138.51 1428.73,-131.52"/>
</g>
<!-- Node18&#45;&gt;Node6 -->
<g id="edge25" class="edge">
<title>Node18&#45;&gt;Node6</title>
<path fill="none" stroke="midnightblue" d="M1243.82,-124.34C1265.7,-113.4 1296.78,-97.86 1319.2,-86.65"/>
<polygon fill="midnightblue" stroke="midnightblue" points="1242.14,-121.27 1234.76,-128.87 1245.27,-127.53 1242.14,-121.27"/>
</g>
<!-- Node18&#45;&gt;Node11 -->
<g id="edge22" class="edge">
<title>Node18&#45;&gt;Node11</title>
<path fill="none" stroke="midnightblue" d="M1167.47,-126.8C1107.65,-114.01 1008.71,-92.86 953.64,-81.08"/>
<polygon fill="midnightblue" stroke="midnightblue" points="1166.93,-130.27 1177.44,-128.94 1168.4,-123.42 1166.93,-130.27"/>
</g>
<!-- Node18&#45;&gt;Node15 -->
<g id="edge26" class="edge">
<title>Node18&#45;&gt;Node15</title>
<path fill="none" stroke="midnightblue" d="M1189.76,-124.62C1166.08,-113.63 1132.08,-97.84 1107.71,-86.53"/>
<polygon fill="midnightblue" stroke="midnightblue" points="1188.37,-127.83 1198.91,-128.87 1191.31,-121.48 1188.37,-127.83"/>
</g>
<!-- Node19 -->
<g id="node19" class="node">
<title>Node19</title>
<g id="a_node19"><a xlink:href="../../d5/d69/ins__test_8cpp.html" target="_top" xlink:title=" ">
<polygon fill="none" stroke="black" points="1420.5,-56.5 1420.5,-86.5 1532.5,-86.5 1532.5,-56.5 1420.5,-56.5"/>
<text text-anchor="start" x="1428.5" y="-74.5" font-family="Helvetica,sans-Serif" font-size="10.00">uxn/demos/ins_test</text>
<text text-anchor="middle" x="1476.5" y="-63.5" font-family="Helvetica,sans-Serif" font-size="10.00">/ins_test.cpp</text>
</a>
</g>
</g>
<!-- Node18&#45;&gt;Node19 -->
<g id="edge21" class="edge">
<title>Node18&#45;&gt;Node19</title>
<path fill="none" stroke="midnightblue" d="M1261.42,-126.48C1305.26,-115.47 1372.8,-98.52 1420.48,-86.56"/>
<polygon fill="midnightblue" stroke="midnightblue" points="1260.47,-123.11 1251.63,-128.94 1262.18,-129.9 1260.47,-123.11"/>
</g>
<!-- Node20 -->
<g id="node20" class="node">
<title>Node20</title>
<g id="a_node20"><a xlink:href="../../de/dd6/levenshtein_8cpp.html" target="_top" xlink:title=" ">
<polygon fill="none" stroke="black" points="1551,-56.5 1551,-86.5 1682,-86.5 1682,-56.5 1551,-56.5"/>
<text text-anchor="start" x="1559" y="-74.5" font-family="Helvetica,sans-Serif" font-size="10.00">uxn/demos/levenshtein</text>
<text text-anchor="middle" x="1616.5" y="-63.5" font-family="Helvetica,sans-Serif" font-size="10.00">/levenshtein.cpp</text>
</a>
</g>
</g>
<!-- Node18&#45;&gt;Node20 -->
<g id="edge23" class="edge">
<title>Node18&#45;&gt;Node20</title>
<path fill="none" stroke="midnightblue" d="M1265.06,-126.91C1271.9,-125.52 1278.87,-124.17 1285.5,-123 1398.64,-103.01 1428.17,-105.91 1541.5,-87 1544.51,-86.5 1547.58,-85.97 1550.68,-85.42"/>
<polygon fill="midnightblue" stroke="midnightblue" points="1264.25,-123.51 1255.17,-128.97 1265.68,-130.36 1264.25,-123.51"/>
</g>
<!-- Node21 -->
<g id="node21" class="node">
<title>Node21</title>
<g id="a_node21"><a xlink:href="../../d6/de8/muxoclon_8cpp.html" target="_top" xlink:title=" ">
<polygon fill="none" stroke="black" points="1700,-56.5 1700,-86.5 1821,-86.5 1821,-56.5 1700,-56.5"/>
<text text-anchor="start" x="1708" y="-74.5" font-family="Helvetica,sans-Serif" font-size="10.00">uxn/demos/muxoclon</text>
<text text-anchor="middle" x="1760.5" y="-63.5" font-family="Helvetica,sans-Serif" font-size="10.00">/muxoclon.cpp</text>
</a>
</g>
</g>
<!-- Node18&#45;&gt;Node21 -->
<g id="edge24" class="edge">
<title>Node18&#45;&gt;Node21</title>
<path fill="none" stroke="midnightblue" d="M1263.52,-126.9C1270.84,-125.44 1278.36,-124.07 1285.5,-123 1464.64,-96.06 1512.32,-113.67 1691.5,-87 1694.28,-86.59 1697.13,-86.13 1699.99,-85.64"/>
<polygon fill="midnightblue" stroke="midnightblue" points="1262.78,-123.47 1253.7,-128.93 1264.2,-130.33 1262.78,-123.47"/>
</g>
<!-- Node22 -->
<g id="node22" class="node">
<title>Node22</title>
<g id="a_node22"><a xlink:href="../../db/d8f/priority_8hpp.html" target="_top" xlink:title=" ">
<polygon fill="none" stroke="black" points="1160.5,-62 1160.5,-81 1274.5,-81 1274.5,-62 1160.5,-62"/>
<text text-anchor="middle" x="1217.5" y="-69" font-family="Helvetica,sans-Serif" font-size="10.00">uxn/patl/priority.hpp</text>
</a>
</g>
</g>
<!-- Node18&#45;&gt;Node22 -->
<g id="edge27" class="edge">
<title>Node18&#45;&gt;Node22</title>
<path fill="none" stroke="midnightblue" d="M1217.5,-118.54C1217.5,-106.17 1217.5,-90.62 1217.5,-81.13"/>
<polygon fill="midnightblue" stroke="midnightblue" points="1214,-118.73 1217.5,-128.73 1221,-118.73 1214,-118.73"/>
</g>
<!-- Node22&#45;&gt;Node17 -->
<g id="edge28" class="edge">
<title>Node22&#45;&gt;Node17</title>
<path fill="none" stroke="midnightblue" d="M1265.31,-59.77C1271.42,-58.47 1277.6,-57.18 1283.5,-56 1352.26,-42.26 1432.05,-28.23 1482.64,-19.57"/>
<polygon fill="midnightblue" stroke="midnightblue" points="1264.18,-56.44 1255.14,-61.97 1265.66,-63.28 1264.18,-56.44"/>
</g>
<!-- Node24 -->
<g id="node24" class="node">
<title>Node24</title>
<g id="a_node24"><a xlink:href="../../d0/dd1/core__algorithm_8hpp.html" target="_top" xlink:title=" ">
<polygon fill="none" stroke="black" points="835,-257.5 835,-287.5 940,-287.5 940,-257.5 835,-257.5"/>
<text text-anchor="start" x="843" y="-275.5" font-family="Helvetica,sans-Serif" font-size="10.00">uxn/patl/impl/core</text>
<text text-anchor="middle" x="887.5" y="-264.5" font-family="Helvetica,sans-Serif" font-size="10.00">_algorithm.hpp</text>
</a>
</g>
</g>
<!-- Node23&#45;&gt;Node24 -->
<g id="edge30" class="edge">
<title>Node23&#45;&gt;Node24</title>
<path fill="none" stroke="midnightblue" d="M887.5,-314.23C887.5,-305.59 887.5,-295.5 887.5,-287.52"/>
<polygon fill="midnightblue" stroke="midnightblue" points="884,-314.48 887.5,-324.48 891,-314.48 884,-314.48"/>
</g>
<!-- Node25 -->
<g id="node25" class="node">
<title>Node25</title>
<g id="a_node25"><a xlink:href="../../d5/dfc/suffix__generic_8hpp.html" target="_top" xlink:title=" ">
<polygon fill="none" stroke="black" points="619,-190.5 619,-220.5 730,-220.5 730,-190.5 619,-190.5"/>
<text text-anchor="start" x="627" y="-208.5" font-family="Helvetica,sans-Serif" font-size="10.00">uxn/patl/impl/suffix</text>
<text text-anchor="middle" x="674.5" y="-197.5" font-family="Helvetica,sans-Serif" font-size="10.00">_generic.hpp</text>
</a>
</g>
</g>
<!-- Node24&#45;&gt;Node25 -->
<g id="edge31" class="edge">
<title>Node24&#45;&gt;Node25</title>
<path fill="none" stroke="midnightblue" d="M831.61,-254.44C797.08,-243.91 753.31,-230.55 720.74,-220.61"/>
<polygon fill="midnightblue" stroke="midnightblue" points="830.96,-257.9 841.54,-257.48 833,-251.21 830.96,-257.9"/>
</g>
<!-- Node27 -->
<g id="node27" class="node">
<title>Node27</title>
<g id="a_node27"><a xlink:href="../../d9/d25/trie__generic_8hpp.html" target="_top" xlink:title=" ">
<polygon fill="none" stroke="black" points="1167,-190.5 1167,-220.5 1268,-220.5 1268,-190.5 1167,-190.5"/>
<text text-anchor="start" x="1175" y="-208.5" font-family="Helvetica,sans-Serif" font-size="10.00">uxn/patl/impl/trie</text>
<text text-anchor="middle" x="1217.5" y="-197.5" font-family="Helvetica,sans-Serif" font-size="10.00">_generic.hpp</text>
</a>
</g>
</g>
<!-- Node24&#45;&gt;Node27 -->
<g id="edge35" class="edge">
<title>Node24&#45;&gt;Node27</title>
<path fill="none" stroke="midnightblue" d="M950.34,-259.12C1013.23,-246.73 1108.77,-227.92 1166.93,-216.46"/>
<polygon fill="midnightblue" stroke="midnightblue" points="949.29,-255.76 940.15,-261.13 950.64,-262.63 949.29,-255.76"/>
</g>
<!-- Node25&#45;&gt;Node9 -->
<g id="edge32" class="edge">
<title>Node25&#45;&gt;Node9</title>
<path fill="none" stroke="midnightblue" d="M737.03,-187.91C785.01,-175.18 849.29,-158.13 887.35,-148.03"/>
<polygon fill="midnightblue" stroke="midnightblue" points="736.13,-184.53 727.36,-190.48 737.92,-191.29 736.13,-184.53"/>
</g>
<!-- Node25&#45;&gt;Node10 -->
<g id="edge33" class="edge">
<title>Node25&#45;&gt;Node10</title>
<path fill="none" stroke="midnightblue" d="M665.8,-180.94C661.59,-169.54 656.79,-156.55 653.71,-148.19"/>
<polygon fill="midnightblue" stroke="midnightblue" points="662.55,-182.23 669.29,-190.4 669.11,-179.8 662.55,-182.23"/>
</g>
<!-- Node26 -->
<g id="node26" class="node">
<title>Node26</title>
<g id="a_node26"><a xlink:href="../../d8/d0a/suffix__utils_8hpp.html" target="_top" xlink:title=" ">
<polygon fill="none" stroke="black" points="434.5,-129 434.5,-148 568.5,-148 568.5,-129 434.5,-129"/>
<text text-anchor="middle" x="501.5" y="-136" font-family="Helvetica,sans-Serif" font-size="10.00">uxn/patl/suffix_utils.hpp</text>
</a>
</g>
</g>
<!-- Node25&#45;&gt;Node26 -->
<g id="edge34" class="edge">
<title>Node25&#45;&gt;Node26</title>
<path fill="none" stroke="midnightblue" d="M627.35,-186.78C593.8,-174.18 550.23,-157.81 524.14,-148.01"/>
<polygon fill="midnightblue" stroke="midnightblue" points="626.37,-190.16 636.96,-190.4 628.83,-183.6 626.37,-190.16"/>
</g>
<!-- Node27&#45;&gt;Node16 -->
<g id="edge36" class="edge">
<title>Node27&#45;&gt;Node16</title>
<path fill="none" stroke="midnightblue" d="M1256.78,-186.13C1283.53,-173.62 1317.71,-157.64 1338.31,-148.01"/>
<polygon fill="midnightblue" stroke="midnightblue" points="1255.24,-182.99 1247.66,-190.4 1258.2,-189.33 1255.24,-182.99"/>
</g>
<!-- Node27&#45;&gt;Node18 -->
<g id="edge37" class="edge">
<title>Node27&#45;&gt;Node18</title>
<path fill="none" stroke="midnightblue" d="M1217.5,-180.25C1217.5,-169.02 1217.5,-156.38 1217.5,-148.19"/>
<polygon fill="midnightblue" stroke="midnightblue" points="1214,-180.4 1217.5,-190.4 1221,-180.4 1214,-180.4"/>
</g>
<!-- Node28&#45;&gt;Node29 -->
<g id="edge39" class="edge">
<title>Node28&#45;&gt;Node29</title>
<path fill="none" stroke="midnightblue" d="M1120.84,-315C1116.8,-304.05 1111.81,-290.57 1108.65,-282.01"/>
<polygon fill="midnightblue" stroke="midnightblue" points="1117.6,-316.31 1124.35,-324.48 1124.16,-313.88 1117.6,-316.31"/>
</g>
</g>
</svg>
        <g id="navigator" transform="translate(0 0)" fill="#404254">
                <rect fill="#f2f5e9" fill-opacity="0.5" stroke="#606060" stroke-width=".5" x="0" y="0" width="60" height="60"/>
                <use id="zoomplus" xlink:href="#zoomPlus" x="17" y="9" onmousedown="handleZoom(evt,'in')"/>
                <use id="zoomminus" xlink:href="#zoomMin" x="42" y="9" onmousedown="handleZoom(evt,'out')"/>
                <use id="reset" xlink:href="#resetDef" x="30" y="36" onmousedown="handleReset()"/>
                <g id="arrowUp" xlink:href="#dirArrow" transform="translate(30 24)" onmousedown="handlePan(0,-1)">
                  <use xlink:href="#rim" fill="#404040">
                        <set attributeName="fill" to="#808080" begin="arrowUp.mouseover" end="arrowUp.mouseout"/>
                  </use>
                  <path fill="none" stroke="white" stroke-width="1.5" d="M0,-3.0v7 M-2.5,-0.5L0,-3.0L2.5,-0.5"/>
                </g>
                <g id="arrowRight" xlink:href="#dirArrow" transform="rotate(90) translate(36 -43)" onmousedown="handlePan(1,0)">
                  <use xlink:href="#rim" fill="#404040">
                        <set attributeName="fill" to="#808080" begin="arrowRight.mouseover" end="arrowRight.mouseout"/>
                  </use>
                  <path fill="none" stroke="white" stroke-width="1.5" d="M0,-3.0v7 M-2.5,-0.5L0,-3.0L2.5,-0.5"/>
                </g>
                <g id="arrowDown" xlink:href="#dirArrow" transform="rotate(180) translate(-30 -48)" onmousedown="handlePan(0,1)">
                  <use xlink:href="#rim" fill="#404040">
                        <set attributeName="fill" to="#808080" begin="arrowDown.mouseover" end="arrowDown.mouseout"/>
                  </use>
                  <path fill="none" stroke="white" stroke-width="1.5" d="M0,-3.0v7 M-2.5,-0.5L0,-3.0L2.5,-0.5"/>
                </g>
                <g id="arrowLeft" xlink:href="#dirArrow" transform="rotate(270) translate(-36 17)" onmousedown="handlePan(-1,0)">
                  <use xlink:href="#rim" fill="#404040">
                        <set attributeName="fill" to="#808080" begin="arrowLeft.mouseover" end="arrowLeft.mouseout"/>
                  </use>
                  <path fill="none" stroke="white" stroke-width="1.5" d="M0,-3.0v7 M-2.5,-0.5L0,-3.0L2.5,-0.5"/>
                </g>
        </g>
        <svg viewBox="0 0 15 15" width="100%" height="30px" preserveAspectRatio="xMaxYMin meet">
         <g id="arrow_out" transform="scale(0.3 0.3)">
          <a xlink:href="trivial_8hpp__dep__incl_org.svg" target="_base">
           <rect id="button" ry="5" rx="5" y="6" x="6" height="38" width="38"
                fill="#f2f5e9" fill-opacity="0.5" stroke="#606060" stroke-width="1.0"/>
           <path id="arrow"
             d="M 11.500037,31.436501 C 11.940474,20.09759 22.043105,11.32322 32.158766,21.979434 L 37.068811,17.246167 C 37.068811,17.246167 37.088388,32 37.088388,32 L 22.160133,31.978069 C 22.160133,31.978069 26.997745,27.140456 26.997745,27.140456 C 18.528582,18.264221 13.291696,25.230495 11.500037,31.436501 z"
             style="fill:#404040;"/>
          </a>
         </g>
        </svg>
</svg>
