<?xml version="1.0" encoding="UTF-8" standalone="no"?>
<!DOCTYPE svg PUBLIC "-//W3C//DTD SVG 1.1//EN"
 "http://www.w3.org/Graphics/SVG/1.1/DTD/svg11.dtd">
<!-- Generated by graphviz version 5.0.1 (20220820.1526)
 -->
<!-- Title: preorder_iterator_callback&lt; Vertex &gt; Pages: 1 -->
<svg width="153pt" height="193pt"
 viewBox="0.00 0.00 153.00 193.00" xmlns="http://www.w3.org/2000/svg" xmlns:xlink="http://www.w3.org/1999/xlink">
<g id="graph0" class="graph" transform="scale(1 1) rotate(0) translate(4 189)">
<title>preorder_iterator_callback&lt; Vertex &gt;</title>
<!-- Node1 -->
<g id="node1" class="node">
<title>Node1</title>
<g id="a_node1"><a xlink:title=" ">
<polygon fill="#bfbfbf" stroke="black" points="0,-0.5 0,-79.5 145,-79.5 145,-0.5 0,-0.5"/>
<text text-anchor="start" x="8" y="-67.5" font-family="Helvetica,sans-Serif" font-size="10.00">preorder_iterator_callback</text>
<text text-anchor="middle" x="72.5" y="-56.5" font-family="Helvetica,sans-Serif" font-size="10.00">&lt; Vertex &gt;</text>
<polyline fill="none" stroke="black" points="0,-49.5 145,-49.5"/>
<text text-anchor="middle" x="72.5" y="-37.5" font-family="Helvetica,sans-Serif" font-size="10.00"> </text>
<polyline fill="none" stroke="black" points="0,-30.5 145,-30.5"/>
<text text-anchor="start" x="8" y="-18.5" font-family="Helvetica,sans-Serif" font-size="10.00">+ void operator()(const</text>
<text text-anchor="start" x="8" y="-7.5" font-family="Helvetica,sans-Serif" font-size="10.00"> Vertex *vtx) const</text>
</a>
</g>
</g>
<!-- Node2 -->
<g id="node2" class="node">
<title>Node2</title>
<g id="a_node2"><a xlink:title=" ">
<polygon fill="none" stroke="black" points="17.5,-116.5 17.5,-184.5 127.5,-184.5 127.5,-116.5 17.5,-116.5"/>
<text text-anchor="start" x="25.5" y="-172.5" font-family="Helvetica,sans-Serif" font-size="10.00">std::unary_function</text>
<text text-anchor="middle" x="72.5" y="-161.5" font-family="Helvetica,sans-Serif" font-size="10.00">&lt; Vertex, void &gt;</text>
<polyline fill="none" stroke="black" points="17.5,-154.5 127.5,-154.5"/>
<text text-anchor="middle" x="72.5" y="-142.5" font-family="Helvetica,sans-Serif" font-size="10.00"> </text>
<polyline fill="none" stroke="black" points="17.5,-135.5 127.5,-135.5"/>
<text text-anchor="middle" x="72.5" y="-123.5" font-family="Helvetica,sans-Serif" font-size="10.00"> </text>
</a>
</g>
</g>
<!-- Node2&#45;&gt;Node1 -->
<g id="edge1" class="edge">
<title>Node2&#45;&gt;Node1</title>
<path fill="none" stroke="midnightblue" d="M72.5,-106.27C72.5,-97.48 72.5,-88.28 72.5,-79.65"/>
<polygon fill="none" stroke="midnightblue" points="69,-106.36 72.5,-116.36 76,-106.36 69,-106.36"/>
</g>
</g>
</svg>
