<?xml version="1.0" encoding="UTF-8" standalone="no"?>
<!DOCTYPE svg PUBLIC "-//W3C//DTD SVG 1.1//EN"
 "http://www.w3.org/Graphics/SVG/1.1/DTD/svg11.dtd">
<!-- Generated by graphviz version 5.0.1 (20220820.1526)
 -->
<!-- Title: uxn/patl/impl/trie_generic.hpp Pages: 1 -->
<!--zoomable 218 -->
<svg id="main" version="1.1" xmlns="http://www.w3.org/2000/svg" xmlns:xlink="http://www.w3.org/1999/xlink" xml:space="preserve" onload="init(evt)">
<style type="text/css"><![CDATA[
.edge:hover path { stroke: red; }
.edge:hover polygon { stroke: red; fill: red; }
]]></style>
<script type="text/javascript"><![CDATA[
var edges = document.getElementsByTagName('g');
if (edges && edges.length) {
  for (var i=0;i<edges.length;i++) {
    if (edges[i].id.substr(0,4)=='edge') {
      edges[i].setAttribute('class','edge');
    }
  }
}
]]></script>
        <defs>
                <circle id="rim" cx="0" cy="0" r="7"/>
                <circle id="rim2" cx="0" cy="0" r="3.5"/>
                <g id="zoomPlus">
                        <use xlink:href="#rim" fill="#404040">
                                <set attributeName="fill" to="#808080" begin="zoomplus.mouseover" end="zoomplus.mouseout"/>
                        </use>
                        <path d="M-4,0h8M0,-4v8" fill="none" stroke="white" stroke-width="1.5" pointer-events="none"/>
                </g>
                <g id="zoomMin">
                        <use xlink:href="#rim" fill="#404040">
                                <set attributeName="fill" to="#808080" begin="zoomminus.mouseover" end="zoomminus.mouseout"/>
                        </use>
                        <path d="M-4,0h8" fill="none" stroke="white" stroke-width="1.5" pointer-events="none"/>
                </g>
                <g id="dirArrow">
                        <path fill="none" stroke="white" stroke-width="1.5" d="M0,-3.0v7 M-2.5,-0.5L0,-3.0L2.5,-0.5"/>
                </g>
               <g id="resetDef">
                       <use xlink:href="#rim2" fill="#404040">
                               <set attributeName="fill" to="#808080" begin="reset.mouseover" end="reset.mouseout"/>
                       </use>
               </g>
        </defs>

<script type="text/javascript">
var viewWidth = 1012;
var viewHeight = 218;
var sectionId = 'dynsection-1';
</script>
<script xlink:href="../../svgpan.js"/>
<svg id="graph" class="graph">
<g id="viewport">
<title>uxn/patl/impl/trie_generic.hpp</title>
<!-- Node1 -->
<g id="node1" class="node">
<title>Node1</title>
<g id="a_node1"><a xlink:title=" ">
<polygon fill="#bfbfbf" stroke="black" points="161.53,-179.5 161.53,-209.5 262.53,-209.5 262.53,-179.5 161.53,-179.5"/>
<text text-anchor="start" x="169.53" y="-197.5" font-family="Helvetica,sans-Serif" font-size="10.00">uxn/patl/impl/trie</text>
<text text-anchor="middle" x="212.03" y="-186.5" font-family="Helvetica,sans-Serif" font-size="10.00">_generic.hpp</text>
</a>
</g>
</g>
<!-- Node2 -->
<g id="node2" class="node">
<title>Node2</title>
<g id="a_node2"><a xlink:href="../../df/dc9/trie__map_8hpp.html" target="_top" xlink:title=" ">
<polygon fill="none" stroke="black" points="8.03,-123.5 8.03,-142.5 132.03,-142.5 132.03,-123.5 8.03,-123.5"/>
<text text-anchor="middle" x="70.03" y="-130.5" font-family="Helvetica,sans-Serif" font-size="10.00">uxn/patl/trie_map.hpp</text>
</a>
</g>
</g>
<!-- Node1&#45;&gt;Node2 -->
<g id="edge1" class="edge">
<title>Node1&#45;&gt;Node2</title>
<path fill="none" stroke="midnightblue" d="M169.11,-175.52C143.13,-164.63 111.17,-151.23 90.7,-142.66"/>
<polygon fill="midnightblue" stroke="midnightblue" points="167.81,-178.76 178.38,-179.4 170.51,-172.31 167.81,-178.76"/>
</g>
<!-- Node5 -->
<g id="node5" class="node">
<title>Node5</title>
<g id="a_node5"><a xlink:href="../../d4/db1/trie__set_8hpp.html" target="_top" xlink:title=" ">
<polygon fill="none" stroke="black" points="377.53,-123.5 377.53,-142.5 494.53,-142.5 494.53,-123.5 377.53,-123.5"/>
<text text-anchor="middle" x="436.03" y="-130.5" font-family="Helvetica,sans-Serif" font-size="10.00">uxn/patl/trie_set.hpp</text>
</a>
</g>
</g>
<!-- Node1&#45;&gt;Node5 -->
<g id="edge4" class="edge">
<title>Node1&#45;&gt;Node5</title>
<path fill="none" stroke="midnightblue" d="M272.51,-177.44C314.88,-166.18 369.83,-151.59 404.01,-142.51"/>
<polygon fill="midnightblue" stroke="midnightblue" points="271.35,-174.12 262.58,-180.07 273.15,-180.89 271.35,-174.12"/>
</g>
<!-- Node3 -->
<g id="node3" class="node">
<title>Node3</title>
<g id="a_node3"><a xlink:href="../../da/d22/sort__lin_8cpp.html" target="_top" xlink:title=" ">
<polygon fill="none" stroke="black" points="15.03,-56.5 15.03,-86.5 125.03,-86.5 125.03,-56.5 15.03,-56.5"/>
<text text-anchor="start" x="23.03" y="-74.5" font-family="Helvetica,sans-Serif" font-size="10.00">uxn/demos/sort_lin</text>
<text text-anchor="middle" x="70.03" y="-63.5" font-family="Helvetica,sans-Serif" font-size="10.00">/sort_lin.cpp</text>
</a>
</g>
</g>
<!-- Node2&#45;&gt;Node3 -->
<g id="edge2" class="edge">
<title>Node2&#45;&gt;Node3</title>
<path fill="none" stroke="midnightblue" d="M70.03,-113.23C70.03,-104.59 70.03,-94.5 70.03,-86.52"/>
<polygon fill="midnightblue" stroke="midnightblue" points="66.53,-113.48 70.03,-123.48 73.53,-113.48 66.53,-113.48"/>
</g>
<!-- Node4 -->
<g id="node4" class="node">
<title>Node4</title>
<g id="a_node4"><a xlink:href="../../d5/d3f/patcont_8cpp.html" target="_top" xlink:title=" ">
<polygon fill="none" stroke="black" points="409.03,-0.5 409.03,-19.5 525.03,-19.5 525.03,-0.5 409.03,-0.5"/>
<text text-anchor="middle" x="467.03" y="-7.5" font-family="Helvetica,sans-Serif" font-size="10.00">uxn/patl/patcont.cpp</text>
</a>
</g>
</g>
<!-- Node2&#45;&gt;Node4 -->
<g id="edge3" class="edge">
<title>Node2&#45;&gt;Node4</title>
<path fill="none" stroke="midnightblue" d="M39.48,-118.56C26.71,-111.22 13.19,-100.77 6.03,-87 -0.32,-74.77 -3.22,-66.2 6.03,-56 32.61,-26.7 290.64,-15.86 408.65,-12.41"/>
<polygon fill="midnightblue" stroke="midnightblue" points="38.08,-121.77 48.55,-123.36 41.35,-115.59 38.08,-121.77"/>
</g>
<!-- Node5&#45;&gt;Node3 -->
<g id="edge9" class="edge">
<title>Node5&#45;&gt;Node3</title>
<path fill="none" stroke="midnightblue" d="M367.4,-123.26C306.03,-115.1 213.74,-101.95 134.03,-87 131.12,-86.45 128.14,-85.87 125.14,-85.26"/>
<polygon fill="midnightblue" stroke="midnightblue" points="366.98,-126.74 377.36,-124.58 367.9,-119.8 366.98,-126.74"/>
</g>
<!-- Node6 -->
<g id="node6" class="node">
<title>Node6</title>
<g id="a_node6"><a xlink:href="../../d5/d69/ins__test_8cpp.html" target="_top" xlink:title=" ">
<polygon fill="none" stroke="black" points="143.03,-56.5 143.03,-86.5 255.03,-86.5 255.03,-56.5 143.03,-56.5"/>
<text text-anchor="start" x="151.03" y="-74.5" font-family="Helvetica,sans-Serif" font-size="10.00">uxn/demos/ins_test</text>
<text text-anchor="middle" x="199.03" y="-63.5" font-family="Helvetica,sans-Serif" font-size="10.00">/ins_test.cpp</text>
</a>
</g>
</g>
<!-- Node5&#45;&gt;Node6 -->
<g id="edge5" class="edge">
<title>Node5&#45;&gt;Node6</title>
<path fill="none" stroke="midnightblue" d="M392.15,-120.98C353.44,-111.27 296.82,-97.05 254.89,-86.52"/>
<polygon fill="midnightblue" stroke="midnightblue" points="391.53,-124.43 402.08,-123.48 393.23,-117.65 391.53,-124.43"/>
</g>
<!-- Node7 -->
<g id="node7" class="node">
<title>Node7</title>
<g id="a_node7"><a xlink:href="../../d1/db2/insider_8cpp.html" target="_top" xlink:title=" ">
<polygon fill="none" stroke="black" points="273.03,-62 273.03,-81 435.03,-81 435.03,-62 273.03,-62"/>
<text text-anchor="middle" x="354.03" y="-69" font-family="Helvetica,sans-Serif" font-size="10.00">uxn/demos/insider/insider.cpp</text>
</a>
</g>
</g>
<!-- Node5&#45;&gt;Node7 -->
<g id="edge6" class="edge">
<title>Node5&#45;&gt;Node7</title>
<path fill="none" stroke="midnightblue" d="M415.77,-117.29C400.04,-105.88 378.78,-90.46 365.76,-81.01"/>
<polygon fill="midnightblue" stroke="midnightblue" points="414.14,-120.43 424.29,-123.48 418.25,-114.77 414.14,-120.43"/>
</g>
<!-- Node8 -->
<g id="node8" class="node">
<title>Node8</title>
<g id="a_node8"><a xlink:href="../../de/dd6/levenshtein_8cpp.html" target="_top" xlink:title=" ">
<polygon fill="none" stroke="black" points="453.53,-56.5 453.53,-86.5 584.53,-86.5 584.53,-56.5 453.53,-56.5"/>
<text text-anchor="start" x="461.53" y="-74.5" font-family="Helvetica,sans-Serif" font-size="10.00">uxn/demos/levenshtein</text>
<text text-anchor="middle" x="519.03" y="-63.5" font-family="Helvetica,sans-Serif" font-size="10.00">/levenshtein.cpp</text>
</a>
</g>
</g>
<!-- Node5&#45;&gt;Node8 -->
<g id="edge7" class="edge">
<title>Node5&#45;&gt;Node8</title>
<path fill="none" stroke="midnightblue" d="M456.31,-117.47C469.45,-108.05 486.47,-95.84 499.47,-86.52"/>
<polygon fill="midnightblue" stroke="midnightblue" points="454.01,-114.8 447.93,-123.48 458.09,-120.49 454.01,-114.8"/>
</g>
<!-- Node9 -->
<g id="node9" class="node">
<title>Node9</title>
<g id="a_node9"><a xlink:href="../../d6/de8/muxoclon_8cpp.html" target="_top" xlink:title=" ">
<polygon fill="none" stroke="black" points="602.53,-56.5 602.53,-86.5 723.53,-86.5 723.53,-56.5 602.53,-56.5"/>
<text text-anchor="start" x="610.53" y="-74.5" font-family="Helvetica,sans-Serif" font-size="10.00">uxn/demos/muxoclon</text>
<text text-anchor="middle" x="663.03" y="-63.5" font-family="Helvetica,sans-Serif" font-size="10.00">/muxoclon.cpp</text>
</a>
</g>
</g>
<!-- Node5&#45;&gt;Node9 -->
<g id="edge8" class="edge">
<title>Node5&#45;&gt;Node9</title>
<path fill="none" stroke="midnightblue" d="M478.54,-120.86C515.6,-111.14 569.54,-97.01 609.53,-86.52"/>
<polygon fill="midnightblue" stroke="midnightblue" points="477.34,-117.55 468.56,-123.48 479.12,-124.33 477.34,-117.55"/>
</g>
<!-- Node10 -->
<g id="node10" class="node">
<title>Node10</title>
<g id="a_node10"><a xlink:href="../../d1/d40/word__suffix_8cpp.html" target="_top" xlink:title=" ">
<polygon fill="none" stroke="black" points="742.03,-56.5 742.03,-86.5 872.03,-86.5 872.03,-56.5 742.03,-56.5"/>
<text text-anchor="start" x="750.03" y="-74.5" font-family="Helvetica,sans-Serif" font-size="10.00">uxn/demos/word_suffix</text>
<text text-anchor="middle" x="807.03" y="-63.5" font-family="Helvetica,sans-Serif" font-size="10.00">/word_suffix.cpp</text>
</a>
</g>
</g>
<!-- Node5&#45;&gt;Node10 -->
<g id="edge10" class="edge">
<title>Node5&#45;&gt;Node10</title>
<path fill="none" stroke="midnightblue" d="M504.92,-122.42C565.2,-113.83 655.08,-100.54 733.03,-87 735.87,-86.51 738.77,-85.99 741.69,-85.46"/>
<polygon fill="midnightblue" stroke="midnightblue" points="504.17,-118.99 494.76,-123.86 505.15,-125.92 504.17,-118.99"/>
</g>
<!-- Node11 -->
<g id="node11" class="node">
<title>Node11</title>
<g id="a_node11"><a xlink:href="../../db/d8f/priority_8hpp.html" target="_top" xlink:title=" ">
<polygon fill="none" stroke="black" points="890.03,-62 890.03,-81 1004.03,-81 1004.03,-62 890.03,-62"/>
<text text-anchor="middle" x="947.03" y="-69" font-family="Helvetica,sans-Serif" font-size="10.00">uxn/patl/priority.hpp</text>
</a>
</g>
</g>
<!-- Node5&#45;&gt;Node11 -->
<g id="edge11" class="edge">
<title>Node5&#45;&gt;Node11</title>
<path fill="none" stroke="midnightblue" d="M504.71,-127.53C592.4,-121.25 748.64,-108.16 881.03,-87 891.11,-85.39 901.96,-83.2 911.9,-81.01"/>
<polygon fill="midnightblue" stroke="midnightblue" points="504.35,-124.04 494.63,-128.24 504.85,-131.03 504.35,-124.04"/>
</g>
<!-- Node11&#45;&gt;Node4 -->
<g id="edge12" class="edge">
<title>Node11&#45;&gt;Node4</title>
<path fill="none" stroke="midnightblue" d="M901.64,-59.85C894.76,-58.43 887.72,-57.1 881.03,-56 754.93,-35.36 605.6,-21.77 525.24,-15.33"/>
<polygon fill="midnightblue" stroke="midnightblue" points="901.04,-63.3 911.55,-61.97 902.5,-56.46 901.04,-63.3"/>
</g>
</g>
</svg>
        <g id="navigator" transform="translate(0 0)" fill="#404254">
                <rect fill="#f2f5e9" fill-opacity="0.5" stroke="#606060" stroke-width=".5" x="0" y="0" width="60" height="60"/>
                <use id="zoomplus" xlink:href="#zoomPlus" x="17" y="9" onmousedown="handleZoom(evt,'in')"/>
                <use id="zoomminus" xlink:href="#zoomMin" x="42" y="9" onmousedown="handleZoom(evt,'out')"/>
                <use id="reset" xlink:href="#resetDef" x="30" y="36" onmousedown="handleReset()"/>
                <g id="arrowUp" xlink:href="#dirArrow" transform="translate(30 24)" onmousedown="handlePan(0,-1)">
                  <use xlink:href="#rim" fill="#404040">
                        <set attributeName="fill" to="#808080" begin="arrowUp.mouseover" end="arrowUp.mouseout"/>
                  </use>
                  <path fill="none" stroke="white" stroke-width="1.5" d="M0,-3.0v7 M-2.5,-0.5L0,-3.0L2.5,-0.5"/>
                </g>
                <g id="arrowRight" xlink:href="#dirArrow" transform="rotate(90) translate(36 -43)" onmousedown="handlePan(1,0)">
                  <use xlink:href="#rim" fill="#404040">
                        <set attributeName="fill" to="#808080" begin="arrowRight.mouseover" end="arrowRight.mouseout"/>
                  </use>
                  <path fill="none" stroke="white" stroke-width="1.5" d="M0,-3.0v7 M-2.5,-0.5L0,-3.0L2.5,-0.5"/>
                </g>
                <g id="arrowDown" xlink:href="#dirArrow" transform="rotate(180) translate(-30 -48)" onmousedown="handlePan(0,1)">
                  <use xlink:href="#rim" fill="#404040">
                        <set attributeName="fill" to="#808080" begin="arrowDown.mouseover" end="arrowDown.mouseout"/>
                  </use>
                  <path fill="none" stroke="white" stroke-width="1.5" d="M0,-3.0v7 M-2.5,-0.5L0,-3.0L2.5,-0.5"/>
                </g>
                <g id="arrowLeft" xlink:href="#dirArrow" transform="rotate(270) translate(-36 17)" onmousedown="handlePan(-1,0)">
                  <use xlink:href="#rim" fill="#404040">
                        <set attributeName="fill" to="#808080" begin="arrowLeft.mouseover" end="arrowLeft.mouseout"/>
                  </use>
                  <path fill="none" stroke="white" stroke-width="1.5" d="M0,-3.0v7 M-2.5,-0.5L0,-3.0L2.5,-0.5"/>
                </g>
        </g>
        <svg viewBox="0 0 15 15" width="100%" height="30px" preserveAspectRatio="xMaxYMin meet">
         <g id="arrow_out" transform="scale(0.3 0.3)">
          <a xlink:href="trie__generic_8hpp__dep__incl_org.svg" target="_base">
           <rect id="button" ry="5" rx="5" y="6" x="6" height="38" width="38"
                fill="#f2f5e9" fill-opacity="0.5" stroke="#606060" stroke-width="1.0"/>
           <path id="arrow"
             d="M 11.500037,31.436501 C 11.940474,20.09759 22.043105,11.32322 32.158766,21.979434 L 37.068811,17.246167 C 37.068811,17.246167 37.088388,32 37.088388,32 L 22.160133,31.978069 C 22.160133,31.978069 26.997745,27.140456 26.997745,27.140456 C 18.528582,18.264221 13.291696,25.230495 11.500037,31.436501 z"
             style="fill:#404040;"/>
          </a>
         </g>
        </svg>
</svg>
