<?xml version="1.0" encoding="UTF-8" standalone="no"?>
<!DOCTYPE svg PUBLIC "-//W3C//DTD SVG 1.1//EN"
 "http://www.w3.org/Graphics/SVG/1.1/DTD/svg11.dtd">
<!-- Generated by graphviz version 5.0.1 (20220820.1526)
 -->
<!-- Title: uxn::patl::bit_comparator&lt; T **, 0 &gt; Pages: 1 -->
<svg width="320pt" height="493pt"
 viewBox="0.00 0.00 320.00 493.00" xmlns="http://www.w3.org/2000/svg" xmlns:xlink="http://www.w3.org/1999/xlink">
<g id="graph0" class="graph" transform="scale(1 1) rotate(0) translate(4 489)">
<title>uxn::patl::bit_comparator&lt; T **, 0 &gt;</title>
<!-- Node1 -->
<g id="node1" class="node">
<title>Node1</title>
<g id="a_node1"><a xlink:title="simple infinite (T**) string (treat (T*) as word_t)">
<polygon fill="#bfbfbf" stroke="black" points="82.5,-117.5 82.5,-262.5 228.5,-262.5 228.5,-117.5 82.5,-117.5"/>
<text text-anchor="start" x="90.5" y="-250.5" font-family="Helvetica,sans-Serif" font-size="10.00">uxn::patl::bit_comparator</text>
<text text-anchor="middle" x="155.5" y="-239.5" font-family="Helvetica,sans-Serif" font-size="10.00">&lt; T **, 0 &gt;</text>
<polyline fill="none" stroke="black" points="82.5,-232.5 228.5,-232.5"/>
<text text-anchor="start" x="90.5" y="-220.5" font-family="Helvetica,sans-Serif" font-size="10.00">+ static const word_t</text>
<text text-anchor="start" x="90.5" y="-209.5" font-family="Helvetica,sans-Serif" font-size="10.00"> bit_size</text>
<polyline fill="none" stroke="black" points="82.5,-202.5 228.5,-202.5"/>
<text text-anchor="start" x="90.5" y="-190.5" font-family="Helvetica,sans-Serif" font-size="10.00">+ word_t bit_length(T</text>
<text text-anchor="start" x="90.5" y="-179.5" font-family="Helvetica,sans-Serif" font-size="10.00"> *const *) const</text>
<text text-anchor="start" x="90.5" y="-168.5" font-family="Helvetica,sans-Serif" font-size="10.00">+ word_t get_bit(T *const</text>
<text text-anchor="start" x="90.5" y="-157.5" font-family="Helvetica,sans-Serif" font-size="10.00"> *s, word_t id) const</text>
<text text-anchor="start" x="90.5" y="-146.5" font-family="Helvetica,sans-Serif" font-size="10.00">+ word_t bit_mismatch</text>
<text text-anchor="start" x="90.5" y="-135.5" font-family="Helvetica,sans-Serif" font-size="10.00">(T *const *ap, T *const</text>
<text text-anchor="start" x="90.5" y="-124.5" font-family="Helvetica,sans-Serif" font-size="10.00"> *bp, word_t skip=0) const</text>
</a>
</g>
</g>
<!-- Node4 -->
<g id="node4" class="node">
<title>Node4</title>
<g id="a_node4"><a xlink:href="../../d2/deb/classuxn_1_1patl_1_1bit__comparator_3_01T_01_5_5_00_0116_01_4.html" target="_top" xlink:title=" ">
<polygon fill="none" stroke="black" points="0,-0.5 0,-79.5 147,-79.5 147,-0.5 0,-0.5"/>
<text text-anchor="start" x="8" y="-67.5" font-family="Helvetica,sans-Serif" font-size="10.00">uxn::patl::bit_comparator</text>
<text text-anchor="middle" x="73.5" y="-56.5" font-family="Helvetica,sans-Serif" font-size="10.00">&lt; T **, 16 &gt;</text>
<polyline fill="none" stroke="black" points="0,-49.5 147,-49.5"/>
<text text-anchor="middle" x="73.5" y="-37.5" font-family="Helvetica,sans-Serif" font-size="10.00"> </text>
<polyline fill="none" stroke="black" points="0,-30.5 147,-30.5"/>
<text text-anchor="start" x="8" y="-18.5" font-family="Helvetica,sans-Serif" font-size="10.00">+ word_t get_bits(T *const</text>
<text text-anchor="start" x="8" y="-7.5" font-family="Helvetica,sans-Serif" font-size="10.00"> *s, word_t off) const</text>
</a>
</g>
</g>
<!-- Node1&#45;&gt;Node4 -->
<g id="edge3" class="edge">
<title>Node1&#45;&gt;Node4</title>
<path fill="none" stroke="midnightblue" d="M110.82,-108.36C105.29,-98.37 99.84,-88.54 94.89,-79.61"/>
<polygon fill="none" stroke="midnightblue" points="107.79,-110.12 115.7,-117.17 113.92,-106.72 107.79,-110.12"/>
</g>
<!-- Node5 -->
<g id="node5" class="node">
<title>Node5</title>
<g id="a_node5"><a xlink:href="../../d4/da8/classuxn_1_1patl_1_1bit__comparator_3_01T_01_5_5_00_018_01_4.html" target="_top" xlink:title=" ">
<polygon fill="none" stroke="black" points="165,-0.5 165,-79.5 312,-79.5 312,-0.5 165,-0.5"/>
<text text-anchor="start" x="173" y="-67.5" font-family="Helvetica,sans-Serif" font-size="10.00">uxn::patl::bit_comparator</text>
<text text-anchor="middle" x="238.5" y="-56.5" font-family="Helvetica,sans-Serif" font-size="10.00">&lt; T **, 8 &gt;</text>
<polyline fill="none" stroke="black" points="165,-49.5 312,-49.5"/>
<text text-anchor="middle" x="238.5" y="-37.5" font-family="Helvetica,sans-Serif" font-size="10.00"> </text>
<polyline fill="none" stroke="black" points="165,-30.5 312,-30.5"/>
<text text-anchor="start" x="173" y="-18.5" font-family="Helvetica,sans-Serif" font-size="10.00">+ word_t get_bits(T *const</text>
<text text-anchor="start" x="173" y="-7.5" font-family="Helvetica,sans-Serif" font-size="10.00"> *s, word_t off) const</text>
</a>
</g>
</g>
<!-- Node1&#45;&gt;Node5 -->
<g id="edge4" class="edge">
<title>Node1&#45;&gt;Node5</title>
<path fill="none" stroke="midnightblue" d="M200.72,-108.36C206.33,-98.37 211.84,-88.54 216.85,-79.61"/>
<polygon fill="none" stroke="midnightblue" points="197.62,-106.73 195.78,-117.17 203.73,-110.16 197.62,-106.73"/>
</g>
<!-- Node2 -->
<g id="node2" class="node">
<title>Node2</title>
<g id="a_node2"><a xlink:href="../../d2/db7/classuxn_1_1patl_1_1bit__comparator.html" target="_top" xlink:title=" ">
<polygon fill="none" stroke="black" points="85.5,-300.5 85.5,-368.5 225.5,-368.5 225.5,-300.5 85.5,-300.5"/>
<text text-anchor="start" x="93.5" y="-356.5" font-family="Helvetica,sans-Serif" font-size="10.00">uxn::patl::bit_comparator</text>
<text text-anchor="middle" x="155.5" y="-345.5" font-family="Helvetica,sans-Serif" font-size="10.00">&lt; word_t, 0 &gt;</text>
<polyline fill="none" stroke="black" points="85.5,-338.5 225.5,-338.5"/>
<text text-anchor="middle" x="155.5" y="-326.5" font-family="Helvetica,sans-Serif" font-size="10.00"> </text>
<polyline fill="none" stroke="black" points="85.5,-319.5 225.5,-319.5"/>
<text text-anchor="middle" x="155.5" y="-307.5" font-family="Helvetica,sans-Serif" font-size="10.00"> </text>
</a>
</g>
</g>
<!-- Node2&#45;&gt;Node1 -->
<g id="edge1" class="edge">
<title>Node2&#45;&gt;Node1</title>
<path fill="none" stroke="midnightblue" d="M155.5,-290.19C155.5,-281.48 155.5,-272.11 155.5,-262.72"/>
<polygon fill="none" stroke="midnightblue" points="152,-290.45 155.5,-300.45 159,-290.45 152,-290.45"/>
</g>
<!-- Node3 -->
<g id="node3" class="node">
<title>Node3</title>
<g id="a_node3"><a xlink:href="../../d2/db7/classuxn_1_1patl_1_1bit__comparator.html" target="_top" xlink:title=" ">
<polygon fill="none" stroke="black" points="85.5,-416.5 85.5,-484.5 225.5,-484.5 225.5,-416.5 85.5,-416.5"/>
<text text-anchor="start" x="93.5" y="-472.5" font-family="Helvetica,sans-Serif" font-size="10.00">uxn::patl::bit_comparator</text>
<text text-anchor="middle" x="155.5" y="-461.5" font-family="Helvetica,sans-Serif" font-size="10.00">&lt; T, N &gt;</text>
<polyline fill="none" stroke="black" points="85.5,-454.5 225.5,-454.5"/>
<text text-anchor="middle" x="155.5" y="-442.5" font-family="Helvetica,sans-Serif" font-size="10.00"> </text>
<polyline fill="none" stroke="black" points="85.5,-435.5 225.5,-435.5"/>
<text text-anchor="middle" x="155.5" y="-423.5" font-family="Helvetica,sans-Serif" font-size="10.00"> </text>
</a>
</g>
</g>
<!-- Node3&#45;&gt;Node2 -->
<g id="edge2" class="edge">
<title>Node3&#45;&gt;Node2</title>
<path fill="none" stroke="orange" d="M155.5,-406.06C155.5,-393.64 155.5,-380.32 155.5,-368.62"/>
<polygon fill="orange" stroke="orange" points="152,-406.22 155.5,-416.22 159,-406.22 152,-406.22"/>
<text text-anchor="middle" x="191" y="-390" font-family="Helvetica,sans-Serif" font-size="10.00"> &lt; word_t, 0 &gt;</text>
</g>
</g>
</svg>
