<?xml version="1.0" encoding="UTF-8" standalone="no"?>
<!DOCTYPE svg PUBLIC "-//W3C//DTD SVG 1.1//EN"
 "http://www.w3.org/Graphics/SVG/1.1/DTD/svg11.dtd">
<!-- Generated by graphviz version 5.0.1 (20220820.1526)
 -->
<!-- Title: uxn/patl/impl/core_algorithm.hpp Pages: 1 -->
<svg width="312pt" height="207pt"
 viewBox="0.00 0.00 311.50 207.00" xmlns="http://www.w3.org/2000/svg" xmlns:xlink="http://www.w3.org/1999/xlink">
<g id="graph0" class="graph" transform="scale(1 1) rotate(0) translate(4 203)">
<title>uxn/patl/impl/core_algorithm.hpp</title>
<!-- Node1 -->
<g id="node1" class="node">
<title>Node1</title>
<g id="a_node1"><a xlink:title=" ">
<polygon fill="#bfbfbf" stroke="black" points="30.5,-168.5 30.5,-198.5 135.5,-198.5 135.5,-168.5 30.5,-168.5"/>
<text text-anchor="start" x="38.5" y="-186.5" font-family="Helvetica,sans-Serif" font-size="10.00">uxn/patl/impl/core</text>
<text text-anchor="middle" x="83" y="-175.5" font-family="Helvetica,sans-Serif" font-size="10.00">_algorithm.hpp</text>
</a>
</g>
</g>
<!-- Node2 -->
<g id="node2" class="node">
<title>Node2</title>
<g id="a_node2"><a xlink:href="../../de/d55/algorithm_8hpp.html" target="_top" xlink:title=" ">
<polygon fill="none" stroke="black" points="40.5,-112.5 40.5,-131.5 125.5,-131.5 125.5,-112.5 40.5,-112.5"/>
<text text-anchor="middle" x="83" y="-119.5" font-family="Helvetica,sans-Serif" font-size="10.00">algorithm.hpp</text>
</a>
</g>
</g>
<!-- Node1&#45;&gt;Node2 -->
<g id="edge1" class="edge">
<title>Node1&#45;&gt;Node2</title>
<path fill="none" stroke="midnightblue" d="M83,-168.4C83,-160.47 83,-150.46 83,-141.86"/>
<polygon fill="midnightblue" stroke="midnightblue" points="86.5,-141.66 83,-131.66 79.5,-141.66 86.5,-141.66"/>
</g>
<!-- Node3 -->
<g id="node3" class="node">
<title>Node3</title>
<g id="a_node3"><a xlink:href="../../d8/dfd/config_8hpp.html" target="_top" xlink:title=" ">
<polygon fill="none" stroke="black" points="0,-0.5 0,-19.5 76,-19.5 76,-0.5 0,-0.5"/>
<text text-anchor="middle" x="38" y="-7.5" font-family="Helvetica,sans-Serif" font-size="10.00">../config.hpp</text>
</a>
</g>
</g>
<!-- Node2&#45;&gt;Node3 -->
<g id="edge2" class="edge">
<title>Node2&#45;&gt;Node3</title>
<path fill="none" stroke="midnightblue" d="M79.47,-112.37C72.14,-94.46 55.15,-52.92 45.34,-28.95"/>
<polygon fill="midnightblue" stroke="midnightblue" points="48.54,-27.52 41.51,-19.59 42.06,-30.17 48.54,-27.52"/>
</g>
<!-- Node4 -->
<g id="node4" class="node">
<title>Node4</title>
<g id="a_node4"><a xlink:href="../../d9/d3a/trivial_8hpp.html" target="_top" xlink:title=" ">
<polygon fill="none" stroke="black" points="96,-56.5 96,-75.5 162,-75.5 162,-56.5 96,-56.5"/>
<text text-anchor="middle" x="129" y="-63.5" font-family="Helvetica,sans-Serif" font-size="10.00">trivial.hpp</text>
</a>
</g>
</g>
<!-- Node2&#45;&gt;Node4 -->
<g id="edge3" class="edge">
<title>Node2&#45;&gt;Node4</title>
<path fill="none" stroke="midnightblue" d="M90.6,-112.08C97.23,-104.3 107.02,-92.8 115.06,-83.37"/>
<polygon fill="midnightblue" stroke="midnightblue" points="117.73,-85.63 121.55,-75.75 112.4,-81.09 117.73,-85.63"/>
</g>
<!-- Node4&#45;&gt;Node3 -->
<g id="edge4" class="edge">
<title>Node4&#45;&gt;Node3</title>
<path fill="none" stroke="midnightblue" d="M114.38,-56.32C100.05,-47.82 77.99,-34.73 61.25,-24.8"/>
<polygon fill="midnightblue" stroke="midnightblue" points="62.97,-21.75 52.58,-19.65 59.4,-27.77 62.97,-21.75"/>
</g>
<!-- Node5 -->
<g id="node5" class="node">
<title>Node5</title>
<g id="a_node5"><a xlink:title=" ">
<polygon fill="none" stroke="#bfbfbf" points="94.5,-0.5 94.5,-19.5 163.5,-19.5 163.5,-0.5 94.5,-0.5"/>
<text text-anchor="middle" x="129" y="-7.5" font-family="Helvetica,sans-Serif" font-size="10.00">type_traits</text>
</a>
</g>
</g>
<!-- Node4&#45;&gt;Node5 -->
<g id="edge5" class="edge">
<title>Node4&#45;&gt;Node5</title>
<path fill="none" stroke="midnightblue" d="M129,-56.08C129,-49.01 129,-38.86 129,-29.99"/>
<polygon fill="midnightblue" stroke="midnightblue" points="132.5,-29.75 129,-19.75 125.5,-29.75 132.5,-29.75"/>
</g>
<!-- Node6 -->
<g id="node6" class="node">
<title>Node6</title>
<g id="a_node6"><a xlink:title=" ">
<polygon fill="none" stroke="#bfbfbf" points="182,-0.5 182,-19.5 234,-19.5 234,-0.5 182,-0.5"/>
<text text-anchor="middle" x="208" y="-7.5" font-family="Helvetica,sans-Serif" font-size="10.00">cassert</text>
</a>
</g>
</g>
<!-- Node4&#45;&gt;Node6 -->
<g id="edge6" class="edge">
<title>Node4&#45;&gt;Node6</title>
<path fill="none" stroke="midnightblue" d="M141.69,-56.32C153.9,-47.98 172.58,-35.21 187,-25.35"/>
<polygon fill="midnightblue" stroke="midnightblue" points="189.06,-28.19 195.34,-19.65 185.11,-22.41 189.06,-28.19"/>
</g>
<!-- Node7 -->
<g id="node7" class="node">
<title>Node7</title>
<g id="a_node7"><a xlink:title=" ">
<polygon fill="none" stroke="#bfbfbf" points="252.5,-0.5 252.5,-19.5 303.5,-19.5 303.5,-0.5 252.5,-0.5"/>
<text text-anchor="middle" x="278" y="-7.5" font-family="Helvetica,sans-Serif" font-size="10.00">intrin.h</text>
</a>
</g>
</g>
<!-- Node4&#45;&gt;Node7 -->
<g id="edge7" class="edge">
<title>Node4&#45;&gt;Node7</title>
<path fill="none" stroke="midnightblue" d="M152.61,-56.44C177.46,-47.44 216.77,-33.19 244.75,-23.05"/>
<polygon fill="midnightblue" stroke="midnightblue" points="246.29,-26.21 254.5,-19.52 243.91,-19.63 246.29,-26.21"/>
</g>
</g>
</svg>
