<?xml version="1.0" encoding="UTF-8" standalone="no"?>
<!DOCTYPE svg PUBLIC "-//W3C//DTD SVG 1.1//EN"
 "http://www.w3.org/Graphics/SVG/1.1/DTD/svg11.dtd">
<!-- Generated by graphviz version 5.0.1 (20220820.1526)
 -->
<!-- Title: uxn/patl/suffix_set.hpp Pages: 1 -->
<svg width="1151pt" height="95pt"
 viewBox="0.00 0.00 1151.00 95.00" xmlns="http://www.w3.org/2000/svg" xmlns:xlink="http://www.w3.org/1999/xlink">
<g id="graph0" class="graph" transform="scale(1 1) rotate(0) translate(4 91)">
<title>uxn/patl/suffix_set.hpp</title>
<!-- Node1 -->
<g id="node1" class="node">
<title>Node1</title>
<g id="a_node1"><a xlink:title=" ">
<polygon fill="#bfbfbf" stroke="black" points="535,-67.5 535,-86.5 663,-86.5 663,-67.5 535,-67.5"/>
<text text-anchor="middle" x="599" y="-74.5" font-family="Helvetica,sans-Serif" font-size="10.00">uxn/patl/suffix_set.hpp</text>
</a>
</g>
</g>
<!-- Node2 -->
<g id="node2" class="node">
<title>Node2</title>
<g id="a_node2"><a xlink:href="../../d1/db2/insider_8cpp.html" target="_top" xlink:title=" ">
<polygon fill="none" stroke="black" points="0,-6 0,-25 162,-25 162,-6 0,-6"/>
<text text-anchor="middle" x="81" y="-13" font-family="Helvetica,sans-Serif" font-size="10.00">uxn/demos/insider/insider.cpp</text>
</a>
</g>
</g>
<!-- Node1&#45;&gt;Node2 -->
<g id="edge1" class="edge">
<title>Node1&#45;&gt;Node2</title>
<path fill="none" stroke="midnightblue" d="M524.57,-69.43C439.07,-61.58 294.66,-47.45 171,-31 157.98,-29.27 143.94,-27.13 130.91,-25.04"/>
<polygon fill="midnightblue" stroke="midnightblue" points="524.42,-72.93 534.7,-70.35 525.06,-65.96 524.42,-72.93"/>
</g>
<!-- Node3 -->
<g id="node3" class="node">
<title>Node3</title>
<g id="a_node3"><a xlink:href="../../d3/d87/lz77_8cpp.html" target="_top" xlink:title=" ">
<polygon fill="none" stroke="black" points="180.5,-6 180.5,-25 317.5,-25 317.5,-6 180.5,-6"/>
<text text-anchor="middle" x="249" y="-13" font-family="Helvetica,sans-Serif" font-size="10.00">uxn/demos/lz77/lz77.cpp</text>
</a>
</g>
</g>
<!-- Node1&#45;&gt;Node3 -->
<g id="edge2" class="edge">
<title>Node1&#45;&gt;Node3</title>
<path fill="none" stroke="midnightblue" d="M535.05,-65.88C479.68,-57.02 397.47,-43.62 326,-31 315.42,-29.13 304.03,-27.04 293.35,-25.03"/>
<polygon fill="midnightblue" stroke="midnightblue" points="534.64,-69.36 545.07,-67.48 535.74,-62.45 534.64,-69.36"/>
</g>
<!-- Node4 -->
<g id="node4" class="node">
<title>Node4</title>
<g id="a_node4"><a xlink:href="../../d7/d82/maxpals_8cpp.html" target="_top" xlink:title=" ">
<polygon fill="none" stroke="black" points="335.5,-6 335.5,-25 516.5,-25 516.5,-6 335.5,-6"/>
<text text-anchor="middle" x="426" y="-13" font-family="Helvetica,sans-Serif" font-size="10.00">uxn/demos/maxpals/maxpals.cpp</text>
</a>
</g>
</g>
<!-- Node1&#45;&gt;Node4 -->
<g id="edge3" class="edge">
<title>Node1&#45;&gt;Node4</title>
<path fill="none" stroke="midnightblue" d="M564.35,-64.08C530.72,-52.52 480.52,-35.25 450.74,-25.01"/>
<polygon fill="midnightblue" stroke="midnightblue" points="563.62,-67.53 574.21,-67.48 565.9,-60.91 563.62,-67.53"/>
</g>
<!-- Node5 -->
<g id="node5" class="node">
<title>Node5</title>
<g id="a_node5"><a xlink:href="../../d2/d55/multi__align_8cpp.html" target="_top" xlink:title=" ">
<polygon fill="none" stroke="black" points="535,-0.5 535,-30.5 663,-30.5 663,-0.5 535,-0.5"/>
<text text-anchor="start" x="543" y="-18.5" font-family="Helvetica,sans-Serif" font-size="10.00">uxn/demos/multi_align</text>
<text text-anchor="middle" x="599" y="-7.5" font-family="Helvetica,sans-Serif" font-size="10.00">/multi_align.cpp</text>
</a>
</g>
</g>
<!-- Node1&#45;&gt;Node5 -->
<g id="edge4" class="edge">
<title>Node1&#45;&gt;Node5</title>
<path fill="none" stroke="midnightblue" d="M599,-57.23C599,-48.59 599,-38.5 599,-30.52"/>
<polygon fill="midnightblue" stroke="midnightblue" points="595.5,-57.48 599,-67.48 602.5,-57.48 595.5,-57.48"/>
</g>
<!-- Node6 -->
<g id="node6" class="node">
<title>Node6</title>
<g id="a_node6"><a xlink:href="../../d5/d74/multi__search_8cpp.html" target="_top" xlink:title=" ">
<polygon fill="none" stroke="black" points="681.5,-0.5 681.5,-30.5 818.5,-30.5 818.5,-0.5 681.5,-0.5"/>
<text text-anchor="start" x="689.5" y="-18.5" font-family="Helvetica,sans-Serif" font-size="10.00">uxn/demos/multi_search</text>
<text text-anchor="middle" x="750" y="-7.5" font-family="Helvetica,sans-Serif" font-size="10.00">/multi_search.cpp</text>
</a>
</g>
</g>
<!-- Node1&#45;&gt;Node6 -->
<g id="edge5" class="edge">
<title>Node1&#45;&gt;Node6</title>
<path fill="none" stroke="midnightblue" d="M630.17,-63.72C654.67,-54.06 688.83,-40.6 714.41,-30.52"/>
<polygon fill="midnightblue" stroke="midnightblue" points="628.66,-60.55 620.63,-67.48 631.22,-67.07 628.66,-60.55"/>
</g>
<!-- Node7 -->
<g id="node7" class="node">
<title>Node7</title>
<g id="a_node7"><a xlink:href="../../d9/de5/usort3_8cpp.html" target="_top" xlink:title=" ">
<polygon fill="none" stroke="black" points="837,-6 837,-25 995,-25 995,-6 837,-6"/>
<text text-anchor="middle" x="916" y="-13" font-family="Helvetica,sans-Serif" font-size="10.00">uxn/demos/usort3/usort3.cpp</text>
</a>
</g>
</g>
<!-- Node1&#45;&gt;Node7 -->
<g id="edge6" class="edge">
<title>Node1&#45;&gt;Node7</title>
<path fill="none" stroke="midnightblue" d="M654.32,-65.62C715.71,-54.09 813.62,-35.72 870.67,-25.01"/>
<polygon fill="midnightblue" stroke="midnightblue" points="653.6,-62.19 644.42,-67.48 654.89,-69.07 653.6,-62.19"/>
</g>
<!-- Node8 -->
<g id="node8" class="node">
<title>Node8</title>
<g id="a_node8"><a xlink:href="../../d1/d40/word__suffix_8cpp.html" target="_top" xlink:title=" ">
<polygon fill="none" stroke="black" points="1013,-0.5 1013,-30.5 1143,-30.5 1143,-0.5 1013,-0.5"/>
<text text-anchor="start" x="1021" y="-18.5" font-family="Helvetica,sans-Serif" font-size="10.00">uxn/demos/word_suffix</text>
<text text-anchor="middle" x="1078" y="-7.5" font-family="Helvetica,sans-Serif" font-size="10.00">/word_suffix.cpp</text>
</a>
</g>
</g>
<!-- Node1&#45;&gt;Node8 -->
<g id="edge7" class="edge">
<title>Node1&#45;&gt;Node8</title>
<path fill="none" stroke="midnightblue" d="M673.2,-69.62C754.6,-62.18 888.99,-48.63 1004,-31 1006.85,-30.56 1009.75,-30.1 1012.68,-29.6"/>
<polygon fill="midnightblue" stroke="midnightblue" points="672.69,-66.15 663.05,-70.54 673.32,-73.12 672.69,-66.15"/>
</g>
</g>
</svg>
