<?xml version="1.0" encoding="UTF-8" standalone="no"?>
<!DOCTYPE svg PUBLIC "-//W3C//DTD SVG 1.1//EN"
 "http://www.w3.org/Graphics/SVG/1.1/DTD/svg11.dtd">
<!-- Generated by graphviz version 5.0.1 (20220820.1526)
 -->
<!-- Title: uxn::patl::levenshtein_ms_distance&lt; Container, SameLength &gt; Pages: 1 -->
<!--zoomable 1230 -->
<svg id="main" version="1.1" xmlns="http://www.w3.org/2000/svg" xmlns:xlink="http://www.w3.org/1999/xlink" xml:space="preserve" onload="init(evt)">
<style type="text/css"><![CDATA[
.edge:hover path { stroke: red; }
.edge:hover polygon { stroke: red; fill: red; }
]]></style>
<script type="text/javascript"><![CDATA[
var edges = document.getElementsByTagName('g');
if (edges && edges.length) {
  for (var i=0;i<edges.length;i++) {
    if (edges[i].id.substr(0,4)=='edge') {
      edges[i].setAttribute('class','edge');
    }
  }
}
]]></script>
        <defs>
                <circle id="rim" cx="0" cy="0" r="7"/>
                <circle id="rim2" cx="0" cy="0" r="3.5"/>
                <g id="zoomPlus">
                        <use xlink:href="#rim" fill="#404040">
                                <set attributeName="fill" to="#808080" begin="zoomplus.mouseover" end="zoomplus.mouseout"/>
                        </use>
                        <path d="M-4,0h8M0,-4v8" fill="none" stroke="white" stroke-width="1.5" pointer-events="none"/>
                </g>
                <g id="zoomMin">
                        <use xlink:href="#rim" fill="#404040">
                                <set attributeName="fill" to="#808080" begin="zoomminus.mouseover" end="zoomminus.mouseout"/>
                        </use>
                        <path d="M-4,0h8" fill="none" stroke="white" stroke-width="1.5" pointer-events="none"/>
                </g>
                <g id="dirArrow">
                        <path fill="none" stroke="white" stroke-width="1.5" d="M0,-3.0v7 M-2.5,-0.5L0,-3.0L2.5,-0.5"/>
                </g>
               <g id="resetDef">
                       <use xlink:href="#rim2" fill="#404040">
                               <set attributeName="fill" to="#808080" begin="reset.mouseover" end="reset.mouseout"/>
                       </use>
               </g>
        </defs>

<script type="text/javascript">
var viewWidth = 482;
var viewHeight = 1230;
var sectionId = 'dynsection-1';
</script>
<script xlink:href="../../svgpan.js"/>
<svg id="graph" class="graph">
<g id="viewport">
<title>uxn::patl::levenshtein_ms_distance&lt; Container, SameLength &gt;</title>
<!-- Node1 -->
<g id="node1" class="node">
<title>Node1</title>
<g id="a_node1"><a xlink:title="Levenshtein distance with merges and splits decision functor.">
<polygon fill="#bfbfbf" stroke="black" points="160,-0.5 160,-189.5 316,-189.5 316,-0.5 160,-0.5"/>
<text text-anchor="start" x="168" y="-177.5" font-family="Helvetica,sans-Serif" font-size="10.00">uxn::patl::levenshtein</text>
<text text-anchor="start" x="168" y="-166.5" font-family="Helvetica,sans-Serif" font-size="10.00">_ms_distance&lt; Container,</text>
<text text-anchor="middle" x="238" y="-155.5" font-family="Helvetica,sans-Serif" font-size="10.00"> SameLength &gt;</text>
<polyline fill="none" stroke="black" points="160,-148.5 316,-148.5"/>
<text text-anchor="middle" x="238" y="-136.5" font-family="Helvetica,sans-Serif" font-size="10.00"> </text>
<polyline fill="none" stroke="black" points="160,-129.5 316,-129.5"/>
<text text-anchor="start" x="168" y="-117.5" font-family="Helvetica,sans-Serif" font-size="10.00">+ levenshtein_ms_distance</text>
<text text-anchor="start" x="168" y="-106.5" font-family="Helvetica,sans-Serif" font-size="10.00">(const Container &amp;cont,</text>
<text text-anchor="start" x="168" y="-95.5" font-family="Helvetica,sans-Serif" font-size="10.00"> word_t dist, const key</text>
<text text-anchor="start" x="168" y="-84.5" font-family="Helvetica,sans-Serif" font-size="10.00">_type &amp;mask, word_t mask</text>
<text text-anchor="start" x="168" y="-73.5" font-family="Helvetica,sans-Serif" font-size="10.00">_len=~word_t(0), const char</text>
<text text-anchor="start" x="168" y="-62.5" font-family="Helvetica,sans-Serif" font-size="10.00">_type &amp;terminator=&#39;\0&#39;)</text>
<text text-anchor="start" x="168" y="-51.5" font-family="Helvetica,sans-Serif" font-size="10.00">+ void transitions(word</text>
<text text-anchor="start" x="168" y="-40.5" font-family="Helvetica,sans-Serif" font-size="10.00">_t i, word_t e, const</text>
<text text-anchor="start" x="168" y="-29.5" font-family="Helvetica,sans-Serif" font-size="10.00"> char_type ch, std::back</text>
<text text-anchor="start" x="168" y="-18.5" font-family="Helvetica,sans-Serif" font-size="10.00">_insert_iterator&lt; states</text>
<text text-anchor="start" x="168" y="-7.5" font-family="Helvetica,sans-Serif" font-size="10.00">_vector &gt; next)</text>
</a>
</g>
</g>
<!-- Node2 -->
<g id="node2" class="node">
<title>Node2</title>
<g id="a_node2"><a xlink:href="../../d9/db8/classuxn_1_1patl_1_1impl_1_1levenshtein__generic.html" target="_top" xlink:title=" ">
<polygon fill="none" stroke="black" points="151.5,-227.5 151.5,-438.5 324.5,-438.5 324.5,-227.5 151.5,-227.5"/>
<text text-anchor="start" x="159.5" y="-426.5" font-family="Helvetica,sans-Serif" font-size="10.00">uxn::patl::impl::levenshtein</text>
<text text-anchor="start" x="159.5" y="-415.5" font-family="Helvetica,sans-Serif" font-size="10.00">_generic&lt; levenshtein_ms</text>
<text text-anchor="start" x="159.5" y="-404.5" font-family="Helvetica,sans-Serif" font-size="10.00">_distance&lt; Container, false</text>
<text text-anchor="middle" x="238" y="-393.5" font-family="Helvetica,sans-Serif" font-size="10.00"> &gt;, Container, false &gt;</text>
<polyline fill="none" stroke="black" points="151.5,-386.5 324.5,-386.5"/>
<text text-anchor="start" x="159.5" y="-374.5" font-family="Helvetica,sans-Serif" font-size="10.00"># word_t dist_</text>
<text text-anchor="start" x="159.5" y="-363.5" font-family="Helvetica,sans-Serif" font-size="10.00">&#45; word_t cur_dist_</text>
<polyline fill="none" stroke="black" points="151.5,-356.5 324.5,-356.5"/>
<text text-anchor="start" x="159.5" y="-344.5" font-family="Helvetica,sans-Serif" font-size="10.00">+ levenshtein_generic</text>
<text text-anchor="start" x="159.5" y="-333.5" font-family="Helvetica,sans-Serif" font-size="10.00">(const Container &amp;cont,</text>
<text text-anchor="start" x="159.5" y="-322.5" font-family="Helvetica,sans-Serif" font-size="10.00"> word_t dist, const key</text>
<text text-anchor="start" x="159.5" y="-311.5" font-family="Helvetica,sans-Serif" font-size="10.00">_type &amp;mask, word_t mask</text>
<text text-anchor="start" x="159.5" y="-300.5" font-family="Helvetica,sans-Serif" font-size="10.00">_len=~word_t(0), const char</text>
<text text-anchor="start" x="159.5" y="-289.5" font-family="Helvetica,sans-Serif" font-size="10.00">_type &amp;terminator=char_type())</text>
<text text-anchor="start" x="159.5" y="-278.5" font-family="Helvetica,sans-Serif" font-size="10.00">+ void init()</text>
<text text-anchor="start" x="159.5" y="-267.5" font-family="Helvetica,sans-Serif" font-size="10.00">+ word_t distance() const</text>
<text text-anchor="start" x="159.5" y="-256.5" font-family="Helvetica,sans-Serif" font-size="10.00">+ bool operator()(word_t i)</text>
<text text-anchor="start" x="159.5" y="-245.5" font-family="Helvetica,sans-Serif" font-size="10.00">+ bool operator()(word</text>
<text text-anchor="start" x="159.5" y="-234.5" font-family="Helvetica,sans-Serif" font-size="10.00">_t, const char_type &amp;ch)</text>
</a>
</g>
</g>
<!-- Node2&#45;&gt;Node1 -->
<g id="edge1" class="edge">
<title>Node2&#45;&gt;Node1</title>
<path fill="none" stroke="midnightblue" d="M238,-217.4C238,-208.12 238,-198.8 238,-189.69"/>
<polygon fill="none" stroke="midnightblue" points="234.5,-217.46 238,-227.46 241.5,-217.46 234.5,-217.46"/>
</g>
<!-- Node3 -->
<g id="node3" class="node">
<title>Node3</title>
<g id="a_node3"><a xlink:href="../../d6/d28/classuxn_1_1patl_1_1impl_1_1partial__base.html" target="_top" xlink:title=" ">
<polygon fill="none" stroke="black" points="0,-756.5 0,-1000.5 182,-1000.5 182,-756.5 0,-756.5"/>
<text text-anchor="start" x="8" y="-988.5" font-family="Helvetica,sans-Serif" font-size="10.00">uxn::patl::impl::partial</text>
<text text-anchor="middle" x="91" y="-977.5" font-family="Helvetica,sans-Serif" font-size="10.00">_base&lt; Container, SameLength &gt;</text>
<polyline fill="none" stroke="black" points="0,-970.5 182,-970.5"/>
<text text-anchor="start" x="8" y="-958.5" font-family="Helvetica,sans-Serif" font-size="10.00">+ static const bool accept</text>
<text text-anchor="start" x="8" y="-947.5" font-family="Helvetica,sans-Serif" font-size="10.00">_subtree</text>
<text text-anchor="start" x="8" y="-936.5" font-family="Helvetica,sans-Serif" font-size="10.00"># key_type mask_</text>
<text text-anchor="start" x="8" y="-925.5" font-family="Helvetica,sans-Serif" font-size="10.00"># word_t mask_len_</text>
<text text-anchor="start" x="8" y="-914.5" font-family="Helvetica,sans-Serif" font-size="10.00"># word_t mask_bit_len_</text>
<text text-anchor="start" x="8" y="-903.5" font-family="Helvetica,sans-Serif" font-size="10.00"># char_type terminator_</text>
<text text-anchor="start" x="8" y="-892.5" font-family="Helvetica,sans-Serif" font-size="10.00"># bit_compare bit_comp_</text>
<polyline fill="none" stroke="black" points="0,-885.5 182,-885.5"/>
<text text-anchor="start" x="8" y="-873.5" font-family="Helvetica,sans-Serif" font-size="10.00">+ partial_base(const</text>
<text text-anchor="start" x="8" y="-862.5" font-family="Helvetica,sans-Serif" font-size="10.00"> Container &amp;cont, const</text>
<text text-anchor="start" x="8" y="-851.5" font-family="Helvetica,sans-Serif" font-size="10.00"> key_type &amp;mask, word_t</text>
<text text-anchor="start" x="8" y="-840.5" font-family="Helvetica,sans-Serif" font-size="10.00"> mask_len=~word_t(0), const</text>
<text text-anchor="start" x="8" y="-829.5" font-family="Helvetica,sans-Serif" font-size="10.00"> char_type &amp;terminator=&#39;\0&#39;)</text>
<text text-anchor="start" x="8" y="-818.5" font-family="Helvetica,sans-Serif" font-size="10.00">+ bool operator()(word</text>
<text text-anchor="start" x="8" y="-807.5" font-family="Helvetica,sans-Serif" font-size="10.00">_t i) const</text>
<text text-anchor="start" x="8" y="-796.5" font-family="Helvetica,sans-Serif" font-size="10.00">+ bool bit_level(word</text>
<text text-anchor="start" x="8" y="-785.5" font-family="Helvetica,sans-Serif" font-size="10.00">_t, word_t) const</text>
<text text-anchor="start" x="8" y="-774.5" font-family="Helvetica,sans-Serif" font-size="10.00">+ const key_type &amp; mask</text>
<text text-anchor="start" x="8" y="-763.5" font-family="Helvetica,sans-Serif" font-size="10.00">() const</text>
</a>
</g>
</g>
<!-- Node3&#45;&gt;Node2 -->
<g id="edge2" class="edge">
<title>Node3&#45;&gt;Node2</title>
<path fill="none" stroke="midnightblue" d="M76.94,-746.19C73.85,-673.88 77.77,-583.72 105,-508 115.49,-478.84 132.78,-450.61 151.48,-425.68"/>
<polygon fill="none" stroke="midnightblue" points="73.45,-746.45 77.42,-756.27 80.44,-746.11 73.45,-746.45"/>
</g>
<!-- Node8 -->
<g id="node8" class="node">
<title>Node8</title>
<g id="a_node8"><a xlink:href="../../d9/db8/classuxn_1_1patl_1_1impl_1_1levenshtein__generic.html" target="_top" xlink:title=" ">
<polygon fill="none" stroke="black" points="114.5,-508.5 114.5,-708.5 287.5,-708.5 287.5,-508.5 114.5,-508.5"/>
<text text-anchor="start" x="122.5" y="-696.5" font-family="Helvetica,sans-Serif" font-size="10.00">uxn::patl::impl::levenshtein</text>
<text text-anchor="start" x="122.5" y="-685.5" font-family="Helvetica,sans-Serif" font-size="10.00">_generic&lt; This, Container,</text>
<text text-anchor="middle" x="201" y="-674.5" font-family="Helvetica,sans-Serif" font-size="10.00"> SameLength &gt;</text>
<polyline fill="none" stroke="black" points="114.5,-667.5 287.5,-667.5"/>
<text text-anchor="start" x="122.5" y="-655.5" font-family="Helvetica,sans-Serif" font-size="10.00"># word_t dist_</text>
<text text-anchor="start" x="122.5" y="-644.5" font-family="Helvetica,sans-Serif" font-size="10.00">&#45; word_t cur_dist_</text>
<polyline fill="none" stroke="black" points="114.5,-637.5 287.5,-637.5"/>
<text text-anchor="start" x="122.5" y="-625.5" font-family="Helvetica,sans-Serif" font-size="10.00">+ levenshtein_generic</text>
<text text-anchor="start" x="122.5" y="-614.5" font-family="Helvetica,sans-Serif" font-size="10.00">(const Container &amp;cont,</text>
<text text-anchor="start" x="122.5" y="-603.5" font-family="Helvetica,sans-Serif" font-size="10.00"> word_t dist, const key</text>
<text text-anchor="start" x="122.5" y="-592.5" font-family="Helvetica,sans-Serif" font-size="10.00">_type &amp;mask, word_t mask</text>
<text text-anchor="start" x="122.5" y="-581.5" font-family="Helvetica,sans-Serif" font-size="10.00">_len=~word_t(0), const char</text>
<text text-anchor="start" x="122.5" y="-570.5" font-family="Helvetica,sans-Serif" font-size="10.00">_type &amp;terminator=char_type())</text>
<text text-anchor="start" x="122.5" y="-559.5" font-family="Helvetica,sans-Serif" font-size="10.00">+ void init()</text>
<text text-anchor="start" x="122.5" y="-548.5" font-family="Helvetica,sans-Serif" font-size="10.00">+ word_t distance() const</text>
<text text-anchor="start" x="122.5" y="-537.5" font-family="Helvetica,sans-Serif" font-size="10.00">+ bool operator()(word_t i)</text>
<text text-anchor="start" x="122.5" y="-526.5" font-family="Helvetica,sans-Serif" font-size="10.00">+ bool operator()(word</text>
<text text-anchor="start" x="122.5" y="-515.5" font-family="Helvetica,sans-Serif" font-size="10.00">_t, const char_type &amp;ch)</text>
</a>
</g>
</g>
<!-- Node3&#45;&gt;Node8 -->
<g id="edge9" class="edge">
<title>Node3&#45;&gt;Node8</title>
<path fill="none" stroke="midnightblue" d="M144.54,-747.07C149.82,-734.18 155.13,-721.25 160.26,-708.76"/>
<polygon fill="none" stroke="midnightblue" points="141.25,-745.86 140.69,-756.44 147.72,-748.52 141.25,-745.86"/>
</g>
<!-- Node4 -->
<g id="node4" class="node">
<title>Node4</title>
<g id="a_node4"><a xlink:title=" ">
<polygon fill="none" stroke="black" points="350,-850 350,-907 474,-907 474,-850 350,-850"/>
<text text-anchor="middle" x="412" y="-895" font-family="Helvetica,sans-Serif" font-size="10.00">std::vector&lt; word_t &gt;</text>
<polyline fill="none" stroke="black" points="350,-888 474,-888"/>
<text text-anchor="start" x="358" y="-876" font-family="Helvetica,sans-Serif" font-size="10.00">+ word_t elements</text>
<polyline fill="none" stroke="black" points="350,-869 474,-869"/>
<text text-anchor="middle" x="412" y="-857" font-family="Helvetica,sans-Serif" font-size="10.00"> </text>
</a>
</g>
</g>
<!-- Node4&#45;&gt;Node2 -->
<g id="edge3" class="edge">
<title>Node4&#45;&gt;Node2</title>
<path fill="none" stroke="#404040" d="M413.85,-849.86C417.04,-786.73 419.19,-628.1 371,-508 361.3,-483.83 347.27,-460.13 331.91,-438.38"/>
<polygon fill="none" stroke="#404040" points="331.82,-438.25 325.06,-435.74 324.78,-428.54 331.54,-431.05 331.82,-438.25"/>
<text text-anchor="middle" x="434.5" y="-606" font-family="Helvetica,sans-Serif" font-size="10.00"> &#45;begins_</text>
</g>
<!-- Node4&#45;&gt;Node8 -->
<g id="edge10" class="edge">
<title>Node4&#45;&gt;Node8</title>
<path fill="none" stroke="#404040" d="M398.21,-849.81C385.01,-824.4 363.79,-786.24 341,-756 327.39,-737.94 311.78,-719.71 296.04,-702.53"/>
<polygon fill="none" stroke="#404040" points="295.97,-702.45 288.96,-700.77 287.81,-693.65 294.82,-695.33 295.97,-702.45"/>
<text text-anchor="middle" x="345.5" y="-730" font-family="Helvetica,sans-Serif" font-size="10.00"> &#45;begins_</text>
</g>
<!-- Node5 -->
<g id="node5" class="node">
<title>Node5</title>
<g id="a_node5"><a xlink:title=" ">
<polygon fill="none" stroke="black" points="292.5,-1059.5 292.5,-1116.5 389.5,-1116.5 389.5,-1059.5 292.5,-1059.5"/>
<text text-anchor="middle" x="341" y="-1104.5" font-family="Helvetica,sans-Serif" font-size="10.00">std::vector&lt; T &gt;</text>
<polyline fill="none" stroke="black" points="292.5,-1097.5 389.5,-1097.5"/>
<text text-anchor="middle" x="341" y="-1085.5" font-family="Helvetica,sans-Serif" font-size="10.00"> </text>
<polyline fill="none" stroke="black" points="292.5,-1078.5 389.5,-1078.5"/>
<text text-anchor="middle" x="341" y="-1066.5" font-family="Helvetica,sans-Serif" font-size="10.00"> </text>
</a>
</g>
</g>
<!-- Node5&#45;&gt;Node4 -->
<g id="edge4" class="edge">
<title>Node5&#45;&gt;Node4</title>
<path fill="none" stroke="orange" d="M379.55,-1051.46C381.99,-1048.1 384.18,-1044.6 386,-1041 407.8,-997.76 412.09,-940.48 412.53,-907.04"/>
<polygon fill="orange" stroke="orange" points="376.64,-1049.49 373.08,-1059.48 382.08,-1053.89 376.64,-1049.49"/>
<text text-anchor="middle" x="423.5" y="-1027.5" font-family="Helvetica,sans-Serif" font-size="10.00"> &lt; word_t &gt;</text>
</g>
<!-- Node7 -->
<g id="node7" class="node">
<title>Node7</title>
<g id="a_node7"><a xlink:title=" ">
<polygon fill="none" stroke="black" points="210,-839 210,-918 332,-918 332,-839 210,-839"/>
<text text-anchor="start" x="218" y="-906" font-family="Helvetica,sans-Serif" font-size="10.00">std::vector&lt; std::pair</text>
<text text-anchor="middle" x="271" y="-895" font-family="Helvetica,sans-Serif" font-size="10.00">&lt; word_t, word_t &gt; &gt;</text>
<polyline fill="none" stroke="black" points="210,-888 332,-888"/>
<text text-anchor="start" x="218" y="-876" font-family="Helvetica,sans-Serif" font-size="10.00">+ std::pair&lt; word_t,</text>
<text text-anchor="start" x="218" y="-865" font-family="Helvetica,sans-Serif" font-size="10.00"> word_t &gt; elements</text>
<polyline fill="none" stroke="black" points="210,-858 332,-858"/>
<text text-anchor="middle" x="271" y="-846" font-family="Helvetica,sans-Serif" font-size="10.00"> </text>
</a>
</g>
</g>
<!-- Node5&#45;&gt;Node7 -->
<g id="edge7" class="edge">
<title>Node5&#45;&gt;Node7</title>
<path fill="none" stroke="orange" d="M291.24,-1051.77C288.47,-1048.39 286,-1044.79 284,-1041 263.83,-1002.82 263.17,-952.36 265.88,-918.08"/>
<polygon fill="orange" stroke="orange" points="288.83,-1054.31 298.19,-1059.26 293.96,-1049.55 288.83,-1054.31"/>
<text text-anchor="start" x="284" y="-1033" font-family="Helvetica,sans-Serif" font-size="10.00"> &lt; std::pair&lt; word_t,</text>
<text text-anchor="middle" x="335" y="-1022" font-family="Helvetica,sans-Serif" font-size="10.00"> word_t &gt; &gt;</text>
</g>
<!-- Node6 -->
<g id="node6" class="node">
<title>Node6</title>
<g id="a_node6"><a xlink:title=" ">
<polygon fill="none" stroke="black" points="326.5,-1164.5 326.5,-1221.5 355.5,-1221.5 355.5,-1164.5 326.5,-1164.5"/>
<text text-anchor="middle" x="341" y="-1209.5" font-family="Helvetica,sans-Serif" font-size="10.00">T</text>
<polyline fill="none" stroke="black" points="326.5,-1202.5 355.5,-1202.5"/>
<text text-anchor="middle" x="341" y="-1190.5" font-family="Helvetica,sans-Serif" font-size="10.00"> </text>
<polyline fill="none" stroke="black" points="326.5,-1183.5 355.5,-1183.5"/>
<text text-anchor="middle" x="341" y="-1171.5" font-family="Helvetica,sans-Serif" font-size="10.00"> </text>
</a>
</g>
</g>
<!-- Node6&#45;&gt;Node5 -->
<g id="edge5" class="edge">
<title>Node6&#45;&gt;Node5</title>
<path fill="none" stroke="#404040" d="M341,-1164.4C341,-1153.55 341,-1140.87 341,-1129.05"/>
<polygon fill="none" stroke="#404040" points="341,-1128.68 337,-1122.68 341,-1116.68 345,-1122.68 341,-1128.68"/>
<text text-anchor="middle" x="370" y="-1138" font-family="Helvetica,sans-Serif" font-size="10.00"> +elements</text>
</g>
<!-- Node7&#45;&gt;Node2 -->
<g id="edge6" class="edge">
<title>Node7&#45;&gt;Node2</title>
<path fill="none" stroke="#404040" d="M283.56,-838.74C305.95,-763.66 347.08,-593.75 310,-457 309.38,-454.72 308.71,-452.43 307.98,-450.15"/>
<polygon fill="none" stroke="#404040" points="307.96,-450.09 302.2,-445.76 303.98,-438.77 309.75,-443.1 307.96,-450.09"/>
<text text-anchor="middle" x="345.5" y="-606" font-family="Helvetica,sans-Serif" font-size="10.00"> &#45;states_</text>
</g>
<!-- Node7&#45;&gt;Node8 -->
<g id="edge11" class="edge">
<title>Node7&#45;&gt;Node8</title>
<path fill="none" stroke="#404040" d="M260.9,-838.82C252.78,-807.75 240.96,-762.5 229.96,-720.39"/>
<polygon fill="none" stroke="#404040" points="229.92,-720.22 224.53,-715.43 226.89,-708.61 232.27,-713.41 229.92,-720.22"/>
<text text-anchor="middle" x="254.5" y="-730" font-family="Helvetica,sans-Serif" font-size="10.00"> &#45;states_</text>
</g>
<!-- Node8&#45;&gt;Node2 -->
<g id="edge8" class="edge">
<title>Node8&#45;&gt;Node2</title>
<path fill="none" stroke="orange" d="M149.95,-498.31C148.23,-484.41 148.83,-470.38 153,-457 154.93,-450.81 157.3,-444.65 159.99,-438.58"/>
<polygon fill="orange" stroke="orange" points="146.53,-499.08 151.6,-508.39 153.44,-497.95 146.53,-499.08"/>
<text text-anchor="start" x="153" y="-482" font-family="Helvetica,sans-Serif" font-size="10.00"> &lt; levenshtein_ms_distance</text>
<text text-anchor="start" x="153" y="-471" font-family="Helvetica,sans-Serif" font-size="10.00">&lt; Container, false &gt;, Container,</text>
<text text-anchor="middle" x="231.5" y="-460" font-family="Helvetica,sans-Serif" font-size="10.00"> false &gt;</text>
</g>
</g>
</svg>
        <g id="navigator" transform="translate(0 0)" fill="#404254">
                <rect fill="#f2f5e9" fill-opacity="0.5" stroke="#606060" stroke-width=".5" x="0" y="0" width="60" height="60"/>
                <use id="zoomplus" xlink:href="#zoomPlus" x="17" y="9" onmousedown="handleZoom(evt,'in')"/>
                <use id="zoomminus" xlink:href="#zoomMin" x="42" y="9" onmousedown="handleZoom(evt,'out')"/>
                <use id="reset" xlink:href="#resetDef" x="30" y="36" onmousedown="handleReset()"/>
                <g id="arrowUp" xlink:href="#dirArrow" transform="translate(30 24)" onmousedown="handlePan(0,-1)">
                  <use xlink:href="#rim" fill="#404040">
                        <set attributeName="fill" to="#808080" begin="arrowUp.mouseover" end="arrowUp.mouseout"/>
                  </use>
                  <path fill="none" stroke="white" stroke-width="1.5" d="M0,-3.0v7 M-2.5,-0.5L0,-3.0L2.5,-0.5"/>
                </g>
                <g id="arrowRight" xlink:href="#dirArrow" transform="rotate(90) translate(36 -43)" onmousedown="handlePan(1,0)">
                  <use xlink:href="#rim" fill="#404040">
                        <set attributeName="fill" to="#808080" begin="arrowRight.mouseover" end="arrowRight.mouseout"/>
                  </use>
                  <path fill="none" stroke="white" stroke-width="1.5" d="M0,-3.0v7 M-2.5,-0.5L0,-3.0L2.5,-0.5"/>
                </g>
                <g id="arrowDown" xlink:href="#dirArrow" transform="rotate(180) translate(-30 -48)" onmousedown="handlePan(0,1)">
                  <use xlink:href="#rim" fill="#404040">
                        <set attributeName="fill" to="#808080" begin="arrowDown.mouseover" end="arrowDown.mouseout"/>
                  </use>
                  <path fill="none" stroke="white" stroke-width="1.5" d="M0,-3.0v7 M-2.5,-0.5L0,-3.0L2.5,-0.5"/>
                </g>
                <g id="arrowLeft" xlink:href="#dirArrow" transform="rotate(270) translate(-36 17)" onmousedown="handlePan(-1,0)">
                  <use xlink:href="#rim" fill="#404040">
                        <set attributeName="fill" to="#808080" begin="arrowLeft.mouseover" end="arrowLeft.mouseout"/>
                  </use>
                  <path fill="none" stroke="white" stroke-width="1.5" d="M0,-3.0v7 M-2.5,-0.5L0,-3.0L2.5,-0.5"/>
                </g>
        </g>
        <svg viewBox="0 0 15 15" width="100%" height="30px" preserveAspectRatio="xMaxYMin meet">
         <g id="arrow_out" transform="scale(0.3 0.3)">
          <a xlink:href="classuxn_1_1patl_1_1levenshtein__ms__distance__coll__graph_org.svg" target="_base">
           <rect id="button" ry="5" rx="5" y="6" x="6" height="38" width="38"
                fill="#f2f5e9" fill-opacity="0.5" stroke="#606060" stroke-width="1.0"/>
           <path id="arrow"
             d="M 11.500037,31.436501 C 11.940474,20.09759 22.043105,11.32322 32.158766,21.979434 L 37.068811,17.246167 C 37.068811,17.246167 37.088388,32 37.088388,32 L 22.160133,31.978069 C 22.160133,31.978069 26.997745,27.140456 26.997745,27.140456 C 18.528582,18.264221 13.291696,25.230495 11.500037,31.436501 z"
             style="fill:#404040;"/>
          </a>
         </g>
        </svg>
</svg>
