<?xml version="1.0" encoding="UTF-8" standalone="no"?>
<!DOCTYPE svg PUBLIC "-//W3C//DTD SVG 1.1//EN"
 "http://www.w3.org/Graphics/SVG/1.1/DTD/svg11.dtd">
<!-- Generated by graphviz version 5.0.1 (20220820.1526)
 -->
<!-- Title: uxn::patl::bit_comparator&lt; T **, 0 &gt; Pages: 1 -->
<svg width="154pt" height="376pt"
 viewBox="0.00 0.00 154.00 376.00" xmlns="http://www.w3.org/2000/svg" xmlns:xlink="http://www.w3.org/1999/xlink">
<g id="graph0" class="graph" transform="scale(1 1) rotate(0) translate(4 372)">
<title>uxn::patl::bit_comparator&lt; T **, 0 &gt;</title>
<!-- Node1 -->
<g id="node1" class="node">
<title>Node1</title>
<g id="a_node1"><a xlink:title="simple infinite (T**) string (treat (T*) as word_t)">
<polygon fill="#bfbfbf" stroke="black" points="0,-0.5 0,-145.5 146,-145.5 146,-0.5 0,-0.5"/>
<text text-anchor="start" x="8" y="-133.5" font-family="Helvetica,sans-Serif" font-size="10.00">uxn::patl::bit_comparator</text>
<text text-anchor="middle" x="73" y="-122.5" font-family="Helvetica,sans-Serif" font-size="10.00">&lt; T **, 0 &gt;</text>
<polyline fill="none" stroke="black" points="0,-115.5 146,-115.5"/>
<text text-anchor="start" x="8" y="-103.5" font-family="Helvetica,sans-Serif" font-size="10.00">+ static const word_t</text>
<text text-anchor="start" x="8" y="-92.5" font-family="Helvetica,sans-Serif" font-size="10.00"> bit_size</text>
<polyline fill="none" stroke="black" points="0,-85.5 146,-85.5"/>
<text text-anchor="start" x="8" y="-73.5" font-family="Helvetica,sans-Serif" font-size="10.00">+ word_t bit_length(T</text>
<text text-anchor="start" x="8" y="-62.5" font-family="Helvetica,sans-Serif" font-size="10.00"> *const *) const</text>
<text text-anchor="start" x="8" y="-51.5" font-family="Helvetica,sans-Serif" font-size="10.00">+ word_t get_bit(T *const</text>
<text text-anchor="start" x="8" y="-40.5" font-family="Helvetica,sans-Serif" font-size="10.00"> *s, word_t id) const</text>
<text text-anchor="start" x="8" y="-29.5" font-family="Helvetica,sans-Serif" font-size="10.00">+ word_t bit_mismatch</text>
<text text-anchor="start" x="8" y="-18.5" font-family="Helvetica,sans-Serif" font-size="10.00">(T *const *ap, T *const</text>
<text text-anchor="start" x="8" y="-7.5" font-family="Helvetica,sans-Serif" font-size="10.00"> *bp, word_t skip=0) const</text>
</a>
</g>
</g>
<!-- Node2 -->
<g id="node2" class="node">
<title>Node2</title>
<g id="a_node2"><a xlink:href="../../d2/db7/classuxn_1_1patl_1_1bit__comparator.html" target="_top" xlink:title=" ">
<polygon fill="none" stroke="black" points="3,-183.5 3,-251.5 143,-251.5 143,-183.5 3,-183.5"/>
<text text-anchor="start" x="11" y="-239.5" font-family="Helvetica,sans-Serif" font-size="10.00">uxn::patl::bit_comparator</text>
<text text-anchor="middle" x="73" y="-228.5" font-family="Helvetica,sans-Serif" font-size="10.00">&lt; word_t, 0 &gt;</text>
<polyline fill="none" stroke="black" points="3,-221.5 143,-221.5"/>
<text text-anchor="middle" x="73" y="-209.5" font-family="Helvetica,sans-Serif" font-size="10.00"> </text>
<polyline fill="none" stroke="black" points="3,-202.5 143,-202.5"/>
<text text-anchor="middle" x="73" y="-190.5" font-family="Helvetica,sans-Serif" font-size="10.00"> </text>
</a>
</g>
</g>
<!-- Node2&#45;&gt;Node1 -->
<g id="edge1" class="edge">
<title>Node2&#45;&gt;Node1</title>
<path fill="none" stroke="midnightblue" d="M73,-173.19C73,-164.48 73,-155.11 73,-145.72"/>
<polygon fill="none" stroke="midnightblue" points="69.5,-173.45 73,-183.45 76.5,-173.45 69.5,-173.45"/>
</g>
<!-- Node3 -->
<g id="node3" class="node">
<title>Node3</title>
<g id="a_node3"><a xlink:href="../../d2/db7/classuxn_1_1patl_1_1bit__comparator.html" target="_top" xlink:title=" ">
<polygon fill="none" stroke="black" points="3,-299.5 3,-367.5 143,-367.5 143,-299.5 3,-299.5"/>
<text text-anchor="start" x="11" y="-355.5" font-family="Helvetica,sans-Serif" font-size="10.00">uxn::patl::bit_comparator</text>
<text text-anchor="middle" x="73" y="-344.5" font-family="Helvetica,sans-Serif" font-size="10.00">&lt; T, N &gt;</text>
<polyline fill="none" stroke="black" points="3,-337.5 143,-337.5"/>
<text text-anchor="middle" x="73" y="-325.5" font-family="Helvetica,sans-Serif" font-size="10.00"> </text>
<polyline fill="none" stroke="black" points="3,-318.5 143,-318.5"/>
<text text-anchor="middle" x="73" y="-306.5" font-family="Helvetica,sans-Serif" font-size="10.00"> </text>
</a>
</g>
</g>
<!-- Node3&#45;&gt;Node2 -->
<g id="edge2" class="edge">
<title>Node3&#45;&gt;Node2</title>
<path fill="none" stroke="orange" d="M73,-289.06C73,-276.64 73,-263.32 73,-251.62"/>
<polygon fill="orange" stroke="orange" points="69.5,-289.22 73,-299.22 76.5,-289.22 69.5,-289.22"/>
<text text-anchor="middle" x="108.5" y="-273" font-family="Helvetica,sans-Serif" font-size="10.00"> &lt; word_t, 0 &gt;</text>
</g>
</g>
</svg>
