<?xml version="1.0" encoding="UTF-8" standalone="no"?>
<!DOCTYPE svg PUBLIC "-//W3C//DTD SVG 1.1//EN"
 "http://www.w3.org/Graphics/SVG/1.1/DTD/svg11.dtd">
<!-- Generated by graphviz version 5.0.1 (20220820.1526)
 -->
<!-- Title: uxn/patl/trie_set.hpp Pages: 1 -->
<svg width="998pt" height="151pt"
 viewBox="0.00 0.00 998.00 151.00" xmlns="http://www.w3.org/2000/svg" xmlns:xlink="http://www.w3.org/1999/xlink">
<g id="graph0" class="graph" transform="scale(1 1) rotate(0) translate(4 147)">
<title>uxn/patl/trie_set.hpp</title>
<!-- Node1 -->
<g id="node1" class="node">
<title>Node1</title>
<g id="a_node1"><a xlink:title=" ">
<polygon fill="#bfbfbf" stroke="black" points="461.5,-123.5 461.5,-142.5 578.5,-142.5 578.5,-123.5 461.5,-123.5"/>
<text text-anchor="middle" x="520" y="-130.5" font-family="Helvetica,sans-Serif" font-size="10.00">uxn/patl/trie_set.hpp</text>
</a>
</g>
</g>
<!-- Node2 -->
<g id="node2" class="node">
<title>Node2</title>
<g id="a_node2"><a xlink:href="../../d5/d69/ins__test_8cpp.html" target="_top" xlink:title=" ">
<polygon fill="none" stroke="black" points="0,-56.5 0,-86.5 112,-86.5 112,-56.5 0,-56.5"/>
<text text-anchor="start" x="8" y="-74.5" font-family="Helvetica,sans-Serif" font-size="10.00">uxn/demos/ins_test</text>
<text text-anchor="middle" x="56" y="-63.5" font-family="Helvetica,sans-Serif" font-size="10.00">/ins_test.cpp</text>
</a>
</g>
</g>
<!-- Node1&#45;&gt;Node2 -->
<g id="edge1" class="edge">
<title>Node1&#45;&gt;Node2</title>
<path fill="none" stroke="midnightblue" d="M450.83,-126.47C371.02,-119.56 235.98,-106.25 121,-87 118.15,-86.52 115.24,-86 112.3,-85.45"/>
<polygon fill="midnightblue" stroke="midnightblue" points="450.98,-129.99 461.24,-127.36 451.58,-123.02 450.98,-129.99"/>
</g>
<!-- Node3 -->
<g id="node3" class="node">
<title>Node3</title>
<g id="a_node3"><a xlink:href="../../d1/db2/insider_8cpp.html" target="_top" xlink:title=" ">
<polygon fill="none" stroke="black" points="130,-62 130,-81 292,-81 292,-62 130,-62"/>
<text text-anchor="middle" x="211" y="-69" font-family="Helvetica,sans-Serif" font-size="10.00">uxn/demos/insider/insider.cpp</text>
</a>
</g>
</g>
<!-- Node1&#45;&gt;Node3 -->
<g id="edge2" class="edge">
<title>Node1&#45;&gt;Node3</title>
<path fill="none" stroke="midnightblue" d="M465.71,-121.55C405.84,-110.02 310.68,-91.69 255.19,-81.01"/>
<polygon fill="midnightblue" stroke="midnightblue" points="465.25,-125.02 475.73,-123.48 466.57,-118.15 465.25,-125.02"/>
</g>
<!-- Node4 -->
<g id="node4" class="node">
<title>Node4</title>
<g id="a_node4"><a xlink:href="../../de/dd6/levenshtein_8cpp.html" target="_top" xlink:title=" ">
<polygon fill="none" stroke="black" points="310.5,-56.5 310.5,-86.5 441.5,-86.5 441.5,-56.5 310.5,-56.5"/>
<text text-anchor="start" x="318.5" y="-74.5" font-family="Helvetica,sans-Serif" font-size="10.00">uxn/demos/levenshtein</text>
<text text-anchor="middle" x="376" y="-63.5" font-family="Helvetica,sans-Serif" font-size="10.00">/levenshtein.cpp</text>
</a>
</g>
</g>
<!-- Node1&#45;&gt;Node4 -->
<g id="edge3" class="edge">
<title>Node1&#45;&gt;Node4</title>
<path fill="none" stroke="midnightblue" d="M489.97,-119.59C466.62,-109.94 434.22,-96.56 409.94,-86.52"/>
<polygon fill="midnightblue" stroke="midnightblue" points="488.79,-122.89 499.37,-123.48 491.46,-116.42 488.79,-122.89"/>
</g>
<!-- Node5 -->
<g id="node5" class="node">
<title>Node5</title>
<g id="a_node5"><a xlink:href="../../d6/de8/muxoclon_8cpp.html" target="_top" xlink:title=" ">
<polygon fill="none" stroke="black" points="459.5,-56.5 459.5,-86.5 580.5,-86.5 580.5,-56.5 459.5,-56.5"/>
<text text-anchor="start" x="467.5" y="-74.5" font-family="Helvetica,sans-Serif" font-size="10.00">uxn/demos/muxoclon</text>
<text text-anchor="middle" x="520" y="-63.5" font-family="Helvetica,sans-Serif" font-size="10.00">/muxoclon.cpp</text>
</a>
</g>
</g>
<!-- Node1&#45;&gt;Node5 -->
<g id="edge4" class="edge">
<title>Node1&#45;&gt;Node5</title>
<path fill="none" stroke="midnightblue" d="M520,-113.23C520,-104.59 520,-94.5 520,-86.52"/>
<polygon fill="midnightblue" stroke="midnightblue" points="516.5,-113.48 520,-123.48 523.5,-113.48 516.5,-113.48"/>
</g>
<!-- Node6 -->
<g id="node6" class="node">
<title>Node6</title>
<g id="a_node6"><a xlink:href="../../da/d22/sort__lin_8cpp.html" target="_top" xlink:title=" ">
<polygon fill="none" stroke="black" points="599,-56.5 599,-86.5 709,-86.5 709,-56.5 599,-56.5"/>
<text text-anchor="start" x="607" y="-74.5" font-family="Helvetica,sans-Serif" font-size="10.00">uxn/demos/sort_lin</text>
<text text-anchor="middle" x="654" y="-63.5" font-family="Helvetica,sans-Serif" font-size="10.00">/sort_lin.cpp</text>
</a>
</g>
</g>
<!-- Node1&#45;&gt;Node6 -->
<g id="edge5" class="edge">
<title>Node1&#45;&gt;Node6</title>
<path fill="none" stroke="midnightblue" d="M548.53,-119.33C570.21,-109.7 600.02,-96.47 622.42,-86.52"/>
<polygon fill="midnightblue" stroke="midnightblue" points="546.92,-116.22 539.2,-123.48 549.76,-122.62 546.92,-116.22"/>
</g>
<!-- Node7 -->
<g id="node7" class="node">
<title>Node7</title>
<g id="a_node7"><a xlink:href="../../d1/d40/word__suffix_8cpp.html" target="_top" xlink:title=" ">
<polygon fill="none" stroke="black" points="727,-56.5 727,-86.5 857,-86.5 857,-56.5 727,-56.5"/>
<text text-anchor="start" x="735" y="-74.5" font-family="Helvetica,sans-Serif" font-size="10.00">uxn/demos/word_suffix</text>
<text text-anchor="middle" x="792" y="-63.5" font-family="Helvetica,sans-Serif" font-size="10.00">/word_suffix.cpp</text>
</a>
</g>
</g>
<!-- Node1&#45;&gt;Node7 -->
<g id="edge6" class="edge">
<title>Node1&#45;&gt;Node7</title>
<path fill="none" stroke="midnightblue" d="M568.95,-121.29C613.4,-111.57 679.26,-97.16 727.89,-86.52"/>
<polygon fill="midnightblue" stroke="midnightblue" points="567.99,-117.92 558.97,-123.48 569.49,-124.76 567.99,-117.92"/>
</g>
<!-- Node8 -->
<g id="node8" class="node">
<title>Node8</title>
<g id="a_node8"><a xlink:href="../../db/d8f/priority_8hpp.html" target="_top" xlink:title=" ">
<polygon fill="none" stroke="black" points="875,-62 875,-81 989,-81 989,-62 875,-62"/>
<text text-anchor="middle" x="932" y="-69" font-family="Helvetica,sans-Serif" font-size="10.00">uxn/patl/priority.hpp</text>
</a>
</g>
</g>
<!-- Node1&#45;&gt;Node8 -->
<g id="edge7" class="edge">
<title>Node1&#45;&gt;Node8</title>
<path fill="none" stroke="midnightblue" d="M588.72,-124.84C658.73,-117.14 770.31,-103.7 866,-87 875.71,-85.31 886.15,-83.16 895.8,-81.05"/>
<polygon fill="midnightblue" stroke="midnightblue" points="588.26,-121.37 578.7,-125.94 589.02,-128.33 588.26,-121.37"/>
</g>
<!-- Node9 -->
<g id="node9" class="node">
<title>Node9</title>
<g id="a_node9"><a xlink:href="../../d5/d3f/patcont_8cpp.html" target="_top" xlink:title=" ">
<polygon fill="none" stroke="black" points="874,-0.5 874,-19.5 990,-19.5 990,-0.5 874,-0.5"/>
<text text-anchor="middle" x="932" y="-7.5" font-family="Helvetica,sans-Serif" font-size="10.00">uxn/patl/patcont.cpp</text>
</a>
</g>
</g>
<!-- Node8&#45;&gt;Node9 -->
<g id="edge8" class="edge">
<title>Node8&#45;&gt;Node9</title>
<path fill="none" stroke="midnightblue" d="M932,-51.82C932,-41 932,-27.9 932,-19.51"/>
<polygon fill="midnightblue" stroke="midnightblue" points="928.5,-51.98 932,-61.98 935.5,-51.98 928.5,-51.98"/>
</g>
</g>
</svg>
