<?xml version="1.0" encoding="UTF-8" standalone="no"?>
<!DOCTYPE svg PUBLIC "-//W3C//DTD SVG 1.1//EN"
 "http://www.w3.org/Graphics/SVG/1.1/DTD/svg11.dtd">
<!-- Generated by graphviz version 5.0.1 (20220820.1526)
 -->
<!-- Title: uxn/patl/lca_oracle.hpp Pages: 1 -->
<svg width="336pt" height="95pt"
 viewBox="0.00 0.00 335.50 95.00" xmlns="http://www.w3.org/2000/svg" xmlns:xlink="http://www.w3.org/1999/xlink">
<g id="graph0" class="graph" transform="scale(1 1) rotate(0) translate(4 91)">
<title>uxn/patl/lca_oracle.hpp</title>
<!-- Node1 -->
<g id="node1" class="node">
<title>Node1</title>
<g id="a_node1"><a xlink:title=" ">
<polygon fill="#bfbfbf" stroke="black" points="111.5,-67.5 111.5,-86.5 241.5,-86.5 241.5,-67.5 111.5,-67.5"/>
<text text-anchor="middle" x="176.5" y="-74.5" font-family="Helvetica,sans-Serif" font-size="10.00">uxn/patl/lca_oracle.hpp</text>
</a>
</g>
</g>
<!-- Node2 -->
<g id="node2" class="node">
<title>Node2</title>
<g id="a_node2"><a xlink:href="../../d7/d82/maxpals_8cpp.html" target="_top" xlink:title=" ">
<polygon fill="none" stroke="black" points="0,-6 0,-25 181,-25 181,-6 0,-6"/>
<text text-anchor="middle" x="90.5" y="-13" font-family="Helvetica,sans-Serif" font-size="10.00">uxn/demos/maxpals/maxpals.cpp</text>
</a>
</g>
</g>
<!-- Node1&#45;&gt;Node2 -->
<g id="edge1" class="edge">
<title>Node1&#45;&gt;Node2</title>
<path fill="none" stroke="midnightblue" d="M155.7,-61.61C139.16,-50.17 116.58,-34.55 102.8,-25.01"/>
<polygon fill="midnightblue" stroke="midnightblue" points="153.96,-64.66 164.18,-67.48 157.95,-58.91 153.96,-64.66"/>
</g>
<!-- Node3 -->
<g id="node3" class="node">
<title>Node3</title>
<g id="a_node3"><a xlink:href="../../d2/d55/multi__align_8cpp.html" target="_top" xlink:title=" ">
<polygon fill="none" stroke="black" points="199.5,-0.5 199.5,-30.5 327.5,-30.5 327.5,-0.5 199.5,-0.5"/>
<text text-anchor="start" x="207.5" y="-18.5" font-family="Helvetica,sans-Serif" font-size="10.00">uxn/demos/multi_align</text>
<text text-anchor="middle" x="263.5" y="-7.5" font-family="Helvetica,sans-Serif" font-size="10.00">/multi_align.cpp</text>
</a>
</g>
</g>
<!-- Node1&#45;&gt;Node3 -->
<g id="edge2" class="edge">
<title>Node1&#45;&gt;Node3</title>
<path fill="none" stroke="midnightblue" d="M197.35,-61.74C211.18,-52.28 229.24,-39.93 243,-30.52"/>
<polygon fill="midnightblue" stroke="midnightblue" points="195.24,-58.94 188.96,-67.48 199.2,-64.72 195.24,-58.94"/>
</g>
</g>
</svg>
