<?xml version="1.0" encoding="UTF-8" standalone="no"?>
<!DOCTYPE svg PUBLIC "-//W3C//DTD SVG 1.1//EN"
 "http://www.w3.org/Graphics/SVG/1.1/DTD/svg11.dtd">
<!-- Generated by graphviz version 5.0.1 (20220820.1526)
 -->
<!-- Title: uxn::patl::bit_comparator&lt; T **, 8 &gt; Pages: 1 -->
<svg width="155pt" height="493pt"
 viewBox="0.00 0.00 155.00 493.00" xmlns="http://www.w3.org/2000/svg" xmlns:xlink="http://www.w3.org/1999/xlink">
<g id="graph0" class="graph" transform="scale(1 1) rotate(0) translate(4 489)">
<title>uxn::patl::bit_comparator&lt; T **, 8 &gt;</title>
<!-- Node1 -->
<g id="node1" class="node">
<title>Node1</title>
<g id="a_node1"><a xlink:title=" ">
<polygon fill="#bfbfbf" stroke="black" points="0,-0.5 0,-79.5 147,-79.5 147,-0.5 0,-0.5"/>
<text text-anchor="start" x="8" y="-67.5" font-family="Helvetica,sans-Serif" font-size="10.00">uxn::patl::bit_comparator</text>
<text text-anchor="middle" x="73.5" y="-56.5" font-family="Helvetica,sans-Serif" font-size="10.00">&lt; T **, 8 &gt;</text>
<polyline fill="none" stroke="black" points="0,-49.5 147,-49.5"/>
<text text-anchor="middle" x="73.5" y="-37.5" font-family="Helvetica,sans-Serif" font-size="10.00"> </text>
<polyline fill="none" stroke="black" points="0,-30.5 147,-30.5"/>
<text text-anchor="start" x="8" y="-18.5" font-family="Helvetica,sans-Serif" font-size="10.00">+ word_t get_bits(T *const</text>
<text text-anchor="start" x="8" y="-7.5" font-family="Helvetica,sans-Serif" font-size="10.00"> *s, word_t off) const</text>
</a>
</g>
</g>
<!-- Node2 -->
<g id="node2" class="node">
<title>Node2</title>
<g id="a_node2"><a xlink:href="../../d3/df8/classuxn_1_1patl_1_1bit__comparator_3_01T_01_5_5_00_010_01_4.html" target="_top" xlink:title="simple infinite (T**) string (treat (T*) as word_t)">
<polygon fill="none" stroke="black" points="0.5,-117.5 0.5,-262.5 146.5,-262.5 146.5,-117.5 0.5,-117.5"/>
<text text-anchor="start" x="8.5" y="-250.5" font-family="Helvetica,sans-Serif" font-size="10.00">uxn::patl::bit_comparator</text>
<text text-anchor="middle" x="73.5" y="-239.5" font-family="Helvetica,sans-Serif" font-size="10.00">&lt; T **, 0 &gt;</text>
<polyline fill="none" stroke="black" points="0.5,-232.5 146.5,-232.5"/>
<text text-anchor="start" x="8.5" y="-220.5" font-family="Helvetica,sans-Serif" font-size="10.00">+ static const word_t</text>
<text text-anchor="start" x="8.5" y="-209.5" font-family="Helvetica,sans-Serif" font-size="10.00"> bit_size</text>
<polyline fill="none" stroke="black" points="0.5,-202.5 146.5,-202.5"/>
<text text-anchor="start" x="8.5" y="-190.5" font-family="Helvetica,sans-Serif" font-size="10.00">+ word_t bit_length(T</text>
<text text-anchor="start" x="8.5" y="-179.5" font-family="Helvetica,sans-Serif" font-size="10.00"> *const *) const</text>
<text text-anchor="start" x="8.5" y="-168.5" font-family="Helvetica,sans-Serif" font-size="10.00">+ word_t get_bit(T *const</text>
<text text-anchor="start" x="8.5" y="-157.5" font-family="Helvetica,sans-Serif" font-size="10.00"> *s, word_t id) const</text>
<text text-anchor="start" x="8.5" y="-146.5" font-family="Helvetica,sans-Serif" font-size="10.00">+ word_t bit_mismatch</text>
<text text-anchor="start" x="8.5" y="-135.5" font-family="Helvetica,sans-Serif" font-size="10.00">(T *const *ap, T *const</text>
<text text-anchor="start" x="8.5" y="-124.5" font-family="Helvetica,sans-Serif" font-size="10.00"> *bp, word_t skip=0) const</text>
</a>
</g>
</g>
<!-- Node2&#45;&gt;Node1 -->
<g id="edge1" class="edge">
<title>Node2&#45;&gt;Node1</title>
<path fill="none" stroke="midnightblue" d="M73.5,-107.15C73.5,-97.58 73.5,-88.18 73.5,-79.61"/>
<polygon fill="none" stroke="midnightblue" points="70,-107.17 73.5,-117.17 77,-107.17 70,-107.17"/>
</g>
<!-- Node3 -->
<g id="node3" class="node">
<title>Node3</title>
<g id="a_node3"><a xlink:href="../../d2/db7/classuxn_1_1patl_1_1bit__comparator.html" target="_top" xlink:title=" ">
<polygon fill="none" stroke="black" points="3.5,-300.5 3.5,-368.5 143.5,-368.5 143.5,-300.5 3.5,-300.5"/>
<text text-anchor="start" x="11.5" y="-356.5" font-family="Helvetica,sans-Serif" font-size="10.00">uxn::patl::bit_comparator</text>
<text text-anchor="middle" x="73.5" y="-345.5" font-family="Helvetica,sans-Serif" font-size="10.00">&lt; word_t, 0 &gt;</text>
<polyline fill="none" stroke="black" points="3.5,-338.5 143.5,-338.5"/>
<text text-anchor="middle" x="73.5" y="-326.5" font-family="Helvetica,sans-Serif" font-size="10.00"> </text>
<polyline fill="none" stroke="black" points="3.5,-319.5 143.5,-319.5"/>
<text text-anchor="middle" x="73.5" y="-307.5" font-family="Helvetica,sans-Serif" font-size="10.00"> </text>
</a>
</g>
</g>
<!-- Node3&#45;&gt;Node2 -->
<g id="edge2" class="edge">
<title>Node3&#45;&gt;Node2</title>
<path fill="none" stroke="midnightblue" d="M73.5,-290.19C73.5,-281.48 73.5,-272.11 73.5,-262.72"/>
<polygon fill="none" stroke="midnightblue" points="70,-290.45 73.5,-300.45 77,-290.45 70,-290.45"/>
</g>
<!-- Node4 -->
<g id="node4" class="node">
<title>Node4</title>
<g id="a_node4"><a xlink:href="../../d2/db7/classuxn_1_1patl_1_1bit__comparator.html" target="_top" xlink:title=" ">
<polygon fill="none" stroke="black" points="3.5,-416.5 3.5,-484.5 143.5,-484.5 143.5,-416.5 3.5,-416.5"/>
<text text-anchor="start" x="11.5" y="-472.5" font-family="Helvetica,sans-Serif" font-size="10.00">uxn::patl::bit_comparator</text>
<text text-anchor="middle" x="73.5" y="-461.5" font-family="Helvetica,sans-Serif" font-size="10.00">&lt; T, N &gt;</text>
<polyline fill="none" stroke="black" points="3.5,-454.5 143.5,-454.5"/>
<text text-anchor="middle" x="73.5" y="-442.5" font-family="Helvetica,sans-Serif" font-size="10.00"> </text>
<polyline fill="none" stroke="black" points="3.5,-435.5 143.5,-435.5"/>
<text text-anchor="middle" x="73.5" y="-423.5" font-family="Helvetica,sans-Serif" font-size="10.00"> </text>
</a>
</g>
</g>
<!-- Node4&#45;&gt;Node3 -->
<g id="edge3" class="edge">
<title>Node4&#45;&gt;Node3</title>
<path fill="none" stroke="orange" d="M73.5,-406.06C73.5,-393.64 73.5,-380.32 73.5,-368.62"/>
<polygon fill="orange" stroke="orange" points="70,-406.22 73.5,-416.22 77,-406.22 70,-406.22"/>
<text text-anchor="middle" x="109" y="-390" font-family="Helvetica,sans-Serif" font-size="10.00"> &lt; word_t, 0 &gt;</text>
</g>
</g>
</svg>
