<?xml version="1.0" encoding="UTF-8" standalone="no"?>
<!DOCTYPE svg PUBLIC "-//W3C//DTD SVG 1.1//EN"
 "http://www.w3.org/Graphics/SVG/1.1/DTD/svg11.dtd">
<!-- Generated by graphviz version 5.0.1 (20220820.1526)
 -->
<!-- Title: main Pages: 1 -->
<!--zoomable 679 -->
<svg id="main" version="1.1" xmlns="http://www.w3.org/2000/svg" xmlns:xlink="http://www.w3.org/1999/xlink" xml:space="preserve" onload="init(evt)">
<style type="text/css"><![CDATA[
.edge:hover path { stroke: red; }
.edge:hover polygon { stroke: red; fill: red; }
]]></style>
<script type="text/javascript"><![CDATA[
var edges = document.getElementsByTagName('g');
if (edges && edges.length) {
  for (var i=0;i<edges.length;i++) {
    if (edges[i].id.substr(0,4)=='edge') {
      edges[i].setAttribute('class','edge');
    }
  }
}
]]></script>
        <defs>
                <circle id="rim" cx="0" cy="0" r="7"/>
                <circle id="rim2" cx="0" cy="0" r="3.5"/>
                <g id="zoomPlus">
                        <use xlink:href="#rim" fill="#404040">
                                <set attributeName="fill" to="#808080" begin="zoomplus.mouseover" end="zoomplus.mouseout"/>
                        </use>
                        <path d="M-4,0h8M0,-4v8" fill="none" stroke="white" stroke-width="1.5" pointer-events="none"/>
                </g>
                <g id="zoomMin">
                        <use xlink:href="#rim" fill="#404040">
                                <set attributeName="fill" to="#808080" begin="zoomminus.mouseover" end="zoomminus.mouseout"/>
                        </use>
                        <path d="M-4,0h8" fill="none" stroke="white" stroke-width="1.5" pointer-events="none"/>
                </g>
                <g id="dirArrow">
                        <path fill="none" stroke="white" stroke-width="1.5" d="M0,-3.0v7 M-2.5,-0.5L0,-3.0L2.5,-0.5"/>
                </g>
               <g id="resetDef">
                       <use xlink:href="#rim2" fill="#404040">
                               <set attributeName="fill" to="#808080" begin="reset.mouseover" end="reset.mouseout"/>
                       </use>
               </g>
        </defs>

<script type="text/javascript">
var viewWidth = 734;
var viewHeight = 679;
var sectionId = 'dynsection-7';
</script>
<script xlink:href="../../svgpan.js"/>
<svg id="graph" class="graph">
<g id="viewport">
<title>main</title>
<!-- Node1 -->
<g id="node1" class="node">
<title>Node1</title>
<g id="a_node1"><a xlink:title=" ">
<polygon fill="#bfbfbf" stroke="black" points="0,-602 0,-621 41,-621 41,-602 0,-602"/>
<text text-anchor="middle" x="20.5" y="-609" font-family="Helvetica,sans-Serif" font-size="10.00">main</text>
</a>
</g>
</g>
<!-- Node2 -->
<g id="node2" class="node">
<title>Node2</title>
<g id="a_node2"><a xlink:href="../../d3/d87/lz77_8cpp.html#ac1b66fe77173de9e5e8542b2823d6071" target="_top" xlink:title=" ">
<polygon fill="none" stroke="black" points="104,-640 104,-659 139,-659 139,-640 104,-640"/>
<text text-anchor="middle" x="121.5" y="-647" font-family="Helvetica,sans-Serif" font-size="10.00">info</text>
</a>
</g>
</g>
<!-- Node1&#45;&gt;Node2 -->
<g id="edge1" class="edge">
<title>Node1&#45;&gt;Node2</title>
<path fill="none" stroke="midnightblue" d="M41.06,-619.01C56.27,-624.85 77.53,-633.01 94.23,-639.42"/>
<polygon fill="midnightblue" stroke="midnightblue" points="93.35,-642.83 103.94,-643.14 95.86,-636.29 93.35,-642.83"/>
</g>
<!-- Node3 -->
<g id="node3" class="node">
<title>Node3</title>
<g id="a_node3"><a xlink:href="../../d3/d87/lz77_8cpp.html#a96bf5c98cb36266e461ecf6f31ac3aa7" target="_top" xlink:title=" ">
<polygon fill="none" stroke="black" points="83,-340 83,-359 160,-359 160,-340 83,-340"/>
<text text-anchor="middle" x="121.5" y="-347" font-family="Helvetica,sans-Serif" font-size="10.00">lz_compress</text>
</a>
</g>
</g>
<!-- Node1&#45;&gt;Node3 -->
<g id="edge2" class="edge">
<title>Node1&#45;&gt;Node3</title>
<path fill="none" stroke="midnightblue" d="M25.14,-601.86C39.66,-563.43 93.62,-420.64 113.28,-368.62"/>
<polygon fill="midnightblue" stroke="midnightblue" points="116.57,-369.81 116.83,-359.22 110.02,-367.34 116.57,-369.81"/>
</g>
<!-- Node30 -->
<g id="node30" class="node">
<title>Node30</title>
<g id="a_node30"><a xlink:href="../../d3/d87/lz77_8cpp.html#a7c5ca715ea744c307d7800d8f8358479" target="_top" xlink:title=" ">
<polygon fill="none" stroke="black" points="77,-602 77,-621 166,-621 166,-602 77,-602"/>
<text text-anchor="middle" x="121.5" y="-609" font-family="Helvetica,sans-Serif" font-size="10.00">lz_decompress</text>
</a>
</g>
</g>
<!-- Node1&#45;&gt;Node30 -->
<g id="edge33" class="edge">
<title>Node1&#45;&gt;Node30</title>
<path fill="none" stroke="midnightblue" d="M41.06,-611.5C48.59,-611.5 57.6,-611.5 66.81,-611.5"/>
<polygon fill="midnightblue" stroke="midnightblue" points="66.82,-615 76.82,-611.5 66.82,-608 66.82,-615"/>
</g>
<!-- Node4 -->
<g id="node4" class="node">
<title>Node4</title>
<g id="a_node4"><a xlink:href="../../db/db7/classuxn_1_1patl_1_1impl_1_1suffix__generic.html#a6b5ce975ed960d22158f993ac18729cc" target="_top" xlink:title=" ">
<polygon fill="none" stroke="black" points="223.5,-547.5 223.5,-577.5 343.5,-577.5 343.5,-547.5 223.5,-547.5"/>
<text text-anchor="start" x="231.5" y="-565.5" font-family="Helvetica,sans-Serif" font-size="10.00">uxn::patl::impl::suffix</text>
<text text-anchor="middle" x="283.5" y="-554.5" font-family="Helvetica,sans-Serif" font-size="10.00">_generic::clear</text>
</a>
</g>
</g>
<!-- Node3&#45;&gt;Node4 -->
<g id="edge3" class="edge">
<title>Node3&#45;&gt;Node4</title>
<path fill="none" stroke="midnightblue" d="M123.7,-359.42C128,-390.65 145.56,-487.87 202,-538.5 205.67,-541.8 209.78,-544.64 214.15,-547.09"/>
<polygon fill="midnightblue" stroke="midnightblue" points="212.89,-550.37 223.41,-551.6 215.95,-544.08 212.89,-550.37"/>
</g>
<!-- Node8 -->
<g id="node8" class="node">
<title>Node8</title>
<g id="a_node8"><a xlink:href="../../dd/dbb/classuxn_1_1patl_1_1suffix__set.html#ada0e46c207c9d97012bcbb6a7607b162" target="_top" xlink:title=" ">
<polygon fill="none" stroke="black" points="414.5,-410.5 414.5,-440.5 527.5,-440.5 527.5,-410.5 414.5,-410.5"/>
<text text-anchor="start" x="422.5" y="-428.5" font-family="Helvetica,sans-Serif" font-size="10.00">uxn::patl::suffix_set</text>
<text text-anchor="middle" x="471" y="-417.5" font-family="Helvetica,sans-Serif" font-size="10.00">::count_reindex</text>
</a>
</g>
</g>
<!-- Node3&#45;&gt;Node8 -->
<g id="edge7" class="edge">
<title>Node3&#45;&gt;Node8</title>
<path fill="none" stroke="midnightblue" d="M136.42,-359.14C151.75,-369.22 177.49,-384.67 202,-392.5 268.84,-413.85 349.14,-421.52 404.31,-424.2"/>
<polygon fill="midnightblue" stroke="midnightblue" points="404.16,-427.7 414.31,-424.65 404.48,-420.7 404.16,-427.7"/>
</g>
<!-- Node9 -->
<g id="node9" class="node">
<title>Node9</title>
<g id="a_node9"><a xlink:href="../../db/db7/classuxn_1_1patl_1_1impl_1_1suffix__generic.html#aa40451084d31ec23114745757ca30371" target="_top" xlink:title=" ">
<polygon fill="none" stroke="black" points="581.5,-465.5 581.5,-539.5 721.5,-539.5 721.5,-465.5 581.5,-465.5"/>
<text text-anchor="start" x="589.5" y="-527.5" font-family="Helvetica,sans-Serif" font-size="10.00">uxn::patl::impl::suffix</text>
<text text-anchor="start" x="589.5" y="-516.5" font-family="Helvetica,sans-Serif" font-size="10.00">_generic&lt; impl::suffix</text>
<text text-anchor="start" x="589.5" y="-505.5" font-family="Helvetica,sans-Serif" font-size="10.00">_set_traits&lt; Type, 0, 1,</text>
<text text-anchor="start" x="589.5" y="-494.5" font-family="Helvetica,sans-Serif" font-size="10.00"> bit_comparator&lt; Type, 0</text>
<text text-anchor="start" x="589.5" y="-483.5" font-family="Helvetica,sans-Serif" font-size="10.00"> &gt;, std::allocator&lt; Type</text>
<text text-anchor="middle" x="651.5" y="-472.5" font-family="Helvetica,sans-Serif" font-size="10.00"> &gt; &gt; &gt;::size</text>
</a>
</g>
</g>
<!-- Node3&#45;&gt;Node9 -->
<g id="edge30" class="edge">
<title>Node3&#45;&gt;Node9</title>
<path fill="none" stroke="midnightblue" d="M130.15,-359.13C143.12,-374.75 171.08,-405.38 202,-420.5 265.78,-451.7 460.42,-479.44 571.2,-493.25"/>
<polygon fill="midnightblue" stroke="midnightblue" points="570.96,-496.75 581.32,-494.5 571.82,-489.8 570.96,-496.75"/>
</g>
<!-- Node10 -->
<g id="node10" class="node">
<title>Node10</title>
<g id="a_node10"><a xlink:href="../../dd/d0e/namespaceuxn_1_1patl_1_1impl.html#ad5c1d1bf1ee87d90001fa0941be4aa4b" target="_top" xlink:title=" ">
<polygon fill="none" stroke="black" points="229,-596.5 229,-626.5 338,-626.5 338,-596.5 229,-596.5"/>
<text text-anchor="start" x="237" y="-614.5" font-family="Helvetica,sans-Serif" font-size="10.00">uxn::patl::impl::get</text>
<text text-anchor="middle" x="283.5" y="-603.5" font-family="Helvetica,sans-Serif" font-size="10.00">_highest_bit_id</text>
</a>
</g>
</g>
<!-- Node3&#45;&gt;Node10 -->
<g id="edge9" class="edge">
<title>Node3&#45;&gt;Node10</title>
<path fill="none" stroke="midnightblue" d="M122.72,-359.31C124.09,-395.3 133.76,-521.45 202,-587.5 207,-592.34 212.93,-596.21 219.27,-599.3"/>
<polygon fill="midnightblue" stroke="midnightblue" points="218.22,-602.65 228.8,-603.3 220.93,-596.2 218.22,-602.65"/>
</g>
<!-- Node11 -->
<g id="node11" class="node">
<title>Node11</title>
<g id="a_node11"><a xlink:href="../../d3/d81/classuxn_1_1patl_1_1impl_1_1const__vertex__generic.html#a53068b2956ea897fa16b02e82a707c44" target="_top" xlink:title=" ">
<polygon fill="none" stroke="black" points="224,-285.5 224,-315.5 343,-315.5 343,-285.5 224,-285.5"/>
<text text-anchor="start" x="232" y="-303.5" font-family="Helvetica,sans-Serif" font-size="10.00">uxn::patl::impl::const</text>
<text text-anchor="middle" x="283.5" y="-292.5" font-family="Helvetica,sans-Serif" font-size="10.00">_vertex_generic::key</text>
</a>
</g>
</g>
<!-- Node3&#45;&gt;Node11 -->
<g id="edge10" class="edge">
<title>Node3&#45;&gt;Node11</title>
<path fill="none" stroke="midnightblue" d="M153.73,-339.94C173.63,-333.84 200.05,-325.75 223.77,-318.49"/>
<polygon fill="midnightblue" stroke="midnightblue" points="224.86,-321.81 233.4,-315.54 222.81,-315.12 224.86,-321.81"/>
</g>
<!-- Node12 -->
<g id="node12" class="node">
<title>Node12</title>
<g id="a_node12"><a xlink:href="../../dd/d0e/namespaceuxn_1_1patl_1_1impl.html#ab90f63027d43b408cc70d2f0db94c9fc" target="_top" xlink:title=" ">
<polygon fill="none" stroke="black" points="223,-247 223,-266 344,-266 344,-247 223,-247"/>
<text text-anchor="middle" x="283.5" y="-254" font-family="Helvetica,sans-Serif" font-size="10.00">uxn::patl::impl::max0</text>
</a>
</g>
</g>
<!-- Node3&#45;&gt;Node12 -->
<g id="edge11" class="edge">
<title>Node3&#45;&gt;Node12</title>
<path fill="none" stroke="midnightblue" d="M129.93,-339.89C142.81,-323.94 170.9,-292.12 202,-275.5 206.29,-273.21 210.85,-271.19 215.53,-269.42"/>
<polygon fill="midnightblue" stroke="midnightblue" points="216.94,-272.64 225.28,-266.1 214.69,-266.01 216.94,-272.64"/>
</g>
<!-- Node13 -->
<g id="node13" class="node">
<title>Node13</title>
<g id="a_node13"><a xlink:href="../../db/db7/classuxn_1_1patl_1_1impl_1_1suffix__generic.html#a571add68de0b08a9c3e375d4c3dd8ea6" target="_top" xlink:title="erase front suffix">
<polygon fill="none" stroke="black" points="223.5,-498.5 223.5,-528.5 343.5,-528.5 343.5,-498.5 223.5,-498.5"/>
<text text-anchor="start" x="231.5" y="-516.5" font-family="Helvetica,sans-Serif" font-size="10.00">uxn::patl::impl::suffix</text>
<text text-anchor="middle" x="283.5" y="-505.5" font-family="Helvetica,sans-Serif" font-size="10.00">_generic::pop_front</text>
</a>
</g>
</g>
<!-- Node3&#45;&gt;Node13 -->
<g id="edge12" class="edge">
<title>Node3&#45;&gt;Node13</title>
<path fill="none" stroke="midnightblue" d="M125.64,-359.1C134.07,-383.41 159.45,-447.95 202,-483.5 206.62,-487.36 211.78,-490.75 217.2,-493.72"/>
<polygon fill="midnightblue" stroke="midnightblue" points="216.01,-497.03 226.52,-498.33 219.11,-490.76 216.01,-497.03"/>
</g>
<!-- Node16 -->
<g id="node16" class="node">
<title>Node16</title>
<g id="a_node16"><a xlink:href="../../dd/dbb/classuxn_1_1patl_1_1suffix__set.html#a47f4d51c9c462c4de03275b2ff9aecaf" target="_top" xlink:title=" ">
<polygon fill="none" stroke="black" points="227,-197.5 227,-227.5 340,-227.5 340,-197.5 227,-197.5"/>
<text text-anchor="start" x="235" y="-215.5" font-family="Helvetica,sans-Serif" font-size="10.00">uxn::patl::suffix_set</text>
<text text-anchor="middle" x="283.5" y="-204.5" font-family="Helvetica,sans-Serif" font-size="10.00">::pop_reindex</text>
</a>
</g>
</g>
<!-- Node3&#45;&gt;Node16 -->
<g id="edge16" class="edge">
<title>Node3&#45;&gt;Node16</title>
<path fill="none" stroke="midnightblue" d="M126.71,-339.79C136.59,-318.11 163.39,-265.49 202,-237.5 206.78,-234.03 212.06,-231.04 217.55,-228.45"/>
<polygon fill="midnightblue" stroke="midnightblue" points="219.11,-231.59 226.95,-224.48 216.38,-225.15 219.11,-231.59"/>
</g>
<!-- Node18 -->
<g id="node18" class="node">
<title>Node18</title>
<g id="a_node18"><a xlink:href="../../dd/dbb/classuxn_1_1patl_1_1suffix__set.html#ae50776c104b736774600b2977c86cc5a" target="_top" xlink:title=" ">
<polygon fill="none" stroke="black" points="414.5,-317.5 414.5,-347.5 527.5,-347.5 527.5,-317.5 414.5,-317.5"/>
<text text-anchor="start" x="422.5" y="-335.5" font-family="Helvetica,sans-Serif" font-size="10.00">uxn::patl::suffix_set</text>
<text text-anchor="middle" x="471" y="-324.5" font-family="Helvetica,sans-Serif" font-size="10.00">::push_back</text>
</a>
</g>
</g>
<!-- Node3&#45;&gt;Node18 -->
<g id="edge18" class="edge">
<title>Node3&#45;&gt;Node18</title>
<path fill="none" stroke="midnightblue" d="M146.4,-359.12C161.95,-364.85 182.84,-371.56 202,-374.5 273.61,-385.49 293.86,-388.2 365,-374.5 388.03,-370.06 412.43,-360.62 431.91,-351.81"/>
<polygon fill="midnightblue" stroke="midnightblue" points="433.45,-354.96 441.04,-347.57 430.5,-348.61 433.45,-354.96"/>
</g>
<!-- Node24 -->
<g id="node24" class="node">
<title>Node24</title>
<g id="a_node24"><a xlink:href="../../dd/dbb/classuxn_1_1patl_1_1suffix__set.html#a58a8b893b58cc975b1c33581c6200d42" target="_top" xlink:title=" ">
<polygon fill="none" stroke="black" points="227,-334.5 227,-364.5 340,-364.5 340,-334.5 227,-334.5"/>
<text text-anchor="start" x="235" y="-352.5" font-family="Helvetica,sans-Serif" font-size="10.00">uxn::patl::suffix_set</text>
<text text-anchor="middle" x="283.5" y="-341.5" font-family="Helvetica,sans-Serif" font-size="10.00">::push_reindex</text>
</a>
</g>
</g>
<!-- Node3&#45;&gt;Node24 -->
<g id="edge25" class="edge">
<title>Node3&#45;&gt;Node24</title>
<path fill="none" stroke="midnightblue" d="M160.01,-349.5C176.85,-349.5 197.21,-349.5 216.47,-349.5"/>
<polygon fill="midnightblue" stroke="midnightblue" points="216.72,-353 226.72,-349.5 216.72,-346 216.72,-353"/>
</g>
<!-- Node25 -->
<g id="node25" class="node">
<title>Node25</title>
<g id="a_node25"><a xlink:href="../../db/db7/classuxn_1_1patl_1_1impl_1_1suffix__generic.html#a4911ef44eacdb8fd9169fa7327941b3b" target="_top" xlink:title=" ">
<polygon fill="none" stroke="black" points="223.5,-148.5 223.5,-178.5 343.5,-178.5 343.5,-148.5 223.5,-148.5"/>
<text text-anchor="start" x="231.5" y="-166.5" font-family="Helvetica,sans-Serif" font-size="10.00">uxn::patl::impl::suffix</text>
<text text-anchor="middle" x="283.5" y="-155.5" font-family="Helvetica,sans-Serif" font-size="10.00">_generic::rebind</text>
</a>
</g>
</g>
<!-- Node3&#45;&gt;Node25 -->
<g id="edge27" class="edge">
<title>Node3&#45;&gt;Node25</title>
<path fill="none" stroke="midnightblue" d="M124.41,-339.8C130.45,-311.78 151.77,-229.99 202,-187.5 205.7,-184.37 209.8,-181.64 214.13,-179.28"/>
<polygon fill="midnightblue" stroke="midnightblue" points="215.78,-182.37 223.29,-174.9 212.76,-176.05 215.78,-182.37"/>
</g>
<!-- Node27 -->
<g id="node27" class="node">
<title>Node27</title>
<g id="a_node27"><a xlink:href="../../d3/dd2/classuxn_1_1patl_1_1impl_1_1vertex__generic.html#a86071aa8d44832407083c2373bae03fe" target="_top" xlink:title=" ">
<polygon fill="none" stroke="black" points="221,-99.5 221,-129.5 346,-129.5 346,-99.5 221,-99.5"/>
<text text-anchor="start" x="229" y="-117.5" font-family="Helvetica,sans-Serif" font-size="10.00">uxn::patl::impl::vertex</text>
<text text-anchor="middle" x="283.5" y="-106.5" font-family="Helvetica,sans-Serif" font-size="10.00">_generic::sibling</text>
</a>
</g>
</g>
<!-- Node3&#45;&gt;Node27 -->
<g id="edge29" class="edge">
<title>Node3&#45;&gt;Node27</title>
<path fill="none" stroke="midnightblue" d="M123.19,-339.88C126.07,-306.73 140.14,-196.14 202,-138.5 204.98,-135.73 208.26,-133.27 211.75,-131.1"/>
<polygon fill="midnightblue" stroke="midnightblue" points="213.61,-134.07 220.78,-126.27 210.31,-127.9 213.61,-134.07"/>
</g>
<!-- Node28 -->
<g id="node28" class="node">
<title>Node28</title>
<g id="a_node28"><a xlink:href="../../d3/d81/classuxn_1_1patl_1_1impl_1_1const__vertex__generic.html#aea777dfc1baa0c2ccc8566c7e613a91d" target="_top" xlink:title=" ">
<polygon fill="none" stroke="black" points="223,-50.5 223,-80.5 344,-80.5 344,-50.5 223,-50.5"/>
<text text-anchor="start" x="231" y="-68.5" font-family="Helvetica,sans-Serif" font-size="10.00">uxn::patl::impl::const</text>
<text text-anchor="middle" x="283.5" y="-57.5" font-family="Helvetica,sans-Serif" font-size="10.00">_vertex_generic::skip</text>
</a>
</g>
</g>
<!-- Node3&#45;&gt;Node28 -->
<g id="edge31" class="edge">
<title>Node3&#45;&gt;Node28</title>
<path fill="none" stroke="midnightblue" d="M122.4,-339.86C122.56,-302.1 128.31,-162.67 202,-89.5 205.5,-86.02 209.49,-83.04 213.76,-80.5"/>
<polygon fill="midnightblue" stroke="midnightblue" points="215.57,-83.5 222.89,-75.84 212.39,-77.27 215.57,-83.5"/>
</g>
<!-- Node29 -->
<g id="node29" class="node">
<title>Node29</title>
<g id="a_node29"><a xlink:href="../../dd/d0e/namespaceuxn_1_1patl_1_1impl.html#aee8c5d28b66c9414c5e96b1080abbc78" target="_top" xlink:title=" ">
<polygon fill="none" stroke="black" points="202,-12 202,-31 365,-31 365,-12 202,-12"/>
<text text-anchor="middle" x="283.5" y="-19" font-family="Helvetica,sans-Serif" font-size="10.00">uxn::patl::impl::unsigned_cast</text>
</a>
</g>
</g>
<!-- Node3&#45;&gt;Node29 -->
<g id="edge32" class="edge">
<title>Node3&#45;&gt;Node29</title>
<path fill="none" stroke="midnightblue" d="M123.64,-339.89C129.44,-292.51 157.2,-84.41 202,-40.5 203.46,-39.07 205.01,-37.74 206.63,-36.5"/>
<polygon fill="midnightblue" stroke="midnightblue" points="208.67,-39.35 215.27,-31.06 204.94,-33.42 208.67,-39.35"/>
</g>
<!-- Node5 -->
<g id="node5" class="node">
<title>Node5</title>
<g id="a_node5"><a xlink:href="../../d7/ddc/classuxn_1_1patl_1_1impl_1_1ring__buffer.html#a2eb00ee56651ba51dbba4ead8547ea6f" target="_top" xlink:title=" ">
<polygon fill="none" stroke="black" points="415,-635.5 415,-665.5 527,-665.5 527,-635.5 415,-635.5"/>
<text text-anchor="start" x="423" y="-653.5" font-family="Helvetica,sans-Serif" font-size="10.00">uxn::patl::impl::ring</text>
<text text-anchor="middle" x="471" y="-642.5" font-family="Helvetica,sans-Serif" font-size="10.00">_buffer::clear</text>
</a>
</g>
</g>
<!-- Node4&#45;&gt;Node5 -->
<g id="edge4" class="edge">
<title>Node4&#45;&gt;Node5</title>
<path fill="none" stroke="midnightblue" d="M343.82,-577.6C351.16,-580.43 358.4,-583.71 365,-587.5 383.82,-598.31 382.8,-608.68 401,-620.5 406.81,-624.28 413.18,-627.78 419.63,-630.95"/>
<polygon fill="midnightblue" stroke="midnightblue" points="418.53,-634.3 429.07,-635.37 421.49,-627.96 418.53,-634.3"/>
</g>
<!-- Node6 -->
<g id="node6" class="node">
<title>Node6</title>
<g id="a_node6"><a xlink:href="../../d7/ddc/classuxn_1_1patl_1_1impl_1_1ring__buffer.html#abde8c78c58d86d1f1b222608c1cb0323" target="_top" xlink:title=" ">
<polygon fill="none" stroke="black" points="595.5,-640.5 595.5,-670.5 707.5,-670.5 707.5,-640.5 595.5,-640.5"/>
<text text-anchor="start" x="603.5" y="-658.5" font-family="Helvetica,sans-Serif" font-size="10.00">uxn::patl::impl::ring</text>
<text text-anchor="middle" x="651.5" y="-647.5" font-family="Helvetica,sans-Serif" font-size="10.00">_buffer::empty</text>
</a>
</g>
</g>
<!-- Node5&#45;&gt;Node6 -->
<g id="edge5" class="edge">
<title>Node5&#45;&gt;Node6</title>
<path fill="none" stroke="midnightblue" d="M527.01,-652.04C545.42,-652.56 566.12,-653.14 585.23,-653.67"/>
<polygon fill="midnightblue" stroke="midnightblue" points="585.27,-657.17 595.36,-653.96 585.46,-650.18 585.27,-657.17"/>
</g>
<!-- Node7 -->
<g id="node7" class="node">
<title>Node7</title>
<g id="a_node7"><a xlink:href="../../d7/ddc/classuxn_1_1patl_1_1impl_1_1ring__buffer.html#ad17b73a9b9df7e9be22cc93006afbcb5" target="_top" xlink:title=" ">
<polygon fill="none" stroke="black" points="595.5,-591.5 595.5,-621.5 707.5,-621.5 707.5,-591.5 595.5,-591.5"/>
<text text-anchor="start" x="603.5" y="-609.5" font-family="Helvetica,sans-Serif" font-size="10.00">uxn::patl::impl::ring</text>
<text text-anchor="middle" x="651.5" y="-598.5" font-family="Helvetica,sans-Serif" font-size="10.00">_buffer::pop_front</text>
</a>
</g>
</g>
<!-- Node5&#45;&gt;Node7 -->
<g id="edge6" class="edge">
<title>Node5&#45;&gt;Node7</title>
<path fill="none" stroke="midnightblue" d="M527.01,-636.94C545.51,-632.38 566.31,-627.25 585.5,-622.52"/>
<polygon fill="midnightblue" stroke="midnightblue" points="586.49,-625.88 595.36,-620.09 584.81,-619.09 586.49,-625.88"/>
</g>
<!-- Node8&#45;&gt;Node9 -->
<g id="edge8" class="edge">
<title>Node8&#45;&gt;Node9</title>
<path fill="none" stroke="midnightblue" d="M506.84,-440.53C525.48,-448.57 549.23,-458.82 572.04,-468.65"/>
<polygon fill="midnightblue" stroke="midnightblue" points="570.82,-471.94 581.39,-472.69 573.59,-465.51 570.82,-471.94"/>
</g>
<!-- Node13&#45;&gt;Node7 -->
<g id="edge15" class="edge">
<title>Node13&#45;&gt;Node7</title>
<path fill="none" stroke="midnightblue" d="M343.74,-527.07C351.26,-530.15 358.56,-533.91 365,-538.5 387.01,-554.18 377.37,-574.39 401,-587.5 457.47,-618.84 532.5,-620.18 585.48,-615.81"/>
<polygon fill="midnightblue" stroke="midnightblue" points="585.8,-619.29 595.44,-614.89 585.16,-612.32 585.8,-619.29"/>
</g>
<!-- Node14 -->
<g id="node14" class="node">
<title>Node14</title>
<g id="a_node14"><a xlink:href="../../db/db7/classuxn_1_1patl_1_1impl_1_1suffix__generic.html#a571330e184188a382f424ee06908bb1b" target="_top" xlink:title=" ">
<polygon fill="none" stroke="black" points="411,-547.5 411,-577.5 531,-577.5 531,-547.5 411,-547.5"/>
<text text-anchor="start" x="419" y="-565.5" font-family="Helvetica,sans-Serif" font-size="10.00">uxn::patl::impl::suffix</text>
<text text-anchor="middle" x="471" y="-554.5" font-family="Helvetica,sans-Serif" font-size="10.00">_generic::erase_node</text>
</a>
</g>
</g>
<!-- Node13&#45;&gt;Node14 -->
<g id="edge13" class="edge">
<title>Node13&#45;&gt;Node14</title>
<path fill="none" stroke="midnightblue" d="M341.42,-528.53C361,-533.71 383.11,-539.55 403.4,-544.91"/>
<polygon fill="midnightblue" stroke="midnightblue" points="402.63,-548.32 413.19,-547.49 404.42,-541.56 402.63,-548.32"/>
</g>
<!-- Node15 -->
<g id="node15" class="node">
<title>Node15</title>
<g id="a_node15"><a xlink:href="../../d7/ddc/classuxn_1_1patl_1_1impl_1_1ring__buffer.html#ae46bef720f3ea4f608af0c0a0946ca9b" target="_top" xlink:title=" ">
<polygon fill="none" stroke="black" points="415,-498.5 415,-528.5 527,-528.5 527,-498.5 415,-498.5"/>
<text text-anchor="start" x="423" y="-516.5" font-family="Helvetica,sans-Serif" font-size="10.00">uxn::patl::impl::ring</text>
<text text-anchor="middle" x="471" y="-505.5" font-family="Helvetica,sans-Serif" font-size="10.00">_buffer::front</text>
</a>
</g>
</g>
<!-- Node13&#45;&gt;Node15 -->
<g id="edge14" class="edge">
<title>Node13&#45;&gt;Node15</title>
<path fill="none" stroke="midnightblue" d="M343.7,-513.5C363.12,-513.5 384.79,-513.5 404.64,-513.5"/>
<polygon fill="midnightblue" stroke="midnightblue" points="404.82,-517 414.82,-513.5 404.82,-510 404.82,-517"/>
</g>
<!-- Node17 -->
<g id="node17" class="node">
<title>Node17</title>
<g id="a_node17"><a xlink:href="../../db/db7/classuxn_1_1patl_1_1impl_1_1suffix__generic.html#a13c44778e878a37e350ff853f6706942" target="_top" xlink:title="erase back suffix">
<polygon fill="none" stroke="black" points="401,-186.5 401,-260.5 541,-260.5 541,-186.5 401,-186.5"/>
<text text-anchor="start" x="409" y="-248.5" font-family="Helvetica,sans-Serif" font-size="10.00">uxn::patl::impl::suffix</text>
<text text-anchor="start" x="409" y="-237.5" font-family="Helvetica,sans-Serif" font-size="10.00">_generic&lt; impl::suffix</text>
<text text-anchor="start" x="409" y="-226.5" font-family="Helvetica,sans-Serif" font-size="10.00">_set_traits&lt; Type, 0, 1,</text>
<text text-anchor="start" x="409" y="-215.5" font-family="Helvetica,sans-Serif" font-size="10.00"> bit_comparator&lt; Type, 0</text>
<text text-anchor="start" x="409" y="-204.5" font-family="Helvetica,sans-Serif" font-size="10.00"> &gt;, std::allocator&lt; Type</text>
<text text-anchor="middle" x="471" y="-193.5" font-family="Helvetica,sans-Serif" font-size="10.00"> &gt; &gt; &gt;::pop_back</text>
</a>
</g>
</g>
<!-- Node16&#45;&gt;Node17 -->
<g id="edge17" class="edge">
<title>Node16&#45;&gt;Node17</title>
<path fill="none" stroke="midnightblue" d="M340.16,-215.8C355.98,-216.74 373.52,-217.78 390.46,-218.78"/>
<polygon fill="midnightblue" stroke="midnightblue" points="390.72,-222.3 400.91,-219.4 391.14,-215.32 390.72,-222.3"/>
</g>
<!-- Node18&#45;&gt;Node9 -->
<g id="edge24" class="edge">
<title>Node18&#45;&gt;Node9</title>
<path fill="none" stroke="midnightblue" d="M488.87,-347.52C503.48,-360.94 524.76,-381.52 541,-401.5 559.43,-424.17 556.13,-436.05 577,-456.5 577.78,-457.26 578.57,-458.02 579.38,-458.77"/>
<polygon fill="midnightblue" stroke="midnightblue" points="577.12,-461.44 586.97,-465.34 581.7,-456.15 577.12,-461.44"/>
</g>
<!-- Node19 -->
<g id="node19" class="node">
<title>Node19</title>
<g id="a_node19"><a xlink:href="../../db/db7/classuxn_1_1patl_1_1impl_1_1suffix__generic.html#a5f1a79ec8899f0e12680cb343470cc11" target="_top" xlink:title=" ">
<polygon fill="none" stroke="black" points="581.5,-372.5 581.5,-446.5 721.5,-446.5 721.5,-372.5 581.5,-372.5"/>
<text text-anchor="start" x="589.5" y="-434.5" font-family="Helvetica,sans-Serif" font-size="10.00">uxn::patl::impl::suffix</text>
<text text-anchor="start" x="589.5" y="-423.5" font-family="Helvetica,sans-Serif" font-size="10.00">_generic&lt; impl::suffix</text>
<text text-anchor="start" x="589.5" y="-412.5" font-family="Helvetica,sans-Serif" font-size="10.00">_set_traits&lt; Type, 0, 1,</text>
<text text-anchor="start" x="589.5" y="-401.5" font-family="Helvetica,sans-Serif" font-size="10.00"> bit_comparator&lt; Type, 0</text>
<text text-anchor="start" x="589.5" y="-390.5" font-family="Helvetica,sans-Serif" font-size="10.00"> &gt;, std::allocator&lt; Type</text>
<text text-anchor="middle" x="651.5" y="-379.5" font-family="Helvetica,sans-Serif" font-size="10.00"> &gt; &gt; &gt;::capacity</text>
</a>
</g>
</g>
<!-- Node18&#45;&gt;Node19 -->
<g id="edge19" class="edge">
<title>Node18&#45;&gt;Node19</title>
<path fill="none" stroke="midnightblue" d="M506.84,-347.53C525.48,-355.57 549.23,-365.82 572.04,-375.65"/>
<polygon fill="midnightblue" stroke="midnightblue" points="570.82,-378.94 581.39,-379.69 573.59,-372.51 570.82,-378.94"/>
</g>
<!-- Node20 -->
<g id="node20" class="node">
<title>Node20</title>
<g id="a_node20"><a xlink:href="../../db/db7/classuxn_1_1patl_1_1impl_1_1suffix__generic.html#a19845a4d480875e2b697c49d19bfa1ce" target="_top" xlink:title="return true if suffix_cont is empty OR full">
<polygon fill="none" stroke="black" points="581.5,-279.5 581.5,-353.5 721.5,-353.5 721.5,-279.5 581.5,-279.5"/>
<text text-anchor="start" x="589.5" y="-341.5" font-family="Helvetica,sans-Serif" font-size="10.00">uxn::patl::impl::suffix</text>
<text text-anchor="start" x="589.5" y="-330.5" font-family="Helvetica,sans-Serif" font-size="10.00">_generic&lt; impl::suffix</text>
<text text-anchor="start" x="589.5" y="-319.5" font-family="Helvetica,sans-Serif" font-size="10.00">_set_traits&lt; Type, 0, 1,</text>
<text text-anchor="start" x="589.5" y="-308.5" font-family="Helvetica,sans-Serif" font-size="10.00"> bit_comparator&lt; Type, 0</text>
<text text-anchor="start" x="589.5" y="-297.5" font-family="Helvetica,sans-Serif" font-size="10.00"> &gt;, std::allocator&lt; Type</text>
<text text-anchor="middle" x="651.5" y="-286.5" font-family="Helvetica,sans-Serif" font-size="10.00"> &gt; &gt; &gt;::endpoint</text>
</a>
</g>
</g>
<!-- Node18&#45;&gt;Node20 -->
<g id="edge20" class="edge">
<title>Node18&#45;&gt;Node20</title>
<path fill="none" stroke="midnightblue" d="M527.5,-327.53C541.3,-326.29 556.37,-324.94 571.08,-323.62"/>
<polygon fill="midnightblue" stroke="midnightblue" points="571.53,-327.09 581.18,-322.71 570.91,-320.12 571.53,-327.09"/>
</g>
<!-- Node21 -->
<g id="node21" class="node">
<title>Node21</title>
<g id="a_node21"><a xlink:href="../../db/db7/classuxn_1_1patl_1_1impl_1_1suffix__generic.html#a3758d1f5bf1e70bd5f67a7edb7d7971f" target="_top" xlink:title=" ">
<polygon fill="none" stroke="black" points="577,-186.5 577,-260.5 726,-260.5 726,-186.5 577,-186.5"/>
<text text-anchor="start" x="585" y="-248.5" font-family="Helvetica,sans-Serif" font-size="10.00">uxn::patl::impl::suffix</text>
<text text-anchor="start" x="585" y="-237.5" font-family="Helvetica,sans-Serif" font-size="10.00">_generic&lt; impl::suffix</text>
<text text-anchor="start" x="585" y="-226.5" font-family="Helvetica,sans-Serif" font-size="10.00">_set_traits&lt; Type, 0, 1,</text>
<text text-anchor="start" x="585" y="-215.5" font-family="Helvetica,sans-Serif" font-size="10.00"> bit_comparator&lt; Type, 0</text>
<text text-anchor="start" x="585" y="-204.5" font-family="Helvetica,sans-Serif" font-size="10.00"> &gt;, std::allocator&lt; Type</text>
<text text-anchor="middle" x="651.5" y="-193.5" font-family="Helvetica,sans-Serif" font-size="10.00"> &gt; &gt; &gt;::push_back_generic</text>
</a>
</g>
</g>
<!-- Node18&#45;&gt;Node21 -->
<g id="edge21" class="edge">
<title>Node18&#45;&gt;Node21</title>
<path fill="none" stroke="midnightblue" d="M496.82,-317.34C518.62,-304.03 551.39,-284.02 581.08,-265.89"/>
<polygon fill="midnightblue" stroke="midnightblue" points="583.06,-268.78 589.77,-260.58 579.41,-262.81 583.06,-268.78"/>
</g>
<!-- Node22 -->
<g id="node22" class="node">
<title>Node22</title>
<g id="a_node22"><a xlink:href="../../db/db7/classuxn_1_1patl_1_1impl_1_1suffix__generic.html#a52f5d589814ab7cf08b9840cb90f1377" target="_top" xlink:title=" ">
<polygon fill="none" stroke="black" points="581.5,-93.5 581.5,-167.5 721.5,-167.5 721.5,-93.5 581.5,-93.5"/>
<text text-anchor="start" x="589.5" y="-155.5" font-family="Helvetica,sans-Serif" font-size="10.00">uxn::patl::impl::suffix</text>
<text text-anchor="start" x="589.5" y="-144.5" font-family="Helvetica,sans-Serif" font-size="10.00">_generic&lt; impl::suffix</text>
<text text-anchor="start" x="589.5" y="-133.5" font-family="Helvetica,sans-Serif" font-size="10.00">_set_traits&lt; Type, 0, 1,</text>
<text text-anchor="start" x="589.5" y="-122.5" font-family="Helvetica,sans-Serif" font-size="10.00"> bit_comparator&lt; Type, 0</text>
<text text-anchor="start" x="589.5" y="-111.5" font-family="Helvetica,sans-Serif" font-size="10.00"> &gt;, std::allocator&lt; Type</text>
<text text-anchor="middle" x="651.5" y="-100.5" font-family="Helvetica,sans-Serif" font-size="10.00"> &gt; &gt; &gt;::push_back_root</text>
</a>
</g>
</g>
<!-- Node18&#45;&gt;Node22 -->
<g id="edge22" class="edge">
<title>Node18&#45;&gt;Node22</title>
<path fill="none" stroke="midnightblue" d="M493.12,-317.46C508.19,-305.81 527.99,-288.51 541,-269.5 566.03,-232.92 548.77,-210.67 577,-176.5 577.49,-175.91 577.98,-175.33 578.48,-174.75"/>
<polygon fill="midnightblue" stroke="midnightblue" points="581.03,-177.16 585.49,-167.55 576.01,-172.28 581.03,-177.16"/>
</g>
<!-- Node23 -->
<g id="node23" class="node">
<title>Node23</title>
<g id="a_node23"><a xlink:href="../../db/db7/classuxn_1_1patl_1_1impl_1_1suffix__generic.html#a3a8ccdc542ec789f363fbfacb3d3e344" target="_top" xlink:title=" ">
<polygon fill="none" stroke="black" points="581.5,-0.5 581.5,-74.5 721.5,-74.5 721.5,-0.5 581.5,-0.5"/>
<text text-anchor="start" x="589.5" y="-62.5" font-family="Helvetica,sans-Serif" font-size="10.00">uxn::patl::impl::suffix</text>
<text text-anchor="start" x="589.5" y="-51.5" font-family="Helvetica,sans-Serif" font-size="10.00">_generic&lt; impl::suffix</text>
<text text-anchor="start" x="589.5" y="-40.5" font-family="Helvetica,sans-Serif" font-size="10.00">_set_traits&lt; Type, 0, 1,</text>
<text text-anchor="start" x="589.5" y="-29.5" font-family="Helvetica,sans-Serif" font-size="10.00"> bit_comparator&lt; Type, 0</text>
<text text-anchor="start" x="589.5" y="-18.5" font-family="Helvetica,sans-Serif" font-size="10.00"> &gt;, std::allocator&lt; Type</text>
<text text-anchor="middle" x="651.5" y="-7.5" font-family="Helvetica,sans-Serif" font-size="10.00"> &gt; &gt; &gt;::reserve</text>
</a>
</g>
</g>
<!-- Node18&#45;&gt;Node23 -->
<g id="edge23" class="edge">
<title>Node18&#45;&gt;Node23</title>
<path fill="none" stroke="midnightblue" d="M495.15,-317.37C510.58,-306.05 529.97,-289.17 541,-269.5 582.18,-196.06 529.36,-152.93 577,-83.5 577.2,-83.21 577.4,-82.92 577.61,-82.63"/>
<polygon fill="midnightblue" stroke="midnightblue" points="580.5,-84.63 584.17,-74.69 575.1,-80.17 580.5,-84.63"/>
</g>
<!-- Node24&#45;&gt;Node18 -->
<g id="edge26" class="edge">
<title>Node24&#45;&gt;Node18</title>
<path fill="none" stroke="midnightblue" d="M340.16,-344.4C360.33,-342.55 383.31,-340.44 404.28,-338.52"/>
<polygon fill="midnightblue" stroke="midnightblue" points="404.74,-342 414.38,-337.6 404.11,-335.02 404.74,-342"/>
</g>
<!-- Node26 -->
<g id="node26" class="node">
<title>Node26</title>
<g id="a_node26"><a xlink:href="../../db/db7/classuxn_1_1patl_1_1impl_1_1suffix__generic.html#a755ff4d1ad4df54f258c3e09d32f23f0" target="_top" xlink:title=" ">
<polygon fill="none" stroke="black" points="411,-137.5 411,-167.5 531,-167.5 531,-137.5 411,-137.5"/>
<text text-anchor="start" x="419" y="-155.5" font-family="Helvetica,sans-Serif" font-size="10.00">uxn::patl::impl::suffix</text>
<text text-anchor="middle" x="471" y="-144.5" font-family="Helvetica,sans-Serif" font-size="10.00">_generic::keys</text>
</a>
</g>
</g>
<!-- Node25&#45;&gt;Node26 -->
<g id="edge28" class="edge">
<title>Node25&#45;&gt;Node26</title>
<path fill="none" stroke="midnightblue" d="M343.7,-159.99C361.78,-158.92 381.81,-157.73 400.5,-156.62"/>
<polygon fill="midnightblue" stroke="midnightblue" points="400.95,-160.1 410.72,-156.02 400.53,-153.11 400.95,-160.1"/>
</g>
<!-- Node30&#45;&gt;Node10 -->
<g id="edge35" class="edge">
<title>Node30&#45;&gt;Node10</title>
<path fill="none" stroke="midnightblue" d="M166.22,-611.5C182.39,-611.5 201.06,-611.5 218.64,-611.5"/>
<polygon fill="midnightblue" stroke="midnightblue" points="218.85,-615 228.85,-611.5 218.85,-608 218.85,-615"/>
</g>
<!-- Node31 -->
<g id="node31" class="node">
<title>Node31</title>
<g id="a_node31"><a xlink:href="../../d3/d87/lz77_8cpp.html#ad7552b7764057e7b0822e2e7b9de1644" target="_top" xlink:title=" ">
<polygon fill="none" stroke="black" points="251,-646 251,-665 316,-665 316,-646 251,-646"/>
<text text-anchor="middle" x="283.5" y="-653" font-family="Helvetica,sans-Serif" font-size="10.00">copymem</text>
</a>
</g>
</g>
<!-- Node30&#45;&gt;Node31 -->
<g id="edge34" class="edge">
<title>Node30&#45;&gt;Node31</title>
<path fill="none" stroke="midnightblue" d="M151.05,-621.03C166.13,-625.92 184.98,-631.82 202,-636.5 214.56,-639.95 228.34,-643.35 240.88,-646.29"/>
<polygon fill="midnightblue" stroke="midnightblue" points="240.1,-649.7 250.63,-648.54 241.68,-642.88 240.1,-649.7"/>
</g>
</g>
</svg>
        <g id="navigator" transform="translate(0 0)" fill="#404254">
                <rect fill="#f2f5e9" fill-opacity="0.5" stroke="#606060" stroke-width=".5" x="0" y="0" width="60" height="60"/>
                <use id="zoomplus" xlink:href="#zoomPlus" x="17" y="9" onmousedown="handleZoom(evt,'in')"/>
                <use id="zoomminus" xlink:href="#zoomMin" x="42" y="9" onmousedown="handleZoom(evt,'out')"/>
                <use id="reset" xlink:href="#resetDef" x="30" y="36" onmousedown="handleReset()"/>
                <g id="arrowUp" xlink:href="#dirArrow" transform="translate(30 24)" onmousedown="handlePan(0,-1)">
                  <use xlink:href="#rim" fill="#404040">
                        <set attributeName="fill" to="#808080" begin="arrowUp.mouseover" end="arrowUp.mouseout"/>
                  </use>
                  <path fill="none" stroke="white" stroke-width="1.5" d="M0,-3.0v7 M-2.5,-0.5L0,-3.0L2.5,-0.5"/>
                </g>
                <g id="arrowRight" xlink:href="#dirArrow" transform="rotate(90) translate(36 -43)" onmousedown="handlePan(1,0)">
                  <use xlink:href="#rim" fill="#404040">
                        <set attributeName="fill" to="#808080" begin="arrowRight.mouseover" end="arrowRight.mouseout"/>
                  </use>
                  <path fill="none" stroke="white" stroke-width="1.5" d="M0,-3.0v7 M-2.5,-0.5L0,-3.0L2.5,-0.5"/>
                </g>
                <g id="arrowDown" xlink:href="#dirArrow" transform="rotate(180) translate(-30 -48)" onmousedown="handlePan(0,1)">
                  <use xlink:href="#rim" fill="#404040">
                        <set attributeName="fill" to="#808080" begin="arrowDown.mouseover" end="arrowDown.mouseout"/>
                  </use>
                  <path fill="none" stroke="white" stroke-width="1.5" d="M0,-3.0v7 M-2.5,-0.5L0,-3.0L2.5,-0.5"/>
                </g>
                <g id="arrowLeft" xlink:href="#dirArrow" transform="rotate(270) translate(-36 17)" onmousedown="handlePan(-1,0)">
                  <use xlink:href="#rim" fill="#404040">
                        <set attributeName="fill" to="#808080" begin="arrowLeft.mouseover" end="arrowLeft.mouseout"/>
                  </use>
                  <path fill="none" stroke="white" stroke-width="1.5" d="M0,-3.0v7 M-2.5,-0.5L0,-3.0L2.5,-0.5"/>
                </g>
        </g>
        <svg viewBox="0 0 15 15" width="100%" height="30px" preserveAspectRatio="xMaxYMin meet">
         <g id="arrow_out" transform="scale(0.3 0.3)">
          <a xlink:href="lz77_8cpp_a0ddf1224851353fc92bfbff6f499fa97_cgraph_org.svg" target="_base">
           <rect id="button" ry="5" rx="5" y="6" x="6" height="38" width="38"
                fill="#f2f5e9" fill-opacity="0.5" stroke="#606060" stroke-width="1.0"/>
           <path id="arrow"
             d="M 11.500037,31.436501 C 11.940474,20.09759 22.043105,11.32322 32.158766,21.979434 L 37.068811,17.246167 C 37.068811,17.246167 37.088388,32 37.088388,32 L 22.160133,31.978069 C 22.160133,31.978069 26.997745,27.140456 26.997745,27.140456 C 18.528582,18.264221 13.291696,25.230495 11.500037,31.436501 z"
             style="fill:#404040;"/>
          </a>
         </g>
        </svg>
</svg>
