<?xml version="1.0" encoding="UTF-8" standalone="no"?>
<!DOCTYPE svg PUBLIC "-//W3C//DTD SVG 1.1//EN"
 "http://www.w3.org/Graphics/SVG/1.1/DTD/svg11.dtd">
<!-- Generated by graphviz version 5.0.1 (20220820.1526)
 -->
<!-- Title: lz_decompress Pages: 1 -->
<svg width="242pt" height="78pt"
 viewBox="0.00 0.00 242.00 77.50" xmlns="http://www.w3.org/2000/svg" xmlns:xlink="http://www.w3.org/1999/xlink">
<g id="graph0" class="graph" transform="scale(1 1) rotate(0) translate(4 73.5)">
<title>lz_decompress</title>
<!-- Node1 -->
<g id="node1" class="node">
<title>Node1</title>
<g id="a_node1"><a xlink:title=" ">
<polygon fill="#bfbfbf" stroke="black" points="0,-28 0,-47 89,-47 89,-28 0,-28"/>
<text text-anchor="middle" x="44.5" y="-35" font-family="Helvetica,sans-Serif" font-size="10.00">lz_decompress</text>
</a>
</g>
</g>
<!-- Node2 -->
<g id="node2" class="node">
<title>Node2</title>
<g id="a_node2"><a xlink:href="../../d3/d87/lz77_8cpp.html#ad7552b7764057e7b0822e2e7b9de1644" target="_top" xlink:title=" ">
<polygon fill="none" stroke="black" points="147,-50 147,-69 212,-69 212,-50 147,-50"/>
<text text-anchor="middle" x="179.5" y="-57" font-family="Helvetica,sans-Serif" font-size="10.00">copymem</text>
</a>
</g>
</g>
<!-- Node1&#45;&gt;Node2 -->
<g id="edge1" class="edge">
<title>Node1&#45;&gt;Node2</title>
<path fill="none" stroke="midnightblue" d="M89.05,-44.7C104.31,-47.23 121.42,-50.06 136.55,-52.56"/>
<polygon fill="midnightblue" stroke="midnightblue" points="136.23,-56.05 146.66,-54.23 137.37,-49.15 136.23,-56.05"/>
</g>
<!-- Node3 -->
<g id="node3" class="node">
<title>Node3</title>
<g id="a_node3"><a xlink:href="../../dd/d0e/namespaceuxn_1_1patl_1_1impl.html#ad5c1d1bf1ee87d90001fa0941be4aa4b" target="_top" xlink:title=" ">
<polygon fill="none" stroke="black" points="125,-0.5 125,-30.5 234,-30.5 234,-0.5 125,-0.5"/>
<text text-anchor="start" x="133" y="-18.5" font-family="Helvetica,sans-Serif" font-size="10.00">uxn::patl::impl::get</text>
<text text-anchor="middle" x="179.5" y="-7.5" font-family="Helvetica,sans-Serif" font-size="10.00">_highest_bit_id</text>
</a>
</g>
</g>
<!-- Node1&#45;&gt;Node3 -->
<g id="edge2" class="edge">
<title>Node1&#45;&gt;Node3</title>
<path fill="none" stroke="midnightblue" d="M89.05,-30.3C97.22,-28.95 105.91,-27.51 114.55,-26.08"/>
<polygon fill="midnightblue" stroke="midnightblue" points="115.33,-29.5 124.63,-24.41 114.19,-22.59 115.33,-29.5"/>
</g>
</g>
</svg>
