<?xml version="1.0" encoding="UTF-8" standalone="no"?>
<!DOCTYPE svg PUBLIC "-//W3C//DTD SVG 1.1//EN"
 "http://www.w3.org/Graphics/SVG/1.1/DTD/svg11.dtd">
<!-- Generated by graphviz version 5.0.1 (20220820.1526)
 -->
<!-- Title: lz_compress Pages: 1 -->
<!--zoomable 720 -->
<svg id="main" version="1.1" xmlns="http://www.w3.org/2000/svg" xmlns:xlink="http://www.w3.org/1999/xlink" xml:space="preserve" onload="init(evt)">
<style type="text/css"><![CDATA[
.edge:hover path { stroke: red; }
.edge:hover polygon { stroke: red; fill: red; }
]]></style>
<script type="text/javascript"><![CDATA[
var edges = document.getElementsByTagName('g');
if (edges && edges.length) {
  for (var i=0;i<edges.length;i++) {
    if (edges[i].id.substr(0,4)=='edge') {
      edges[i].setAttribute('class','edge');
    }
  }
}
]]></script>
        <defs>
                <circle id="rim" cx="0" cy="0" r="7"/>
                <circle id="rim2" cx="0" cy="0" r="3.5"/>
                <g id="zoomPlus">
                        <use xlink:href="#rim" fill="#404040">
                                <set attributeName="fill" to="#808080" begin="zoomplus.mouseover" end="zoomplus.mouseout"/>
                        </use>
                        <path d="M-4,0h8M0,-4v8" fill="none" stroke="white" stroke-width="1.5" pointer-events="none"/>
                </g>
                <g id="zoomMin">
                        <use xlink:href="#rim" fill="#404040">
                                <set attributeName="fill" to="#808080" begin="zoomminus.mouseover" end="zoomminus.mouseout"/>
                        </use>
                        <path d="M-4,0h8" fill="none" stroke="white" stroke-width="1.5" pointer-events="none"/>
                </g>
                <g id="dirArrow">
                        <path fill="none" stroke="white" stroke-width="1.5" d="M0,-3.0v7 M-2.5,-0.5L0,-3.0L2.5,-0.5"/>
                </g>
               <g id="resetDef">
                       <use xlink:href="#rim2" fill="#404040">
                               <set attributeName="fill" to="#808080" begin="reset.mouseover" end="reset.mouseout"/>
                       </use>
               </g>
        </defs>

<script type="text/javascript">
var viewWidth = 645;
var viewHeight = 720;
var sectionId = 'dynsection-3';
</script>
<script xlink:href="../../svgpan.js"/>
<svg id="graph" class="graph">
<g id="viewport">
<title>lz_compress</title>
<!-- Node1 -->
<g id="node1" class="node">
<title>Node1</title>
<g id="a_node1"><a xlink:title=" ">
<polygon fill="#bfbfbf" stroke="black" points="0,-303.5 0,-322.5 77,-322.5 77,-303.5 0,-303.5"/>
<text text-anchor="middle" x="38.5" y="-310.5" font-family="Helvetica,sans-Serif" font-size="10.00">lz_compress</text>
</a>
</g>
</g>
<!-- Node2 -->
<g id="node2" class="node">
<title>Node2</title>
<g id="a_node2"><a xlink:href="../../db/db7/classuxn_1_1patl_1_1impl_1_1suffix__generic.html#a6b5ce975ed960d22158f993ac18729cc" target="_top" xlink:title=" ">
<polygon fill="none" stroke="black" points="134.5,-657 134.5,-687 254.5,-687 254.5,-657 134.5,-657"/>
<text text-anchor="start" x="142.5" y="-675" font-family="Helvetica,sans-Serif" font-size="10.00">uxn::patl::impl::suffix</text>
<text text-anchor="middle" x="194.5" y="-664" font-family="Helvetica,sans-Serif" font-size="10.00">_generic::clear</text>
</a>
</g>
</g>
<!-- Node1&#45;&gt;Node2 -->
<g id="edge1" class="edge">
<title>Node1&#45;&gt;Node2</title>
<path fill="none" stroke="midnightblue" d="M39.84,-322.61C41.59,-361.09 52.13,-506.55 113,-604 124.8,-622.89 143.59,-639.2 160.05,-651.1"/>
<polygon fill="midnightblue" stroke="midnightblue" points="158.19,-654.07 168.39,-656.92 162.19,-648.33 158.19,-654.07"/>
</g>
<!-- Node6 -->
<g id="node6" class="node">
<title>Node6</title>
<g id="a_node6"><a xlink:href="../../dd/dbb/classuxn_1_1patl_1_1suffix__set.html#ada0e46c207c9d97012bcbb6a7607b162" target="_top" xlink:title=" ">
<polygon fill="none" stroke="black" points="325.5,-451 325.5,-481 438.5,-481 438.5,-451 325.5,-451"/>
<text text-anchor="start" x="333.5" y="-469" font-family="Helvetica,sans-Serif" font-size="10.00">uxn::patl::suffix_set</text>
<text text-anchor="middle" x="382" y="-458" font-family="Helvetica,sans-Serif" font-size="10.00">::count_reindex</text>
</a>
</g>
</g>
<!-- Node1&#45;&gt;Node6 -->
<g id="edge5" class="edge">
<title>Node1&#45;&gt;Node6</title>
<path fill="none" stroke="midnightblue" d="M42.15,-322.59C49.2,-346.14 70.84,-406.86 113,-434 173.4,-472.88 257.56,-476.67 315.37,-473.45"/>
<polygon fill="midnightblue" stroke="midnightblue" points="315.73,-476.94 325.49,-472.8 315.28,-469.95 315.73,-476.94"/>
</g>
<!-- Node7 -->
<g id="node7" class="node">
<title>Node7</title>
<g id="a_node7"><a xlink:href="../../db/db7/classuxn_1_1patl_1_1impl_1_1suffix__generic.html#aa40451084d31ec23114745757ca30371" target="_top" xlink:title=" ">
<polygon fill="none" stroke="black" points="492.5,-489 492.5,-563 632.5,-563 632.5,-489 492.5,-489"/>
<text text-anchor="start" x="500.5" y="-551" font-family="Helvetica,sans-Serif" font-size="10.00">uxn::patl::impl::suffix</text>
<text text-anchor="start" x="500.5" y="-540" font-family="Helvetica,sans-Serif" font-size="10.00">_generic&lt; impl::suffix</text>
<text text-anchor="start" x="500.5" y="-529" font-family="Helvetica,sans-Serif" font-size="10.00">_set_traits&lt; Type, 0, 1,</text>
<text text-anchor="start" x="500.5" y="-518" font-family="Helvetica,sans-Serif" font-size="10.00"> bit_comparator&lt; Type, 0</text>
<text text-anchor="start" x="500.5" y="-507" font-family="Helvetica,sans-Serif" font-size="10.00"> &gt;, std::allocator&lt; Type</text>
<text text-anchor="middle" x="562.5" y="-496" font-family="Helvetica,sans-Serif" font-size="10.00"> &gt; &gt; &gt;::size</text>
</a>
</g>
</g>
<!-- Node1&#45;&gt;Node7 -->
<g id="edge28" class="edge">
<title>Node1&#45;&gt;Node7</title>
<path fill="none" stroke="midnightblue" d="M40.87,-322.65C45.36,-350.49 62.4,-431.24 113,-468 170.28,-509.62 369.49,-521.38 482.19,-524.7"/>
<polygon fill="midnightblue" stroke="midnightblue" points="482.39,-528.21 492.49,-524.99 482.59,-521.21 482.39,-528.21"/>
</g>
<!-- Node8 -->
<g id="node8" class="node">
<title>Node8</title>
<g id="a_node8"><a xlink:href="../../dd/d0e/namespaceuxn_1_1patl_1_1impl.html#ad5c1d1bf1ee87d90001fa0941be4aa4b" target="_top" xlink:title=" ">
<polygon fill="none" stroke="black" points="140,-323 140,-353 249,-353 249,-323 140,-323"/>
<text text-anchor="start" x="148" y="-341" font-family="Helvetica,sans-Serif" font-size="10.00">uxn::patl::impl::get</text>
<text text-anchor="middle" x="194.5" y="-330" font-family="Helvetica,sans-Serif" font-size="10.00">_highest_bit_id</text>
</a>
</g>
</g>
<!-- Node1&#45;&gt;Node8 -->
<g id="edge7" class="edge">
<title>Node1&#45;&gt;Node8</title>
<path fill="none" stroke="midnightblue" d="M77.17,-319.12C93.03,-321.69 111.92,-324.76 129.83,-327.66"/>
<polygon fill="midnightblue" stroke="midnightblue" points="129.5,-331.16 139.93,-329.3 130.62,-324.25 129.5,-331.16"/>
</g>
<!-- Node9 -->
<g id="node9" class="node">
<title>Node9</title>
<g id="a_node9"><a xlink:href="../../d3/d81/classuxn_1_1patl_1_1impl_1_1const__vertex__generic.html#a53068b2956ea897fa16b02e82a707c44" target="_top" xlink:title=" ">
<polygon fill="none" stroke="black" points="135,-274 135,-304 254,-304 254,-274 135,-274"/>
<text text-anchor="start" x="143" y="-292" font-family="Helvetica,sans-Serif" font-size="10.00">uxn::patl::impl::const</text>
<text text-anchor="middle" x="194.5" y="-281" font-family="Helvetica,sans-Serif" font-size="10.00">_vertex_generic::key</text>
</a>
</g>
</g>
<!-- Node1&#45;&gt;Node9 -->
<g id="edge8" class="edge">
<title>Node1&#45;&gt;Node9</title>
<path fill="none" stroke="midnightblue" d="M77.17,-307.13C91.55,-304.89 108.43,-302.26 124.81,-299.71"/>
<polygon fill="midnightblue" stroke="midnightblue" points="125.57,-303.13 134.91,-298.13 124.49,-296.21 125.57,-303.13"/>
</g>
<!-- Node10 -->
<g id="node10" class="node">
<title>Node10</title>
<g id="a_node10"><a xlink:href="../../dd/d0e/namespaceuxn_1_1patl_1_1impl.html#ab90f63027d43b408cc70d2f0db94c9fc" target="_top" xlink:title=" ">
<polygon fill="none" stroke="black" points="134,-235.5 134,-254.5 255,-254.5 255,-235.5 134,-235.5"/>
<text text-anchor="middle" x="194.5" y="-242.5" font-family="Helvetica,sans-Serif" font-size="10.00">uxn::patl::impl::max0</text>
</a>
</g>
</g>
<!-- Node1&#45;&gt;Node10 -->
<g id="edge9" class="edge">
<title>Node1&#45;&gt;Node10</title>
<path fill="none" stroke="midnightblue" d="M51.51,-303.32C65.5,-292.5 89.67,-275.17 113,-265 119.63,-262.11 126.75,-259.59 133.92,-257.4"/>
<polygon fill="midnightblue" stroke="midnightblue" points="135.02,-260.72 143.68,-254.61 133.1,-253.99 135.02,-260.72"/>
</g>
<!-- Node11 -->
<g id="node11" class="node">
<title>Node11</title>
<g id="a_node11"><a xlink:href="../../db/db7/classuxn_1_1patl_1_1impl_1_1suffix__generic.html#a571add68de0b08a9c3e375d4c3dd8ea6" target="_top" xlink:title="erase front suffix">
<polygon fill="none" stroke="black" points="134.5,-564 134.5,-594 254.5,-594 254.5,-564 134.5,-564"/>
<text text-anchor="start" x="142.5" y="-582" font-family="Helvetica,sans-Serif" font-size="10.00">uxn::patl::impl::suffix</text>
<text text-anchor="middle" x="194.5" y="-571" font-family="Helvetica,sans-Serif" font-size="10.00">_generic::pop_front</text>
</a>
</g>
</g>
<!-- Node1&#45;&gt;Node11 -->
<g id="edge10" class="edge">
<title>Node1&#45;&gt;Node11</title>
<path fill="none" stroke="midnightblue" d="M40.71,-322.85C45.08,-354.93 62.54,-458.08 113,-524 123.73,-538.02 139.09,-549.75 153.52,-558.73"/>
<polygon fill="midnightblue" stroke="midnightblue" points="151.95,-561.87 162.34,-563.96 155.52,-555.85 151.95,-561.87"/>
</g>
<!-- Node14 -->
<g id="node14" class="node">
<title>Node14</title>
<g id="a_node14"><a xlink:href="../../dd/dbb/classuxn_1_1patl_1_1suffix__set.html#a47f4d51c9c462c4de03275b2ff9aecaf" target="_top" xlink:title=" ">
<polygon fill="none" stroke="black" points="138,-186 138,-216 251,-216 251,-186 138,-186"/>
<text text-anchor="start" x="146" y="-204" font-family="Helvetica,sans-Serif" font-size="10.00">uxn::patl::suffix_set</text>
<text text-anchor="middle" x="194.5" y="-193" font-family="Helvetica,sans-Serif" font-size="10.00">::pop_reindex</text>
</a>
</g>
</g>
<!-- Node1&#45;&gt;Node14 -->
<g id="edge14" class="edge">
<title>Node1&#45;&gt;Node14</title>
<path fill="none" stroke="midnightblue" d="M45.05,-303.34C55.83,-285.42 81.35,-246.97 113,-226 117.85,-222.79 123.12,-219.97 128.59,-217.51"/>
<polygon fill="midnightblue" stroke="midnightblue" points="129.99,-220.71 137.91,-213.68 127.33,-214.24 129.99,-220.71"/>
</g>
<!-- Node16 -->
<g id="node16" class="node">
<title>Node16</title>
<g id="a_node16"><a xlink:href="../../dd/dbb/classuxn_1_1patl_1_1suffix__set.html#ae50776c104b736774600b2977c86cc5a" target="_top" xlink:title=" ">
<polygon fill="none" stroke="black" points="325.5,-356 325.5,-386 438.5,-386 438.5,-356 325.5,-356"/>
<text text-anchor="start" x="333.5" y="-374" font-family="Helvetica,sans-Serif" font-size="10.00">uxn::patl::suffix_set</text>
<text text-anchor="middle" x="382" y="-363" font-family="Helvetica,sans-Serif" font-size="10.00">::push_back</text>
</a>
</g>
</g>
<!-- Node1&#45;&gt;Node16 -->
<g id="edge16" class="edge">
<title>Node1&#45;&gt;Node16</title>
<path fill="none" stroke="midnightblue" d="M43.15,-322.69C51.64,-343.65 74.94,-392.86 113,-412 187.97,-449.71 288.51,-415.01 342.64,-390.46"/>
<polygon fill="midnightblue" stroke="midnightblue" points="344.28,-393.56 351.87,-386.17 341.32,-387.21 344.28,-393.56"/>
</g>
<!-- Node22 -->
<g id="node22" class="node">
<title>Node22</title>
<g id="a_node22"><a xlink:href="../../dd/dbb/classuxn_1_1patl_1_1suffix__set.html#a58a8b893b58cc975b1c33581c6200d42" target="_top" xlink:title=" ">
<polygon fill="none" stroke="black" points="138,-372 138,-402 251,-402 251,-372 138,-372"/>
<text text-anchor="start" x="146" y="-390" font-family="Helvetica,sans-Serif" font-size="10.00">uxn::patl::suffix_set</text>
<text text-anchor="middle" x="194.5" y="-379" font-family="Helvetica,sans-Serif" font-size="10.00">::push_reindex</text>
</a>
</g>
</g>
<!-- Node1&#45;&gt;Node22 -->
<g id="edge23" class="edge">
<title>Node1&#45;&gt;Node22</title>
<path fill="none" stroke="midnightblue" d="M51.28,-322.72C65.25,-333.82 89.58,-351.87 113,-363 117.86,-365.31 122.99,-367.45 128.21,-369.42"/>
<polygon fill="midnightblue" stroke="midnightblue" points="127.07,-372.73 137.66,-372.8 129.42,-366.14 127.07,-372.73"/>
</g>
<!-- Node23 -->
<g id="node23" class="node">
<title>Node23</title>
<g id="a_node23"><a xlink:href="../../db/db7/classuxn_1_1patl_1_1impl_1_1suffix__generic.html#a4911ef44eacdb8fd9169fa7327941b3b" target="_top" xlink:title=" ">
<polygon fill="none" stroke="black" points="134.5,-137 134.5,-167 254.5,-167 254.5,-137 134.5,-137"/>
<text text-anchor="start" x="142.5" y="-155" font-family="Helvetica,sans-Serif" font-size="10.00">uxn::patl::impl::suffix</text>
<text text-anchor="middle" x="194.5" y="-144" font-family="Helvetica,sans-Serif" font-size="10.00">_generic::rebind</text>
</a>
</g>
</g>
<!-- Node1&#45;&gt;Node23 -->
<g id="edge25" class="edge">
<title>Node1&#45;&gt;Node23</title>
<path fill="none" stroke="midnightblue" d="M41.88,-303.38C48.57,-278.44 69.91,-211.14 113,-176 116.76,-172.94 120.9,-170.26 125.26,-167.93"/>
<polygon fill="midnightblue" stroke="midnightblue" points="126.9,-171.03 134.46,-163.61 123.92,-164.69 126.9,-171.03"/>
</g>
<!-- Node25 -->
<g id="node25" class="node">
<title>Node25</title>
<g id="a_node25"><a xlink:href="../../d3/dd2/classuxn_1_1patl_1_1impl_1_1vertex__generic.html#a86071aa8d44832407083c2373bae03fe" target="_top" xlink:title=" ">
<polygon fill="none" stroke="black" points="132,-88 132,-118 257,-118 257,-88 132,-88"/>
<text text-anchor="start" x="140" y="-106" font-family="Helvetica,sans-Serif" font-size="10.00">uxn::patl::impl::vertex</text>
<text text-anchor="middle" x="194.5" y="-95" font-family="Helvetica,sans-Serif" font-size="10.00">_generic::sibling</text>
</a>
</g>
</g>
<!-- Node1&#45;&gt;Node25 -->
<g id="edge27" class="edge">
<title>Node1&#45;&gt;Node25</title>
<path fill="none" stroke="midnightblue" d="M40.41,-303.25C43.81,-272.55 58.49,-176.98 113,-127 116,-124.25 119.3,-121.82 122.8,-119.66"/>
<polygon fill="midnightblue" stroke="midnightblue" points="124.67,-122.63 131.86,-114.85 121.38,-116.45 124.67,-122.63"/>
</g>
<!-- Node26 -->
<g id="node26" class="node">
<title>Node26</title>
<g id="a_node26"><a xlink:href="../../d3/d81/classuxn_1_1patl_1_1impl_1_1const__vertex__generic.html#aea777dfc1baa0c2ccc8566c7e613a91d" target="_top" xlink:title=" ">
<polygon fill="none" stroke="black" points="134,-39 134,-69 255,-69 255,-39 134,-39"/>
<text text-anchor="start" x="142" y="-57" font-family="Helvetica,sans-Serif" font-size="10.00">uxn::patl::impl::const</text>
<text text-anchor="middle" x="194.5" y="-46" font-family="Helvetica,sans-Serif" font-size="10.00">_vertex_generic::skip</text>
</a>
</g>
</g>
<!-- Node1&#45;&gt;Node26 -->
<g id="edge29" class="edge">
<title>Node1&#45;&gt;Node26</title>
<path fill="none" stroke="midnightblue" d="M39.49,-303.33C40.01,-267.84 46.67,-143.45 113,-78 116.51,-74.53 120.5,-71.56 124.79,-69.02"/>
<polygon fill="midnightblue" stroke="midnightblue" points="126.59,-72.03 133.92,-64.38 123.42,-65.79 126.59,-72.03"/>
</g>
<!-- Node27 -->
<g id="node27" class="node">
<title>Node27</title>
<g id="a_node27"><a xlink:href="../../dd/d0e/namespaceuxn_1_1patl_1_1impl.html#aee8c5d28b66c9414c5e96b1080abbc78" target="_top" xlink:title=" ">
<polygon fill="none" stroke="black" points="113,-0.5 113,-19.5 276,-19.5 276,-0.5 113,-0.5"/>
<text text-anchor="middle" x="194.5" y="-7.5" font-family="Helvetica,sans-Serif" font-size="10.00">uxn::patl::impl::unsigned_cast</text>
</a>
</g>
</g>
<!-- Node1&#45;&gt;Node27 -->
<g id="edge30" class="edge">
<title>Node1&#45;&gt;Node27</title>
<path fill="none" stroke="midnightblue" d="M40.67,-303.28C46.31,-258.09 72.05,-69.08 113,-29 114.46,-27.57 116.01,-26.24 117.63,-25"/>
<polygon fill="midnightblue" stroke="midnightblue" points="119.68,-27.85 126.28,-19.56 115.95,-21.92 119.68,-27.85"/>
</g>
<!-- Node3 -->
<g id="node3" class="node">
<title>Node3</title>
<g id="a_node3"><a xlink:href="../../d7/ddc/classuxn_1_1patl_1_1impl_1_1ring__buffer.html#a2eb00ee56651ba51dbba4ead8547ea6f" target="_top" xlink:title=" ">
<polygon fill="none" stroke="black" points="326,-676 326,-706 438,-706 438,-676 326,-676"/>
<text text-anchor="start" x="334" y="-694" font-family="Helvetica,sans-Serif" font-size="10.00">uxn::patl::impl::ring</text>
<text text-anchor="middle" x="382" y="-683" font-family="Helvetica,sans-Serif" font-size="10.00">_buffer::clear</text>
</a>
</g>
</g>
<!-- Node2&#45;&gt;Node3 -->
<g id="edge2" class="edge">
<title>Node2&#45;&gt;Node3</title>
<path fill="none" stroke="midnightblue" d="M254.7,-678.06C274.12,-680.05 295.79,-682.27 315.64,-684.31"/>
<polygon fill="midnightblue" stroke="midnightblue" points="315.52,-687.81 325.82,-685.35 316.23,-680.85 315.52,-687.81"/>
</g>
<!-- Node4 -->
<g id="node4" class="node">
<title>Node4</title>
<g id="a_node4"><a xlink:href="../../d7/ddc/classuxn_1_1patl_1_1impl_1_1ring__buffer.html#abde8c78c58d86d1f1b222608c1cb0323" target="_top" xlink:title=" ">
<polygon fill="none" stroke="black" points="506.5,-681 506.5,-711 618.5,-711 618.5,-681 506.5,-681"/>
<text text-anchor="start" x="514.5" y="-699" font-family="Helvetica,sans-Serif" font-size="10.00">uxn::patl::impl::ring</text>
<text text-anchor="middle" x="562.5" y="-688" font-family="Helvetica,sans-Serif" font-size="10.00">_buffer::empty</text>
</a>
</g>
</g>
<!-- Node3&#45;&gt;Node4 -->
<g id="edge3" class="edge">
<title>Node3&#45;&gt;Node4</title>
<path fill="none" stroke="midnightblue" d="M438.01,-692.54C456.42,-693.06 477.12,-693.64 496.23,-694.17"/>
<polygon fill="midnightblue" stroke="midnightblue" points="496.27,-697.67 506.36,-694.46 496.46,-690.68 496.27,-697.67"/>
</g>
<!-- Node5 -->
<g id="node5" class="node">
<title>Node5</title>
<g id="a_node5"><a xlink:href="../../d7/ddc/classuxn_1_1patl_1_1impl_1_1ring__buffer.html#ad17b73a9b9df7e9be22cc93006afbcb5" target="_top" xlink:title=" ">
<polygon fill="none" stroke="black" points="506.5,-632 506.5,-662 618.5,-662 618.5,-632 506.5,-632"/>
<text text-anchor="start" x="514.5" y="-650" font-family="Helvetica,sans-Serif" font-size="10.00">uxn::patl::impl::ring</text>
<text text-anchor="middle" x="562.5" y="-639" font-family="Helvetica,sans-Serif" font-size="10.00">_buffer::pop_front</text>
</a>
</g>
</g>
<!-- Node3&#45;&gt;Node5 -->
<g id="edge4" class="edge">
<title>Node3&#45;&gt;Node5</title>
<path fill="none" stroke="midnightblue" d="M438.01,-677.44C456.51,-672.88 477.31,-667.75 496.5,-663.02"/>
<polygon fill="midnightblue" stroke="midnightblue" points="497.49,-666.38 506.36,-660.59 495.81,-659.59 497.49,-666.38"/>
</g>
<!-- Node6&#45;&gt;Node7 -->
<g id="edge6" class="edge">
<title>Node6&#45;&gt;Node7</title>
<path fill="none" stroke="midnightblue" d="M428.04,-481.14C444.67,-486.73 464.02,-493.24 482.76,-499.53"/>
<polygon fill="midnightblue" stroke="midnightblue" points="481.89,-502.93 492.48,-502.8 484.12,-496.3 481.89,-502.93"/>
</g>
<!-- Node11&#45;&gt;Node5 -->
<g id="edge13" class="edge">
<title>Node11&#45;&gt;Node5</title>
<path fill="none" stroke="midnightblue" d="M224.3,-594.2C247.35,-605.6 280.86,-620.48 312,-628 373.23,-642.79 445.15,-646.92 496,-647.73"/>
<polygon fill="midnightblue" stroke="midnightblue" points="496.16,-651.23 506.2,-647.85 496.24,-644.23 496.16,-651.23"/>
</g>
<!-- Node12 -->
<g id="node12" class="node">
<title>Node12</title>
<g id="a_node12"><a xlink:href="../../db/db7/classuxn_1_1patl_1_1impl_1_1suffix__generic.html#a571330e184188a382f424ee06908bb1b" target="_top" xlink:title=" ">
<polygon fill="none" stroke="black" points="322,-588 322,-618 442,-618 442,-588 322,-588"/>
<text text-anchor="start" x="330" y="-606" font-family="Helvetica,sans-Serif" font-size="10.00">uxn::patl::impl::suffix</text>
<text text-anchor="middle" x="382" y="-595" font-family="Helvetica,sans-Serif" font-size="10.00">_generic::erase_node</text>
</a>
</g>
</g>
<!-- Node11&#45;&gt;Node12 -->
<g id="edge11" class="edge">
<title>Node11&#45;&gt;Node12</title>
<path fill="none" stroke="midnightblue" d="M254.7,-586.66C272.86,-589.01 293,-591.61 311.76,-594.04"/>
<polygon fill="midnightblue" stroke="midnightblue" points="311.36,-597.52 321.72,-595.33 312.25,-590.58 311.36,-597.52"/>
</g>
<!-- Node13 -->
<g id="node13" class="node">
<title>Node13</title>
<g id="a_node13"><a xlink:href="../../d7/ddc/classuxn_1_1patl_1_1impl_1_1ring__buffer.html#ae46bef720f3ea4f608af0c0a0946ca9b" target="_top" xlink:title=" ">
<polygon fill="none" stroke="black" points="326,-539 326,-569 438,-569 438,-539 326,-539"/>
<text text-anchor="start" x="334" y="-557" font-family="Helvetica,sans-Serif" font-size="10.00">uxn::patl::impl::ring</text>
<text text-anchor="middle" x="382" y="-546" font-family="Helvetica,sans-Serif" font-size="10.00">_buffer::front</text>
</a>
</g>
</g>
<!-- Node11&#45;&gt;Node13 -->
<g id="edge12" class="edge">
<title>Node11&#45;&gt;Node13</title>
<path fill="none" stroke="midnightblue" d="M254.7,-571.02C274.21,-568.39 295.99,-565.46 315.91,-562.77"/>
<polygon fill="midnightblue" stroke="midnightblue" points="316.38,-566.24 325.82,-561.44 315.45,-559.3 316.38,-566.24"/>
</g>
<!-- Node15 -->
<g id="node15" class="node">
<title>Node15</title>
<g id="a_node15"><a xlink:href="../../db/db7/classuxn_1_1patl_1_1impl_1_1suffix__generic.html#a13c44778e878a37e350ff853f6706942" target="_top" xlink:title="erase back suffix">
<polygon fill="none" stroke="black" points="312,-175 312,-249 452,-249 452,-175 312,-175"/>
<text text-anchor="start" x="320" y="-237" font-family="Helvetica,sans-Serif" font-size="10.00">uxn::patl::impl::suffix</text>
<text text-anchor="start" x="320" y="-226" font-family="Helvetica,sans-Serif" font-size="10.00">_generic&lt; impl::suffix</text>
<text text-anchor="start" x="320" y="-215" font-family="Helvetica,sans-Serif" font-size="10.00">_set_traits&lt; Type, 0, 1,</text>
<text text-anchor="start" x="320" y="-204" font-family="Helvetica,sans-Serif" font-size="10.00"> bit_comparator&lt; Type, 0</text>
<text text-anchor="start" x="320" y="-193" font-family="Helvetica,sans-Serif" font-size="10.00"> &gt;, std::allocator&lt; Type</text>
<text text-anchor="middle" x="382" y="-182" font-family="Helvetica,sans-Serif" font-size="10.00"> &gt; &gt; &gt;::pop_back</text>
</a>
</g>
</g>
<!-- Node14&#45;&gt;Node15 -->
<g id="edge15" class="edge">
<title>Node14&#45;&gt;Node15</title>
<path fill="none" stroke="midnightblue" d="M251.16,-204.3C266.98,-205.24 284.52,-206.28 301.46,-207.28"/>
<polygon fill="midnightblue" stroke="midnightblue" points="301.72,-210.8 311.91,-207.9 302.14,-203.82 301.72,-210.8"/>
</g>
<!-- Node16&#45;&gt;Node7 -->
<g id="edge22" class="edge">
<title>Node16&#45;&gt;Node7</title>
<path fill="none" stroke="midnightblue" d="M397.86,-386.18C411.87,-400.52 433.44,-422.65 452,-442 468.11,-458.79 470,-465.27 488,-480 489.16,-480.95 490.35,-481.9 491.55,-482.85"/>
<polygon fill="midnightblue" stroke="midnightblue" points="489.62,-485.77 499.72,-488.98 493.83,-480.18 489.62,-485.77"/>
</g>
<!-- Node17 -->
<g id="node17" class="node">
<title>Node17</title>
<g id="a_node17"><a xlink:href="../../db/db7/classuxn_1_1patl_1_1impl_1_1suffix__generic.html#a5f1a79ec8899f0e12680cb343470cc11" target="_top" xlink:title=" ">
<polygon fill="none" stroke="black" points="492.5,-396 492.5,-470 632.5,-470 632.5,-396 492.5,-396"/>
<text text-anchor="start" x="500.5" y="-458" font-family="Helvetica,sans-Serif" font-size="10.00">uxn::patl::impl::suffix</text>
<text text-anchor="start" x="500.5" y="-447" font-family="Helvetica,sans-Serif" font-size="10.00">_generic&lt; impl::suffix</text>
<text text-anchor="start" x="500.5" y="-436" font-family="Helvetica,sans-Serif" font-size="10.00">_set_traits&lt; Type, 0, 1,</text>
<text text-anchor="start" x="500.5" y="-425" font-family="Helvetica,sans-Serif" font-size="10.00"> bit_comparator&lt; Type, 0</text>
<text text-anchor="start" x="500.5" y="-414" font-family="Helvetica,sans-Serif" font-size="10.00"> &gt;, std::allocator&lt; Type</text>
<text text-anchor="middle" x="562.5" y="-403" font-family="Helvetica,sans-Serif" font-size="10.00"> &gt; &gt; &gt;::capacity</text>
</a>
</g>
</g>
<!-- Node16&#45;&gt;Node17 -->
<g id="edge17" class="edge">
<title>Node16&#45;&gt;Node17</title>
<path fill="none" stroke="midnightblue" d="M426.21,-386.01C443.23,-391.92 463.34,-398.9 482.76,-405.65"/>
<polygon fill="midnightblue" stroke="midnightblue" points="481.64,-408.97 492.23,-408.94 483.93,-402.35 481.64,-408.97"/>
</g>
<!-- Node18 -->
<g id="node18" class="node">
<title>Node18</title>
<g id="a_node18"><a xlink:href="../../db/db7/classuxn_1_1patl_1_1impl_1_1suffix__generic.html#a19845a4d480875e2b697c49d19bfa1ce" target="_top" xlink:title="return true if suffix_cont is empty OR full">
<polygon fill="none" stroke="black" points="492.5,-303 492.5,-377 632.5,-377 632.5,-303 492.5,-303"/>
<text text-anchor="start" x="500.5" y="-365" font-family="Helvetica,sans-Serif" font-size="10.00">uxn::patl::impl::suffix</text>
<text text-anchor="start" x="500.5" y="-354" font-family="Helvetica,sans-Serif" font-size="10.00">_generic&lt; impl::suffix</text>
<text text-anchor="start" x="500.5" y="-343" font-family="Helvetica,sans-Serif" font-size="10.00">_set_traits&lt; Type, 0, 1,</text>
<text text-anchor="start" x="500.5" y="-332" font-family="Helvetica,sans-Serif" font-size="10.00"> bit_comparator&lt; Type, 0</text>
<text text-anchor="start" x="500.5" y="-321" font-family="Helvetica,sans-Serif" font-size="10.00"> &gt;, std::allocator&lt; Type</text>
<text text-anchor="middle" x="562.5" y="-310" font-family="Helvetica,sans-Serif" font-size="10.00"> &gt; &gt; &gt;::endpoint</text>
</a>
</g>
</g>
<!-- Node16&#45;&gt;Node18 -->
<g id="edge18" class="edge">
<title>Node16&#45;&gt;Node18</title>
<path fill="none" stroke="midnightblue" d="M438.5,-361.36C452.3,-358.96 467.37,-356.35 482.08,-353.79"/>
<polygon fill="midnightblue" stroke="midnightblue" points="482.93,-357.2 492.18,-352.04 481.73,-350.3 482.93,-357.2"/>
</g>
<!-- Node19 -->
<g id="node19" class="node">
<title>Node19</title>
<g id="a_node19"><a xlink:href="../../db/db7/classuxn_1_1patl_1_1impl_1_1suffix__generic.html#a3758d1f5bf1e70bd5f67a7edb7d7971f" target="_top" xlink:title=" ">
<polygon fill="none" stroke="black" points="488,-210 488,-284 637,-284 637,-210 488,-210"/>
<text text-anchor="start" x="496" y="-272" font-family="Helvetica,sans-Serif" font-size="10.00">uxn::patl::impl::suffix</text>
<text text-anchor="start" x="496" y="-261" font-family="Helvetica,sans-Serif" font-size="10.00">_generic&lt; impl::suffix</text>
<text text-anchor="start" x="496" y="-250" font-family="Helvetica,sans-Serif" font-size="10.00">_set_traits&lt; Type, 0, 1,</text>
<text text-anchor="start" x="496" y="-239" font-family="Helvetica,sans-Serif" font-size="10.00"> bit_comparator&lt; Type, 0</text>
<text text-anchor="start" x="496" y="-228" font-family="Helvetica,sans-Serif" font-size="10.00"> &gt;, std::allocator&lt; Type</text>
<text text-anchor="middle" x="562.5" y="-217" font-family="Helvetica,sans-Serif" font-size="10.00"> &gt; &gt; &gt;::push_back_generic</text>
</a>
</g>
</g>
<!-- Node16&#45;&gt;Node19 -->
<g id="edge19" class="edge">
<title>Node16&#45;&gt;Node19</title>
<path fill="none" stroke="midnightblue" d="M402.86,-355.85C423.77,-340.04 457.79,-314.7 488,-294 490.08,-292.58 492.19,-291.14 494.34,-289.7"/>
<polygon fill="midnightblue" stroke="midnightblue" points="496.32,-292.58 502.71,-284.12 492.44,-286.75 496.32,-292.58"/>
</g>
<!-- Node20 -->
<g id="node20" class="node">
<title>Node20</title>
<g id="a_node20"><a xlink:href="../../db/db7/classuxn_1_1patl_1_1impl_1_1suffix__generic.html#a52f5d589814ab7cf08b9840cb90f1377" target="_top" xlink:title=" ">
<polygon fill="none" stroke="black" points="492.5,-117 492.5,-191 632.5,-191 632.5,-117 492.5,-117"/>
<text text-anchor="start" x="500.5" y="-179" font-family="Helvetica,sans-Serif" font-size="10.00">uxn::patl::impl::suffix</text>
<text text-anchor="start" x="500.5" y="-168" font-family="Helvetica,sans-Serif" font-size="10.00">_generic&lt; impl::suffix</text>
<text text-anchor="start" x="500.5" y="-157" font-family="Helvetica,sans-Serif" font-size="10.00">_set_traits&lt; Type, 0, 1,</text>
<text text-anchor="start" x="500.5" y="-146" font-family="Helvetica,sans-Serif" font-size="10.00"> bit_comparator&lt; Type, 0</text>
<text text-anchor="start" x="500.5" y="-135" font-family="Helvetica,sans-Serif" font-size="10.00"> &gt;, std::allocator&lt; Type</text>
<text text-anchor="middle" x="562.5" y="-124" font-family="Helvetica,sans-Serif" font-size="10.00"> &gt; &gt; &gt;::push_back_root</text>
</a>
</g>
</g>
<!-- Node16&#45;&gt;Node20 -->
<g id="edge20" class="edge">
<title>Node16&#45;&gt;Node20</title>
<path fill="none" stroke="midnightblue" d="M392.18,-355.95C417.17,-314.96 484.83,-204.22 488,-201 489.06,-199.92 490.15,-198.85 491.27,-197.8"/>
<polygon fill="midnightblue" stroke="midnightblue" points="493.76,-200.27 498.97,-191.05 489.14,-195.01 493.76,-200.27"/>
</g>
<!-- Node21 -->
<g id="node21" class="node">
<title>Node21</title>
<g id="a_node21"><a xlink:href="../../db/db7/classuxn_1_1patl_1_1impl_1_1suffix__generic.html#a3a8ccdc542ec789f363fbfacb3d3e344" target="_top" xlink:title=" ">
<polygon fill="none" stroke="black" points="492.5,-24 492.5,-98 632.5,-98 632.5,-24 492.5,-24"/>
<text text-anchor="start" x="500.5" y="-86" font-family="Helvetica,sans-Serif" font-size="10.00">uxn::patl::impl::suffix</text>
<text text-anchor="start" x="500.5" y="-75" font-family="Helvetica,sans-Serif" font-size="10.00">_generic&lt; impl::suffix</text>
<text text-anchor="start" x="500.5" y="-64" font-family="Helvetica,sans-Serif" font-size="10.00">_set_traits&lt; Type, 0, 1,</text>
<text text-anchor="start" x="500.5" y="-53" font-family="Helvetica,sans-Serif" font-size="10.00"> bit_comparator&lt; Type, 0</text>
<text text-anchor="start" x="500.5" y="-42" font-family="Helvetica,sans-Serif" font-size="10.00"> &gt;, std::allocator&lt; Type</text>
<text text-anchor="middle" x="562.5" y="-31" font-family="Helvetica,sans-Serif" font-size="10.00"> &gt; &gt; &gt;::reserve</text>
</a>
</g>
</g>
<!-- Node16&#45;&gt;Node21 -->
<g id="edge21" class="edge">
<title>Node16&#45;&gt;Node21</title>
<path fill="none" stroke="midnightblue" d="M394.49,-355.75C409.75,-334.79 436.58,-295.4 452,-258 478.3,-194.22 447.76,-163.04 488,-107 488.21,-106.71 488.41,-106.43 488.62,-106.14"/>
<polygon fill="midnightblue" stroke="midnightblue" points="491.49,-108.18 495.33,-98.3 486.17,-103.63 491.49,-108.18"/>
</g>
<!-- Node22&#45;&gt;Node16 -->
<g id="edge24" class="edge">
<title>Node22&#45;&gt;Node16</title>
<path fill="none" stroke="midnightblue" d="M251.16,-382.2C271.33,-380.46 294.31,-378.48 315.28,-376.67"/>
<polygon fill="midnightblue" stroke="midnightblue" points="315.72,-380.14 325.38,-375.8 315.12,-373.17 315.72,-380.14"/>
</g>
<!-- Node24 -->
<g id="node24" class="node">
<title>Node24</title>
<g id="a_node24"><a xlink:href="../../db/db7/classuxn_1_1patl_1_1impl_1_1suffix__generic.html#a755ff4d1ad4df54f258c3e09d32f23f0" target="_top" xlink:title=" ">
<polygon fill="none" stroke="black" points="322,-126 322,-156 442,-156 442,-126 322,-126"/>
<text text-anchor="start" x="330" y="-144" font-family="Helvetica,sans-Serif" font-size="10.00">uxn::patl::impl::suffix</text>
<text text-anchor="middle" x="382" y="-133" font-family="Helvetica,sans-Serif" font-size="10.00">_generic::keys</text>
</a>
</g>
</g>
<!-- Node23&#45;&gt;Node24 -->
<g id="edge26" class="edge">
<title>Node23&#45;&gt;Node24</title>
<path fill="none" stroke="midnightblue" d="M254.7,-148.49C272.78,-147.42 292.81,-146.23 311.5,-145.12"/>
<polygon fill="midnightblue" stroke="midnightblue" points="311.95,-148.6 321.72,-144.52 311.53,-141.61 311.95,-148.6"/>
</g>
</g>
</svg>
        <g id="navigator" transform="translate(0 0)" fill="#404254">
                <rect fill="#f2f5e9" fill-opacity="0.5" stroke="#606060" stroke-width=".5" x="0" y="0" width="60" height="60"/>
                <use id="zoomplus" xlink:href="#zoomPlus" x="17" y="9" onmousedown="handleZoom(evt,'in')"/>
                <use id="zoomminus" xlink:href="#zoomMin" x="42" y="9" onmousedown="handleZoom(evt,'out')"/>
                <use id="reset" xlink:href="#resetDef" x="30" y="36" onmousedown="handleReset()"/>
                <g id="arrowUp" xlink:href="#dirArrow" transform="translate(30 24)" onmousedown="handlePan(0,-1)">
                  <use xlink:href="#rim" fill="#404040">
                        <set attributeName="fill" to="#808080" begin="arrowUp.mouseover" end="arrowUp.mouseout"/>
                  </use>
                  <path fill="none" stroke="white" stroke-width="1.5" d="M0,-3.0v7 M-2.5,-0.5L0,-3.0L2.5,-0.5"/>
                </g>
                <g id="arrowRight" xlink:href="#dirArrow" transform="rotate(90) translate(36 -43)" onmousedown="handlePan(1,0)">
                  <use xlink:href="#rim" fill="#404040">
                        <set attributeName="fill" to="#808080" begin="arrowRight.mouseover" end="arrowRight.mouseout"/>
                  </use>
                  <path fill="none" stroke="white" stroke-width="1.5" d="M0,-3.0v7 M-2.5,-0.5L0,-3.0L2.5,-0.5"/>
                </g>
                <g id="arrowDown" xlink:href="#dirArrow" transform="rotate(180) translate(-30 -48)" onmousedown="handlePan(0,1)">
                  <use xlink:href="#rim" fill="#404040">
                        <set attributeName="fill" to="#808080" begin="arrowDown.mouseover" end="arrowDown.mouseout"/>
                  </use>
                  <path fill="none" stroke="white" stroke-width="1.5" d="M0,-3.0v7 M-2.5,-0.5L0,-3.0L2.5,-0.5"/>
                </g>
                <g id="arrowLeft" xlink:href="#dirArrow" transform="rotate(270) translate(-36 17)" onmousedown="handlePan(-1,0)">
                  <use xlink:href="#rim" fill="#404040">
                        <set attributeName="fill" to="#808080" begin="arrowLeft.mouseover" end="arrowLeft.mouseout"/>
                  </use>
                  <path fill="none" stroke="white" stroke-width="1.5" d="M0,-3.0v7 M-2.5,-0.5L0,-3.0L2.5,-0.5"/>
                </g>
        </g>
        <svg viewBox="0 0 15 15" width="100%" height="30px" preserveAspectRatio="xMaxYMin meet">
         <g id="arrow_out" transform="scale(0.3 0.3)">
          <a xlink:href="lz77_8cpp_a96bf5c98cb36266e461ecf6f31ac3aa7_cgraph_org.svg" target="_base">
           <rect id="button" ry="5" rx="5" y="6" x="6" height="38" width="38"
                fill="#f2f5e9" fill-opacity="0.5" stroke="#606060" stroke-width="1.0"/>
           <path id="arrow"
             d="M 11.500037,31.436501 C 11.940474,20.09759 22.043105,11.32322 32.158766,21.979434 L 37.068811,17.246167 C 37.068811,17.246167 37.088388,32 37.088388,32 L 22.160133,31.978069 C 22.160133,31.978069 26.997745,27.140456 26.997745,27.140456 C 18.528582,18.264221 13.291696,25.230495 11.500037,31.436501 z"
             style="fill:#404040;"/>
          </a>
         </g>
        </svg>
</svg>
