<?xml version="1.0" encoding="UTF-8" standalone="no"?>
<!DOCTYPE svg PUBLIC "-//W3C//DTD SVG 1.1//EN"
 "http://www.w3.org/Graphics/SVG/1.1/DTD/svg11.dtd">
<!-- Generated by graphviz version 5.0.1 (20220820.1526)
 -->
<!-- Title: uxn::patl::impl::const_preorder_iterator_generic::next_subtree Pages: 1 -->
<svg width="336pt" height="110pt"
 viewBox="0.00 0.00 336.00 110.00" xmlns="http://www.w3.org/2000/svg" xmlns:xlink="http://www.w3.org/1999/xlink">
<g id="graph0" class="graph" transform="scale(1 1) rotate(0) translate(4 106)">
<title>uxn::patl::impl::const_preorder_iterator_generic::next_subtree</title>
<!-- Node1 -->
<g id="node1" class="node">
<title>Node1</title>
<g id="a_node1"><a xlink:title=" ">
<polygon fill="#bfbfbf" stroke="black" points="182,-30.5 182,-71.5 328,-71.5 328,-30.5 182,-30.5"/>
<text text-anchor="start" x="190" y="-59.5" font-family="Helvetica,sans-Serif" font-size="10.00">uxn::patl::impl::const</text>
<text text-anchor="start" x="190" y="-48.5" font-family="Helvetica,sans-Serif" font-size="10.00">_preorder_iterator_generic</text>
<text text-anchor="middle" x="255" y="-37.5" font-family="Helvetica,sans-Serif" font-size="10.00">::next_subtree</text>
</a>
</g>
</g>
<!-- Node2 -->
<g id="node2" class="node">
<title>Node2</title>
<g id="a_node2"><a xlink:href="../../df/dd4/classuxn_1_1patl_1_1impl_1_1const__preorder__iterator__generic.html#a4a202d0ab95f1b24a5317e6c4bf05af9" target="_top" xlink:title=" ">
<polygon fill="none" stroke="black" points="0,-60.5 0,-101.5 146,-101.5 146,-60.5 0,-60.5"/>
<text text-anchor="start" x="8" y="-89.5" font-family="Helvetica,sans-Serif" font-size="10.00">uxn::patl::impl::const</text>
<text text-anchor="start" x="8" y="-78.5" font-family="Helvetica,sans-Serif" font-size="10.00">_preorder_iterator_generic</text>
<text text-anchor="middle" x="73" y="-67.5" font-family="Helvetica,sans-Serif" font-size="10.00">::increment</text>
</a>
</g>
</g>
<!-- Node1&#45;&gt;Node2 -->
<g id="edge1" class="edge">
<title>Node1&#45;&gt;Node2</title>
<path fill="none" stroke="midnightblue" d="M171.84,-64.69C163.28,-66.12 154.63,-67.56 146.19,-68.97"/>
<polygon fill="midnightblue" stroke="midnightblue" points="172.54,-68.13 181.82,-63.03 171.38,-61.22 172.54,-68.13"/>
</g>
<!-- Node3 -->
<g id="node3" class="node">
<title>Node3</title>
<g id="a_node3"><a xlink:href="../../df/dd4/classuxn_1_1patl_1_1impl_1_1const__preorder__iterator__generic.html#a0c738297cc2b07a93528148db6b846a1" target="_top" xlink:title=" ">
<polygon fill="none" stroke="black" points="0,-0.5 0,-41.5 146,-41.5 146,-0.5 0,-0.5"/>
<text text-anchor="start" x="8" y="-29.5" font-family="Helvetica,sans-Serif" font-size="10.00">uxn::patl::impl::const</text>
<text text-anchor="start" x="8" y="-18.5" font-family="Helvetica,sans-Serif" font-size="10.00">_preorder_iterator_generic</text>
<text text-anchor="middle" x="73" y="-7.5" font-family="Helvetica,sans-Serif" font-size="10.00">::operator++</text>
</a>
</g>
</g>
<!-- Node1&#45;&gt;Node3 -->
<g id="edge2" class="edge">
<title>Node1&#45;&gt;Node3</title>
<path fill="none" stroke="midnightblue" d="M171.84,-37.31C163.28,-35.88 154.63,-34.44 146.19,-33.03"/>
<polygon fill="midnightblue" stroke="midnightblue" points="171.38,-40.78 181.82,-38.97 172.54,-33.87 171.38,-40.78"/>
</g>
</g>
</svg>
