<?xml version="1.0" encoding="UTF-8" standalone="no"?>
<!DOCTYPE svg PUBLIC "-//W3C//DTD SVG 1.1//EN"
 "http://www.w3.org/Graphics/SVG/1.1/DTD/svg11.dtd">
<!-- Generated by graphviz version 5.0.1 (20220820.1526)
 -->
<!-- Title: uxn/demos/insider/insider.cpp Pages: 1 -->
<svg width="1426pt" height="386pt"
 viewBox="0.00 0.00 1425.50 386.00" xmlns="http://www.w3.org/2000/svg" xmlns:xlink="http://www.w3.org/1999/xlink">
<g id="graph0" class="graph" transform="scale(1 1) rotate(0) translate(4 382)">
<title>uxn/demos/insider/insider.cpp</title>
<!-- Node1 -->
<g id="node1" class="node">
<title>Node1</title>
<g id="a_node1"><a xlink:title=" ">
<polygon fill="#bfbfbf" stroke="black" points="864.5,-358.5 864.5,-377.5 1026.5,-377.5 1026.5,-358.5 864.5,-358.5"/>
<text text-anchor="middle" x="945.5" y="-365.5" font-family="Helvetica,sans-Serif" font-size="10.00">uxn/demos/insider/insider.cpp</text>
</a>
</g>
</g>
<!-- Node2 -->
<g id="node2" class="node">
<title>Node2</title>
<g id="a_node2"><a xlink:href="../../d4/db1/trie__set_8hpp.html" target="_top" xlink:title=" ">
<polygon fill="none" stroke="black" points="654,-297 654,-316 771,-316 771,-297 654,-297"/>
<text text-anchor="middle" x="712.5" y="-304" font-family="Helvetica,sans-Serif" font-size="10.00">uxn/patl/trie_set.hpp</text>
</a>
</g>
</g>
<!-- Node1&#45;&gt;Node2 -->
<g id="edge1" class="edge">
<title>Node1&#45;&gt;Node2</title>
<path fill="none" stroke="midnightblue" d="M912.12,-358.48C870.94,-347.96 800.85,-330.06 755.63,-318.51"/>
<polygon fill="midnightblue" stroke="midnightblue" points="756.38,-315.09 745.82,-316.01 754.64,-321.87 756.38,-315.09"/>
</g>
<!-- Node27 -->
<g id="node27" class="node">
<title>Node27</title>
<g id="a_node27"><a xlink:href="../../d2/d18/maxrep__iterator_8hpp.html" target="_top" xlink:title=" ">
<polygon fill="none" stroke="black" points="793.5,-230 793.5,-249 951.5,-249 951.5,-230 793.5,-230"/>
<text text-anchor="middle" x="872.5" y="-237" font-family="Helvetica,sans-Serif" font-size="10.00">uxn/patl/maxrep_iterator.hpp</text>
</a>
</g>
</g>
<!-- Node1&#45;&gt;Node27 -->
<g id="edge35" class="edge">
<title>Node1&#45;&gt;Node27</title>
<path fill="none" stroke="midnightblue" d="M944.94,-358.43C943.64,-343.69 939.47,-313.04 926.5,-291 918.2,-276.9 904.77,-264.31 893.38,-255.24"/>
<polygon fill="midnightblue" stroke="midnightblue" points="895.27,-252.28 885.19,-249.01 891.04,-257.85 895.27,-252.28"/>
</g>
<!-- Node28 -->
<g id="node28" class="node">
<title>Node28</title>
<g id="a_node28"><a xlink:href="../../da/d0a/super__maxrep__iterator_8hpp.html" target="_top" xlink:title=" ">
<polygon fill="none" stroke="black" points="970,-224.5 970,-254.5 1099,-254.5 1099,-224.5 970,-224.5"/>
<text text-anchor="start" x="978" y="-242.5" font-family="Helvetica,sans-Serif" font-size="10.00">uxn/patl/super_maxrep</text>
<text text-anchor="middle" x="1034.5" y="-231.5" font-family="Helvetica,sans-Serif" font-size="10.00">_iterator.hpp</text>
</a>
</g>
</g>
<!-- Node1&#45;&gt;Node28 -->
<g id="edge39" class="edge">
<title>Node1&#45;&gt;Node28</title>
<path fill="none" stroke="midnightblue" d="M951.62,-358.31C965.23,-338.96 998.38,-291.85 1018.38,-263.41"/>
<polygon fill="midnightblue" stroke="midnightblue" points="1021.49,-265.08 1024.38,-254.89 1015.76,-261.05 1021.49,-265.08"/>
</g>
<!-- Node30 -->
<g id="node30" class="node">
<title>Node30</title>
<g id="a_node30"><a xlink:href="../../d4/dc0/suffix__set_8hpp.html" target="_top" xlink:title=" ">
<polygon fill="none" stroke="black" points="789.5,-297 789.5,-316 917.5,-316 917.5,-297 789.5,-297"/>
<text text-anchor="middle" x="853.5" y="-304" font-family="Helvetica,sans-Serif" font-size="10.00">uxn/patl/suffix_set.hpp</text>
</a>
</g>
</g>
<!-- Node1&#45;&gt;Node30 -->
<g id="edge43" class="edge">
<title>Node1&#45;&gt;Node30</title>
<path fill="none" stroke="midnightblue" d="M932.32,-358.48C917.43,-348.84 892.96,-333.02 875.23,-321.55"/>
<polygon fill="midnightblue" stroke="midnightblue" points="876.95,-318.5 866.66,-316.01 873.15,-324.38 876.95,-318.5"/>
</g>
<!-- Node33 -->
<g id="node33" class="node">
<title>Node33</title>
<g id="a_node33"><a xlink:href="../../d2/d92/partial_8hpp.html" target="_top" xlink:title=" ">
<polygon fill="none" stroke="black" points="523.5,-297 523.5,-316 635.5,-316 635.5,-297 523.5,-297"/>
<text text-anchor="middle" x="579.5" y="-304" font-family="Helvetica,sans-Serif" font-size="10.00">uxn/patl/partial.hpp</text>
</a>
</g>
</g>
<!-- Node1&#45;&gt;Node33 -->
<g id="edge52" class="edge">
<title>Node1&#45;&gt;Node33</title>
<path fill="none" stroke="midnightblue" d="M879.22,-358.47C818.08,-350.27 724.89,-336.96 644.5,-322 638.31,-320.85 631.81,-319.53 625.41,-318.17"/>
<polygon fill="midnightblue" stroke="midnightblue" points="626.02,-314.72 615.51,-316.01 624.53,-321.56 626.02,-314.72"/>
</g>
<!-- Node35 -->
<g id="node35" class="node">
<title>Node35</title>
<g id="a_node35"><a xlink:href="../../da/d42/levenshtein_8hpp.html" target="_top" xlink:title=" ">
<polygon fill="none" stroke="black" points="368,-297 368,-316 505,-316 505,-297 368,-297"/>
<text text-anchor="middle" x="436.5" y="-304" font-family="Helvetica,sans-Serif" font-size="10.00">uxn/patl/levenshtein.hpp</text>
</a>
</g>
</g>
<!-- Node1&#45;&gt;Node35 -->
<g id="edge57" class="edge">
<title>Node1&#45;&gt;Node35</title>
<path fill="none" stroke="midnightblue" d="M864.24,-360.46C777.41,-353.02 635.86,-339.59 514.5,-322 506.17,-320.79 497.38,-319.34 488.81,-317.82"/>
<polygon fill="midnightblue" stroke="midnightblue" points="489.37,-314.36 478.9,-316.02 488.12,-321.25 489.37,-314.36"/>
</g>
<!-- Node36 -->
<g id="node36" class="node">
<title>Node36</title>
<g id="a_node36"><a xlink:href="../../db/dcf/patricia__dot__creator_8hpp.html" target="_top" xlink:title=" ">
<polygon fill="none" stroke="black" points="1087,-291.5 1087,-321.5 1204,-321.5 1204,-291.5 1087,-291.5"/>
<text text-anchor="start" x="1095" y="-309.5" font-family="Helvetica,sans-Serif" font-size="10.00">uxn/patl/patricia_dot</text>
<text text-anchor="middle" x="1145.5" y="-298.5" font-family="Helvetica,sans-Serif" font-size="10.00">_creator.hpp</text>
</a>
</g>
</g>
<!-- Node1&#45;&gt;Node36 -->
<g id="edge59" class="edge">
<title>Node1&#45;&gt;Node36</title>
<path fill="none" stroke="midnightblue" d="M974.16,-358.48C1003.9,-349.63 1051.22,-335.55 1088.6,-324.43"/>
<polygon fill="midnightblue" stroke="midnightblue" points="1089.78,-327.73 1098.36,-321.52 1087.78,-321.02 1089.78,-327.73"/>
</g>
<!-- Node38 -->
<g id="node38" class="node">
<title>Node38</title>
<g id="a_node38"><a xlink:title=" ">
<polygon fill="none" stroke="#bfbfbf" points="1357.5,-230 1357.5,-249 1417.5,-249 1417.5,-230 1357.5,-230"/>
<text text-anchor="middle" x="1387.5" y="-237" font-family="Helvetica,sans-Serif" font-size="10.00">iostream</text>
</a>
</g>
</g>
<!-- Node1&#45;&gt;Node38 -->
<g id="edge63" class="edge">
<title>Node1&#45;&gt;Node38</title>
<path fill="none" stroke="midnightblue" d="M1026.52,-363.96C1081.32,-359.41 1154.24,-348.39 1213.5,-322 1233.73,-312.99 1233.21,-301.88 1252.5,-291 1292.55,-268.41 1306.46,-271.2 1349.5,-255 1351.38,-254.29 1353.32,-253.56 1355.27,-252.82"/>
<polygon fill="midnightblue" stroke="midnightblue" points="1356.9,-255.95 1365.01,-249.12 1354.42,-249.4 1356.9,-255.95"/>
</g>
<!-- Node40 -->
<g id="node40" class="node">
<title>Node40</title>
<g id="a_node40"><a xlink:title=" ">
<polygon fill="none" stroke="#bfbfbf" points="1261,-297 1261,-316 1316,-316 1316,-297 1261,-297"/>
<text text-anchor="middle" x="1288.5" y="-304" font-family="Helvetica,sans-Serif" font-size="10.00">fstream</text>
</a>
</g>
</g>
<!-- Node1&#45;&gt;Node40 -->
<g id="edge64" class="edge">
<title>Node1&#45;&gt;Node40</title>
<path fill="none" stroke="midnightblue" d="M1026.77,-358.95C1087.79,-351.92 1173.12,-339.99 1246.5,-322 1249.72,-321.21 1253.05,-320.28 1256.35,-319.27"/>
<polygon fill="midnightblue" stroke="midnightblue" points="1257.64,-322.53 1266.06,-316.1 1255.47,-315.88 1257.64,-322.53"/>
</g>
<!-- Node3 -->
<g id="node3" class="node">
<title>Node3</title>
<g id="a_node3"><a xlink:href="../../d9/d25/trie__generic_8hpp.html" target="_top" xlink:title=" ">
<polygon fill="none" stroke="black" points="215.5,-230 215.5,-249 335.5,-249 335.5,-230 215.5,-230"/>
<text text-anchor="middle" x="275.5" y="-237" font-family="Helvetica,sans-Serif" font-size="10.00">impl/trie_generic.hpp</text>
</a>
</g>
</g>
<!-- Node2&#45;&gt;Node3 -->
<g id="edge2" class="edge">
<title>Node2&#45;&gt;Node3</title>
<path fill="none" stroke="midnightblue" d="M675.19,-296.97C665.25,-294.86 654.49,-292.71 644.5,-291 521.7,-269.99 489.81,-272.8 366.5,-255 357.1,-253.64 347.16,-252.13 337.45,-250.62"/>
<polygon fill="midnightblue" stroke="midnightblue" points="337.86,-247.14 327.43,-249.04 336.77,-254.06 337.86,-247.14"/>
</g>
<!-- Node24 -->
<g id="node24" class="node">
<title>Node24</title>
<g id="a_node24"><a xlink:href="../../d1/dff/bit__comp_8hpp.html" target="_top" xlink:title=" ">
<polygon fill="none" stroke="black" points="692,-230 692,-249 775,-249 775,-230 692,-230"/>
<text text-anchor="middle" x="733.5" y="-237" font-family="Helvetica,sans-Serif" font-size="10.00">bit_comp.hpp</text>
</a>
</g>
</g>
<!-- Node2&#45;&gt;Node24 -->
<g id="edge31" class="edge">
<title>Node2&#45;&gt;Node24</title>
<path fill="none" stroke="midnightblue" d="M715.33,-296.73C718.45,-287.09 723.55,-271.3 727.55,-258.91"/>
<polygon fill="midnightblue" stroke="midnightblue" points="730.97,-259.72 730.71,-249.13 724.31,-257.57 730.97,-259.72"/>
</g>
<!-- Node4 -->
<g id="node4" class="node">
<title>Node4</title>
<g id="a_node4"><a xlink:title=" ">
<polygon fill="none" stroke="#bfbfbf" points="71.5,-112.5 71.5,-131.5 135.5,-131.5 135.5,-112.5 71.5,-112.5"/>
<text text-anchor="middle" x="103.5" y="-119.5" font-family="Helvetica,sans-Serif" font-size="10.00">algorithm</text>
</a>
</g>
</g>
<!-- Node3&#45;&gt;Node4 -->
<g id="edge3" class="edge">
<title>Node3&#45;&gt;Node4</title>
<path fill="none" stroke="midnightblue" d="M215.25,-235.77C144.72,-231.16 34.24,-219.06 8.5,-188 -11.23,-164.19 27.59,-145.42 61.4,-134.29"/>
<polygon fill="midnightblue" stroke="midnightblue" points="62.7,-137.55 71.2,-131.22 60.61,-130.87 62.7,-137.55"/>
</g>
<!-- Node5 -->
<g id="node5" class="node">
<title>Node5</title>
<g id="a_node5"><a xlink:title=" ">
<polygon fill="none" stroke="#bfbfbf" points="18,-168.5 18,-187.5 83,-187.5 83,-168.5 18,-168.5"/>
<text text-anchor="middle" x="50.5" y="-175.5" font-family="Helvetica,sans-Serif" font-size="10.00">functional</text>
</a>
</g>
</g>
<!-- Node3&#45;&gt;Node5 -->
<g id="edge4" class="edge">
<title>Node3&#45;&gt;Node5</title>
<path fill="none" stroke="midnightblue" d="M243.26,-229.98C203.58,-219.48 136.1,-201.64 92.43,-190.09"/>
<polygon fill="midnightblue" stroke="midnightblue" points="93.24,-186.68 82.68,-187.51 91.45,-193.45 93.24,-186.68"/>
</g>
<!-- Node6 -->
<g id="node6" class="node">
<title>Node6</title>
<g id="a_node6"><a xlink:href="../../d3/d09/node_8hpp.html" target="_top" xlink:title=" ">
<polygon fill="none" stroke="black" points="139.5,-168.5 139.5,-187.5 201.5,-187.5 201.5,-168.5 139.5,-168.5"/>
<text text-anchor="middle" x="170.5" y="-175.5" font-family="Helvetica,sans-Serif" font-size="10.00">node.hpp</text>
</a>
</g>
</g>
<!-- Node3&#45;&gt;Node6 -->
<g id="edge5" class="edge">
<title>Node3&#45;&gt;Node6</title>
<path fill="none" stroke="midnightblue" d="M260.46,-229.98C243.22,-220.21 214.76,-204.08 194.47,-192.58"/>
<polygon fill="midnightblue" stroke="midnightblue" points="195.94,-189.39 185.52,-187.51 192.49,-195.48 195.94,-189.39"/>
</g>
<!-- Node8 -->
<g id="node8" class="node">
<title>Node8</title>
<g id="a_node8"><a xlink:href="../../d0/dd1/core__algorithm_8hpp.html" target="_top" xlink:title=" ">
<polygon fill="none" stroke="black" points="220,-168.5 220,-187.5 331,-187.5 331,-168.5 220,-168.5"/>
<text text-anchor="middle" x="275.5" y="-175.5" font-family="Helvetica,sans-Serif" font-size="10.00">core_algorithm.hpp</text>
</a>
</g>
</g>
<!-- Node3&#45;&gt;Node8 -->
<g id="edge8" class="edge">
<title>Node3&#45;&gt;Node8</title>
<path fill="none" stroke="midnightblue" d="M275.5,-229.98C275.5,-221.58 275.5,-208.48 275.5,-197.66"/>
<polygon fill="midnightblue" stroke="midnightblue" points="279,-197.51 275.5,-187.51 272,-197.51 279,-197.51"/>
</g>
<!-- Node14 -->
<g id="node14" class="node">
<title>Node14</title>
<g id="a_node14"><a xlink:href="../../de/d50/assoc__generic_8hpp.html" target="_top" xlink:title=" ">
<polygon fill="none" stroke="black" points="434,-168.5 434,-187.5 541,-187.5 541,-168.5 434,-168.5"/>
<text text-anchor="middle" x="487.5" y="-175.5" font-family="Helvetica,sans-Serif" font-size="10.00">assoc_generic.hpp</text>
</a>
</g>
</g>
<!-- Node3&#45;&gt;Node14 -->
<g id="edge16" class="edge">
<title>Node3&#45;&gt;Node14</title>
<path fill="none" stroke="midnightblue" d="M305.87,-229.98C343.11,-219.53 406.31,-201.79 447.48,-190.23"/>
<polygon fill="midnightblue" stroke="midnightblue" points="448.5,-193.58 457.18,-187.51 446.61,-186.84 448.5,-193.58"/>
</g>
<!-- Node22 -->
<g id="node22" class="node">
<title>Node22</title>
<g id="a_node22"><a xlink:href="../../d7/dd8/core__prefix_8hpp.html" target="_top" xlink:title=" ">
<polygon fill="none" stroke="black" points="559.5,-168.5 559.5,-187.5 651.5,-187.5 651.5,-168.5 559.5,-168.5"/>
<text text-anchor="middle" x="605.5" y="-175.5" font-family="Helvetica,sans-Serif" font-size="10.00">core_prefix.hpp</text>
</a>
</g>
</g>
<!-- Node3&#45;&gt;Node22 -->
<g id="edge29" class="edge">
<title>Node3&#45;&gt;Node22</title>
<path fill="none" stroke="midnightblue" d="M322.78,-229.98C382.67,-219.18 485.72,-200.6 549.49,-189.1"/>
<polygon fill="midnightblue" stroke="midnightblue" points="550.15,-192.54 559.37,-187.32 548.91,-185.65 550.15,-192.54"/>
</g>
<!-- Node6&#45;&gt;Node4 -->
<g id="edge6" class="edge">
<title>Node6&#45;&gt;Node4</title>
<path fill="none" stroke="midnightblue" d="M159.74,-168.32C149.73,-160.26 134.61,-148.08 122.57,-138.37"/>
<polygon fill="midnightblue" stroke="midnightblue" points="124.44,-135.38 114.46,-131.83 120.05,-140.83 124.44,-135.38"/>
</g>
<!-- Node7 -->
<g id="node7" class="node">
<title>Node7</title>
<g id="a_node7"><a xlink:href="../../d8/dfd/config_8hpp.html" target="_top" xlink:title=" ">
<polygon fill="none" stroke="black" points="228.5,-0.5 228.5,-19.5 304.5,-19.5 304.5,-0.5 228.5,-0.5"/>
<text text-anchor="middle" x="266.5" y="-7.5" font-family="Helvetica,sans-Serif" font-size="10.00">../config.hpp</text>
</a>
</g>
</g>
<!-- Node6&#45;&gt;Node7 -->
<g id="edge7" class="edge">
<title>Node6&#45;&gt;Node7</title>
<path fill="none" stroke="midnightblue" d="M175.66,-168.08C190.9,-141.72 235.92,-63.88 256.29,-28.66"/>
<polygon fill="midnightblue" stroke="midnightblue" points="259.57,-29.98 261.54,-19.57 253.51,-26.47 259.57,-29.98"/>
</g>
<!-- Node9 -->
<g id="node9" class="node">
<title>Node9</title>
<g id="a_node9"><a xlink:href="../../de/d55/algorithm_8hpp.html" target="_top" xlink:title=" ">
<polygon fill="none" stroke="black" points="230,-112.5 230,-131.5 315,-131.5 315,-112.5 230,-112.5"/>
<text text-anchor="middle" x="272.5" y="-119.5" font-family="Helvetica,sans-Serif" font-size="10.00">algorithm.hpp</text>
</a>
</g>
</g>
<!-- Node8&#45;&gt;Node9 -->
<g id="edge9" class="edge">
<title>Node8&#45;&gt;Node9</title>
<path fill="none" stroke="midnightblue" d="M275,-168.08C274.61,-161.01 274.05,-150.86 273.55,-141.99"/>
<polygon fill="midnightblue" stroke="midnightblue" points="277.04,-141.54 272.99,-131.75 270.05,-141.93 277.04,-141.54"/>
</g>
<!-- Node9&#45;&gt;Node7 -->
<g id="edge10" class="edge">
<title>Node9&#45;&gt;Node7</title>
<path fill="none" stroke="midnightblue" d="M272.03,-112.37C271.06,-94.62 268.83,-53.67 267.51,-29.6"/>
<polygon fill="midnightblue" stroke="midnightblue" points="271.01,-29.39 266.97,-19.59 264.02,-29.77 271.01,-29.39"/>
</g>
<!-- Node10 -->
<g id="node10" class="node">
<title>Node10</title>
<g id="a_node10"><a xlink:href="../../d9/d3a/trivial_8hpp.html" target="_top" xlink:title=" ">
<polygon fill="none" stroke="black" points="70.5,-56.5 70.5,-75.5 136.5,-75.5 136.5,-56.5 70.5,-56.5"/>
<text text-anchor="middle" x="103.5" y="-63.5" font-family="Helvetica,sans-Serif" font-size="10.00">trivial.hpp</text>
</a>
</g>
</g>
<!-- Node9&#45;&gt;Node10 -->
<g id="edge11" class="edge">
<title>Node9&#45;&gt;Node10</title>
<path fill="none" stroke="midnightblue" d="M245.72,-112.44C217.17,-103.32 171.77,-88.81 139.96,-78.65"/>
<polygon fill="midnightblue" stroke="midnightblue" points="140.74,-75.23 130.15,-75.52 138.61,-81.89 140.74,-75.23"/>
</g>
<!-- Node10&#45;&gt;Node7 -->
<g id="edge12" class="edge">
<title>Node10&#45;&gt;Node7</title>
<path fill="none" stroke="midnightblue" d="M129.33,-56.44C156.75,-47.36 200.28,-32.94 230.93,-22.78"/>
<polygon fill="midnightblue" stroke="midnightblue" points="232.4,-25.98 240.79,-19.52 230.2,-19.34 232.4,-25.98"/>
</g>
<!-- Node11 -->
<g id="node11" class="node">
<title>Node11</title>
<g id="a_node11"><a xlink:title=" ">
<polygon fill="none" stroke="#bfbfbf" points="69,-0.5 69,-19.5 138,-19.5 138,-0.5 69,-0.5"/>
<text text-anchor="middle" x="103.5" y="-7.5" font-family="Helvetica,sans-Serif" font-size="10.00">type_traits</text>
</a>
</g>
</g>
<!-- Node10&#45;&gt;Node11 -->
<g id="edge13" class="edge">
<title>Node10&#45;&gt;Node11</title>
<path fill="none" stroke="midnightblue" d="M103.5,-56.08C103.5,-49.01 103.5,-38.86 103.5,-29.99"/>
<polygon fill="midnightblue" stroke="midnightblue" points="107,-29.75 103.5,-19.75 100,-29.75 107,-29.75"/>
</g>
<!-- Node12 -->
<g id="node12" class="node">
<title>Node12</title>
<g id="a_node12"><a xlink:title=" ">
<polygon fill="none" stroke="#bfbfbf" points="156.5,-0.5 156.5,-19.5 208.5,-19.5 208.5,-0.5 156.5,-0.5"/>
<text text-anchor="middle" x="182.5" y="-7.5" font-family="Helvetica,sans-Serif" font-size="10.00">cassert</text>
</a>
</g>
</g>
<!-- Node10&#45;&gt;Node12 -->
<g id="edge14" class="edge">
<title>Node10&#45;&gt;Node12</title>
<path fill="none" stroke="midnightblue" d="M116.19,-56.32C128.4,-47.98 147.08,-35.21 161.5,-25.35"/>
<polygon fill="midnightblue" stroke="midnightblue" points="163.56,-28.19 169.84,-19.65 159.61,-22.41 163.56,-28.19"/>
</g>
<!-- Node13 -->
<g id="node13" class="node">
<title>Node13</title>
<g id="a_node13"><a xlink:title=" ">
<polygon fill="none" stroke="#bfbfbf" points="0,-0.5 0,-19.5 51,-19.5 51,-0.5 0,-0.5"/>
<text text-anchor="middle" x="25.5" y="-7.5" font-family="Helvetica,sans-Serif" font-size="10.00">intrin.h</text>
</a>
</g>
</g>
<!-- Node10&#45;&gt;Node13 -->
<g id="edge15" class="edge">
<title>Node10&#45;&gt;Node13</title>
<path fill="none" stroke="midnightblue" d="M90.97,-56.32C78.91,-47.98 60.47,-35.21 46.23,-25.35"/>
<polygon fill="midnightblue" stroke="midnightblue" points="48.22,-22.47 38,-19.65 44.23,-28.22 48.22,-22.47"/>
</g>
<!-- Node15 -->
<g id="node15" class="node">
<title>Node15</title>
<g id="a_node15"><a xlink:href="../../d5/db7/preorder__iterator_8hpp.html" target="_top" xlink:title=" ">
<polygon fill="none" stroke="black" points="428,-112.5 428,-131.5 547,-131.5 547,-112.5 428,-112.5"/>
<text text-anchor="middle" x="487.5" y="-119.5" font-family="Helvetica,sans-Serif" font-size="10.00">preorder_iterator.hpp</text>
</a>
</g>
</g>
<!-- Node14&#45;&gt;Node15 -->
<g id="edge17" class="edge">
<title>Node14&#45;&gt;Node15</title>
<path fill="none" stroke="midnightblue" d="M487.5,-168.08C487.5,-161.01 487.5,-150.86 487.5,-141.99"/>
<polygon fill="midnightblue" stroke="midnightblue" points="491,-141.75 487.5,-131.75 484,-141.75 491,-141.75"/>
</g>
<!-- Node16 -->
<g id="node16" class="node">
<title>Node16</title>
<g id="a_node16"><a xlink:href="../../d1/d2d/vertex_8hpp.html" target="_top" xlink:title=" ">
<polygon fill="none" stroke="black" points="453,-56.5 453,-75.5 522,-75.5 522,-56.5 453,-56.5"/>
<text text-anchor="middle" x="487.5" y="-63.5" font-family="Helvetica,sans-Serif" font-size="10.00">vertex.hpp</text>
</a>
</g>
</g>
<!-- Node14&#45;&gt;Node16 -->
<g id="edge27" class="edge">
<title>Node14&#45;&gt;Node16</title>
<path fill="none" stroke="midnightblue" d="M463.71,-168.5C447.78,-161.41 428.04,-149.61 418.5,-132 406.67,-110.15 432.78,-91.47 456.21,-79.82"/>
<polygon fill="midnightblue" stroke="midnightblue" points="457.73,-82.97 465.3,-75.56 454.76,-76.63 457.73,-82.97"/>
</g>
<!-- Node18 -->
<g id="node18" class="node">
<title>Node18</title>
<g id="a_node18"><a xlink:href="../../df/d24/postorder__iterator_8hpp.html" target="_top" xlink:title=" ">
<polygon fill="none" stroke="black" points="565,-112.5 565,-131.5 690,-131.5 690,-112.5 565,-112.5"/>
<text text-anchor="middle" x="627.5" y="-119.5" font-family="Helvetica,sans-Serif" font-size="10.00">postorder_iterator.hpp</text>
</a>
</g>
</g>
<!-- Node14&#45;&gt;Node18 -->
<g id="edge20" class="edge">
<title>Node14&#45;&gt;Node18</title>
<path fill="none" stroke="midnightblue" d="M509.68,-168.44C532.93,-159.48 569.65,-145.31 595.92,-135.18"/>
<polygon fill="midnightblue" stroke="midnightblue" points="597.35,-138.38 605.42,-131.52 594.83,-131.85 597.35,-138.38"/>
</g>
<!-- Node19 -->
<g id="node19" class="node">
<title>Node19</title>
<g id="a_node19"><a xlink:href="../../d9/dde/iterator_8hpp.html" target="_top" xlink:title=" ">
<polygon fill="none" stroke="black" points="815,-112.5 815,-131.5 888,-131.5 888,-112.5 815,-112.5"/>
<text text-anchor="middle" x="851.5" y="-119.5" font-family="Helvetica,sans-Serif" font-size="10.00">iterator.hpp</text>
</a>
</g>
</g>
<!-- Node14&#45;&gt;Node19 -->
<g id="edge23" class="edge">
<title>Node14&#45;&gt;Node19</title>
<path fill="none" stroke="midnightblue" d="M541.12,-169.33C544.29,-168.88 547.44,-168.43 550.5,-168 660.61,-152.36 690.93,-151.06 804.71,-132.06"/>
<polygon fill="midnightblue" stroke="midnightblue" points="805.59,-135.46 814.87,-130.35 804.43,-128.55 805.59,-135.46"/>
</g>
<!-- Node20 -->
<g id="node20" class="node">
<title>Node20</title>
<g id="a_node20"><a xlink:href="../../d7/d8f/partimator_8hpp.html" target="_top" xlink:title=" ">
<polygon fill="none" stroke="black" points="708,-112.5 708,-131.5 797,-131.5 797,-112.5 708,-112.5"/>
<text text-anchor="middle" x="752.5" y="-119.5" font-family="Helvetica,sans-Serif" font-size="10.00">partimator.hpp</text>
</a>
</g>
</g>
<!-- Node14&#45;&gt;Node20 -->
<g id="edge25" class="edge">
<title>Node14&#45;&gt;Node20</title>
<path fill="none" stroke="midnightblue" d="M529.49,-168.44C575.91,-158.98 650.73,-143.74 700.74,-133.55"/>
<polygon fill="midnightblue" stroke="midnightblue" points="701.61,-136.94 710.71,-131.52 700.21,-130.08 701.61,-136.94"/>
</g>
<!-- Node21 -->
<g id="node21" class="node">
<title>Node21</title>
<g id="a_node21"><a xlink:title=" ">
<polygon fill="none" stroke="#bfbfbf" points="333.5,-112.5 333.5,-131.5 371.5,-131.5 371.5,-112.5 333.5,-112.5"/>
<text text-anchor="middle" x="352.5" y="-119.5" font-family="Helvetica,sans-Serif" font-size="10.00">map</text>
</a>
</g>
</g>
<!-- Node14&#45;&gt;Node21 -->
<g id="edge28" class="edge">
<title>Node14&#45;&gt;Node21</title>
<path fill="none" stroke="midnightblue" d="M466.11,-168.44C443.14,-159.25 406.52,-144.61 381.09,-134.43"/>
<polygon fill="midnightblue" stroke="midnightblue" points="382.19,-131.11 371.61,-130.64 379.59,-137.61 382.19,-131.11"/>
</g>
<!-- Node15&#45;&gt;Node16 -->
<g id="edge18" class="edge">
<title>Node15&#45;&gt;Node16</title>
<path fill="none" stroke="midnightblue" d="M487.5,-112.08C487.5,-105.01 487.5,-94.86 487.5,-85.99"/>
<polygon fill="midnightblue" stroke="midnightblue" points="491,-85.75 487.5,-75.75 484,-85.75 491,-85.75"/>
</g>
<!-- Node17 -->
<g id="node17" class="node">
<title>Node17</title>
<g id="a_node17"><a xlink:title=" ">
<polygon fill="none" stroke="#bfbfbf" points="726,-56.5 726,-75.5 779,-75.5 779,-56.5 726,-56.5"/>
<text text-anchor="middle" x="752.5" y="-63.5" font-family="Helvetica,sans-Serif" font-size="10.00">iterator</text>
</a>
</g>
</g>
<!-- Node15&#45;&gt;Node17 -->
<g id="edge19" class="edge">
<title>Node15&#45;&gt;Node17</title>
<path fill="none" stroke="midnightblue" d="M529.49,-112.44C580.86,-101.98 666.99,-84.43 715.81,-74.48"/>
<polygon fill="midnightblue" stroke="midnightblue" points="716.54,-77.9 725.64,-72.47 715.14,-71.04 716.54,-77.9"/>
</g>
<!-- Node18&#45;&gt;Node16 -->
<g id="edge21" class="edge">
<title>Node18&#45;&gt;Node16</title>
<path fill="none" stroke="midnightblue" d="M605.32,-112.44C582.07,-103.48 545.35,-89.31 519.08,-79.18"/>
<polygon fill="midnightblue" stroke="midnightblue" points="520.17,-75.85 509.58,-75.52 517.65,-82.38 520.17,-75.85"/>
</g>
<!-- Node18&#45;&gt;Node17 -->
<g id="edge22" class="edge">
<title>Node18&#45;&gt;Node17</title>
<path fill="none" stroke="midnightblue" d="M647.31,-112.44C667.79,-103.6 699.98,-89.69 723.36,-79.59"/>
<polygon fill="midnightblue" stroke="midnightblue" points="724.99,-82.7 732.79,-75.52 722.22,-76.27 724.99,-82.7"/>
</g>
<!-- Node19&#45;&gt;Node17 -->
<g id="edge24" class="edge">
<title>Node19&#45;&gt;Node17</title>
<path fill="none" stroke="midnightblue" d="M835.59,-112.32C819.86,-103.74 795.56,-90.49 777.29,-80.52"/>
<polygon fill="midnightblue" stroke="midnightblue" points="778.82,-77.37 768.37,-75.65 775.47,-83.52 778.82,-77.37"/>
</g>
<!-- Node20&#45;&gt;Node17 -->
<g id="edge26" class="edge">
<title>Node20&#45;&gt;Node17</title>
<path fill="none" stroke="midnightblue" d="M752.5,-112.08C752.5,-105.01 752.5,-94.86 752.5,-85.99"/>
<polygon fill="midnightblue" stroke="midnightblue" points="756,-85.75 752.5,-75.75 749,-85.75 756,-85.75"/>
</g>
<!-- Node23 -->
<g id="node23" class="node">
<title>Node23</title>
<g id="a_node23"><a xlink:href="../../d0/d34/prefix_8hpp.html" target="_top" xlink:title=" ">
<polygon fill="none" stroke="black" points="945,-112.5 945,-131.5 1010,-131.5 1010,-112.5 945,-112.5"/>
<text text-anchor="middle" x="977.5" y="-119.5" font-family="Helvetica,sans-Serif" font-size="10.00">prefix.hpp</text>
</a>
</g>
</g>
<!-- Node22&#45;&gt;Node23 -->
<g id="edge30" class="edge">
<title>Node22&#45;&gt;Node23</title>
<path fill="none" stroke="midnightblue" d="M651.86,-170.27C724.48,-159.73 864.03,-139.47 934.51,-129.24"/>
<polygon fill="midnightblue" stroke="midnightblue" points="935.41,-132.65 944.8,-127.75 934.4,-125.72 935.41,-132.65"/>
</g>
<!-- Node24&#45;&gt;Node10 -->
<g id="edge34" class="edge">
<title>Node24&#45;&gt;Node10</title>
<path fill="none" stroke="midnightblue" d="M704.23,-229.94C696.25,-227.8 687.58,-225.65 679.5,-224 567.35,-201.12 536.58,-211.2 424.5,-188 378.47,-178.47 264.02,-149.76 220.5,-132 185.71,-117.8 148.18,-95.6 125.26,-81.18"/>
<polygon fill="midnightblue" stroke="midnightblue" points="126.98,-78.12 116.66,-75.7 123.22,-84.02 126.98,-78.12"/>
</g>
<!-- Node25 -->
<g id="node25" class="node">
<title>Node25</title>
<g id="a_node25"><a xlink:title=" ">
<polygon fill="none" stroke="#bfbfbf" points="814.5,-168.5 814.5,-187.5 858.5,-187.5 858.5,-168.5 814.5,-168.5"/>
<text text-anchor="middle" x="836.5" y="-175.5" font-family="Helvetica,sans-Serif" font-size="10.00">string</text>
</a>
</g>
</g>
<!-- Node24&#45;&gt;Node25 -->
<g id="edge32" class="edge">
<title>Node24&#45;&gt;Node25</title>
<path fill="none" stroke="midnightblue" d="M748.26,-229.98C765.16,-220.21 793.08,-204.08 812.99,-192.58"/>
<polygon fill="midnightblue" stroke="midnightblue" points="814.86,-195.54 821.77,-187.51 811.36,-189.48 814.86,-195.54"/>
</g>
<!-- Node26 -->
<g id="node26" class="node">
<title>Node26</title>
<g id="a_node26"><a xlink:title=" ">
<polygon fill="none" stroke="#bfbfbf" points="877,-168.5 877,-187.5 924,-187.5 924,-168.5 877,-168.5"/>
<text text-anchor="middle" x="900.5" y="-175.5" font-family="Helvetica,sans-Serif" font-size="10.00">vector</text>
</a>
</g>
</g>
<!-- Node24&#45;&gt;Node26 -->
<g id="edge33" class="edge">
<title>Node24&#45;&gt;Node26</title>
<path fill="none" stroke="midnightblue" d="M757.43,-229.98C786.28,-219.7 834.93,-202.36 867.38,-190.8"/>
<polygon fill="midnightblue" stroke="midnightblue" points="868.64,-194.07 876.89,-187.41 866.29,-187.47 868.64,-194.07"/>
</g>
<!-- Node27&#45;&gt;Node7 -->
<g id="edge37" class="edge">
<title>Node27&#45;&gt;Node7</title>
<path fill="none" stroke="midnightblue" d="M897.91,-230C949.76,-211.32 1059.55,-164.19 1018.5,-112 974.74,-56.36 474.36,-22.95 314.96,-13.67"/>
<polygon fill="midnightblue" stroke="midnightblue" points="314.71,-10.15 304.52,-13.07 314.31,-17.14 314.71,-10.15"/>
</g>
<!-- Node27&#45;&gt;Node23 -->
<g id="edge38" class="edge">
<title>Node27&#45;&gt;Node23</title>
<path fill="none" stroke="midnightblue" d="M884.82,-229.67C897.57,-220.2 917.65,-204.31 932.5,-188 946.03,-173.13 958.81,-154 967.26,-140.35"/>
<polygon fill="midnightblue" stroke="midnightblue" points="970.43,-141.89 972.61,-131.52 964.44,-138.27 970.43,-141.89"/>
</g>
<!-- Node27&#45;&gt;Node26 -->
<g id="edge36" class="edge">
<title>Node27&#45;&gt;Node26</title>
<path fill="none" stroke="midnightblue" d="M876.51,-229.98C880.59,-221.32 887.02,-207.65 892.2,-196.65"/>
<polygon fill="midnightblue" stroke="midnightblue" points="895.4,-198.05 896.5,-187.51 889.07,-195.07 895.4,-198.05"/>
</g>
<!-- Node28&#45;&gt;Node23 -->
<g id="edge42" class="edge">
<title>Node28&#45;&gt;Node23</title>
<path fill="none" stroke="midnightblue" d="M1027.51,-224.34C1017.1,-203.24 997.54,-163.6 986.21,-140.65"/>
<polygon fill="midnightblue" stroke="midnightblue" points="989.34,-139.09 981.78,-131.67 983.07,-142.19 989.34,-139.09"/>
</g>
<!-- Node28&#45;&gt;Node26 -->
<g id="edge41" class="edge">
<title>Node28&#45;&gt;Node26</title>
<path fill="none" stroke="midnightblue" d="M1002.74,-224.4C980.46,-214.51 950.91,-201.38 929.31,-191.79"/>
<polygon fill="midnightblue" stroke="midnightblue" points="930.56,-188.52 920,-187.66 927.72,-194.91 930.56,-188.52"/>
</g>
<!-- Node29 -->
<g id="node29" class="node">
<title>Node29</title>
<g id="a_node29"><a xlink:title=" ">
<polygon fill="none" stroke="#bfbfbf" points="1066.5,-168.5 1066.5,-187.5 1098.5,-187.5 1098.5,-168.5 1066.5,-168.5"/>
<text text-anchor="middle" x="1082.5" y="-175.5" font-family="Helvetica,sans-Serif" font-size="10.00">set</text>
</a>
</g>
</g>
<!-- Node28&#45;&gt;Node29 -->
<g id="edge40" class="edge">
<title>Node28&#45;&gt;Node29</title>
<path fill="none" stroke="midnightblue" d="M1045.88,-224.4C1052.85,-215.75 1061.81,-204.64 1069.13,-195.58"/>
<polygon fill="midnightblue" stroke="midnightblue" points="1071.96,-197.64 1075.52,-187.66 1066.51,-193.24 1071.96,-197.64"/>
</g>
<!-- Node30&#45;&gt;Node24 -->
<g id="edge51" class="edge">
<title>Node30&#45;&gt;Node24</title>
<path fill="none" stroke="midnightblue" d="M837.32,-296.73C817.07,-285.77 782.2,-266.88 758.51,-254.05"/>
<polygon fill="midnightblue" stroke="midnightblue" points="759.89,-250.81 749.43,-249.13 756.55,-256.97 759.89,-250.81"/>
</g>
<!-- Node31 -->
<g id="node31" class="node">
<title>Node31</title>
<g id="a_node31"><a xlink:href="../../d5/dfc/suffix__generic_8hpp.html" target="_top" xlink:title=" ">
<polygon fill="none" stroke="black" points="540,-230 540,-249 671,-249 671,-230 540,-230"/>
<text text-anchor="middle" x="605.5" y="-237" font-family="Helvetica,sans-Serif" font-size="10.00">impl/suffix_generic.hpp</text>
</a>
</g>
</g>
<!-- Node30&#45;&gt;Node31 -->
<g id="edge44" class="edge">
<title>Node30&#45;&gt;Node31</title>
<path fill="none" stroke="midnightblue" d="M820.82,-296.94C776.49,-285.32 697.23,-264.54 648.22,-251.7"/>
<polygon fill="midnightblue" stroke="midnightblue" points="648.81,-248.23 638.25,-249.08 647.03,-255 648.81,-248.23"/>
</g>
<!-- Node31&#45;&gt;Node6 -->
<g id="edge46" class="edge">
<title>Node31&#45;&gt;Node6</title>
<path fill="none" stroke="midnightblue" d="M548.99,-229.98C535.11,-227.95 520.27,-225.85 506.5,-224 378.36,-206.83 342.81,-210.38 211.89,-188.1"/>
<polygon fill="midnightblue" stroke="midnightblue" points="212.33,-184.62 201.88,-186.37 211.15,-191.52 212.33,-184.62"/>
</g>
<!-- Node31&#45;&gt;Node8 -->
<g id="edge47" class="edge">
<title>Node31&#45;&gt;Node8</title>
<path fill="none" stroke="midnightblue" d="M558.22,-229.98C498.67,-219.24 396.44,-200.81 332.6,-189.29"/>
<polygon fill="midnightblue" stroke="midnightblue" points="333.16,-185.84 322.69,-187.51 331.91,-192.73 333.16,-185.84"/>
</g>
<!-- Node31&#45;&gt;Node14 -->
<g id="edge49" class="edge">
<title>Node31&#45;&gt;Node14</title>
<path fill="none" stroke="midnightblue" d="M588.59,-229.98C568.97,-220.08 536.37,-203.64 513.51,-192.12"/>
<polygon fill="midnightblue" stroke="midnightblue" points="514.88,-188.89 504.38,-187.51 511.73,-195.14 514.88,-188.89"/>
</g>
<!-- Node31&#45;&gt;Node17 -->
<g id="edge45" class="edge">
<title>Node31&#45;&gt;Node17</title>
<path fill="none" stroke="midnightblue" d="M613.83,-229.95C629.1,-214.82 663.26,-183.49 698.5,-168 780.38,-132 839.19,-200.67 896.5,-132 928.55,-93.6 841.88,-76.93 789.36,-70.51"/>
<polygon fill="midnightblue" stroke="midnightblue" points="789.69,-67.02 779.36,-69.36 788.89,-73.98 789.69,-67.02"/>
</g>
<!-- Node31&#45;&gt;Node22 -->
<g id="edge50" class="edge">
<title>Node31&#45;&gt;Node22</title>
<path fill="none" stroke="midnightblue" d="M605.5,-229.98C605.5,-221.58 605.5,-208.48 605.5,-197.66"/>
<polygon fill="midnightblue" stroke="midnightblue" points="609,-197.51 605.5,-187.51 602,-197.51 609,-197.51"/>
</g>
<!-- Node32 -->
<g id="node32" class="node">
<title>Node32</title>
<g id="a_node32"><a xlink:href="../../d3/dcf/ring__buffer_8hpp.html" target="_top" xlink:title=" ">
<polygon fill="none" stroke="black" points="708,-168.5 708,-187.5 797,-187.5 797,-168.5 708,-168.5"/>
<text text-anchor="middle" x="752.5" y="-175.5" font-family="Helvetica,sans-Serif" font-size="10.00">ring_buffer.hpp</text>
</a>
</g>
</g>
<!-- Node31&#45;&gt;Node32 -->
<g id="edge48" class="edge">
<title>Node31&#45;&gt;Node32</title>
<path fill="none" stroke="midnightblue" d="M626.56,-229.98C651.56,-219.86 693.44,-202.9 721.99,-191.35"/>
<polygon fill="midnightblue" stroke="midnightblue" points="723.52,-194.51 731.48,-187.51 720.89,-188.02 723.52,-194.51"/>
</g>
<!-- Node34 -->
<g id="node34" class="node">
<title>Node34</title>
<g id="a_node34"><a xlink:href="../../d0/d40/partial__base_8hpp.html" target="_top" xlink:title=" ">
<polygon fill="none" stroke="black" points="375.5,-230 375.5,-249 497.5,-249 497.5,-230 375.5,-230"/>
<text text-anchor="middle" x="436.5" y="-237" font-family="Helvetica,sans-Serif" font-size="10.00">impl/partial_base.hpp</text>
</a>
</g>
</g>
<!-- Node33&#45;&gt;Node34 -->
<g id="edge53" class="edge">
<title>Node33&#45;&gt;Node34</title>
<path fill="none" stroke="midnightblue" d="M560.51,-296.87C536.04,-285.75 493.3,-266.32 464.94,-253.43"/>
<polygon fill="midnightblue" stroke="midnightblue" points="466.12,-250.12 455.57,-249.17 463.22,-256.49 466.12,-250.12"/>
</g>
<!-- Node34&#45;&gt;Node4 -->
<g id="edge56" class="edge">
<title>Node34&#45;&gt;Node4</title>
<path fill="none" stroke="midnightblue" d="M382.68,-229.95C295.54,-216.07 132.97,-189.96 130.5,-188 116.31,-176.75 109.5,-156.74 106.28,-141.88"/>
<polygon fill="midnightblue" stroke="midnightblue" points="109.67,-140.98 104.46,-131.75 102.79,-142.22 109.67,-140.98"/>
</g>
<!-- Node34&#45;&gt;Node21 -->
<g id="edge55" class="edge">
<title>Node34&#45;&gt;Node21</title>
<path fill="none" stroke="midnightblue" d="M430.19,-229.82C416.32,-210.76 383.01,-164.95 364.83,-139.96"/>
<polygon fill="midnightblue" stroke="midnightblue" points="367.6,-137.81 358.89,-131.78 361.94,-141.93 367.6,-137.81"/>
</g>
<!-- Node34&#45;&gt;Node26 -->
<g id="edge54" class="edge">
<title>Node34&#45;&gt;Node26</title>
<path fill="none" stroke="midnightblue" d="M489.14,-229.94C502.6,-227.87 517.07,-225.75 530.5,-224 676.66,-204.93 717.72,-215.43 866.83,-187.82"/>
<polygon fill="midnightblue" stroke="midnightblue" points="867.63,-191.23 876.81,-185.95 866.34,-184.35 867.63,-191.23"/>
</g>
<!-- Node35&#45;&gt;Node34 -->
<g id="edge58" class="edge">
<title>Node35&#45;&gt;Node34</title>
<path fill="none" stroke="midnightblue" d="M436.5,-296.73C436.5,-287.18 436.5,-271.62 436.5,-259.28"/>
<polygon fill="midnightblue" stroke="midnightblue" points="440,-259.13 436.5,-249.13 433,-259.13 440,-259.13"/>
</g>
<!-- Node37 -->
<g id="node37" class="node">
<title>Node37</title>
<g id="a_node37"><a xlink:href="../../d0/d4e/patricia__dot__base_8hpp.html" target="_top" xlink:title=" ">
<polygon fill="none" stroke="black" points="1191,-230 1191,-249 1340,-249 1340,-230 1191,-230"/>
<text text-anchor="middle" x="1265.5" y="-237" font-family="Helvetica,sans-Serif" font-size="10.00">impl/patricia_dot_base.hpp</text>
</a>
</g>
</g>
<!-- Node36&#45;&gt;Node37 -->
<g id="edge60" class="edge">
<title>Node36&#45;&gt;Node37</title>
<path fill="none" stroke="midnightblue" d="M1171.54,-291.4C1192.13,-280.24 1220.67,-264.78 1240.88,-253.83"/>
<polygon fill="midnightblue" stroke="midnightblue" points="1242.67,-256.85 1249.79,-249.01 1239.33,-250.69 1242.67,-256.85"/>
</g>
<!-- Node36&#45;&gt;Node38 -->
<g id="edge61" class="edge">
<title>Node36&#45;&gt;Node38</title>
<path fill="none" stroke="midnightblue" d="M1204.06,-293C1245.12,-283.75 1301.1,-270.16 1349.5,-255 1351.92,-254.24 1354.4,-253.41 1356.89,-252.55"/>
<polygon fill="midnightblue" stroke="midnightblue" points="1358.16,-255.81 1366.36,-249.09 1355.76,-249.23 1358.16,-255.81"/>
</g>
<!-- Node39 -->
<g id="node39" class="node">
<title>Node39</title>
<g id="a_node39"><a xlink:title=" ">
<polygon fill="none" stroke="#bfbfbf" points="1117.5,-230 1117.5,-249 1173.5,-249 1173.5,-230 1117.5,-230"/>
<text text-anchor="middle" x="1145.5" y="-237" font-family="Helvetica,sans-Serif" font-size="10.00">iomanip</text>
</a>
</g>
</g>
<!-- Node36&#45;&gt;Node39 -->
<g id="edge62" class="edge">
<title>Node36&#45;&gt;Node39</title>
<path fill="none" stroke="midnightblue" d="M1145.5,-291.4C1145.5,-282.06 1145.5,-269.71 1145.5,-259.52"/>
<polygon fill="midnightblue" stroke="midnightblue" points="1149,-259.19 1145.5,-249.19 1142,-259.19 1149,-259.19"/>
</g>
</g>
</svg>
