<?xml version="1.0" encoding="UTF-8" standalone="no"?>
<!DOCTYPE svg PUBLIC "-//W3C//DTD SVG 1.1//EN"
 "http://www.w3.org/Graphics/SVG/1.1/DTD/svg11.dtd">
<!-- Generated by graphviz version 5.0.1 (20220820.1526)
 -->
<!-- Title: uxn::patl::impl::node_generic::set_xlinktag Pages: 1 -->
<svg width="285pt" height="88pt"
 viewBox="0.00 0.00 285.00 88.00" xmlns="http://www.w3.org/2000/svg" xmlns:xlink="http://www.w3.org/1999/xlink">
<g id="graph0" class="graph" transform="scale(1 1) rotate(0) translate(4 84)">
<title>uxn::patl::impl::node_generic::set_xlinktag</title>
<!-- Node1 -->
<g id="node1" class="node">
<title>Node1</title>
<g id="a_node1"><a xlink:title="set child info by id">
<polygon fill="#bfbfbf" stroke="black" points="153,-24.5 153,-54.5 277,-54.5 277,-24.5 153,-24.5"/>
<text text-anchor="start" x="161" y="-42.5" font-family="Helvetica,sans-Serif" font-size="10.00">uxn::patl::impl::node</text>
<text text-anchor="middle" x="215" y="-31.5" font-family="Helvetica,sans-Serif" font-size="10.00">_generic::set_xlinktag</text>
</a>
</g>
</g>
<!-- Node2 -->
<g id="node2" class="node">
<title>Node2</title>
<g id="a_node2"><a xlink:href="../../d2/d2c/classuxn_1_1patl_1_1impl_1_1node__generic.html#a0cc27a92650ac416730a26b5b68b419a" target="_top" xlink:title="root special initialization">
<polygon fill="none" stroke="black" points="0,-49.5 0,-79.5 117,-79.5 117,-49.5 0,-49.5"/>
<text text-anchor="start" x="8" y="-67.5" font-family="Helvetica,sans-Serif" font-size="10.00">uxn::patl::impl::node</text>
<text text-anchor="middle" x="58.5" y="-56.5" font-family="Helvetica,sans-Serif" font-size="10.00">_generic::init_root</text>
</a>
</g>
</g>
<!-- Node1&#45;&gt;Node2 -->
<g id="edge1" class="edge">
<title>Node1&#45;&gt;Node2</title>
<path fill="none" stroke="midnightblue" d="M142.87,-51.01C134.24,-52.41 125.5,-53.82 117.1,-55.18"/>
<polygon fill="midnightblue" stroke="midnightblue" points="143.63,-54.43 152.94,-49.38 142.51,-47.52 143.63,-54.43"/>
</g>
<!-- Node3 -->
<g id="node3" class="node">
<title>Node3</title>
<g id="a_node3"><a xlink:href="../../d2/d2c/classuxn_1_1patl_1_1impl_1_1node__generic.html#a14a329e3425585a127c6b21eddd24bdb" target="_top" xlink:title=" ">
<polygon fill="none" stroke="black" points="0,-0.5 0,-30.5 117,-30.5 117,-0.5 0,-0.5"/>
<text text-anchor="start" x="8" y="-18.5" font-family="Helvetica,sans-Serif" font-size="10.00">uxn::patl::impl::node</text>
<text text-anchor="middle" x="58.5" y="-7.5" font-family="Helvetica,sans-Serif" font-size="10.00">_generic::realloc</text>
</a>
</g>
</g>
<!-- Node1&#45;&gt;Node3 -->
<g id="edge2" class="edge">
<title>Node1&#45;&gt;Node3</title>
<path fill="none" stroke="midnightblue" d="M142.87,-28.45C134.24,-27.11 125.5,-25.75 117.1,-24.45"/>
<polygon fill="midnightblue" stroke="midnightblue" points="142.52,-31.94 152.94,-30.01 143.59,-25.02 142.52,-31.94"/>
</g>
</g>
</svg>
