<?xml version="1.0" encoding="UTF-8" standalone="no"?>
<!DOCTYPE svg PUBLIC "-//W3C//DTD SVG 1.1//EN"
 "http://www.w3.org/Graphics/SVG/1.1/DTD/svg11.dtd">
<!-- Generated by graphviz version 5.0.1 (20220820.1526)
 -->
<!-- Title: uxn::patl::impl::node_generic::visualize Pages: 1 -->
<svg width="292pt" height="235pt"
 viewBox="0.00 0.00 292.00 235.00" xmlns="http://www.w3.org/2000/svg" xmlns:xlink="http://www.w3.org/1999/xlink">
<g id="graph0" class="graph" transform="scale(1 1) rotate(0) translate(4 231)">
<title>uxn::patl::impl::node_generic::visualize</title>
<!-- Node1 -->
<g id="node1" class="node">
<title>Node1</title>
<g id="a_node1"><a xlink:title="for debug only">
<polygon fill="#bfbfbf" stroke="black" points="0,-98.5 0,-128.5 117,-128.5 117,-98.5 0,-98.5"/>
<text text-anchor="start" x="8" y="-116.5" font-family="Helvetica,sans-Serif" font-size="10.00">uxn::patl::impl::node</text>
<text text-anchor="middle" x="58.5" y="-105.5" font-family="Helvetica,sans-Serif" font-size="10.00">_generic::visualize</text>
</a>
</g>
</g>
<!-- Node2 -->
<g id="node2" class="node">
<title>Node2</title>
<g id="a_node2"><a xlink:href="../../d2/d2c/classuxn_1_1patl_1_1impl_1_1node__generic.html#a31d507e721477bedcab98461bf54d8bb" target="_top" xlink:title="return parent node">
<polygon fill="none" stroke="black" points="160,-196.5 160,-226.5 277,-226.5 277,-196.5 160,-196.5"/>
<text text-anchor="start" x="168" y="-214.5" font-family="Helvetica,sans-Serif" font-size="10.00">uxn::patl::impl::node</text>
<text text-anchor="middle" x="218.5" y="-203.5" font-family="Helvetica,sans-Serif" font-size="10.00">_generic::get_parent</text>
</a>
</g>
</g>
<!-- Node1&#45;&gt;Node2 -->
<g id="edge1" class="edge">
<title>Node1&#45;&gt;Node2</title>
<path fill="none" stroke="midnightblue" d="M75.26,-128.55C93,-144.84 123.24,-170.74 153,-187.5 156.01,-189.19 159.15,-190.81 162.38,-192.34"/>
<polygon fill="midnightblue" stroke="midnightblue" points="161.03,-195.57 171.58,-196.45 163.88,-189.18 161.03,-195.57"/>
</g>
<!-- Node3 -->
<g id="node3" class="node">
<title>Node3</title>
<g id="a_node3"><a xlink:href="../../d2/d2c/classuxn_1_1patl_1_1impl_1_1node__generic.html#ad87bc233b9749aa28297eeeb575cd646" target="_top" xlink:title="return node id relate to parent">
<polygon fill="none" stroke="black" points="153,-147.5 153,-177.5 284,-177.5 284,-147.5 153,-147.5"/>
<text text-anchor="start" x="161" y="-165.5" font-family="Helvetica,sans-Serif" font-size="10.00">uxn::patl::impl::node</text>
<text text-anchor="middle" x="218.5" y="-154.5" font-family="Helvetica,sans-Serif" font-size="10.00">_generic::get_parent_id</text>
</a>
</g>
</g>
<!-- Node1&#45;&gt;Node3 -->
<g id="edge2" class="edge">
<title>Node1&#45;&gt;Node3</title>
<path fill="none" stroke="midnightblue" d="M108.19,-128.6C124.34,-133.61 142.47,-139.23 159.26,-144.44"/>
<polygon fill="midnightblue" stroke="midnightblue" points="158.38,-147.83 168.97,-147.45 160.45,-141.14 158.38,-147.83"/>
</g>
<!-- Node4 -->
<g id="node4" class="node">
<title>Node4</title>
<g id="a_node4"><a xlink:href="../../d2/d2c/classuxn_1_1patl_1_1impl_1_1node__generic.html#a57129afe2e1d64de450026999d065cf8" target="_top" xlink:title="return the number of distinction bit">
<polygon fill="none" stroke="black" points="160,-98.5 160,-128.5 277,-128.5 277,-98.5 160,-98.5"/>
<text text-anchor="start" x="168" y="-116.5" font-family="Helvetica,sans-Serif" font-size="10.00">uxn::patl::impl::node</text>
<text text-anchor="middle" x="218.5" y="-105.5" font-family="Helvetica,sans-Serif" font-size="10.00">_generic::get_skip</text>
</a>
</g>
</g>
<!-- Node1&#45;&gt;Node4 -->
<g id="edge3" class="edge">
<title>Node1&#45;&gt;Node4</title>
<path fill="none" stroke="midnightblue" d="M117.44,-113.5C127.91,-113.5 138.93,-113.5 149.66,-113.5"/>
<polygon fill="midnightblue" stroke="midnightblue" points="149.83,-117 159.83,-113.5 149.83,-110 149.83,-117"/>
</g>
<!-- Node5 -->
<g id="node5" class="node">
<title>Node5</title>
<g id="a_node5"><a xlink:href="../../d2/d2c/classuxn_1_1patl_1_1impl_1_1node__generic.html#a89b31e9a02d712d4ef13ded3379b46e5" target="_top" xlink:title="return child node by id">
<polygon fill="none" stroke="black" points="160,-49.5 160,-79.5 277,-79.5 277,-49.5 160,-49.5"/>
<text text-anchor="start" x="168" y="-67.5" font-family="Helvetica,sans-Serif" font-size="10.00">uxn::patl::impl::node</text>
<text text-anchor="middle" x="218.5" y="-56.5" font-family="Helvetica,sans-Serif" font-size="10.00">_generic::get_xlink</text>
</a>
</g>
</g>
<!-- Node1&#45;&gt;Node5 -->
<g id="edge4" class="edge">
<title>Node1&#45;&gt;Node5</title>
<path fill="none" stroke="midnightblue" d="M108.19,-98.4C124.34,-93.39 142.47,-87.77 159.26,-82.56"/>
<polygon fill="midnightblue" stroke="midnightblue" points="160.45,-85.86 168.97,-79.55 158.38,-79.17 160.45,-85.86"/>
</g>
<!-- Node6 -->
<g id="node6" class="node">
<title>Node6</title>
<g id="a_node6"><a xlink:href="../../d2/d2c/classuxn_1_1patl_1_1impl_1_1node__generic.html#afcde5ba4df8605af68dda6485a4f7a4c" target="_top" xlink:title="return tag of child node by id">
<polygon fill="none" stroke="black" points="160,-0.5 160,-30.5 277,-30.5 277,-0.5 160,-0.5"/>
<text text-anchor="start" x="168" y="-18.5" font-family="Helvetica,sans-Serif" font-size="10.00">uxn::patl::impl::node</text>
<text text-anchor="middle" x="218.5" y="-7.5" font-family="Helvetica,sans-Serif" font-size="10.00">_generic::get_xtag</text>
</a>
</g>
</g>
<!-- Node1&#45;&gt;Node6 -->
<g id="edge5" class="edge">
<title>Node1&#45;&gt;Node6</title>
<path fill="none" stroke="midnightblue" d="M75.67,-98.45C93.52,-82.44 123.63,-57.17 153,-40.5 156.48,-38.52 160.16,-36.64 163.91,-34.85"/>
<polygon fill="midnightblue" stroke="midnightblue" points="165.64,-37.91 173.33,-30.62 162.77,-31.52 165.64,-37.91"/>
</g>
</g>
</svg>
