<?xml version="1.0" encoding="UTF-8" standalone="no"?>
<!DOCTYPE svg PUBLIC "-//W3C//DTD SVG 1.1//EN"
 "http://www.w3.org/Graphics/SVG/1.1/DTD/svg11.dtd">
<!-- Generated by graphviz version 5.0.1 (20220820.1526)
 -->
<!-- Title: uxn::patl::impl::node_generic::get_xlink Pages: 1 -->
<svg width="278pt" height="186pt"
 viewBox="0.00 0.00 278.00 186.00" xmlns="http://www.w3.org/2000/svg" xmlns:xlink="http://www.w3.org/1999/xlink">
<g id="graph0" class="graph" transform="scale(1 1) rotate(0) translate(4 182)">
<title>uxn::patl::impl::node_generic::get_xlink</title>
<!-- Node1 -->
<g id="node1" class="node">
<title>Node1</title>
<g id="a_node1"><a xlink:title="return child node by id">
<polygon fill="#bfbfbf" stroke="black" points="153,-73.5 153,-103.5 270,-103.5 270,-73.5 153,-73.5"/>
<text text-anchor="start" x="161" y="-91.5" font-family="Helvetica,sans-Serif" font-size="10.00">uxn::patl::impl::node</text>
<text text-anchor="middle" x="211.5" y="-80.5" font-family="Helvetica,sans-Serif" font-size="10.00">_generic::get_xlink</text>
</a>
</g>
</g>
<!-- Node2 -->
<g id="node2" class="node">
<title>Node2</title>
<g id="a_node2"><a xlink:href="../../d2/d2c/classuxn_1_1patl_1_1impl_1_1node__generic.html#ad625f63177dd8a4257b07e66af42a244" target="_top" xlink:title="for debug only">
<polygon fill="none" stroke="black" points="0,-147.5 0,-177.5 117,-177.5 117,-147.5 0,-147.5"/>
<text text-anchor="start" x="8" y="-165.5" font-family="Helvetica,sans-Serif" font-size="10.00">uxn::patl::impl::node</text>
<text text-anchor="middle" x="58.5" y="-154.5" font-family="Helvetica,sans-Serif" font-size="10.00">_generic::integrity</text>
</a>
</g>
</g>
<!-- Node1&#45;&gt;Node2 -->
<g id="edge1" class="edge">
<title>Node1&#45;&gt;Node2</title>
<path fill="none" stroke="midnightblue" d="M174.7,-108.68C157.45,-118.13 136.36,-129.31 117,-138.5 110.65,-141.52 103.81,-144.55 97.15,-147.39"/>
<polygon fill="midnightblue" stroke="midnightblue" points="176.78,-111.53 183.84,-103.63 173.4,-105.4 176.78,-111.53"/>
</g>
<!-- Node3 -->
<g id="node3" class="node">
<title>Node3</title>
<g id="a_node3"><a xlink:href="../../d2/d2c/classuxn_1_1patl_1_1impl_1_1node__generic.html#ac00849f2068879a9c9d2b4825e1d6de0" target="_top" xlink:title="change the root">
<polygon fill="none" stroke="black" points="0,-98.5 0,-128.5 117,-128.5 117,-98.5 0,-98.5"/>
<text text-anchor="start" x="8" y="-116.5" font-family="Helvetica,sans-Serif" font-size="10.00">uxn::patl::impl::node</text>
<text text-anchor="middle" x="58.5" y="-105.5" font-family="Helvetica,sans-Serif" font-size="10.00">_generic::make_root</text>
</a>
</g>
</g>
<!-- Node1&#45;&gt;Node3 -->
<g id="edge2" class="edge">
<title>Node1&#45;&gt;Node3</title>
<path fill="none" stroke="midnightblue" d="M142.95,-99.68C134.32,-101.11 125.56,-102.56 117.11,-103.96"/>
<polygon fill="midnightblue" stroke="midnightblue" points="143.69,-103.11 152.98,-98.02 142.55,-96.2 143.69,-103.11"/>
</g>
<!-- Node4 -->
<g id="node4" class="node">
<title>Node4</title>
<g id="a_node4"><a xlink:href="../../d2/d2c/classuxn_1_1patl_1_1impl_1_1node__generic.html#a14a329e3425585a127c6b21eddd24bdb" target="_top" xlink:title=" ">
<polygon fill="none" stroke="black" points="0,-49.5 0,-79.5 117,-79.5 117,-49.5 0,-49.5"/>
<text text-anchor="start" x="8" y="-67.5" font-family="Helvetica,sans-Serif" font-size="10.00">uxn::patl::impl::node</text>
<text text-anchor="middle" x="58.5" y="-56.5" font-family="Helvetica,sans-Serif" font-size="10.00">_generic::realloc</text>
</a>
</g>
</g>
<!-- Node1&#45;&gt;Node4 -->
<g id="edge3" class="edge">
<title>Node1&#45;&gt;Node4</title>
<path fill="none" stroke="midnightblue" d="M142.95,-77.76C134.32,-76.39 125.56,-75 117.11,-73.66"/>
<polygon fill="midnightblue" stroke="midnightblue" points="142.56,-81.24 152.98,-79.36 143.66,-74.33 142.56,-81.24"/>
</g>
<!-- Node5 -->
<g id="node5" class="node">
<title>Node5</title>
<g id="a_node5"><a xlink:href="../../d2/d2c/classuxn_1_1patl_1_1impl_1_1node__generic.html#a9ce80b6e7ccc88d8e96d0f85f1117cf5" target="_top" xlink:title="for debug only">
<polygon fill="none" stroke="black" points="0,-0.5 0,-30.5 117,-30.5 117,-0.5 0,-0.5"/>
<text text-anchor="start" x="8" y="-18.5" font-family="Helvetica,sans-Serif" font-size="10.00">uxn::patl::impl::node</text>
<text text-anchor="middle" x="58.5" y="-7.5" font-family="Helvetica,sans-Serif" font-size="10.00">_generic::visualize</text>
</a>
</g>
</g>
<!-- Node1&#45;&gt;Node5 -->
<g id="edge4" class="edge">
<title>Node1&#45;&gt;Node5</title>
<path fill="none" stroke="midnightblue" d="M173.04,-68.57C156.06,-59.72 135.65,-49.33 117,-40.5 110.01,-37.19 102.48,-33.8 95.24,-30.62"/>
<polygon fill="midnightblue" stroke="midnightblue" points="171.61,-71.78 182.09,-73.32 174.86,-65.57 171.61,-71.78"/>
</g>
</g>
</svg>
