<?xml version="1.0" encoding="UTF-8" standalone="no"?>
<!DOCTYPE svg PUBLIC "-//W3C//DTD SVG 1.1//EN"
 "http://www.w3.org/Graphics/SVG/1.1/DTD/svg11.dtd">
<!-- Generated by graphviz version 5.0.1 (20220820.1526)
 -->
<!-- Title: uxn::patl::impl::node_generic::realloc Pages: 1 -->
<svg width="292pt" height="284pt"
 viewBox="0.00 0.00 292.00 284.00" xmlns="http://www.w3.org/2000/svg" xmlns:xlink="http://www.w3.org/1999/xlink">
<g id="graph0" class="graph" transform="scale(1 1) rotate(0) translate(4 280)">
<title>uxn::patl::impl::node_generic::realloc</title>
<!-- Node1 -->
<g id="node1" class="node">
<title>Node1</title>
<g id="a_node1"><a xlink:title=" ">
<polygon fill="#bfbfbf" stroke="black" points="0,-122.5 0,-152.5 117,-152.5 117,-122.5 0,-122.5"/>
<text text-anchor="start" x="8" y="-140.5" font-family="Helvetica,sans-Serif" font-size="10.00">uxn::patl::impl::node</text>
<text text-anchor="middle" x="58.5" y="-129.5" font-family="Helvetica,sans-Serif" font-size="10.00">_generic::realloc</text>
</a>
</g>
</g>
<!-- Node2 -->
<g id="node2" class="node">
<title>Node2</title>
<g id="a_node2"><a xlink:href="../../d2/d2c/classuxn_1_1patl_1_1impl_1_1node__generic.html#a31d507e721477bedcab98461bf54d8bb" target="_top" xlink:title="return parent node">
<polygon fill="none" stroke="black" points="160,-245.5 160,-275.5 277,-275.5 277,-245.5 160,-245.5"/>
<text text-anchor="start" x="168" y="-263.5" font-family="Helvetica,sans-Serif" font-size="10.00">uxn::patl::impl::node</text>
<text text-anchor="middle" x="218.5" y="-252.5" font-family="Helvetica,sans-Serif" font-size="10.00">_generic::get_parent</text>
</a>
</g>
</g>
<!-- Node1&#45;&gt;Node2 -->
<g id="edge1" class="edge">
<title>Node1&#45;&gt;Node2</title>
<path fill="none" stroke="midnightblue" d="M70.21,-152.64C86.06,-174.04 117.72,-213.13 153,-236.5 155.38,-238.08 157.88,-239.57 160.45,-240.98"/>
<polygon fill="midnightblue" stroke="midnightblue" points="158.92,-244.12 169.43,-245.45 162.04,-237.86 158.92,-244.12"/>
</g>
<!-- Node3 -->
<g id="node3" class="node">
<title>Node3</title>
<g id="a_node3"><a xlink:href="../../d2/d2c/classuxn_1_1patl_1_1impl_1_1node__generic.html#ad87bc233b9749aa28297eeeb575cd646" target="_top" xlink:title="return node id relate to parent">
<polygon fill="none" stroke="black" points="153,-196.5 153,-226.5 284,-226.5 284,-196.5 153,-196.5"/>
<text text-anchor="start" x="161" y="-214.5" font-family="Helvetica,sans-Serif" font-size="10.00">uxn::patl::impl::node</text>
<text text-anchor="middle" x="218.5" y="-203.5" font-family="Helvetica,sans-Serif" font-size="10.00">_generic::get_parent_id</text>
</a>
</g>
</g>
<!-- Node1&#45;&gt;Node3 -->
<g id="edge2" class="edge">
<title>Node1&#45;&gt;Node3</title>
<path fill="none" stroke="midnightblue" d="M85.62,-152.69C104.11,-163.14 129.67,-176.98 153,-187.5 156.86,-189.24 160.89,-190.96 164.96,-192.63"/>
<polygon fill="midnightblue" stroke="midnightblue" points="163.91,-195.98 174.5,-196.42 166.5,-189.47 163.91,-195.98"/>
</g>
<!-- Node4 -->
<g id="node4" class="node">
<title>Node4</title>
<g id="a_node4"><a xlink:href="../../d2/d2c/classuxn_1_1patl_1_1impl_1_1node__generic.html#a89b31e9a02d712d4ef13ded3379b46e5" target="_top" xlink:title="return child node by id">
<polygon fill="none" stroke="black" points="160,-147.5 160,-177.5 277,-177.5 277,-147.5 160,-147.5"/>
<text text-anchor="start" x="168" y="-165.5" font-family="Helvetica,sans-Serif" font-size="10.00">uxn::patl::impl::node</text>
<text text-anchor="middle" x="218.5" y="-154.5" font-family="Helvetica,sans-Serif" font-size="10.00">_generic::get_xlink</text>
</a>
</g>
</g>
<!-- Node1&#45;&gt;Node4 -->
<g id="edge3" class="edge">
<title>Node1&#45;&gt;Node4</title>
<path fill="none" stroke="midnightblue" d="M117.44,-146.67C127.91,-148.33 138.93,-150.07 149.66,-151.77"/>
<polygon fill="midnightblue" stroke="midnightblue" points="149.41,-155.27 159.83,-153.38 150.5,-148.36 149.41,-155.27"/>
</g>
<!-- Node5 -->
<g id="node5" class="node">
<title>Node5</title>
<g id="a_node5"><a xlink:href="../../d2/d2c/classuxn_1_1patl_1_1impl_1_1node__generic.html#afcde5ba4df8605af68dda6485a4f7a4c" target="_top" xlink:title="return tag of child node by id">
<polygon fill="none" stroke="black" points="160,-98.5 160,-128.5 277,-128.5 277,-98.5 160,-98.5"/>
<text text-anchor="start" x="168" y="-116.5" font-family="Helvetica,sans-Serif" font-size="10.00">uxn::patl::impl::node</text>
<text text-anchor="middle" x="218.5" y="-105.5" font-family="Helvetica,sans-Serif" font-size="10.00">_generic::get_xtag</text>
</a>
</g>
</g>
<!-- Node1&#45;&gt;Node5 -->
<g id="edge4" class="edge">
<title>Node1&#45;&gt;Node5</title>
<path fill="none" stroke="midnightblue" d="M117.44,-128.7C127.91,-127.11 138.93,-125.44 149.66,-123.81"/>
<polygon fill="midnightblue" stroke="midnightblue" points="150.47,-127.22 159.83,-122.26 149.42,-120.3 150.47,-127.22"/>
</g>
<!-- Node6 -->
<g id="node6" class="node">
<title>Node6</title>
<g id="a_node6"><a xlink:href="../../d2/d2c/classuxn_1_1patl_1_1impl_1_1node__generic.html#ad6d1ca9258bfe3526bf08b619adf4c8d" target="_top" xlink:title="set parent info">
<polygon fill="none" stroke="black" points="156,-49.5 156,-79.5 281,-79.5 281,-49.5 156,-49.5"/>
<text text-anchor="start" x="164" y="-67.5" font-family="Helvetica,sans-Serif" font-size="10.00">uxn::patl::impl::node</text>
<text text-anchor="middle" x="218.5" y="-56.5" font-family="Helvetica,sans-Serif" font-size="10.00">_generic::set_parentid</text>
</a>
</g>
</g>
<!-- Node1&#45;&gt;Node6 -->
<g id="edge5" class="edge">
<title>Node1&#45;&gt;Node6</title>
<path fill="none" stroke="midnightblue" d="M86.95,-122.45C105.39,-112.58 130.36,-99.66 153,-89.5 157.61,-87.43 162.44,-85.37 167.3,-83.36"/>
<polygon fill="midnightblue" stroke="midnightblue" points="168.67,-86.59 176.63,-79.6 166.05,-80.1 168.67,-86.59"/>
</g>
<!-- Node7 -->
<g id="node7" class="node">
<title>Node7</title>
<g id="a_node7"><a xlink:href="../../d2/d2c/classuxn_1_1patl_1_1impl_1_1node__generic.html#a656e982c02f72e2ed752228793358c9c" target="_top" xlink:title="set child info by id">
<polygon fill="none" stroke="black" points="156.5,-0.5 156.5,-30.5 280.5,-30.5 280.5,-0.5 156.5,-0.5"/>
<text text-anchor="start" x="164.5" y="-18.5" font-family="Helvetica,sans-Serif" font-size="10.00">uxn::patl::impl::node</text>
<text text-anchor="middle" x="218.5" y="-7.5" font-family="Helvetica,sans-Serif" font-size="10.00">_generic::set_xlinktag</text>
</a>
</g>
</g>
<!-- Node1&#45;&gt;Node7 -->
<g id="edge6" class="edge">
<title>Node1&#45;&gt;Node7</title>
<path fill="none" stroke="midnightblue" d="M70.59,-122.39C86.67,-101.44 118.33,-63.55 153,-40.5 155.89,-38.58 158.94,-36.78 162.1,-35.08"/>
<polygon fill="midnightblue" stroke="midnightblue" points="163.74,-38.18 171.16,-30.62 160.65,-31.9 163.74,-38.18"/>
</g>
</g>
</svg>
