<?xml version="1.0" encoding="UTF-8" standalone="no"?>
<!DOCTYPE svg PUBLIC "-//W3C//DTD SVG 1.1//EN"
 "http://www.w3.org/Graphics/SVG/1.1/DTD/svg11.dtd">
<!-- Generated by graphviz version 5.0.1 (20220820.1526)
 -->
<!-- Title: uxn/patl/patricia_dot_creator.hpp Pages: 1 -->
<svg width="309pt" height="95pt"
 viewBox="0.00 0.00 308.50 95.00" xmlns="http://www.w3.org/2000/svg" xmlns:xlink="http://www.w3.org/1999/xlink">
<g id="graph0" class="graph" transform="scale(1 1) rotate(0) translate(4 91)">
<title>uxn/patl/patricia_dot_creator.hpp</title>
<!-- Node1 -->
<g id="node1" class="node">
<title>Node1</title>
<g id="a_node1"><a xlink:title=" ">
<polygon fill="#bfbfbf" stroke="black" points="138,-56.5 138,-86.5 255,-86.5 255,-56.5 138,-56.5"/>
<text text-anchor="start" x="146" y="-74.5" font-family="Helvetica,sans-Serif" font-size="10.00">uxn/patl/patricia_dot</text>
<text text-anchor="middle" x="196.5" y="-63.5" font-family="Helvetica,sans-Serif" font-size="10.00">_creator.hpp</text>
</a>
</g>
</g>
<!-- Node2 -->
<g id="node2" class="node">
<title>Node2</title>
<g id="a_node2"><a xlink:href="../../d0/d4e/patricia__dot__base_8hpp.html" target="_top" xlink:title=" ">
<polygon fill="none" stroke="black" points="0,-0.5 0,-19.5 149,-19.5 149,-0.5 0,-0.5"/>
<text text-anchor="middle" x="74.5" y="-7.5" font-family="Helvetica,sans-Serif" font-size="10.00">impl/patricia_dot_base.hpp</text>
</a>
</g>
</g>
<!-- Node1&#45;&gt;Node2 -->
<g id="edge1" class="edge">
<title>Node1&#45;&gt;Node2</title>
<path fill="none" stroke="midnightblue" d="M167.59,-56.4C147.48,-46.59 120.88,-33.62 101.26,-24.05"/>
<polygon fill="midnightblue" stroke="midnightblue" points="102.77,-20.9 92.25,-19.66 99.71,-27.19 102.77,-20.9"/>
</g>
<!-- Node3 -->
<g id="node3" class="node">
<title>Node3</title>
<g id="a_node3"><a xlink:title=" ">
<polygon fill="none" stroke="#bfbfbf" points="166.5,-0.5 166.5,-19.5 226.5,-19.5 226.5,-0.5 166.5,-0.5"/>
<text text-anchor="middle" x="196.5" y="-7.5" font-family="Helvetica,sans-Serif" font-size="10.00">iostream</text>
</a>
</g>
</g>
<!-- Node1&#45;&gt;Node3 -->
<g id="edge2" class="edge">
<title>Node1&#45;&gt;Node3</title>
<path fill="none" stroke="midnightblue" d="M196.5,-56.4C196.5,-48.47 196.5,-38.46 196.5,-29.86"/>
<polygon fill="midnightblue" stroke="midnightblue" points="200,-29.66 196.5,-19.66 193,-29.66 200,-29.66"/>
</g>
<!-- Node4 -->
<g id="node4" class="node">
<title>Node4</title>
<g id="a_node4"><a xlink:title=" ">
<polygon fill="none" stroke="#bfbfbf" points="244.5,-0.5 244.5,-19.5 300.5,-19.5 300.5,-0.5 244.5,-0.5"/>
<text text-anchor="middle" x="272.5" y="-7.5" font-family="Helvetica,sans-Serif" font-size="10.00">iomanip</text>
</a>
</g>
</g>
<!-- Node1&#45;&gt;Node4 -->
<g id="edge3" class="edge">
<title>Node1&#45;&gt;Node4</title>
<path fill="none" stroke="midnightblue" d="M214.51,-56.4C226.24,-47.22 241.52,-35.26 253.44,-25.92"/>
<polygon fill="midnightblue" stroke="midnightblue" points="255.72,-28.58 261.44,-19.66 251.41,-23.07 255.72,-28.58"/>
</g>
</g>
</svg>
