<?xml version="1.0" encoding="UTF-8" standalone="no"?>
<!DOCTYPE svg PUBLIC "-//W3C//DTD SVG 1.1//EN"
 "http://www.w3.org/Graphics/SVG/1.1/DTD/svg11.dtd">
<!-- Generated by graphviz version 5.0.1 (20220820.1526)
 -->
<!-- Title: uxn::patl::unordered_map&lt; Key, Datum, HashFun, Pred, Alloc &gt;::iterator Pages: 1 -->
<!--zoomable 926 -->
<svg id="main" version="1.1" xmlns="http://www.w3.org/2000/svg" xmlns:xlink="http://www.w3.org/1999/xlink" xml:space="preserve" onload="init(evt)">
<style type="text/css"><![CDATA[
.edge:hover path { stroke: red; }
.edge:hover polygon { stroke: red; fill: red; }
]]></style>
<script type="text/javascript"><![CDATA[
var edges = document.getElementsByTagName('g');
if (edges && edges.length) {
  for (var i=0;i<edges.length;i++) {
    if (edges[i].id.substr(0,4)=='edge') {
      edges[i].setAttribute('class','edge');
    }
  }
}
]]></script>
        <defs>
                <circle id="rim" cx="0" cy="0" r="7"/>
                <circle id="rim2" cx="0" cy="0" r="3.5"/>
                <g id="zoomPlus">
                        <use xlink:href="#rim" fill="#404040">
                                <set attributeName="fill" to="#808080" begin="zoomplus.mouseover" end="zoomplus.mouseout"/>
                        </use>
                        <path d="M-4,0h8M0,-4v8" fill="none" stroke="white" stroke-width="1.5" pointer-events="none"/>
                </g>
                <g id="zoomMin">
                        <use xlink:href="#rim" fill="#404040">
                                <set attributeName="fill" to="#808080" begin="zoomminus.mouseover" end="zoomminus.mouseout"/>
                        </use>
                        <path d="M-4,0h8" fill="none" stroke="white" stroke-width="1.5" pointer-events="none"/>
                </g>
                <g id="dirArrow">
                        <path fill="none" stroke="white" stroke-width="1.5" d="M0,-3.0v7 M-2.5,-0.5L0,-3.0L2.5,-0.5"/>
                </g>
               <g id="resetDef">
                       <use xlink:href="#rim2" fill="#404040">
                               <set attributeName="fill" to="#808080" begin="reset.mouseover" end="reset.mouseout"/>
                       </use>
               </g>
        </defs>

<script type="text/javascript">
var viewWidth = 522;
var viewHeight = 926;
var sectionId = 'dynsection-0';
</script>
<script xlink:href="../../svgpan.js"/>
<svg id="graph" class="graph">
<g id="viewport">
<title>uxn::patl::unordered_map&lt; Key, Datum, HashFun, Pred, Alloc &gt;::iterator</title>
<!-- Node1 -->
<g id="node1" class="node">
<title>Node1</title>
<g id="a_node1"><a xlink:title=" ">
<polygon fill="#bfbfbf" stroke="black" points="162,-0.5 162,-90.5 325,-90.5 325,-0.5 162,-0.5"/>
<text text-anchor="start" x="170" y="-78.5" font-family="Helvetica,sans-Serif" font-size="10.00">uxn::patl::unordered</text>
<text text-anchor="start" x="170" y="-67.5" font-family="Helvetica,sans-Serif" font-size="10.00">_map&lt; Key, Datum, HashFun,</text>
<text text-anchor="middle" x="243.5" y="-56.5" font-family="Helvetica,sans-Serif" font-size="10.00"> Pred, Alloc &gt;::iterator</text>
<polyline fill="none" stroke="black" points="162,-49.5 325,-49.5"/>
<text text-anchor="start" x="170" y="-37.5" font-family="Helvetica,sans-Serif" font-size="10.00">&#45; value_type * current_</text>
<text text-anchor="start" x="170" y="-26.5" font-family="Helvetica,sans-Serif" font-size="10.00">&#45; word_t index_</text>
<polyline fill="none" stroke="black" points="162,-19.5 325,-19.5"/>
<text text-anchor="middle" x="243.5" y="-7.5" font-family="Helvetica,sans-Serif" font-size="10.00"> </text>
</a>
</g>
</g>
<!-- Node2 -->
<g id="node2" class="node">
<title>Node2</title>
<g id="a_node2"><a xlink:href="../../d8/d99/classuxn_1_1patl_1_1unordered__map.html" target="_top" xlink:title=" ">
<polygon fill="none" stroke="black" points="160,-138.5 160,-415.5 327,-415.5 327,-138.5 160,-138.5"/>
<text text-anchor="start" x="168" y="-403.5" font-family="Helvetica,sans-Serif" font-size="10.00">uxn::patl::unordered</text>
<text text-anchor="start" x="168" y="-392.5" font-family="Helvetica,sans-Serif" font-size="10.00">_map&lt; Key, Datum, HashFun,</text>
<text text-anchor="middle" x="243.5" y="-381.5" font-family="Helvetica,sans-Serif" font-size="10.00"> Pred, Alloc &gt;</text>
<polyline fill="none" stroke="black" points="160,-374.5 327,-374.5"/>
<text text-anchor="start" x="168" y="-362.5" font-family="Helvetica,sans-Serif" font-size="10.00">&#45; hasher hf_</text>
<text text-anchor="start" x="168" y="-351.5" font-family="Helvetica,sans-Serif" font-size="10.00">&#45; key_equal eql_</text>
<text text-anchor="start" x="168" y="-340.5" font-family="Helvetica,sans-Serif" font-size="10.00">&#45; word_t size_</text>
<text text-anchor="start" x="168" y="-329.5" font-family="Helvetica,sans-Serif" font-size="10.00">&#45; word_t free_size_</text>
<text text-anchor="start" x="168" y="-318.5" font-family="Helvetica,sans-Serif" font-size="10.00">&#45; word_t free_list_</text>
<polyline fill="none" stroke="black" points="160,-311.5 327,-311.5"/>
<text text-anchor="start" x="168" y="-299.5" font-family="Helvetica,sans-Serif" font-size="10.00">+ unordered_map(word</text>
<text text-anchor="start" x="168" y="-288.5" font-family="Helvetica,sans-Serif" font-size="10.00">_t capacity=0, const</text>
<text text-anchor="start" x="168" y="-277.5" font-family="Helvetica,sans-Serif" font-size="10.00"> hasher &amp;hf=hasher(),</text>
<text text-anchor="start" x="168" y="-266.5" font-family="Helvetica,sans-Serif" font-size="10.00"> const key_equal &amp;eql</text>
<text text-anchor="start" x="168" y="-255.5" font-family="Helvetica,sans-Serif" font-size="10.00">=key_equal(), const allocator</text>
<text text-anchor="start" x="168" y="-244.5" font-family="Helvetica,sans-Serif" font-size="10.00">_type &amp;alloc=allocator_type())</text>
<text text-anchor="start" x="168" y="-233.5" font-family="Helvetica,sans-Serif" font-size="10.00">+ bool empty() const</text>
<text text-anchor="start" x="168" y="-222.5" font-family="Helvetica,sans-Serif" font-size="10.00">+ word_t size() const</text>
<text text-anchor="start" x="168" y="-211.5" font-family="Helvetica,sans-Serif" font-size="10.00">+ void clear()</text>
<text text-anchor="start" x="168" y="-200.5" font-family="Helvetica,sans-Serif" font-size="10.00">+ mapped_type &amp; operator</text>
<text text-anchor="start" x="168" y="-189.5" font-family="Helvetica,sans-Serif" font-size="10.00">[](const key_type &amp;key)</text>
<text text-anchor="start" x="168" y="-178.5" font-family="Helvetica,sans-Serif" font-size="10.00">+ size_type erase(const</text>
<text text-anchor="start" x="168" y="-167.5" font-family="Helvetica,sans-Serif" font-size="10.00"> key_type &amp;key)</text>
<text text-anchor="start" x="168" y="-156.5" font-family="Helvetica,sans-Serif" font-size="10.00">&#45; void init(word_t capacity)</text>
<text text-anchor="start" x="168" y="-145.5" font-family="Helvetica,sans-Serif" font-size="10.00">&#45; void resize()</text>
</a>
</g>
</g>
<!-- Node2&#45;&gt;Node1 -->
<g id="edge1" class="edge">
<title>Node2&#45;&gt;Node1</title>
<path fill="none" stroke="#404040" d="M243.5,-138.19C243.5,-125.74 243.5,-113.67 243.5,-102.6"/>
<polygon fill="none" stroke="#404040" points="243.5,-102.55 239.5,-96.55 243.5,-90.55 247.5,-96.55 243.5,-102.55"/>
<text text-anchor="middle" x="260.5" y="-112" font-family="Helvetica,sans-Serif" font-size="10.00"> &#45;cont_</text>
</g>
<!-- Node3 -->
<g id="node3" class="node">
<title>Node3</title>
<g id="a_node3"><a xlink:title=" ">
<polygon fill="none" stroke="black" points="0,-463.5 0,-542.5 161,-542.5 161,-463.5 0,-463.5"/>
<text text-anchor="start" x="8" y="-530.5" font-family="Helvetica,sans-Serif" font-size="10.00">std::allocator&lt; std</text>
<text text-anchor="middle" x="80.5" y="-519.5" font-family="Helvetica,sans-Serif" font-size="10.00">::pair&lt; const Key, Datum &gt; &gt;</text>
<polyline fill="none" stroke="black" points="0,-512.5 161,-512.5"/>
<text text-anchor="start" x="8" y="-500.5" font-family="Helvetica,sans-Serif" font-size="10.00">+ std::pair&lt; const Key,</text>
<text text-anchor="start" x="8" y="-489.5" font-family="Helvetica,sans-Serif" font-size="10.00"> Datum &gt; elements</text>
<polyline fill="none" stroke="black" points="0,-482.5 161,-482.5"/>
<text text-anchor="middle" x="80.5" y="-470.5" font-family="Helvetica,sans-Serif" font-size="10.00"> </text>
</a>
</g>
</g>
<!-- Node3&#45;&gt;Node2 -->
<g id="edge2" class="edge">
<title>Node3&#45;&gt;Node2</title>
<path fill="none" stroke="#404040" d="M108.52,-463.49C121.05,-446.28 136.59,-424.91 152.63,-402.87"/>
<polygon fill="none" stroke="#404040" points="152.71,-402.76 153.01,-395.56 159.77,-393.06 159.48,-400.26 152.71,-402.76"/>
<text text-anchor="middle" x="147.5" y="-437" font-family="Helvetica,sans-Serif" font-size="10.00"> &#45;alloc_</text>
</g>
<!-- Node4 -->
<g id="node4" class="node">
<title>Node4</title>
<g id="a_node4"><a xlink:title=" ">
<polygon fill="none" stroke="black" points="57,-678.5 57,-735.5 166,-735.5 166,-678.5 57,-678.5"/>
<text text-anchor="middle" x="111.5" y="-723.5" font-family="Helvetica,sans-Serif" font-size="10.00">std::allocator&lt; T &gt;</text>
<polyline fill="none" stroke="black" points="57,-716.5 166,-716.5"/>
<text text-anchor="middle" x="111.5" y="-704.5" font-family="Helvetica,sans-Serif" font-size="10.00"> </text>
<polyline fill="none" stroke="black" points="57,-697.5 166,-697.5"/>
<text text-anchor="middle" x="111.5" y="-685.5" font-family="Helvetica,sans-Serif" font-size="10.00"> </text>
</a>
</g>
</g>
<!-- Node4&#45;&gt;Node3 -->
<g id="edge3" class="edge">
<title>Node4&#45;&gt;Node3</title>
<path fill="none" stroke="orange" d="M105.71,-668.28C100.22,-632.47 91.99,-578.87 86.44,-542.73"/>
<polygon fill="orange" stroke="orange" points="102.28,-668.98 107.25,-678.34 109.2,-667.92 102.28,-668.98"/>
<text text-anchor="start" x="92.5" y="-575" font-family="Helvetica,sans-Serif" font-size="10.00"> &lt; std::pair&lt; const</text>
<text text-anchor="middle" x="138.5" y="-564" font-family="Helvetica,sans-Serif" font-size="10.00"> Key, Datum &gt; &gt;</text>
</g>
<!-- Node5 -->
<g id="node5" class="node">
<title>Node5</title>
<g id="a_node5"><a xlink:title=" ">
<polygon fill="none" stroke="black" points="157,-860.5 157,-917.5 186,-917.5 186,-860.5 157,-860.5"/>
<text text-anchor="middle" x="171.5" y="-905.5" font-family="Helvetica,sans-Serif" font-size="10.00">T</text>
<polyline fill="none" stroke="black" points="157,-898.5 186,-898.5"/>
<text text-anchor="middle" x="171.5" y="-886.5" font-family="Helvetica,sans-Serif" font-size="10.00"> </text>
<polyline fill="none" stroke="black" points="157,-879.5 186,-879.5"/>
<text text-anchor="middle" x="171.5" y="-867.5" font-family="Helvetica,sans-Serif" font-size="10.00"> </text>
</a>
</g>
</g>
<!-- Node5&#45;&gt;Node4 -->
<g id="edge4" class="edge">
<title>Node5&#45;&gt;Node4</title>
<path fill="none" stroke="#404040" d="M156.96,-868.19C151.77,-860.35 146.28,-851.06 142.5,-842 129.81,-811.56 121.79,-774.96 117.09,-747.7"/>
<polygon fill="none" stroke="#404040" points="117.04,-747.36 112.13,-742.09 115.11,-735.52 120.02,-740.8 117.04,-747.36"/>
<text text-anchor="middle" x="171.5" y="-834" font-family="Helvetica,sans-Serif" font-size="10.00"> +elements</text>
</g>
<!-- Node7 -->
<g id="node7" class="node">
<title>Node7</title>
<g id="a_node7"><a xlink:title=" ">
<polygon fill="none" stroke="black" points="189,-678.5 189,-735.5 286,-735.5 286,-678.5 189,-678.5"/>
<text text-anchor="middle" x="237.5" y="-723.5" font-family="Helvetica,sans-Serif" font-size="10.00">std::vector&lt; T &gt;</text>
<polyline fill="none" stroke="black" points="189,-716.5 286,-716.5"/>
<text text-anchor="middle" x="237.5" y="-704.5" font-family="Helvetica,sans-Serif" font-size="10.00"> </text>
<polyline fill="none" stroke="black" points="189,-697.5 286,-697.5"/>
<text text-anchor="middle" x="237.5" y="-685.5" font-family="Helvetica,sans-Serif" font-size="10.00"> </text>
</a>
</g>
</g>
<!-- Node5&#45;&gt;Node7 -->
<g id="edge7" class="edge">
<title>Node5&#45;&gt;Node7</title>
<path fill="none" stroke="#404040" d="M186.13,-867.65C191.21,-859.9 196.61,-850.81 200.5,-842 213.99,-811.46 223.7,-774.81 229.78,-747.56"/>
<polygon fill="none" stroke="#404040" points="229.8,-747.49 227.15,-740.78 232.32,-735.76 234.97,-742.46 229.8,-747.49"/>
<text text-anchor="middle" x="234.5" y="-834" font-family="Helvetica,sans-Serif" font-size="10.00"> +elements</text>
</g>
<!-- Node6 -->
<g id="node6" class="node">
<title>Node6</title>
<g id="a_node6"><a xlink:title=" ">
<polygon fill="none" stroke="black" points="179,-474.5 179,-531.5 308,-531.5 308,-474.5 179,-474.5"/>
<text text-anchor="middle" x="243.5" y="-519.5" font-family="Helvetica,sans-Serif" font-size="10.00">std::vector&lt; sword_t &gt;</text>
<polyline fill="none" stroke="black" points="179,-512.5 308,-512.5"/>
<text text-anchor="start" x="187" y="-500.5" font-family="Helvetica,sans-Serif" font-size="10.00">+ sword_t elements</text>
<polyline fill="none" stroke="black" points="179,-493.5 308,-493.5"/>
<text text-anchor="middle" x="243.5" y="-481.5" font-family="Helvetica,sans-Serif" font-size="10.00"> </text>
</a>
</g>
</g>
<!-- Node6&#45;&gt;Node2 -->
<g id="edge5" class="edge">
<title>Node6&#45;&gt;Node2</title>
<path fill="none" stroke="#404040" d="M243.5,-474.08C243.5,-461.35 243.5,-445.2 243.5,-427.65"/>
<polygon fill="none" stroke="#404040" points="243.5,-427.62 239.5,-421.62 243.5,-415.62 247.5,-421.62 243.5,-427.62"/>
<text text-anchor="middle" x="268.5" y="-437" font-family="Helvetica,sans-Serif" font-size="10.00"> &#45;buckets_</text>
</g>
<!-- Node7&#45;&gt;Node6 -->
<g id="edge6" class="edge">
<title>Node7&#45;&gt;Node6</title>
<path fill="none" stroke="orange" d="M236.93,-668.26C236.69,-638.98 236.78,-597.39 238.5,-561 238.95,-551.37 239.78,-540.86 240.64,-531.51"/>
<polygon fill="orange" stroke="orange" points="233.43,-668.49 237.03,-678.45 240.43,-668.42 233.43,-668.49"/>
<text text-anchor="middle" x="270.5" y="-569.5" font-family="Helvetica,sans-Serif" font-size="10.00"> &lt; sword_t &gt;</text>
</g>
<!-- Node8 -->
<g id="node8" class="node">
<title>Node8</title>
<g id="a_node8"><a xlink:title=" ">
<polygon fill="none" stroke="black" points="326.5,-469 326.5,-537 448.5,-537 448.5,-469 326.5,-469"/>
<text text-anchor="start" x="334.5" y="-525" font-family="Helvetica,sans-Serif" font-size="10.00">std::vector&lt; uxn::patl</text>
<text text-anchor="middle" x="387.5" y="-514" font-family="Helvetica,sans-Serif" font-size="10.00">::impl::hash_node &gt;</text>
<polyline fill="none" stroke="black" points="326.5,-507 448.5,-507"/>
<text text-anchor="middle" x="387.5" y="-495" font-family="Helvetica,sans-Serif" font-size="10.00"> </text>
<polyline fill="none" stroke="black" points="326.5,-488 448.5,-488"/>
<text text-anchor="middle" x="387.5" y="-476" font-family="Helvetica,sans-Serif" font-size="10.00"> </text>
</a>
</g>
</g>
<!-- Node7&#45;&gt;Node8 -->
<g id="edge10" class="edge">
<title>Node7&#45;&gt;Node8</title>
<path fill="none" stroke="orange" d="M254.47,-669.28C269.61,-638.6 293.67,-594.6 321.5,-561 328.36,-552.72 336.49,-544.65 344.66,-537.31"/>
<polygon fill="orange" stroke="orange" points="251.28,-667.83 250.06,-678.35 257.58,-670.89 251.28,-667.83"/>
<text text-anchor="start" x="321.5" y="-575" font-family="Helvetica,sans-Serif" font-size="10.00"> &lt; uxn::patl::impl::</text>
<text text-anchor="middle" x="367" y="-564" font-family="Helvetica,sans-Serif" font-size="10.00">hash_node &gt;</text>
</g>
<!-- Node8&#45;&gt;Node2 -->
<g id="edge8" class="edge">
<title>Node8&#45;&gt;Node2</title>
<path fill="none" stroke="#404040" d="M366.25,-468.95C357.1,-454.71 345.72,-437.01 333.61,-418.18"/>
<polygon fill="none" stroke="#404040" points="333.51,-418.02 326.9,-415.14 327.02,-407.93 333.63,-410.81 333.51,-418.02"/>
<text text-anchor="middle" x="370.5" y="-437" font-family="Helvetica,sans-Serif" font-size="10.00"> &#45;nodes_</text>
</g>
<!-- Node9 -->
<g id="node9" class="node">
<title>Node9</title>
<g id="a_node9"><a xlink:href="../../db/db2/classuxn_1_1patl_1_1impl_1_1hash__node.html" target="_top" xlink:title=" ">
<polygon fill="none" stroke="black" points="363,-601.5 363,-812.5 514,-812.5 514,-601.5 363,-601.5"/>
<text text-anchor="start" x="371" y="-800.5" font-family="Helvetica,sans-Serif" font-size="10.00">uxn::patl::impl::hash</text>
<text text-anchor="middle" x="438.5" y="-789.5" font-family="Helvetica,sans-Serif" font-size="10.00">_node&lt; Key, Value &gt;</text>
<polyline fill="none" stroke="black" points="363,-782.5 514,-782.5"/>
<text text-anchor="start" x="371" y="-770.5" font-family="Helvetica,sans-Serif" font-size="10.00">&#45; word_t hash_</text>
<text text-anchor="start" x="371" y="-759.5" font-family="Helvetica,sans-Serif" font-size="10.00">&#45; word_t next_</text>
<text text-anchor="start" x="371" y="-748.5" font-family="Helvetica,sans-Serif" font-size="10.00">&#45; value_type value_</text>
<polyline fill="none" stroke="black" points="363,-741.5 514,-741.5"/>
<text text-anchor="start" x="371" y="-729.5" font-family="Helvetica,sans-Serif" font-size="10.00">+ word_t get_hash() const</text>
<text text-anchor="start" x="371" y="-718.5" font-family="Helvetica,sans-Serif" font-size="10.00">+ word_t get_next() const</text>
<text text-anchor="start" x="371" y="-707.5" font-family="Helvetica,sans-Serif" font-size="10.00">+ const key_type &amp; get</text>
<text text-anchor="start" x="371" y="-696.5" font-family="Helvetica,sans-Serif" font-size="10.00">_key() const</text>
<text text-anchor="start" x="371" y="-685.5" font-family="Helvetica,sans-Serif" font-size="10.00">+ const value_type &amp;</text>
<text text-anchor="start" x="371" y="-674.5" font-family="Helvetica,sans-Serif" font-size="10.00"> get_value() const</text>
<text text-anchor="start" x="371" y="-663.5" font-family="Helvetica,sans-Serif" font-size="10.00">+ value_type &amp; get_value()</text>
<text text-anchor="start" x="371" y="-652.5" font-family="Helvetica,sans-Serif" font-size="10.00">+ void set_next(word</text>
<text text-anchor="start" x="371" y="-641.5" font-family="Helvetica,sans-Serif" font-size="10.00">_t next)</text>
<text text-anchor="start" x="371" y="-630.5" font-family="Helvetica,sans-Serif" font-size="10.00">+ void set_all(word_t</text>
<text text-anchor="start" x="371" y="-619.5" font-family="Helvetica,sans-Serif" font-size="10.00"> hash, word_t next,</text>
<text text-anchor="start" x="371" y="-608.5" font-family="Helvetica,sans-Serif" font-size="10.00"> const value_type &amp;value)</text>
</a>
</g>
</g>
<!-- Node9&#45;&gt;Node8 -->
<g id="edge9" class="edge">
<title>Node9&#45;&gt;Node8</title>
<path fill="none" stroke="#404040" d="M426.72,-601.31C423.98,-587.59 420.62,-573.85 416.5,-561 415.15,-556.79 413.51,-552.51 411.72,-548.28"/>
<polygon fill="none" stroke="#404040" points="411.68,-548.2 405.54,-544.42 406.67,-537.3 412.81,-541.08 411.68,-548.2"/>
<text text-anchor="middle" x="451.5" y="-569.5" font-family="Helvetica,sans-Serif" font-size="10.00"> +elements</text>
</g>
</g>
</svg>
        <g id="navigator" transform="translate(0 0)" fill="#404254">
                <rect fill="#f2f5e9" fill-opacity="0.5" stroke="#606060" stroke-width=".5" x="0" y="0" width="60" height="60"/>
                <use id="zoomplus" xlink:href="#zoomPlus" x="17" y="9" onmousedown="handleZoom(evt,'in')"/>
                <use id="zoomminus" xlink:href="#zoomMin" x="42" y="9" onmousedown="handleZoom(evt,'out')"/>
                <use id="reset" xlink:href="#resetDef" x="30" y="36" onmousedown="handleReset()"/>
                <g id="arrowUp" xlink:href="#dirArrow" transform="translate(30 24)" onmousedown="handlePan(0,-1)">
                  <use xlink:href="#rim" fill="#404040">
                        <set attributeName="fill" to="#808080" begin="arrowUp.mouseover" end="arrowUp.mouseout"/>
                  </use>
                  <path fill="none" stroke="white" stroke-width="1.5" d="M0,-3.0v7 M-2.5,-0.5L0,-3.0L2.5,-0.5"/>
                </g>
                <g id="arrowRight" xlink:href="#dirArrow" transform="rotate(90) translate(36 -43)" onmousedown="handlePan(1,0)">
                  <use xlink:href="#rim" fill="#404040">
                        <set attributeName="fill" to="#808080" begin="arrowRight.mouseover" end="arrowRight.mouseout"/>
                  </use>
                  <path fill="none" stroke="white" stroke-width="1.5" d="M0,-3.0v7 M-2.5,-0.5L0,-3.0L2.5,-0.5"/>
                </g>
                <g id="arrowDown" xlink:href="#dirArrow" transform="rotate(180) translate(-30 -48)" onmousedown="handlePan(0,1)">
                  <use xlink:href="#rim" fill="#404040">
                        <set attributeName="fill" to="#808080" begin="arrowDown.mouseover" end="arrowDown.mouseout"/>
                  </use>
                  <path fill="none" stroke="white" stroke-width="1.5" d="M0,-3.0v7 M-2.5,-0.5L0,-3.0L2.5,-0.5"/>
                </g>
                <g id="arrowLeft" xlink:href="#dirArrow" transform="rotate(270) translate(-36 17)" onmousedown="handlePan(-1,0)">
                  <use xlink:href="#rim" fill="#404040">
                        <set attributeName="fill" to="#808080" begin="arrowLeft.mouseover" end="arrowLeft.mouseout"/>
                  </use>
                  <path fill="none" stroke="white" stroke-width="1.5" d="M0,-3.0v7 M-2.5,-0.5L0,-3.0L2.5,-0.5"/>
                </g>
        </g>
        <svg viewBox="0 0 15 15" width="100%" height="30px" preserveAspectRatio="xMaxYMin meet">
         <g id="arrow_out" transform="scale(0.3 0.3)">
          <a xlink:href="classuxn_1_1patl_1_1unordered__map_1_1iterator__coll__graph_org.svg" target="_base">
           <rect id="button" ry="5" rx="5" y="6" x="6" height="38" width="38"
                fill="#f2f5e9" fill-opacity="0.5" stroke="#606060" stroke-width="1.0"/>
           <path id="arrow"
             d="M 11.500037,31.436501 C 11.940474,20.09759 22.043105,11.32322 32.158766,21.979434 L 37.068811,17.246167 C 37.068811,17.246167 37.088388,32 37.088388,32 L 22.160133,31.978069 C 22.160133,31.978069 26.997745,27.140456 26.997745,27.140456 C 18.528582,18.264221 13.291696,25.230495 11.500037,31.436501 z"
             style="fill:#404040;"/>
          </a>
         </g>
        </svg>
</svg>
