<?xml version="1.0" encoding="UTF-8" standalone="no"?>
<!DOCTYPE svg PUBLIC "-//W3C//DTD SVG 1.1//EN"
 "http://www.w3.org/Graphics/SVG/1.1/DTD/svg11.dtd">
<!-- Generated by graphviz version 5.0.1 (20220820.1526)
 -->
<!-- Title: uxn::patl::aux::file_mapping_input::create_view Pages: 1 -->
<svg width="341pt" height="126pt"
 viewBox="0.00 0.00 341.00 126.00" xmlns="http://www.w3.org/2000/svg" xmlns:xlink="http://www.w3.org/1999/xlink">
<g id="graph0" class="graph" transform="scale(1 1) rotate(0) translate(4 122)">
<title>uxn::patl::aux::file_mapping_input::create_view</title>
<!-- Node1 -->
<g id="node1" class="node">
<title>Node1</title>
<g id="a_node1"><a xlink:title=" ">
<polygon fill="#bfbfbf" stroke="black" points="0,-55 0,-85 160,-85 160,-55 0,-55"/>
<text text-anchor="start" x="8" y="-73" font-family="Helvetica,sans-Serif" font-size="10.00">uxn::patl::aux::file</text>
<text text-anchor="middle" x="80" y="-62" font-family="Helvetica,sans-Serif" font-size="10.00">_mapping_input::create_view</text>
</a>
</g>
</g>
<!-- Node2 -->
<g id="node2" class="node">
<title>Node2</title>
<g id="a_node2"><a xlink:href="../../dd/d0e/namespaceuxn_1_1patl_1_1impl.html#a06f5d982b4eba1ec85d6adcef6f774b4" target="_top" xlink:title=" ">
<polygon fill="none" stroke="black" points="197.5,-98.5 197.5,-117.5 331.5,-117.5 331.5,-98.5 197.5,-98.5"/>
<text text-anchor="middle" x="264.5" y="-105.5" font-family="Helvetica,sans-Serif" font-size="10.00">uxn::patl::impl::align_up</text>
</a>
</g>
</g>
<!-- Node1&#45;&gt;Node2 -->
<g id="edge1" class="edge">
<title>Node1&#45;&gt;Node2</title>
<path fill="none" stroke="midnightblue" d="M153.13,-85.02C171.37,-88.82 190.68,-92.84 207.95,-96.43"/>
<polygon fill="midnightblue" stroke="midnightblue" points="207.37,-99.89 217.87,-98.5 208.79,-93.03 207.37,-99.89"/>
</g>
<!-- Node3 -->
<g id="node3" class="node">
<title>Node3</title>
<g id="a_node3"><a xlink:href="../../dd/d0e/namespaceuxn_1_1patl_1_1impl.html#ac8acd4c59fec5857a380b4885796f019" target="_top" xlink:title=" ">
<polygon fill="none" stroke="black" points="198,-60.5 198,-79.5 331,-79.5 331,-60.5 198,-60.5"/>
<text text-anchor="middle" x="264.5" y="-67.5" font-family="Helvetica,sans-Serif" font-size="10.00">uxn::patl::impl::get_min</text>
</a>
</g>
</g>
<!-- Node1&#45;&gt;Node3 -->
<g id="edge2" class="edge">
<title>Node1&#45;&gt;Node3</title>
<path fill="none" stroke="midnightblue" d="M160.25,-70C169.34,-70 178.58,-70 187.62,-70"/>
<polygon fill="midnightblue" stroke="midnightblue" points="187.72,-73.5 197.72,-70 187.72,-66.5 187.72,-73.5"/>
</g>
<!-- Node4 -->
<g id="node4" class="node">
<title>Node4</title>
<g id="a_node4"><a xlink:href="../../d7/d4d/classuxn_1_1patl_1_1aux_1_1file__mapping__input.html#ae22458799a56b74649092f17df54734f" target="_top" xlink:title=" ">
<polygon fill="none" stroke="black" points="196,-0.5 196,-41.5 333,-41.5 333,-0.5 196,-0.5"/>
<text text-anchor="start" x="204" y="-29.5" font-family="Helvetica,sans-Serif" font-size="10.00">uxn::patl::aux::file</text>
<text text-anchor="start" x="204" y="-18.5" font-family="Helvetica,sans-Serif" font-size="10.00">_mapping_input::residue</text>
<text text-anchor="middle" x="264.5" y="-7.5" font-family="Helvetica,sans-Serif" font-size="10.00">_length</text>
</a>
</g>
</g>
<!-- Node1&#45;&gt;Node4 -->
<g id="edge3" class="edge">
<title>Node1&#45;&gt;Node4</title>
<path fill="none" stroke="midnightblue" d="M137.25,-54.9C152.6,-50.78 169.51,-46.24 185.82,-41.86"/>
<polygon fill="midnightblue" stroke="midnightblue" points="187.14,-45.13 195.89,-39.15 185.32,-38.37 187.14,-45.13"/>
</g>
</g>
</svg>
