<?xml version="1.0" encoding="UTF-8" standalone="no"?>
<!DOCTYPE svg PUBLIC "-//W3C//DTD SVG 1.1//EN"
 "http://www.w3.org/Graphics/SVG/1.1/DTD/svg11.dtd">
<!-- Generated by graphviz version 5.0.1 (20220820.1526)
 -->
<!-- Title: uxn/patl/impl/assoc_generic.hpp Pages: 1 -->
<svg width="539pt" height="151pt"
 viewBox="0.00 0.00 538.93 151.00" xmlns="http://www.w3.org/2000/svg" xmlns:xlink="http://www.w3.org/1999/xlink">
<g id="graph0" class="graph" transform="scale(1 1) rotate(0) translate(4 147)">
<title>uxn/patl/impl/assoc_generic.hpp</title>
<!-- Node1 -->
<g id="node1" class="node">
<title>Node1</title>
<g id="a_node1"><a xlink:title=" ">
<polygon fill="#bfbfbf" stroke="black" points="215.93,-112.5 215.93,-142.5 327.93,-142.5 327.93,-112.5 215.93,-112.5"/>
<text text-anchor="start" x="223.93" y="-130.5" font-family="Helvetica,sans-Serif" font-size="10.00">uxn/patl/impl/assoc</text>
<text text-anchor="middle" x="271.93" y="-119.5" font-family="Helvetica,sans-Serif" font-size="10.00">_generic.hpp</text>
</a>
</g>
</g>
<!-- Node2 -->
<g id="node2" class="node">
<title>Node2</title>
<g id="a_node2"><a xlink:href="../../d5/db7/preorder__iterator_8hpp.html" target="_top" xlink:title=" ">
<polygon fill="none" stroke="black" points="14.43,-56.5 14.43,-75.5 133.43,-75.5 133.43,-56.5 14.43,-56.5"/>
<text text-anchor="middle" x="73.93" y="-63.5" font-family="Helvetica,sans-Serif" font-size="10.00">preorder_iterator.hpp</text>
</a>
</g>
</g>
<!-- Node1&#45;&gt;Node2 -->
<g id="edge1" class="edge">
<title>Node1&#45;&gt;Node2</title>
<path fill="none" stroke="midnightblue" d="M225.25,-112.47C190.8,-102.12 144.47,-88.2 112.19,-78.5"/>
<polygon fill="midnightblue" stroke="midnightblue" points="112.82,-75.03 102.23,-75.51 110.8,-81.74 112.82,-75.03"/>
</g>
<!-- Node3 -->
<g id="node3" class="node">
<title>Node3</title>
<g id="a_node3"><a xlink:href="../../d1/d2d/vertex_8hpp.html" target="_top" xlink:title=" ">
<polygon fill="none" stroke="black" points="39.43,-0.5 39.43,-19.5 108.43,-19.5 108.43,-0.5 39.43,-0.5"/>
<text text-anchor="middle" x="73.93" y="-7.5" font-family="Helvetica,sans-Serif" font-size="10.00">vertex.hpp</text>
</a>
</g>
</g>
<!-- Node1&#45;&gt;Node3 -->
<g id="edge11" class="edge">
<title>Node1&#45;&gt;Node3</title>
<path fill="none" stroke="midnightblue" d="M215.66,-124.02C145.38,-119.61 31.15,-107.65 4.93,-76 -11.53,-56.14 18.03,-36.23 43.43,-23.78"/>
<polygon fill="midnightblue" stroke="midnightblue" points="44.93,-26.94 52.51,-19.54 41.97,-20.6 44.93,-26.94"/>
</g>
<!-- Node5 -->
<g id="node5" class="node">
<title>Node5</title>
<g id="a_node5"><a xlink:href="../../df/d24/postorder__iterator_8hpp.html" target="_top" xlink:title=" ">
<polygon fill="none" stroke="black" points="151.43,-56.5 151.43,-75.5 276.43,-75.5 276.43,-56.5 151.43,-56.5"/>
<text text-anchor="middle" x="213.93" y="-63.5" font-family="Helvetica,sans-Serif" font-size="10.00">postorder_iterator.hpp</text>
</a>
</g>
</g>
<!-- Node1&#45;&gt;Node5 -->
<g id="edge4" class="edge">
<title>Node1&#45;&gt;Node5</title>
<path fill="none" stroke="midnightblue" d="M258.18,-112.4C249.58,-103.58 238.47,-92.18 229.54,-83.02"/>
<polygon fill="midnightblue" stroke="midnightblue" points="231.85,-80.38 222.37,-75.66 226.84,-85.26 231.85,-80.38"/>
</g>
<!-- Node6 -->
<g id="node6" class="node">
<title>Node6</title>
<g id="a_node6"><a xlink:href="../../d9/dde/iterator_8hpp.html" target="_top" xlink:title=" ">
<polygon fill="none" stroke="black" points="294.43,-56.5 294.43,-75.5 367.43,-75.5 367.43,-56.5 294.43,-56.5"/>
<text text-anchor="middle" x="330.93" y="-63.5" font-family="Helvetica,sans-Serif" font-size="10.00">iterator.hpp</text>
</a>
</g>
</g>
<!-- Node1&#45;&gt;Node6 -->
<g id="edge7" class="edge">
<title>Node1&#45;&gt;Node6</title>
<path fill="none" stroke="midnightblue" d="M285.91,-112.4C294.66,-103.58 305.95,-92.18 315.04,-83.02"/>
<polygon fill="midnightblue" stroke="midnightblue" points="317.79,-85.22 322.34,-75.66 312.81,-80.29 317.79,-85.22"/>
</g>
<!-- Node7 -->
<g id="node7" class="node">
<title>Node7</title>
<g id="a_node7"><a xlink:href="../../d7/d8f/partimator_8hpp.html" target="_top" xlink:title=" ">
<polygon fill="none" stroke="black" points="385.43,-56.5 385.43,-75.5 474.43,-75.5 474.43,-56.5 385.43,-56.5"/>
<text text-anchor="middle" x="429.93" y="-63.5" font-family="Helvetica,sans-Serif" font-size="10.00">partimator.hpp</text>
</a>
</g>
</g>
<!-- Node1&#45;&gt;Node7 -->
<g id="edge9" class="edge">
<title>Node1&#45;&gt;Node7</title>
<path fill="none" stroke="midnightblue" d="M309.37,-112.4C336.12,-102.33 371.75,-88.91 397.33,-79.28"/>
<polygon fill="midnightblue" stroke="midnightblue" points="398.81,-82.46 406.94,-75.66 396.34,-75.91 398.81,-82.46"/>
</g>
<!-- Node8 -->
<g id="node8" class="node">
<title>Node8</title>
<g id="a_node8"><a xlink:title=" ">
<polygon fill="none" stroke="#bfbfbf" points="492.93,-56.5 492.93,-75.5 530.93,-75.5 530.93,-56.5 492.93,-56.5"/>
<text text-anchor="middle" x="511.93" y="-63.5" font-family="Helvetica,sans-Serif" font-size="10.00">map</text>
</a>
</g>
</g>
<!-- Node1&#45;&gt;Node8 -->
<g id="edge12" class="edge">
<title>Node1&#45;&gt;Node8</title>
<path fill="none" stroke="midnightblue" d="M328.02,-114.38C368.67,-105.31 425.12,-92.14 483.02,-76.1"/>
<polygon fill="midnightblue" stroke="midnightblue" points="484.02,-79.46 492.71,-73.39 482.13,-72.71 484.02,-79.46"/>
</g>
<!-- Node2&#45;&gt;Node3 -->
<g id="edge2" class="edge">
<title>Node2&#45;&gt;Node3</title>
<path fill="none" stroke="midnightblue" d="M73.93,-56.08C73.93,-49.01 73.93,-38.86 73.93,-29.99"/>
<polygon fill="midnightblue" stroke="midnightblue" points="77.43,-29.75 73.93,-19.75 70.43,-29.75 77.43,-29.75"/>
</g>
<!-- Node4 -->
<g id="node4" class="node">
<title>Node4</title>
<g id="a_node4"><a xlink:title=" ">
<polygon fill="none" stroke="#bfbfbf" points="245.43,-0.5 245.43,-19.5 298.43,-19.5 298.43,-0.5 245.43,-0.5"/>
<text text-anchor="middle" x="271.93" y="-7.5" font-family="Helvetica,sans-Serif" font-size="10.00">iterator</text>
</a>
</g>
</g>
<!-- Node2&#45;&gt;Node4 -->
<g id="edge3" class="edge">
<title>Node2&#45;&gt;Node4</title>
<path fill="none" stroke="midnightblue" d="M105.3,-56.44C140.58,-46.82 197.82,-31.21 235.17,-21.02"/>
<polygon fill="midnightblue" stroke="midnightblue" points="236.42,-24.31 245.14,-18.3 234.58,-17.56 236.42,-24.31"/>
</g>
<!-- Node5&#45;&gt;Node3 -->
<g id="edge5" class="edge">
<title>Node5&#45;&gt;Node3</title>
<path fill="none" stroke="midnightblue" d="M191.74,-56.44C168.5,-47.48 131.78,-33.31 105.51,-23.18"/>
<polygon fill="midnightblue" stroke="midnightblue" points="106.6,-19.85 96.01,-19.52 104.08,-26.38 106.6,-19.85"/>
</g>
<!-- Node5&#45;&gt;Node4 -->
<g id="edge6" class="edge">
<title>Node5&#45;&gt;Node4</title>
<path fill="none" stroke="midnightblue" d="M223.24,-56.32C231.82,-48.34 244.74,-36.31 255.11,-26.65"/>
<polygon fill="midnightblue" stroke="midnightblue" points="257.5,-29.21 262.44,-19.83 252.73,-24.09 257.5,-29.21"/>
</g>
<!-- Node6&#45;&gt;Node4 -->
<g id="edge8" class="edge">
<title>Node6&#45;&gt;Node4</title>
<path fill="none" stroke="midnightblue" d="M321.45,-56.32C312.72,-48.34 299.58,-36.31 289.03,-26.65"/>
<polygon fill="midnightblue" stroke="midnightblue" points="291.32,-24 281.58,-19.83 286.59,-29.17 291.32,-24"/>
</g>
<!-- Node7&#45;&gt;Node4 -->
<g id="edge10" class="edge">
<title>Node7&#45;&gt;Node4</title>
<path fill="none" stroke="midnightblue" d="M404.89,-56.44C378.31,-47.36 336.12,-32.94 306.4,-22.78"/>
<polygon fill="midnightblue" stroke="midnightblue" points="307.44,-19.44 296.84,-19.52 305.18,-26.06 307.44,-19.44"/>
</g>
</g>
</svg>
