<?xml version="1.0" encoding="UTF-8" standalone="no"?>
<!DOCTYPE svg PUBLIC "-//W3C//DTD SVG 1.1//EN"
 "http://www.w3.org/Graphics/SVG/1.1/DTD/svg11.dtd">
<!-- Generated by graphviz version 5.0.1 (20220820.1526)
 -->
<!-- Title: uxn::patl::swap Pages: 1 -->
<svg width="416pt" height="137pt"
 viewBox="0.00 0.00 416.00 137.00" xmlns="http://www.w3.org/2000/svg" xmlns:xlink="http://www.w3.org/1999/xlink">
<g id="graph0" class="graph" transform="scale(1 1) rotate(0) translate(4 133)">
<title>uxn::patl::swap</title>
<!-- Node1 -->
<g id="node1" class="node">
<title>Node1</title>
<g id="a_node1"><a xlink:title=" ">
<polygon fill="#bfbfbf" stroke="black" points="317,-55 317,-74 408,-74 408,-55 317,-55"/>
<text text-anchor="middle" x="362.5" y="-62" font-family="Helvetica,sans-Serif" font-size="10.00">uxn::patl::swap</text>
</a>
</g>
</g>
<!-- Node2 -->
<g id="node2" class="node">
<title>Node2</title>
<g id="a_node2"><a xlink:href="../../d2/d2c/classuxn_1_1patl_1_1impl_1_1node__generic.html#ac00849f2068879a9c9d2b4825e1d6de0" target="_top" xlink:title="change the root">
<polygon fill="none" stroke="black" points="157.5,-98.5 157.5,-128.5 274.5,-128.5 274.5,-98.5 157.5,-98.5"/>
<text text-anchor="start" x="165.5" y="-116.5" font-family="Helvetica,sans-Serif" font-size="10.00">uxn::patl::impl::node</text>
<text text-anchor="middle" x="216" y="-105.5" font-family="Helvetica,sans-Serif" font-size="10.00">_generic::make_root</text>
</a>
</g>
</g>
<!-- Node1&#45;&gt;Node2 -->
<g id="edge1" class="edge">
<title>Node1&#45;&gt;Node2</title>
<path fill="none" stroke="midnightblue" d="M323.73,-77.31C304.61,-83.79 281.3,-91.7 261.34,-98.46"/>
<polygon fill="midnightblue" stroke="midnightblue" points="324.95,-80.59 333.3,-74.06 322.7,-73.96 324.95,-80.59"/>
</g>
<!-- Node3 -->
<g id="node3" class="node">
<title>Node3</title>
<g id="a_node3"><a xlink:href="../../d8/d99/classuxn_1_1patl_1_1unordered__map.html#abf70f60dcd06fc5ea658b06a00cbf5ea" target="_top" xlink:title=" ">
<polygon fill="none" stroke="black" points="158.5,-49.5 158.5,-79.5 273.5,-79.5 273.5,-49.5 158.5,-49.5"/>
<text text-anchor="start" x="166.5" y="-67.5" font-family="Helvetica,sans-Serif" font-size="10.00">uxn::patl::unordered</text>
<text text-anchor="middle" x="216" y="-56.5" font-family="Helvetica,sans-Serif" font-size="10.00">_map::resize</text>
</a>
</g>
</g>
<!-- Node1&#45;&gt;Node3 -->
<g id="edge2" class="edge">
<title>Node1&#45;&gt;Node3</title>
<path fill="none" stroke="midnightblue" d="M306.78,-64.5C295.95,-64.5 284.56,-64.5 273.66,-64.5"/>
<polygon fill="midnightblue" stroke="midnightblue" points="306.97,-68 316.97,-64.5 306.97,-61 306.97,-68"/>
</g>
<!-- Node5 -->
<g id="node5" class="node">
<title>Node5</title>
<g id="a_node5"><a xlink:href="../../d0/d55/classuxn_1_1patl_1_1impl_1_1trie__generic_3_01T_00_010_01_4.html#a913236f36bc658b58aba92369e25d469" target="_top" xlink:title=" ">
<polygon fill="none" stroke="black" points="151,-0.5 151,-30.5 281,-30.5 281,-0.5 151,-0.5"/>
<text text-anchor="start" x="159" y="-18.5" font-family="Helvetica,sans-Serif" font-size="10.00">uxn::patl::impl::trie</text>
<text text-anchor="middle" x="216" y="-7.5" font-family="Helvetica,sans-Serif" font-size="10.00">_generic&lt; T, 0 &gt;::swap</text>
</a>
</g>
</g>
<!-- Node1&#45;&gt;Node5 -->
<g id="edge4" class="edge">
<title>Node1&#45;&gt;Node5</title>
<path fill="none" stroke="midnightblue" d="M323.73,-51.69C304.61,-45.21 281.3,-37.3 261.34,-30.54"/>
<polygon fill="midnightblue" stroke="midnightblue" points="322.7,-55.04 333.3,-54.94 324.95,-48.41 322.7,-55.04"/>
</g>
<!-- Node4 -->
<g id="node4" class="node">
<title>Node4</title>
<g id="a_node4"><a xlink:href="../../d8/d99/classuxn_1_1patl_1_1unordered__map.html#a4f8db8da0cfb2604affd3c362e8cecd2" target="_top" xlink:title=" ">
<polygon fill="none" stroke="black" points="0,-49.5 0,-79.5 115,-79.5 115,-49.5 0,-49.5"/>
<text text-anchor="start" x="8" y="-67.5" font-family="Helvetica,sans-Serif" font-size="10.00">uxn::patl::unordered</text>
<text text-anchor="middle" x="57.5" y="-56.5" font-family="Helvetica,sans-Serif" font-size="10.00">_map::operator[]</text>
</a>
</g>
</g>
<!-- Node3&#45;&gt;Node4 -->
<g id="edge3" class="edge">
<title>Node3&#45;&gt;Node4</title>
<path fill="none" stroke="midnightblue" d="M148.45,-64.5C137.37,-64.5 125.98,-64.5 115.18,-64.5"/>
<polygon fill="midnightblue" stroke="midnightblue" points="148.5,-68 158.5,-64.5 148.5,-61 148.5,-68"/>
</g>
</g>
</svg>
