<?xml version="1.0" encoding="UTF-8" standalone="no"?>
<!DOCTYPE svg PUBLIC "-//W3C//DTD SVG 1.1//EN"
 "http://www.w3.org/Graphics/SVG/1.1/DTD/svg11.dtd">
<!-- Generated by graphviz version 5.0.1 (20220820.1526)
 -->
<!-- Title: uxn::patl::super_maxrep_iterator&lt; Container &gt;::functor Pages: 1 -->
<!--zoomable 816 -->
<svg id="main" version="1.1" xmlns="http://www.w3.org/2000/svg" xmlns:xlink="http://www.w3.org/1999/xlink" xml:space="preserve" onload="init(evt)">
<style type="text/css"><![CDATA[
.edge:hover path { stroke: red; }
.edge:hover polygon { stroke: red; fill: red; }
]]></style>
<script type="text/javascript"><![CDATA[
var edges = document.getElementsByTagName('g');
if (edges && edges.length) {
  for (var i=0;i<edges.length;i++) {
    if (edges[i].id.substr(0,4)=='edge') {
      edges[i].setAttribute('class','edge');
    }
  }
}
]]></script>
        <defs>
                <circle id="rim" cx="0" cy="0" r="7"/>
                <circle id="rim2" cx="0" cy="0" r="3.5"/>
                <g id="zoomPlus">
                        <use xlink:href="#rim" fill="#404040">
                                <set attributeName="fill" to="#808080" begin="zoomplus.mouseover" end="zoomplus.mouseout"/>
                        </use>
                        <path d="M-4,0h8M0,-4v8" fill="none" stroke="white" stroke-width="1.5" pointer-events="none"/>
                </g>
                <g id="zoomMin">
                        <use xlink:href="#rim" fill="#404040">
                                <set attributeName="fill" to="#808080" begin="zoomminus.mouseover" end="zoomminus.mouseout"/>
                        </use>
                        <path d="M-4,0h8" fill="none" stroke="white" stroke-width="1.5" pointer-events="none"/>
                </g>
                <g id="dirArrow">
                        <path fill="none" stroke="white" stroke-width="1.5" d="M0,-3.0v7 M-2.5,-0.5L0,-3.0L2.5,-0.5"/>
                </g>
               <g id="resetDef">
                       <use xlink:href="#rim2" fill="#404040">
                               <set attributeName="fill" to="#808080" begin="reset.mouseover" end="reset.mouseout"/>
                       </use>
               </g>
        </defs>

<script type="text/javascript">
var viewWidth = 392;
var viewHeight = 816;
var sectionId = 'dynsection-0';
</script>
<script xlink:href="../../svgpan.js"/>
<svg id="graph" class="graph">
<g id="viewport">
<title>uxn::patl::super_maxrep_iterator&lt; Container &gt;::functor</title>
<!-- Node1 -->
<g id="node1" class="node">
<title>Node1</title>
<g id="a_node1"><a xlink:title=" ">
<polygon fill="#bfbfbf" stroke="black" points="0,-0.5 0,-145.5 141,-145.5 141,-0.5 0,-0.5"/>
<text text-anchor="start" x="8" y="-133.5" font-family="Helvetica,sans-Serif" font-size="10.00">uxn::patl::super_maxrep</text>
<text text-anchor="start" x="8" y="-122.5" font-family="Helvetica,sans-Serif" font-size="10.00">_iterator&lt; Container &gt;</text>
<text text-anchor="middle" x="70.5" y="-111.5" font-family="Helvetica,sans-Serif" font-size="10.00">::functor</text>
<polyline fill="none" stroke="black" points="0,-104.5 141,-104.5"/>
<text text-anchor="middle" x="70.5" y="-92.5" font-family="Helvetica,sans-Serif" font-size="10.00"> </text>
<polyline fill="none" stroke="black" points="0,-85.5 141,-85.5"/>
<text text-anchor="start" x="8" y="-73.5" font-family="Helvetica,sans-Serif" font-size="10.00">+ void init(super_maxrep</text>
<text text-anchor="start" x="8" y="-62.5" font-family="Helvetica,sans-Serif" font-size="10.00">_iterator *mrit)</text>
<text text-anchor="start" x="8" y="-51.5" font-family="Helvetica,sans-Serif" font-size="10.00">+ void push()</text>
<text text-anchor="start" x="8" y="-40.5" font-family="Helvetica,sans-Serif" font-size="10.00">+ void incr()</text>
<text text-anchor="start" x="8" y="-29.5" font-family="Helvetica,sans-Serif" font-size="10.00">+ void update()</text>
<text text-anchor="start" x="8" y="-18.5" font-family="Helvetica,sans-Serif" font-size="10.00">+ void merge()</text>
<text text-anchor="start" x="8" y="-7.5" font-family="Helvetica,sans-Serif" font-size="10.00">+ bool cond() const</text>
</a>
</g>
</g>
<!-- Node2 -->
<g id="node2" class="node">
<title>Node2</title>
<g id="a_node2"><a xlink:href="../../d5/d4f/classuxn_1_1patl_1_1super__maxrep__iterator.html" target="_top" xlink:title=" ">
<polygon fill="none" stroke="black" points="101,-193.5 101,-459.5 246,-459.5 246,-193.5 101,-193.5"/>
<text text-anchor="start" x="109" y="-447.5" font-family="Helvetica,sans-Serif" font-size="10.00">uxn::patl::super_maxrep</text>
<text text-anchor="middle" x="173.5" y="-436.5" font-family="Helvetica,sans-Serif" font-size="10.00">_iterator&lt; Container &gt;</text>
<polyline fill="none" stroke="black" points="101,-429.5 246,-429.5"/>
<text text-anchor="start" x="109" y="-417.5" font-family="Helvetica,sans-Serif" font-size="10.00">&#45; prefix pref_</text>
<polyline fill="none" stroke="black" points="101,-410.5 246,-410.5"/>
<text text-anchor="start" x="109" y="-398.5" font-family="Helvetica,sans-Serif" font-size="10.00">+ super_maxrep_iterator</text>
<text text-anchor="start" x="109" y="-387.5" font-family="Helvetica,sans-Serif" font-size="10.00">(const Container *cont)</text>
<text text-anchor="start" x="109" y="-376.5" font-family="Helvetica,sans-Serif" font-size="10.00">+ const prefix &amp; operator*</text>
<text text-anchor="start" x="109" y="-365.5" font-family="Helvetica,sans-Serif" font-size="10.00">() const</text>
<text text-anchor="start" x="109" y="-354.5" font-family="Helvetica,sans-Serif" font-size="10.00">+ const prefix * operator</text>
<text text-anchor="start" x="109" y="-343.5" font-family="Helvetica,sans-Serif" font-size="10.00">&#45;&gt;() const</text>
<text text-anchor="start" x="109" y="-332.5" font-family="Helvetica,sans-Serif" font-size="10.00">+ word_t freq() const</text>
<text text-anchor="start" x="109" y="-321.5" font-family="Helvetica,sans-Serif" font-size="10.00">+ super_maxrep_iterator</text>
<text text-anchor="start" x="109" y="-310.5" font-family="Helvetica,sans-Serif" font-size="10.00"> &amp; operator++()</text>
<text text-anchor="start" x="109" y="-299.5" font-family="Helvetica,sans-Serif" font-size="10.00">+ super_maxrep_iterator</text>
<text text-anchor="start" x="109" y="-288.5" font-family="Helvetica,sans-Serif" font-size="10.00"> operator++(int)</text>
<text text-anchor="start" x="109" y="-277.5" font-family="Helvetica,sans-Serif" font-size="10.00">&#45; void push_new_pair()</text>
<text text-anchor="start" x="109" y="-266.5" font-family="Helvetica,sans-Serif" font-size="10.00">&#45; void unique_update</text>
<text text-anchor="start" x="109" y="-255.5" font-family="Helvetica,sans-Serif" font-size="10.00">(unique_type &amp;us, const</text>
<text text-anchor="start" x="109" y="-244.5" font-family="Helvetica,sans-Serif" font-size="10.00"> prefix &amp;pref)</text>
<text text-anchor="start" x="109" y="-233.5" font-family="Helvetica,sans-Serif" font-size="10.00">&#45; void unique_update</text>
<text text-anchor="start" x="109" y="-222.5" font-family="Helvetica,sans-Serif" font-size="10.00">(unique_type &amp;us, const</text>
<text text-anchor="start" x="109" y="-211.5" font-family="Helvetica,sans-Serif" font-size="10.00"> unique_type &amp;us1)</text>
<text text-anchor="start" x="109" y="-200.5" font-family="Helvetica,sans-Serif" font-size="10.00">&#45; void merge()</text>
</a>
</g>
</g>
<!-- Node2&#45;&gt;Node1 -->
<g id="edge1" class="edge">
<title>Node2&#45;&gt;Node1</title>
<path fill="none" stroke="#404040" d="M119.44,-193.49C114.32,-181 109.24,-168.59 104.39,-156.76"/>
<polygon fill="none" stroke="#404040" points="104.37,-156.71 98.4,-152.67 99.82,-145.6 105.8,-149.64 104.37,-156.71"/>
<text text-anchor="middle" x="127" y="-167" font-family="Helvetica,sans-Serif" font-size="10.00"> &#45;mrit_</text>
</g>
<!-- Node4 -->
<g id="node4" class="node">
<title>Node4</title>
<g id="a_node4"><a xlink:href="../../dd/dbc/structuxn_1_1patl_1_1super__maxrep__iterator_1_1functor.html" target="_top" xlink:title=" ">
<polygon fill="none" stroke="black" points="159,-0.5 159,-145.5 300,-145.5 300,-0.5 159,-0.5"/>
<text text-anchor="start" x="167" y="-133.5" font-family="Helvetica,sans-Serif" font-size="10.00">uxn::patl::super_maxrep</text>
<text text-anchor="start" x="167" y="-122.5" font-family="Helvetica,sans-Serif" font-size="10.00">_iterator&lt; Container &gt;</text>
<text text-anchor="middle" x="229.5" y="-111.5" font-family="Helvetica,sans-Serif" font-size="10.00">::functor</text>
<polyline fill="none" stroke="black" points="159,-104.5 300,-104.5"/>
<text text-anchor="middle" x="229.5" y="-92.5" font-family="Helvetica,sans-Serif" font-size="10.00"> </text>
<polyline fill="none" stroke="black" points="159,-85.5 300,-85.5"/>
<text text-anchor="start" x="167" y="-73.5" font-family="Helvetica,sans-Serif" font-size="10.00">+ void init(super_maxrep</text>
<text text-anchor="start" x="167" y="-62.5" font-family="Helvetica,sans-Serif" font-size="10.00">_iterator *mrit)</text>
<text text-anchor="start" x="167" y="-51.5" font-family="Helvetica,sans-Serif" font-size="10.00">+ void push()</text>
<text text-anchor="start" x="167" y="-40.5" font-family="Helvetica,sans-Serif" font-size="10.00">+ void incr()</text>
<text text-anchor="start" x="167" y="-29.5" font-family="Helvetica,sans-Serif" font-size="10.00">+ void update()</text>
<text text-anchor="start" x="167" y="-18.5" font-family="Helvetica,sans-Serif" font-size="10.00">+ void merge()</text>
<text text-anchor="start" x="167" y="-7.5" font-family="Helvetica,sans-Serif" font-size="10.00">+ bool cond() const</text>
</a>
</g>
</g>
<!-- Node2&#45;&gt;Node4 -->
<g id="edge4" class="edge">
<title>Node2&#45;&gt;Node4</title>
<path fill="none" stroke="#404040" d="M164.38,-193.26C165.71,-183.26 167.69,-173.4 170.5,-164 171.22,-161.59 172.03,-159.18 172.91,-156.78"/>
<polygon fill="none" stroke="#404040" points="172.93,-156.73 171.56,-149.66 177.57,-145.67 178.94,-152.74 172.93,-156.73"/>
<text text-anchor="middle" x="187" y="-167" font-family="Helvetica,sans-Serif" font-size="10.00"> &#45;mrit_</text>
</g>
<!-- Node3 -->
<g id="node3" class="node">
<title>Node3</title>
<g id="a_node3"><a xlink:title=" ">
<polygon fill="none" stroke="black" points="64,-507.5 64,-586.5 189,-586.5 189,-507.5 64,-507.5"/>
<text text-anchor="start" x="72" y="-574.5" font-family="Helvetica,sans-Serif" font-size="10.00">std::iterator&lt; std</text>
<text text-anchor="start" x="72" y="-563.5" font-family="Helvetica,sans-Serif" font-size="10.00">::forward_iterator_tag,</text>
<text text-anchor="middle" x="126.5" y="-552.5" font-family="Helvetica,sans-Serif" font-size="10.00"> Container::prefix &gt;</text>
<polyline fill="none" stroke="black" points="64,-545.5 189,-545.5"/>
<text text-anchor="middle" x="126.5" y="-533.5" font-family="Helvetica,sans-Serif" font-size="10.00"> </text>
<polyline fill="none" stroke="black" points="64,-526.5 189,-526.5"/>
<text text-anchor="middle" x="126.5" y="-514.5" font-family="Helvetica,sans-Serif" font-size="10.00"> </text>
</a>
</g>
</g>
<!-- Node3&#45;&gt;Node2 -->
<g id="edge2" class="edge">
<title>Node3&#45;&gt;Node2</title>
<path fill="none" stroke="midnightblue" d="M136.9,-497.64C139.39,-486.08 142.16,-473.18 145.04,-459.79"/>
<polygon fill="none" stroke="midnightblue" points="133.48,-496.93 134.79,-507.44 140.32,-498.4 133.48,-496.93"/>
</g>
<!-- Node4&#45;&gt;Node2 -->
<g id="edge3" class="edge">
<title>Node4&#45;&gt;Node2</title>
<path fill="none" stroke="#404040" d="M213.94,-145.74C211.79,-155.58 209.6,-165.54 207.5,-175 207.02,-177.16 206.54,-179.34 206.05,-181.53"/>
<polygon fill="none" stroke="#404040" points="206.02,-181.66 208.62,-188.39 203.41,-193.37 200.81,-186.65 206.02,-181.66"/>
<text text-anchor="middle" x="226.5" y="-167" font-family="Helvetica,sans-Serif" font-size="10.00"> &#45;func_</text>
</g>
<!-- Node5 -->
<g id="node5" class="node">
<title>Node5</title>
<g id="a_node5"><a xlink:title=" ">
<polygon fill="none" stroke="black" points="207,-507.5 207,-586.5 356,-586.5 356,-507.5 207,-507.5"/>
<text text-anchor="start" x="215" y="-574.5" font-family="Helvetica,sans-Serif" font-size="10.00">std::vector&lt; std::pair</text>
<text text-anchor="middle" x="281.5" y="-563.5" font-family="Helvetica,sans-Serif" font-size="10.00">&lt; word_t, unique_type &gt; &gt;</text>
<polyline fill="none" stroke="black" points="207,-556.5 356,-556.5"/>
<text text-anchor="start" x="215" y="-544.5" font-family="Helvetica,sans-Serif" font-size="10.00">+ std::pair&lt; word_t,</text>
<text text-anchor="start" x="215" y="-533.5" font-family="Helvetica,sans-Serif" font-size="10.00"> unique_type &gt; elements</text>
<polyline fill="none" stroke="black" points="207,-526.5 356,-526.5"/>
<text text-anchor="middle" x="281.5" y="-514.5" font-family="Helvetica,sans-Serif" font-size="10.00"> </text>
</a>
</g>
</g>
<!-- Node5&#45;&gt;Node2 -->
<g id="edge5" class="edge">
<title>Node5&#45;&gt;Node2</title>
<path fill="none" stroke="#404040" d="M262.44,-507.44C257.04,-496.52 250.82,-483.94 244.24,-470.62"/>
<polygon fill="none" stroke="#404040" points="244.21,-470.55 237.96,-466.94 238.89,-459.79 245.13,-463.4 244.21,-470.55"/>
<text text-anchor="middle" x="271" y="-481" font-family="Helvetica,sans-Serif" font-size="10.00"> &#45;sfreq_</text>
</g>
<!-- Node6 -->
<g id="node6" class="node">
<title>Node6</title>
<g id="a_node6"><a xlink:title=" ">
<polygon fill="none" stroke="black" points="233,-645.5 233,-702.5 330,-702.5 330,-645.5 233,-645.5"/>
<text text-anchor="middle" x="281.5" y="-690.5" font-family="Helvetica,sans-Serif" font-size="10.00">std::vector&lt; T &gt;</text>
<polyline fill="none" stroke="black" points="233,-683.5 330,-683.5"/>
<text text-anchor="middle" x="281.5" y="-671.5" font-family="Helvetica,sans-Serif" font-size="10.00"> </text>
<polyline fill="none" stroke="black" points="233,-664.5 330,-664.5"/>
<text text-anchor="middle" x="281.5" y="-652.5" font-family="Helvetica,sans-Serif" font-size="10.00"> </text>
</a>
</g>
</g>
<!-- Node6&#45;&gt;Node5 -->
<g id="edge6" class="edge">
<title>Node6&#45;&gt;Node5</title>
<path fill="none" stroke="orange" d="M281.5,-635.06C281.5,-619.7 281.5,-601.99 281.5,-586.57"/>
<polygon fill="orange" stroke="orange" points="278,-635.26 281.5,-645.26 285,-635.26 278,-635.26"/>
<text text-anchor="start" x="281.5" y="-619" font-family="Helvetica,sans-Serif" font-size="10.00"> &lt; std::pair&lt; word_t,</text>
<text text-anchor="middle" x="332.5" y="-608" font-family="Helvetica,sans-Serif" font-size="10.00"> unique_type &gt; &gt;</text>
</g>
<!-- Node7 -->
<g id="node7" class="node">
<title>Node7</title>
<g id="a_node7"><a xlink:title=" ">
<polygon fill="none" stroke="black" points="267,-750.5 267,-807.5 296,-807.5 296,-750.5 267,-750.5"/>
<text text-anchor="middle" x="281.5" y="-795.5" font-family="Helvetica,sans-Serif" font-size="10.00">T</text>
<polyline fill="none" stroke="black" points="267,-788.5 296,-788.5"/>
<text text-anchor="middle" x="281.5" y="-776.5" font-family="Helvetica,sans-Serif" font-size="10.00"> </text>
<polyline fill="none" stroke="black" points="267,-769.5 296,-769.5"/>
<text text-anchor="middle" x="281.5" y="-757.5" font-family="Helvetica,sans-Serif" font-size="10.00"> </text>
</a>
</g>
</g>
<!-- Node7&#45;&gt;Node6 -->
<g id="edge7" class="edge">
<title>Node7&#45;&gt;Node6</title>
<path fill="none" stroke="#404040" d="M281.5,-750.4C281.5,-739.55 281.5,-726.87 281.5,-715.05"/>
<polygon fill="none" stroke="#404040" points="281.5,-714.68 277.5,-708.68 281.5,-702.68 285.5,-708.68 281.5,-714.68"/>
<text text-anchor="middle" x="310.5" y="-724" font-family="Helvetica,sans-Serif" font-size="10.00"> +elements</text>
</g>
</g>
</svg>
        <g id="navigator" transform="translate(0 0)" fill="#404254">
                <rect fill="#f2f5e9" fill-opacity="0.5" stroke="#606060" stroke-width=".5" x="0" y="0" width="60" height="60"/>
                <use id="zoomplus" xlink:href="#zoomPlus" x="17" y="9" onmousedown="handleZoom(evt,'in')"/>
                <use id="zoomminus" xlink:href="#zoomMin" x="42" y="9" onmousedown="handleZoom(evt,'out')"/>
                <use id="reset" xlink:href="#resetDef" x="30" y="36" onmousedown="handleReset()"/>
                <g id="arrowUp" xlink:href="#dirArrow" transform="translate(30 24)" onmousedown="handlePan(0,-1)">
                  <use xlink:href="#rim" fill="#404040">
                        <set attributeName="fill" to="#808080" begin="arrowUp.mouseover" end="arrowUp.mouseout"/>
                  </use>
                  <path fill="none" stroke="white" stroke-width="1.5" d="M0,-3.0v7 M-2.5,-0.5L0,-3.0L2.5,-0.5"/>
                </g>
                <g id="arrowRight" xlink:href="#dirArrow" transform="rotate(90) translate(36 -43)" onmousedown="handlePan(1,0)">
                  <use xlink:href="#rim" fill="#404040">
                        <set attributeName="fill" to="#808080" begin="arrowRight.mouseover" end="arrowRight.mouseout"/>
                  </use>
                  <path fill="none" stroke="white" stroke-width="1.5" d="M0,-3.0v7 M-2.5,-0.5L0,-3.0L2.5,-0.5"/>
                </g>
                <g id="arrowDown" xlink:href="#dirArrow" transform="rotate(180) translate(-30 -48)" onmousedown="handlePan(0,1)">
                  <use xlink:href="#rim" fill="#404040">
                        <set attributeName="fill" to="#808080" begin="arrowDown.mouseover" end="arrowDown.mouseout"/>
                  </use>
                  <path fill="none" stroke="white" stroke-width="1.5" d="M0,-3.0v7 M-2.5,-0.5L0,-3.0L2.5,-0.5"/>
                </g>
                <g id="arrowLeft" xlink:href="#dirArrow" transform="rotate(270) translate(-36 17)" onmousedown="handlePan(-1,0)">
                  <use xlink:href="#rim" fill="#404040">
                        <set attributeName="fill" to="#808080" begin="arrowLeft.mouseover" end="arrowLeft.mouseout"/>
                  </use>
                  <path fill="none" stroke="white" stroke-width="1.5" d="M0,-3.0v7 M-2.5,-0.5L0,-3.0L2.5,-0.5"/>
                </g>
        </g>
        <svg viewBox="0 0 15 15" width="100%" height="30px" preserveAspectRatio="xMaxYMin meet">
         <g id="arrow_out" transform="scale(0.3 0.3)">
          <a xlink:href="structuxn_1_1patl_1_1super__maxrep__iterator_1_1functor__coll__graph_org.svg" target="_base">
           <rect id="button" ry="5" rx="5" y="6" x="6" height="38" width="38"
                fill="#f2f5e9" fill-opacity="0.5" stroke="#606060" stroke-width="1.0"/>
           <path id="arrow"
             d="M 11.500037,31.436501 C 11.940474,20.09759 22.043105,11.32322 32.158766,21.979434 L 37.068811,17.246167 C 37.068811,17.246167 37.088388,32 37.088388,32 L 22.160133,31.978069 C 22.160133,31.978069 26.997745,27.140456 26.997745,27.140456 C 18.528582,18.264221 13.291696,25.230495 11.500037,31.436501 z"
             style="fill:#404040;"/>
          </a>
         </g>
        </svg>
</svg>
