<?xml version="1.0" encoding="UTF-8" standalone="no"?>
<!DOCTYPE svg PUBLIC "-//W3C//DTD SVG 1.1//EN"
 "http://www.w3.org/Graphics/SVG/1.1/DTD/svg11.dtd">
<!-- Generated by graphviz version 5.0.1 (20220820.1526)
 -->
<!-- Title: uxn::patl::aux::is_cyrillic_letter Pages: 1 -->
<svg width="486pt" height="88pt"
 viewBox="0.00 0.00 486.00 88.00" xmlns="http://www.w3.org/2000/svg" xmlns:xlink="http://www.w3.org/1999/xlink">
<g id="graph0" class="graph" transform="scale(1 1) rotate(0) translate(4 84)">
<title>uxn::patl::aux::is_cyrillic_letter</title>
<!-- Node1 -->
<g id="node1" class="node">
<title>Node1</title>
<g id="a_node1"><a xlink:title=" ">
<polygon fill="#bfbfbf" stroke="black" points="380,-24.5 380,-54.5 478,-54.5 478,-24.5 380,-24.5"/>
<text text-anchor="start" x="388" y="-42.5" font-family="Helvetica,sans-Serif" font-size="10.00">uxn::patl::aux::is</text>
<text text-anchor="middle" x="429" y="-31.5" font-family="Helvetica,sans-Serif" font-size="10.00">_cyrillic_letter</text>
</a>
</g>
</g>
<!-- Node2 -->
<g id="node2" class="node">
<title>Node2</title>
<g id="a_node2"><a xlink:href="../../df/d91/namespaceuxn_1_1patl_1_1aux.html#ac4a0c576e61ce3ebbce3a9b5eec3103a" target="_top" xlink:title=" ">
<polygon fill="none" stroke="black" points="246,-49.5 246,-79.5 344,-79.5 344,-49.5 246,-49.5"/>
<text text-anchor="start" x="254" y="-67.5" font-family="Helvetica,sans-Serif" font-size="10.00">uxn::patl::aux::is</text>
<text text-anchor="middle" x="295" y="-56.5" font-family="Helvetica,sans-Serif" font-size="10.00">_letter</text>
</a>
</g>
</g>
<!-- Node1&#45;&gt;Node2 -->
<g id="edge1" class="edge">
<title>Node1&#45;&gt;Node2</title>
<path fill="none" stroke="midnightblue" d="M369.99,-50.49C361.38,-52.12 352.59,-53.78 344.21,-55.37"/>
<polygon fill="midnightblue" stroke="midnightblue" points="370.8,-53.9 379.97,-48.6 369.49,-47.02 370.8,-53.9"/>
</g>
<!-- Node4 -->
<g id="node4" class="node">
<title>Node4</title>
<g id="a_node4"><a xlink:href="../../df/d91/namespaceuxn_1_1patl_1_1aux.html#a736d124302d1c40d83eefaf2298c7ae5" target="_top" xlink:title=" ">
<polygon fill="none" stroke="black" points="246,-0.5 246,-30.5 344,-30.5 344,-0.5 246,-0.5"/>
<text text-anchor="start" x="254" y="-18.5" font-family="Helvetica,sans-Serif" font-size="10.00">uxn::patl::aux::is</text>
<text text-anchor="middle" x="295" y="-7.5" font-family="Helvetica,sans-Serif" font-size="10.00">_proper_char</text>
</a>
</g>
</g>
<!-- Node1&#45;&gt;Node4 -->
<g id="edge3" class="edge">
<title>Node1&#45;&gt;Node4</title>
<path fill="none" stroke="midnightblue" d="M369.99,-28.95C361.38,-27.39 352.59,-25.79 344.21,-24.27"/>
<polygon fill="midnightblue" stroke="midnightblue" points="369.51,-32.42 379.97,-30.77 370.76,-25.54 369.51,-32.42"/>
</g>
<!-- Node3 -->
<g id="node3" class="node">
<title>Node3</title>
<g id="a_node3"><a xlink:href="../../d1/d40/word__suffix_8cpp.html#ab88664b35c3f6055fb7fbe28bb27cc78" target="_top" xlink:title=" ">
<polygon fill="none" stroke="black" points="131,-55 131,-74 210,-74 210,-55 131,-55"/>
<text text-anchor="middle" x="170.5" y="-62" font-family="Helvetica,sans-Serif" font-size="10.00">parse_fiction</text>
</a>
</g>
</g>
<!-- Node2&#45;&gt;Node3 -->
<g id="edge2" class="edge">
<title>Node2&#45;&gt;Node3</title>
<path fill="none" stroke="midnightblue" d="M235.86,-64.5C227.21,-64.5 218.48,-64.5 210.35,-64.5"/>
<polygon fill="midnightblue" stroke="midnightblue" points="235.94,-68 245.94,-64.5 235.94,-61 235.94,-68"/>
</g>
<!-- Node5 -->
<g id="node5" class="node">
<title>Node5</title>
<g id="a_node5"><a xlink:href="../../d1/d40/word__suffix_8cpp.html#adedb0faf6ddaaa3818dc9211e63ed00c" target="_top" xlink:title=" ">
<polygon fill="none" stroke="black" points="136.5,-6 136.5,-25 204.5,-25 204.5,-6 136.5,-6"/>
<text text-anchor="middle" x="170.5" y="-13" font-family="Helvetica,sans-Serif" font-size="10.00">parse_text</text>
</a>
</g>
</g>
<!-- Node4&#45;&gt;Node5 -->
<g id="edge4" class="edge">
<title>Node4&#45;&gt;Node5</title>
<path fill="none" stroke="midnightblue" d="M235.78,-15.5C225.11,-15.5 214.31,-15.5 204.69,-15.5"/>
<polygon fill="midnightblue" stroke="midnightblue" points="235.94,-19 245.94,-15.5 235.94,-12 235.94,-19"/>
</g>
<!-- Node6 -->
<g id="node6" class="node">
<title>Node6</title>
<g id="a_node6"><a xlink:href="../../d1/d40/word__suffix_8cpp.html#a5d4503e5be07846fb25c7fb9d5dab7c3" target="_top" xlink:title=" ">
<polygon fill="none" stroke="black" points="0,-6 0,-25 95,-25 95,-6 0,-6"/>
<text text-anchor="middle" x="47.5" y="-13" font-family="Helvetica,sans-Serif" font-size="10.00">loadNoiseWords</text>
</a>
</g>
</g>
<!-- Node5&#45;&gt;Node6 -->
<g id="edge5" class="edge">
<title>Node5&#45;&gt;Node6</title>
<path fill="none" stroke="midnightblue" d="M126.23,-15.5C116.14,-15.5 105.36,-15.5 95.13,-15.5"/>
<polygon fill="midnightblue" stroke="midnightblue" points="126.44,-19 136.44,-15.5 126.44,-12 126.44,-19"/>
</g>
</g>
</svg>
