<?xml version="1.0" encoding="UTF-8" standalone="no"?>
<!DOCTYPE svg PUBLIC "-//W3C//DTD SVG 1.1//EN"
 "http://www.w3.org/Graphics/SVG/1.1/DTD/svg11.dtd">
<!-- Generated by graphviz version 5.0.1 (20220820.1526)
 -->
<!-- Title: uxn::patl::aux::is_proper_char Pages: 1 -->
<svg width="341pt" height="39pt"
 viewBox="0.00 0.00 341.00 39.00" xmlns="http://www.w3.org/2000/svg" xmlns:xlink="http://www.w3.org/1999/xlink">
<g id="graph0" class="graph" transform="scale(1 1) rotate(0) translate(4 35)">
<title>uxn::patl::aux::is_proper_char</title>
<!-- Node1 -->
<g id="node1" class="node">
<title>Node1</title>
<g id="a_node1"><a xlink:title=" ">
<polygon fill="#bfbfbf" stroke="black" points="235,-0.5 235,-30.5 333,-30.5 333,-0.5 235,-0.5"/>
<text text-anchor="start" x="243" y="-18.5" font-family="Helvetica,sans-Serif" font-size="10.00">uxn::patl::aux::is</text>
<text text-anchor="middle" x="284" y="-7.5" font-family="Helvetica,sans-Serif" font-size="10.00">_proper_char</text>
</a>
</g>
</g>
<!-- Node2 -->
<g id="node2" class="node">
<title>Node2</title>
<g id="a_node2"><a xlink:href="../../d1/d40/word__suffix_8cpp.html#adedb0faf6ddaaa3818dc9211e63ed00c" target="_top" xlink:title=" ">
<polygon fill="none" stroke="black" points="131,-6 131,-25 199,-25 199,-6 131,-6"/>
<text text-anchor="middle" x="165" y="-13" font-family="Helvetica,sans-Serif" font-size="10.00">parse_text</text>
</a>
</g>
</g>
<!-- Node1&#45;&gt;Node2 -->
<g id="edge1" class="edge">
<title>Node1&#45;&gt;Node2</title>
<path fill="none" stroke="midnightblue" d="M224.55,-15.5C215.84,-15.5 207.12,-15.5 199.17,-15.5"/>
<polygon fill="midnightblue" stroke="midnightblue" points="224.74,-19 234.74,-15.5 224.74,-12 224.74,-19"/>
</g>
<!-- Node3 -->
<g id="node3" class="node">
<title>Node3</title>
<g id="a_node3"><a xlink:href="../../d1/d40/word__suffix_8cpp.html#a5d4503e5be07846fb25c7fb9d5dab7c3" target="_top" xlink:title=" ">
<polygon fill="none" stroke="black" points="0,-6 0,-25 95,-25 95,-6 0,-6"/>
<text text-anchor="middle" x="47.5" y="-13" font-family="Helvetica,sans-Serif" font-size="10.00">loadNoiseWords</text>
</a>
</g>
</g>
<!-- Node2&#45;&gt;Node3 -->
<g id="edge2" class="edge">
<title>Node2&#45;&gt;Node3</title>
<path fill="none" stroke="midnightblue" d="M120.71,-15.5C112.44,-15.5 103.75,-15.5 95.37,-15.5"/>
<polygon fill="midnightblue" stroke="midnightblue" points="120.9,-19 130.9,-15.5 120.9,-12 120.9,-19"/>
</g>
</g>
</svg>
