<?xml version="1.0" encoding="UTF-8" standalone="no"?>
<!DOCTYPE svg PUBLIC "-//W3C//DTD SVG 1.1//EN"
 "http://www.w3.org/Graphics/SVG/1.1/DTD/svg11.dtd">
<!-- Generated by graphviz version 5.0.1 (20220820.1526)
 -->
<!-- Title: uxn::patl::aux::is_latin_letter Pages: 1 -->
<svg width="355pt" height="39pt"
 viewBox="0.00 0.00 355.00 39.00" xmlns="http://www.w3.org/2000/svg" xmlns:xlink="http://www.w3.org/1999/xlink">
<g id="graph0" class="graph" transform="scale(1 1) rotate(0) translate(4 35)">
<title>uxn::patl::aux::is_latin_letter</title>
<!-- Node1 -->
<g id="node1" class="node">
<title>Node1</title>
<g id="a_node1"><a xlink:title=" ">
<polygon fill="#bfbfbf" stroke="black" points="249,-0.5 249,-30.5 347,-30.5 347,-0.5 249,-0.5"/>
<text text-anchor="start" x="257" y="-18.5" font-family="Helvetica,sans-Serif" font-size="10.00">uxn::patl::aux::is</text>
<text text-anchor="middle" x="298" y="-7.5" font-family="Helvetica,sans-Serif" font-size="10.00">_latin_letter</text>
</a>
</g>
</g>
<!-- Node2 -->
<g id="node2" class="node">
<title>Node2</title>
<g id="a_node2"><a xlink:href="../../df/d91/namespaceuxn_1_1patl_1_1aux.html#ac4a0c576e61ce3ebbce3a9b5eec3103a" target="_top" xlink:title=" ">
<polygon fill="none" stroke="black" points="115,-0.5 115,-30.5 213,-30.5 213,-0.5 115,-0.5"/>
<text text-anchor="start" x="123" y="-18.5" font-family="Helvetica,sans-Serif" font-size="10.00">uxn::patl::aux::is</text>
<text text-anchor="middle" x="164" y="-7.5" font-family="Helvetica,sans-Serif" font-size="10.00">_letter</text>
</a>
</g>
</g>
<!-- Node1&#45;&gt;Node2 -->
<g id="edge1" class="edge">
<title>Node1&#45;&gt;Node2</title>
<path fill="none" stroke="midnightblue" d="M238.71,-15.5C230.19,-15.5 221.5,-15.5 213.21,-15.5"/>
<polygon fill="midnightblue" stroke="midnightblue" points="238.97,-19 248.97,-15.5 238.97,-12 238.97,-19"/>
</g>
<!-- Node3 -->
<g id="node3" class="node">
<title>Node3</title>
<g id="a_node3"><a xlink:href="../../d1/d40/word__suffix_8cpp.html#ab88664b35c3f6055fb7fbe28bb27cc78" target="_top" xlink:title=" ">
<polygon fill="none" stroke="black" points="0,-6 0,-25 79,-25 79,-6 0,-6"/>
<text text-anchor="middle" x="39.5" y="-13" font-family="Helvetica,sans-Serif" font-size="10.00">parse_fiction</text>
</a>
</g>
</g>
<!-- Node2&#45;&gt;Node3 -->
<g id="edge2" class="edge">
<title>Node2&#45;&gt;Node3</title>
<path fill="none" stroke="midnightblue" d="M104.86,-15.5C96.21,-15.5 87.48,-15.5 79.35,-15.5"/>
<polygon fill="midnightblue" stroke="midnightblue" points="104.94,-19 114.94,-15.5 104.94,-12 104.94,-19"/>
</g>
</g>
</svg>
