<?xml version="1.0" encoding="UTF-8" standalone="no"?>
<!DOCTYPE svg PUBLIC "-//W3C//DTD SVG 1.1//EN"
 "http://www.w3.org/Graphics/SVG/1.1/DTD/svg11.dtd">
<!-- Generated by graphviz version 5.0.1 (20220820.1526)
 -->
<!-- Title: uxn::patl::aux::delete_file Pages: 1 -->
<svg width="498pt" height="78pt"
 viewBox="0.00 0.00 498.00 77.50" xmlns="http://www.w3.org/2000/svg" xmlns:xlink="http://www.w3.org/1999/xlink">
<g id="graph0" class="graph" transform="scale(1 1) rotate(0) translate(4 73.5)">
<title>uxn::patl::aux::delete_file</title>
<!-- Node1 -->
<g id="node1" class="node">
<title>Node1</title>
<g id="a_node1"><a xlink:title=" ">
<polygon fill="#bfbfbf" stroke="black" points="350,-22.5 350,-41.5 490,-41.5 490,-22.5 350,-22.5"/>
<text text-anchor="middle" x="420" y="-29.5" font-family="Helvetica,sans-Serif" font-size="10.00">uxn::patl::aux::delete_file</text>
</a>
</g>
</g>
<!-- Node2 -->
<g id="node2" class="node">
<title>Node2</title>
<g id="a_node2"><a xlink:href="../../de/d34/classstrings__from__merged__files__generator.html#a8ab3c0c3cf568cf9fdd52ca2d7f7299a" target="_top" xlink:title=" ">
<polygon fill="none" stroke="black" points="163,-39 163,-69 314,-69 314,-39 163,-39"/>
<text text-anchor="start" x="171" y="-57" font-family="Helvetica,sans-Serif" font-size="10.00">strings_from_merged</text>
<text text-anchor="middle" x="238.5" y="-46" font-family="Helvetica,sans-Serif" font-size="10.00">_files_generator::delete_src</text>
</a>
</g>
</g>
<!-- Node1&#45;&gt;Node2 -->
<g id="edge1" class="edge">
<title>Node1&#45;&gt;Node2</title>
<path fill="none" stroke="midnightblue" d="M339.93,-41.69C331.4,-42.74 322.74,-43.8 314.27,-44.84"/>
<polygon fill="midnightblue" stroke="midnightblue" points="340.36,-45.16 349.86,-40.47 339.51,-38.22 340.36,-45.16"/>
</g>
<!-- Node4 -->
<g id="node4" class="node">
<title>Node4</title>
<g id="a_node4"><a xlink:href="../../da/d22/sort__lin_8cpp.html#a2f51d3a4cc778d255bd27a465be2986b" target="_top" xlink:title=" ">
<polygon fill="none" stroke="black" points="183.5,-0.5 183.5,-19.5 293.5,-19.5 293.5,-0.5 183.5,-0.5"/>
<text text-anchor="middle" x="238.5" y="-7.5" font-family="Helvetica,sans-Serif" font-size="10.00">sort_huge_text_file</text>
</a>
</g>
</g>
<!-- Node1&#45;&gt;Node4 -->
<g id="edge3" class="edge">
<title>Node1&#45;&gt;Node4</title>
<path fill="none" stroke="midnightblue" d="M339.69,-22.28C324.1,-20.37 308.09,-18.41 293.56,-16.63"/>
<polygon fill="midnightblue" stroke="midnightblue" points="339.51,-25.78 349.86,-23.53 340.36,-18.84 339.51,-25.78"/>
</g>
<!-- Node3 -->
<g id="node3" class="node">
<title>Node3</title>
<g id="a_node3"><a xlink:href="../../de/d34/classstrings__from__merged__files__generator.html#a85dd314b7f28a6c9daeb4f0fe255508f" target="_top" xlink:title=" ">
<polygon fill="none" stroke="black" points="0,-39 0,-69 127,-69 127,-39 0,-39"/>
<text text-anchor="start" x="8" y="-57" font-family="Helvetica,sans-Serif" font-size="10.00">strings_from_merged</text>
<text text-anchor="middle" x="63.5" y="-46" font-family="Helvetica,sans-Serif" font-size="10.00">_files_generator::while</text>
</a>
</g>
</g>
<!-- Node2&#45;&gt;Node3 -->
<g id="edge2" class="edge">
<title>Node2&#45;&gt;Node3</title>
<path fill="none" stroke="midnightblue" d="M152.79,-54C144.18,-54 135.54,-54 127.22,-54"/>
<polygon fill="midnightblue" stroke="midnightblue" points="152.88,-57.5 162.88,-54 152.88,-50.5 152.88,-57.5"/>
</g>
<!-- Node5 -->
<g id="node5" class="node">
<title>Node5</title>
<g id="a_node5"><a xlink:href="../../da/d22/sort__lin_8cpp.html#a0ddf1224851353fc92bfbff6f499fa97" target="_top" xlink:title=" ">
<polygon fill="none" stroke="black" points="43,-0.5 43,-19.5 84,-19.5 84,-0.5 43,-0.5"/>
<text text-anchor="middle" x="63.5" y="-7.5" font-family="Helvetica,sans-Serif" font-size="10.00">main</text>
</a>
</g>
</g>
<!-- Node4&#45;&gt;Node5 -->
<g id="edge4" class="edge">
<title>Node4&#45;&gt;Node5</title>
<path fill="none" stroke="midnightblue" d="M173.17,-10C141.64,-10 105.9,-10 84.29,-10"/>
<polygon fill="midnightblue" stroke="midnightblue" points="173.24,-13.5 183.24,-10 173.24,-6.5 173.24,-13.5"/>
</g>
</g>
</svg>
