<?xml version="1.0" encoding="UTF-8" standalone="no"?>
<!DOCTYPE svg PUBLIC "-//W3C//DTD SVG 1.1//EN"
 "http://www.w3.org/Graphics/SVG/1.1/DTD/svg11.dtd">
<!-- Generated by graphviz version 5.0.1 (20220820.1526)
 -->
<!-- Title: uxn::patl::aux::get_long_file_length Pages: 1 -->
<svg width="286pt" height="149pt"
 viewBox="0.00 0.00 286.00 149.00" xmlns="http://www.w3.org/2000/svg" xmlns:xlink="http://www.w3.org/1999/xlink">
<g id="graph0" class="graph" transform="scale(1 1) rotate(0) translate(4 145)">
<title>uxn::patl::aux::get_long_file_length</title>
<!-- Node1 -->
<g id="node1" class="node">
<title>Node1</title>
<g id="a_node1"><a xlink:title=" ">
<polygon fill="#bfbfbf" stroke="black" points="173,-55.5 173,-85.5 278,-85.5 278,-55.5 173,-55.5"/>
<text text-anchor="start" x="181" y="-73.5" font-family="Helvetica,sans-Serif" font-size="10.00">uxn::patl::aux::get</text>
<text text-anchor="middle" x="225.5" y="-62.5" font-family="Helvetica,sans-Serif" font-size="10.00">_long_file_length</text>
</a>
</g>
</g>
<!-- Node2 -->
<g id="node2" class="node">
<title>Node2</title>
<g id="a_node2"><a xlink:href="../../d7/d91/classuxn_1_1patl_1_1aux_1_1buffered__base.html#ad316e1bb147302937d7df7b4b968cc1b" target="_top" xlink:title=" ">
<polygon fill="none" stroke="black" points="3.5,-110.5 3.5,-140.5 133.5,-140.5 133.5,-110.5 3.5,-110.5"/>
<text text-anchor="start" x="11.5" y="-128.5" font-family="Helvetica,sans-Serif" font-size="10.00">uxn::patl::aux::buffered</text>
<text text-anchor="middle" x="68.5" y="-117.5" font-family="Helvetica,sans-Serif" font-size="10.00">_base::get_file_length</text>
</a>
</g>
</g>
<!-- Node1&#45;&gt;Node2 -->
<g id="edge1" class="edge">
<title>Node1&#45;&gt;Node2</title>
<path fill="none" stroke="midnightblue" d="M172.66,-88.89C152.89,-95.91 130.59,-103.82 111.8,-110.49"/>
<polygon fill="midnightblue" stroke="midnightblue" points="173.89,-92.17 182.15,-85.53 171.55,-85.57 173.89,-92.17"/>
</g>
<!-- Node3 -->
<g id="node3" class="node">
<title>Node3</title>
<g id="a_node3"><a xlink:href="../../d7/d4d/classuxn_1_1patl_1_1aux_1_1file__mapping__input.html#a255052f5c914b685512a30968e6bddd9" target="_top" xlink:title=" ">
<polygon fill="none" stroke="black" points="0,-50 0,-91 137,-91 137,-50 0,-50"/>
<text text-anchor="start" x="8" y="-79" font-family="Helvetica,sans-Serif" font-size="10.00">uxn::patl::aux::file</text>
<text text-anchor="start" x="8" y="-68" font-family="Helvetica,sans-Serif" font-size="10.00">_mapping_input::get_file</text>
<text text-anchor="middle" x="68.5" y="-57" font-family="Helvetica,sans-Serif" font-size="10.00">_length</text>
</a>
</g>
</g>
<!-- Node1&#45;&gt;Node3 -->
<g id="edge2" class="edge">
<title>Node1&#45;&gt;Node3</title>
<path fill="none" stroke="midnightblue" d="M162.77,-70.5C154.35,-70.5 145.68,-70.5 137.16,-70.5"/>
<polygon fill="midnightblue" stroke="midnightblue" points="162.89,-74 172.89,-70.5 162.89,-67 162.89,-74"/>
</g>
<!-- Node4 -->
<g id="node4" class="node">
<title>Node4</title>
<g id="a_node4"><a xlink:href="../../de/d34/classstrings__from__merged__files__generator.html#a85dd314b7f28a6c9daeb4f0fe255508f" target="_top" xlink:title=" ">
<polygon fill="none" stroke="black" points="5,-0.5 5,-30.5 132,-30.5 132,-0.5 5,-0.5"/>
<text text-anchor="start" x="13" y="-18.5" font-family="Helvetica,sans-Serif" font-size="10.00">strings_from_merged</text>
<text text-anchor="middle" x="68.5" y="-7.5" font-family="Helvetica,sans-Serif" font-size="10.00">_files_generator::while</text>
</a>
</g>
</g>
<!-- Node1&#45;&gt;Node4 -->
<g id="edge3" class="edge">
<title>Node1&#45;&gt;Node4</title>
<path fill="none" stroke="midnightblue" d="M172.66,-52.11C152.89,-45.09 130.59,-37.18 111.8,-30.51"/>
<polygon fill="midnightblue" stroke="midnightblue" points="171.55,-55.43 182.15,-55.47 173.89,-48.83 171.55,-55.43"/>
</g>
</g>
</svg>
