<?xml version="1.0" encoding="UTF-8" standalone="no"?>
<!DOCTYPE svg PUBLIC "-//W3C//DTD SVG 1.1//EN"
 "http://www.w3.org/Graphics/SVG/1.1/DTD/svg11.dtd">
<!-- Generated by graphviz version 5.0.1 (20220820.1526)
 -->
<!-- Title: uxn::patl::impl::ring_buffer&lt; Type, Allocator &gt; Pages: 1 -->
<svg width="175pt" height="601pt"
 viewBox="0.00 0.00 175.00 601.00" xmlns="http://www.w3.org/2000/svg" xmlns:xlink="http://www.w3.org/1999/xlink">
<g id="graph0" class="graph" transform="scale(1 1) rotate(0) translate(4 597)">
<title>uxn::patl::impl::ring_buffer&lt; Type, Allocator &gt;</title>
<!-- Node1 -->
<g id="node1" class="node">
<title>Node1</title>
<g id="a_node1"><a xlink:title=" ">
<polygon fill="#bfbfbf" stroke="black" points="0,-0.5 0,-277.5 167,-277.5 167,-0.5 0,-0.5"/>
<text text-anchor="start" x="8" y="-265.5" font-family="Helvetica,sans-Serif" font-size="10.00">uxn::patl::impl::ring</text>
<text text-anchor="middle" x="83.5" y="-254.5" font-family="Helvetica,sans-Serif" font-size="10.00">_buffer&lt; Type, Allocator &gt;</text>
<polyline fill="none" stroke="black" points="0,-247.5 167,-247.5"/>
<text text-anchor="start" x="8" y="-235.5" font-family="Helvetica,sans-Serif" font-size="10.00">&#45; pointer head_</text>
<text text-anchor="start" x="8" y="-224.5" font-family="Helvetica,sans-Serif" font-size="10.00">&#45; pointer tail_</text>
<text text-anchor="start" x="8" y="-213.5" font-family="Helvetica,sans-Serif" font-size="10.00">&#45; pointer begin_</text>
<text text-anchor="start" x="8" y="-202.5" font-family="Helvetica,sans-Serif" font-size="10.00">&#45; pointer end_</text>
<text text-anchor="start" x="8" y="-191.5" font-family="Helvetica,sans-Serif" font-size="10.00">&#45; size_type size_</text>
<polyline fill="none" stroke="black" points="0,-184.5 167,-184.5"/>
<text text-anchor="start" x="8" y="-172.5" font-family="Helvetica,sans-Serif" font-size="10.00">+ ring_buffer(size_type</text>
<text text-anchor="start" x="8" y="-161.5" font-family="Helvetica,sans-Serif" font-size="10.00"> initSize, const allocator</text>
<text text-anchor="start" x="8" y="-150.5" font-family="Helvetica,sans-Serif" font-size="10.00">_type &amp;alloc=allocator_type())</text>
<text text-anchor="start" x="8" y="-139.5" font-family="Helvetica,sans-Serif" font-size="10.00">+ ~ring_buffer()</text>
<text text-anchor="start" x="8" y="-128.5" font-family="Helvetica,sans-Serif" font-size="10.00">+ void clear()</text>
<text text-anchor="start" x="8" y="-117.5" font-family="Helvetica,sans-Serif" font-size="10.00">+ bool empty() const</text>
<text text-anchor="start" x="8" y="-106.5" font-family="Helvetica,sans-Serif" font-size="10.00">+ bool endpoint() const</text>
<text text-anchor="start" x="8" y="-95.5" font-family="Helvetica,sans-Serif" font-size="10.00">+ size_type size() const</text>
<text text-anchor="start" x="8" y="-84.5" font-family="Helvetica,sans-Serif" font-size="10.00">+ size_type capacity</text>
<text text-anchor="start" x="8" y="-73.5" font-family="Helvetica,sans-Serif" font-size="10.00">() const</text>
<text text-anchor="start" x="8" y="-62.5" font-family="Helvetica,sans-Serif" font-size="10.00">+ void push_back(const</text>
<text text-anchor="start" x="8" y="-51.5" font-family="Helvetica,sans-Serif" font-size="10.00">_reference value)</text>
<text text-anchor="start" x="8" y="-40.5" font-family="Helvetica,sans-Serif" font-size="10.00">+ void pop_front()</text>
<text text-anchor="start" x="8" y="-29.5" font-family="Helvetica,sans-Serif" font-size="10.00">+ void push_front(const</text>
<text text-anchor="start" x="8" y="-18.5" font-family="Helvetica,sans-Serif" font-size="10.00">_reference value)</text>
<text text-anchor="start" x="8" y="-7.5" font-family="Helvetica,sans-Serif" font-size="10.00">and 13 more...</text>
</a>
</g>
</g>
<!-- Node2 -->
<g id="node2" class="node">
<title>Node2</title>
<g id="a_node2"><a xlink:title=" ">
<polygon fill="none" stroke="black" points="21,-325.5 21,-382.5 146,-382.5 146,-325.5 21,-325.5"/>
<text text-anchor="middle" x="83.5" y="-370.5" font-family="Helvetica,sans-Serif" font-size="10.00">std::allocator&lt; Type &gt;</text>
<polyline fill="none" stroke="black" points="21,-363.5 146,-363.5"/>
<text text-anchor="start" x="29" y="-351.5" font-family="Helvetica,sans-Serif" font-size="10.00">+ Type elements</text>
<polyline fill="none" stroke="black" points="21,-344.5 146,-344.5"/>
<text text-anchor="middle" x="83.5" y="-332.5" font-family="Helvetica,sans-Serif" font-size="10.00"> </text>
</a>
</g>
</g>
<!-- Node2&#45;&gt;Node1 -->
<g id="edge1" class="edge">
<title>Node2&#45;&gt;Node1</title>
<path fill="none" stroke="#404040" d="M83.5,-325.15C83.5,-315.23 83.5,-303.24 83.5,-290.19"/>
<polygon fill="none" stroke="#404040" points="83.5,-289.94 79.5,-283.94 83.5,-277.94 87.5,-283.94 83.5,-289.94"/>
<text text-anchor="middle" x="101.5" y="-299" font-family="Helvetica,sans-Serif" font-size="10.00"> &#45;alloc_</text>
</g>
<!-- Node3 -->
<g id="node3" class="node">
<title>Node3</title>
<g id="a_node3"><a xlink:title=" ">
<polygon fill="none" stroke="black" points="29,-430.5 29,-487.5 138,-487.5 138,-430.5 29,-430.5"/>
<text text-anchor="middle" x="83.5" y="-475.5" font-family="Helvetica,sans-Serif" font-size="10.00">std::allocator&lt; T &gt;</text>
<polyline fill="none" stroke="black" points="29,-468.5 138,-468.5"/>
<text text-anchor="middle" x="83.5" y="-456.5" font-family="Helvetica,sans-Serif" font-size="10.00"> </text>
<polyline fill="none" stroke="black" points="29,-449.5 138,-449.5"/>
<text text-anchor="middle" x="83.5" y="-437.5" font-family="Helvetica,sans-Serif" font-size="10.00"> </text>
</a>
</g>
</g>
<!-- Node3&#45;&gt;Node2 -->
<g id="edge2" class="edge">
<title>Node3&#45;&gt;Node2</title>
<path fill="none" stroke="orange" d="M83.5,-420.29C83.5,-407.84 83.5,-394.23 83.5,-382.68"/>
<polygon fill="orange" stroke="orange" points="80,-420.4 83.5,-430.4 87,-420.4 80,-420.4"/>
<text text-anchor="middle" x="108" y="-404" font-family="Helvetica,sans-Serif" font-size="10.00"> &lt; Type &gt;</text>
</g>
<!-- Node4 -->
<g id="node4" class="node">
<title>Node4</title>
<g id="a_node4"><a xlink:title=" ">
<polygon fill="none" stroke="black" points="69,-535.5 69,-592.5 98,-592.5 98,-535.5 69,-535.5"/>
<text text-anchor="middle" x="83.5" y="-580.5" font-family="Helvetica,sans-Serif" font-size="10.00">T</text>
<polyline fill="none" stroke="black" points="69,-573.5 98,-573.5"/>
<text text-anchor="middle" x="83.5" y="-561.5" font-family="Helvetica,sans-Serif" font-size="10.00"> </text>
<polyline fill="none" stroke="black" points="69,-554.5 98,-554.5"/>
<text text-anchor="middle" x="83.5" y="-542.5" font-family="Helvetica,sans-Serif" font-size="10.00"> </text>
</a>
</g>
</g>
<!-- Node4&#45;&gt;Node3 -->
<g id="edge3" class="edge">
<title>Node4&#45;&gt;Node3</title>
<path fill="none" stroke="#404040" d="M83.5,-535.4C83.5,-524.55 83.5,-511.87 83.5,-500.05"/>
<polygon fill="none" stroke="#404040" points="83.5,-499.68 79.5,-493.68 83.5,-487.68 87.5,-493.68 83.5,-499.68"/>
<text text-anchor="middle" x="112.5" y="-509" font-family="Helvetica,sans-Serif" font-size="10.00"> +elements</text>
</g>
</g>
</svg>
