<?xml version="1.0" encoding="UTF-8" standalone="no"?>
<!DOCTYPE svg PUBLIC "-//W3C//DTD SVG 1.1//EN"
 "http://www.w3.org/Graphics/SVG/1.1/DTD/svg11.dtd">
<!-- Generated by graphviz version 5.0.1 (20220820.1526)
 -->
<!-- Title: uxn::patl::impl::prefix_generic::postorder_descend Pages: 1 -->
<svg width="520pt" height="88pt"
 viewBox="0.00 0.00 520.00 88.00" xmlns="http://www.w3.org/2000/svg" xmlns:xlink="http://www.w3.org/1999/xlink">
<g id="graph0" class="graph" transform="scale(1 1) rotate(0) translate(4 84)">
<title>uxn::patl::impl::prefix_generic::postorder_descend</title>
<!-- Node1 -->
<g id="node1" class="node">
<title>Node1</title>
<g id="a_node1"><a xlink:title=" ">
<polygon fill="#bfbfbf" stroke="black" points="356,-22.5 356,-52.5 512,-52.5 512,-22.5 356,-22.5"/>
<text text-anchor="start" x="364" y="-40.5" font-family="Helvetica,sans-Serif" font-size="10.00">uxn::patl::impl::prefix</text>
<text text-anchor="middle" x="434" y="-29.5" font-family="Helvetica,sans-Serif" font-size="10.00">_generic::postorder_descend</text>
</a>
</g>
</g>
<!-- Node2 -->
<g id="node2" class="node">
<title>Node2</title>
<g id="a_node2"><a xlink:href="../../dc/d2b/classuxn_1_1patl_1_1impl_1_1prefix__generic.html#a746969d129acd5c4e5e251379acc06a0" target="_top" xlink:title=" ">
<polygon fill="none" stroke="black" points="170,-44.5 170,-74.5 320,-74.5 320,-44.5 170,-44.5"/>
<text text-anchor="start" x="178" y="-62.5" font-family="Helvetica,sans-Serif" font-size="10.00">uxn::patl::impl::prefix</text>
<text text-anchor="middle" x="245" y="-51.5" font-family="Helvetica,sans-Serif" font-size="10.00">_generic::postorder_ascend</text>
</a>
</g>
</g>
<!-- Node1&#45;&gt;Node2 -->
<g id="edge1" class="edge">
<title>Node1&#45;&gt;Node2</title>
<path fill="none" stroke="midnightblue" d="M345.86,-47.75C337.3,-48.76 328.67,-49.77 320.25,-50.76"/>
<polygon fill="midnightblue" stroke="midnightblue" points="346.34,-51.22 355.86,-46.58 345.52,-44.27 346.34,-51.22"/>
</g>
<!-- Node4 -->
<g id="node4" class="node">
<title>Node4</title>
<g id="a_node4"><a xlink:href="../../dc/d2b/classuxn_1_1patl_1_1impl_1_1prefix__generic.html#a93119fdee44aa8a924b9df88838dc944" target="_top" xlink:title=" ">
<polygon fill="none" stroke="black" points="1.5,-0.5 1.5,-30.5 132.5,-30.5 132.5,-0.5 1.5,-0.5"/>
<text text-anchor="start" x="9.5" y="-18.5" font-family="Helvetica,sans-Serif" font-size="10.00">uxn::patl::impl::prefix</text>
<text text-anchor="middle" x="67" y="-7.5" font-family="Helvetica,sans-Serif" font-size="10.00">_generic::postorder_init</text>
</a>
</g>
</g>
<!-- Node1&#45;&gt;Node4 -->
<g id="edge4" class="edge">
<title>Node1&#45;&gt;Node4</title>
<path fill="none" stroke="midnightblue" d="M345.28,-32.21C279.75,-28.26 191.65,-22.95 132.51,-19.39"/>
<polygon fill="midnightblue" stroke="midnightblue" points="345.4,-35.73 355.59,-32.83 345.82,-28.74 345.4,-35.73"/>
</g>
<!-- Node3 -->
<g id="node3" class="node">
<title>Node3</title>
<g id="a_node3"><a xlink:href="../../dc/d2b/classuxn_1_1patl_1_1impl_1_1prefix__generic.html#aeebdaa4e6c7f17543885cdd0e9ca9352" target="_top" xlink:title=" ">
<polygon fill="none" stroke="black" points="0,-49.5 0,-79.5 134,-79.5 134,-49.5 0,-49.5"/>
<text text-anchor="start" x="8" y="-67.5" font-family="Helvetica,sans-Serif" font-size="10.00">uxn::patl::impl::prefix</text>
<text text-anchor="middle" x="67" y="-56.5" font-family="Helvetica,sans-Serif" font-size="10.00">_generic::postorder_incr</text>
</a>
</g>
</g>
<!-- Node2&#45;&gt;Node3 -->
<g id="edge2" class="edge">
<title>Node2&#45;&gt;Node3</title>
<path fill="none" stroke="midnightblue" d="M159.82,-61.89C151.22,-62.14 142.58,-62.38 134.21,-62.62"/>
<polygon fill="midnightblue" stroke="midnightblue" points="159.97,-65.39 169.87,-61.61 159.77,-58.39 159.97,-65.39"/>
</g>
<!-- Node2&#45;&gt;Node4 -->
<g id="edge3" class="edge">
<title>Node2&#45;&gt;Node4</title>
<path fill="none" stroke="midnightblue" d="M174.06,-42.01C158.85,-38.21 142.89,-34.22 128.1,-30.53"/>
<polygon fill="midnightblue" stroke="midnightblue" points="173.37,-45.45 183.92,-44.48 175.07,-38.66 173.37,-45.45"/>
</g>
</g>
</svg>
