<?xml version="1.0" encoding="UTF-8" standalone="no"?>
<!DOCTYPE svg PUBLIC "-//W3C//DTD SVG 1.1//EN"
 "http://www.w3.org/Graphics/SVG/1.1/DTD/svg11.dtd">
<!-- Generated by graphviz version 5.0.1 (20220820.1526)
 -->
<!-- Title: uxn::patl::impl::prefix_generic::postorder_ascend Pages: 1 -->
<svg width="328pt" height="88pt"
 viewBox="0.00 0.00 328.00 88.00" xmlns="http://www.w3.org/2000/svg" xmlns:xlink="http://www.w3.org/1999/xlink">
<g id="graph0" class="graph" transform="scale(1 1) rotate(0) translate(4 84)">
<title>uxn::patl::impl::prefix_generic::postorder_ascend</title>
<!-- Node1 -->
<g id="node1" class="node">
<title>Node1</title>
<g id="a_node1"><a xlink:title=" ">
<polygon fill="#bfbfbf" stroke="black" points="170,-24.5 170,-54.5 320,-54.5 320,-24.5 170,-24.5"/>
<text text-anchor="start" x="178" y="-42.5" font-family="Helvetica,sans-Serif" font-size="10.00">uxn::patl::impl::prefix</text>
<text text-anchor="middle" x="245" y="-31.5" font-family="Helvetica,sans-Serif" font-size="10.00">_generic::postorder_ascend</text>
</a>
</g>
</g>
<!-- Node2 -->
<g id="node2" class="node">
<title>Node2</title>
<g id="a_node2"><a xlink:href="../../dc/d2b/classuxn_1_1patl_1_1impl_1_1prefix__generic.html#aeebdaa4e6c7f17543885cdd0e9ca9352" target="_top" xlink:title=" ">
<polygon fill="none" stroke="black" points="0,-49.5 0,-79.5 134,-79.5 134,-49.5 0,-49.5"/>
<text text-anchor="start" x="8" y="-67.5" font-family="Helvetica,sans-Serif" font-size="10.00">uxn::patl::impl::prefix</text>
<text text-anchor="middle" x="67" y="-56.5" font-family="Helvetica,sans-Serif" font-size="10.00">_generic::postorder_incr</text>
</a>
</g>
</g>
<!-- Node1&#45;&gt;Node2 -->
<g id="edge1" class="edge">
<title>Node1&#45;&gt;Node2</title>
<path fill="none" stroke="midnightblue" d="M159.82,-51.46C151.22,-52.68 142.58,-53.91 134.21,-55.09"/>
<polygon fill="midnightblue" stroke="midnightblue" points="160.46,-54.9 169.87,-50.03 159.48,-47.97 160.46,-54.9"/>
</g>
<!-- Node3 -->
<g id="node3" class="node">
<title>Node3</title>
<g id="a_node3"><a xlink:href="../../dc/d2b/classuxn_1_1patl_1_1impl_1_1prefix__generic.html#a93119fdee44aa8a924b9df88838dc944" target="_top" xlink:title=" ">
<polygon fill="none" stroke="black" points="1.5,-0.5 1.5,-30.5 132.5,-30.5 132.5,-0.5 1.5,-0.5"/>
<text text-anchor="start" x="9.5" y="-18.5" font-family="Helvetica,sans-Serif" font-size="10.00">uxn::patl::impl::prefix</text>
<text text-anchor="middle" x="67" y="-7.5" font-family="Helvetica,sans-Serif" font-size="10.00">_generic::postorder_init</text>
</a>
</g>
</g>
<!-- Node1&#45;&gt;Node3 -->
<g id="edge2" class="edge">
<title>Node1&#45;&gt;Node3</title>
<path fill="none" stroke="midnightblue" d="M159.93,-28.04C150.73,-26.78 141.47,-25.52 132.56,-24.3"/>
<polygon fill="midnightblue" stroke="midnightblue" points="159.49,-31.51 169.87,-29.39 160.43,-24.57 159.49,-31.51"/>
</g>
</g>
</svg>
