<?xml version="1.0" encoding="UTF-8" standalone="no"?>
<!DOCTYPE svg PUBLIC "-//W3C//DTD SVG 1.1//EN"
 "http://www.w3.org/Graphics/SVG/1.1/DTD/svg11.dtd">
<!-- Generated by graphviz version 5.0.1 (20220820.1526)
 -->
<!-- Title: uxn::patl::impl::prefix_generic::skip Pages: 1 -->
<svg width="293pt" height="88pt"
 viewBox="0.00 0.00 293.00 88.00" xmlns="http://www.w3.org/2000/svg" xmlns:xlink="http://www.w3.org/1999/xlink">
<g id="graph0" class="graph" transform="scale(1 1) rotate(0) translate(4 84)">
<title>uxn::patl::impl::prefix_generic::skip</title>
<!-- Node1 -->
<g id="node1" class="node">
<title>Node1</title>
<g id="a_node1"><a xlink:title=" ">
<polygon fill="#bfbfbf" stroke="black" points="164,-24.5 164,-54.5 285,-54.5 285,-24.5 164,-24.5"/>
<text text-anchor="start" x="172" y="-42.5" font-family="Helvetica,sans-Serif" font-size="10.00">uxn::patl::impl::prefix</text>
<text text-anchor="middle" x="224.5" y="-31.5" font-family="Helvetica,sans-Serif" font-size="10.00">_generic::skip</text>
</a>
</g>
</g>
<!-- Node2 -->
<g id="node2" class="node">
<title>Node2</title>
<g id="a_node2"><a xlink:href="../../dc/d2b/classuxn_1_1patl_1_1impl_1_1prefix__generic.html#aea1b1ae6bd050eb4e2e00964a7c9cc69" target="_top" xlink:title=" ">
<polygon fill="none" stroke="black" points="3.5,-49.5 3.5,-79.5 124.5,-79.5 124.5,-49.5 3.5,-49.5"/>
<text text-anchor="start" x="11.5" y="-67.5" font-family="Helvetica,sans-Serif" font-size="10.00">uxn::patl::impl::prefix</text>
<text text-anchor="middle" x="64" y="-56.5" font-family="Helvetica,sans-Serif" font-size="10.00">_generic::length</text>
</a>
</g>
</g>
<!-- Node1&#45;&gt;Node2 -->
<g id="edge1" class="edge">
<title>Node1&#45;&gt;Node2</title>
<path fill="none" stroke="midnightblue" d="M153.63,-50.52C144,-52.04 134.17,-53.59 124.74,-55.08"/>
<polygon fill="midnightblue" stroke="midnightblue" points="154.25,-53.97 163.58,-48.95 153.15,-47.05 154.25,-53.97"/>
</g>
<!-- Node3 -->
<g id="node3" class="node">
<title>Node3</title>
<g id="a_node3"><a xlink:href="../../dc/d2b/classuxn_1_1patl_1_1impl_1_1prefix__generic.html#aabbfc2fc1cc72244603b1214c762faf0" target="_top" xlink:title=" ">
<polygon fill="none" stroke="black" points="0,-0.5 0,-30.5 128,-30.5 128,-0.5 0,-0.5"/>
<text text-anchor="start" x="8" y="-18.5" font-family="Helvetica,sans-Serif" font-size="10.00">uxn::patl::impl::prefix</text>
<text text-anchor="middle" x="64" y="-7.5" font-family="Helvetica,sans-Serif" font-size="10.00">_generic::symbol_limit</text>
</a>
</g>
</g>
<!-- Node1&#45;&gt;Node3 -->
<g id="edge2" class="edge">
<title>Node1&#45;&gt;Node3</title>
<path fill="none" stroke="midnightblue" d="M153.42,-28.89C145.02,-27.62 136.48,-26.32 128.18,-25.07"/>
<polygon fill="midnightblue" stroke="midnightblue" points="153.17,-32.39 163.58,-30.43 154.21,-25.47 153.17,-32.39"/>
</g>
</g>
</svg>
