<?xml version="1.0" encoding="UTF-8" standalone="no"?>
<!DOCTYPE svg PUBLIC "-//W3C//DTD SVG 1.1//EN"
 "http://www.w3.org/Graphics/SVG/1.1/DTD/svg11.dtd">
<!-- Generated by graphviz version 5.0.1 (20220820.1526)
 -->
<!-- Title: uxn::patl::impl::prefix_generic::postorder_init Pages: 1 -->
<svg width="517pt" height="61pt"
 viewBox="0.00 0.00 517.00 61.00" xmlns="http://www.w3.org/2000/svg" xmlns:xlink="http://www.w3.org/1999/xlink">
<g id="graph0" class="graph" transform="scale(1 1) rotate(0) translate(4 57)">
<title>uxn::patl::impl::prefix_generic::postorder_init</title>
<!-- Node1 -->
<g id="node1" class="node">
<title>Node1</title>
<g id="a_node1"><a xlink:title=" ">
<polygon fill="#bfbfbf" stroke="black" points="0,-0.5 0,-30.5 131,-30.5 131,-0.5 0,-0.5"/>
<text text-anchor="start" x="8" y="-18.5" font-family="Helvetica,sans-Serif" font-size="10.00">uxn::patl::impl::prefix</text>
<text text-anchor="middle" x="65.5" y="-7.5" font-family="Helvetica,sans-Serif" font-size="10.00">_generic::postorder_init</text>
</a>
</g>
</g>
<!-- Node2 -->
<g id="node2" class="node">
<title>Node2</title>
<g id="a_node2"><a xlink:href="../../dc/d2b/classuxn_1_1patl_1_1impl_1_1prefix__generic.html#a746969d129acd5c4e5e251379acc06a0" target="_top" xlink:title=" ">
<polygon fill="none" stroke="black" points="167,-22.5 167,-52.5 317,-52.5 317,-22.5 167,-22.5"/>
<text text-anchor="start" x="175" y="-40.5" font-family="Helvetica,sans-Serif" font-size="10.00">uxn::patl::impl::prefix</text>
<text text-anchor="middle" x="242" y="-29.5" font-family="Helvetica,sans-Serif" font-size="10.00">_generic::postorder_ascend</text>
</a>
</g>
</g>
<!-- Node1&#45;&gt;Node2 -->
<g id="edge1" class="edge">
<title>Node1&#45;&gt;Node2</title>
<path fill="none" stroke="midnightblue" d="M131.48,-23.69C139.77,-24.74 148.34,-25.82 156.88,-26.89"/>
<polygon fill="midnightblue" stroke="midnightblue" points="156.5,-30.37 166.86,-28.15 157.37,-23.43 156.5,-30.37"/>
</g>
<!-- Node3 -->
<g id="node3" class="node">
<title>Node3</title>
<g id="a_node3"><a xlink:href="../../dc/d2b/classuxn_1_1patl_1_1impl_1_1prefix__generic.html#a5b80193cc7b02963ab905ed5613027af" target="_top" xlink:title=" ">
<polygon fill="none" stroke="black" points="353,-0.5 353,-30.5 509,-30.5 509,-0.5 353,-0.5"/>
<text text-anchor="start" x="361" y="-18.5" font-family="Helvetica,sans-Serif" font-size="10.00">uxn::patl::impl::prefix</text>
<text text-anchor="middle" x="431" y="-7.5" font-family="Helvetica,sans-Serif" font-size="10.00">_generic::postorder_descend</text>
</a>
</g>
</g>
<!-- Node1&#45;&gt;Node3 -->
<g id="edge3" class="edge">
<title>Node1&#45;&gt;Node3</title>
<path fill="none" stroke="midnightblue" d="M131.1,-14.02C143.04,-13.81 155.4,-13.62 167,-13.5 233.66,-12.84 250.34,-12.91 317,-13.5 325.32,-13.57 333.98,-13.68 342.65,-13.8"/>
<polygon fill="midnightblue" stroke="midnightblue" points="342.75,-17.3 352.8,-13.95 342.86,-10.3 342.75,-17.3"/>
</g>
<!-- Node2&#45;&gt;Node3 -->
<g id="edge2" class="edge">
<title>Node2&#45;&gt;Node3</title>
<path fill="none" stroke="midnightblue" d="M317.18,-28.77C325.6,-27.78 334.25,-26.76 342.83,-25.76"/>
<polygon fill="midnightblue" stroke="midnightblue" points="343.32,-29.22 352.85,-24.58 342.51,-22.27 343.32,-29.22"/>
</g>
</g>
</svg>
