<?xml version="1.0" encoding="UTF-8" standalone="no"?>
<!DOCTYPE svg PUBLIC "-//W3C//DTD SVG 1.1//EN"
 "http://www.w3.org/Graphics/SVG/1.1/DTD/svg11.dtd">
<!-- Generated by graphviz version 5.0.1 (20220820.1526)
 -->
<!-- Title: uxn/patl/suffix_utils.hpp Pages: 1 -->
<svg width="1008pt" height="308pt"
 viewBox="0.00 0.00 1008.14 308.00" xmlns="http://www.w3.org/2000/svg" xmlns:xlink="http://www.w3.org/1999/xlink">
<g id="graph0" class="graph" transform="scale(1 1) rotate(0) translate(4 304)">
<title>uxn/patl/suffix_utils.hpp</title>
<!-- Node1 -->
<g id="node1" class="node">
<title>Node1</title>
<g id="a_node1"><a xlink:title=" ">
<polygon fill="#bfbfbf" stroke="black" points="607.14,-280.5 607.14,-299.5 741.14,-299.5 741.14,-280.5 607.14,-280.5"/>
<text text-anchor="middle" x="674.14" y="-287.5" font-family="Helvetica,sans-Serif" font-size="10.00">uxn/patl/suffix_utils.hpp</text>
</a>
</g>
</g>
<!-- Node2 -->
<g id="node2" class="node">
<title>Node2</title>
<g id="a_node2"><a xlink:href="../../d5/dfc/suffix__generic_8hpp.html" target="_top" xlink:title=" ">
<polygon fill="none" stroke="black" points="621.14,-224.5 621.14,-243.5 727.14,-243.5 727.14,-224.5 621.14,-224.5"/>
<text text-anchor="middle" x="674.14" y="-231.5" font-family="Helvetica,sans-Serif" font-size="10.00">suffix_generic.hpp</text>
</a>
</g>
</g>
<!-- Node1&#45;&gt;Node2 -->
<g id="edge1" class="edge">
<title>Node1&#45;&gt;Node2</title>
<path fill="none" stroke="midnightblue" d="M674.14,-280.08C674.14,-273.01 674.14,-262.86 674.14,-253.99"/>
<polygon fill="midnightblue" stroke="midnightblue" points="677.64,-253.75 674.14,-243.75 670.64,-253.75 677.64,-253.75"/>
</g>
<!-- Node3 -->
<g id="node3" class="node">
<title>Node3</title>
<g id="a_node3"><a xlink:title=" ">
<polygon fill="none" stroke="#bfbfbf" points="125.64,-56.5 125.64,-75.5 178.64,-75.5 178.64,-56.5 125.64,-56.5"/>
<text text-anchor="middle" x="152.14" y="-63.5" font-family="Helvetica,sans-Serif" font-size="10.00">iterator</text>
</a>
</g>
</g>
<!-- Node2&#45;&gt;Node3 -->
<g id="edge2" class="edge">
<title>Node2&#45;&gt;Node3</title>
<path fill="none" stroke="midnightblue" d="M620.92,-233.67C476.65,-234.21 83.75,-226.79 7.14,-132 -24.56,-92.78 62.96,-76.43 115.59,-70.28"/>
<polygon fill="midnightblue" stroke="midnightblue" points="116.04,-73.75 125.6,-69.19 115.28,-66.8 116.04,-73.75"/>
</g>
<!-- Node4 -->
<g id="node4" class="node">
<title>Node4</title>
<g id="a_node4"><a xlink:href="../../d3/d09/node_8hpp.html" target="_top" xlink:title=" ">
<polygon fill="none" stroke="black" points="591.14,-168.5 591.14,-187.5 653.14,-187.5 653.14,-168.5 591.14,-168.5"/>
<text text-anchor="middle" x="622.14" y="-175.5" font-family="Helvetica,sans-Serif" font-size="10.00">node.hpp</text>
</a>
</g>
</g>
<!-- Node2&#45;&gt;Node4 -->
<g id="edge3" class="edge">
<title>Node2&#45;&gt;Node4</title>
<path fill="none" stroke="midnightblue" d="M665.55,-224.08C657.98,-216.22 646.76,-204.57 637.62,-195.08"/>
<polygon fill="midnightblue" stroke="midnightblue" points="640.02,-192.53 630.57,-187.75 634.98,-197.38 640.02,-192.53"/>
</g>
<!-- Node7 -->
<g id="node7" class="node">
<title>Node7</title>
<g id="a_node7"><a xlink:href="../../d0/dd1/core__algorithm_8hpp.html" target="_top" xlink:title=" ">
<polygon fill="none" stroke="black" points="671.64,-168.5 671.64,-187.5 782.64,-187.5 782.64,-168.5 671.64,-168.5"/>
<text text-anchor="middle" x="727.14" y="-175.5" font-family="Helvetica,sans-Serif" font-size="10.00">core_algorithm.hpp</text>
</a>
</g>
</g>
<!-- Node2&#45;&gt;Node7 -->
<g id="edge6" class="edge">
<title>Node2&#45;&gt;Node7</title>
<path fill="none" stroke="midnightblue" d="M682.89,-224.08C690.61,-216.22 702.04,-204.57 711.35,-195.08"/>
<polygon fill="midnightblue" stroke="midnightblue" points="714.04,-197.34 718.55,-187.75 709.05,-192.44 714.04,-197.34"/>
</g>
<!-- Node13 -->
<g id="node13" class="node">
<title>Node13</title>
<g id="a_node13"><a xlink:href="../../d3/dcf/ring__buffer_8hpp.html" target="_top" xlink:title=" ">
<polygon fill="none" stroke="black" points="800.64,-168.5 800.64,-187.5 889.64,-187.5 889.64,-168.5 800.64,-168.5"/>
<text text-anchor="middle" x="845.14" y="-175.5" font-family="Helvetica,sans-Serif" font-size="10.00">ring_buffer.hpp</text>
</a>
</g>
</g>
<!-- Node2&#45;&gt;Node13 -->
<g id="edge14" class="edge">
<title>Node2&#45;&gt;Node13</title>
<path fill="none" stroke="midnightblue" d="M701.23,-224.44C730.13,-215.32 776.06,-200.81 808.24,-190.65"/>
<polygon fill="midnightblue" stroke="midnightblue" points="809.69,-193.87 818.17,-187.52 807.58,-187.19 809.69,-193.87"/>
</g>
<!-- Node14 -->
<g id="node14" class="node">
<title>Node14</title>
<g id="a_node14"><a xlink:href="../../de/d50/assoc__generic_8hpp.html" target="_top" xlink:title=" ">
<polygon fill="none" stroke="black" points="277.64,-168.5 277.64,-187.5 384.64,-187.5 384.64,-168.5 277.64,-168.5"/>
<text text-anchor="middle" x="331.14" y="-175.5" font-family="Helvetica,sans-Serif" font-size="10.00">assoc_generic.hpp</text>
</a>
</g>
</g>
<!-- Node2&#45;&gt;Node14 -->
<g id="edge15" class="edge">
<title>Node2&#45;&gt;Node14</title>
<path fill="none" stroke="midnightblue" d="M620.92,-224.62C559.92,-215.02 460.01,-199.29 394.9,-189.04"/>
<polygon fill="midnightblue" stroke="midnightblue" points="395.19,-185.54 384.76,-187.44 394.1,-192.46 395.19,-185.54"/>
</g>
<!-- Node21 -->
<g id="node21" class="node">
<title>Node21</title>
<g id="a_node21"><a xlink:href="../../d7/dd8/core__prefix_8hpp.html" target="_top" xlink:title=" ">
<polygon fill="none" stroke="black" points="908.14,-168.5 908.14,-187.5 1000.14,-187.5 1000.14,-168.5 908.14,-168.5"/>
<text text-anchor="middle" x="954.14" y="-175.5" font-family="Helvetica,sans-Serif" font-size="10.00">core_prefix.hpp</text>
</a>
</g>
</g>
<!-- Node2&#45;&gt;Node21 -->
<g id="edge28" class="edge">
<title>Node2&#45;&gt;Node21</title>
<path fill="none" stroke="midnightblue" d="M718.51,-224.44C767.76,-214.94 847.27,-199.61 900.11,-189.42"/>
<polygon fill="midnightblue" stroke="midnightblue" points="900.82,-192.85 909.98,-187.52 899.5,-185.97 900.82,-192.85"/>
</g>
<!-- Node5 -->
<g id="node5" class="node">
<title>Node5</title>
<g id="a_node5"><a xlink:title=" ">
<polygon fill="none" stroke="#bfbfbf" points="590.14,-112.5 590.14,-131.5 654.14,-131.5 654.14,-112.5 590.14,-112.5"/>
<text text-anchor="middle" x="622.14" y="-119.5" font-family="Helvetica,sans-Serif" font-size="10.00">algorithm</text>
</a>
</g>
</g>
<!-- Node4&#45;&gt;Node5 -->
<g id="edge4" class="edge">
<title>Node4&#45;&gt;Node5</title>
<path fill="none" stroke="midnightblue" d="M622.14,-168.08C622.14,-161.01 622.14,-150.86 622.14,-141.99"/>
<polygon fill="midnightblue" stroke="midnightblue" points="625.64,-141.75 622.14,-131.75 618.64,-141.75 625.64,-141.75"/>
</g>
<!-- Node6 -->
<g id="node6" class="node">
<title>Node6</title>
<g id="a_node6"><a xlink:href="../../d8/dfd/config_8hpp.html" target="_top" xlink:title=" ">
<polygon fill="none" stroke="black" points="648.14,-0.5 648.14,-19.5 724.14,-19.5 724.14,-0.5 648.14,-0.5"/>
<text text-anchor="middle" x="686.14" y="-7.5" font-family="Helvetica,sans-Serif" font-size="10.00">../config.hpp</text>
</a>
</g>
</g>
<!-- Node4&#45;&gt;Node6 -->
<g id="edge5" class="edge">
<title>Node4&#45;&gt;Node6</title>
<path fill="none" stroke="midnightblue" d="M633.01,-168.2C642.5,-159.89 655.86,-146.56 663.14,-132 679.81,-98.64 684.44,-54.59 685.7,-29.88"/>
<polygon fill="midnightblue" stroke="midnightblue" points="689.2,-29.85 686.08,-19.72 682.21,-29.59 689.2,-29.85"/>
</g>
<!-- Node8 -->
<g id="node8" class="node">
<title>Node8</title>
<g id="a_node8"><a xlink:href="../../de/d55/algorithm_8hpp.html" target="_top" xlink:title=" ">
<polygon fill="none" stroke="black" points="710.64,-112.5 710.64,-131.5 795.64,-131.5 795.64,-112.5 710.64,-112.5"/>
<text text-anchor="middle" x="753.14" y="-119.5" font-family="Helvetica,sans-Serif" font-size="10.00">algorithm.hpp</text>
</a>
</g>
</g>
<!-- Node7&#45;&gt;Node8 -->
<g id="edge7" class="edge">
<title>Node7&#45;&gt;Node8</title>
<path fill="none" stroke="midnightblue" d="M731.43,-168.08C734.99,-160.69 740.16,-149.95 744.56,-140.81"/>
<polygon fill="midnightblue" stroke="midnightblue" points="747.74,-142.28 748.92,-131.75 741.43,-139.24 747.74,-142.28"/>
</g>
<!-- Node8&#45;&gt;Node6 -->
<g id="edge8" class="edge">
<title>Node8&#45;&gt;Node6</title>
<path fill="none" stroke="midnightblue" d="M747.88,-112.37C736.87,-94.3 711.22,-52.18 696.68,-28.31"/>
<polygon fill="midnightblue" stroke="midnightblue" points="699.56,-26.31 691.37,-19.59 693.58,-29.95 699.56,-26.31"/>
</g>
<!-- Node9 -->
<g id="node9" class="node">
<title>Node9</title>
<g id="a_node9"><a xlink:href="../../d9/d3a/trivial_8hpp.html" target="_top" xlink:title=" ">
<polygon fill="none" stroke="black" points="748.14,-56.5 748.14,-75.5 814.14,-75.5 814.14,-56.5 748.14,-56.5"/>
<text text-anchor="middle" x="781.14" y="-63.5" font-family="Helvetica,sans-Serif" font-size="10.00">trivial.hpp</text>
</a>
</g>
</g>
<!-- Node8&#45;&gt;Node9 -->
<g id="edge9" class="edge">
<title>Node8&#45;&gt;Node9</title>
<path fill="none" stroke="midnightblue" d="M757.76,-112.08C761.59,-104.69 767.16,-93.95 771.9,-84.81"/>
<polygon fill="midnightblue" stroke="midnightblue" points="775.1,-86.24 776.6,-75.75 768.89,-83.02 775.1,-86.24"/>
</g>
<!-- Node9&#45;&gt;Node6 -->
<g id="edge10" class="edge">
<title>Node9&#45;&gt;Node6</title>
<path fill="none" stroke="midnightblue" d="M765.88,-56.32C750.92,-47.82 727.88,-34.73 710.41,-24.8"/>
<polygon fill="midnightblue" stroke="midnightblue" points="711.79,-21.55 701.36,-19.65 708.33,-27.64 711.79,-21.55"/>
</g>
<!-- Node10 -->
<g id="node10" class="node">
<title>Node10</title>
<g id="a_node10"><a xlink:title=" ">
<polygon fill="none" stroke="#bfbfbf" points="742.64,-0.5 742.64,-19.5 811.64,-19.5 811.64,-0.5 742.64,-0.5"/>
<text text-anchor="middle" x="777.14" y="-7.5" font-family="Helvetica,sans-Serif" font-size="10.00">type_traits</text>
</a>
</g>
</g>
<!-- Node9&#45;&gt;Node10 -->
<g id="edge11" class="edge">
<title>Node9&#45;&gt;Node10</title>
<path fill="none" stroke="midnightblue" d="M780.48,-56.08C779.95,-49.01 779.2,-38.86 778.54,-29.99"/>
<polygon fill="midnightblue" stroke="midnightblue" points="782.02,-29.47 777.79,-19.75 775.04,-29.98 782.02,-29.47"/>
</g>
<!-- Node11 -->
<g id="node11" class="node">
<title>Node11</title>
<g id="a_node11"><a xlink:title=" ">
<polygon fill="none" stroke="#bfbfbf" points="830.14,-0.5 830.14,-19.5 882.14,-19.5 882.14,-0.5 830.14,-0.5"/>
<text text-anchor="middle" x="856.14" y="-7.5" font-family="Helvetica,sans-Serif" font-size="10.00">cassert</text>
</a>
</g>
</g>
<!-- Node9&#45;&gt;Node11 -->
<g id="edge12" class="edge">
<title>Node9&#45;&gt;Node11</title>
<path fill="none" stroke="midnightblue" d="M793.19,-56.32C804.6,-48.11 821.97,-35.6 835.57,-25.81"/>
<polygon fill="midnightblue" stroke="midnightblue" points="837.8,-28.52 843.87,-19.83 833.71,-22.84 837.8,-28.52"/>
</g>
<!-- Node12 -->
<g id="node12" class="node">
<title>Node12</title>
<g id="a_node12"><a xlink:title=" ">
<polygon fill="none" stroke="#bfbfbf" points="900.64,-0.5 900.64,-19.5 951.64,-19.5 951.64,-0.5 900.64,-0.5"/>
<text text-anchor="middle" x="926.14" y="-7.5" font-family="Helvetica,sans-Serif" font-size="10.00">intrin.h</text>
</a>
</g>
</g>
<!-- Node9&#45;&gt;Node12 -->
<g id="edge13" class="edge">
<title>Node9&#45;&gt;Node12</title>
<path fill="none" stroke="midnightblue" d="M804.11,-56.44C828.3,-47.44 866.56,-33.19 893.78,-23.05"/>
<polygon fill="midnightblue" stroke="midnightblue" points="895.12,-26.29 903.27,-19.52 892.68,-19.73 895.12,-26.29"/>
</g>
<!-- Node15 -->
<g id="node15" class="node">
<title>Node15</title>
<g id="a_node15"><a xlink:href="../../d5/db7/preorder__iterator_8hpp.html" target="_top" xlink:title=" ">
<polygon fill="none" stroke="black" points="271.64,-112.5 271.64,-131.5 390.64,-131.5 390.64,-112.5 271.64,-112.5"/>
<text text-anchor="middle" x="331.14" y="-119.5" font-family="Helvetica,sans-Serif" font-size="10.00">preorder_iterator.hpp</text>
</a>
</g>
</g>
<!-- Node14&#45;&gt;Node15 -->
<g id="edge16" class="edge">
<title>Node14&#45;&gt;Node15</title>
<path fill="none" stroke="midnightblue" d="M331.14,-168.08C331.14,-161.01 331.14,-150.86 331.14,-141.99"/>
<polygon fill="midnightblue" stroke="midnightblue" points="334.64,-141.75 331.14,-131.75 327.64,-141.75 334.64,-141.75"/>
</g>
<!-- Node16 -->
<g id="node16" class="node">
<title>Node16</title>
<g id="a_node16"><a xlink:href="../../d1/d2d/vertex_8hpp.html" target="_top" xlink:title=" ">
<polygon fill="none" stroke="black" points="436.64,-56.5 436.64,-75.5 505.64,-75.5 505.64,-56.5 436.64,-56.5"/>
<text text-anchor="middle" x="471.14" y="-63.5" font-family="Helvetica,sans-Serif" font-size="10.00">vertex.hpp</text>
</a>
</g>
</g>
<!-- Node14&#45;&gt;Node16 -->
<g id="edge26" class="edge">
<title>Node14&#45;&gt;Node16</title>
<path fill="none" stroke="midnightblue" d="M384.8,-173.09C440.67,-167.77 522.7,-156.02 542.14,-132 558.52,-111.75 528.64,-92.07 502.75,-79.76"/>
<polygon fill="midnightblue" stroke="midnightblue" points="504.04,-76.5 493.49,-75.58 501.16,-82.88 504.04,-76.5"/>
</g>
<!-- Node17 -->
<g id="node17" class="node">
<title>Node17</title>
<g id="a_node17"><a xlink:href="../../df/d24/postorder__iterator_8hpp.html" target="_top" xlink:title=" ">
<polygon fill="none" stroke="black" points="408.64,-112.5 408.64,-131.5 533.64,-131.5 533.64,-112.5 408.64,-112.5"/>
<text text-anchor="middle" x="471.14" y="-119.5" font-family="Helvetica,sans-Serif" font-size="10.00">postorder_iterator.hpp</text>
</a>
</g>
</g>
<!-- Node14&#45;&gt;Node17 -->
<g id="edge19" class="edge">
<title>Node14&#45;&gt;Node17</title>
<path fill="none" stroke="midnightblue" d="M353.32,-168.44C376.57,-159.48 413.29,-145.31 439.55,-135.18"/>
<polygon fill="midnightblue" stroke="midnightblue" points="440.99,-138.38 449.06,-131.52 438.47,-131.85 440.99,-138.38"/>
</g>
<!-- Node18 -->
<g id="node18" class="node">
<title>Node18</title>
<g id="a_node18"><a xlink:href="../../d9/dde/iterator_8hpp.html" target="_top" xlink:title=" ">
<polygon fill="none" stroke="black" points="16.64,-112.5 16.64,-131.5 89.64,-131.5 89.64,-112.5 16.64,-112.5"/>
<text text-anchor="middle" x="53.14" y="-119.5" font-family="Helvetica,sans-Serif" font-size="10.00">iterator.hpp</text>
</a>
</g>
</g>
<!-- Node14&#45;&gt;Node18 -->
<g id="edge22" class="edge">
<title>Node14&#45;&gt;Node18</title>
<path fill="none" stroke="midnightblue" d="M286.45,-168.46C241.64,-159.88 170.39,-146.17 99.91,-132.34"/>
<polygon fill="midnightblue" stroke="midnightblue" points="100.46,-128.88 89.97,-130.39 99.11,-135.75 100.46,-128.88"/>
</g>
<!-- Node19 -->
<g id="node19" class="node">
<title>Node19</title>
<g id="a_node19"><a xlink:href="../../d7/d8f/partimator_8hpp.html" target="_top" xlink:title=" ">
<polygon fill="none" stroke="black" points="107.64,-112.5 107.64,-131.5 196.64,-131.5 196.64,-112.5 107.64,-112.5"/>
<text text-anchor="middle" x="152.14" y="-119.5" font-family="Helvetica,sans-Serif" font-size="10.00">partimator.hpp</text>
</a>
</g>
</g>
<!-- Node14&#45;&gt;Node19 -->
<g id="edge24" class="edge">
<title>Node14&#45;&gt;Node19</title>
<path fill="none" stroke="midnightblue" d="M302.78,-168.44C272.4,-159.28 224.03,-144.69 190.32,-134.52"/>
<polygon fill="midnightblue" stroke="midnightblue" points="190.95,-131.05 180.37,-131.52 188.93,-137.76 190.95,-131.05"/>
</g>
<!-- Node20 -->
<g id="node20" class="node">
<title>Node20</title>
<g id="a_node20"><a xlink:title=" ">
<polygon fill="none" stroke="#bfbfbf" points="215.14,-112.5 215.14,-131.5 253.14,-131.5 253.14,-112.5 215.14,-112.5"/>
<text text-anchor="middle" x="234.14" y="-119.5" font-family="Helvetica,sans-Serif" font-size="10.00">map</text>
</a>
</g>
</g>
<!-- Node14&#45;&gt;Node20 -->
<g id="edge27" class="edge">
<title>Node14&#45;&gt;Node20</title>
<path fill="none" stroke="midnightblue" d="M315.55,-168.32C300.14,-159.74 276.33,-146.49 258.43,-136.52"/>
<polygon fill="midnightblue" stroke="midnightblue" points="260.12,-133.46 249.68,-131.65 256.72,-139.58 260.12,-133.46"/>
</g>
<!-- Node15&#45;&gt;Node3 -->
<g id="edge18" class="edge">
<title>Node15&#45;&gt;Node3</title>
<path fill="none" stroke="midnightblue" d="M302.78,-112.44C271.95,-103.15 222.6,-88.26 188.84,-78.07"/>
<polygon fill="midnightblue" stroke="midnightblue" points="189.49,-74.61 178.91,-75.08 187.47,-81.31 189.49,-74.61"/>
</g>
<!-- Node15&#45;&gt;Node16 -->
<g id="edge17" class="edge">
<title>Node15&#45;&gt;Node16</title>
<path fill="none" stroke="midnightblue" d="M353.32,-112.44C376.57,-103.48 413.29,-89.31 439.55,-79.18"/>
<polygon fill="midnightblue" stroke="midnightblue" points="440.99,-82.38 449.06,-75.52 438.47,-75.85 440.99,-82.38"/>
</g>
<!-- Node17&#45;&gt;Node3 -->
<g id="edge21" class="edge">
<title>Node17&#45;&gt;Node3</title>
<path fill="none" stroke="midnightblue" d="M420.59,-112.44C356.09,-101.52 246.05,-82.9 188.95,-73.23"/>
<polygon fill="midnightblue" stroke="midnightblue" points="189.37,-69.75 178.93,-71.54 188.21,-76.66 189.37,-69.75"/>
</g>
<!-- Node17&#45;&gt;Node16 -->
<g id="edge20" class="edge">
<title>Node17&#45;&gt;Node16</title>
<path fill="none" stroke="midnightblue" d="M471.14,-112.08C471.14,-105.01 471.14,-94.86 471.14,-85.99"/>
<polygon fill="midnightblue" stroke="midnightblue" points="474.64,-85.75 471.14,-75.75 467.64,-85.75 474.64,-85.75"/>
</g>
<!-- Node18&#45;&gt;Node3 -->
<g id="edge23" class="edge">
<title>Node18&#45;&gt;Node3</title>
<path fill="none" stroke="midnightblue" d="M69.04,-112.32C84.78,-103.74 109.08,-90.49 127.35,-80.52"/>
<polygon fill="midnightblue" stroke="midnightblue" points="129.17,-83.52 136.27,-75.65 125.82,-77.37 129.17,-83.52"/>
</g>
<!-- Node19&#45;&gt;Node3 -->
<g id="edge25" class="edge">
<title>Node19&#45;&gt;Node3</title>
<path fill="none" stroke="midnightblue" d="M152.14,-112.08C152.14,-105.01 152.14,-94.86 152.14,-85.99"/>
<polygon fill="midnightblue" stroke="midnightblue" points="155.64,-85.75 152.14,-75.75 148.64,-85.75 155.64,-85.75"/>
</g>
<!-- Node22 -->
<g id="node22" class="node">
<title>Node22</title>
<g id="a_node22"><a xlink:href="../../d0/d34/prefix_8hpp.html" target="_top" xlink:title=" ">
<polygon fill="none" stroke="black" points="921.64,-112.5 921.64,-131.5 986.64,-131.5 986.64,-112.5 921.64,-112.5"/>
<text text-anchor="middle" x="954.14" y="-119.5" font-family="Helvetica,sans-Serif" font-size="10.00">prefix.hpp</text>
</a>
</g>
</g>
<!-- Node21&#45;&gt;Node22 -->
<g id="edge29" class="edge">
<title>Node21&#45;&gt;Node22</title>
<path fill="none" stroke="midnightblue" d="M954.14,-168.08C954.14,-161.01 954.14,-150.86 954.14,-141.99"/>
<polygon fill="midnightblue" stroke="midnightblue" points="957.64,-141.75 954.14,-131.75 950.64,-141.75 957.64,-141.75"/>
</g>
</g>
</svg>
