<?xml version="1.0" encoding="UTF-8" standalone="no"?>
<!DOCTYPE svg PUBLIC "-//W3C//DTD SVG 1.1//EN"
 "http://www.w3.org/Graphics/SVG/1.1/DTD/svg11.dtd">
<!-- Generated by graphviz version 5.0.1 (20220820.1526)
 -->
<!-- Title: uxn::patl::ngram_stat&lt; Char, Q, N, Delta, BitComp, Allocator &gt; Pages: 1 -->
<!--zoomable 1449 -->
<svg id="main" version="1.1" xmlns="http://www.w3.org/2000/svg" xmlns:xlink="http://www.w3.org/1999/xlink" xml:space="preserve" onload="init(evt)">
<style type="text/css"><![CDATA[
.edge:hover path { stroke: red; }
.edge:hover polygon { stroke: red; fill: red; }
]]></style>
<script type="text/javascript"><![CDATA[
var edges = document.getElementsByTagName('g');
if (edges && edges.length) {
  for (var i=0;i<edges.length;i++) {
    if (edges[i].id.substr(0,4)=='edge') {
      edges[i].setAttribute('class','edge');
    }
  }
}
]]></script>
        <defs>
                <circle id="rim" cx="0" cy="0" r="7"/>
                <circle id="rim2" cx="0" cy="0" r="3.5"/>
                <g id="zoomPlus">
                        <use xlink:href="#rim" fill="#404040">
                                <set attributeName="fill" to="#808080" begin="zoomplus.mouseover" end="zoomplus.mouseout"/>
                        </use>
                        <path d="M-4,0h8M0,-4v8" fill="none" stroke="white" stroke-width="1.5" pointer-events="none"/>
                </g>
                <g id="zoomMin">
                        <use xlink:href="#rim" fill="#404040">
                                <set attributeName="fill" to="#808080" begin="zoomminus.mouseover" end="zoomminus.mouseout"/>
                        </use>
                        <path d="M-4,0h8" fill="none" stroke="white" stroke-width="1.5" pointer-events="none"/>
                </g>
                <g id="dirArrow">
                        <path fill="none" stroke="white" stroke-width="1.5" d="M0,-3.0v7 M-2.5,-0.5L0,-3.0L2.5,-0.5"/>
                </g>
               <g id="resetDef">
                       <use xlink:href="#rim2" fill="#404040">
                               <set attributeName="fill" to="#808080" begin="reset.mouseover" end="reset.mouseout"/>
                       </use>
               </g>
        </defs>

<script type="text/javascript">
var viewWidth = 950;
var viewHeight = 1449;
var sectionId = 'dynsection-1';
</script>
<script xlink:href="../../svgpan.js"/>
<svg id="graph" class="graph">
<g id="viewport">
<title>uxn::patl::ngram_stat&lt; Char, Q, N, Delta, BitComp, Allocator &gt;</title>
<!-- Node1 -->
<g id="node1" class="node">
<title>Node1</title>
<g id="a_node1"><a xlink:title=" ">
<polygon fill="#bfbfbf" stroke="black" points="404,-0.5 404,-310.5 554,-310.5 554,-0.5 404,-0.5"/>
<text text-anchor="start" x="412" y="-298.5" font-family="Helvetica,sans-Serif" font-size="10.00">uxn::patl::ngram_stat</text>
<text text-anchor="start" x="412" y="-287.5" font-family="Helvetica,sans-Serif" font-size="10.00">&lt; Char, Q, N, Delta,</text>
<text text-anchor="middle" x="479" y="-276.5" font-family="Helvetica,sans-Serif" font-size="10.00"> BitComp, Allocator &gt;</text>
<polyline fill="none" stroke="black" points="404,-269.5 554,-269.5"/>
<text text-anchor="start" x="412" y="-257.5" font-family="Helvetica,sans-Serif" font-size="10.00">+ static const word_t</text>
<text text-anchor="start" x="412" y="-246.5" font-family="Helvetica,sans-Serif" font-size="10.00"> n_const</text>
<text text-anchor="start" x="412" y="-235.5" font-family="Helvetica,sans-Serif" font-size="10.00">+ static const word_t</text>
<text text-anchor="start" x="412" y="-224.5" font-family="Helvetica,sans-Serif" font-size="10.00"> delta</text>
<text text-anchor="start" x="412" y="-213.5" font-family="Helvetica,sans-Serif" font-size="10.00">+ static const word_t</text>
<text text-anchor="start" x="412" y="-202.5" font-family="Helvetica,sans-Serif" font-size="10.00"> bit_size</text>
<text text-anchor="start" x="412" y="-191.5" font-family="Helvetica,sans-Serif" font-size="10.00">&#45; word_t size_</text>
<polyline fill="none" stroke="black" points="404,-184.5 554,-184.5"/>
<text text-anchor="start" x="412" y="-172.5" font-family="Helvetica,sans-Serif" font-size="10.00">+ const_key_reference</text>
<text text-anchor="start" x="412" y="-161.5" font-family="Helvetica,sans-Serif" font-size="10.00"> get_key(const node</text>
<text text-anchor="start" x="412" y="-150.5" font-family="Helvetica,sans-Serif" font-size="10.00">_type *node) const</text>
<text text-anchor="start" x="412" y="-139.5" font-family="Helvetica,sans-Serif" font-size="10.00">+ ngram_stat(size_type</text>
<text text-anchor="start" x="412" y="-128.5" font-family="Helvetica,sans-Serif" font-size="10.00"> size, const bit_compare</text>
<text text-anchor="start" x="412" y="-117.5" font-family="Helvetica,sans-Serif" font-size="10.00"> &amp;bit_comp, const allocator</text>
<text text-anchor="start" x="412" y="-106.5" font-family="Helvetica,sans-Serif" font-size="10.00">_type &amp;alloc)</text>
<text text-anchor="start" x="412" y="-95.5" font-family="Helvetica,sans-Serif" font-size="10.00">+ size_type size() const</text>
<text text-anchor="start" x="412" y="-84.5" font-family="Helvetica,sans-Serif" font-size="10.00">+ size_type capacity</text>
<text text-anchor="start" x="412" y="-73.5" font-family="Helvetica,sans-Serif" font-size="10.00">() const</text>
<text text-anchor="start" x="412" y="-62.5" font-family="Helvetica,sans-Serif" font-size="10.00">+ const key_type keys</text>
<text text-anchor="start" x="412" y="-51.5" font-family="Helvetica,sans-Serif" font-size="10.00">() const</text>
<text text-anchor="start" x="412" y="-40.5" font-family="Helvetica,sans-Serif" font-size="10.00">+ bool empty() const</text>
<text text-anchor="start" x="412" y="-29.5" font-family="Helvetica,sans-Serif" font-size="10.00">+ void clear()</text>
<text text-anchor="start" x="412" y="-18.5" font-family="Helvetica,sans-Serif" font-size="10.00">+ vertex push_back(char</text>
<text text-anchor="start" x="412" y="-7.5" font-family="Helvetica,sans-Serif" font-size="10.00">_type ch)</text>
</a>
</g>
</g>
<!-- Node2 -->
<g id="node2" class="node">
<title>Node2</title>
<g id="a_node2"><a xlink:href="../../d2/da4/classuxn_1_1patl_1_1impl_1_1assoc__generic.html" target="_top" xlink:title=" ">
<polygon fill="none" stroke="black" points="0,-413.5 0,-635.5 182,-635.5 182,-413.5 0,-413.5"/>
<text text-anchor="start" x="8" y="-623.5" font-family="Helvetica,sans-Serif" font-size="10.00">uxn::patl::impl::assoc</text>
<text text-anchor="start" x="8" y="-612.5" font-family="Helvetica,sans-Serif" font-size="10.00">_generic&lt; ngram_stat&lt;</text>
<text text-anchor="start" x="8" y="-601.5" font-family="Helvetica,sans-Serif" font-size="10.00"> Char, Q, 0, 1, bounded</text>
<text text-anchor="start" x="8" y="-590.5" font-family="Helvetica,sans-Serif" font-size="10.00">_bit_comparator&lt; Char, Q,</text>
<text text-anchor="start" x="8" y="-579.5" font-family="Helvetica,sans-Serif" font-size="10.00"> 0, 1 &gt;, std::allocator&lt;</text>
<text text-anchor="start" x="8" y="-568.5" font-family="Helvetica,sans-Serif" font-size="10.00"> Char &gt; &gt;, impl::ngram_stat</text>
<text text-anchor="start" x="8" y="-557.5" font-family="Helvetica,sans-Serif" font-size="10.00">_traits&lt; Char, Q, 0, 1, bounded</text>
<text text-anchor="start" x="8" y="-546.5" font-family="Helvetica,sans-Serif" font-size="10.00">_bit_comparator&lt; Char, Q, 0, 1</text>
<text text-anchor="start" x="8" y="-535.5" font-family="Helvetica,sans-Serif" font-size="10.00"> &gt;, std::allocator&lt; Char &gt; &gt;, impl</text>
<text text-anchor="middle" x="91" y="-524.5" font-family="Helvetica,sans-Serif" font-size="10.00">::core_prefix_generic &gt;</text>
<polyline fill="none" stroke="black" points="0,-517.5 182,-517.5"/>
<text text-anchor="start" x="8" y="-505.5" font-family="Helvetica,sans-Serif" font-size="10.00">+ static const word_t N_</text>
<polyline fill="none" stroke="black" points="0,-498.5 182,-498.5"/>
<text text-anchor="start" x="8" y="-486.5" font-family="Helvetica,sans-Serif" font-size="10.00">+ assoc_generic()</text>
<text text-anchor="start" x="8" y="-475.5" font-family="Helvetica,sans-Serif" font-size="10.00">+ assoc_generic(const</text>
<text text-anchor="start" x="8" y="-464.5" font-family="Helvetica,sans-Serif" font-size="10.00"> bit_compare &amp;bit_comp)</text>
<text text-anchor="start" x="8" y="-453.5" font-family="Helvetica,sans-Serif" font-size="10.00"># word_t * get_shortcut</text>
<text text-anchor="start" x="8" y="-442.5" font-family="Helvetica,sans-Serif" font-size="10.00">(word_t a) const</text>
<text text-anchor="start" x="8" y="-431.5" font-family="Helvetica,sans-Serif" font-size="10.00"># word_t * create_shortcut</text>
<text text-anchor="start" x="8" y="-420.5" font-family="Helvetica,sans-Serif" font-size="10.00">(word_t a)</text>
</a>
</g>
</g>
<!-- Node2&#45;&gt;Node1 -->
<g id="edge1" class="edge">
<title>Node2&#45;&gt;Node1</title>
<path fill="none" stroke="midnightblue" d="M160.8,-404.64C172.62,-388.22 185.48,-372.15 199,-358 260.13,-294.02 343.96,-236.77 403.93,-199.8"/>
<polygon fill="none" stroke="midnightblue" points="157.63,-403.07 154.71,-413.25 163.34,-407.11 157.63,-403.07"/>
</g>
<!-- Node3 -->
<g id="node3" class="node">
<title>Node3</title>
<g id="a_node3"><a xlink:title=" ">
<polygon fill="none" stroke="black" points="141,-1151.5 141,-1230.5 275,-1230.5 275,-1151.5 141,-1151.5"/>
<text text-anchor="start" x="149" y="-1218.5" font-family="Helvetica,sans-Serif" font-size="10.00">std::map&lt; word_t, word</text>
<text text-anchor="middle" x="208" y="-1207.5" font-family="Helvetica,sans-Serif" font-size="10.00">_t * &gt;</text>
<polyline fill="none" stroke="black" points="141,-1200.5 275,-1200.5"/>
<text text-anchor="start" x="149" y="-1188.5" font-family="Helvetica,sans-Serif" font-size="10.00">+ word_t keys</text>
<text text-anchor="start" x="149" y="-1177.5" font-family="Helvetica,sans-Serif" font-size="10.00">+ word_t * elements</text>
<polyline fill="none" stroke="black" points="141,-1170.5 275,-1170.5"/>
<text text-anchor="middle" x="208" y="-1158.5" font-family="Helvetica,sans-Serif" font-size="10.00"> </text>
</a>
</g>
</g>
<!-- Node3&#45;&gt;Node2 -->
<g id="edge2" class="edge">
<title>Node3&#45;&gt;Node2</title>
<path fill="none" stroke="#404040" d="M140.75,-1166.28C112.71,-1152.67 83,-1132.5 67,-1104 -12.13,-963.04 17.62,-770.9 50.69,-647.5"/>
<polygon fill="none" stroke="#404040" points="50.73,-647.35 48.46,-640.51 53.9,-635.78 56.17,-642.62 50.73,-647.35"/>
<text text-anchor="middle" x="96" y="-962.5" font-family="Helvetica,sans-Serif" font-size="10.00"> &#45;shortcuts_</text>
</g>
<!-- Node7 -->
<g id="node7" class="node">
<title>Node7</title>
<g id="a_node7"><a xlink:href="../../d2/da4/classuxn_1_1patl_1_1impl_1_1assoc__generic.html" target="_top" xlink:title=" ">
<polygon fill="none" stroke="black" points="134,-898 134,-1032 282,-1032 282,-898 134,-898"/>
<text text-anchor="start" x="142" y="-1020" font-family="Helvetica,sans-Serif" font-size="10.00">uxn::patl::impl::assoc</text>
<text text-anchor="middle" x="208" y="-1009" font-family="Helvetica,sans-Serif" font-size="10.00">_generic&lt; This, T, N &gt;</text>
<polyline fill="none" stroke="black" points="134,-1002 282,-1002"/>
<text text-anchor="start" x="142" y="-990" font-family="Helvetica,sans-Serif" font-size="10.00">+ static const word_t N_</text>
<polyline fill="none" stroke="black" points="134,-983 282,-983"/>
<text text-anchor="start" x="142" y="-971" font-family="Helvetica,sans-Serif" font-size="10.00">+ assoc_generic()</text>
<text text-anchor="start" x="142" y="-960" font-family="Helvetica,sans-Serif" font-size="10.00">+ assoc_generic(const</text>
<text text-anchor="start" x="142" y="-949" font-family="Helvetica,sans-Serif" font-size="10.00"> bit_compare &amp;bit_comp)</text>
<text text-anchor="start" x="142" y="-938" font-family="Helvetica,sans-Serif" font-size="10.00"># word_t * get_shortcut</text>
<text text-anchor="start" x="142" y="-927" font-family="Helvetica,sans-Serif" font-size="10.00">(word_t a) const</text>
<text text-anchor="start" x="142" y="-916" font-family="Helvetica,sans-Serif" font-size="10.00"># word_t * create_shortcut</text>
<text text-anchor="start" x="142" y="-905" font-family="Helvetica,sans-Serif" font-size="10.00">(word_t a)</text>
</a>
</g>
</g>
<!-- Node3&#45;&gt;Node7 -->
<g id="edge7" class="edge">
<title>Node3&#45;&gt;Node7</title>
<path fill="none" stroke="#404040" d="M208,-1151.49C208,-1122.05 208,-1080.47 208,-1044.14"/>
<polygon fill="none" stroke="#404040" points="208,-1044.05 204,-1038.05 208,-1032.05 212,-1038.05 208,-1044.05"/>
<text text-anchor="middle" x="237" y="-1125" font-family="Helvetica,sans-Serif" font-size="10.00"> &#45;shortcuts_</text>
</g>
<!-- Node4 -->
<g id="node4" class="node">
<title>Node4</title>
<g id="a_node4"><a xlink:title=" ">
<polygon fill="none" stroke="black" points="232.5,-1278.5 232.5,-1335.5 333.5,-1335.5 333.5,-1278.5 232.5,-1278.5"/>
<text text-anchor="middle" x="283" y="-1323.5" font-family="Helvetica,sans-Serif" font-size="10.00">std::map&lt; K, T &gt;</text>
<polyline fill="none" stroke="black" points="232.5,-1316.5 333.5,-1316.5"/>
<text text-anchor="middle" x="283" y="-1304.5" font-family="Helvetica,sans-Serif" font-size="10.00"> </text>
<polyline fill="none" stroke="black" points="232.5,-1297.5 333.5,-1297.5"/>
<text text-anchor="middle" x="283" y="-1285.5" font-family="Helvetica,sans-Serif" font-size="10.00"> </text>
</a>
</g>
</g>
<!-- Node4&#45;&gt;Node3 -->
<g id="edge3" class="edge">
<title>Node4&#45;&gt;Node3</title>
<path fill="none" stroke="orange" d="M259.31,-1270C251.05,-1257.44 241.75,-1243.3 233.36,-1230.54"/>
<polygon fill="orange" stroke="orange" points="256.42,-1271.97 264.84,-1278.4 262.27,-1268.13 256.42,-1271.97"/>
<text text-anchor="middle" x="306" y="-1252" font-family="Helvetica,sans-Serif" font-size="10.00"> &lt; word_t, word_t * &gt;</text>
</g>
<!-- Node5 -->
<g id="node5" class="node">
<title>Node5</title>
<g id="a_node5"><a xlink:title=" ">
<polygon fill="none" stroke="black" points="268.5,-1383.5 268.5,-1440.5 297.5,-1440.5 297.5,-1383.5 268.5,-1383.5"/>
<text text-anchor="middle" x="283" y="-1428.5" font-family="Helvetica,sans-Serif" font-size="10.00">K</text>
<polyline fill="none" stroke="black" points="268.5,-1421.5 297.5,-1421.5"/>
<text text-anchor="middle" x="283" y="-1409.5" font-family="Helvetica,sans-Serif" font-size="10.00"> </text>
<polyline fill="none" stroke="black" points="268.5,-1402.5 297.5,-1402.5"/>
<text text-anchor="middle" x="283" y="-1390.5" font-family="Helvetica,sans-Serif" font-size="10.00"> </text>
</a>
</g>
</g>
<!-- Node5&#45;&gt;Node4 -->
<g id="edge4" class="edge">
<title>Node5&#45;&gt;Node4</title>
<path fill="none" stroke="#404040" d="M283,-1383.4C283,-1372.55 283,-1359.87 283,-1348.05"/>
<polygon fill="none" stroke="#404040" points="283,-1347.68 279,-1341.68 283,-1335.68 287,-1341.68 283,-1347.68"/>
<text text-anchor="middle" x="300" y="-1357" font-family="Helvetica,sans-Serif" font-size="10.00"> +keys</text>
</g>
<!-- Node6 -->
<g id="node6" class="node">
<title>Node6</title>
<g id="a_node6"><a xlink:title=" ">
<polygon fill="none" stroke="black" points="456.5,-1383.5 456.5,-1440.5 485.5,-1440.5 485.5,-1383.5 456.5,-1383.5"/>
<text text-anchor="middle" x="471" y="-1428.5" font-family="Helvetica,sans-Serif" font-size="10.00">T</text>
<polyline fill="none" stroke="black" points="456.5,-1421.5 485.5,-1421.5"/>
<text text-anchor="middle" x="471" y="-1409.5" font-family="Helvetica,sans-Serif" font-size="10.00"> </text>
<polyline fill="none" stroke="black" points="456.5,-1402.5 485.5,-1402.5"/>
<text text-anchor="middle" x="471" y="-1390.5" font-family="Helvetica,sans-Serif" font-size="10.00"> </text>
</a>
</g>
</g>
<!-- Node6&#45;&gt;Node4 -->
<g id="edge5" class="edge">
<title>Node6&#45;&gt;Node4</title>
<path fill="none" stroke="#404040" d="M456.25,-1402.92C432.3,-1389.8 383.66,-1363.15 343.99,-1341.42"/>
<polygon fill="none" stroke="#404040" points="343.86,-1341.34 336.67,-1341.97 333.33,-1335.58 340.52,-1334.95 343.86,-1341.34"/>
<text text-anchor="middle" x="412" y="-1357" font-family="Helvetica,sans-Serif" font-size="10.00"> +elements</text>
</g>
<!-- Node11 -->
<g id="node11" class="node">
<title>Node11</title>
<g id="a_node11"><a xlink:title=" ">
<polygon fill="none" stroke="black" points="416.5,-1278.5 416.5,-1335.5 525.5,-1335.5 525.5,-1278.5 416.5,-1278.5"/>
<text text-anchor="middle" x="471" y="-1323.5" font-family="Helvetica,sans-Serif" font-size="10.00">std::allocator&lt; T &gt;</text>
<polyline fill="none" stroke="black" points="416.5,-1316.5 525.5,-1316.5"/>
<text text-anchor="middle" x="471" y="-1304.5" font-family="Helvetica,sans-Serif" font-size="10.00"> </text>
<polyline fill="none" stroke="black" points="416.5,-1297.5 525.5,-1297.5"/>
<text text-anchor="middle" x="471" y="-1285.5" font-family="Helvetica,sans-Serif" font-size="10.00"> </text>
</a>
</g>
</g>
<!-- Node6&#45;&gt;Node11 -->
<g id="edge12" class="edge">
<title>Node6&#45;&gt;Node11</title>
<path fill="none" stroke="#404040" d="M471,-1383.4C471,-1372.55 471,-1359.87 471,-1348.05"/>
<polygon fill="none" stroke="#404040" points="471,-1347.68 467,-1341.68 471,-1335.68 475,-1341.68 471,-1347.68"/>
<text text-anchor="middle" x="500" y="-1357" font-family="Helvetica,sans-Serif" font-size="10.00"> +elements</text>
</g>
<!-- Node14 -->
<g id="node14" class="node">
<title>Node14</title>
<g id="a_node14"><a xlink:title=" ">
<polygon fill="none" stroke="black" points="586.5,-936.5 586.5,-993.5 683.5,-993.5 683.5,-936.5 586.5,-936.5"/>
<text text-anchor="middle" x="635" y="-981.5" font-family="Helvetica,sans-Serif" font-size="10.00">std::vector&lt; T &gt;</text>
<polyline fill="none" stroke="black" points="586.5,-974.5 683.5,-974.5"/>
<text text-anchor="middle" x="635" y="-962.5" font-family="Helvetica,sans-Serif" font-size="10.00"> </text>
<polyline fill="none" stroke="black" points="586.5,-955.5 683.5,-955.5"/>
<text text-anchor="middle" x="635" y="-943.5" font-family="Helvetica,sans-Serif" font-size="10.00"> </text>
</a>
</g>
</g>
<!-- Node6&#45;&gt;Node14 -->
<g id="edge17" class="edge">
<title>Node6&#45;&gt;Node14</title>
<path fill="none" stroke="#404040" d="M485.57,-1403.96C499.81,-1396.32 521.04,-1382.8 533,-1365 609.87,-1250.54 628.81,-1082.11 633.47,-1005.97"/>
<polygon fill="none" stroke="#404040" points="633.49,-1005.69 629.83,-999.48 634.15,-993.71 637.81,-999.92 633.49,-1005.69"/>
<text text-anchor="middle" x="617" y="-1252" font-family="Helvetica,sans-Serif" font-size="10.00"> +elements</text>
</g>
<!-- Node7&#45;&gt;Node2 -->
<g id="edge6" class="edge">
<title>Node7&#45;&gt;Node2</title>
<path fill="none" stroke="orange" d="M168.56,-889.32C154.94,-867.46 138.41,-844.48 120,-826 109.56,-815.52 99.11,-820.97 92,-808 76.08,-778.97 76.68,-702 80.79,-635.72"/>
<polygon fill="orange" stroke="orange" points="165.63,-891.25 173.83,-897.96 171.61,-887.6 165.63,-891.25"/>
<text text-anchor="start" x="92" y="-800" font-family="Helvetica,sans-Serif" font-size="10.00"> &lt; ngram_stat&lt; Char,</text>
<text text-anchor="start" x="92" y="-789" font-family="Helvetica,sans-Serif" font-size="10.00"> Q, 0, 1, bounded_bit</text>
<text text-anchor="start" x="92" y="-778" font-family="Helvetica,sans-Serif" font-size="10.00">_comparator&lt; Char, Q,</text>
<text text-anchor="start" x="92" y="-767" font-family="Helvetica,sans-Serif" font-size="10.00"> 0, 1 &gt;, std::allocator</text>
<text text-anchor="start" x="92" y="-756" font-family="Helvetica,sans-Serif" font-size="10.00">&lt; Char &gt; &gt;, impl::ngram</text>
<text text-anchor="start" x="92" y="-745" font-family="Helvetica,sans-Serif" font-size="10.00">_stat_traits&lt; Char, Q, 0,</text>
<text text-anchor="start" x="92" y="-734" font-family="Helvetica,sans-Serif" font-size="10.00"> 1, bounded_bit_comparator</text>
<text text-anchor="start" x="92" y="-723" font-family="Helvetica,sans-Serif" font-size="10.00">&lt; Char, Q, 0, 1 &gt;, std::allocator</text>
<text text-anchor="middle" x="190.5" y="-712" font-family="Helvetica,sans-Serif" font-size="10.00">&lt; Char &gt; &gt;, impl::core_prefix_generic &gt;</text>
</g>
<!-- Node8 -->
<g id="node8" class="node">
<title>Node8</title>
<g id="a_node8"><a xlink:href="../../d7/ddc/classuxn_1_1patl_1_1impl_1_1ring__buffer.html" target="_top" xlink:title=" ">
<polygon fill="none" stroke="black" points="208.5,-358.5 208.5,-690.5 375.5,-690.5 375.5,-358.5 208.5,-358.5"/>
<text text-anchor="start" x="216.5" y="-678.5" font-family="Helvetica,sans-Serif" font-size="10.00">uxn::patl::impl::ring</text>
<text text-anchor="start" x="216.5" y="-667.5" font-family="Helvetica,sans-Serif" font-size="10.00">_buffer&lt; uxn::patl::impl</text>
<text text-anchor="start" x="216.5" y="-656.5" font-family="Helvetica,sans-Serif" font-size="10.00">::node_gen_ngram, typename</text>
<text text-anchor="start" x="216.5" y="-645.5" font-family="Helvetica,sans-Serif" font-size="10.00"> allocator_type::template</text>
<text text-anchor="start" x="216.5" y="-634.5" font-family="Helvetica,sans-Serif" font-size="10.00"> rebind&lt; uxn::patl::impl::node</text>
<text text-anchor="middle" x="292" y="-623.5" font-family="Helvetica,sans-Serif" font-size="10.00">_gen_ngram &gt;::other &gt;</text>
<polyline fill="none" stroke="black" points="208.5,-616.5 375.5,-616.5"/>
<text text-anchor="start" x="216.5" y="-604.5" font-family="Helvetica,sans-Serif" font-size="10.00">&#45; allocator_type alloc_</text>
<text text-anchor="start" x="216.5" y="-593.5" font-family="Helvetica,sans-Serif" font-size="10.00">&#45; pointer head_</text>
<text text-anchor="start" x="216.5" y="-582.5" font-family="Helvetica,sans-Serif" font-size="10.00">&#45; pointer tail_</text>
<text text-anchor="start" x="216.5" y="-571.5" font-family="Helvetica,sans-Serif" font-size="10.00">&#45; pointer begin_</text>
<text text-anchor="start" x="216.5" y="-560.5" font-family="Helvetica,sans-Serif" font-size="10.00">&#45; pointer end_</text>
<text text-anchor="start" x="216.5" y="-549.5" font-family="Helvetica,sans-Serif" font-size="10.00">&#45; size_type size_</text>
<polyline fill="none" stroke="black" points="208.5,-542.5 375.5,-542.5"/>
<text text-anchor="start" x="216.5" y="-530.5" font-family="Helvetica,sans-Serif" font-size="10.00">+ ring_buffer(size_type</text>
<text text-anchor="start" x="216.5" y="-519.5" font-family="Helvetica,sans-Serif" font-size="10.00"> initSize, const allocator</text>
<text text-anchor="start" x="216.5" y="-508.5" font-family="Helvetica,sans-Serif" font-size="10.00">_type &amp;alloc=allocator_type())</text>
<text text-anchor="start" x="216.5" y="-497.5" font-family="Helvetica,sans-Serif" font-size="10.00">+ ~ring_buffer()</text>
<text text-anchor="start" x="216.5" y="-486.5" font-family="Helvetica,sans-Serif" font-size="10.00">+ void clear()</text>
<text text-anchor="start" x="216.5" y="-475.5" font-family="Helvetica,sans-Serif" font-size="10.00">+ bool empty() const</text>
<text text-anchor="start" x="216.5" y="-464.5" font-family="Helvetica,sans-Serif" font-size="10.00">+ bool endpoint() const</text>
<text text-anchor="start" x="216.5" y="-453.5" font-family="Helvetica,sans-Serif" font-size="10.00">+ size_type size() const</text>
<text text-anchor="start" x="216.5" y="-442.5" font-family="Helvetica,sans-Serif" font-size="10.00">+ size_type capacity</text>
<text text-anchor="start" x="216.5" y="-431.5" font-family="Helvetica,sans-Serif" font-size="10.00">() const</text>
<text text-anchor="start" x="216.5" y="-420.5" font-family="Helvetica,sans-Serif" font-size="10.00">+ void push_back(const</text>
<text text-anchor="start" x="216.5" y="-409.5" font-family="Helvetica,sans-Serif" font-size="10.00">_reference value)</text>
<text text-anchor="start" x="216.5" y="-398.5" font-family="Helvetica,sans-Serif" font-size="10.00">+ void pop_front()</text>
<text text-anchor="start" x="216.5" y="-387.5" font-family="Helvetica,sans-Serif" font-size="10.00">+ void push_front(const</text>
<text text-anchor="start" x="216.5" y="-376.5" font-family="Helvetica,sans-Serif" font-size="10.00">_reference value)</text>
<text text-anchor="start" x="216.5" y="-365.5" font-family="Helvetica,sans-Serif" font-size="10.00">and 13 more...</text>
</a>
</g>
</g>
<!-- Node8&#45;&gt;Node1 -->
<g id="edge8" class="edge">
<title>Node8&#45;&gt;Node1</title>
<path fill="none" stroke="#404040" d="M375.52,-359.59C383.11,-344.68 390.8,-329.6 398.37,-314.74"/>
<polygon fill="none" stroke="#404040" points="398.41,-314.66 397.57,-307.5 403.86,-303.97 404.7,-311.13 398.41,-314.66"/>
<text text-anchor="middle" x="400.5" y="-332" font-family="Helvetica,sans-Serif" font-size="10.00"> &#45;trie_</text>
</g>
<!-- Node9 -->
<g id="node9" class="node">
<title>Node9</title>
<g id="a_node9"><a xlink:href="../../d7/ddc/classuxn_1_1patl_1_1impl_1_1ring__buffer.html" target="_top" xlink:title=" ">
<polygon fill="none" stroke="black" points="387.5,-826.5 387.5,-1103.5 554.5,-1103.5 554.5,-826.5 387.5,-826.5"/>
<text text-anchor="start" x="395.5" y="-1091.5" font-family="Helvetica,sans-Serif" font-size="10.00">uxn::patl::impl::ring</text>
<text text-anchor="middle" x="471" y="-1080.5" font-family="Helvetica,sans-Serif" font-size="10.00">_buffer&lt; Type, Allocator &gt;</text>
<polyline fill="none" stroke="black" points="387.5,-1073.5 554.5,-1073.5"/>
<text text-anchor="start" x="395.5" y="-1061.5" font-family="Helvetica,sans-Serif" font-size="10.00">&#45; pointer head_</text>
<text text-anchor="start" x="395.5" y="-1050.5" font-family="Helvetica,sans-Serif" font-size="10.00">&#45; pointer tail_</text>
<text text-anchor="start" x="395.5" y="-1039.5" font-family="Helvetica,sans-Serif" font-size="10.00">&#45; pointer begin_</text>
<text text-anchor="start" x="395.5" y="-1028.5" font-family="Helvetica,sans-Serif" font-size="10.00">&#45; pointer end_</text>
<text text-anchor="start" x="395.5" y="-1017.5" font-family="Helvetica,sans-Serif" font-size="10.00">&#45; size_type size_</text>
<polyline fill="none" stroke="black" points="387.5,-1010.5 554.5,-1010.5"/>
<text text-anchor="start" x="395.5" y="-998.5" font-family="Helvetica,sans-Serif" font-size="10.00">+ ring_buffer(size_type</text>
<text text-anchor="start" x="395.5" y="-987.5" font-family="Helvetica,sans-Serif" font-size="10.00"> initSize, const allocator</text>
<text text-anchor="start" x="395.5" y="-976.5" font-family="Helvetica,sans-Serif" font-size="10.00">_type &amp;alloc=allocator_type())</text>
<text text-anchor="start" x="395.5" y="-965.5" font-family="Helvetica,sans-Serif" font-size="10.00">+ ~ring_buffer()</text>
<text text-anchor="start" x="395.5" y="-954.5" font-family="Helvetica,sans-Serif" font-size="10.00">+ void clear()</text>
<text text-anchor="start" x="395.5" y="-943.5" font-family="Helvetica,sans-Serif" font-size="10.00">+ bool empty() const</text>
<text text-anchor="start" x="395.5" y="-932.5" font-family="Helvetica,sans-Serif" font-size="10.00">+ bool endpoint() const</text>
<text text-anchor="start" x="395.5" y="-921.5" font-family="Helvetica,sans-Serif" font-size="10.00">+ size_type size() const</text>
<text text-anchor="start" x="395.5" y="-910.5" font-family="Helvetica,sans-Serif" font-size="10.00">+ size_type capacity</text>
<text text-anchor="start" x="395.5" y="-899.5" font-family="Helvetica,sans-Serif" font-size="10.00">() const</text>
<text text-anchor="start" x="395.5" y="-888.5" font-family="Helvetica,sans-Serif" font-size="10.00">+ void push_back(const</text>
<text text-anchor="start" x="395.5" y="-877.5" font-family="Helvetica,sans-Serif" font-size="10.00">_reference value)</text>
<text text-anchor="start" x="395.5" y="-866.5" font-family="Helvetica,sans-Serif" font-size="10.00">+ void pop_front()</text>
<text text-anchor="start" x="395.5" y="-855.5" font-family="Helvetica,sans-Serif" font-size="10.00">+ void push_front(const</text>
<text text-anchor="start" x="395.5" y="-844.5" font-family="Helvetica,sans-Serif" font-size="10.00">_reference value)</text>
<text text-anchor="start" x="395.5" y="-833.5" font-family="Helvetica,sans-Serif" font-size="10.00">and 13 more...</text>
</a>
</g>
</g>
<!-- Node9&#45;&gt;Node8 -->
<g id="edge9" class="edge">
<title>Node9&#45;&gt;Node8</title>
<path fill="none" stroke="orange" d="M380.57,-885.82C359.35,-862.89 339.13,-836.3 326,-808 309.21,-771.81 299.64,-730.35 294.39,-690.53"/>
<polygon fill="orange" stroke="orange" points="378.07,-888.28 387.48,-893.14 383.16,-883.47 378.07,-888.28"/>
<text text-anchor="start" x="326" y="-778" font-family="Helvetica,sans-Serif" font-size="10.00"> &lt; uxn::patl::impl::</text>
<text text-anchor="start" x="326" y="-767" font-family="Helvetica,sans-Serif" font-size="10.00">node_gen_ngram, typename</text>
<text text-anchor="start" x="326" y="-756" font-family="Helvetica,sans-Serif" font-size="10.00"> allocator_type::template</text>
<text text-anchor="start" x="326" y="-745" font-family="Helvetica,sans-Serif" font-size="10.00"> rebind&lt; uxn::patl::impl</text>
<text text-anchor="middle" x="398.5" y="-734" font-family="Helvetica,sans-Serif" font-size="10.00">::node_gen_ngram &gt;::other &gt;</text>
</g>
<!-- Node12 -->
<g id="node12" class="node">
<title>Node12</title>
<g id="a_node12"><a xlink:href="../../d7/ddc/classuxn_1_1patl_1_1impl_1_1ring__buffer.html" target="_top" xlink:title=" ">
<polygon fill="none" stroke="black" points="394,-358.5 394,-690.5 564,-690.5 564,-358.5 394,-358.5"/>
<text text-anchor="start" x="402" y="-678.5" font-family="Helvetica,sans-Serif" font-size="10.00">uxn::patl::impl::ring</text>
<text text-anchor="start" x="402" y="-667.5" font-family="Helvetica,sans-Serif" font-size="10.00">_buffer&lt; uxn::patl::impl</text>
<text text-anchor="start" x="402" y="-656.5" font-family="Helvetica,sans-Serif" font-size="10.00">::vertex_generic, typename</text>
<text text-anchor="start" x="402" y="-645.5" font-family="Helvetica,sans-Serif" font-size="10.00"> allocator_type::template</text>
<text text-anchor="start" x="402" y="-634.5" font-family="Helvetica,sans-Serif" font-size="10.00"> rebind&lt; uxn::patl::impl::vertex</text>
<text text-anchor="middle" x="479" y="-623.5" font-family="Helvetica,sans-Serif" font-size="10.00">_generic &gt;::other &gt;</text>
<polyline fill="none" stroke="black" points="394,-616.5 564,-616.5"/>
<text text-anchor="start" x="402" y="-604.5" font-family="Helvetica,sans-Serif" font-size="10.00">&#45; allocator_type alloc_</text>
<text text-anchor="start" x="402" y="-593.5" font-family="Helvetica,sans-Serif" font-size="10.00">&#45; pointer head_</text>
<text text-anchor="start" x="402" y="-582.5" font-family="Helvetica,sans-Serif" font-size="10.00">&#45; pointer tail_</text>
<text text-anchor="start" x="402" y="-571.5" font-family="Helvetica,sans-Serif" font-size="10.00">&#45; pointer begin_</text>
<text text-anchor="start" x="402" y="-560.5" font-family="Helvetica,sans-Serif" font-size="10.00">&#45; pointer end_</text>
<text text-anchor="start" x="402" y="-549.5" font-family="Helvetica,sans-Serif" font-size="10.00">&#45; size_type size_</text>
<polyline fill="none" stroke="black" points="394,-542.5 564,-542.5"/>
<text text-anchor="start" x="402" y="-530.5" font-family="Helvetica,sans-Serif" font-size="10.00">+ ring_buffer(size_type</text>
<text text-anchor="start" x="402" y="-519.5" font-family="Helvetica,sans-Serif" font-size="10.00"> initSize, const allocator</text>
<text text-anchor="start" x="402" y="-508.5" font-family="Helvetica,sans-Serif" font-size="10.00">_type &amp;alloc=allocator_type())</text>
<text text-anchor="start" x="402" y="-497.5" font-family="Helvetica,sans-Serif" font-size="10.00">+ ~ring_buffer()</text>
<text text-anchor="start" x="402" y="-486.5" font-family="Helvetica,sans-Serif" font-size="10.00">+ void clear()</text>
<text text-anchor="start" x="402" y="-475.5" font-family="Helvetica,sans-Serif" font-size="10.00">+ bool empty() const</text>
<text text-anchor="start" x="402" y="-464.5" font-family="Helvetica,sans-Serif" font-size="10.00">+ bool endpoint() const</text>
<text text-anchor="start" x="402" y="-453.5" font-family="Helvetica,sans-Serif" font-size="10.00">+ size_type size() const</text>
<text text-anchor="start" x="402" y="-442.5" font-family="Helvetica,sans-Serif" font-size="10.00">+ size_type capacity</text>
<text text-anchor="start" x="402" y="-431.5" font-family="Helvetica,sans-Serif" font-size="10.00">() const</text>
<text text-anchor="start" x="402" y="-420.5" font-family="Helvetica,sans-Serif" font-size="10.00">+ void push_back(const</text>
<text text-anchor="start" x="402" y="-409.5" font-family="Helvetica,sans-Serif" font-size="10.00">_reference value)</text>
<text text-anchor="start" x="402" y="-398.5" font-family="Helvetica,sans-Serif" font-size="10.00">+ void pop_front()</text>
<text text-anchor="start" x="402" y="-387.5" font-family="Helvetica,sans-Serif" font-size="10.00">+ void push_front(const</text>
<text text-anchor="start" x="402" y="-376.5" font-family="Helvetica,sans-Serif" font-size="10.00">_reference value)</text>
<text text-anchor="start" x="402" y="-365.5" font-family="Helvetica,sans-Serif" font-size="10.00">and 13 more...</text>
</a>
</g>
</g>
<!-- Node9&#45;&gt;Node12 -->
<g id="edge14" class="edge">
<title>Node9&#45;&gt;Node12</title>
<path fill="none" stroke="orange" d="M473.7,-816.28C474.43,-775.91 475.23,-731.9 475.99,-690.63"/>
<polygon fill="orange" stroke="orange" points="470.19,-816.4 473.51,-826.46 477.19,-816.52 470.19,-816.4"/>
<text text-anchor="start" x="476" y="-778" font-family="Helvetica,sans-Serif" font-size="10.00"> &lt; uxn::patl::impl::</text>
<text text-anchor="start" x="476" y="-767" font-family="Helvetica,sans-Serif" font-size="10.00">vertex_generic, typename</text>
<text text-anchor="start" x="476" y="-756" font-family="Helvetica,sans-Serif" font-size="10.00"> allocator_type::template</text>
<text text-anchor="start" x="476" y="-745" font-family="Helvetica,sans-Serif" font-size="10.00"> rebind&lt; uxn::patl::impl</text>
<text text-anchor="middle" x="542.5" y="-734" font-family="Helvetica,sans-Serif" font-size="10.00">::vertex_generic &gt;::other &gt;</text>
</g>
<!-- Node10 -->
<g id="node10" class="node">
<title>Node10</title>
<g id="a_node10"><a xlink:title=" ">
<polygon fill="none" stroke="black" points="408.5,-1162.5 408.5,-1219.5 533.5,-1219.5 533.5,-1162.5 408.5,-1162.5"/>
<text text-anchor="middle" x="471" y="-1207.5" font-family="Helvetica,sans-Serif" font-size="10.00">std::allocator&lt; Type &gt;</text>
<polyline fill="none" stroke="black" points="408.5,-1200.5 533.5,-1200.5"/>
<text text-anchor="start" x="416.5" y="-1188.5" font-family="Helvetica,sans-Serif" font-size="10.00">+ Type elements</text>
<polyline fill="none" stroke="black" points="408.5,-1181.5 533.5,-1181.5"/>
<text text-anchor="middle" x="471" y="-1169.5" font-family="Helvetica,sans-Serif" font-size="10.00"> </text>
</a>
</g>
</g>
<!-- Node10&#45;&gt;Node9 -->
<g id="edge10" class="edge">
<title>Node10&#45;&gt;Node9</title>
<path fill="none" stroke="#404040" d="M471,-1162.08C471,-1149.35 471,-1133.2 471,-1115.65"/>
<polygon fill="none" stroke="#404040" points="471,-1115.62 467,-1109.62 471,-1103.62 475,-1109.62 471,-1115.62"/>
<text text-anchor="middle" x="489" y="-1125" font-family="Helvetica,sans-Serif" font-size="10.00"> &#45;alloc_</text>
</g>
<!-- Node11&#45;&gt;Node10 -->
<g id="edge11" class="edge">
<title>Node11&#45;&gt;Node10</title>
<path fill="none" stroke="orange" d="M471,-1268.36C471,-1252.5 471,-1234.35 471,-1219.74"/>
<polygon fill="orange" stroke="orange" points="467.5,-1268.4 471,-1278.4 474.5,-1268.4 467.5,-1268.4"/>
<text text-anchor="middle" x="495.5" y="-1252" font-family="Helvetica,sans-Serif" font-size="10.00"> &lt; Type &gt;</text>
</g>
<!-- Node12&#45;&gt;Node1 -->
<g id="edge13" class="edge">
<title>Node12&#45;&gt;Node1</title>
<path fill="none" stroke="#404040" d="M479,-358.25C479,-346.46 479,-334.57 479,-322.77"/>
<polygon fill="none" stroke="#404040" points="479,-322.52 475,-316.52 479,-310.52 483,-316.52 479,-322.52"/>
<text text-anchor="middle" x="494.5" y="-332" font-family="Helvetica,sans-Serif" font-size="10.00"> &#45;last_</text>
</g>
<!-- Node13 -->
<g id="node13" class="node">
<title>Node13</title>
<g id="a_node13"><a xlink:title=" ">
<polygon fill="none" stroke="black" points="582,-479.5 582,-569.5 724,-569.5 724,-479.5 582,-479.5"/>
<text text-anchor="start" x="590" y="-557.5" font-family="Helvetica,sans-Serif" font-size="10.00">std::vector&lt; char_type,</text>
<text text-anchor="start" x="590" y="-546.5" font-family="Helvetica,sans-Serif" font-size="10.00"> typename allocator_type</text>
<text text-anchor="start" x="590" y="-535.5" font-family="Helvetica,sans-Serif" font-size="10.00">::template rebind&lt; char</text>
<text text-anchor="middle" x="653" y="-524.5" font-family="Helvetica,sans-Serif" font-size="10.00">_type &gt;::other &gt;</text>
<polyline fill="none" stroke="black" points="582,-517.5 724,-517.5"/>
<text text-anchor="start" x="590" y="-505.5" font-family="Helvetica,sans-Serif" font-size="10.00">+ char_type elements</text>
<polyline fill="none" stroke="black" points="582,-498.5 724,-498.5"/>
<text text-anchor="middle" x="653" y="-486.5" font-family="Helvetica,sans-Serif" font-size="10.00"> </text>
</a>
</g>
</g>
<!-- Node13&#45;&gt;Node1 -->
<g id="edge15" class="edge">
<title>Node13&#45;&gt;Node1</title>
<path fill="none" stroke="#404040" d="M632.01,-479.23C613.33,-439.83 584.8,-379.65 557.41,-321.89"/>
<polygon fill="none" stroke="#404040" points="557.27,-321.6 551.09,-317.89 552.13,-310.75 558.32,-314.46 557.27,-321.6"/>
<text text-anchor="middle" x="583.5" y="-332" font-family="Helvetica,sans-Serif" font-size="10.00"> &#45;keys_</text>
</g>
<!-- Node14&#45;&gt;Node13 -->
<g id="edge16" class="edge">
<title>Node14&#45;&gt;Node13</title>
<path fill="none" stroke="orange" d="M634.1,-926.14C633.16,-876.32 632.29,-786.04 636,-709 638.3,-661.22 643.71,-606.67 647.82,-569.55"/>
<polygon fill="orange" stroke="orange" points="630.61,-926.5 634.31,-936.43 637.61,-926.36 630.61,-926.5"/>
<text text-anchor="start" x="636" y="-767" font-family="Helvetica,sans-Serif" font-size="10.00"> &lt; char_type, typename</text>
<text text-anchor="start" x="636" y="-756" font-family="Helvetica,sans-Serif" font-size="10.00"> allocator_type::template</text>
<text text-anchor="middle" x="710" y="-745" font-family="Helvetica,sans-Serif" font-size="10.00"> rebind&lt; char_type &gt;::other &gt;</text>
</g>
<!-- Node15 -->
<g id="node15" class="node">
<title>Node15</title>
<g id="a_node15"><a xlink:title=" ">
<polygon fill="none" stroke="black" points="742,-479.5 742,-569.5 870,-569.5 870,-479.5 742,-479.5"/>
<text text-anchor="start" x="750" y="-557.5" font-family="Helvetica,sans-Serif" font-size="10.00">std::vector&lt; word_t,</text>
<text text-anchor="start" x="750" y="-546.5" font-family="Helvetica,sans-Serif" font-size="10.00"> typename allocator</text>
<text text-anchor="start" x="750" y="-535.5" font-family="Helvetica,sans-Serif" font-size="10.00">_type::template rebind</text>
<text text-anchor="middle" x="806" y="-524.5" font-family="Helvetica,sans-Serif" font-size="10.00">&lt; word_t &gt;::other &gt;</text>
<polyline fill="none" stroke="black" points="742,-517.5 870,-517.5"/>
<text text-anchor="start" x="750" y="-505.5" font-family="Helvetica,sans-Serif" font-size="10.00">+ word_t elements</text>
<polyline fill="none" stroke="black" points="742,-498.5 870,-498.5"/>
<text text-anchor="middle" x="806" y="-486.5" font-family="Helvetica,sans-Serif" font-size="10.00"> </text>
</a>
</g>
</g>
<!-- Node14&#45;&gt;Node15 -->
<g id="edge19" class="edge">
<title>Node14&#45;&gt;Node15</title>
<path fill="none" stroke="orange" d="M681.67,-929.89C716.49,-901.53 761.73,-857.86 784,-808 818.91,-729.85 816.53,-627.42 811.42,-569.83"/>
<polygon fill="orange" stroke="orange" points="679.14,-927.43 673.52,-936.41 683.51,-932.9 679.14,-927.43"/>
<text text-anchor="start" x="809" y="-767" font-family="Helvetica,sans-Serif" font-size="10.00"> &lt; word_t, typename</text>
<text text-anchor="start" x="809" y="-756" font-family="Helvetica,sans-Serif" font-size="10.00"> allocator_type::template</text>
<text text-anchor="middle" x="875.5" y="-745" font-family="Helvetica,sans-Serif" font-size="10.00"> rebind&lt; word_t &gt;::other &gt;</text>
</g>
<!-- Node15&#45;&gt;Node1 -->
<g id="edge18" class="edge">
<title>Node15&#45;&gt;Node1</title>
<path fill="none" stroke="#404040" d="M793.04,-479.27C781.24,-444.01 761.32,-394.66 733,-358 686.53,-297.85 618.4,-245.08 564.4,-208.65"/>
<polygon fill="none" stroke="#404040" points="564.13,-208.47 556.92,-208.47 554.15,-201.82 561.36,-201.82 564.13,-208.47"/>
<text text-anchor="middle" x="732" y="-332" font-family="Helvetica,sans-Serif" font-size="10.00"> &#45;freq_</text>
</g>
</g>
</svg>
        <g id="navigator" transform="translate(0 0)" fill="#404254">
                <rect fill="#f2f5e9" fill-opacity="0.5" stroke="#606060" stroke-width=".5" x="0" y="0" width="60" height="60"/>
                <use id="zoomplus" xlink:href="#zoomPlus" x="17" y="9" onmousedown="handleZoom(evt,'in')"/>
                <use id="zoomminus" xlink:href="#zoomMin" x="42" y="9" onmousedown="handleZoom(evt,'out')"/>
                <use id="reset" xlink:href="#resetDef" x="30" y="36" onmousedown="handleReset()"/>
                <g id="arrowUp" xlink:href="#dirArrow" transform="translate(30 24)" onmousedown="handlePan(0,-1)">
                  <use xlink:href="#rim" fill="#404040">
                        <set attributeName="fill" to="#808080" begin="arrowUp.mouseover" end="arrowUp.mouseout"/>
                  </use>
                  <path fill="none" stroke="white" stroke-width="1.5" d="M0,-3.0v7 M-2.5,-0.5L0,-3.0L2.5,-0.5"/>
                </g>
                <g id="arrowRight" xlink:href="#dirArrow" transform="rotate(90) translate(36 -43)" onmousedown="handlePan(1,0)">
                  <use xlink:href="#rim" fill="#404040">
                        <set attributeName="fill" to="#808080" begin="arrowRight.mouseover" end="arrowRight.mouseout"/>
                  </use>
                  <path fill="none" stroke="white" stroke-width="1.5" d="M0,-3.0v7 M-2.5,-0.5L0,-3.0L2.5,-0.5"/>
                </g>
                <g id="arrowDown" xlink:href="#dirArrow" transform="rotate(180) translate(-30 -48)" onmousedown="handlePan(0,1)">
                  <use xlink:href="#rim" fill="#404040">
                        <set attributeName="fill" to="#808080" begin="arrowDown.mouseover" end="arrowDown.mouseout"/>
                  </use>
                  <path fill="none" stroke="white" stroke-width="1.5" d="M0,-3.0v7 M-2.5,-0.5L0,-3.0L2.5,-0.5"/>
                </g>
                <g id="arrowLeft" xlink:href="#dirArrow" transform="rotate(270) translate(-36 17)" onmousedown="handlePan(-1,0)">
                  <use xlink:href="#rim" fill="#404040">
                        <set attributeName="fill" to="#808080" begin="arrowLeft.mouseover" end="arrowLeft.mouseout"/>
                  </use>
                  <path fill="none" stroke="white" stroke-width="1.5" d="M0,-3.0v7 M-2.5,-0.5L0,-3.0L2.5,-0.5"/>
                </g>
        </g>
        <svg viewBox="0 0 15 15" width="100%" height="30px" preserveAspectRatio="xMaxYMin meet">
         <g id="arrow_out" transform="scale(0.3 0.3)">
          <a xlink:href="classuxn_1_1patl_1_1ngram__stat__coll__graph_org.svg" target="_base">
           <rect id="button" ry="5" rx="5" y="6" x="6" height="38" width="38"
                fill="#f2f5e9" fill-opacity="0.5" stroke="#606060" stroke-width="1.0"/>
           <path id="arrow"
             d="M 11.500037,31.436501 C 11.940474,20.09759 22.043105,11.32322 32.158766,21.979434 L 37.068811,17.246167 C 37.068811,17.246167 37.088388,32 37.088388,32 L 22.160133,31.978069 C 22.160133,31.978069 26.997745,27.140456 26.997745,27.140456 C 18.528582,18.264221 13.291696,25.230495 11.500037,31.436501 z"
             style="fill:#404040;"/>
          </a>
         </g>
        </svg>
</svg>
