<?xml version="1.0" encoding="UTF-8" standalone="no"?>
<!DOCTYPE svg PUBLIC "-//W3C//DTD SVG 1.1//EN"
 "http://www.w3.org/Graphics/SVG/1.1/DTD/svg11.dtd">
<!-- Generated by graphviz version 5.0.1 (20220820.1526)
 -->
<!-- Title: uxn::patl::impl::assoc_generic&lt; This, T, 0 &gt;::const_reverse_iterator Pages: 1 -->
<svg width="145pt" height="215pt"
 viewBox="0.00 0.00 145.00 215.00" xmlns="http://www.w3.org/2000/svg" xmlns:xlink="http://www.w3.org/1999/xlink">
<g id="graph0" class="graph" transform="scale(1 1) rotate(0) translate(4 211)">
<title>uxn::patl::impl::assoc_generic&lt; This, T, 0 &gt;::const_reverse_iterator</title>
<!-- Node1 -->
<g id="node1" class="node">
<title>Node1</title>
<g id="a_node1"><a xlink:title=" ">
<polygon fill="#bfbfbf" stroke="black" points="0,-0.5 0,-101.5 137,-101.5 137,-0.5 0,-0.5"/>
<text text-anchor="start" x="8" y="-89.5" font-family="Helvetica,sans-Serif" font-size="10.00">uxn::patl::impl::assoc</text>
<text text-anchor="start" x="8" y="-78.5" font-family="Helvetica,sans-Serif" font-size="10.00">_generic&lt; This, T, 0 &gt;</text>
<text text-anchor="middle" x="68.5" y="-67.5" font-family="Helvetica,sans-Serif" font-size="10.00">::const_reverse_iterator</text>
<polyline fill="none" stroke="black" points="0,-60.5 137,-60.5"/>
<text text-anchor="middle" x="68.5" y="-48.5" font-family="Helvetica,sans-Serif" font-size="10.00"> </text>
<polyline fill="none" stroke="black" points="0,-41.5 137,-41.5"/>
<text text-anchor="start" x="8" y="-29.5" font-family="Helvetica,sans-Serif" font-size="10.00">+ const_reverse_iterator</text>
<text text-anchor="start" x="8" y="-18.5" font-family="Helvetica,sans-Serif" font-size="10.00">(const const_iterator</text>
<text text-anchor="start" x="8" y="-7.5" font-family="Helvetica,sans-Serif" font-size="10.00"> &amp;cit=const_iterator())</text>
</a>
</g>
</g>
<!-- Node2 -->
<g id="node2" class="node">
<title>Node2</title>
<g id="a_node2"><a xlink:title=" ">
<polygon fill="none" stroke="black" points="10.5,-138.5 10.5,-206.5 126.5,-206.5 126.5,-138.5 10.5,-138.5"/>
<text text-anchor="start" x="18.5" y="-194.5" font-family="Helvetica,sans-Serif" font-size="10.00">std::reverse_iterator</text>
<text text-anchor="middle" x="68.5" y="-183.5" font-family="Helvetica,sans-Serif" font-size="10.00">&lt; const_iterator &gt;</text>
<polyline fill="none" stroke="black" points="10.5,-176.5 126.5,-176.5"/>
<text text-anchor="middle" x="68.5" y="-164.5" font-family="Helvetica,sans-Serif" font-size="10.00"> </text>
<polyline fill="none" stroke="black" points="10.5,-157.5 126.5,-157.5"/>
<text text-anchor="middle" x="68.5" y="-145.5" font-family="Helvetica,sans-Serif" font-size="10.00"> </text>
</a>
</g>
</g>
<!-- Node2&#45;&gt;Node1 -->
<g id="edge1" class="edge">
<title>Node2&#45;&gt;Node1</title>
<path fill="none" stroke="midnightblue" d="M68.5,-128.05C68.5,-119.47 68.5,-110.41 68.5,-101.65"/>
<polygon fill="none" stroke="midnightblue" points="65,-128.21 68.5,-138.21 72,-128.21 65,-128.21"/>
</g>
</g>
</svg>
