<?xml version="1.0" encoding="UTF-8" standalone="no"?>
<!DOCTYPE svg PUBLIC "-//W3C//DTD SVG 1.1//EN"
 "http://www.w3.org/Graphics/SVG/1.1/DTD/svg11.dtd">
<!-- Generated by graphviz version 5.0.1 (20220820.1526)
 -->
<!-- Title: uxn::patl::impl::vertex_generic::rbegin Pages: 1 -->
<svg width="631pt" height="39pt"
 viewBox="0.00 0.00 631.00 39.00" xmlns="http://www.w3.org/2000/svg" xmlns:xlink="http://www.w3.org/1999/xlink">
<g id="graph0" class="graph" transform="scale(1 1) rotate(0) translate(4 35)">
<title>uxn::patl::impl::vertex_generic::rbegin</title>
<!-- Node1 -->
<g id="node1" class="node">
<title>Node1</title>
<g id="a_node1"><a xlink:title=" ">
<polygon fill="#bfbfbf" stroke="black" points="0,-0.5 0,-30.5 125,-30.5 125,-0.5 0,-0.5"/>
<text text-anchor="start" x="8" y="-18.5" font-family="Helvetica,sans-Serif" font-size="10.00">uxn::patl::impl::vertex</text>
<text text-anchor="middle" x="62.5" y="-7.5" font-family="Helvetica,sans-Serif" font-size="10.00">_generic::rbegin</text>
</a>
</g>
</g>
<!-- Node2 -->
<g id="node2" class="node">
<title>Node2</title>
<g id="a_node2"><a xlink:href="../../d3/dd2/classuxn_1_1patl_1_1impl_1_1vertex__generic.html#a92fd2973f401c4f0301c2d85b8a65f0f" target="_top" xlink:title=" ">
<polygon fill="none" stroke="black" points="161,-0.5 161,-30.5 286,-30.5 286,-0.5 161,-0.5"/>
<text text-anchor="start" x="169" y="-18.5" font-family="Helvetica,sans-Serif" font-size="10.00">uxn::patl::impl::vertex</text>
<text text-anchor="middle" x="223.5" y="-7.5" font-family="Helvetica,sans-Serif" font-size="10.00">_generic::end</text>
</a>
</g>
</g>
<!-- Node1&#45;&gt;Node2 -->
<g id="edge1" class="edge">
<title>Node1&#45;&gt;Node2</title>
<path fill="none" stroke="midnightblue" d="M125.43,-15.5C133.67,-15.5 142.18,-15.5 150.58,-15.5"/>
<polygon fill="midnightblue" stroke="midnightblue" points="150.74,-19 160.74,-15.5 150.74,-12 150.74,-19"/>
</g>
<!-- Node3 -->
<g id="node3" class="node">
<title>Node3</title>
<g id="a_node3"><a xlink:href="../../d3/dd2/classuxn_1_1patl_1_1impl_1_1vertex__generic.html#a15a35b331f697a69053ea6f1c3570f64" target="_top" xlink:title=" ">
<polygon fill="none" stroke="black" points="322,-0.5 322,-30.5 456,-30.5 456,-0.5 322,-0.5"/>
<text text-anchor="start" x="330" y="-18.5" font-family="Helvetica,sans-Serif" font-size="10.00">uxn::patl::impl::vertex</text>
<text text-anchor="middle" x="389" y="-7.5" font-family="Helvetica,sans-Serif" font-size="10.00">_generic::postorder_end</text>
</a>
</g>
</g>
<!-- Node2&#45;&gt;Node3 -->
<g id="edge2" class="edge">
<title>Node2&#45;&gt;Node3</title>
<path fill="none" stroke="midnightblue" d="M286.31,-15.5C294.54,-15.5 303.06,-15.5 311.5,-15.5"/>
<polygon fill="midnightblue" stroke="midnightblue" points="311.73,-19 321.73,-15.5 311.73,-12 311.73,-19"/>
</g>
<!-- Node4 -->
<g id="node4" class="node">
<title>Node4</title>
<g id="a_node4"><a xlink:href="../../d3/d81/classuxn_1_1patl_1_1impl_1_1const__vertex__generic.html#a50f5c5fa0cf604e7a3ea38be470472c2" target="_top" xlink:title=" ">
<polygon fill="none" stroke="black" points="492,-0.5 492,-30.5 623,-30.5 623,-0.5 492,-0.5"/>
<text text-anchor="start" x="500" y="-18.5" font-family="Helvetica,sans-Serif" font-size="10.00">uxn::patl::impl::const</text>
<text text-anchor="middle" x="557.5" y="-7.5" font-family="Helvetica,sans-Serif" font-size="10.00">_vertex_generic::toggle</text>
</a>
</g>
</g>
<!-- Node3&#45;&gt;Node4 -->
<g id="edge3" class="edge">
<title>Node3&#45;&gt;Node4</title>
<path fill="none" stroke="midnightblue" d="M456.28,-15.5C464.6,-15.5 473.15,-15.5 481.59,-15.5"/>
<polygon fill="midnightblue" stroke="midnightblue" points="481.8,-19 491.8,-15.5 481.8,-12 481.8,-19"/>
</g>
</g>
</svg>
