<?xml version="1.0" encoding="UTF-8" standalone="no"?>
<!DOCTYPE svg PUBLIC "-//W3C//DTD SVG 1.1//EN"
 "http://www.w3.org/Graphics/SVG/1.1/DTD/svg11.dtd">
<!-- Generated by graphviz version 5.0.1 (20220820.1526)
 -->
<!-- Title: uxn::patl::impl::vertex_generic::postorder_end Pages: 1 -->
<svg width="483pt" height="88pt"
 viewBox="0.00 0.00 483.00 88.00" xmlns="http://www.w3.org/2000/svg" xmlns:xlink="http://www.w3.org/1999/xlink">
<g id="graph0" class="graph" transform="scale(1 1) rotate(0) translate(4 84)">
<title>uxn::patl::impl::vertex_generic::postorder_end</title>
<!-- Node1 -->
<g id="node1" class="node">
<title>Node1</title>
<g id="a_node1"><a xlink:title=" ">
<polygon fill="#bfbfbf" stroke="black" points="341,-24.5 341,-54.5 475,-54.5 475,-24.5 341,-24.5"/>
<text text-anchor="start" x="349" y="-42.5" font-family="Helvetica,sans-Serif" font-size="10.00">uxn::patl::impl::vertex</text>
<text text-anchor="middle" x="408" y="-31.5" font-family="Helvetica,sans-Serif" font-size="10.00">_generic::postorder_end</text>
</a>
</g>
</g>
<!-- Node2 -->
<g id="node2" class="node">
<title>Node2</title>
<g id="a_node2"><a xlink:href="../../d0/d55/classuxn_1_1patl_1_1impl_1_1trie__generic_3_01T_00_010_01_4.html#ac0822b84c8dbff5c9d14b158bbdb173e" target="_top" xlink:title=" ">
<polygon fill="none" stroke="black" points="161,-49.5 161,-79.5 305,-79.5 305,-49.5 161,-49.5"/>
<text text-anchor="start" x="169" y="-67.5" font-family="Helvetica,sans-Serif" font-size="10.00">uxn::patl::impl::trie</text>
<text text-anchor="middle" x="233" y="-56.5" font-family="Helvetica,sans-Serif" font-size="10.00">_generic&lt; T, 0 &gt;::del_tree</text>
</a>
</g>
</g>
<!-- Node1&#45;&gt;Node2 -->
<g id="edge1" class="edge">
<title>Node1&#45;&gt;Node2</title>
<path fill="none" stroke="midnightblue" d="M330.7,-50.53C322.19,-51.76 313.54,-53.01 305.1,-54.23"/>
<polygon fill="midnightblue" stroke="midnightblue" points="331.21,-53.99 340.61,-49.09 330.21,-47.06 331.21,-53.99"/>
</g>
<!-- Node3 -->
<g id="node3" class="node">
<title>Node3</title>
<g id="a_node3"><a xlink:href="../../d3/dd2/classuxn_1_1patl_1_1impl_1_1vertex__generic.html#a92fd2973f401c4f0301c2d85b8a65f0f" target="_top" xlink:title=" ">
<polygon fill="none" stroke="black" points="170.5,-0.5 170.5,-30.5 295.5,-30.5 295.5,-0.5 170.5,-0.5"/>
<text text-anchor="start" x="178.5" y="-18.5" font-family="Helvetica,sans-Serif" font-size="10.00">uxn::patl::impl::vertex</text>
<text text-anchor="middle" x="233" y="-7.5" font-family="Helvetica,sans-Serif" font-size="10.00">_generic::end</text>
</a>
</g>
</g>
<!-- Node1&#45;&gt;Node3 -->
<g id="edge2" class="edge">
<title>Node1&#45;&gt;Node3</title>
<path fill="none" stroke="midnightblue" d="M330.46,-28.88C318.82,-27.27 306.94,-25.62 295.67,-24.06"/>
<polygon fill="midnightblue" stroke="midnightblue" points="330.22,-32.38 340.61,-30.29 331.18,-25.45 330.22,-32.38"/>
</g>
<!-- Node4 -->
<g id="node4" class="node">
<title>Node4</title>
<g id="a_node4"><a xlink:href="../../d3/dd2/classuxn_1_1patl_1_1impl_1_1vertex__generic.html#abdbc0f28cc1b04718d4f96e7a4c4e9d5" target="_top" xlink:title=" ">
<polygon fill="none" stroke="black" points="0,-0.5 0,-30.5 125,-30.5 125,-0.5 0,-0.5"/>
<text text-anchor="start" x="8" y="-18.5" font-family="Helvetica,sans-Serif" font-size="10.00">uxn::patl::impl::vertex</text>
<text text-anchor="middle" x="62.5" y="-7.5" font-family="Helvetica,sans-Serif" font-size="10.00">_generic::rbegin</text>
</a>
</g>
</g>
<!-- Node3&#45;&gt;Node4 -->
<g id="edge3" class="edge">
<title>Node3&#45;&gt;Node4</title>
<path fill="none" stroke="midnightblue" d="M160.13,-15.5C148.53,-15.5 136.61,-15.5 125.28,-15.5"/>
<polygon fill="midnightblue" stroke="midnightblue" points="160.21,-19 170.21,-15.5 160.21,-12 160.21,-19"/>
</g>
</g>
</svg>
