<?xml version="1.0" encoding="UTF-8" standalone="no"?>
<!DOCTYPE svg PUBLIC "-//W3C//DTD SVG 1.1//EN"
 "http://www.w3.org/Graphics/SVG/1.1/DTD/svg11.dtd">
<!-- Generated by graphviz version 5.0.1 (20220820.1526)
 -->
<!-- Title: uxn::patl::impl::generator_base::next Pages: 1 -->
<svg width="461pt" height="88pt"
 viewBox="0.00 0.00 461.00 88.00" xmlns="http://www.w3.org/2000/svg" xmlns:xlink="http://www.w3.org/1999/xlink">
<g id="graph0" class="graph" transform="scale(1 1) rotate(0) translate(4 84)">
<title>uxn::patl::impl::generator_base::next</title>
<!-- Node1 -->
<g id="node1" class="node">
<title>Node1</title>
<g id="a_node1"><a xlink:title=" ">
<polygon fill="#bfbfbf" stroke="black" points="313,-24.5 313,-54.5 453,-54.5 453,-24.5 313,-24.5"/>
<text text-anchor="start" x="321" y="-42.5" font-family="Helvetica,sans-Serif" font-size="10.00">uxn::patl::impl::generator</text>
<text text-anchor="middle" x="383" y="-31.5" font-family="Helvetica,sans-Serif" font-size="10.00">_base::next</text>
</a>
</g>
</g>
<!-- Node2 -->
<g id="node2" class="node">
<title>Node2</title>
<g id="a_node2"><a xlink:href="../../d8/d99/classuxn_1_1patl_1_1unordered__map.html#ad0b9d0a354821187cb46103da804660d" target="_top" xlink:title=" ">
<polygon fill="none" stroke="black" points="162,-0.5 162,-30.5 277,-30.5 277,-0.5 162,-0.5"/>
<text text-anchor="start" x="170" y="-18.5" font-family="Helvetica,sans-Serif" font-size="10.00">uxn::patl::unordered</text>
<text text-anchor="middle" x="219.5" y="-7.5" font-family="Helvetica,sans-Serif" font-size="10.00">_map::init</text>
</a>
</g>
</g>
<!-- Node1&#45;&gt;Node2 -->
<g id="edge1" class="edge">
<title>Node1&#45;&gt;Node2</title>
<path fill="none" stroke="midnightblue" d="M302.56,-27.7C294.01,-26.42 285.44,-25.15 277.23,-23.93"/>
<polygon fill="midnightblue" stroke="midnightblue" points="302.17,-31.17 312.57,-29.18 303.2,-24.25 302.17,-31.17"/>
</g>
<!-- Node5 -->
<g id="node5" class="node">
<title>Node5</title>
<g id="a_node5"><a xlink:href="../../d8/d99/classuxn_1_1patl_1_1unordered__map.html#abf70f60dcd06fc5ea658b06a00cbf5ea" target="_top" xlink:title=" ">
<polygon fill="none" stroke="black" points="162,-49.5 162,-79.5 277,-79.5 277,-49.5 162,-49.5"/>
<text text-anchor="start" x="170" y="-67.5" font-family="Helvetica,sans-Serif" font-size="10.00">uxn::patl::unordered</text>
<text text-anchor="middle" x="219.5" y="-56.5" font-family="Helvetica,sans-Serif" font-size="10.00">_map::resize</text>
</a>
</g>
</g>
<!-- Node1&#45;&gt;Node5 -->
<g id="edge4" class="edge">
<title>Node1&#45;&gt;Node5</title>
<path fill="none" stroke="midnightblue" d="M302.56,-51.8C294.01,-53.12 285.44,-54.45 277.23,-55.72"/>
<polygon fill="midnightblue" stroke="midnightblue" points="303.23,-55.24 312.57,-50.25 302.15,-48.32 303.23,-55.24"/>
</g>
<!-- Node3 -->
<g id="node3" class="node">
<title>Node3</title>
<g id="a_node3"><a xlink:href="../../d8/d99/classuxn_1_1patl_1_1unordered__map.html#a4f8db8da0cfb2604affd3c362e8cecd2" target="_top" xlink:title=" ">
<polygon fill="none" stroke="black" points="5.5,-49.5 5.5,-79.5 120.5,-79.5 120.5,-49.5 5.5,-49.5"/>
<text text-anchor="start" x="13.5" y="-67.5" font-family="Helvetica,sans-Serif" font-size="10.00">uxn::patl::unordered</text>
<text text-anchor="middle" x="63" y="-56.5" font-family="Helvetica,sans-Serif" font-size="10.00">_map::operator[]</text>
</a>
</g>
</g>
<!-- Node2&#45;&gt;Node3 -->
<g id="edge2" class="edge">
<title>Node2&#45;&gt;Node3</title>
<path fill="none" stroke="midnightblue" d="M160.93,-33.76C144.63,-38.93 127.09,-44.49 111.46,-49.45"/>
<polygon fill="midnightblue" stroke="midnightblue" points="162.41,-36.96 170.88,-30.6 160.29,-30.29 162.41,-36.96"/>
</g>
<!-- Node4 -->
<g id="node4" class="node">
<title>Node4</title>
<g id="a_node4"><a xlink:href="../../d8/d99/classuxn_1_1patl_1_1unordered__map.html#a4d774b750c40429a8b5d9b76a0dba69e" target="_top" xlink:title=" ">
<polygon fill="none" stroke="black" points="0,-0.5 0,-30.5 126,-30.5 126,-0.5 0,-0.5"/>
<text text-anchor="start" x="8" y="-18.5" font-family="Helvetica,sans-Serif" font-size="10.00">uxn::patl::unordered</text>
<text text-anchor="middle" x="63" y="-7.5" font-family="Helvetica,sans-Serif" font-size="10.00">_map::unordered_map</text>
</a>
</g>
</g>
<!-- Node2&#45;&gt;Node4 -->
<g id="edge3" class="edge">
<title>Node2&#45;&gt;Node4</title>
<path fill="none" stroke="midnightblue" d="M151.62,-15.5C143.15,-15.5 134.51,-15.5 126.12,-15.5"/>
<polygon fill="midnightblue" stroke="midnightblue" points="151.85,-19 161.85,-15.5 151.85,-12 151.85,-19"/>
</g>
<!-- Node5&#45;&gt;Node3 -->
<g id="edge5" class="edge">
<title>Node5&#45;&gt;Node3</title>
<path fill="none" stroke="midnightblue" d="M151.63,-64.5C141.3,-64.5 130.72,-64.5 120.65,-64.5"/>
<polygon fill="midnightblue" stroke="midnightblue" points="151.85,-68 161.85,-64.5 151.85,-61 151.85,-68"/>
</g>
</g>
</svg>
