<?xml version="1.0" encoding="UTF-8" standalone="no"?>
<!DOCTYPE svg PUBLIC "-//W3C//DTD SVG 1.1//EN"
 "http://www.w3.org/Graphics/SVG/1.1/DTD/svg11.dtd">
<!-- Generated by graphviz version 5.0.1 (20220820.1526)
 -->
<!-- Title: uxn::patl::super_maxrep_iterator&lt; Container &gt;::key_type_less Pages: 1 -->
<svg width="143pt" height="259pt"
 viewBox="0.00 0.00 143.00 259.00" xmlns="http://www.w3.org/2000/svg" xmlns:xlink="http://www.w3.org/1999/xlink">
<g id="graph0" class="graph" transform="scale(1 1) rotate(0) translate(4 255)">
<title>uxn::patl::super_maxrep_iterator&lt; Container &gt;::key_type_less</title>
<!-- Node1 -->
<g id="node1" class="node">
<title>Node1</title>
<g id="a_node1"><a xlink:title=" ">
<polygon fill="#bfbfbf" stroke="black" points="0,-0.5 0,-134.5 135,-134.5 135,-0.5 0,-0.5"/>
<text text-anchor="start" x="8" y="-122.5" font-family="Helvetica,sans-Serif" font-size="10.00">uxn::patl::super_maxrep</text>
<text text-anchor="start" x="8" y="-111.5" font-family="Helvetica,sans-Serif" font-size="10.00">_iterator&lt; Container &gt;</text>
<text text-anchor="middle" x="67.5" y="-100.5" font-family="Helvetica,sans-Serif" font-size="10.00">::key_type_less</text>
<polyline fill="none" stroke="black" points="0,-93.5 135,-93.5"/>
<text text-anchor="start" x="8" y="-81.5" font-family="Helvetica,sans-Serif" font-size="10.00">&#45; key_type keys_</text>
<polyline fill="none" stroke="black" points="0,-74.5 135,-74.5"/>
<text text-anchor="start" x="8" y="-62.5" font-family="Helvetica,sans-Serif" font-size="10.00">+ key_type_less()</text>
<text text-anchor="start" x="8" y="-51.5" font-family="Helvetica,sans-Serif" font-size="10.00">+ key_type_less(const</text>
<text text-anchor="start" x="8" y="-40.5" font-family="Helvetica,sans-Serif" font-size="10.00"> key_type &amp;keys)</text>
<text text-anchor="start" x="8" y="-29.5" font-family="Helvetica,sans-Serif" font-size="10.00">+ bool operator()(const</text>
<text text-anchor="start" x="8" y="-18.5" font-family="Helvetica,sans-Serif" font-size="10.00"> key_type &amp;key0, const</text>
<text text-anchor="start" x="8" y="-7.5" font-family="Helvetica,sans-Serif" font-size="10.00"> key_type &amp;key1) const</text>
</a>
</g>
</g>
<!-- Node2 -->
<g id="node2" class="node">
<title>Node2</title>
<g id="a_node2"><a xlink:title=" ">
<polygon fill="none" stroke="black" points="5,-171.5 5,-250.5 130,-250.5 130,-171.5 5,-171.5"/>
<text text-anchor="start" x="13" y="-238.5" font-family="Helvetica,sans-Serif" font-size="10.00">std::binary_function</text>
<text text-anchor="start" x="13" y="-227.5" font-family="Helvetica,sans-Serif" font-size="10.00">&lt; key_type, key_type,</text>
<text text-anchor="middle" x="67.5" y="-216.5" font-family="Helvetica,sans-Serif" font-size="10.00"> bool &gt;</text>
<polyline fill="none" stroke="black" points="5,-209.5 130,-209.5"/>
<text text-anchor="middle" x="67.5" y="-197.5" font-family="Helvetica,sans-Serif" font-size="10.00"> </text>
<polyline fill="none" stroke="black" points="5,-190.5 130,-190.5"/>
<text text-anchor="middle" x="67.5" y="-178.5" font-family="Helvetica,sans-Serif" font-size="10.00"> </text>
</a>
</g>
</g>
<!-- Node2&#45;&gt;Node1 -->
<g id="edge1" class="edge">
<title>Node2&#45;&gt;Node1</title>
<path fill="none" stroke="midnightblue" d="M67.5,-161.16C67.5,-152.59 67.5,-143.55 67.5,-134.6"/>
<polygon fill="none" stroke="midnightblue" points="64,-161.33 67.5,-171.33 71,-161.33 64,-161.33"/>
</g>
</g>
</svg>
