<?xml version="1.0" encoding="UTF-8" standalone="no"?>
<!DOCTYPE svg PUBLIC "-//W3C//DTD SVG 1.1//EN"
 "http://www.w3.org/Graphics/SVG/1.1/DTD/svg11.dtd">
<!-- Generated by graphviz version 5.0.1 (20220820.1526)
 -->
<!-- Title: uxn::patl::range_encoder&lt; Out &gt; Pages: 1 -->
<svg width="151pt" height="259pt"
 viewBox="0.00 0.00 151.00 259.00" xmlns="http://www.w3.org/2000/svg" xmlns:xlink="http://www.w3.org/1999/xlink">
<g id="graph0" class="graph" transform="scale(1 1) rotate(0) translate(4 255)">
<title>uxn::patl::range_encoder&lt; Out &gt;</title>
<!-- Node1 -->
<g id="node1" class="node">
<title>Node1</title>
<g id="a_node1"><a xlink:title=" ">
<polygon fill="#bfbfbf" stroke="black" points="0,-0.5 0,-145.5 143,-145.5 143,-0.5 0,-0.5"/>
<text text-anchor="start" x="8" y="-133.5" font-family="Helvetica,sans-Serif" font-size="10.00">uxn::patl::range_encoder</text>
<text text-anchor="middle" x="71.5" y="-122.5" font-family="Helvetica,sans-Serif" font-size="10.00">&lt; Out &gt;</text>
<polyline fill="none" stroke="black" points="0,-115.5 143,-115.5"/>
<text text-anchor="start" x="8" y="-103.5" font-family="Helvetica,sans-Serif" font-size="10.00">&#45; Out out_</text>
<polyline fill="none" stroke="black" points="0,-96.5 143,-96.5"/>
<text text-anchor="start" x="8" y="-84.5" font-family="Helvetica,sans-Serif" font-size="10.00">+ range_encoder(Out out)</text>
<text text-anchor="start" x="8" y="-73.5" font-family="Helvetica,sans-Serif" font-size="10.00">+ ~range_encoder()</text>
<text text-anchor="start" x="8" y="-62.5" font-family="Helvetica,sans-Serif" font-size="10.00">+ void encode(word_t</text>
<text text-anchor="start" x="8" y="-51.5" font-family="Helvetica,sans-Serif" font-size="10.00"> cum_freq, word_t freq,</text>
<text text-anchor="start" x="8" y="-40.5" font-family="Helvetica,sans-Serif" font-size="10.00"> word_t tot_freq)</text>
<text text-anchor="start" x="8" y="-29.5" font-family="Helvetica,sans-Serif" font-size="10.00">+ void encode_bit(word</text>
<text text-anchor="start" x="8" y="-18.5" font-family="Helvetica,sans-Serif" font-size="10.00">_t bit)</text>
<text text-anchor="start" x="8" y="-7.5" font-family="Helvetica,sans-Serif" font-size="10.00">+ void inner_normalize()</text>
</a>
</g>
</g>
<!-- Node2 -->
<g id="node2" class="node">
<title>Node2</title>
<g id="a_node2"><a xlink:title=" ">
<polygon fill="none" stroke="black" points="0,-182.5 0,-250.5 143,-250.5 143,-182.5 0,-182.5"/>
<text text-anchor="start" x="8" y="-238.5" font-family="Helvetica,sans-Serif" font-size="10.00">impl::range_coder&lt;</text>
<text text-anchor="middle" x="71.5" y="-227.5" font-family="Helvetica,sans-Serif" font-size="10.00"> range_encoder&lt; Out &gt; &gt;</text>
<polyline fill="none" stroke="black" points="0,-220.5 143,-220.5"/>
<text text-anchor="middle" x="71.5" y="-208.5" font-family="Helvetica,sans-Serif" font-size="10.00"> </text>
<polyline fill="none" stroke="black" points="0,-201.5 143,-201.5"/>
<text text-anchor="middle" x="71.5" y="-189.5" font-family="Helvetica,sans-Serif" font-size="10.00"> </text>
</a>
</g>
</g>
<!-- Node2&#45;&gt;Node1 -->
<g id="edge1" class="edge">
<title>Node2&#45;&gt;Node1</title>
<path fill="none" stroke="midnightblue" d="M71.5,-172.09C71.5,-163.73 71.5,-154.76 71.5,-145.77"/>
<polygon fill="none" stroke="midnightblue" points="68,-172.32 71.5,-182.32 75,-172.32 68,-172.32"/>
</g>
</g>
</svg>
