<?xml version="1.0" encoding="UTF-8" standalone="no"?>
<!DOCTYPE svg PUBLIC "-//W3C//DTD SVG 1.1//EN"
 "http://www.w3.org/Graphics/SVG/1.1/DTD/svg11.dtd">
<!-- Generated by graphviz version 5.0.1 (20220820.1526)
 -->
<!-- Title: uxn/patl/bit_comp.hpp Pages: 1 -->
<svg width="2077pt" height="207pt"
 viewBox="0.00 0.00 2076.50 207.00" xmlns="http://www.w3.org/2000/svg" xmlns:xlink="http://www.w3.org/1999/xlink">
<g id="graph0" class="graph" transform="scale(1 1) rotate(0) translate(4 203)">
<title>uxn/patl/bit_comp.hpp</title>
<!-- Node1 -->
<g id="node1" class="node">
<title>Node1</title>
<g id="a_node1"><a xlink:title=" ">
<polygon fill="#bfbfbf" stroke="black" points="305.5,-179.5 305.5,-198.5 430.5,-198.5 430.5,-179.5 305.5,-179.5"/>
<text text-anchor="middle" x="368" y="-186.5" font-family="Helvetica,sans-Serif" font-size="10.00">uxn/patl/bit_comp.hpp</text>
</a>
</g>
</g>
<!-- Node2 -->
<g id="node2" class="node">
<title>Node2</title>
<g id="a_node2"><a xlink:href="../../d4/dca/ngram__stat_8hpp.html" target="_top" xlink:title=" ">
<polygon fill="none" stroke="black" points="0,-123.5 0,-142.5 136,-142.5 136,-123.5 0,-123.5"/>
<text text-anchor="middle" x="68" y="-130.5" font-family="Helvetica,sans-Serif" font-size="10.00">uxn/patl/ngram_stat.hpp</text>
</a>
</g>
</g>
<!-- Node1&#45;&gt;Node2 -->
<g id="edge1" class="edge">
<title>Node1&#45;&gt;Node2</title>
<path fill="none" stroke="midnightblue" d="M310.58,-177.66C253.88,-167.46 168.21,-152.04 115.31,-142.52"/>
<polygon fill="midnightblue" stroke="midnightblue" points="310,-181.12 320.46,-179.44 311.24,-174.23 310,-181.12"/>
</g>
<!-- Node3 -->
<g id="node3" class="node">
<title>Node3</title>
<g id="a_node3"><a xlink:href="../../d5/d01/suffix__map_8hpp.html" target="_top" xlink:title=" ">
<polygon fill="none" stroke="black" points="154,-123.5 154,-142.5 288,-142.5 288,-123.5 154,-123.5"/>
<text text-anchor="middle" x="221" y="-130.5" font-family="Helvetica,sans-Serif" font-size="10.00">uxn/patl/suffix_map.hpp</text>
</a>
</g>
</g>
<!-- Node1&#45;&gt;Node3 -->
<g id="edge2" class="edge">
<title>Node1&#45;&gt;Node3</title>
<path fill="none" stroke="midnightblue" d="M335.08,-175.91C307.44,-165.75 268.66,-151.51 244.18,-142.52"/>
<polygon fill="midnightblue" stroke="midnightblue" points="334.11,-179.28 344.71,-179.44 336.53,-172.71 334.11,-179.28"/>
</g>
<!-- Node4 -->
<g id="node4" class="node">
<title>Node4</title>
<g id="a_node4"><a xlink:href="../../d4/dc0/suffix__set_8hpp.html" target="_top" xlink:title=" ">
<polygon fill="none" stroke="black" points="1352,-123.5 1352,-142.5 1480,-142.5 1480,-123.5 1352,-123.5"/>
<text text-anchor="middle" x="1416" y="-130.5" font-family="Helvetica,sans-Serif" font-size="10.00">uxn/patl/suffix_set.hpp</text>
</a>
</g>
</g>
<!-- Node1&#45;&gt;Node4 -->
<g id="edge3" class="edge">
<title>Node1&#45;&gt;Node4</title>
<path fill="none" stroke="midnightblue" d="M440.95,-184.24C636.07,-174.19 1167.6,-146.8 1351.99,-137.3"/>
<polygon fill="midnightblue" stroke="midnightblue" points="440.61,-180.75 430.81,-184.76 440.97,-187.74 440.61,-180.75"/>
</g>
<!-- Node12 -->
<g id="node12" class="node">
<title>Node12</title>
<g id="a_node12"><a xlink:href="../../df/dc9/trie__map_8hpp.html" target="_top" xlink:title=" ">
<polygon fill="none" stroke="black" points="306,-123.5 306,-142.5 430,-142.5 430,-123.5 306,-123.5"/>
<text text-anchor="middle" x="368" y="-130.5" font-family="Helvetica,sans-Serif" font-size="10.00">uxn/patl/trie_map.hpp</text>
</a>
</g>
</g>
<!-- Node1&#45;&gt;Node12 -->
<g id="edge11" class="edge">
<title>Node1&#45;&gt;Node12</title>
<path fill="none" stroke="midnightblue" d="M368,-168.8C368,-159.91 368,-149.78 368,-142.75"/>
<polygon fill="midnightblue" stroke="midnightblue" points="364.5,-169.08 368,-179.08 371.5,-169.08 364.5,-169.08"/>
</g>
<!-- Node15 -->
<g id="node15" class="node">
<title>Node15</title>
<g id="a_node15"><a xlink:href="../../d4/db1/trie__set_8hpp.html" target="_top" xlink:title=" ">
<polygon fill="none" stroke="black" points="586.5,-123.5 586.5,-142.5 703.5,-142.5 703.5,-123.5 586.5,-123.5"/>
<text text-anchor="middle" x="645" y="-130.5" font-family="Helvetica,sans-Serif" font-size="10.00">uxn/patl/trie_set.hpp</text>
</a>
</g>
</g>
<!-- Node1&#45;&gt;Node15 -->
<g id="edge14" class="edge">
<title>Node1&#45;&gt;Node15</title>
<path fill="none" stroke="midnightblue" d="M422,-177.47C474.35,-167.27 552.77,-151.98 601.31,-142.52"/>
<polygon fill="midnightblue" stroke="midnightblue" points="421.04,-174.09 411.89,-179.44 422.38,-180.97 421.04,-174.09"/>
</g>
<!-- Node5 -->
<g id="node5" class="node">
<title>Node5</title>
<g id="a_node5"><a xlink:href="../../d1/db2/insider_8cpp.html" target="_top" xlink:title=" ">
<polygon fill="none" stroke="black" points="1074,-62 1074,-81 1236,-81 1236,-62 1074,-62"/>
<text text-anchor="middle" x="1155" y="-69" font-family="Helvetica,sans-Serif" font-size="10.00">uxn/demos/insider/insider.cpp</text>
</a>
</g>
</g>
<!-- Node4&#45;&gt;Node5 -->
<g id="edge4" class="edge">
<title>Node4&#45;&gt;Node5</title>
<path fill="none" stroke="midnightblue" d="M1368.56,-121.19C1317.92,-109.64 1238.71,-91.58 1192.33,-81.01"/>
<polygon fill="midnightblue" stroke="midnightblue" points="1368.08,-124.66 1378.61,-123.48 1369.63,-117.84 1368.08,-124.66"/>
</g>
<!-- Node6 -->
<g id="node6" class="node">
<title>Node6</title>
<g id="a_node6"><a xlink:href="../../d3/d87/lz77_8cpp.html" target="_top" xlink:title=" ">
<polygon fill="none" stroke="black" points="1430.5,-62 1430.5,-81 1567.5,-81 1567.5,-62 1430.5,-62"/>
<text text-anchor="middle" x="1499" y="-69" font-family="Helvetica,sans-Serif" font-size="10.00">uxn/demos/lz77/lz77.cpp</text>
</a>
</g>
</g>
<!-- Node4&#45;&gt;Node6 -->
<g id="edge5" class="edge">
<title>Node4&#45;&gt;Node6</title>
<path fill="none" stroke="midnightblue" d="M1436.07,-117.61C1452.03,-106.17 1473.83,-90.55 1487.13,-81.01"/>
<polygon fill="midnightblue" stroke="midnightblue" points="1433.98,-114.8 1427.89,-123.48 1438.06,-120.49 1433.98,-114.8"/>
</g>
<!-- Node7 -->
<g id="node7" class="node">
<title>Node7</title>
<g id="a_node7"><a xlink:href="../../d7/d82/maxpals_8cpp.html" target="_top" xlink:title=" ">
<polygon fill="none" stroke="black" points="1585.5,-62 1585.5,-81 1766.5,-81 1766.5,-62 1585.5,-62"/>
<text text-anchor="middle" x="1676" y="-69" font-family="Helvetica,sans-Serif" font-size="10.00">uxn/demos/maxpals/maxpals.cpp</text>
</a>
</g>
</g>
<!-- Node4&#45;&gt;Node7 -->
<g id="edge6" class="edge">
<title>Node4&#45;&gt;Node7</title>
<path fill="none" stroke="midnightblue" d="M1463.25,-121.19C1513.7,-109.64 1592.61,-91.58 1638.82,-81.01"/>
<polygon fill="midnightblue" stroke="midnightblue" points="1462.22,-117.83 1453.25,-123.48 1463.78,-124.66 1462.22,-117.83"/>
</g>
<!-- Node8 -->
<g id="node8" class="node">
<title>Node8</title>
<g id="a_node8"><a xlink:href="../../d2/d55/multi__align_8cpp.html" target="_top" xlink:title=" ">
<polygon fill="none" stroke="black" points="1785,-56.5 1785,-86.5 1913,-86.5 1913,-56.5 1785,-56.5"/>
<text text-anchor="start" x="1793" y="-74.5" font-family="Helvetica,sans-Serif" font-size="10.00">uxn/demos/multi_align</text>
<text text-anchor="middle" x="1849" y="-63.5" font-family="Helvetica,sans-Serif" font-size="10.00">/multi_align.cpp</text>
</a>
</g>
</g>
<!-- Node4&#45;&gt;Node8 -->
<g id="edge7" class="edge">
<title>Node4&#45;&gt;Node8</title>
<path fill="none" stroke="midnightblue" d="M1490.26,-124.29C1563.21,-116.35 1677.57,-102.91 1776,-87 1778.93,-86.53 1781.93,-86.02 1784.95,-85.49"/>
<polygon fill="midnightblue" stroke="midnightblue" points="1489.82,-120.82 1480.25,-125.37 1490.57,-127.78 1489.82,-120.82"/>
</g>
<!-- Node9 -->
<g id="node9" class="node">
<title>Node9</title>
<g id="a_node9"><a xlink:href="../../d5/d74/multi__search_8cpp.html" target="_top" xlink:title=" ">
<polygon fill="none" stroke="black" points="1931.5,-56.5 1931.5,-86.5 2068.5,-86.5 2068.5,-56.5 1931.5,-56.5"/>
<text text-anchor="start" x="1939.5" y="-74.5" font-family="Helvetica,sans-Serif" font-size="10.00">uxn/demos/multi_search</text>
<text text-anchor="middle" x="2000" y="-63.5" font-family="Helvetica,sans-Serif" font-size="10.00">/multi_search.cpp</text>
</a>
</g>
</g>
<!-- Node4&#45;&gt;Node9 -->
<g id="edge8" class="edge">
<title>Node4&#45;&gt;Node9</title>
<path fill="none" stroke="midnightblue" d="M1490.31,-127.61C1589.17,-121.27 1769.25,-107.94 1922,-87 1925,-86.59 1928.06,-86.14 1931.15,-85.67"/>
<polygon fill="midnightblue" stroke="midnightblue" points="1489.88,-124.13 1480.12,-128.26 1490.32,-131.12 1489.88,-124.13"/>
</g>
<!-- Node10 -->
<g id="node10" class="node">
<title>Node10</title>
<g id="a_node10"><a xlink:href="../../d9/de5/usort3_8cpp.html" target="_top" xlink:title=" ">
<polygon fill="none" stroke="black" points="1254,-62 1254,-81 1412,-81 1412,-62 1254,-62"/>
<text text-anchor="middle" x="1333" y="-69" font-family="Helvetica,sans-Serif" font-size="10.00">uxn/demos/usort3/usort3.cpp</text>
</a>
</g>
</g>
<!-- Node4&#45;&gt;Node10 -->
<g id="edge9" class="edge">
<title>Node4&#45;&gt;Node10</title>
<path fill="none" stroke="midnightblue" d="M1395.93,-117.61C1379.97,-106.17 1358.17,-90.55 1344.87,-81.01"/>
<polygon fill="midnightblue" stroke="midnightblue" points="1393.94,-120.49 1404.11,-123.48 1398.02,-114.8 1393.94,-120.49"/>
</g>
<!-- Node11 -->
<g id="node11" class="node">
<title>Node11</title>
<g id="a_node11"><a xlink:href="../../d1/d40/word__suffix_8cpp.html" target="_top" xlink:title=" ">
<polygon fill="none" stroke="black" points="926,-56.5 926,-86.5 1056,-86.5 1056,-56.5 926,-56.5"/>
<text text-anchor="start" x="934" y="-74.5" font-family="Helvetica,sans-Serif" font-size="10.00">uxn/demos/word_suffix</text>
<text text-anchor="middle" x="991" y="-63.5" font-family="Helvetica,sans-Serif" font-size="10.00">/word_suffix.cpp</text>
</a>
</g>
</g>
<!-- Node4&#45;&gt;Node11 -->
<g id="edge10" class="edge">
<title>Node4&#45;&gt;Node11</title>
<path fill="none" stroke="midnightblue" d="M1341.55,-123.9C1270.36,-115.81 1160.09,-102.39 1065,-87 1062.16,-86.54 1059.26,-86.05 1056.33,-85.54"/>
<polygon fill="midnightblue" stroke="midnightblue" points="1341.44,-127.41 1351.77,-125.05 1342.22,-120.45 1341.44,-127.41"/>
</g>
<!-- Node13 -->
<g id="node13" class="node">
<title>Node13</title>
<g id="a_node13"><a xlink:href="../../da/d22/sort__lin_8cpp.html" target="_top" xlink:title=" ">
<polygon fill="none" stroke="black" points="247,-56.5 247,-86.5 357,-86.5 357,-56.5 247,-56.5"/>
<text text-anchor="start" x="255" y="-74.5" font-family="Helvetica,sans-Serif" font-size="10.00">uxn/demos/sort_lin</text>
<text text-anchor="middle" x="302" y="-63.5" font-family="Helvetica,sans-Serif" font-size="10.00">/sort_lin.cpp</text>
</a>
</g>
</g>
<!-- Node12&#45;&gt;Node13 -->
<g id="edge12" class="edge">
<title>Node12&#45;&gt;Node13</title>
<path fill="none" stroke="midnightblue" d="M350.97,-116.65C340.65,-107.35 327.59,-95.57 317.55,-86.52"/>
<polygon fill="midnightblue" stroke="midnightblue" points="348.77,-119.38 358.54,-123.48 353.46,-114.18 348.77,-119.38"/>
</g>
<!-- Node14 -->
<g id="node14" class="node">
<title>Node14</title>
<g id="a_node14"><a xlink:href="../../d5/d3f/patcont_8cpp.html" target="_top" xlink:title=" ">
<polygon fill="none" stroke="black" points="267,-0.5 267,-19.5 383,-19.5 383,-0.5 267,-0.5"/>
<text text-anchor="middle" x="325" y="-7.5" font-family="Helvetica,sans-Serif" font-size="10.00">uxn/patl/patcont.cpp</text>
</a>
</g>
</g>
<!-- Node12&#45;&gt;Node14 -->
<g id="edge13" class="edge">
<title>Node12&#45;&gt;Node14</title>
<path fill="none" stroke="midnightblue" d="M318.1,-121.05C285.68,-112.8 247.7,-100.62 238,-87 230.01,-75.78 230.84,-67.77 238,-56 249.32,-37.41 271.07,-26.16 289.99,-19.55"/>
<polygon fill="midnightblue" stroke="midnightblue" points="317.4,-124.48 327.94,-123.48 319.07,-117.68 317.4,-124.48"/>
</g>
<!-- Node15&#45;&gt;Node5 -->
<g id="edge16" class="edge">
<title>Node15&#45;&gt;Node5</title>
<path fill="none" stroke="midnightblue" d="M713.64,-125.77C796.92,-117.96 941.5,-103.55 1065,-87 1078.02,-85.25 1092.06,-83.12 1105.08,-81.02"/>
<polygon fill="midnightblue" stroke="midnightblue" points="713.18,-122.3 703.55,-126.72 713.83,-129.27 713.18,-122.3"/>
</g>
<!-- Node15&#45;&gt;Node11 -->
<g id="edge20" class="edge">
<title>Node15&#45;&gt;Node11</title>
<path fill="none" stroke="midnightblue" d="M709.51,-121.88C764.68,-113.09 846.16,-99.8 917,-87 919.83,-86.49 922.73,-85.96 925.65,-85.41"/>
<polygon fill="midnightblue" stroke="midnightblue" points="708.85,-118.44 699.53,-123.46 709.95,-125.35 708.85,-118.44"/>
</g>
<!-- Node15&#45;&gt;Node13 -->
<g id="edge19" class="edge">
<title>Node15&#45;&gt;Node13</title>
<path fill="none" stroke="midnightblue" d="M576.39,-122.16C519.78,-113.75 437.45,-100.84 366,-87 363.09,-86.44 360.11,-85.84 357.11,-85.22"/>
<polygon fill="midnightblue" stroke="midnightblue" points="575.89,-125.63 586.3,-123.63 576.92,-118.7 575.89,-125.63"/>
</g>
<!-- Node16 -->
<g id="node16" class="node">
<title>Node16</title>
<g id="a_node16"><a xlink:href="../../d5/d69/ins__test_8cpp.html" target="_top" xlink:title=" ">
<polygon fill="none" stroke="black" points="796,-56.5 796,-86.5 908,-86.5 908,-56.5 796,-56.5"/>
<text text-anchor="start" x="804" y="-74.5" font-family="Helvetica,sans-Serif" font-size="10.00">uxn/demos/ins_test</text>
<text text-anchor="middle" x="852" y="-63.5" font-family="Helvetica,sans-Serif" font-size="10.00">/ins_test.cpp</text>
</a>
</g>
</g>
<!-- Node15&#45;&gt;Node16 -->
<g id="edge15" class="edge">
<title>Node15&#45;&gt;Node16</title>
<path fill="none" stroke="midnightblue" d="M684.63,-120.61C718.4,-110.9 767.06,-96.92 803.21,-86.52"/>
<polygon fill="midnightblue" stroke="midnightblue" points="683.3,-117.35 674.66,-123.48 685.24,-124.08 683.3,-117.35"/>
</g>
<!-- Node17 -->
<g id="node17" class="node">
<title>Node17</title>
<g id="a_node17"><a xlink:href="../../de/dd6/levenshtein_8cpp.html" target="_top" xlink:title=" ">
<polygon fill="none" stroke="black" points="507.5,-56.5 507.5,-86.5 638.5,-86.5 638.5,-56.5 507.5,-56.5"/>
<text text-anchor="start" x="515.5" y="-74.5" font-family="Helvetica,sans-Serif" font-size="10.00">uxn/demos/levenshtein</text>
<text text-anchor="middle" x="573" y="-63.5" font-family="Helvetica,sans-Serif" font-size="10.00">/levenshtein.cpp</text>
</a>
</g>
</g>
<!-- Node15&#45;&gt;Node17 -->
<g id="edge17" class="edge">
<title>Node15&#45;&gt;Node17</title>
<path fill="none" stroke="midnightblue" d="M626.75,-116.92C615.45,-107.58 601.03,-95.66 589.97,-86.52"/>
<polygon fill="midnightblue" stroke="midnightblue" points="624.75,-119.8 634.68,-123.48 629.21,-114.41 624.75,-119.8"/>
</g>
<!-- Node18 -->
<g id="node18" class="node">
<title>Node18</title>
<g id="a_node18"><a xlink:href="../../d6/de8/muxoclon_8cpp.html" target="_top" xlink:title=" ">
<polygon fill="none" stroke="black" points="656.5,-56.5 656.5,-86.5 777.5,-86.5 777.5,-56.5 656.5,-56.5"/>
<text text-anchor="start" x="664.5" y="-74.5" font-family="Helvetica,sans-Serif" font-size="10.00">uxn/demos/muxoclon</text>
<text text-anchor="middle" x="717" y="-63.5" font-family="Helvetica,sans-Serif" font-size="10.00">/muxoclon.cpp</text>
</a>
</g>
</g>
<!-- Node15&#45;&gt;Node18 -->
<g id="edge18" class="edge">
<title>Node15&#45;&gt;Node18</title>
<path fill="none" stroke="midnightblue" d="M663.25,-116.92C674.55,-107.58 688.97,-95.66 700.03,-86.52"/>
<polygon fill="midnightblue" stroke="midnightblue" points="660.79,-114.41 655.32,-123.48 665.25,-119.8 660.79,-114.41"/>
</g>
<!-- Node19 -->
<g id="node19" class="node">
<title>Node19</title>
<g id="a_node19"><a xlink:href="../../db/d8f/priority_8hpp.html" target="_top" xlink:title=" ">
<polygon fill="none" stroke="black" points="375,-62 375,-81 489,-81 489,-62 375,-62"/>
<text text-anchor="middle" x="432" y="-69" font-family="Helvetica,sans-Serif" font-size="10.00">uxn/patl/priority.hpp</text>
</a>
</g>
</g>
<!-- Node15&#45;&gt;Node19 -->
<g id="edge21" class="edge">
<title>Node15&#45;&gt;Node19</title>
<path fill="none" stroke="midnightblue" d="M604.72,-120.75C563.34,-109.19 499.84,-91.45 462.46,-81.01"/>
<polygon fill="midnightblue" stroke="midnightblue" points="603.91,-124.16 614.48,-123.48 605.79,-117.41 603.91,-124.16"/>
</g>
<!-- Node19&#45;&gt;Node14 -->
<g id="edge22" class="edge">
<title>Node19&#45;&gt;Node14</title>
<path fill="none" stroke="midnightblue" d="M407.82,-57.06C387.12,-45.54 357.93,-29.31 340.3,-19.51"/>
<polygon fill="midnightblue" stroke="midnightblue" points="406.23,-60.17 416.67,-61.98 409.63,-54.06 406.23,-60.17"/>
</g>
</g>
</svg>
