<?xml version="1.0" encoding="UTF-8" standalone="no"?>
<!DOCTYPE svg PUBLIC "-//W3C//DTD SVG 1.1//EN"
 "http://www.w3.org/Graphics/SVG/1.1/DTD/svg11.dtd">
<!-- Generated by graphviz version 5.0.1 (20220820.1526)
 -->
<!-- Title: tmp_sorted_files_generator Pages: 1 -->
<svg width="169pt" height="237pt"
 viewBox="0.00 0.00 169.00 237.00" xmlns="http://www.w3.org/2000/svg" xmlns:xlink="http://www.w3.org/1999/xlink">
<g id="graph0" class="graph" transform="scale(1 1) rotate(0) translate(4 233)">
<title>tmp_sorted_files_generator</title>
<!-- Node1 -->
<g id="node1" class="node">
<title>Node1</title>
<g id="a_node1"><a xlink:title=" ">
<polygon fill="#bfbfbf" stroke="black" points="0,-0.5 0,-112.5 161,-112.5 161,-0.5 0,-0.5"/>
<text text-anchor="middle" x="80.5" y="-100.5" font-family="Helvetica,sans-Serif" font-size="10.00">tmp_sorted_files_generator</text>
<polyline fill="none" stroke="black" points="0,-93.5 161,-93.5"/>
<text text-anchor="start" x="8" y="-81.5" font-family="Helvetica,sans-Serif" font-size="10.00">+ PATL_EMIT</text>
<text text-anchor="start" x="8" y="-70.5" font-family="Helvetica,sans-Serif" font-size="10.00">+ line_t value_</text>
<text text-anchor="start" x="8" y="-59.5" font-family="Helvetica,sans-Serif" font-size="10.00">+ word_t max_nodes_</text>
<text text-anchor="start" x="8" y="-48.5" font-family="Helvetica,sans-Serif" font-size="10.00">+ trie_t trie_</text>
<polyline fill="none" stroke="black" points="0,-41.5 161,-41.5"/>
<text text-anchor="start" x="8" y="-29.5" font-family="Helvetica,sans-Serif" font-size="10.00">+ tmp_sorted_files_generator</text>
<text text-anchor="start" x="8" y="-18.5" font-family="Helvetica,sans-Serif" font-size="10.00">(const char *infname, word</text>
<text text-anchor="start" x="8" y="-7.5" font-family="Helvetica,sans-Serif" font-size="10.00">_t N, word_t max_string_size)</text>
</a>
</g>
</g>
<!-- Node2 -->
<g id="node2" class="node">
<title>Node2</title>
<g id="a_node2"><a xlink:title=" ">
<polygon fill="none" stroke="black" points="12,-149.5 12,-228.5 149,-228.5 149,-149.5 12,-149.5"/>
<text text-anchor="start" x="20" y="-216.5" font-family="Helvetica,sans-Serif" font-size="10.00">patl::impl::generator</text>
<text text-anchor="start" x="20" y="-205.5" font-family="Helvetica,sans-Serif" font-size="10.00">_base&lt; tmp_sorted_files</text>
<text text-anchor="middle" x="80.5" y="-194.5" font-family="Helvetica,sans-Serif" font-size="10.00">_generator, std::string &gt;</text>
<polyline fill="none" stroke="black" points="12,-187.5 149,-187.5"/>
<text text-anchor="middle" x="80.5" y="-175.5" font-family="Helvetica,sans-Serif" font-size="10.00"> </text>
<polyline fill="none" stroke="black" points="12,-168.5 149,-168.5"/>
<text text-anchor="middle" x="80.5" y="-156.5" font-family="Helvetica,sans-Serif" font-size="10.00"> </text>
</a>
</g>
</g>
<!-- Node2&#45;&gt;Node1 -->
<g id="edge1" class="edge">
<title>Node2&#45;&gt;Node1</title>
<path fill="none" stroke="midnightblue" d="M80.5,-139.01C80.5,-130.46 80.5,-121.52 80.5,-112.81"/>
<polygon fill="none" stroke="midnightblue" points="77,-139.2 80.5,-149.2 84,-139.2 77,-139.2"/>
</g>
</g>
</svg>
