<?xml version="1.0" encoding="UTF-8" standalone="no"?>
<!DOCTYPE svg PUBLIC "-//W3C//DTD SVG 1.1//EN"
 "http://www.w3.org/Graphics/SVG/1.1/DTD/svg11.dtd">
<!-- Generated by graphviz version 5.0.1 (20220820.1526)
 -->
<!-- Title: uxn::patl::impl::assoc_generic&lt; This, T, 0 &gt;::reverse_iterator Pages: 1 -->
<svg width="144pt" height="204pt"
 viewBox="0.00 0.00 144.00 204.00" xmlns="http://www.w3.org/2000/svg" xmlns:xlink="http://www.w3.org/1999/xlink">
<g id="graph0" class="graph" transform="scale(1 1) rotate(0) translate(4 200)">
<title>uxn::patl::impl::assoc_generic&lt; This, T, 0 &gt;::reverse_iterator</title>
<!-- Node1 -->
<g id="node1" class="node">
<title>Node1</title>
<g id="a_node1"><a xlink:title=" ">
<polygon fill="#bfbfbf" stroke="black" points="0,-0.5 0,-90.5 136,-90.5 136,-0.5 0,-0.5"/>
<text text-anchor="start" x="8" y="-78.5" font-family="Helvetica,sans-Serif" font-size="10.00">uxn::patl::impl::assoc</text>
<text text-anchor="start" x="8" y="-67.5" font-family="Helvetica,sans-Serif" font-size="10.00">_generic&lt; This, T, 0 &gt;</text>
<text text-anchor="middle" x="68" y="-56.5" font-family="Helvetica,sans-Serif" font-size="10.00">::reverse_iterator</text>
<polyline fill="none" stroke="black" points="0,-49.5 136,-49.5"/>
<text text-anchor="middle" x="68" y="-37.5" font-family="Helvetica,sans-Serif" font-size="10.00"> </text>
<polyline fill="none" stroke="black" points="0,-30.5 136,-30.5"/>
<text text-anchor="start" x="8" y="-18.5" font-family="Helvetica,sans-Serif" font-size="10.00">+ reverse_iterator(const</text>
<text text-anchor="start" x="8" y="-7.5" font-family="Helvetica,sans-Serif" font-size="10.00"> iterator &amp;it=iterator())</text>
</a>
</g>
</g>
<!-- Node2 -->
<g id="node2" class="node">
<title>Node2</title>
<g id="a_node2"><a xlink:title=" ">
<polygon fill="none" stroke="black" points="10,-127.5 10,-195.5 126,-195.5 126,-127.5 10,-127.5"/>
<text text-anchor="start" x="18" y="-183.5" font-family="Helvetica,sans-Serif" font-size="10.00">std::reverse_iterator</text>
<text text-anchor="middle" x="68" y="-172.5" font-family="Helvetica,sans-Serif" font-size="10.00">&lt; iterator &gt;</text>
<polyline fill="none" stroke="black" points="10,-165.5 126,-165.5"/>
<text text-anchor="middle" x="68" y="-153.5" font-family="Helvetica,sans-Serif" font-size="10.00"> </text>
<polyline fill="none" stroke="black" points="10,-146.5 126,-146.5"/>
<text text-anchor="middle" x="68" y="-134.5" font-family="Helvetica,sans-Serif" font-size="10.00"> </text>
</a>
</g>
</g>
<!-- Node2&#45;&gt;Node1 -->
<g id="edge1" class="edge">
<title>Node2&#45;&gt;Node1</title>
<path fill="none" stroke="midnightblue" d="M68,-116.97C68,-108.35 68,-99.28 68,-90.64"/>
<polygon fill="none" stroke="midnightblue" points="64.5,-117.22 68,-127.22 71.5,-117.22 64.5,-117.22"/>
</g>
</g>
</svg>
