<?xml version="1.0" encoding="UTF-8" standalone="no"?>
<!DOCTYPE svg PUBLIC "-//W3C//DTD SVG 1.1//EN"
 "http://www.w3.org/Graphics/SVG/1.1/DTD/svg11.dtd">
<!-- Generated by graphviz version 5.0.1 (20220820.1526)
 -->
<!-- Title: uxn/demos/maxpals/maxpals.cpp Pages: 1 -->
<!--zoomable 375 -->
<svg id="main" version="1.1" xmlns="http://www.w3.org/2000/svg" xmlns:xlink="http://www.w3.org/1999/xlink" xml:space="preserve" onload="init(evt)">
<style type="text/css"><![CDATA[
.edge:hover path { stroke: red; }
.edge:hover polygon { stroke: red; fill: red; }
]]></style>
<script type="text/javascript"><![CDATA[
var edges = document.getElementsByTagName('g');
if (edges && edges.length) {
  for (var i=0;i<edges.length;i++) {
    if (edges[i].id.substr(0,4)=='edge') {
      edges[i].setAttribute('class','edge');
    }
  }
}
]]></script>
        <defs>
                <circle id="rim" cx="0" cy="0" r="7"/>
                <circle id="rim2" cx="0" cy="0" r="3.5"/>
                <g id="zoomPlus">
                        <use xlink:href="#rim" fill="#404040">
                                <set attributeName="fill" to="#808080" begin="zoomplus.mouseover" end="zoomplus.mouseout"/>
                        </use>
                        <path d="M-4,0h8M0,-4v8" fill="none" stroke="white" stroke-width="1.5" pointer-events="none"/>
                </g>
                <g id="zoomMin">
                        <use xlink:href="#rim" fill="#404040">
                                <set attributeName="fill" to="#808080" begin="zoomminus.mouseover" end="zoomminus.mouseout"/>
                        </use>
                        <path d="M-4,0h8" fill="none" stroke="white" stroke-width="1.5" pointer-events="none"/>
                </g>
                <g id="dirArrow">
                        <path fill="none" stroke="white" stroke-width="1.5" d="M0,-3.0v7 M-2.5,-0.5L0,-3.0L2.5,-0.5"/>
                </g>
               <g id="resetDef">
                       <use xlink:href="#rim2" fill="#404040">
                               <set attributeName="fill" to="#808080" begin="reset.mouseover" end="reset.mouseout"/>
                       </use>
               </g>
        </defs>

<script type="text/javascript">
var viewWidth = 1263;
var viewHeight = 375;
var sectionId = 'dynsection-0';
</script>
<script xlink:href="../../svgpan.js"/>
<svg id="graph" class="graph">
<g id="viewport">
<title>uxn/demos/maxpals/maxpals.cpp</title>
<!-- Node1 -->
<g id="node1" class="node">
<title>Node1</title>
<g id="a_node1"><a xlink:title=" ">
<polygon fill="#bfbfbf" stroke="black" points="861,-347.5 861,-366.5 1042,-366.5 1042,-347.5 861,-347.5"/>
<text text-anchor="middle" x="951.5" y="-354.5" font-family="Helvetica,sans-Serif" font-size="10.00">uxn/demos/maxpals/maxpals.cpp</text>
</a>
</g>
</g>
<!-- Node2 -->
<g id="node2" class="node">
<title>Node2</title>
<g id="a_node2"><a xlink:href="../../d4/dc0/suffix__set_8hpp.html" target="_top" xlink:title=" ">
<polygon fill="none" stroke="black" points="813.5,-286 813.5,-305 941.5,-305 941.5,-286 813.5,-286"/>
<text text-anchor="middle" x="877.5" y="-293" font-family="Helvetica,sans-Serif" font-size="10.00">uxn/patl/suffix_set.hpp</text>
</a>
</g>
</g>
<!-- Node1&#45;&gt;Node2 -->
<g id="edge1" class="edge">
<title>Node1&#45;&gt;Node2</title>
<path fill="none" stroke="midnightblue" d="M940.9,-347.48C929.25,-338.11 910.31,-322.88 896.17,-311.51"/>
<polygon fill="midnightblue" stroke="midnightblue" points="898.07,-308.55 888.08,-305.01 893.68,-314 898.07,-308.55"/>
</g>
<!-- Node27 -->
<g id="node27" class="node">
<title>Node27</title>
<g id="a_node27"><a xlink:href="../../d2/df8/lca__oracle_8hpp.html" target="_top" xlink:title=" ">
<polygon fill="none" stroke="black" points="348.5,-286 348.5,-305 478.5,-305 478.5,-286 348.5,-286"/>
<text text-anchor="middle" x="413.5" y="-293" font-family="Helvetica,sans-Serif" font-size="10.00">uxn/patl/lca_oracle.hpp</text>
</a>
</g>
</g>
<!-- Node1&#45;&gt;Node27 -->
<g id="edge35" class="edge">
<title>Node1&#45;&gt;Node27</title>
<path fill="none" stroke="midnightblue" d="M874.42,-347.48C771.61,-336.1 590.75,-316.1 488.84,-304.83"/>
<polygon fill="midnightblue" stroke="midnightblue" points="488.95,-301.32 478.62,-303.7 488.18,-308.28 488.95,-301.32"/>
</g>
<!-- Node29 -->
<g id="node29" class="node">
<title>Node29</title>
<g id="a_node29"><a xlink:href="../../da/d67/leaf__oracle_8hpp.html" target="_top" xlink:title=" ">
<polygon fill="none" stroke="black" points="959.5,-286 959.5,-305 1093.5,-305 1093.5,-286 959.5,-286"/>
<text text-anchor="middle" x="1026.5" y="-293" font-family="Helvetica,sans-Serif" font-size="10.00">uxn/patl/leaf_oracle.hpp</text>
</a>
</g>
</g>
<!-- Node1&#45;&gt;Node29 -->
<g id="edge38" class="edge">
<title>Node1&#45;&gt;Node29</title>
<path fill="none" stroke="midnightblue" d="M962.25,-347.48C974.05,-338.11 993.24,-322.88 1007.58,-311.51"/>
<polygon fill="midnightblue" stroke="midnightblue" points="1010.12,-313.97 1015.77,-305.01 1005.76,-308.48 1010.12,-313.97"/>
</g>
<!-- Node30 -->
<g id="node30" class="node">
<title>Node30</title>
<g id="a_node30"><a xlink:href="../../d9/df3/perf__timer_8hpp.html" target="_top" xlink:title=" ">
<polygon fill="none" stroke="black" points="1140,-280.5 1140,-310.5 1245,-310.5 1245,-280.5 1140,-280.5"/>
<text text-anchor="start" x="1148" y="-298.5" font-family="Helvetica,sans-Serif" font-size="10.00">uxn/patl/aux_/perf</text>
<text text-anchor="middle" x="1192.5" y="-287.5" font-family="Helvetica,sans-Serif" font-size="10.00">_timer.hpp</text>
</a>
</g>
</g>
<!-- Node1&#45;&gt;Node30 -->
<g id="edge39" class="edge">
<title>Node1&#45;&gt;Node30</title>
<path fill="none" stroke="midnightblue" d="M986.03,-347.48C1023.5,-338.22 1084.1,-323.26 1129.99,-311.93"/>
<polygon fill="midnightblue" stroke="midnightblue" points="1130.96,-315.3 1139.83,-309.5 1129.29,-308.5 1130.96,-315.3"/>
</g>
<!-- Node3 -->
<g id="node3" class="node">
<title>Node3</title>
<g id="a_node3"><a xlink:href="../../d5/dfc/suffix__generic_8hpp.html" target="_top" xlink:title=" ">
<polygon fill="none" stroke="black" points="756,-224.5 756,-243.5 887,-243.5 887,-224.5 756,-224.5"/>
<text text-anchor="middle" x="821.5" y="-231.5" font-family="Helvetica,sans-Serif" font-size="10.00">impl/suffix_generic.hpp</text>
</a>
</g>
</g>
<!-- Node2&#45;&gt;Node3 -->
<g id="edge2" class="edge">
<title>Node2&#45;&gt;Node3</title>
<path fill="none" stroke="midnightblue" d="M869.48,-285.98C860.91,-276.87 847.14,-262.24 836.54,-250.98"/>
<polygon fill="midnightblue" stroke="midnightblue" points="838.91,-248.39 829.51,-243.51 833.81,-253.19 838.91,-248.39"/>
</g>
<!-- Node24 -->
<g id="node24" class="node">
<title>Node24</title>
<g id="a_node24"><a xlink:href="../../d1/dff/bit__comp_8hpp.html" target="_top" xlink:title=" ">
<polygon fill="none" stroke="black" points="1088,-224.5 1088,-243.5 1171,-243.5 1171,-224.5 1088,-224.5"/>
<text text-anchor="middle" x="1129.5" y="-231.5" font-family="Helvetica,sans-Serif" font-size="10.00">bit_comp.hpp</text>
</a>
</g>
</g>
<!-- Node2&#45;&gt;Node24 -->
<g id="edge31" class="edge">
<title>Node2&#45;&gt;Node24</title>
<path fill="none" stroke="midnightblue" d="M913.61,-285.98C958.33,-275.42 1034.58,-257.41 1083.47,-245.87"/>
<polygon fill="midnightblue" stroke="midnightblue" points="1084.53,-249.21 1093.46,-243.51 1082.92,-242.4 1084.53,-249.21"/>
</g>
<!-- Node4 -->
<g id="node4" class="node">
<title>Node4</title>
<g id="a_node4"><a xlink:title=" ">
<polygon fill="none" stroke="#bfbfbf" points="405,-56.5 405,-75.5 458,-75.5 458,-56.5 405,-56.5"/>
<text text-anchor="middle" x="431.5" y="-63.5" font-family="Helvetica,sans-Serif" font-size="10.00">iterator</text>
</a>
</g>
</g>
<!-- Node3&#45;&gt;Node4 -->
<g id="edge3" class="edge">
<title>Node3&#45;&gt;Node4</title>
<path fill="none" stroke="midnightblue" d="M755.86,-225.04C727.39,-218.82 695.22,-207.74 671.5,-188 642.32,-163.71 662.53,-135.23 632.5,-112 584.55,-74.91 511.97,-67.21 468.4,-66.24"/>
<polygon fill="midnightblue" stroke="midnightblue" points="468.28,-62.74 458.24,-66.12 468.2,-69.74 468.28,-62.74"/>
</g>
<!-- Node5 -->
<g id="node5" class="node">
<title>Node5</title>
<g id="a_node5"><a xlink:href="../../d3/d09/node_8hpp.html" target="_top" xlink:title=" ">
<polygon fill="none" stroke="black" points="790.5,-168.5 790.5,-187.5 852.5,-187.5 852.5,-168.5 790.5,-168.5"/>
<text text-anchor="middle" x="821.5" y="-175.5" font-family="Helvetica,sans-Serif" font-size="10.00">node.hpp</text>
</a>
</g>
</g>
<!-- Node3&#45;&gt;Node5 -->
<g id="edge4" class="edge">
<title>Node3&#45;&gt;Node5</title>
<path fill="none" stroke="midnightblue" d="M821.5,-224.08C821.5,-217.01 821.5,-206.86 821.5,-197.99"/>
<polygon fill="midnightblue" stroke="midnightblue" points="825,-197.75 821.5,-187.75 818,-197.75 825,-197.75"/>
</g>
<!-- Node8 -->
<g id="node8" class="node">
<title>Node8</title>
<g id="a_node8"><a xlink:href="../../d0/dd1/core__algorithm_8hpp.html" target="_top" xlink:title=" ">
<polygon fill="none" stroke="black" points="978,-168.5 978,-187.5 1089,-187.5 1089,-168.5 978,-168.5"/>
<text text-anchor="middle" x="1033.5" y="-175.5" font-family="Helvetica,sans-Serif" font-size="10.00">core_algorithm.hpp</text>
</a>
</g>
</g>
<!-- Node3&#45;&gt;Node8 -->
<g id="edge7" class="edge">
<title>Node3&#45;&gt;Node8</title>
<path fill="none" stroke="midnightblue" d="M855.09,-224.44C891.69,-215.12 950.34,-200.18 990.33,-190"/>
<polygon fill="midnightblue" stroke="midnightblue" points="991.24,-193.38 1000.07,-187.52 989.51,-186.59 991.24,-193.38"/>
</g>
<!-- Node14 -->
<g id="node14" class="node">
<title>Node14</title>
<g id="a_node14"><a xlink:href="../../d3/dcf/ring__buffer_8hpp.html" target="_top" xlink:title=" ">
<polygon fill="none" stroke="black" points="871,-168.5 871,-187.5 960,-187.5 960,-168.5 871,-168.5"/>
<text text-anchor="middle" x="915.5" y="-175.5" font-family="Helvetica,sans-Serif" font-size="10.00">ring_buffer.hpp</text>
</a>
</g>
</g>
<!-- Node3&#45;&gt;Node14 -->
<g id="edge15" class="edge">
<title>Node3&#45;&gt;Node14</title>
<path fill="none" stroke="midnightblue" d="M836.6,-224.32C851.4,-215.82 874.19,-202.73 891.48,-192.8"/>
<polygon fill="midnightblue" stroke="midnightblue" points="893.51,-195.67 900.43,-187.65 890.02,-189.6 893.51,-195.67"/>
</g>
<!-- Node15 -->
<g id="node15" class="node">
<title>Node15</title>
<g id="a_node15"><a xlink:href="../../de/d50/assoc__generic_8hpp.html" target="_top" xlink:title=" ">
<polygon fill="none" stroke="black" points="378,-168.5 378,-187.5 485,-187.5 485,-168.5 378,-168.5"/>
<text text-anchor="middle" x="431.5" y="-175.5" font-family="Helvetica,sans-Serif" font-size="10.00">assoc_generic.hpp</text>
</a>
</g>
</g>
<!-- Node3&#45;&gt;Node15 -->
<g id="edge16" class="edge">
<title>Node3&#45;&gt;Node15</title>
<path fill="none" stroke="midnightblue" d="M759.7,-224.44C687.39,-214.43 568.27,-197.94 495.17,-187.82"/>
<polygon fill="midnightblue" stroke="midnightblue" points="495.55,-184.34 485.17,-186.43 494.59,-191.27 495.55,-184.34"/>
</g>
<!-- Node22 -->
<g id="node22" class="node">
<title>Node22</title>
<g id="a_node22"><a xlink:href="../../d7/dd8/core__prefix_8hpp.html" target="_top" xlink:title=" ">
<polygon fill="none" stroke="black" points="680.5,-168.5 680.5,-187.5 772.5,-187.5 772.5,-168.5 680.5,-168.5"/>
<text text-anchor="middle" x="726.5" y="-175.5" font-family="Helvetica,sans-Serif" font-size="10.00">core_prefix.hpp</text>
</a>
</g>
</g>
<!-- Node3&#45;&gt;Node22 -->
<g id="edge29" class="edge">
<title>Node3&#45;&gt;Node22</title>
<path fill="none" stroke="midnightblue" d="M806.24,-224.32C791.28,-215.82 768.25,-202.73 750.77,-192.8"/>
<polygon fill="midnightblue" stroke="midnightblue" points="752.15,-189.55 741.73,-187.65 748.69,-195.64 752.15,-189.55"/>
</g>
<!-- Node6 -->
<g id="node6" class="node">
<title>Node6</title>
<g id="a_node6"><a xlink:title=" ">
<polygon fill="none" stroke="#bfbfbf" points="783.5,-112.5 783.5,-131.5 847.5,-131.5 847.5,-112.5 783.5,-112.5"/>
<text text-anchor="middle" x="815.5" y="-119.5" font-family="Helvetica,sans-Serif" font-size="10.00">algorithm</text>
</a>
</g>
</g>
<!-- Node5&#45;&gt;Node6 -->
<g id="edge5" class="edge">
<title>Node5&#45;&gt;Node6</title>
<path fill="none" stroke="midnightblue" d="M820.51,-168.08C819.71,-160.93 818.57,-150.64 817.58,-141.69"/>
<polygon fill="midnightblue" stroke="midnightblue" points="821.06,-141.3 816.47,-131.75 814.1,-142.08 821.06,-141.3"/>
</g>
<!-- Node7 -->
<g id="node7" class="node">
<title>Node7</title>
<g id="a_node7"><a xlink:href="../../d8/dfd/config_8hpp.html" target="_top" xlink:title=" ">
<polygon fill="none" stroke="black" points="837.5,-0.5 837.5,-19.5 913.5,-19.5 913.5,-0.5 837.5,-0.5"/>
<text text-anchor="middle" x="875.5" y="-7.5" font-family="Helvetica,sans-Serif" font-size="10.00">../config.hpp</text>
</a>
</g>
</g>
<!-- Node5&#45;&gt;Node7 -->
<g id="edge6" class="edge">
<title>Node5&#45;&gt;Node7</title>
<path fill="none" stroke="midnightblue" d="M830.54,-168.25C838.71,-159.78 850.37,-146.17 856.5,-132 871.23,-97.97 874.71,-54.15 875.43,-29.68"/>
<polygon fill="midnightblue" stroke="midnightblue" points="878.93,-29.68 875.6,-19.62 871.93,-29.56 878.93,-29.68"/>
</g>
<!-- Node9 -->
<g id="node9" class="node">
<title>Node9</title>
<g id="a_node9"><a xlink:href="../../de/d55/algorithm_8hpp.html" target="_top" xlink:title=" ">
<polygon fill="none" stroke="black" points="991,-112.5 991,-131.5 1076,-131.5 1076,-112.5 991,-112.5"/>
<text text-anchor="middle" x="1033.5" y="-119.5" font-family="Helvetica,sans-Serif" font-size="10.00">algorithm.hpp</text>
</a>
</g>
</g>
<!-- Node8&#45;&gt;Node9 -->
<g id="edge8" class="edge">
<title>Node8&#45;&gt;Node9</title>
<path fill="none" stroke="midnightblue" d="M1033.5,-168.08C1033.5,-161.01 1033.5,-150.86 1033.5,-141.99"/>
<polygon fill="midnightblue" stroke="midnightblue" points="1037,-141.75 1033.5,-131.75 1030,-141.75 1037,-141.75"/>
</g>
<!-- Node9&#45;&gt;Node7 -->
<g id="edge9" class="edge">
<title>Node9&#45;&gt;Node7</title>
<path fill="none" stroke="midnightblue" d="M1021.1,-112.37C994.1,-93.57 929.75,-48.77 896.38,-25.53"/>
<polygon fill="midnightblue" stroke="midnightblue" points="898.05,-22.43 887.84,-19.59 894.05,-28.18 898.05,-22.43"/>
</g>
<!-- Node10 -->
<g id="node10" class="node">
<title>Node10</title>
<g id="a_node10"><a xlink:href="../../d9/d3a/trivial_8hpp.html" target="_top" xlink:title=" ">
<polygon fill="none" stroke="black" points="1006.5,-56.5 1006.5,-75.5 1072.5,-75.5 1072.5,-56.5 1006.5,-56.5"/>
<text text-anchor="middle" x="1039.5" y="-63.5" font-family="Helvetica,sans-Serif" font-size="10.00">trivial.hpp</text>
</a>
</g>
</g>
<!-- Node9&#45;&gt;Node10 -->
<g id="edge10" class="edge">
<title>Node9&#45;&gt;Node10</title>
<path fill="none" stroke="midnightblue" d="M1034.49,-112.08C1035.29,-104.93 1036.43,-94.64 1037.42,-85.69"/>
<polygon fill="midnightblue" stroke="midnightblue" points="1040.9,-86.08 1038.53,-75.75 1033.94,-85.3 1040.9,-86.08"/>
</g>
<!-- Node10&#45;&gt;Node7 -->
<g id="edge11" class="edge">
<title>Node10&#45;&gt;Node7</title>
<path fill="none" stroke="midnightblue" d="M1013.51,-56.44C985.8,-47.32 941.75,-32.81 910.88,-22.65"/>
<polygon fill="midnightblue" stroke="midnightblue" points="911.96,-19.32 901.36,-19.52 909.77,-25.97 911.96,-19.32"/>
</g>
<!-- Node11 -->
<g id="node11" class="node">
<title>Node11</title>
<g id="a_node11"><a xlink:title=" ">
<polygon fill="none" stroke="#bfbfbf" points="932,-0.5 932,-19.5 1001,-19.5 1001,-0.5 932,-0.5"/>
<text text-anchor="middle" x="966.5" y="-7.5" font-family="Helvetica,sans-Serif" font-size="10.00">type_traits</text>
</a>
</g>
</g>
<!-- Node10&#45;&gt;Node11 -->
<g id="edge12" class="edge">
<title>Node10&#45;&gt;Node11</title>
<path fill="none" stroke="midnightblue" d="M1027.77,-56.32C1016.66,-48.11 999.76,-35.6 986.52,-25.81"/>
<polygon fill="midnightblue" stroke="midnightblue" points="988.56,-22.97 978.44,-19.83 984.4,-28.59 988.56,-22.97"/>
</g>
<!-- Node12 -->
<g id="node12" class="node">
<title>Node12</title>
<g id="a_node12"><a xlink:title=" ">
<polygon fill="none" stroke="#bfbfbf" points="1019.5,-0.5 1019.5,-19.5 1071.5,-19.5 1071.5,-0.5 1019.5,-0.5"/>
<text text-anchor="middle" x="1045.5" y="-7.5" font-family="Helvetica,sans-Serif" font-size="10.00">cassert</text>
</a>
</g>
</g>
<!-- Node10&#45;&gt;Node12 -->
<g id="edge13" class="edge">
<title>Node10&#45;&gt;Node12</title>
<path fill="none" stroke="midnightblue" d="M1040.49,-56.08C1041.29,-48.93 1042.43,-38.64 1043.42,-29.69"/>
<polygon fill="midnightblue" stroke="midnightblue" points="1046.9,-30.08 1044.53,-19.75 1039.94,-29.3 1046.9,-30.08"/>
</g>
<!-- Node13 -->
<g id="node13" class="node">
<title>Node13</title>
<g id="a_node13"><a xlink:title=" ">
<polygon fill="none" stroke="#bfbfbf" points="1090,-0.5 1090,-19.5 1141,-19.5 1141,-0.5 1090,-0.5"/>
<text text-anchor="middle" x="1115.5" y="-7.5" font-family="Helvetica,sans-Serif" font-size="10.00">intrin.h</text>
</a>
</g>
</g>
<!-- Node10&#45;&gt;Node13 -->
<g id="edge14" class="edge">
<title>Node10&#45;&gt;Node13</title>
<path fill="none" stroke="midnightblue" d="M1051.71,-56.32C1063.28,-48.11 1080.88,-35.6 1094.66,-25.81"/>
<polygon fill="midnightblue" stroke="midnightblue" points="1096.94,-28.48 1103.07,-19.83 1092.89,-22.77 1096.94,-28.48"/>
</g>
<!-- Node16 -->
<g id="node16" class="node">
<title>Node16</title>
<g id="a_node16"><a xlink:href="../../d5/db7/preorder__iterator_8hpp.html" target="_top" xlink:title=" ">
<polygon fill="none" stroke="black" points="250,-112.5 250,-131.5 369,-131.5 369,-112.5 250,-112.5"/>
<text text-anchor="middle" x="309.5" y="-119.5" font-family="Helvetica,sans-Serif" font-size="10.00">preorder_iterator.hpp</text>
</a>
</g>
</g>
<!-- Node15&#45;&gt;Node16 -->
<g id="edge17" class="edge">
<title>Node15&#45;&gt;Node16</title>
<path fill="none" stroke="midnightblue" d="M412.17,-168.44C392.18,-159.6 360.76,-145.69 337.94,-135.59"/>
<polygon fill="midnightblue" stroke="midnightblue" points="339.3,-132.36 328.74,-131.52 336.47,-138.76 339.3,-132.36"/>
</g>
<!-- Node17 -->
<g id="node17" class="node">
<title>Node17</title>
<g id="a_node17"><a xlink:href="../../d1/d2d/vertex_8hpp.html" target="_top" xlink:title=" ">
<polygon fill="none" stroke="black" points="135,-56.5 135,-75.5 204,-75.5 204,-56.5 135,-56.5"/>
<text text-anchor="middle" x="169.5" y="-63.5" font-family="Helvetica,sans-Serif" font-size="10.00">vertex.hpp</text>
</a>
</g>
</g>
<!-- Node15&#45;&gt;Node17 -->
<g id="edge27" class="edge">
<title>Node15&#45;&gt;Node17</title>
<path fill="none" stroke="midnightblue" d="M377.93,-177.94C292.97,-178.14 133.27,-172.91 97.5,-132 80.05,-112.04 111.29,-92.05 137.94,-79.61"/>
<polygon fill="midnightblue" stroke="midnightblue" points="139.37,-82.8 147.09,-75.54 136.53,-76.41 139.37,-82.8"/>
</g>
<!-- Node18 -->
<g id="node18" class="node">
<title>Node18</title>
<g id="a_node18"><a xlink:href="../../df/d24/postorder__iterator_8hpp.html" target="_top" xlink:title=" ">
<polygon fill="none" stroke="black" points="107,-112.5 107,-131.5 232,-131.5 232,-112.5 107,-112.5"/>
<text text-anchor="middle" x="169.5" y="-119.5" font-family="Helvetica,sans-Serif" font-size="10.00">postorder_iterator.hpp</text>
</a>
</g>
</g>
<!-- Node15&#45;&gt;Node18 -->
<g id="edge20" class="edge">
<title>Node15&#45;&gt;Node18</title>
<path fill="none" stroke="midnightblue" d="M389.99,-168.44C344.09,-158.98 270.12,-143.74 220.67,-133.55"/>
<polygon fill="midnightblue" stroke="midnightblue" points="221.32,-130.11 210.82,-131.52 219.91,-136.96 221.32,-130.11"/>
</g>
<!-- Node19 -->
<g id="node19" class="node">
<title>Node19</title>
<g id="a_node19"><a xlink:href="../../d9/dde/iterator_8hpp.html" target="_top" xlink:title=" ">
<polygon fill="none" stroke="black" points="551,-112.5 551,-131.5 624,-131.5 624,-112.5 551,-112.5"/>
<text text-anchor="middle" x="587.5" y="-119.5" font-family="Helvetica,sans-Serif" font-size="10.00">iterator.hpp</text>
</a>
</g>
</g>
<!-- Node15&#45;&gt;Node19 -->
<g id="edge23" class="edge">
<title>Node15&#45;&gt;Node19</title>
<path fill="none" stroke="midnightblue" d="M456.22,-168.44C482.35,-159.4 523.76,-145.06 553.08,-134.92"/>
<polygon fill="midnightblue" stroke="midnightblue" points="554.59,-138.1 562.9,-131.52 552.3,-131.48 554.59,-138.1"/>
</g>
<!-- Node20 -->
<g id="node20" class="node">
<title>Node20</title>
<g id="a_node20"><a xlink:href="../../d7/d8f/partimator_8hpp.html" target="_top" xlink:title=" ">
<polygon fill="none" stroke="black" points="387,-112.5 387,-131.5 476,-131.5 476,-112.5 387,-112.5"/>
<text text-anchor="middle" x="431.5" y="-119.5" font-family="Helvetica,sans-Serif" font-size="10.00">partimator.hpp</text>
</a>
</g>
</g>
<!-- Node15&#45;&gt;Node20 -->
<g id="edge25" class="edge">
<title>Node15&#45;&gt;Node20</title>
<path fill="none" stroke="midnightblue" d="M431.5,-168.08C431.5,-161.01 431.5,-150.86 431.5,-141.99"/>
<polygon fill="midnightblue" stroke="midnightblue" points="435,-141.75 431.5,-131.75 428,-141.75 435,-141.75"/>
</g>
<!-- Node21 -->
<g id="node21" class="node">
<title>Node21</title>
<g id="a_node21"><a xlink:title=" ">
<polygon fill="none" stroke="#bfbfbf" points="494.5,-112.5 494.5,-131.5 532.5,-131.5 532.5,-112.5 494.5,-112.5"/>
<text text-anchor="middle" x="513.5" y="-119.5" font-family="Helvetica,sans-Serif" font-size="10.00">map</text>
</a>
</g>
</g>
<!-- Node15&#45;&gt;Node21 -->
<g id="edge28" class="edge">
<title>Node15&#45;&gt;Node21</title>
<path fill="none" stroke="midnightblue" d="M444.67,-168.32C457.35,-159.98 476.73,-147.21 491.71,-137.35"/>
<polygon fill="midnightblue" stroke="midnightblue" points="493.93,-140.08 500.36,-131.65 490.08,-134.23 493.93,-140.08"/>
</g>
<!-- Node16&#45;&gt;Node4 -->
<g id="edge19" class="edge">
<title>Node16&#45;&gt;Node4</title>
<path fill="none" stroke="midnightblue" d="M328.83,-112.44C348.82,-103.6 380.24,-89.69 403.06,-79.59"/>
<polygon fill="midnightblue" stroke="midnightblue" points="404.53,-82.76 412.26,-75.52 401.7,-76.36 404.53,-82.76"/>
</g>
<!-- Node16&#45;&gt;Node17 -->
<g id="edge18" class="edge">
<title>Node16&#45;&gt;Node17</title>
<path fill="none" stroke="midnightblue" d="M287.32,-112.44C264.07,-103.48 227.35,-89.31 201.08,-79.18"/>
<polygon fill="midnightblue" stroke="midnightblue" points="202.17,-75.85 191.58,-75.52 199.65,-82.38 202.17,-75.85"/>
</g>
<!-- Node18&#45;&gt;Node4 -->
<g id="edge22" class="edge">
<title>Node18&#45;&gt;Node4</title>
<path fill="none" stroke="midnightblue" d="M211.01,-112.44C261.69,-102 346.6,-84.5 394.92,-74.54"/>
<polygon fill="midnightblue" stroke="midnightblue" points="395.86,-77.92 404.94,-72.47 394.44,-71.06 395.86,-77.92"/>
</g>
<!-- Node18&#45;&gt;Node17 -->
<g id="edge21" class="edge">
<title>Node18&#45;&gt;Node17</title>
<path fill="none" stroke="midnightblue" d="M169.5,-112.08C169.5,-105.01 169.5,-94.86 169.5,-85.99"/>
<polygon fill="midnightblue" stroke="midnightblue" points="173,-85.75 169.5,-75.75 166,-85.75 173,-85.75"/>
</g>
<!-- Node19&#45;&gt;Node4 -->
<g id="edge24" class="edge">
<title>Node19&#45;&gt;Node4</title>
<path fill="none" stroke="midnightblue" d="M562.78,-112.44C536.65,-103.4 495.24,-89.06 465.92,-78.92"/>
<polygon fill="midnightblue" stroke="midnightblue" points="466.7,-75.48 456.1,-75.52 464.41,-82.1 466.7,-75.48"/>
</g>
<!-- Node20&#45;&gt;Node4 -->
<g id="edge26" class="edge">
<title>Node20&#45;&gt;Node4</title>
<path fill="none" stroke="midnightblue" d="M431.5,-112.08C431.5,-105.01 431.5,-94.86 431.5,-85.99"/>
<polygon fill="midnightblue" stroke="midnightblue" points="435,-85.75 431.5,-75.75 428,-85.75 435,-85.75"/>
</g>
<!-- Node23 -->
<g id="node23" class="node">
<title>Node23</title>
<g id="a_node23"><a xlink:href="../../d0/d34/prefix_8hpp.html" target="_top" xlink:title=" ">
<polygon fill="none" stroke="black" points="694,-112.5 694,-131.5 759,-131.5 759,-112.5 694,-112.5"/>
<text text-anchor="middle" x="726.5" y="-119.5" font-family="Helvetica,sans-Serif" font-size="10.00">prefix.hpp</text>
</a>
</g>
</g>
<!-- Node22&#45;&gt;Node23 -->
<g id="edge30" class="edge">
<title>Node22&#45;&gt;Node23</title>
<path fill="none" stroke="midnightblue" d="M726.5,-168.08C726.5,-161.01 726.5,-150.86 726.5,-141.99"/>
<polygon fill="midnightblue" stroke="midnightblue" points="730,-141.75 726.5,-131.75 723,-141.75 730,-141.75"/>
</g>
<!-- Node24&#45;&gt;Node10 -->
<g id="edge34" class="edge">
<title>Node24&#45;&gt;Node10</title>
<path fill="none" stroke="midnightblue" d="M1139.01,-224.19C1151.26,-211.71 1169.93,-188.16 1160.5,-168 1141.25,-126.85 1096.07,-96.59 1066.7,-80.41"/>
<polygon fill="midnightblue" stroke="midnightblue" points="1068.24,-77.26 1057.77,-75.65 1064.95,-83.44 1068.24,-77.26"/>
</g>
<!-- Node25 -->
<g id="node25" class="node">
<title>Node25</title>
<g id="a_node25"><a xlink:title=" ">
<polygon fill="none" stroke="#bfbfbf" points="1107.5,-168.5 1107.5,-187.5 1151.5,-187.5 1151.5,-168.5 1107.5,-168.5"/>
<text text-anchor="middle" x="1129.5" y="-175.5" font-family="Helvetica,sans-Serif" font-size="10.00">string</text>
</a>
</g>
</g>
<!-- Node24&#45;&gt;Node25 -->
<g id="edge32" class="edge">
<title>Node24&#45;&gt;Node25</title>
<path fill="none" stroke="midnightblue" d="M1129.5,-224.08C1129.5,-217.01 1129.5,-206.86 1129.5,-197.99"/>
<polygon fill="midnightblue" stroke="midnightblue" points="1133,-197.75 1129.5,-187.75 1126,-197.75 1133,-197.75"/>
</g>
<!-- Node26 -->
<g id="node26" class="node">
<title>Node26</title>
<g id="a_node26"><a xlink:title=" ">
<polygon fill="none" stroke="#bfbfbf" points="1208,-168.5 1208,-187.5 1255,-187.5 1255,-168.5 1208,-168.5"/>
<text text-anchor="middle" x="1231.5" y="-175.5" font-family="Helvetica,sans-Serif" font-size="10.00">vector</text>
</a>
</g>
</g>
<!-- Node24&#45;&gt;Node26 -->
<g id="edge33" class="edge">
<title>Node24&#45;&gt;Node26</title>
<path fill="none" stroke="midnightblue" d="M1145.89,-224.32C1162.17,-215.7 1187.37,-202.36 1206.22,-192.39"/>
<polygon fill="midnightblue" stroke="midnightblue" points="1207.95,-195.43 1215.15,-187.65 1204.68,-189.24 1207.95,-195.43"/>
</g>
<!-- Node28 -->
<g id="node28" class="node">
<title>Node28</title>
<g id="a_node28"><a xlink:href="../../dd/d42/lca__base_8hpp.html" target="_top" xlink:title=" ">
<polygon fill="none" stroke="black" points="0,-56.5 0,-75.5 105,-75.5 105,-56.5 0,-56.5"/>
<text text-anchor="middle" x="52.5" y="-63.5" font-family="Helvetica,sans-Serif" font-size="10.00">impl/lca_base.hpp</text>
</a>
</g>
</g>
<!-- Node27&#45;&gt;Node28 -->
<g id="edge36" class="edge">
<title>Node27&#45;&gt;Node28</title>
<path fill="none" stroke="midnightblue" d="M382.54,-285.86C320.12,-267.11 177.52,-217.35 88.5,-132 74.85,-118.91 65.02,-99.49 59.12,-85.29"/>
<polygon fill="midnightblue" stroke="midnightblue" points="62.26,-83.69 55.38,-75.63 55.73,-86.22 62.26,-83.69"/>
</g>
<!-- Node28&#45;&gt;Node7 -->
<g id="edge37" class="edge">
<title>Node28&#45;&gt;Node7</title>
<path fill="none" stroke="midnightblue" d="M105.09,-58.12C111.95,-57.34 118.89,-56.61 125.5,-56 389.67,-31.81 707.42,-17.66 826.92,-12.86"/>
<polygon fill="midnightblue" stroke="midnightblue" points="827.34,-16.34 837.19,-12.45 827.06,-9.35 827.34,-16.34"/>
</g>
<!-- Node31 -->
<g id="node31" class="node">
<title>Node31</title>
<g id="a_node31"><a xlink:title=" ">
<polygon fill="none" stroke="#bfbfbf" points="1189.5,-224.5 1189.5,-243.5 1251.5,-243.5 1251.5,-224.5 1189.5,-224.5"/>
<text text-anchor="middle" x="1220.5" y="-231.5" font-family="Helvetica,sans-Serif" font-size="10.00">cinttypes</text>
</a>
</g>
</g>
<!-- Node30&#45;&gt;Node31 -->
<g id="edge40" class="edge">
<title>Node30&#45;&gt;Node31</title>
<path fill="none" stroke="midnightblue" d="M1199.14,-280.4C1203.04,-272.11 1208,-261.55 1212.17,-252.71"/>
<polygon fill="midnightblue" stroke="midnightblue" points="1215.33,-254.2 1216.43,-243.66 1209,-251.22 1215.33,-254.2"/>
</g>
</g>
</svg>
        <g id="navigator" transform="translate(0 0)" fill="#404254">
                <rect fill="#f2f5e9" fill-opacity="0.5" stroke="#606060" stroke-width=".5" x="0" y="0" width="60" height="60"/>
                <use id="zoomplus" xlink:href="#zoomPlus" x="17" y="9" onmousedown="handleZoom(evt,'in')"/>
                <use id="zoomminus" xlink:href="#zoomMin" x="42" y="9" onmousedown="handleZoom(evt,'out')"/>
                <use id="reset" xlink:href="#resetDef" x="30" y="36" onmousedown="handleReset()"/>
                <g id="arrowUp" xlink:href="#dirArrow" transform="translate(30 24)" onmousedown="handlePan(0,-1)">
                  <use xlink:href="#rim" fill="#404040">
                        <set attributeName="fill" to="#808080" begin="arrowUp.mouseover" end="arrowUp.mouseout"/>
                  </use>
                  <path fill="none" stroke="white" stroke-width="1.5" d="M0,-3.0v7 M-2.5,-0.5L0,-3.0L2.5,-0.5"/>
                </g>
                <g id="arrowRight" xlink:href="#dirArrow" transform="rotate(90) translate(36 -43)" onmousedown="handlePan(1,0)">
                  <use xlink:href="#rim" fill="#404040">
                        <set attributeName="fill" to="#808080" begin="arrowRight.mouseover" end="arrowRight.mouseout"/>
                  </use>
                  <path fill="none" stroke="white" stroke-width="1.5" d="M0,-3.0v7 M-2.5,-0.5L0,-3.0L2.5,-0.5"/>
                </g>
                <g id="arrowDown" xlink:href="#dirArrow" transform="rotate(180) translate(-30 -48)" onmousedown="handlePan(0,1)">
                  <use xlink:href="#rim" fill="#404040">
                        <set attributeName="fill" to="#808080" begin="arrowDown.mouseover" end="arrowDown.mouseout"/>
                  </use>
                  <path fill="none" stroke="white" stroke-width="1.5" d="M0,-3.0v7 M-2.5,-0.5L0,-3.0L2.5,-0.5"/>
                </g>
                <g id="arrowLeft" xlink:href="#dirArrow" transform="rotate(270) translate(-36 17)" onmousedown="handlePan(-1,0)">
                  <use xlink:href="#rim" fill="#404040">
                        <set attributeName="fill" to="#808080" begin="arrowLeft.mouseover" end="arrowLeft.mouseout"/>
                  </use>
                  <path fill="none" stroke="white" stroke-width="1.5" d="M0,-3.0v7 M-2.5,-0.5L0,-3.0L2.5,-0.5"/>
                </g>
        </g>
        <svg viewBox="0 0 15 15" width="100%" height="30px" preserveAspectRatio="xMaxYMin meet">
         <g id="arrow_out" transform="scale(0.3 0.3)">
          <a xlink:href="maxpals_8cpp__incl_org.svg" target="_base">
           <rect id="button" ry="5" rx="5" y="6" x="6" height="38" width="38"
                fill="#f2f5e9" fill-opacity="0.5" stroke="#606060" stroke-width="1.0"/>
           <path id="arrow"
             d="M 11.500037,31.436501 C 11.940474,20.09759 22.043105,11.32322 32.158766,21.979434 L 37.068811,17.246167 C 37.068811,17.246167 37.088388,32 37.088388,32 L 22.160133,31.978069 C 22.160133,31.978069 26.997745,27.140456 26.997745,27.140456 C 18.528582,18.264221 13.291696,25.230495 11.500037,31.436501 z"
             style="fill:#404040;"/>
          </a>
         </g>
        </svg>
</svg>
