<?xml version="1.0" encoding="UTF-8" standalone="no"?>
<!DOCTYPE svg PUBLIC "-//W3C//DTD SVG 1.1//EN"
 "http://www.w3.org/Graphics/SVG/1.1/DTD/svg11.dtd">
<!-- Generated by graphviz version 5.0.1 (20220820.1526)
 -->
<!-- Title: parse_fiction Pages: 1 -->
<svg width="356pt" height="274pt"
 viewBox="0.00 0.00 356.00 273.50" xmlns="http://www.w3.org/2000/svg" xmlns:xlink="http://www.w3.org/1999/xlink">
<g id="graph0" class="graph" transform="scale(1 1) rotate(0) translate(4 269.5)">
<title>parse_fiction</title>
<!-- Node1 -->
<g id="node1" class="node">
<title>Node1</title>
<g id="a_node1"><a xlink:title=" ">
<polygon fill="#bfbfbf" stroke="black" points="0,-128 0,-147 79,-147 79,-128 0,-128"/>
<text text-anchor="middle" x="39.5" y="-135" font-family="Helvetica,sans-Serif" font-size="10.00">parse_fiction</text>
</a>
</g>
</g>
<!-- Node2 -->
<g id="node2" class="node">
<title>Node2</title>
<g id="a_node2"><a xlink:href="../../d1/d40/word__suffix_8cpp.html#afc2472aa5f8f6a65e8e686f0dee485a9" target="_top" xlink:title=" ">
<polygon fill="none" stroke="black" points="139,-246 139,-265 190,-265 190,-246 139,-246"/>
<text text-anchor="middle" x="164.5" y="-253" font-family="Helvetica,sans-Serif" font-size="10.00">insertIt</text>
</a>
</g>
</g>
<!-- Node1&#45;&gt;Node2 -->
<g id="edge1" class="edge">
<title>Node1&#45;&gt;Node2</title>
<path fill="none" stroke="midnightblue" d="M45.33,-147.06C55.59,-166.52 81.42,-211 115,-236.5 119.41,-239.85 124.49,-242.68 129.66,-245.06"/>
<polygon fill="midnightblue" stroke="midnightblue" points="128.36,-248.31 138.95,-248.85 131.01,-241.83 128.36,-248.31"/>
</g>
<!-- Node3 -->
<g id="node3" class="node">
<title>Node3</title>
<g id="a_node3"><a xlink:href="../../df/d91/namespaceuxn_1_1patl_1_1aux.html#a09b5fe8fb0333a20bc4059d759d9cb78" target="_top" xlink:title=" ">
<polygon fill="none" stroke="black" points="115.5,-196.5 115.5,-226.5 213.5,-226.5 213.5,-196.5 115.5,-196.5"/>
<text text-anchor="start" x="123.5" y="-214.5" font-family="Helvetica,sans-Serif" font-size="10.00">uxn::patl::aux::is</text>
<text text-anchor="middle" x="164.5" y="-203.5" font-family="Helvetica,sans-Serif" font-size="10.00">_dot_symbol</text>
</a>
</g>
</g>
<!-- Node1&#45;&gt;Node3 -->
<g id="edge2" class="edge">
<title>Node1&#45;&gt;Node3</title>
<path fill="none" stroke="midnightblue" d="M53.62,-147.08C68.24,-157.57 92.76,-174.61 115,-187.5 117.48,-188.94 120.05,-190.37 122.66,-191.78"/>
<polygon fill="midnightblue" stroke="midnightblue" points="121.13,-194.93 131.62,-196.47 124.38,-188.73 121.13,-194.93"/>
</g>
<!-- Node4 -->
<g id="node4" class="node">
<title>Node4</title>
<g id="a_node4"><a xlink:href="../../df/d91/namespaceuxn_1_1patl_1_1aux.html#ad141041ea0eede0824d69d7090aa057a" target="_top" xlink:title=" ">
<polygon fill="none" stroke="black" points="115.5,-147.5 115.5,-177.5 213.5,-177.5 213.5,-147.5 115.5,-147.5"/>
<text text-anchor="start" x="123.5" y="-165.5" font-family="Helvetica,sans-Serif" font-size="10.00">uxn::patl::aux::is</text>
<text text-anchor="middle" x="164.5" y="-154.5" font-family="Helvetica,sans-Serif" font-size="10.00">_hyphen</text>
</a>
</g>
</g>
<!-- Node1&#45;&gt;Node4 -->
<g id="edge3" class="edge">
<title>Node1&#45;&gt;Node4</title>
<path fill="none" stroke="midnightblue" d="M79.08,-145.34C87.37,-147.03 96.31,-148.84 105.17,-150.64"/>
<polygon fill="midnightblue" stroke="midnightblue" points="104.59,-154.1 115.09,-152.66 105.98,-147.24 104.59,-154.1"/>
</g>
<!-- Node5 -->
<g id="node5" class="node">
<title>Node5</title>
<g id="a_node5"><a xlink:href="../../df/d91/namespaceuxn_1_1patl_1_1aux.html#ac4a0c576e61ce3ebbce3a9b5eec3103a" target="_top" xlink:title=" ">
<polygon fill="none" stroke="black" points="115.5,-98.5 115.5,-128.5 213.5,-128.5 213.5,-98.5 115.5,-98.5"/>
<text text-anchor="start" x="123.5" y="-116.5" font-family="Helvetica,sans-Serif" font-size="10.00">uxn::patl::aux::is</text>
<text text-anchor="middle" x="164.5" y="-105.5" font-family="Helvetica,sans-Serif" font-size="10.00">_letter</text>
</a>
</g>
</g>
<!-- Node1&#45;&gt;Node5 -->
<g id="edge4" class="edge">
<title>Node1&#45;&gt;Node5</title>
<path fill="none" stroke="midnightblue" d="M79.08,-129.97C87.37,-128.35 96.31,-126.61 105.17,-124.88"/>
<polygon fill="midnightblue" stroke="midnightblue" points="105.94,-128.3 115.09,-122.95 104.6,-121.43 105.94,-128.3"/>
</g>
<!-- Node8 -->
<g id="node8" class="node">
<title>Node8</title>
<g id="a_node8"><a xlink:href="../../df/d91/namespaceuxn_1_1patl_1_1aux.html#ae7451b9fe047932ada0ddc33b34bb4cd" target="_top" xlink:title=" ">
<polygon fill="none" stroke="black" points="115.5,-49.5 115.5,-79.5 213.5,-79.5 213.5,-49.5 115.5,-49.5"/>
<text text-anchor="start" x="123.5" y="-67.5" font-family="Helvetica,sans-Serif" font-size="10.00">uxn::patl::aux::is</text>
<text text-anchor="middle" x="164.5" y="-56.5" font-family="Helvetica,sans-Serif" font-size="10.00">_punctuation</text>
</a>
</g>
</g>
<!-- Node1&#45;&gt;Node8 -->
<g id="edge7" class="edge">
<title>Node1&#45;&gt;Node8</title>
<path fill="none" stroke="midnightblue" d="M53.92,-127.96C68.6,-117.69 92.98,-101.13 115,-88.5 117.48,-87.08 120.06,-85.65 122.68,-84.25"/>
<polygon fill="midnightblue" stroke="midnightblue" points="124.39,-87.3 131.64,-79.57 121.15,-81.09 124.39,-87.3"/>
</g>
<!-- Node9 -->
<g id="node9" class="node">
<title>Node9</title>
<g id="a_node9"><a xlink:href="../../df/d91/namespaceuxn_1_1patl_1_1aux.html#a6b40e6b78f4d988ae12cabf4a0f9bbf2" target="_top" xlink:title=" ">
<polygon fill="none" stroke="black" points="115,-0.5 115,-30.5 214,-30.5 214,-0.5 115,-0.5"/>
<text text-anchor="start" x="123" y="-18.5" font-family="Helvetica,sans-Serif" font-size="10.00">uxn::patl::aux::to</text>
<text text-anchor="middle" x="164.5" y="-7.5" font-family="Helvetica,sans-Serif" font-size="10.00">_lower</text>
</a>
</g>
</g>
<!-- Node1&#45;&gt;Node9 -->
<g id="edge8" class="edge">
<title>Node1&#45;&gt;Node9</title>
<path fill="none" stroke="midnightblue" d="M45.7,-127.98C56.46,-109.01 82.86,-66.03 115,-39.5 116.37,-38.37 117.8,-37.27 119.28,-36.22"/>
<polygon fill="midnightblue" stroke="midnightblue" points="121.58,-38.9 128.12,-30.57 117.81,-33 121.58,-38.9"/>
</g>
<!-- Node6 -->
<g id="node6" class="node">
<title>Node6</title>
<g id="a_node6"><a xlink:href="../../df/d91/namespaceuxn_1_1patl_1_1aux.html#af44fdfa30967f02155ee0f4c45741b5d" target="_top" xlink:title=" ">
<polygon fill="none" stroke="black" points="250,-122.5 250,-152.5 348,-152.5 348,-122.5 250,-122.5"/>
<text text-anchor="start" x="258" y="-140.5" font-family="Helvetica,sans-Serif" font-size="10.00">uxn::patl::aux::is</text>
<text text-anchor="middle" x="299" y="-129.5" font-family="Helvetica,sans-Serif" font-size="10.00">_cyrillic_letter</text>
</a>
</g>
</g>
<!-- Node5&#45;&gt;Node6 -->
<g id="edge5" class="edge">
<title>Node5&#45;&gt;Node6</title>
<path fill="none" stroke="midnightblue" d="M213.71,-122.23C222.11,-123.75 230.94,-125.35 239.58,-126.92"/>
<polygon fill="midnightblue" stroke="midnightblue" points="239.14,-130.4 249.6,-128.73 240.39,-123.51 239.14,-130.4"/>
</g>
<!-- Node7 -->
<g id="node7" class="node">
<title>Node7</title>
<g id="a_node7"><a xlink:href="../../df/d91/namespaceuxn_1_1patl_1_1aux.html#ad035b91cecd9a2967faac527f3cc3167" target="_top" xlink:title=" ">
<polygon fill="none" stroke="black" points="250,-73.5 250,-103.5 348,-103.5 348,-73.5 250,-73.5"/>
<text text-anchor="start" x="258" y="-91.5" font-family="Helvetica,sans-Serif" font-size="10.00">uxn::patl::aux::is</text>
<text text-anchor="middle" x="299" y="-80.5" font-family="Helvetica,sans-Serif" font-size="10.00">_latin_letter</text>
</a>
</g>
</g>
<!-- Node5&#45;&gt;Node7 -->
<g id="edge6" class="edge">
<title>Node5&#45;&gt;Node7</title>
<path fill="none" stroke="midnightblue" d="M213.71,-104.4C222.11,-102.82 230.94,-101.15 239.58,-99.52"/>
<polygon fill="midnightblue" stroke="midnightblue" points="240.43,-102.92 249.6,-97.63 239.13,-96.05 240.43,-102.92"/>
</g>
</g>
</svg>
