<?xml version="1.0" encoding="UTF-8" standalone="no"?>
<!DOCTYPE svg PUBLIC "-//W3C//DTD SVG 1.1//EN"
 "http://www.w3.org/Graphics/SVG/1.1/DTD/svg11.dtd">
<!-- Generated by graphviz version 5.0.1 (20220820.1526)
 -->
<!-- Title: loadNoiseWords Pages: 1 -->
<svg width="486pt" height="72pt"
 viewBox="0.00 0.00 486.00 71.50" xmlns="http://www.w3.org/2000/svg" xmlns:xlink="http://www.w3.org/1999/xlink">
<g id="graph0" class="graph" transform="scale(1 1) rotate(0) translate(4 67.5)">
<title>loadNoiseWords</title>
<!-- Node1 -->
<g id="node1" class="node">
<title>Node1</title>
<g id="a_node1"><a xlink:title=" ">
<polygon fill="#bfbfbf" stroke="black" points="0,-25 0,-44 95,-44 95,-25 0,-25"/>
<text text-anchor="middle" x="47.5" y="-32" font-family="Helvetica,sans-Serif" font-size="10.00">loadNoiseWords</text>
</a>
</g>
</g>
<!-- Node2 -->
<g id="node2" class="node">
<title>Node2</title>
<g id="a_node2"><a xlink:href="../../d1/d40/word__suffix_8cpp.html#ad58ce44c365330fcbc8d7345b59d88af" target="_top" xlink:title=" ">
<polygon fill="none" stroke="black" points="131,-44 131,-63 210,-63 210,-44 131,-44"/>
<text text-anchor="middle" x="170.5" y="-51" font-family="Helvetica,sans-Serif" font-size="10.00">insertItNoise</text>
</a>
</g>
</g>
<!-- Node1&#45;&gt;Node2 -->
<g id="edge1" class="edge">
<title>Node1&#45;&gt;Node2</title>
<path fill="none" stroke="midnightblue" d="M95.28,-41.85C103.6,-43.15 112.29,-44.52 120.67,-45.83"/>
<polygon fill="midnightblue" stroke="midnightblue" points="120.26,-49.31 130.68,-47.4 121.35,-42.4 120.26,-49.31"/>
</g>
<!-- Node3 -->
<g id="node3" class="node">
<title>Node3</title>
<g id="a_node3"><a xlink:href="../../d1/d40/word__suffix_8cpp.html#adedb0faf6ddaaa3818dc9211e63ed00c" target="_top" xlink:title=" ">
<polygon fill="none" stroke="black" points="136.5,-6 136.5,-25 204.5,-25 204.5,-6 136.5,-6"/>
<text text-anchor="middle" x="170.5" y="-13" font-family="Helvetica,sans-Serif" font-size="10.00">parse_text</text>
</a>
</g>
</g>
<!-- Node1&#45;&gt;Node3 -->
<g id="edge2" class="edge">
<title>Node1&#45;&gt;Node3</title>
<path fill="none" stroke="midnightblue" d="M95.28,-27.15C105.45,-25.56 116.16,-23.88 126.19,-22.3"/>
<polygon fill="midnightblue" stroke="midnightblue" points="127,-25.72 136.34,-20.71 125.92,-18.8 127,-25.72"/>
</g>
<!-- Node4 -->
<g id="node4" class="node">
<title>Node4</title>
<g id="a_node4"><a xlink:href="../../df/d91/namespaceuxn_1_1patl_1_1aux.html#a736d124302d1c40d83eefaf2298c7ae5" target="_top" xlink:title=" ">
<polygon fill="none" stroke="black" points="246,-0.5 246,-30.5 344,-30.5 344,-0.5 246,-0.5"/>
<text text-anchor="start" x="254" y="-18.5" font-family="Helvetica,sans-Serif" font-size="10.00">uxn::patl::aux::is</text>
<text text-anchor="middle" x="295" y="-7.5" font-family="Helvetica,sans-Serif" font-size="10.00">_proper_char</text>
</a>
</g>
</g>
<!-- Node3&#45;&gt;Node4 -->
<g id="edge3" class="edge">
<title>Node3&#45;&gt;Node4</title>
<path fill="none" stroke="midnightblue" d="M204.65,-15.5C214.21,-15.5 224.93,-15.5 235.54,-15.5"/>
<polygon fill="midnightblue" stroke="midnightblue" points="235.64,-19 245.64,-15.5 235.64,-12 235.64,-19"/>
</g>
<!-- Node5 -->
<g id="node5" class="node">
<title>Node5</title>
<g id="a_node5"><a xlink:href="../../df/d91/namespaceuxn_1_1patl_1_1aux.html#af44fdfa30967f02155ee0f4c45741b5d" target="_top" xlink:title=" ">
<polygon fill="none" stroke="black" points="380,-0.5 380,-30.5 478,-30.5 478,-0.5 380,-0.5"/>
<text text-anchor="start" x="388" y="-18.5" font-family="Helvetica,sans-Serif" font-size="10.00">uxn::patl::aux::is</text>
<text text-anchor="middle" x="429" y="-7.5" font-family="Helvetica,sans-Serif" font-size="10.00">_cyrillic_letter</text>
</a>
</g>
</g>
<!-- Node4&#45;&gt;Node5 -->
<g id="edge4" class="edge">
<title>Node4&#45;&gt;Node5</title>
<path fill="none" stroke="midnightblue" d="M344.03,-15.5C352.31,-15.5 361,-15.5 369.52,-15.5"/>
<polygon fill="midnightblue" stroke="midnightblue" points="369.79,-19 379.79,-15.5 369.79,-12 369.79,-19"/>
</g>
</g>
</svg>
