<?xml version="1.0" encoding="UTF-8" standalone="no"?>
<!DOCTYPE svg PUBLIC "-//W3C//DTD SVG 1.1//EN"
 "http://www.w3.org/Graphics/SVG/1.1/DTD/svg11.dtd">
<!-- Generated by graphviz version 5.0.1 (20220820.1526)
 -->
<!-- Title: parse_text Pages: 1 -->
<svg width="344pt" height="39pt"
 viewBox="0.00 0.00 344.00 39.00" xmlns="http://www.w3.org/2000/svg" xmlns:xlink="http://www.w3.org/1999/xlink">
<g id="graph0" class="graph" transform="scale(1 1) rotate(0) translate(4 35)">
<title>parse_text</title>
<!-- Node1 -->
<g id="node1" class="node">
<title>Node1</title>
<g id="a_node1"><a xlink:title=" ">
<polygon fill="#bfbfbf" stroke="black" points="0,-6 0,-25 68,-25 68,-6 0,-6"/>
<text text-anchor="middle" x="34" y="-13" font-family="Helvetica,sans-Serif" font-size="10.00">parse_text</text>
</a>
</g>
</g>
<!-- Node2 -->
<g id="node2" class="node">
<title>Node2</title>
<g id="a_node2"><a xlink:href="../../df/d91/namespaceuxn_1_1patl_1_1aux.html#a736d124302d1c40d83eefaf2298c7ae5" target="_top" xlink:title=" ">
<polygon fill="none" stroke="black" points="104,-0.5 104,-30.5 202,-30.5 202,-0.5 104,-0.5"/>
<text text-anchor="start" x="112" y="-18.5" font-family="Helvetica,sans-Serif" font-size="10.00">uxn::patl::aux::is</text>
<text text-anchor="middle" x="153" y="-7.5" font-family="Helvetica,sans-Serif" font-size="10.00">_proper_char</text>
</a>
</g>
</g>
<!-- Node1&#45;&gt;Node2 -->
<g id="edge1" class="edge">
<title>Node1&#45;&gt;Node2</title>
<path fill="none" stroke="midnightblue" d="M68.21,-15.5C76.18,-15.5 84.92,-15.5 93.65,-15.5"/>
<polygon fill="midnightblue" stroke="midnightblue" points="93.85,-19 103.85,-15.5 93.85,-12 93.85,-19"/>
</g>
<!-- Node3 -->
<g id="node3" class="node">
<title>Node3</title>
<g id="a_node3"><a xlink:href="../../df/d91/namespaceuxn_1_1patl_1_1aux.html#af44fdfa30967f02155ee0f4c45741b5d" target="_top" xlink:title=" ">
<polygon fill="none" stroke="black" points="238,-0.5 238,-30.5 336,-30.5 336,-0.5 238,-0.5"/>
<text text-anchor="start" x="246" y="-18.5" font-family="Helvetica,sans-Serif" font-size="10.00">uxn::patl::aux::is</text>
<text text-anchor="middle" x="287" y="-7.5" font-family="Helvetica,sans-Serif" font-size="10.00">_cyrillic_letter</text>
</a>
</g>
</g>
<!-- Node2&#45;&gt;Node3 -->
<g id="edge2" class="edge">
<title>Node2&#45;&gt;Node3</title>
<path fill="none" stroke="midnightblue" d="M202.03,-15.5C210.31,-15.5 219,-15.5 227.52,-15.5"/>
<polygon fill="midnightblue" stroke="midnightblue" points="227.79,-19 237.79,-15.5 227.79,-12 227.79,-19"/>
</g>
</g>
</svg>
