<?xml version="1.0" encoding="UTF-8" standalone="no"?>
<!DOCTYPE svg PUBLIC "-//W3C//DTD SVG 1.1//EN"
 "http://www.w3.org/Graphics/SVG/1.1/DTD/svg11.dtd">
<!-- Generated by graphviz version 5.0.1 (20220820.1526)
 -->
<!-- Title: strings_from_file_generator Pages: 1 -->
<!--zoomable 623 -->
<svg id="main" version="1.1" xmlns="http://www.w3.org/2000/svg" xmlns:xlink="http://www.w3.org/1999/xlink" xml:space="preserve" onload="init(evt)">
<style type="text/css"><![CDATA[
.edge:hover path { stroke: red; }
.edge:hover polygon { stroke: red; fill: red; }
]]></style>
<script type="text/javascript"><![CDATA[
var edges = document.getElementsByTagName('g');
if (edges && edges.length) {
  for (var i=0;i<edges.length;i++) {
    if (edges[i].id.substr(0,4)=='edge') {
      edges[i].setAttribute('class','edge');
    }
  }
}
]]></script>
        <defs>
                <circle id="rim" cx="0" cy="0" r="7"/>
                <circle id="rim2" cx="0" cy="0" r="3.5"/>
                <g id="zoomPlus">
                        <use xlink:href="#rim" fill="#404040">
                                <set attributeName="fill" to="#808080" begin="zoomplus.mouseover" end="zoomplus.mouseout"/>
                        </use>
                        <path d="M-4,0h8M0,-4v8" fill="none" stroke="white" stroke-width="1.5" pointer-events="none"/>
                </g>
                <g id="zoomMin">
                        <use xlink:href="#rim" fill="#404040">
                                <set attributeName="fill" to="#808080" begin="zoomminus.mouseover" end="zoomminus.mouseout"/>
                        </use>
                        <path d="M-4,0h8" fill="none" stroke="white" stroke-width="1.5" pointer-events="none"/>
                </g>
                <g id="dirArrow">
                        <path fill="none" stroke="white" stroke-width="1.5" d="M0,-3.0v7 M-2.5,-0.5L0,-3.0L2.5,-0.5"/>
                </g>
               <g id="resetDef">
                       <use xlink:href="#rim2" fill="#404040">
                               <set attributeName="fill" to="#808080" begin="reset.mouseover" end="reset.mouseout"/>
                       </use>
               </g>
        </defs>

<script type="text/javascript">
var viewWidth = 361;
var viewHeight = 623;
var sectionId = 'dynsection-1';
</script>
<script xlink:href="../../svgpan.js"/>
<svg id="graph" class="graph">
<g id="viewport">
<title>strings_from_file_generator</title>
<!-- Node1 -->
<g id="node1" class="node">
<title>Node1</title>
<g id="a_node1"><a xlink:title=" ">
<polygon fill="#bfbfbf" stroke="black" points="32.5,-0.5 32.5,-244.5 199.5,-244.5 199.5,-0.5 32.5,-0.5"/>
<text text-anchor="middle" x="116" y="-232.5" font-family="Helvetica,sans-Serif" font-size="10.00">strings_from_file_generator</text>
<polyline fill="none" stroke="black" points="32.5,-225.5 199.5,-225.5"/>
<text text-anchor="start" x="40.5" y="-213.5" font-family="Helvetica,sans-Serif" font-size="10.00">+ PATL_EMIT</text>
<text text-anchor="start" x="40.5" y="-202.5" font-family="Helvetica,sans-Serif" font-size="10.00">+ word_t block_size_</text>
<text text-anchor="start" x="40.5" y="-191.5" font-family="Helvetica,sans-Serif" font-size="10.00">+ word_t max_string_size_</text>
<text text-anchor="start" x="40.5" y="-180.5" font-family="Helvetica,sans-Serif" font-size="10.00">+ word_t lin_num_</text>
<text text-anchor="start" x="40.5" y="-169.5" font-family="Helvetica,sans-Serif" font-size="10.00">+ bool skip_yield_</text>
<text text-anchor="start" x="40.5" y="-158.5" font-family="Helvetica,sans-Serif" font-size="10.00">+ const unsigned char</text>
<text text-anchor="start" x="40.5" y="-147.5" font-family="Helvetica,sans-Serif" font-size="10.00"> * text_</text>
<text text-anchor="start" x="40.5" y="-136.5" font-family="Helvetica,sans-Serif" font-size="10.00">+ const unsigned char</text>
<text text-anchor="start" x="40.5" y="-125.5" font-family="Helvetica,sans-Serif" font-size="10.00"> * text_end_</text>
<text text-anchor="start" x="40.5" y="-114.5" font-family="Helvetica,sans-Serif" font-size="10.00">+ word_t viewed_off_beg_</text>
<text text-anchor="start" x="40.5" y="-103.5" font-family="Helvetica,sans-Serif" font-size="10.00">+ word_t viewed_off_cur_</text>
<text text-anchor="start" x="40.5" y="-92.5" font-family="Helvetica,sans-Serif" font-size="10.00">+ const unsigned char</text>
<text text-anchor="start" x="40.5" y="-81.5" font-family="Helvetica,sans-Serif" font-size="10.00"> * lin_beg_</text>
<text text-anchor="start" x="40.5" y="-70.5" font-family="Helvetica,sans-Serif" font-size="10.00">+ const unsigned char</text>
<text text-anchor="start" x="40.5" y="-59.5" font-family="Helvetica,sans-Serif" font-size="10.00"> * lin_cur_</text>
<polyline fill="none" stroke="black" points="32.5,-52.5 199.5,-52.5"/>
<text text-anchor="start" x="40.5" y="-40.5" font-family="Helvetica,sans-Serif" font-size="10.00">+ strings_from_file</text>
<text text-anchor="start" x="40.5" y="-29.5" font-family="Helvetica,sans-Serif" font-size="10.00">_generator(const char</text>
<text text-anchor="start" x="40.5" y="-18.5" font-family="Helvetica,sans-Serif" font-size="10.00"> *infname, word_t block</text>
<text text-anchor="start" x="40.5" y="-7.5" font-family="Helvetica,sans-Serif" font-size="10.00">_size, word_t max_string_size)</text>
</a>
</g>
</g>
<!-- Node2 -->
<g id="node2" class="node">
<title>Node2</title>
<g id="a_node2"><a xlink:title=" ">
<polygon fill="none" stroke="black" points="0,-303.5 0,-382.5 138,-382.5 138,-303.5 0,-303.5"/>
<text text-anchor="start" x="8" y="-370.5" font-family="Helvetica,sans-Serif" font-size="10.00">patl::impl::generator</text>
<text text-anchor="start" x="8" y="-359.5" font-family="Helvetica,sans-Serif" font-size="10.00">_base&lt; strings_from_file</text>
<text text-anchor="middle" x="69" y="-348.5" font-family="Helvetica,sans-Serif" font-size="10.00">_generator, line_t &gt;</text>
<polyline fill="none" stroke="black" points="0,-341.5 138,-341.5"/>
<text text-anchor="middle" x="69" y="-329.5" font-family="Helvetica,sans-Serif" font-size="10.00"> </text>
<polyline fill="none" stroke="black" points="0,-322.5 138,-322.5"/>
<text text-anchor="middle" x="69" y="-310.5" font-family="Helvetica,sans-Serif" font-size="10.00"> </text>
</a>
</g>
</g>
<!-- Node2&#45;&gt;Node1 -->
<g id="edge1" class="edge">
<title>Node2&#45;&gt;Node1</title>
<path fill="none" stroke="midnightblue" d="M79.41,-293.61C82.58,-278.88 86.21,-261.98 89.94,-244.67"/>
<polygon fill="none" stroke="midnightblue" points="75.98,-292.93 77.29,-303.44 82.82,-294.4 75.98,-292.93"/>
</g>
<!-- Node3 -->
<g id="node3" class="node">
<title>Node3</title>
<g id="a_node3"><a xlink:title=" ">
<polygon fill="none" stroke="black" points="156,-292.5 156,-393.5 296,-393.5 296,-292.5 156,-292.5"/>
<text text-anchor="start" x="164" y="-381.5" font-family="Helvetica,sans-Serif" font-size="10.00">std::auto_ptr&lt; patl</text>
<text text-anchor="start" x="164" y="-370.5" font-family="Helvetica,sans-Serif" font-size="10.00">::aux::file_mapping</text>
<text text-anchor="middle" x="226" y="-359.5" font-family="Helvetica,sans-Serif" font-size="10.00">_view &gt;</text>
<polyline fill="none" stroke="black" points="156,-352.5 296,-352.5"/>
<text text-anchor="start" x="164" y="-340.5" font-family="Helvetica,sans-Serif" font-size="10.00">+ patl::aux::file_mapping</text>
<text text-anchor="start" x="164" y="-329.5" font-family="Helvetica,sans-Serif" font-size="10.00">_view ptr</text>
<polyline fill="none" stroke="black" points="156,-322.5 296,-322.5"/>
<text text-anchor="start" x="164" y="-310.5" font-family="Helvetica,sans-Serif" font-size="10.00">+ patl::aux::file_mapping</text>
<text text-anchor="start" x="164" y="-299.5" font-family="Helvetica,sans-Serif" font-size="10.00">_view * operator&#45;&gt;()</text>
</a>
</g>
</g>
<!-- Node3&#45;&gt;Node1 -->
<g id="edge2" class="edge">
<title>Node3&#45;&gt;Node1</title>
<path fill="none" stroke="#404040" d="M201.04,-292.42C195.34,-281.11 189.03,-268.56 182.49,-255.57"/>
<polygon fill="none" stroke="#404040" points="182.34,-255.28 176.07,-251.72 176.95,-244.56 183.22,-248.12 182.34,-255.28"/>
<text text-anchor="middle" x="208.5" y="-266" font-family="Helvetica,sans-Serif" font-size="10.00"> +fmv_</text>
</g>
<!-- Node4 -->
<g id="node4" class="node">
<title>Node4</title>
<g id="a_node4"><a xlink:title=" ">
<polygon fill="none" stroke="black" points="172.5,-452.5 172.5,-509.5 279.5,-509.5 279.5,-452.5 172.5,-452.5"/>
<text text-anchor="middle" x="226" y="-497.5" font-family="Helvetica,sans-Serif" font-size="10.00">std::auto_ptr&lt; T &gt;</text>
<polyline fill="none" stroke="black" points="172.5,-490.5 279.5,-490.5"/>
<text text-anchor="middle" x="226" y="-478.5" font-family="Helvetica,sans-Serif" font-size="10.00"> </text>
<polyline fill="none" stroke="black" points="172.5,-471.5 279.5,-471.5"/>
<text text-anchor="start" x="180.5" y="-459.5" font-family="Helvetica,sans-Serif" font-size="10.00">+ T * operator&#45;&gt;()</text>
</a>
</g>
</g>
<!-- Node4&#45;&gt;Node3 -->
<g id="edge3" class="edge">
<title>Node4&#45;&gt;Node3</title>
<path fill="none" stroke="orange" d="M226,-442.07C226,-427.11 226,-409.71 226,-393.76"/>
<polygon fill="orange" stroke="orange" points="222.5,-442.48 226,-452.48 229.5,-442.48 222.5,-442.48"/>
<text text-anchor="start" x="226" y="-426" font-family="Helvetica,sans-Serif" font-size="10.00"> &lt; patl::aux::file_mapping</text>
<text text-anchor="middle" x="289.5" y="-415" font-family="Helvetica,sans-Serif" font-size="10.00">_view &gt;</text>
</g>
<!-- Node5 -->
<g id="node5" class="node">
<title>Node5</title>
<g id="a_node5"><a xlink:title=" ">
<polygon fill="none" stroke="black" points="211.5,-557.5 211.5,-614.5 240.5,-614.5 240.5,-557.5 211.5,-557.5"/>
<text text-anchor="middle" x="226" y="-602.5" font-family="Helvetica,sans-Serif" font-size="10.00">T</text>
<polyline fill="none" stroke="black" points="211.5,-595.5 240.5,-595.5"/>
<text text-anchor="middle" x="226" y="-583.5" font-family="Helvetica,sans-Serif" font-size="10.00"> </text>
<polyline fill="none" stroke="black" points="211.5,-576.5 240.5,-576.5"/>
<text text-anchor="middle" x="226" y="-564.5" font-family="Helvetica,sans-Serif" font-size="10.00"> </text>
</a>
</g>
</g>
<!-- Node5&#45;&gt;Node4 -->
<g id="edge4" class="edge">
<title>Node5&#45;&gt;Node4</title>
<path fill="none" stroke="#404040" d="M226,-557.4C226,-546.55 226,-533.87 226,-522.05"/>
<polygon fill="none" stroke="#404040" points="226,-521.68 222,-515.68 226,-509.68 230,-515.68 226,-521.68"/>
<text text-anchor="middle" x="238.5" y="-531" font-family="Helvetica,sans-Serif" font-size="10.00"> +ptr</text>
</g>
</g>
</svg>
        <g id="navigator" transform="translate(0 0)" fill="#404254">
                <rect fill="#f2f5e9" fill-opacity="0.5" stroke="#606060" stroke-width=".5" x="0" y="0" width="60" height="60"/>
                <use id="zoomplus" xlink:href="#zoomPlus" x="17" y="9" onmousedown="handleZoom(evt,'in')"/>
                <use id="zoomminus" xlink:href="#zoomMin" x="42" y="9" onmousedown="handleZoom(evt,'out')"/>
                <use id="reset" xlink:href="#resetDef" x="30" y="36" onmousedown="handleReset()"/>
                <g id="arrowUp" xlink:href="#dirArrow" transform="translate(30 24)" onmousedown="handlePan(0,-1)">
                  <use xlink:href="#rim" fill="#404040">
                        <set attributeName="fill" to="#808080" begin="arrowUp.mouseover" end="arrowUp.mouseout"/>
                  </use>
                  <path fill="none" stroke="white" stroke-width="1.5" d="M0,-3.0v7 M-2.5,-0.5L0,-3.0L2.5,-0.5"/>
                </g>
                <g id="arrowRight" xlink:href="#dirArrow" transform="rotate(90) translate(36 -43)" onmousedown="handlePan(1,0)">
                  <use xlink:href="#rim" fill="#404040">
                        <set attributeName="fill" to="#808080" begin="arrowRight.mouseover" end="arrowRight.mouseout"/>
                  </use>
                  <path fill="none" stroke="white" stroke-width="1.5" d="M0,-3.0v7 M-2.5,-0.5L0,-3.0L2.5,-0.5"/>
                </g>
                <g id="arrowDown" xlink:href="#dirArrow" transform="rotate(180) translate(-30 -48)" onmousedown="handlePan(0,1)">
                  <use xlink:href="#rim" fill="#404040">
                        <set attributeName="fill" to="#808080" begin="arrowDown.mouseover" end="arrowDown.mouseout"/>
                  </use>
                  <path fill="none" stroke="white" stroke-width="1.5" d="M0,-3.0v7 M-2.5,-0.5L0,-3.0L2.5,-0.5"/>
                </g>
                <g id="arrowLeft" xlink:href="#dirArrow" transform="rotate(270) translate(-36 17)" onmousedown="handlePan(-1,0)">
                  <use xlink:href="#rim" fill="#404040">
                        <set attributeName="fill" to="#808080" begin="arrowLeft.mouseover" end="arrowLeft.mouseout"/>
                  </use>
                  <path fill="none" stroke="white" stroke-width="1.5" d="M0,-3.0v7 M-2.5,-0.5L0,-3.0L2.5,-0.5"/>
                </g>
        </g>
        <svg viewBox="0 0 15 15" width="100%" height="30px" preserveAspectRatio="xMaxYMin meet">
         <g id="arrow_out" transform="scale(0.3 0.3)">
          <a xlink:href="classstrings__from__file__generator__coll__graph_org.svg" target="_base">
           <rect id="button" ry="5" rx="5" y="6" x="6" height="38" width="38"
                fill="#f2f5e9" fill-opacity="0.5" stroke="#606060" stroke-width="1.0"/>
           <path id="arrow"
             d="M 11.500037,31.436501 C 11.940474,20.09759 22.043105,11.32322 32.158766,21.979434 L 37.068811,17.246167 C 37.068811,17.246167 37.088388,32 37.088388,32 L 22.160133,31.978069 C 22.160133,31.978069 26.997745,27.140456 26.997745,27.140456 C 18.528582,18.264221 13.291696,25.230495 11.500037,31.436501 z"
             style="fill:#404040;"/>
          </a>
         </g>
        </svg>
</svg>
