<?xml version="1.0" encoding="UTF-8" standalone="no"?>
<!DOCTYPE svg PUBLIC "-//W3C//DTD SVG 1.1//EN"
 "http://www.w3.org/Graphics/SVG/1.1/DTD/svg11.dtd">
<!-- Generated by graphviz version 5.0.1 (20220820.1526)
 -->
<!-- Title: uxn/demos/levenshtein/levenshtein.cpp Pages: 1 -->
<!--zoomable 386 -->
<svg id="main" version="1.1" xmlns="http://www.w3.org/2000/svg" xmlns:xlink="http://www.w3.org/1999/xlink" xml:space="preserve" onload="init(evt)">
<style type="text/css"><![CDATA[
.edge:hover path { stroke: red; }
.edge:hover polygon { stroke: red; fill: red; }
]]></style>
<script type="text/javascript"><![CDATA[
var edges = document.getElementsByTagName('g');
if (edges && edges.length) {
  for (var i=0;i<edges.length;i++) {
    if (edges[i].id.substr(0,4)=='edge') {
      edges[i].setAttribute('class','edge');
    }
  }
}
]]></script>
        <defs>
                <circle id="rim" cx="0" cy="0" r="7"/>
                <circle id="rim2" cx="0" cy="0" r="3.5"/>
                <g id="zoomPlus">
                        <use xlink:href="#rim" fill="#404040">
                                <set attributeName="fill" to="#808080" begin="zoomplus.mouseover" end="zoomplus.mouseout"/>
                        </use>
                        <path d="M-4,0h8M0,-4v8" fill="none" stroke="white" stroke-width="1.5" pointer-events="none"/>
                </g>
                <g id="zoomMin">
                        <use xlink:href="#rim" fill="#404040">
                                <set attributeName="fill" to="#808080" begin="zoomminus.mouseover" end="zoomminus.mouseout"/>
                        </use>
                        <path d="M-4,0h8" fill="none" stroke="white" stroke-width="1.5" pointer-events="none"/>
                </g>
                <g id="dirArrow">
                        <path fill="none" stroke="white" stroke-width="1.5" d="M0,-3.0v7 M-2.5,-0.5L0,-3.0L2.5,-0.5"/>
                </g>
               <g id="resetDef">
                       <use xlink:href="#rim2" fill="#404040">
                               <set attributeName="fill" to="#808080" begin="reset.mouseover" end="reset.mouseout"/>
                       </use>
               </g>
        </defs>

<script type="text/javascript">
var viewWidth = 1161;
var viewHeight = 386;
var sectionId = 'dynsection-0';
</script>
<script xlink:href="../../svgpan.js"/>
<svg id="graph" class="graph">
<g id="viewport">
<title>uxn/demos/levenshtein/levenshtein.cpp</title>
<!-- Node1 -->
<g id="node1" class="node">
<title>Node1</title>
<g id="a_node1"><a xlink:title=" ">
<polygon fill="#bfbfbf" stroke="black" points="421.66,-347.5 421.66,-377.5 552.66,-377.5 552.66,-347.5 421.66,-347.5"/>
<text text-anchor="start" x="429.66" y="-365.5" font-family="Helvetica,sans-Serif" font-size="10.00">uxn/demos/levenshtein</text>
<text text-anchor="middle" x="487.16" y="-354.5" font-family="Helvetica,sans-Serif" font-size="10.00">/levenshtein.cpp</text>
</a>
</g>
</g>
<!-- Node2 -->
<g id="node2" class="node">
<title>Node2</title>
<g id="a_node2"><a xlink:title=" ">
<polygon fill="none" stroke="#bfbfbf" points="292.66,-286 292.66,-305 347.66,-305 347.66,-286 292.66,-286"/>
<text text-anchor="middle" x="320.16" y="-293" font-family="Helvetica,sans-Serif" font-size="10.00">fstream</text>
</a>
</g>
</g>
<!-- Node1&#45;&gt;Node2 -->
<g id="edge1" class="edge">
<title>Node1&#45;&gt;Node2</title>
<path fill="none" stroke="midnightblue" d="M450.4,-347.5C424.11,-337.44 387.91,-323.51 356.16,-311 354.52,-310.35 352.84,-309.69 351.15,-309.02"/>
<polygon fill="midnightblue" stroke="midnightblue" points="352.05,-305.6 341.46,-305.14 349.45,-312.1 352.05,-305.6"/>
</g>
<!-- Node3 -->
<g id="node3" class="node">
<title>Node3</title>
<g id="a_node3"><a xlink:href="../../d9/df3/perf__timer_8hpp.html" target="_top" xlink:title=" ">
<polygon fill="none" stroke="black" points="365.66,-280.5 365.66,-310.5 470.66,-310.5 470.66,-280.5 365.66,-280.5"/>
<text text-anchor="start" x="373.66" y="-298.5" font-family="Helvetica,sans-Serif" font-size="10.00">uxn/patl/aux_/perf</text>
<text text-anchor="middle" x="418.16" y="-287.5" font-family="Helvetica,sans-Serif" font-size="10.00">_timer.hpp</text>
</a>
</g>
</g>
<!-- Node1&#45;&gt;Node3 -->
<g id="edge2" class="edge">
<title>Node1&#45;&gt;Node3</title>
<path fill="none" stroke="midnightblue" d="M472.19,-347.4C462.97,-338.71 450.97,-327.4 440.62,-317.66"/>
<polygon fill="midnightblue" stroke="midnightblue" points="442.78,-314.89 433.1,-310.58 437.98,-319.98 442.78,-314.89"/>
</g>
<!-- Node5 -->
<g id="node5" class="node">
<title>Node5</title>
<g id="a_node5"><a xlink:href="../../d4/db1/trie__set_8hpp.html" target="_top" xlink:title=" ">
<polygon fill="none" stroke="black" points="681.66,-286 681.66,-305 798.66,-305 798.66,-286 681.66,-286"/>
<text text-anchor="middle" x="740.16" y="-293" font-family="Helvetica,sans-Serif" font-size="10.00">uxn/patl/trie_set.hpp</text>
</a>
</g>
</g>
<!-- Node1&#45;&gt;Node5 -->
<g id="edge4" class="edge">
<title>Node1&#45;&gt;Node5</title>
<path fill="none" stroke="midnightblue" d="M541.75,-347.48C588.28,-335.52 654.25,-318.57 697.12,-307.56"/>
<polygon fill="midnightblue" stroke="midnightblue" points="698.15,-310.91 706.96,-305.03 696.41,-304.13 698.15,-310.91"/>
</g>
<!-- Node30 -->
<g id="node30" class="node">
<title>Node30</title>
<g id="a_node30"><a xlink:href="../../da/d42/levenshtein_8hpp.html" target="_top" xlink:title=" ">
<polygon fill="none" stroke="black" points="488.66,-286 488.66,-305 625.66,-305 625.66,-286 488.66,-286"/>
<text text-anchor="middle" x="557.16" y="-293" font-family="Helvetica,sans-Serif" font-size="10.00">uxn/patl/levenshtein.hpp</text>
</a>
</g>
</g>
<!-- Node1&#45;&gt;Node30 -->
<g id="edge38" class="edge">
<title>Node1&#45;&gt;Node30</title>
<path fill="none" stroke="midnightblue" d="M502.35,-347.4C513.48,-337.06 528.6,-323.02 540.14,-312.31"/>
<polygon fill="midnightblue" stroke="midnightblue" points="542.85,-314.56 547.8,-305.19 538.09,-309.43 542.85,-314.56"/>
</g>
<!-- Node4 -->
<g id="node4" class="node">
<title>Node4</title>
<g id="a_node4"><a xlink:title=" ">
<polygon fill="none" stroke="#bfbfbf" points="387.16,-224.5 387.16,-243.5 449.16,-243.5 449.16,-224.5 387.16,-224.5"/>
<text text-anchor="middle" x="418.16" y="-231.5" font-family="Helvetica,sans-Serif" font-size="10.00">cinttypes</text>
</a>
</g>
</g>
<!-- Node3&#45;&gt;Node4 -->
<g id="edge3" class="edge">
<title>Node3&#45;&gt;Node4</title>
<path fill="none" stroke="midnightblue" d="M418.16,-280.4C418.16,-272.47 418.16,-262.46 418.16,-253.86"/>
<polygon fill="midnightblue" stroke="midnightblue" points="421.66,-253.66 418.16,-243.66 414.66,-253.66 421.66,-253.66"/>
</g>
<!-- Node6 -->
<g id="node6" class="node">
<title>Node6</title>
<g id="a_node6"><a xlink:href="../../d9/d25/trie__generic_8hpp.html" target="_top" xlink:title=" ">
<polygon fill="none" stroke="black" points="680.16,-224.5 680.16,-243.5 800.16,-243.5 800.16,-224.5 680.16,-224.5"/>
<text text-anchor="middle" x="740.16" y="-231.5" font-family="Helvetica,sans-Serif" font-size="10.00">impl/trie_generic.hpp</text>
</a>
</g>
</g>
<!-- Node5&#45;&gt;Node6 -->
<g id="edge5" class="edge">
<title>Node5&#45;&gt;Node6</title>
<path fill="none" stroke="midnightblue" d="M740.16,-285.98C740.16,-277.58 740.16,-264.48 740.16,-253.66"/>
<polygon fill="midnightblue" stroke="midnightblue" points="743.66,-253.51 740.16,-243.51 736.66,-253.51 743.66,-253.51"/>
</g>
<!-- Node27 -->
<g id="node27" class="node">
<title>Node27</title>
<g id="a_node27"><a xlink:href="../../d1/dff/bit__comp_8hpp.html" target="_top" xlink:title=" ">
<polygon fill="none" stroke="black" points="1008.66,-168.5 1008.66,-187.5 1091.66,-187.5 1091.66,-168.5 1008.66,-168.5"/>
<text text-anchor="middle" x="1050.16" y="-175.5" font-family="Helvetica,sans-Serif" font-size="10.00">bit_comp.hpp</text>
</a>
</g>
</g>
<!-- Node5&#45;&gt;Node27 -->
<g id="edge34" class="edge">
<title>Node5&#45;&gt;Node27</title>
<path fill="none" stroke="midnightblue" d="M763.21,-285.91C817.68,-265.62 954.53,-214.63 1017.51,-191.16"/>
<polygon fill="midnightblue" stroke="midnightblue" points="1018.81,-194.41 1026.96,-187.64 1016.37,-187.86 1018.81,-194.41"/>
</g>
<!-- Node7 -->
<g id="node7" class="node">
<title>Node7</title>
<g id="a_node7"><a xlink:title=" ">
<polygon fill="none" stroke="#bfbfbf" points="706.16,-112.5 706.16,-131.5 770.16,-131.5 770.16,-112.5 706.16,-112.5"/>
<text text-anchor="middle" x="738.16" y="-119.5" font-family="Helvetica,sans-Serif" font-size="10.00">algorithm</text>
</a>
</g>
</g>
<!-- Node6&#45;&gt;Node7 -->
<g id="edge6" class="edge">
<title>Node6&#45;&gt;Node7</title>
<path fill="none" stroke="midnightblue" d="M743.4,-224.19C747.58,-211.72 754.02,-188.17 751.16,-168 749.89,-159.04 747.27,-149.37 744.71,-141.3"/>
<polygon fill="midnightblue" stroke="midnightblue" points="748.02,-140.16 741.51,-131.8 741.39,-142.4 748.02,-140.16"/>
</g>
<!-- Node8 -->
<g id="node8" class="node">
<title>Node8</title>
<g id="a_node8"><a xlink:title=" ">
<polygon fill="none" stroke="#bfbfbf" points="677.66,-168.5 677.66,-187.5 742.66,-187.5 742.66,-168.5 677.66,-168.5"/>
<text text-anchor="middle" x="710.16" y="-175.5" font-family="Helvetica,sans-Serif" font-size="10.00">functional</text>
</a>
</g>
</g>
<!-- Node6&#45;&gt;Node8 -->
<g id="edge7" class="edge">
<title>Node6&#45;&gt;Node8</title>
<path fill="none" stroke="midnightblue" d="M735.21,-224.08C731.06,-216.61 725.01,-205.72 719.89,-196.52"/>
<polygon fill="midnightblue" stroke="midnightblue" points="722.94,-194.79 715.02,-187.75 716.82,-198.19 722.94,-194.79"/>
</g>
<!-- Node9 -->
<g id="node9" class="node">
<title>Node9</title>
<g id="a_node9"><a xlink:href="../../d3/d09/node_8hpp.html" target="_top" xlink:title=" ">
<polygon fill="none" stroke="black" points="799.16,-168.5 799.16,-187.5 861.16,-187.5 861.16,-168.5 799.16,-168.5"/>
<text text-anchor="middle" x="830.16" y="-175.5" font-family="Helvetica,sans-Serif" font-size="10.00">node.hpp</text>
</a>
</g>
</g>
<!-- Node6&#45;&gt;Node9 -->
<g id="edge8" class="edge">
<title>Node6&#45;&gt;Node9</title>
<path fill="none" stroke="midnightblue" d="M754.62,-224.32C768.66,-215.9 790.21,-202.97 806.7,-193.07"/>
<polygon fill="midnightblue" stroke="midnightblue" points="808.96,-195.8 815.74,-187.65 805.36,-189.8 808.96,-195.8"/>
</g>
<!-- Node11 -->
<g id="node11" class="node">
<title>Node11</title>
<g id="a_node11"><a xlink:href="../../d0/dd1/core__algorithm_8hpp.html" target="_top" xlink:title=" ">
<polygon fill="none" stroke="black" points="879.66,-168.5 879.66,-187.5 990.66,-187.5 990.66,-168.5 879.66,-168.5"/>
<text text-anchor="middle" x="935.16" y="-175.5" font-family="Helvetica,sans-Serif" font-size="10.00">core_algorithm.hpp</text>
</a>
</g>
</g>
<!-- Node6&#45;&gt;Node11 -->
<g id="edge11" class="edge">
<title>Node6&#45;&gt;Node11</title>
<path fill="none" stroke="midnightblue" d="M771.06,-224.44C804.43,-215.2 857.75,-200.44 894.51,-190.26"/>
<polygon fill="midnightblue" stroke="midnightblue" points="895.7,-193.56 904.41,-187.52 893.84,-186.81 895.7,-193.56"/>
</g>
<!-- Node17 -->
<g id="node17" class="node">
<title>Node17</title>
<g id="a_node17"><a xlink:href="../../de/d50/assoc__generic_8hpp.html" target="_top" xlink:title=" ">
<polygon fill="none" stroke="black" points="277.66,-168.5 277.66,-187.5 384.66,-187.5 384.66,-168.5 277.66,-168.5"/>
<text text-anchor="middle" x="331.16" y="-175.5" font-family="Helvetica,sans-Serif" font-size="10.00">assoc_generic.hpp</text>
</a>
</g>
</g>
<!-- Node6&#45;&gt;Node17 -->
<g id="edge19" class="edge">
<title>Node6&#45;&gt;Node17</title>
<path fill="none" stroke="midnightblue" d="M679.81,-225.03C603.57,-214.97 472.95,-197.72 395.07,-187.44"/>
<polygon fill="midnightblue" stroke="midnightblue" points="395.28,-183.93 384.9,-186.1 394.36,-190.87 395.28,-183.93"/>
</g>
<!-- Node25 -->
<g id="node25" class="node">
<title>Node25</title>
<g id="a_node25"><a xlink:href="../../d7/dd8/core__prefix_8hpp.html" target="_top" xlink:title=" ">
<polygon fill="none" stroke="black" points="567.16,-168.5 567.16,-187.5 659.16,-187.5 659.16,-168.5 567.16,-168.5"/>
<text text-anchor="middle" x="613.16" y="-175.5" font-family="Helvetica,sans-Serif" font-size="10.00">core_prefix.hpp</text>
</a>
</g>
</g>
<!-- Node6&#45;&gt;Node25 -->
<g id="edge32" class="edge">
<title>Node6&#45;&gt;Node25</title>
<path fill="none" stroke="midnightblue" d="M720.04,-224.44C699.14,-215.56 666.23,-201.56 642.44,-191.45"/>
<polygon fill="midnightblue" stroke="midnightblue" points="643.76,-188.21 633.19,-187.52 641.02,-194.65 643.76,-188.21"/>
</g>
<!-- Node9&#45;&gt;Node7 -->
<g id="edge9" class="edge">
<title>Node9&#45;&gt;Node7</title>
<path fill="none" stroke="midnightblue" d="M815.38,-168.32C800.89,-159.82 778.59,-146.73 761.67,-136.8"/>
<polygon fill="midnightblue" stroke="midnightblue" points="763.3,-133.7 752.91,-131.65 759.76,-139.74 763.3,-133.7"/>
</g>
<!-- Node10 -->
<g id="node10" class="node">
<title>Node10</title>
<g id="a_node10"><a xlink:href="../../d8/dfd/config_8hpp.html" target="_top" xlink:title=" ">
<polygon fill="none" stroke="black" points="849.16,-0.5 849.16,-19.5 925.16,-19.5 925.16,-0.5 849.16,-0.5"/>
<text text-anchor="middle" x="887.16" y="-7.5" font-family="Helvetica,sans-Serif" font-size="10.00">../config.hpp</text>
</a>
</g>
</g>
<!-- Node9&#45;&gt;Node10 -->
<g id="edge10" class="edge">
<title>Node9&#45;&gt;Node10</title>
<path fill="none" stroke="midnightblue" d="M833.23,-168.08C842.24,-141.83 868.78,-64.55 880.94,-29.12"/>
<polygon fill="midnightblue" stroke="midnightblue" points="884.28,-30.16 884.22,-19.57 877.66,-27.89 884.28,-30.16"/>
</g>
<!-- Node12 -->
<g id="node12" class="node">
<title>Node12</title>
<g id="a_node12"><a xlink:href="../../de/d55/algorithm_8hpp.html" target="_top" xlink:title=" ">
<polygon fill="none" stroke="black" points="892.66,-112.5 892.66,-131.5 977.66,-131.5 977.66,-112.5 892.66,-112.5"/>
<text text-anchor="middle" x="935.16" y="-119.5" font-family="Helvetica,sans-Serif" font-size="10.00">algorithm.hpp</text>
</a>
</g>
</g>
<!-- Node11&#45;&gt;Node12 -->
<g id="edge12" class="edge">
<title>Node11&#45;&gt;Node12</title>
<path fill="none" stroke="midnightblue" d="M935.16,-168.08C935.16,-161.01 935.16,-150.86 935.16,-141.99"/>
<polygon fill="midnightblue" stroke="midnightblue" points="938.66,-141.75 935.16,-131.75 931.66,-141.75 938.66,-141.75"/>
</g>
<!-- Node12&#45;&gt;Node10 -->
<g id="edge13" class="edge">
<title>Node12&#45;&gt;Node10</title>
<path fill="none" stroke="midnightblue" d="M931.39,-112.37C923.58,-94.46 905.45,-52.92 894.99,-28.95"/>
<polygon fill="midnightblue" stroke="midnightblue" points="898.12,-27.36 890.91,-19.59 891.7,-30.16 898.12,-27.36"/>
</g>
<!-- Node13 -->
<g id="node13" class="node">
<title>Node13</title>
<g id="a_node13"><a xlink:href="../../d9/d3a/trivial_8hpp.html" target="_top" xlink:title=" ">
<polygon fill="none" stroke="black" points="968.16,-56.5 968.16,-75.5 1034.16,-75.5 1034.16,-56.5 968.16,-56.5"/>
<text text-anchor="middle" x="1001.16" y="-63.5" font-family="Helvetica,sans-Serif" font-size="10.00">trivial.hpp</text>
</a>
</g>
</g>
<!-- Node12&#45;&gt;Node13 -->
<g id="edge14" class="edge">
<title>Node12&#45;&gt;Node13</title>
<path fill="none" stroke="midnightblue" d="M945.77,-112.32C955.62,-104.26 970.51,-92.08 982.38,-82.37"/>
<polygon fill="midnightblue" stroke="midnightblue" points="984.84,-84.88 990.36,-75.83 980.41,-79.46 984.84,-84.88"/>
</g>
<!-- Node13&#45;&gt;Node10 -->
<g id="edge15" class="edge">
<title>Node13&#45;&gt;Node10</title>
<path fill="none" stroke="midnightblue" d="M983.1,-56.44C964.59,-47.68 935.58,-33.94 914.31,-23.86"/>
<polygon fill="midnightblue" stroke="midnightblue" points="915.68,-20.63 905.14,-19.52 912.68,-26.96 915.68,-20.63"/>
</g>
<!-- Node14 -->
<g id="node14" class="node">
<title>Node14</title>
<g id="a_node14"><a xlink:title=" ">
<polygon fill="none" stroke="#bfbfbf" points="943.66,-0.5 943.66,-19.5 1012.66,-19.5 1012.66,-0.5 943.66,-0.5"/>
<text text-anchor="middle" x="978.16" y="-7.5" font-family="Helvetica,sans-Serif" font-size="10.00">type_traits</text>
</a>
</g>
</g>
<!-- Node13&#45;&gt;Node14 -->
<g id="edge16" class="edge">
<title>Node13&#45;&gt;Node14</title>
<path fill="none" stroke="midnightblue" d="M997.36,-56.08C994.25,-48.77 989.74,-38.18 985.87,-29.1"/>
<polygon fill="midnightblue" stroke="midnightblue" points="989.03,-27.58 981.89,-19.75 982.59,-30.32 989.03,-27.58"/>
</g>
<!-- Node15 -->
<g id="node15" class="node">
<title>Node15</title>
<g id="a_node15"><a xlink:title=" ">
<polygon fill="none" stroke="#bfbfbf" points="1031.16,-0.5 1031.16,-19.5 1083.16,-19.5 1083.16,-0.5 1031.16,-0.5"/>
<text text-anchor="middle" x="1057.16" y="-7.5" font-family="Helvetica,sans-Serif" font-size="10.00">cassert</text>
</a>
</g>
</g>
<!-- Node13&#45;&gt;Node15 -->
<g id="edge17" class="edge">
<title>Node13&#45;&gt;Node15</title>
<path fill="none" stroke="midnightblue" d="M1010.16,-56.32C1018.36,-48.42 1030.67,-36.55 1040.63,-26.94"/>
<polygon fill="midnightblue" stroke="midnightblue" points="1043.23,-29.29 1048,-19.83 1038.37,-24.26 1043.23,-29.29"/>
</g>
<!-- Node16 -->
<g id="node16" class="node">
<title>Node16</title>
<g id="a_node16"><a xlink:title=" ">
<polygon fill="none" stroke="#bfbfbf" points="1101.66,-0.5 1101.66,-19.5 1152.66,-19.5 1152.66,-0.5 1101.66,-0.5"/>
<text text-anchor="middle" x="1127.16" y="-7.5" font-family="Helvetica,sans-Serif" font-size="10.00">intrin.h</text>
</a>
</g>
</g>
<!-- Node13&#45;&gt;Node16 -->
<g id="edge18" class="edge">
<title>Node13&#45;&gt;Node16</title>
<path fill="none" stroke="midnightblue" d="M1021.13,-56.44C1041.77,-47.6 1074.22,-33.69 1097.79,-23.59"/>
<polygon fill="midnightblue" stroke="midnightblue" points="1099.48,-26.67 1107.29,-19.52 1096.72,-20.24 1099.48,-26.67"/>
</g>
<!-- Node18 -->
<g id="node18" class="node">
<title>Node18</title>
<g id="a_node18"><a xlink:href="../../d5/db7/preorder__iterator_8hpp.html" target="_top" xlink:title=" ">
<polygon fill="none" stroke="black" points="14.66,-112.5 14.66,-131.5 133.66,-131.5 133.66,-112.5 14.66,-112.5"/>
<text text-anchor="middle" x="74.16" y="-119.5" font-family="Helvetica,sans-Serif" font-size="10.00">preorder_iterator.hpp</text>
</a>
</g>
</g>
<!-- Node17&#45;&gt;Node18 -->
<g id="edge20" class="edge">
<title>Node17&#45;&gt;Node18</title>
<path fill="none" stroke="midnightblue" d="M290.44,-168.44C245.51,-159 173.16,-143.8 124.66,-133.61"/>
<polygon fill="midnightblue" stroke="midnightblue" points="125.2,-130.15 114.69,-131.52 123.76,-137 125.2,-130.15"/>
</g>
<!-- Node19 -->
<g id="node19" class="node">
<title>Node19</title>
<g id="a_node19"><a xlink:href="../../d1/d2d/vertex_8hpp.html" target="_top" xlink:title=" ">
<polygon fill="none" stroke="black" points="39.66,-56.5 39.66,-75.5 108.66,-75.5 108.66,-56.5 39.66,-56.5"/>
<text text-anchor="middle" x="74.16" y="-63.5" font-family="Helvetica,sans-Serif" font-size="10.00">vertex.hpp</text>
</a>
</g>
</g>
<!-- Node17&#45;&gt;Node19 -->
<g id="edge30" class="edge">
<title>Node17&#45;&gt;Node19</title>
<path fill="none" stroke="midnightblue" d="M277.52,-177.73C194.25,-177.59 39.84,-171.79 5.16,-132 -11.79,-112.55 17.89,-92.55 43.45,-79.96"/>
<polygon fill="midnightblue" stroke="midnightblue" points="45.02,-83.09 52.58,-75.68 42.04,-76.76 45.02,-83.09"/>
</g>
<!-- Node21 -->
<g id="node21" class="node">
<title>Node21</title>
<g id="a_node21"><a xlink:href="../../df/d24/postorder__iterator_8hpp.html" target="_top" xlink:title=" ">
<polygon fill="none" stroke="black" points="151.66,-112.5 151.66,-131.5 276.66,-131.5 276.66,-112.5 151.66,-112.5"/>
<text text-anchor="middle" x="214.16" y="-119.5" font-family="Helvetica,sans-Serif" font-size="10.00">postorder_iterator.hpp</text>
</a>
</g>
</g>
<!-- Node17&#45;&gt;Node21 -->
<g id="edge23" class="edge">
<title>Node17&#45;&gt;Node21</title>
<path fill="none" stroke="midnightblue" d="M312.62,-168.44C293.54,-159.64 263.59,-145.81 241.73,-135.72"/>
<polygon fill="midnightblue" stroke="midnightblue" points="243.16,-132.53 232.61,-131.52 240.23,-138.88 243.16,-132.53"/>
</g>
<!-- Node22 -->
<g id="node22" class="node">
<title>Node22</title>
<g id="a_node22"><a xlink:href="../../d9/dde/iterator_8hpp.html" target="_top" xlink:title=" ">
<polygon fill="none" stroke="black" points="294.66,-112.5 294.66,-131.5 367.66,-131.5 367.66,-112.5 294.66,-112.5"/>
<text text-anchor="middle" x="331.16" y="-119.5" font-family="Helvetica,sans-Serif" font-size="10.00">iterator.hpp</text>
</a>
</g>
</g>
<!-- Node17&#45;&gt;Node22 -->
<g id="edge26" class="edge">
<title>Node17&#45;&gt;Node22</title>
<path fill="none" stroke="midnightblue" d="M331.16,-168.08C331.16,-161.01 331.16,-150.86 331.16,-141.99"/>
<polygon fill="midnightblue" stroke="midnightblue" points="334.66,-141.75 331.16,-131.75 327.66,-141.75 334.66,-141.75"/>
</g>
<!-- Node23 -->
<g id="node23" class="node">
<title>Node23</title>
<g id="a_node23"><a xlink:href="../../d7/d8f/partimator_8hpp.html" target="_top" xlink:title=" ">
<polygon fill="none" stroke="black" points="385.66,-112.5 385.66,-131.5 474.66,-131.5 474.66,-112.5 385.66,-112.5"/>
<text text-anchor="middle" x="430.16" y="-119.5" font-family="Helvetica,sans-Serif" font-size="10.00">partimator.hpp</text>
</a>
</g>
</g>
<!-- Node17&#45;&gt;Node23 -->
<g id="edge28" class="edge">
<title>Node17&#45;&gt;Node23</title>
<path fill="none" stroke="midnightblue" d="M347.07,-168.32C362.8,-159.74 387.1,-146.49 405.37,-136.52"/>
<polygon fill="midnightblue" stroke="midnightblue" points="407.19,-139.52 414.29,-131.65 403.84,-133.37 407.19,-139.52"/>
</g>
<!-- Node24 -->
<g id="node24" class="node">
<title>Node24</title>
<g id="a_node24"><a xlink:title=" ">
<polygon fill="none" stroke="#bfbfbf" points="493.16,-112.5 493.16,-131.5 531.16,-131.5 531.16,-112.5 493.16,-112.5"/>
<text text-anchor="middle" x="512.16" y="-119.5" font-family="Helvetica,sans-Serif" font-size="10.00">map</text>
</a>
</g>
</g>
<!-- Node17&#45;&gt;Node24 -->
<g id="edge31" class="edge">
<title>Node17&#45;&gt;Node24</title>
<path fill="none" stroke="midnightblue" d="M360.33,-168.49C390.96,-159.52 440.49,-144.94 483.16,-132 483.26,-131.97 483.36,-131.94 483.46,-131.91"/>
<polygon fill="midnightblue" stroke="midnightblue" points="484.61,-135.22 493.14,-128.94 482.55,-128.53 484.61,-135.22"/>
</g>
<!-- Node18&#45;&gt;Node19 -->
<g id="edge21" class="edge">
<title>Node18&#45;&gt;Node19</title>
<path fill="none" stroke="midnightblue" d="M74.16,-112.08C74.16,-105.01 74.16,-94.86 74.16,-85.99"/>
<polygon fill="midnightblue" stroke="midnightblue" points="77.66,-85.75 74.16,-75.75 70.66,-85.75 77.66,-85.75"/>
</g>
<!-- Node20 -->
<g id="node20" class="node">
<title>Node20</title>
<g id="a_node20"><a xlink:title=" ">
<polygon fill="none" stroke="#bfbfbf" points="245.66,-56.5 245.66,-75.5 298.66,-75.5 298.66,-56.5 245.66,-56.5"/>
<text text-anchor="middle" x="272.16" y="-63.5" font-family="Helvetica,sans-Serif" font-size="10.00">iterator</text>
</a>
</g>
</g>
<!-- Node18&#45;&gt;Node20 -->
<g id="edge22" class="edge">
<title>Node18&#45;&gt;Node20</title>
<path fill="none" stroke="midnightblue" d="M105.53,-112.44C140.82,-102.82 198.06,-87.21 235.41,-77.02"/>
<polygon fill="midnightblue" stroke="midnightblue" points="236.65,-80.31 245.38,-74.3 234.81,-73.56 236.65,-80.31"/>
</g>
<!-- Node21&#45;&gt;Node19 -->
<g id="edge24" class="edge">
<title>Node21&#45;&gt;Node19</title>
<path fill="none" stroke="midnightblue" d="M191.98,-112.44C168.73,-103.48 132.01,-89.31 105.75,-79.18"/>
<polygon fill="midnightblue" stroke="midnightblue" points="106.83,-75.85 96.24,-75.52 104.31,-82.38 106.83,-75.85"/>
</g>
<!-- Node21&#45;&gt;Node20 -->
<g id="edge25" class="edge">
<title>Node21&#45;&gt;Node20</title>
<path fill="none" stroke="midnightblue" d="M223.48,-112.32C232.05,-104.34 244.97,-92.31 255.35,-82.65"/>
<polygon fill="midnightblue" stroke="midnightblue" points="257.74,-85.21 262.67,-75.83 252.97,-80.09 257.74,-85.21"/>
</g>
<!-- Node22&#45;&gt;Node20 -->
<g id="edge27" class="edge">
<title>Node22&#45;&gt;Node20</title>
<path fill="none" stroke="midnightblue" d="M321.68,-112.32C312.96,-104.34 299.82,-92.31 289.26,-82.65"/>
<polygon fill="midnightblue" stroke="midnightblue" points="291.55,-80 281.81,-75.83 286.83,-85.17 291.55,-80"/>
</g>
<!-- Node23&#45;&gt;Node20 -->
<g id="edge29" class="edge">
<title>Node23&#45;&gt;Node20</title>
<path fill="none" stroke="midnightblue" d="M405.13,-112.44C378.55,-103.36 336.35,-88.94 306.64,-78.78"/>
<polygon fill="midnightblue" stroke="midnightblue" points="307.67,-75.44 297.08,-75.52 305.41,-82.06 307.67,-75.44"/>
</g>
<!-- Node26 -->
<g id="node26" class="node">
<title>Node26</title>
<g id="a_node26"><a xlink:href="../../d0/d34/prefix_8hpp.html" target="_top" xlink:title=" ">
<polygon fill="none" stroke="black" points="580.66,-112.5 580.66,-131.5 645.66,-131.5 645.66,-112.5 580.66,-112.5"/>
<text text-anchor="middle" x="613.16" y="-119.5" font-family="Helvetica,sans-Serif" font-size="10.00">prefix.hpp</text>
</a>
</g>
</g>
<!-- Node25&#45;&gt;Node26 -->
<g id="edge33" class="edge">
<title>Node25&#45;&gt;Node26</title>
<path fill="none" stroke="midnightblue" d="M613.16,-168.08C613.16,-161.01 613.16,-150.86 613.16,-141.99"/>
<polygon fill="midnightblue" stroke="midnightblue" points="616.66,-141.75 613.16,-131.75 609.66,-141.75 616.66,-141.75"/>
</g>
<!-- Node27&#45;&gt;Node13 -->
<g id="edge37" class="edge">
<title>Node27&#45;&gt;Node13</title>
<path fill="none" stroke="midnightblue" d="M1044.77,-168.24C1039.4,-159.32 1031.13,-145 1025.16,-132 1018.1,-116.63 1011.56,-98.53 1007.09,-85.34"/>
<polygon fill="midnightblue" stroke="midnightblue" points="1010.33,-83.98 1003.86,-75.58 1003.68,-86.18 1010.33,-83.98"/>
</g>
<!-- Node28 -->
<g id="node28" class="node">
<title>Node28</title>
<g id="a_node28"><a xlink:title=" ">
<polygon fill="none" stroke="#bfbfbf" points="1034.16,-112.5 1034.16,-131.5 1078.16,-131.5 1078.16,-112.5 1034.16,-112.5"/>
<text text-anchor="middle" x="1056.16" y="-119.5" font-family="Helvetica,sans-Serif" font-size="10.00">string</text>
</a>
</g>
</g>
<!-- Node27&#45;&gt;Node28 -->
<g id="edge35" class="edge">
<title>Node27&#45;&gt;Node28</title>
<path fill="none" stroke="midnightblue" d="M1051.15,-168.08C1051.95,-160.93 1053.09,-150.64 1054.08,-141.69"/>
<polygon fill="midnightblue" stroke="midnightblue" points="1057.56,-142.08 1055.19,-131.75 1050.61,-141.3 1057.56,-142.08"/>
</g>
<!-- Node29 -->
<g id="node29" class="node">
<title>Node29</title>
<g id="a_node29"><a xlink:title=" ">
<polygon fill="none" stroke="#bfbfbf" points="788.66,-112.5 788.66,-131.5 835.66,-131.5 835.66,-112.5 788.66,-112.5"/>
<text text-anchor="middle" x="812.16" y="-119.5" font-family="Helvetica,sans-Serif" font-size="10.00">vector</text>
</a>
</g>
</g>
<!-- Node27&#45;&gt;Node29 -->
<g id="edge36" class="edge">
<title>Node27&#45;&gt;Node29</title>
<path fill="none" stroke="midnightblue" d="M1012.45,-168.44C966.58,-158.04 889.85,-140.63 845.87,-130.65"/>
<polygon fill="midnightblue" stroke="midnightblue" points="846.48,-127.2 835.96,-128.4 844.93,-134.02 846.48,-127.2"/>
</g>
<!-- Node31 -->
<g id="node31" class="node">
<title>Node31</title>
<g id="a_node31"><a xlink:href="../../d0/d40/partial__base_8hpp.html" target="_top" xlink:title=" ">
<polygon fill="none" stroke="black" points="427.16,-168.5 427.16,-187.5 549.16,-187.5 549.16,-168.5 427.16,-168.5"/>
<text text-anchor="middle" x="488.16" y="-175.5" font-family="Helvetica,sans-Serif" font-size="10.00">impl/partial_base.hpp</text>
</a>
</g>
</g>
<!-- Node30&#45;&gt;Node31 -->
<g id="edge39" class="edge">
<title>Node30&#45;&gt;Node31</title>
<path fill="none" stroke="midnightblue" d="M551.97,-285.82C540.69,-266.92 513.7,-221.75 498.69,-196.62"/>
<polygon fill="midnightblue" stroke="midnightblue" points="501.54,-194.57 493.41,-187.78 495.53,-198.16 501.54,-194.57"/>
</g>
<!-- Node31&#45;&gt;Node7 -->
<g id="edge42" class="edge">
<title>Node31&#45;&gt;Node7</title>
<path fill="none" stroke="midnightblue" d="M527.77,-168.44C573.7,-158.52 649.07,-142.24 696.03,-132.1"/>
<polygon fill="midnightblue" stroke="midnightblue" points="696.85,-135.5 705.89,-129.97 695.37,-128.66 696.85,-135.5"/>
</g>
<!-- Node31&#45;&gt;Node24 -->
<g id="edge41" class="edge">
<title>Node31&#45;&gt;Node24</title>
<path fill="none" stroke="midnightblue" d="M492.12,-168.08C495.37,-160.77 500.08,-150.18 504.12,-141.1"/>
<polygon fill="midnightblue" stroke="midnightblue" points="507.41,-142.31 508.27,-131.75 501.01,-139.47 507.41,-142.31"/>
</g>
<!-- Node31&#45;&gt;Node29 -->
<g id="edge40" class="edge">
<title>Node31&#45;&gt;Node29</title>
<path fill="none" stroke="midnightblue" d="M548.65,-168.47C616.38,-158.78 722.93,-143.09 778.65,-131.86"/>
<polygon fill="midnightblue" stroke="midnightblue" points="779.37,-135.28 788.45,-129.81 777.94,-128.43 779.37,-135.28"/>
</g>
</g>
</svg>
        <g id="navigator" transform="translate(0 0)" fill="#404254">
                <rect fill="#f2f5e9" fill-opacity="0.5" stroke="#606060" stroke-width=".5" x="0" y="0" width="60" height="60"/>
                <use id="zoomplus" xlink:href="#zoomPlus" x="17" y="9" onmousedown="handleZoom(evt,'in')"/>
                <use id="zoomminus" xlink:href="#zoomMin" x="42" y="9" onmousedown="handleZoom(evt,'out')"/>
                <use id="reset" xlink:href="#resetDef" x="30" y="36" onmousedown="handleReset()"/>
                <g id="arrowUp" xlink:href="#dirArrow" transform="translate(30 24)" onmousedown="handlePan(0,-1)">
                  <use xlink:href="#rim" fill="#404040">
                        <set attributeName="fill" to="#808080" begin="arrowUp.mouseover" end="arrowUp.mouseout"/>
                  </use>
                  <path fill="none" stroke="white" stroke-width="1.5" d="M0,-3.0v7 M-2.5,-0.5L0,-3.0L2.5,-0.5"/>
                </g>
                <g id="arrowRight" xlink:href="#dirArrow" transform="rotate(90) translate(36 -43)" onmousedown="handlePan(1,0)">
                  <use xlink:href="#rim" fill="#404040">
                        <set attributeName="fill" to="#808080" begin="arrowRight.mouseover" end="arrowRight.mouseout"/>
                  </use>
                  <path fill="none" stroke="white" stroke-width="1.5" d="M0,-3.0v7 M-2.5,-0.5L0,-3.0L2.5,-0.5"/>
                </g>
                <g id="arrowDown" xlink:href="#dirArrow" transform="rotate(180) translate(-30 -48)" onmousedown="handlePan(0,1)">
                  <use xlink:href="#rim" fill="#404040">
                        <set attributeName="fill" to="#808080" begin="arrowDown.mouseover" end="arrowDown.mouseout"/>
                  </use>
                  <path fill="none" stroke="white" stroke-width="1.5" d="M0,-3.0v7 M-2.5,-0.5L0,-3.0L2.5,-0.5"/>
                </g>
                <g id="arrowLeft" xlink:href="#dirArrow" transform="rotate(270) translate(-36 17)" onmousedown="handlePan(-1,0)">
                  <use xlink:href="#rim" fill="#404040">
                        <set attributeName="fill" to="#808080" begin="arrowLeft.mouseover" end="arrowLeft.mouseout"/>
                  </use>
                  <path fill="none" stroke="white" stroke-width="1.5" d="M0,-3.0v7 M-2.5,-0.5L0,-3.0L2.5,-0.5"/>
                </g>
        </g>
        <svg viewBox="0 0 15 15" width="100%" height="30px" preserveAspectRatio="xMaxYMin meet">
         <g id="arrow_out" transform="scale(0.3 0.3)">
          <a xlink:href="levenshtein_8cpp__incl_org.svg" target="_base">
           <rect id="button" ry="5" rx="5" y="6" x="6" height="38" width="38"
                fill="#f2f5e9" fill-opacity="0.5" stroke="#606060" stroke-width="1.0"/>
           <path id="arrow"
             d="M 11.500037,31.436501 C 11.940474,20.09759 22.043105,11.32322 32.158766,21.979434 L 37.068811,17.246167 C 37.068811,17.246167 37.088388,32 37.088388,32 L 22.160133,31.978069 C 22.160133,31.978069 26.997745,27.140456 26.997745,27.140456 C 18.528582,18.264221 13.291696,25.230495 11.500037,31.436501 z"
             style="fill:#404040;"/>
          </a>
         </g>
        </svg>
</svg>
