<?xml version="1.0" encoding="UTF-8" standalone="no"?>
<!DOCTYPE svg PUBLIC "-//W3C//DTD SVG 1.1//EN"
 "http://www.w3.org/Graphics/SVG/1.1/DTD/svg11.dtd">
<!-- Generated by graphviz version 5.0.1 (20220820.1526)
 -->
<!-- Title: uxn/demos/multi_search/multi_search.cpp Pages: 1 -->
<svg width="1307pt" height="397pt"
 viewBox="0.00 0.00 1306.50 397.00" xmlns="http://www.w3.org/2000/svg" xmlns:xlink="http://www.w3.org/1999/xlink">
<g id="graph0" class="graph" transform="scale(1 1) rotate(0) translate(4 393)">
<title>uxn/demos/multi_search/multi_search.cpp</title>
<!-- Node1 -->
<g id="node1" class="node">
<title>Node1</title>
<g id="a_node1"><a xlink:title=" ">
<polygon fill="#bfbfbf" stroke="black" points="244.5,-358.5 244.5,-388.5 381.5,-388.5 381.5,-358.5 244.5,-358.5"/>
<text text-anchor="start" x="252.5" y="-376.5" font-family="Helvetica,sans-Serif" font-size="10.00">uxn/demos/multi_search</text>
<text text-anchor="middle" x="313" y="-365.5" font-family="Helvetica,sans-Serif" font-size="10.00">/multi_search.cpp</text>
</a>
</g>
</g>
<!-- Node2 -->
<g id="node2" class="node">
<title>Node2</title>
<g id="a_node2"><a xlink:title=" ">
<polygon fill="none" stroke="#bfbfbf" points="354,-112.5 354,-131.5 418,-131.5 418,-112.5 354,-112.5"/>
<text text-anchor="middle" x="386" y="-119.5" font-family="Helvetica,sans-Serif" font-size="10.00">algorithm</text>
</a>
</g>
</g>
<!-- Node1&#45;&gt;Node2 -->
<g id="edge1" class="edge">
<title>Node1&#45;&gt;Node2</title>
<path fill="none" stroke="midnightblue" d="M320.45,-358.45C331.59,-336.83 352.53,-293.81 364,-255 375.65,-215.58 381.7,-167.61 384.33,-141.73"/>
<polygon fill="midnightblue" stroke="midnightblue" points="387.84,-141.79 385.31,-131.5 380.87,-141.12 387.84,-141.79"/>
</g>
<!-- Node3 -->
<g id="node3" class="node">
<title>Node3</title>
<g id="a_node3"><a xlink:title=" ">
<polygon fill="none" stroke="#bfbfbf" points="252.5,-168.5 252.5,-187.5 299.5,-187.5 299.5,-168.5 252.5,-168.5"/>
<text text-anchor="middle" x="276" y="-175.5" font-family="Helvetica,sans-Serif" font-size="10.00">vector</text>
</a>
</g>
</g>
<!-- Node1&#45;&gt;Node3 -->
<g id="edge2" class="edge">
<title>Node1&#45;&gt;Node3</title>
<path fill="none" stroke="midnightblue" d="M304.54,-358.3C292.29,-336.83 270.18,-294.41 262,-255 257.92,-235.36 263.38,-212.74 268.63,-197.32"/>
<polygon fill="midnightblue" stroke="midnightblue" points="271.92,-198.51 272.11,-187.92 265.36,-196.08 271.92,-198.51"/>
</g>
<!-- Node4 -->
<g id="node4" class="node">
<title>Node4</title>
<g id="a_node4"><a xlink:href="../../d9/df1/file__utils_8hpp.html" target="_top" xlink:title=" ">
<polygon fill="none" stroke="black" points="113.5,-224.5 113.5,-254.5 214.5,-254.5 214.5,-224.5 113.5,-224.5"/>
<text text-anchor="start" x="121.5" y="-242.5" font-family="Helvetica,sans-Serif" font-size="10.00">uxn/patl/aux_/file</text>
<text text-anchor="middle" x="164" y="-231.5" font-family="Helvetica,sans-Serif" font-size="10.00">_utils.hpp</text>
</a>
</g>
</g>
<!-- Node1&#45;&gt;Node4 -->
<g id="edge3" class="edge">
<title>Node1&#45;&gt;Node4</title>
<path fill="none" stroke="midnightblue" d="M284.08,-358.44C267.04,-349.37 245.64,-336.58 229,-322 209.18,-304.63 190.87,-280.65 178.78,-263.2"/>
<polygon fill="midnightblue" stroke="midnightblue" points="181.55,-261.06 173.04,-254.74 175.75,-264.98 181.55,-261.06"/>
</g>
<!-- Node8 -->
<g id="node8" class="node">
<title>Node8</title>
<g id="a_node8"><a xlink:href="../../df/dee/file__mapping__io_8hpp.html" target="_top" xlink:title=" ">
<polygon fill="none" stroke="black" points="34.5,-291.5 34.5,-321.5 135.5,-321.5 135.5,-291.5 34.5,-291.5"/>
<text text-anchor="start" x="42.5" y="-309.5" font-family="Helvetica,sans-Serif" font-size="10.00">uxn/patl/aux_/file</text>
<text text-anchor="middle" x="85" y="-298.5" font-family="Helvetica,sans-Serif" font-size="10.00">_mapping_io.hpp</text>
</a>
</g>
</g>
<!-- Node1&#45;&gt;Node8 -->
<g id="edge8" class="edge">
<title>Node1&#45;&gt;Node8</title>
<path fill="none" stroke="midnightblue" d="M263.81,-358.48C228.72,-348.47 181.36,-334.97 144.2,-324.38"/>
<polygon fill="midnightblue" stroke="midnightblue" points="145.07,-320.99 134.5,-321.61 143.15,-327.72 145.07,-320.99"/>
</g>
<!-- Node13 -->
<g id="node13" class="node">
<title>Node13</title>
<g id="a_node13"><a xlink:href="../../d4/dc0/suffix__set_8hpp.html" target="_top" xlink:title=" ">
<polygon fill="none" stroke="black" points="411,-297 411,-316 539,-316 539,-297 411,-297"/>
<text text-anchor="middle" x="475" y="-304" font-family="Helvetica,sans-Serif" font-size="10.00">uxn/patl/suffix_set.hpp</text>
</a>
</g>
</g>
<!-- Node1&#45;&gt;Node13 -->
<g id="edge17" class="edge">
<title>Node1&#45;&gt;Node13</title>
<path fill="none" stroke="midnightblue" d="M348.15,-358.4C376.83,-346.89 416.94,-330.8 444.33,-319.81"/>
<polygon fill="midnightblue" stroke="midnightblue" points="445.82,-322.98 453.8,-316.01 443.21,-316.48 445.82,-322.98"/>
</g>
<!-- Node30 -->
<g id="node30" class="node">
<title>Node30</title>
<g id="a_node30"><a xlink:href="../../d9/df3/perf__timer_8hpp.html" target="_top" xlink:title=" ">
<polygon fill="none" stroke="black" points="583.5,-291.5 583.5,-321.5 688.5,-321.5 688.5,-291.5 583.5,-291.5"/>
<text text-anchor="start" x="591.5" y="-309.5" font-family="Helvetica,sans-Serif" font-size="10.00">uxn/patl/aux_/perf</text>
<text text-anchor="middle" x="636" y="-298.5" font-family="Helvetica,sans-Serif" font-size="10.00">_timer.hpp</text>
</a>
</g>
</g>
<!-- Node1&#45;&gt;Node30 -->
<g id="edge47" class="edge">
<title>Node1&#45;&gt;Node30</title>
<path fill="none" stroke="midnightblue" d="M381.9,-358.64C438.67,-347.21 518.5,-331.14 573.46,-320.09"/>
<polygon fill="midnightblue" stroke="midnightblue" points="574.31,-323.49 583.42,-318.08 572.93,-316.62 574.31,-323.49"/>
</g>
<!-- Node4&#45;&gt;Node3 -->
<g id="edge6" class="edge">
<title>Node4&#45;&gt;Node3</title>
<path fill="none" stroke="midnightblue" d="M190.54,-224.4C208.66,-214.77 232.54,-202.09 250.44,-192.58"/>
<polygon fill="midnightblue" stroke="midnightblue" points="252.51,-195.44 259.7,-187.66 249.23,-189.26 252.51,-195.44"/>
</g>
<!-- Node5 -->
<g id="node5" class="node">
<title>Node5</title>
<g id="a_node5"><a xlink:href="../../d8/dfd/config_8hpp.html" target="_top" xlink:title=" ">
<polygon fill="none" stroke="black" points="378,-0.5 378,-19.5 454,-19.5 454,-0.5 378,-0.5"/>
<text text-anchor="middle" x="416" y="-7.5" font-family="Helvetica,sans-Serif" font-size="10.00">../config.hpp</text>
</a>
</g>
</g>
<!-- Node4&#45;&gt;Node5 -->
<g id="edge4" class="edge">
<title>Node4&#45;&gt;Node5</title>
<path fill="none" stroke="midnightblue" d="M164.43,-224.29C165.53,-209.1 169.18,-184.93 181,-168 232.96,-93.53 332.61,-44.68 383.84,-23.33"/>
<polygon fill="midnightblue" stroke="midnightblue" points="385.18,-26.56 393.12,-19.54 382.54,-20.08 385.18,-26.56"/>
</g>
<!-- Node6 -->
<g id="node6" class="node">
<title>Node6</title>
<g id="a_node6"><a xlink:title=" ">
<polygon fill="none" stroke="#bfbfbf" points="190,-168.5 190,-187.5 234,-187.5 234,-168.5 190,-168.5"/>
<text text-anchor="middle" x="212" y="-175.5" font-family="Helvetica,sans-Serif" font-size="10.00">string</text>
</a>
</g>
</g>
<!-- Node4&#45;&gt;Node6 -->
<g id="edge5" class="edge">
<title>Node4&#45;&gt;Node6</title>
<path fill="none" stroke="midnightblue" d="M175.38,-224.4C182.35,-215.75 191.31,-204.64 198.63,-195.58"/>
<polygon fill="midnightblue" stroke="midnightblue" points="201.46,-197.64 205.02,-187.66 196.01,-193.24 201.46,-197.64"/>
</g>
<!-- Node7 -->
<g id="node7" class="node">
<title>Node7</title>
<g id="a_node7"><a xlink:title=" ">
<polygon fill="none" stroke="#bfbfbf" points="66,-168.5 66,-187.5 134,-187.5 134,-168.5 66,-168.5"/>
<text text-anchor="middle" x="100" y="-175.5" font-family="Helvetica,sans-Serif" font-size="10.00">windows.h</text>
</a>
</g>
</g>
<!-- Node4&#45;&gt;Node7 -->
<g id="edge7" class="edge">
<title>Node4&#45;&gt;Node7</title>
<path fill="none" stroke="midnightblue" d="M148.83,-224.4C139.25,-215.49 126.84,-203.95 116.93,-194.74"/>
<polygon fill="midnightblue" stroke="midnightblue" points="119.02,-191.9 109.31,-187.66 114.25,-197.03 119.02,-191.9"/>
</g>
<!-- Node8&#45;&gt;Node4 -->
<g id="edge15" class="edge">
<title>Node8&#45;&gt;Node4</title>
<path fill="none" stroke="midnightblue" d="M102.14,-291.4C112.91,-282.54 126.98,-270.96 138.98,-261.09"/>
<polygon fill="midnightblue" stroke="midnightblue" points="141.39,-263.63 146.89,-254.58 136.95,-258.23 141.39,-263.63"/>
</g>
<!-- Node8&#45;&gt;Node5 -->
<g id="edge9" class="edge">
<title>Node8&#45;&gt;Node5</title>
<path fill="none" stroke="midnightblue" d="M66.97,-291.27C42.02,-269.82 0,-226.63 0,-179 0,-179 0,-179 0,-121 0,-45.64 258.35,-20.74 367.86,-13.57"/>
<polygon fill="midnightblue" stroke="midnightblue" points="368.22,-17.06 377.98,-12.93 367.78,-10.07 368.22,-17.06"/>
</g>
<!-- Node8&#45;&gt;Node7 -->
<g id="edge16" class="edge">
<title>Node8&#45;&gt;Node7</title>
<path fill="none" stroke="midnightblue" d="M86.66,-291.48C89.36,-268.72 94.7,-223.7 97.74,-198.06"/>
<polygon fill="midnightblue" stroke="midnightblue" points="101.26,-198.13 98.96,-187.79 94.3,-197.31 101.26,-198.13"/>
</g>
<!-- Node9 -->
<g id="node9" class="node">
<title>Node9</title>
<g id="a_node9"><a xlink:href="../../d9/d3a/trivial_8hpp.html" target="_top" xlink:title=" ">
<polygon fill="none" stroke="black" points="504,-56.5 504,-75.5 604,-75.5 604,-56.5 504,-56.5"/>
<text text-anchor="middle" x="554" y="-63.5" font-family="Helvetica,sans-Serif" font-size="10.00">../impl/trivial.hpp</text>
</a>
</g>
</g>
<!-- Node8&#45;&gt;Node9 -->
<g id="edge10" class="edge">
<title>Node8&#45;&gt;Node9</title>
<path fill="none" stroke="midnightblue" d="M75.36,-291.24C58.31,-264.1 27.32,-204.47 57,-168 111.41,-101.15 373.31,-77.48 493.49,-70.04"/>
<polygon fill="midnightblue" stroke="midnightblue" points="493.86,-73.52 503.63,-69.43 493.44,-66.54 493.86,-73.52"/>
</g>
<!-- Node9&#45;&gt;Node5 -->
<g id="edge11" class="edge">
<title>Node9&#45;&gt;Node5</title>
<path fill="none" stroke="midnightblue" d="M532.13,-56.44C509.22,-47.48 473.02,-33.31 447.13,-23.18"/>
<polygon fill="midnightblue" stroke="midnightblue" points="448.35,-19.9 437.76,-19.52 445.8,-26.42 448.35,-19.9"/>
</g>
<!-- Node10 -->
<g id="node10" class="node">
<title>Node10</title>
<g id="a_node10"><a xlink:title=" ">
<polygon fill="none" stroke="#bfbfbf" points="541.5,-0.5 541.5,-19.5 610.5,-19.5 610.5,-0.5 541.5,-0.5"/>
<text text-anchor="middle" x="576" y="-7.5" font-family="Helvetica,sans-Serif" font-size="10.00">type_traits</text>
</a>
</g>
</g>
<!-- Node9&#45;&gt;Node10 -->
<g id="edge12" class="edge">
<title>Node9&#45;&gt;Node10</title>
<path fill="none" stroke="midnightblue" d="M557.63,-56.08C560.61,-48.77 564.93,-38.18 568.62,-29.1"/>
<polygon fill="midnightblue" stroke="midnightblue" points="571.9,-30.33 572.43,-19.75 565.42,-27.69 571.9,-30.33"/>
</g>
<!-- Node11 -->
<g id="node11" class="node">
<title>Node11</title>
<g id="a_node11"><a xlink:title=" ">
<polygon fill="none" stroke="#bfbfbf" points="629,-0.5 629,-19.5 681,-19.5 681,-0.5 629,-0.5"/>
<text text-anchor="middle" x="655" y="-7.5" font-family="Helvetica,sans-Serif" font-size="10.00">cassert</text>
</a>
</g>
</g>
<!-- Node9&#45;&gt;Node11 -->
<g id="edge13" class="edge">
<title>Node9&#45;&gt;Node11</title>
<path fill="none" stroke="midnightblue" d="M570.23,-56.32C586.35,-47.7 611.3,-34.36 629.96,-24.39"/>
<polygon fill="midnightblue" stroke="midnightblue" points="631.64,-27.46 638.81,-19.65 628.34,-21.28 631.64,-27.46"/>
</g>
<!-- Node12 -->
<g id="node12" class="node">
<title>Node12</title>
<g id="a_node12"><a xlink:title=" ">
<polygon fill="none" stroke="#bfbfbf" points="472.5,-0.5 472.5,-19.5 523.5,-19.5 523.5,-0.5 472.5,-0.5"/>
<text text-anchor="middle" x="498" y="-7.5" font-family="Helvetica,sans-Serif" font-size="10.00">intrin.h</text>
</a>
</g>
</g>
<!-- Node9&#45;&gt;Node12 -->
<g id="edge14" class="edge">
<title>Node9&#45;&gt;Node12</title>
<path fill="none" stroke="midnightblue" d="M545,-56.32C536.81,-48.42 524.49,-36.55 514.53,-26.94"/>
<polygon fill="midnightblue" stroke="midnightblue" points="516.79,-24.26 507.16,-19.83 511.93,-29.29 516.79,-24.26"/>
</g>
<!-- Node14 -->
<g id="node14" class="node">
<title>Node14</title>
<g id="a_node14"><a xlink:href="../../d5/dfc/suffix__generic_8hpp.html" target="_top" xlink:title=" ">
<polygon fill="none" stroke="black" points="523.5,-230 523.5,-249 654.5,-249 654.5,-230 523.5,-230"/>
<text text-anchor="middle" x="589" y="-237" font-family="Helvetica,sans-Serif" font-size="10.00">impl/suffix_generic.hpp</text>
</a>
</g>
</g>
<!-- Node13&#45;&gt;Node14 -->
<g id="edge18" class="edge">
<title>Node13&#45;&gt;Node14</title>
<path fill="none" stroke="midnightblue" d="M490.37,-296.73C509.52,-285.82 542.44,-267.05 564.94,-254.22"/>
<polygon fill="midnightblue" stroke="midnightblue" points="566.92,-257.12 573.87,-249.13 563.45,-251.04 566.92,-257.12"/>
</g>
<!-- Node29 -->
<g id="node29" class="node">
<title>Node29</title>
<g id="a_node29"><a xlink:href="../../d1/dff/bit__comp_8hpp.html" target="_top" xlink:title=" ">
<polygon fill="none" stroke="black" points="271.5,-230 271.5,-249 354.5,-249 354.5,-230 271.5,-230"/>
<text text-anchor="middle" x="313" y="-237" font-family="Helvetica,sans-Serif" font-size="10.00">bit_comp.hpp</text>
</a>
</g>
</g>
<!-- Node13&#45;&gt;Node29 -->
<g id="edge43" class="edge">
<title>Node13&#45;&gt;Node29</title>
<path fill="none" stroke="midnightblue" d="M453.49,-296.87C425.33,-285.57 375.8,-265.7 343.7,-252.82"/>
<polygon fill="midnightblue" stroke="midnightblue" points="344.93,-249.54 334.34,-249.06 342.32,-256.04 344.93,-249.54"/>
</g>
<!-- Node15 -->
<g id="node15" class="node">
<title>Node15</title>
<g id="a_node15"><a xlink:title=" ">
<polygon fill="none" stroke="#bfbfbf" points="768.5,-56.5 768.5,-75.5 821.5,-75.5 821.5,-56.5 768.5,-56.5"/>
<text text-anchor="middle" x="795" y="-63.5" font-family="Helvetica,sans-Serif" font-size="10.00">iterator</text>
</a>
</g>
</g>
<!-- Node14&#45;&gt;Node15 -->
<g id="edge19" class="edge">
<title>Node14&#45;&gt;Node15</title>
<path fill="none" stroke="midnightblue" d="M593.06,-229.75C606.05,-201.79 646.03,-116.26 651,-112 681.28,-86.03 726.49,-75.03 758.15,-70.39"/>
<polygon fill="midnightblue" stroke="midnightblue" points="758.88,-73.82 768.33,-69.04 757.96,-66.88 758.88,-73.82"/>
</g>
<!-- Node16 -->
<g id="node16" class="node">
<title>Node16</title>
<g id="a_node16"><a xlink:href="../../d3/d09/node_8hpp.html" target="_top" xlink:title=" ">
<polygon fill="none" stroke="black" points="411,-168.5 411,-187.5 473,-187.5 473,-168.5 411,-168.5"/>
<text text-anchor="middle" x="442" y="-175.5" font-family="Helvetica,sans-Serif" font-size="10.00">node.hpp</text>
</a>
</g>
</g>
<!-- Node14&#45;&gt;Node16 -->
<g id="edge20" class="edge">
<title>Node14&#45;&gt;Node16</title>
<path fill="none" stroke="midnightblue" d="M567.94,-229.98C542.94,-219.86 501.06,-202.9 472.51,-191.35"/>
<polygon fill="midnightblue" stroke="midnightblue" points="473.61,-188.02 463.02,-187.51 470.98,-194.51 473.61,-188.02"/>
</g>
<!-- Node17 -->
<g id="node17" class="node">
<title>Node17</title>
<g id="a_node17"><a xlink:href="../../d0/dd1/core__algorithm_8hpp.html" target="_top" xlink:title=" ">
<polygon fill="none" stroke="black" points="491.5,-168.5 491.5,-187.5 602.5,-187.5 602.5,-168.5 491.5,-168.5"/>
<text text-anchor="middle" x="547" y="-175.5" font-family="Helvetica,sans-Serif" font-size="10.00">core_algorithm.hpp</text>
</a>
</g>
</g>
<!-- Node14&#45;&gt;Node17 -->
<g id="edge23" class="edge">
<title>Node14&#45;&gt;Node17</title>
<path fill="none" stroke="midnightblue" d="M582.98,-229.98C576.74,-221.14 566.83,-207.09 558.98,-195.98"/>
<polygon fill="midnightblue" stroke="midnightblue" points="561.63,-193.66 553.01,-187.51 555.91,-197.7 561.63,-193.66"/>
</g>
<!-- Node19 -->
<g id="node19" class="node">
<title>Node19</title>
<g id="a_node19"><a xlink:href="../../d3/dcf/ring__buffer_8hpp.html" target="_top" xlink:title=" ">
<polygon fill="none" stroke="black" points="929.5,-168.5 929.5,-187.5 1018.5,-187.5 1018.5,-168.5 929.5,-168.5"/>
<text text-anchor="middle" x="974" y="-175.5" font-family="Helvetica,sans-Serif" font-size="10.00">ring_buffer.hpp</text>
</a>
</g>
</g>
<!-- Node14&#45;&gt;Node19 -->
<g id="edge27" class="edge">
<title>Node14&#45;&gt;Node19</title>
<path fill="none" stroke="midnightblue" d="M630.98,-229.99C641.72,-227.92 653.27,-225.79 664,-224 774.55,-205.58 805.3,-205.64 919.3,-188.22"/>
<polygon fill="midnightblue" stroke="midnightblue" points="920.13,-191.64 929.48,-186.66 919.07,-184.72 920.13,-191.64"/>
</g>
<!-- Node20 -->
<g id="node20" class="node">
<title>Node20</title>
<g id="a_node20"><a xlink:href="../../de/d50/assoc__generic_8hpp.html" target="_top" xlink:title=" ">
<polygon fill="none" stroke="black" points="804.5,-168.5 804.5,-187.5 911.5,-187.5 911.5,-168.5 804.5,-168.5"/>
<text text-anchor="middle" x="858" y="-175.5" font-family="Helvetica,sans-Serif" font-size="10.00">assoc_generic.hpp</text>
</a>
</g>
</g>
<!-- Node14&#45;&gt;Node20 -->
<g id="edge28" class="edge">
<title>Node14&#45;&gt;Node20</title>
<path fill="none" stroke="midnightblue" d="M627.54,-229.98C675.48,-219.37 757.36,-201.26 809.51,-189.72"/>
<polygon fill="midnightblue" stroke="midnightblue" points="810.52,-193.09 819.53,-187.51 809.01,-186.25 810.52,-193.09"/>
</g>
<!-- Node27 -->
<g id="node27" class="node">
<title>Node27</title>
<g id="a_node27"><a xlink:href="../../d7/dd8/core__prefix_8hpp.html" target="_top" xlink:title=" ">
<polygon fill="none" stroke="black" points="1097,-168.5 1097,-187.5 1189,-187.5 1189,-168.5 1097,-168.5"/>
<text text-anchor="middle" x="1143" y="-175.5" font-family="Helvetica,sans-Serif" font-size="10.00">core_prefix.hpp</text>
</a>
</g>
</g>
<!-- Node14&#45;&gt;Node27 -->
<g id="edge41" class="edge">
<title>Node14&#45;&gt;Node27</title>
<path fill="none" stroke="midnightblue" d="M629.36,-229.95C640.54,-227.78 652.71,-225.62 664,-224 744.3,-212.49 978.49,-192.54 1086.83,-183.59"/>
<polygon fill="midnightblue" stroke="midnightblue" points="1087.23,-187.06 1096.91,-182.75 1086.65,-180.09 1087.23,-187.06"/>
</g>
<!-- Node16&#45;&gt;Node2 -->
<g id="edge21" class="edge">
<title>Node16&#45;&gt;Node2</title>
<path fill="none" stroke="midnightblue" d="M433,-168.32C424.81,-160.42 412.49,-148.55 402.53,-138.94"/>
<polygon fill="midnightblue" stroke="midnightblue" points="404.79,-136.26 395.16,-131.83 399.93,-141.29 404.79,-136.26"/>
</g>
<!-- Node16&#45;&gt;Node5 -->
<g id="edge22" class="edge">
<title>Node16&#45;&gt;Node5</title>
<path fill="none" stroke="midnightblue" d="M440.6,-168.08C436.51,-141.95 424.49,-65.21 418.91,-29.58"/>
<polygon fill="midnightblue" stroke="midnightblue" points="422.35,-28.91 417.34,-19.57 415.43,-29.99 422.35,-28.91"/>
</g>
<!-- Node18 -->
<g id="node18" class="node">
<title>Node18</title>
<g id="a_node18"><a xlink:href="../../de/d55/algorithm_8hpp.html" target="_top" xlink:title=" ">
<polygon fill="none" stroke="black" points="504.5,-112.5 504.5,-131.5 589.5,-131.5 589.5,-112.5 504.5,-112.5"/>
<text text-anchor="middle" x="547" y="-119.5" font-family="Helvetica,sans-Serif" font-size="10.00">algorithm.hpp</text>
</a>
</g>
</g>
<!-- Node17&#45;&gt;Node18 -->
<g id="edge24" class="edge">
<title>Node17&#45;&gt;Node18</title>
<path fill="none" stroke="midnightblue" d="M547,-168.08C547,-161.01 547,-150.86 547,-141.99"/>
<polygon fill="midnightblue" stroke="midnightblue" points="550.5,-141.75 547,-131.75 543.5,-141.75 550.5,-141.75"/>
</g>
<!-- Node18&#45;&gt;Node5 -->
<g id="edge25" class="edge">
<title>Node18&#45;&gt;Node5</title>
<path fill="none" stroke="midnightblue" d="M536.72,-112.37C514.53,-93.73 461.89,-49.53 434.02,-26.13"/>
<polygon fill="midnightblue" stroke="midnightblue" points="436.14,-23.34 426.23,-19.59 431.64,-28.7 436.14,-23.34"/>
</g>
<!-- Node18&#45;&gt;Node9 -->
<g id="edge26" class="edge">
<title>Node18&#45;&gt;Node9</title>
<path fill="none" stroke="midnightblue" d="M548.16,-112.08C549.08,-104.93 550.42,-94.64 551.58,-85.69"/>
<polygon fill="midnightblue" stroke="midnightblue" points="555.05,-86.12 552.87,-75.75 548.11,-85.22 555.05,-86.12"/>
</g>
<!-- Node21 -->
<g id="node21" class="node">
<title>Node21</title>
<g id="a_node21"><a xlink:href="../../d5/db7/preorder__iterator_8hpp.html" target="_top" xlink:title=" ">
<polygon fill="none" stroke="black" points="1057.5,-112.5 1057.5,-131.5 1176.5,-131.5 1176.5,-112.5 1057.5,-112.5"/>
<text text-anchor="middle" x="1117" y="-119.5" font-family="Helvetica,sans-Serif" font-size="10.00">preorder_iterator.hpp</text>
</a>
</g>
</g>
<!-- Node20&#45;&gt;Node21 -->
<g id="edge29" class="edge">
<title>Node20&#45;&gt;Node21</title>
<path fill="none" stroke="midnightblue" d="M899.04,-168.44C944.32,-159 1017.23,-143.8 1066.11,-133.61"/>
<polygon fill="midnightblue" stroke="midnightblue" points="1067.08,-136.98 1076.15,-131.52 1065.65,-130.13 1067.08,-136.98"/>
</g>
<!-- Node22 -->
<g id="node22" class="node">
<title>Node22</title>
<g id="a_node22"><a xlink:href="../../d1/d2d/vertex_8hpp.html" target="_top" xlink:title=" ">
<polygon fill="none" stroke="black" points="1082.5,-56.5 1082.5,-75.5 1151.5,-75.5 1151.5,-56.5 1082.5,-56.5"/>
<text text-anchor="middle" x="1117" y="-63.5" font-family="Helvetica,sans-Serif" font-size="10.00">vertex.hpp</text>
</a>
</g>
</g>
<!-- Node20&#45;&gt;Node22 -->
<g id="edge39" class="edge">
<title>Node20&#45;&gt;Node22</title>
<path fill="none" stroke="midnightblue" d="M911.61,-169.32C914.79,-168.87 917.94,-168.43 921,-168 979.86,-159.8 1146.91,-176.76 1186,-132 1202.97,-112.57 1173.29,-92.56 1147.72,-79.97"/>
<polygon fill="midnightblue" stroke="midnightblue" points="1149.12,-76.76 1138.59,-75.68 1146.15,-83.1 1149.12,-76.76"/>
</g>
<!-- Node23 -->
<g id="node23" class="node">
<title>Node23</title>
<g id="a_node23"><a xlink:href="../../df/d24/postorder__iterator_8hpp.html" target="_top" xlink:title=" ">
<polygon fill="none" stroke="black" points="857.5,-112.5 857.5,-131.5 982.5,-131.5 982.5,-112.5 857.5,-112.5"/>
<text text-anchor="middle" x="920" y="-119.5" font-family="Helvetica,sans-Serif" font-size="10.00">postorder_iterator.hpp</text>
</a>
</g>
</g>
<!-- Node20&#45;&gt;Node23 -->
<g id="edge32" class="edge">
<title>Node20&#45;&gt;Node23</title>
<path fill="none" stroke="midnightblue" d="M867.96,-168.32C877.13,-160.34 890.94,-148.31 902.03,-138.65"/>
<polygon fill="midnightblue" stroke="midnightblue" points="904.62,-141.04 909.86,-131.83 900.02,-135.76 904.62,-141.04"/>
</g>
<!-- Node24 -->
<g id="node24" class="node">
<title>Node24</title>
<g id="a_node24"><a xlink:href="../../d9/dde/iterator_8hpp.html" target="_top" xlink:title=" ">
<polygon fill="none" stroke="black" points="659.5,-112.5 659.5,-131.5 732.5,-131.5 732.5,-112.5 659.5,-112.5"/>
<text text-anchor="middle" x="696" y="-119.5" font-family="Helvetica,sans-Serif" font-size="10.00">iterator.hpp</text>
</a>
</g>
</g>
<!-- Node20&#45;&gt;Node24 -->
<g id="edge35" class="edge">
<title>Node20&#45;&gt;Node24</title>
<path fill="none" stroke="midnightblue" d="M832.33,-168.44C805.08,-159.36 761.82,-144.94 731.35,-134.78"/>
<polygon fill="midnightblue" stroke="midnightblue" points="732.14,-131.36 721.55,-131.52 729.93,-138 732.14,-131.36"/>
</g>
<!-- Node25 -->
<g id="node25" class="node">
<title>Node25</title>
<g id="a_node25"><a xlink:href="../../d7/d8f/partimator_8hpp.html" target="_top" xlink:title=" ">
<polygon fill="none" stroke="black" points="750.5,-112.5 750.5,-131.5 839.5,-131.5 839.5,-112.5 750.5,-112.5"/>
<text text-anchor="middle" x="795" y="-119.5" font-family="Helvetica,sans-Serif" font-size="10.00">partimator.hpp</text>
</a>
</g>
</g>
<!-- Node20&#45;&gt;Node25 -->
<g id="edge37" class="edge">
<title>Node20&#45;&gt;Node25</title>
<path fill="none" stroke="midnightblue" d="M847.88,-168.32C838.47,-160.26 824.26,-148.08 812.93,-138.37"/>
<polygon fill="midnightblue" stroke="midnightblue" points="815.18,-135.68 805.31,-131.83 810.62,-141 815.18,-135.68"/>
</g>
<!-- Node26 -->
<g id="node26" class="node">
<title>Node26</title>
<g id="a_node26"><a xlink:title=" ">
<polygon fill="none" stroke="#bfbfbf" points="1001,-112.5 1001,-131.5 1039,-131.5 1039,-112.5 1001,-112.5"/>
<text text-anchor="middle" x="1020" y="-119.5" font-family="Helvetica,sans-Serif" font-size="10.00">map</text>
</a>
</g>
</g>
<!-- Node20&#45;&gt;Node26 -->
<g id="edge40" class="edge">
<title>Node20&#45;&gt;Node26</title>
<path fill="none" stroke="midnightblue" d="M883.67,-168.44C912.85,-158.72 960.37,-142.88 990.9,-132.7"/>
<polygon fill="midnightblue" stroke="midnightblue" points="992.17,-135.97 1000.55,-129.48 989.96,-129.32 992.17,-135.97"/>
</g>
<!-- Node21&#45;&gt;Node15 -->
<g id="edge31" class="edge">
<title>Node21&#45;&gt;Node15</title>
<path fill="none" stroke="midnightblue" d="M1065.98,-112.44C1000.7,-101.5 889.23,-82.8 831.72,-73.16"/>
<polygon fill="midnightblue" stroke="midnightblue" points="832.07,-69.67 821.63,-71.47 830.92,-76.57 832.07,-69.67"/>
</g>
<!-- Node21&#45;&gt;Node22 -->
<g id="edge30" class="edge">
<title>Node21&#45;&gt;Node22</title>
<path fill="none" stroke="midnightblue" d="M1117,-112.08C1117,-105.01 1117,-94.86 1117,-85.99"/>
<polygon fill="midnightblue" stroke="midnightblue" points="1120.5,-85.75 1117,-75.75 1113.5,-85.75 1120.5,-85.75"/>
</g>
<!-- Node23&#45;&gt;Node15 -->
<g id="edge34" class="edge">
<title>Node23&#45;&gt;Node15</title>
<path fill="none" stroke="midnightblue" d="M900.19,-112.44C879.71,-103.6 847.52,-89.69 824.14,-79.59"/>
<polygon fill="midnightblue" stroke="midnightblue" points="825.28,-76.27 814.71,-75.52 822.51,-82.7 825.28,-76.27"/>
</g>
<!-- Node23&#45;&gt;Node22 -->
<g id="edge33" class="edge">
<title>Node23&#45;&gt;Node22</title>
<path fill="none" stroke="midnightblue" d="M951.22,-112.44C984.93,-103.2 1038.8,-88.44 1075.93,-78.26"/>
<polygon fill="midnightblue" stroke="midnightblue" points="1077.21,-81.54 1085.93,-75.52 1075.36,-74.78 1077.21,-81.54"/>
</g>
<!-- Node24&#45;&gt;Node15 -->
<g id="edge36" class="edge">
<title>Node24&#45;&gt;Node15</title>
<path fill="none" stroke="midnightblue" d="M711.91,-112.32C727.64,-103.74 751.94,-90.49 770.21,-80.52"/>
<polygon fill="midnightblue" stroke="midnightblue" points="772.03,-83.52 779.13,-75.65 768.68,-77.37 772.03,-83.52"/>
</g>
<!-- Node25&#45;&gt;Node15 -->
<g id="edge38" class="edge">
<title>Node25&#45;&gt;Node15</title>
<path fill="none" stroke="midnightblue" d="M795,-112.08C795,-105.01 795,-94.86 795,-85.99"/>
<polygon fill="midnightblue" stroke="midnightblue" points="798.5,-85.75 795,-75.75 791.5,-85.75 798.5,-85.75"/>
</g>
<!-- Node28 -->
<g id="node28" class="node">
<title>Node28</title>
<g id="a_node28"><a xlink:href="../../d0/d34/prefix_8hpp.html" target="_top" xlink:title=" ">
<polygon fill="none" stroke="black" points="1233.5,-112.5 1233.5,-131.5 1298.5,-131.5 1298.5,-112.5 1233.5,-112.5"/>
<text text-anchor="middle" x="1266" y="-119.5" font-family="Helvetica,sans-Serif" font-size="10.00">prefix.hpp</text>
</a>
</g>
</g>
<!-- Node27&#45;&gt;Node28 -->
<g id="edge42" class="edge">
<title>Node27&#45;&gt;Node28</title>
<path fill="none" stroke="midnightblue" d="M1162.49,-168.44C1182.64,-159.6 1214.32,-145.69 1237.33,-135.59"/>
<polygon fill="midnightblue" stroke="midnightblue" points="1238.85,-138.74 1246.6,-131.52 1236.04,-132.33 1238.85,-138.74"/>
</g>
<!-- Node29&#45;&gt;Node3 -->
<g id="edge45" class="edge">
<title>Node29&#45;&gt;Node3</title>
<path fill="none" stroke="midnightblue" d="M307.7,-229.98C302.26,-221.23 293.64,-207.37 286.76,-196.31"/>
<polygon fill="midnightblue" stroke="midnightblue" points="289.54,-194.15 281.29,-187.51 283.6,-197.85 289.54,-194.15"/>
</g>
<!-- Node29&#45;&gt;Node6 -->
<g id="edge44" class="edge">
<title>Node29&#45;&gt;Node6</title>
<path fill="none" stroke="midnightblue" d="M298.53,-229.98C282.03,-220.25 254.82,-204.23 235.32,-192.74"/>
<polygon fill="midnightblue" stroke="midnightblue" points="236.84,-189.57 226.44,-187.51 233.28,-195.6 236.84,-189.57"/>
</g>
<!-- Node29&#45;&gt;Node9 -->
<g id="edge46" class="edge">
<title>Node29&#45;&gt;Node9</title>
<path fill="none" stroke="midnightblue" d="M312.36,-229.95C311.16,-207.17 311.26,-144.56 345,-112 365.95,-91.78 439.72,-79.44 493.7,-72.92"/>
<polygon fill="midnightblue" stroke="midnightblue" points="494.34,-76.37 503.87,-71.73 493.53,-69.42 494.34,-76.37"/>
</g>
<!-- Node31 -->
<g id="node31" class="node">
<title>Node31</title>
<g id="a_node31"><a xlink:title=" ">
<polygon fill="none" stroke="#bfbfbf" points="673,-230 673,-249 735,-249 735,-230 673,-230"/>
<text text-anchor="middle" x="704" y="-237" font-family="Helvetica,sans-Serif" font-size="10.00">cinttypes</text>
</a>
</g>
</g>
<!-- Node30&#45;&gt;Node31 -->
<g id="edge48" class="edge">
<title>Node30&#45;&gt;Node31</title>
<path fill="none" stroke="midnightblue" d="M650.75,-291.4C661.57,-281.06 676.25,-267.02 687.46,-256.31"/>
<polygon fill="midnightblue" stroke="midnightblue" points="690.09,-258.63 694.9,-249.19 685.26,-253.57 690.09,-258.63"/>
</g>
</g>
</svg>
