<?xml version="1.0" encoding="UTF-8" standalone="no"?>
<!DOCTYPE svg PUBLIC "-//W3C//DTD SVG 1.1//EN"
 "http://www.w3.org/Graphics/SVG/1.1/DTD/svg11.dtd">
<!-- Generated by graphviz version 5.0.1 (20220820.1526)
 -->
<!-- Title: uxn::patl::aux::buffered_output::flush_buffer Pages: 1 -->
<svg width="485pt" height="186pt"
 viewBox="0.00 0.00 485.00 186.00" xmlns="http://www.w3.org/2000/svg" xmlns:xlink="http://www.w3.org/1999/xlink">
<g id="graph0" class="graph" transform="scale(1 1) rotate(0) translate(4 182)">
<title>uxn::patl::aux::buffered_output::flush_buffer</title>
<!-- Node1 -->
<g id="node1" class="node">
<title>Node1</title>
<g id="a_node1"><a xlink:title=" ">
<polygon fill="#bfbfbf" stroke="black" points="347,-73.5 347,-103.5 477,-103.5 477,-73.5 347,-73.5"/>
<text text-anchor="start" x="355" y="-91.5" font-family="Helvetica,sans-Serif" font-size="10.00">uxn::patl::aux::buffered</text>
<text text-anchor="middle" x="412" y="-80.5" font-family="Helvetica,sans-Serif" font-size="10.00">_output::flush_buffer</text>
</a>
</g>
</g>
<!-- Node1&#45;&gt;Node1 -->
<g id="edge1" class="edge">
<title>Node1&#45;&gt;Node1</title>
<path fill="none" stroke="midnightblue" d="M442.56,-113.96C438.77,-118.68 428.58,-122 412,-122 384.79,-122 374.8,-113.06 382.03,-103.66"/>
<polygon fill="midnightblue" stroke="midnightblue" points="446.04,-113.44 441.97,-103.66 439.05,-113.84 446.04,-113.44"/>
</g>
<!-- Node2 -->
<g id="node2" class="node">
<title>Node2</title>
<g id="a_node2"><a xlink:href="../../dc/da0/classuxn_1_1patl_1_1aux_1_1buffered__output.html#aaafd27773c29481285ec66842c5a1704" target="_top" xlink:title=" ">
<polygon fill="none" stroke="black" points="173.5,-147.5 173.5,-177.5 303.5,-177.5 303.5,-147.5 173.5,-147.5"/>
<text text-anchor="start" x="181.5" y="-165.5" font-family="Helvetica,sans-Serif" font-size="10.00">uxn::patl::aux::buffered</text>
<text text-anchor="middle" x="238.5" y="-154.5" font-family="Helvetica,sans-Serif" font-size="10.00">_output::move_offset</text>
</a>
</g>
</g>
<!-- Node1&#45;&gt;Node2 -->
<g id="edge2" class="edge">
<title>Node1&#45;&gt;Node2</title>
<path fill="none" stroke="midnightblue" d="M374.42,-108.33C355.74,-118.06 332.47,-129.58 311,-138.5 303.5,-141.61 295.44,-144.63 287.53,-147.41"/>
<polygon fill="midnightblue" stroke="midnightblue" points="376.25,-111.33 383.47,-103.57 372.99,-105.13 376.25,-111.33"/>
</g>
<!-- Node3 -->
<g id="node3" class="node">
<title>Node3</title>
<g id="a_node3"><a xlink:href="../../dc/da0/classuxn_1_1patl_1_1aux_1_1buffered__output.html#ab60719abef6412de933dfe116fc8bc0c" target="_top" xlink:title=" ">
<polygon fill="none" stroke="black" points="173.5,-98.5 173.5,-128.5 303.5,-128.5 303.5,-98.5 173.5,-98.5"/>
<text text-anchor="start" x="181.5" y="-116.5" font-family="Helvetica,sans-Serif" font-size="10.00">uxn::patl::aux::buffered</text>
<text text-anchor="middle" x="238.5" y="-105.5" font-family="Helvetica,sans-Serif" font-size="10.00">_output::write_byte</text>
</a>
</g>
</g>
<!-- Node1&#45;&gt;Node3 -->
<g id="edge3" class="edge">
<title>Node1&#45;&gt;Node3</title>
<path fill="none" stroke="midnightblue" d="M336.65,-99.34C325.65,-100.94 314.4,-102.58 303.64,-104.15"/>
<polygon fill="midnightblue" stroke="midnightblue" points="337.26,-102.79 346.65,-97.88 336.25,-95.86 337.26,-102.79"/>
</g>
<!-- Node6 -->
<g id="node6" class="node">
<title>Node6</title>
<g id="a_node6"><a xlink:href="../../dc/da0/classuxn_1_1patl_1_1aux_1_1buffered__output.html#a699236afbfce40545eb171445b077ce5" target="_top" xlink:title=" ">
<polygon fill="none" stroke="black" points="173.5,-49.5 173.5,-79.5 303.5,-79.5 303.5,-49.5 173.5,-49.5"/>
<text text-anchor="start" x="181.5" y="-67.5" font-family="Helvetica,sans-Serif" font-size="10.00">uxn::patl::aux::buffered</text>
<text text-anchor="middle" x="238.5" y="-56.5" font-family="Helvetica,sans-Serif" font-size="10.00">_output::write_bytes</text>
</a>
</g>
</g>
<!-- Node1&#45;&gt;Node6 -->
<g id="edge6" class="edge">
<title>Node1&#45;&gt;Node6</title>
<path fill="none" stroke="midnightblue" d="M336.65,-78.09C325.65,-76.56 314.4,-74.98 303.64,-73.48"/>
<polygon fill="midnightblue" stroke="midnightblue" points="336.26,-81.58 346.65,-79.5 337.23,-74.64 336.26,-81.58"/>
</g>
<!-- Node7 -->
<g id="node7" class="node">
<title>Node7</title>
<g id="a_node7"><a xlink:href="../../dc/da0/classuxn_1_1patl_1_1aux_1_1buffered__output.html#aab8e5d7609a44a7fc6e624c799bbda4e" target="_top" xlink:title=" ">
<polygon fill="none" stroke="black" points="166,-0.5 166,-30.5 311,-30.5 311,-0.5 166,-0.5"/>
<text text-anchor="start" x="174" y="-18.5" font-family="Helvetica,sans-Serif" font-size="10.00">uxn::patl::aux::buffered</text>
<text text-anchor="middle" x="238.5" y="-7.5" font-family="Helvetica,sans-Serif" font-size="10.00">_output::~buffered_output</text>
</a>
</g>
</g>
<!-- Node1&#45;&gt;Node7 -->
<g id="edge7" class="edge">
<title>Node1&#45;&gt;Node7</title>
<path fill="none" stroke="midnightblue" d="M372.68,-68.87C354.25,-59.75 331.71,-49.06 311,-40.5 302.74,-37.08 293.82,-33.72 285.18,-30.62"/>
<polygon fill="midnightblue" stroke="midnightblue" points="371.13,-72.01 381.64,-73.34 374.25,-65.75 371.13,-72.01"/>
</g>
<!-- Node4 -->
<g id="node4" class="node">
<title>Node4</title>
<g id="a_node4"><a xlink:href="../../dc/da0/classuxn_1_1patl_1_1aux_1_1buffered__output.html#a78ca1ac9ca96f8c2f1ce78d3f1dd85c5" target="_top" xlink:title=" ">
<polygon fill="none" stroke="black" points="0,-122.5 0,-152.5 130,-152.5 130,-122.5 0,-122.5"/>
<text text-anchor="start" x="8" y="-140.5" font-family="Helvetica,sans-Serif" font-size="10.00">uxn::patl::aux::buffered</text>
<text text-anchor="middle" x="65" y="-129.5" font-family="Helvetica,sans-Serif" font-size="10.00">_output::write_string</text>
</a>
</g>
</g>
<!-- Node3&#45;&gt;Node4 -->
<g id="edge4" class="edge">
<title>Node3&#45;&gt;Node4</title>
<path fill="none" stroke="midnightblue" d="M163.15,-123.91C152.15,-125.44 140.9,-127.02 130.14,-128.52"/>
<polygon fill="midnightblue" stroke="midnightblue" points="163.73,-127.36 173.15,-122.5 162.76,-120.42 163.73,-127.36"/>
</g>
<!-- Node5 -->
<g id="node5" class="node">
<title>Node5</title>
<g id="a_node5"><a xlink:href="../../dc/da0/classuxn_1_1patl_1_1aux_1_1buffered__output.html#a775b87ae1f91f80253d0d664f0c30bbd" target="_top" xlink:title=" ">
<polygon fill="none" stroke="black" points="0,-73.5 0,-103.5 130,-103.5 130,-73.5 0,-73.5"/>
<text text-anchor="start" x="8" y="-91.5" font-family="Helvetica,sans-Serif" font-size="10.00">uxn::patl::aux::buffered</text>
<text text-anchor="middle" x="65" y="-80.5" font-family="Helvetica,sans-Serif" font-size="10.00">_output::write_word</text>
</a>
</g>
</g>
<!-- Node3&#45;&gt;Node5 -->
<g id="edge5" class="edge">
<title>Node3&#45;&gt;Node5</title>
<path fill="none" stroke="midnightblue" d="M163.15,-102.66C152.15,-101.06 140.9,-99.42 130.14,-97.85"/>
<polygon fill="midnightblue" stroke="midnightblue" points="162.75,-106.14 173.15,-104.12 163.76,-99.21 162.75,-106.14"/>
</g>
</g>
</svg>
