<?xml version="1.0" encoding="UTF-8" standalone="no"?>
<!DOCTYPE svg PUBLIC "-//W3C//DTD SVG 1.1//EN"
 "http://www.w3.org/Graphics/SVG/1.1/DTD/svg11.dtd">
<!-- Generated by graphviz version 5.0.1 (20220820.1526)
 -->
<!-- Title: uxn/patl/impl/trie_generic.hpp Pages: 1 -->
<svg width="871pt" height="263pt"
 viewBox="0.00 0.00 870.50 263.00" xmlns="http://www.w3.org/2000/svg" xmlns:xlink="http://www.w3.org/1999/xlink">
<g id="graph0" class="graph" transform="scale(1 1) rotate(0) translate(4 259)">
<title>uxn/patl/impl/trie_generic.hpp</title>
<!-- Node1 -->
<g id="node1" class="node">
<title>Node1</title>
<g id="a_node1"><a xlink:title=" ">
<polygon fill="#bfbfbf" stroke="black" points="199.5,-224.5 199.5,-254.5 300.5,-254.5 300.5,-224.5 199.5,-224.5"/>
<text text-anchor="start" x="207.5" y="-242.5" font-family="Helvetica,sans-Serif" font-size="10.00">uxn/patl/impl/trie</text>
<text text-anchor="middle" x="250" y="-231.5" font-family="Helvetica,sans-Serif" font-size="10.00">_generic.hpp</text>
</a>
</g>
</g>
<!-- Node2 -->
<g id="node2" class="node">
<title>Node2</title>
<g id="a_node2"><a xlink:title=" ">
<polygon fill="none" stroke="#bfbfbf" points="0,-112.5 0,-131.5 64,-131.5 64,-112.5 0,-112.5"/>
<text text-anchor="middle" x="32" y="-119.5" font-family="Helvetica,sans-Serif" font-size="10.00">algorithm</text>
</a>
</g>
</g>
<!-- Node1&#45;&gt;Node2 -->
<g id="edge1" class="edge">
<title>Node1&#45;&gt;Node2</title>
<path fill="none" stroke="midnightblue" d="M199.16,-238.76C154.76,-236.23 91.43,-225.56 52,-188 39.45,-176.05 34.72,-156.44 32.96,-141.88"/>
<polygon fill="midnightblue" stroke="midnightblue" points="36.42,-141.2 32.1,-131.52 29.44,-141.78 36.42,-141.2"/>
</g>
<!-- Node3 -->
<g id="node3" class="node">
<title>Node3</title>
<g id="a_node3"><a xlink:title=" ">
<polygon fill="none" stroke="#bfbfbf" points="270.5,-168.5 270.5,-187.5 335.5,-187.5 335.5,-168.5 270.5,-168.5"/>
<text text-anchor="middle" x="303" y="-175.5" font-family="Helvetica,sans-Serif" font-size="10.00">functional</text>
</a>
</g>
</g>
<!-- Node1&#45;&gt;Node3 -->
<g id="edge2" class="edge">
<title>Node1&#45;&gt;Node3</title>
<path fill="none" stroke="midnightblue" d="M262.56,-224.4C270.34,-215.66 280.36,-204.41 288.48,-195.3"/>
<polygon fill="midnightblue" stroke="midnightblue" points="291.25,-197.45 295.29,-187.66 286.02,-192.8 291.25,-197.45"/>
</g>
<!-- Node4 -->
<g id="node4" class="node">
<title>Node4</title>
<g id="a_node4"><a xlink:href="../../d3/d09/node_8hpp.html" target="_top" xlink:title=" ">
<polygon fill="none" stroke="black" points="61,-168.5 61,-187.5 123,-187.5 123,-168.5 61,-168.5"/>
<text text-anchor="middle" x="92" y="-175.5" font-family="Helvetica,sans-Serif" font-size="10.00">node.hpp</text>
</a>
</g>
</g>
<!-- Node1&#45;&gt;Node4 -->
<g id="edge3" class="edge">
<title>Node1&#45;&gt;Node4</title>
<path fill="none" stroke="midnightblue" d="M212.56,-224.4C185.81,-214.33 150.18,-200.91 124.6,-191.28"/>
<polygon fill="midnightblue" stroke="midnightblue" points="125.58,-187.91 114.99,-187.66 123.12,-194.46 125.58,-187.91"/>
</g>
<!-- Node6 -->
<g id="node6" class="node">
<title>Node6</title>
<g id="a_node6"><a xlink:href="../../d0/dd1/core__algorithm_8hpp.html" target="_top" xlink:title=" ">
<polygon fill="none" stroke="black" points="141.5,-168.5 141.5,-187.5 252.5,-187.5 252.5,-168.5 141.5,-168.5"/>
<text text-anchor="middle" x="197" y="-175.5" font-family="Helvetica,sans-Serif" font-size="10.00">core_algorithm.hpp</text>
</a>
</g>
</g>
<!-- Node1&#45;&gt;Node6 -->
<g id="edge6" class="edge">
<title>Node1&#45;&gt;Node6</title>
<path fill="none" stroke="midnightblue" d="M237.44,-224.4C229.66,-215.66 219.64,-204.41 211.52,-195.3"/>
<polygon fill="midnightblue" stroke="midnightblue" points="213.98,-192.8 204.71,-187.66 208.75,-197.45 213.98,-192.8"/>
</g>
<!-- Node12 -->
<g id="node12" class="node">
<title>Node12</title>
<g id="a_node12"><a xlink:href="../../de/d50/assoc__generic_8hpp.html" target="_top" xlink:title=" ">
<polygon fill="none" stroke="black" points="411.5,-168.5 411.5,-187.5 518.5,-187.5 518.5,-168.5 411.5,-168.5"/>
<text text-anchor="middle" x="465" y="-175.5" font-family="Helvetica,sans-Serif" font-size="10.00">assoc_generic.hpp</text>
</a>
</g>
</g>
<!-- Node1&#45;&gt;Node12 -->
<g id="edge14" class="edge">
<title>Node1&#45;&gt;Node12</title>
<path fill="none" stroke="midnightblue" d="M300.68,-224.47C338.42,-214.03 389.27,-199.96 424.36,-190.25"/>
<polygon fill="midnightblue" stroke="midnightblue" points="425.56,-193.55 434.26,-187.51 423.69,-186.8 425.56,-193.55"/>
</g>
<!-- Node20 -->
<g id="node20" class="node">
<title>Node20</title>
<g id="a_node20"><a xlink:href="../../d7/dd8/core__prefix_8hpp.html" target="_top" xlink:title=" ">
<polygon fill="none" stroke="black" points="660,-168.5 660,-187.5 752,-187.5 752,-168.5 660,-168.5"/>
<text text-anchor="middle" x="706" y="-175.5" font-family="Helvetica,sans-Serif" font-size="10.00">core_prefix.hpp</text>
</a>
</g>
</g>
<!-- Node1&#45;&gt;Node20 -->
<g id="edge27" class="edge">
<title>Node1&#45;&gt;Node20</title>
<path fill="none" stroke="midnightblue" d="M300.54,-231.91C386.39,-220.7 560.09,-198.04 649.7,-186.35"/>
<polygon fill="midnightblue" stroke="midnightblue" points="650.22,-189.81 659.68,-185.04 649.31,-182.87 650.22,-189.81"/>
</g>
<!-- Node4&#45;&gt;Node2 -->
<g id="edge4" class="edge">
<title>Node4&#45;&gt;Node2</title>
<path fill="none" stroke="midnightblue" d="M82.36,-168.32C73.49,-160.34 60.13,-148.31 49.39,-138.65"/>
<polygon fill="midnightblue" stroke="midnightblue" points="51.59,-135.92 41.82,-131.83 46.91,-141.13 51.59,-135.92"/>
</g>
<!-- Node5 -->
<g id="node5" class="node">
<title>Node5</title>
<g id="a_node5"><a xlink:href="../../d8/dfd/config_8hpp.html" target="_top" xlink:title=" ">
<polygon fill="none" stroke="black" points="58,-0.5 58,-19.5 134,-19.5 134,-0.5 58,-0.5"/>
<text text-anchor="middle" x="96" y="-7.5" font-family="Helvetica,sans-Serif" font-size="10.00">../config.hpp</text>
</a>
</g>
</g>
<!-- Node4&#45;&gt;Node5 -->
<g id="edge5" class="edge">
<title>Node4&#45;&gt;Node5</title>
<path fill="none" stroke="midnightblue" d="M92.22,-168.08C92.84,-141.95 94.69,-65.21 95.55,-29.58"/>
<polygon fill="midnightblue" stroke="midnightblue" points="99.05,-29.65 95.79,-19.57 92.05,-29.48 99.05,-29.65"/>
</g>
<!-- Node7 -->
<g id="node7" class="node">
<title>Node7</title>
<g id="a_node7"><a xlink:href="../../de/d55/algorithm_8hpp.html" target="_top" xlink:title=" ">
<polygon fill="none" stroke="black" points="120.5,-112.5 120.5,-131.5 205.5,-131.5 205.5,-112.5 120.5,-112.5"/>
<text text-anchor="middle" x="163" y="-119.5" font-family="Helvetica,sans-Serif" font-size="10.00">algorithm.hpp</text>
</a>
</g>
</g>
<!-- Node6&#45;&gt;Node7 -->
<g id="edge7" class="edge">
<title>Node6&#45;&gt;Node7</title>
<path fill="none" stroke="midnightblue" d="M191.39,-168.08C186.63,-160.53 179.68,-149.49 173.85,-140.23"/>
<polygon fill="midnightblue" stroke="midnightblue" points="176.8,-138.35 168.51,-131.75 170.88,-142.08 176.8,-138.35"/>
</g>
<!-- Node7&#45;&gt;Node5 -->
<g id="edge8" class="edge">
<title>Node7&#45;&gt;Node5</title>
<path fill="none" stroke="midnightblue" d="M157.74,-112.37C146.73,-94.3 121.08,-52.18 106.54,-28.31"/>
<polygon fill="midnightblue" stroke="midnightblue" points="109.42,-26.31 101.23,-19.59 103.45,-29.95 109.42,-26.31"/>
</g>
<!-- Node8 -->
<g id="node8" class="node">
<title>Node8</title>
<g id="a_node8"><a xlink:href="../../d9/d3a/trivial_8hpp.html" target="_top" xlink:title=" ">
<polygon fill="none" stroke="black" points="158,-56.5 158,-75.5 224,-75.5 224,-56.5 158,-56.5"/>
<text text-anchor="middle" x="191" y="-63.5" font-family="Helvetica,sans-Serif" font-size="10.00">trivial.hpp</text>
</a>
</g>
</g>
<!-- Node7&#45;&gt;Node8 -->
<g id="edge9" class="edge">
<title>Node7&#45;&gt;Node8</title>
<path fill="none" stroke="midnightblue" d="M167.62,-112.08C171.46,-104.69 177.02,-93.95 181.76,-84.81"/>
<polygon fill="midnightblue" stroke="midnightblue" points="184.97,-86.24 186.46,-75.75 178.75,-83.02 184.97,-86.24"/>
</g>
<!-- Node8&#45;&gt;Node5 -->
<g id="edge10" class="edge">
<title>Node8&#45;&gt;Node5</title>
<path fill="none" stroke="midnightblue" d="M175.74,-56.32C160.78,-47.82 137.75,-34.73 120.27,-24.8"/>
<polygon fill="midnightblue" stroke="midnightblue" points="121.65,-21.55 111.23,-19.65 118.19,-27.64 121.65,-21.55"/>
</g>
<!-- Node9 -->
<g id="node9" class="node">
<title>Node9</title>
<g id="a_node9"><a xlink:title=" ">
<polygon fill="none" stroke="#bfbfbf" points="152.5,-0.5 152.5,-19.5 221.5,-19.5 221.5,-0.5 152.5,-0.5"/>
<text text-anchor="middle" x="187" y="-7.5" font-family="Helvetica,sans-Serif" font-size="10.00">type_traits</text>
</a>
</g>
</g>
<!-- Node8&#45;&gt;Node9 -->
<g id="edge11" class="edge">
<title>Node8&#45;&gt;Node9</title>
<path fill="none" stroke="midnightblue" d="M190.34,-56.08C189.82,-49.01 189.06,-38.86 188.41,-29.99"/>
<polygon fill="midnightblue" stroke="midnightblue" points="191.88,-29.47 187.65,-19.75 184.9,-29.98 191.88,-29.47"/>
</g>
<!-- Node10 -->
<g id="node10" class="node">
<title>Node10</title>
<g id="a_node10"><a xlink:title=" ">
<polygon fill="none" stroke="#bfbfbf" points="240,-0.5 240,-19.5 292,-19.5 292,-0.5 240,-0.5"/>
<text text-anchor="middle" x="266" y="-7.5" font-family="Helvetica,sans-Serif" font-size="10.00">cassert</text>
</a>
</g>
</g>
<!-- Node8&#45;&gt;Node10 -->
<g id="edge12" class="edge">
<title>Node8&#45;&gt;Node10</title>
<path fill="none" stroke="midnightblue" d="M203.05,-56.32C214.46,-48.11 231.83,-35.6 245.43,-25.81"/>
<polygon fill="midnightblue" stroke="midnightblue" points="247.66,-28.52 253.73,-19.83 243.57,-22.84 247.66,-28.52"/>
</g>
<!-- Node11 -->
<g id="node11" class="node">
<title>Node11</title>
<g id="a_node11"><a xlink:title=" ">
<polygon fill="none" stroke="#bfbfbf" points="310.5,-0.5 310.5,-19.5 361.5,-19.5 361.5,-0.5 310.5,-0.5"/>
<text text-anchor="middle" x="336" y="-7.5" font-family="Helvetica,sans-Serif" font-size="10.00">intrin.h</text>
</a>
</g>
</g>
<!-- Node8&#45;&gt;Node11 -->
<g id="edge13" class="edge">
<title>Node8&#45;&gt;Node11</title>
<path fill="none" stroke="midnightblue" d="M213.98,-56.44C238.16,-47.44 276.42,-33.19 303.65,-23.05"/>
<polygon fill="midnightblue" stroke="midnightblue" points="304.98,-26.29 313.13,-19.52 302.54,-19.73 304.98,-26.29"/>
</g>
<!-- Node13 -->
<g id="node13" class="node">
<title>Node13</title>
<g id="a_node13"><a xlink:href="../../d5/db7/preorder__iterator_8hpp.html" target="_top" xlink:title=" ">
<polygon fill="none" stroke="black" points="405.5,-112.5 405.5,-131.5 524.5,-131.5 524.5,-112.5 405.5,-112.5"/>
<text text-anchor="middle" x="465" y="-119.5" font-family="Helvetica,sans-Serif" font-size="10.00">preorder_iterator.hpp</text>
</a>
</g>
</g>
<!-- Node12&#45;&gt;Node13 -->
<g id="edge15" class="edge">
<title>Node12&#45;&gt;Node13</title>
<path fill="none" stroke="midnightblue" d="M465,-168.08C465,-161.01 465,-150.86 465,-141.99"/>
<polygon fill="midnightblue" stroke="midnightblue" points="468.5,-141.75 465,-131.75 461.5,-141.75 468.5,-141.75"/>
</g>
<!-- Node14 -->
<g id="node14" class="node">
<title>Node14</title>
<g id="a_node14"><a xlink:href="../../d1/d2d/vertex_8hpp.html" target="_top" xlink:title=" ">
<polygon fill="none" stroke="black" points="290.5,-56.5 290.5,-75.5 359.5,-75.5 359.5,-56.5 290.5,-56.5"/>
<text text-anchor="middle" x="325" y="-63.5" font-family="Helvetica,sans-Serif" font-size="10.00">vertex.hpp</text>
</a>
</g>
</g>
<!-- Node12&#45;&gt;Node14 -->
<g id="edge25" class="edge">
<title>Node12&#45;&gt;Node14</title>
<path fill="none" stroke="midnightblue" d="M411.34,-173.15C355.21,-167.88 272.57,-156.16 253,-132 236.48,-111.6 266.76,-91.95 292.98,-79.69"/>
<polygon fill="midnightblue" stroke="midnightblue" points="294.65,-82.78 302.37,-75.53 291.81,-76.39 294.65,-82.78"/>
</g>
<!-- Node16 -->
<g id="node16" class="node">
<title>Node16</title>
<g id="a_node16"><a xlink:href="../../df/d24/postorder__iterator_8hpp.html" target="_top" xlink:title=" ">
<polygon fill="none" stroke="black" points="262.5,-112.5 262.5,-131.5 387.5,-131.5 387.5,-112.5 262.5,-112.5"/>
<text text-anchor="middle" x="325" y="-119.5" font-family="Helvetica,sans-Serif" font-size="10.00">postorder_iterator.hpp</text>
</a>
</g>
</g>
<!-- Node12&#45;&gt;Node16 -->
<g id="edge18" class="edge">
<title>Node12&#45;&gt;Node16</title>
<path fill="none" stroke="midnightblue" d="M442.82,-168.44C419.57,-159.48 382.85,-145.31 356.58,-135.18"/>
<polygon fill="midnightblue" stroke="midnightblue" points="357.67,-131.85 347.08,-131.52 355.15,-138.38 357.67,-131.85"/>
</g>
<!-- Node17 -->
<g id="node17" class="node">
<title>Node17</title>
<g id="a_node17"><a xlink:href="../../d9/dde/iterator_8hpp.html" target="_top" xlink:title=" ">
<polygon fill="none" stroke="black" points="649.5,-112.5 649.5,-131.5 722.5,-131.5 722.5,-112.5 649.5,-112.5"/>
<text text-anchor="middle" x="686" y="-119.5" font-family="Helvetica,sans-Serif" font-size="10.00">iterator.hpp</text>
</a>
</g>
</g>
<!-- Node12&#45;&gt;Node17 -->
<g id="edge21" class="edge">
<title>Node12&#45;&gt;Node17</title>
<path fill="none" stroke="midnightblue" d="M500.02,-168.44C538.25,-159.1 599.57,-144.12 641.26,-133.93"/>
<polygon fill="midnightblue" stroke="midnightblue" points="642.26,-137.29 651.15,-131.52 640.6,-130.49 642.26,-137.29"/>
</g>
<!-- Node18 -->
<g id="node18" class="node">
<title>Node18</title>
<g id="a_node18"><a xlink:href="../../d7/d8f/partimator_8hpp.html" target="_top" xlink:title=" ">
<polygon fill="none" stroke="black" points="542.5,-112.5 542.5,-131.5 631.5,-131.5 631.5,-112.5 542.5,-112.5"/>
<text text-anchor="middle" x="587" y="-119.5" font-family="Helvetica,sans-Serif" font-size="10.00">partimator.hpp</text>
</a>
</g>
</g>
<!-- Node12&#45;&gt;Node18 -->
<g id="edge23" class="edge">
<title>Node12&#45;&gt;Node18</title>
<path fill="none" stroke="midnightblue" d="M484.33,-168.44C504.32,-159.6 535.74,-145.69 558.56,-135.59"/>
<polygon fill="midnightblue" stroke="midnightblue" points="560.03,-138.76 567.76,-131.52 557.2,-132.36 560.03,-138.76"/>
</g>
<!-- Node19 -->
<g id="node19" class="node">
<title>Node19</title>
<g id="a_node19"><a xlink:title=" ">
<polygon fill="none" stroke="#bfbfbf" points="741,-112.5 741,-131.5 779,-131.5 779,-112.5 741,-112.5"/>
<text text-anchor="middle" x="760" y="-119.5" font-family="Helvetica,sans-Serif" font-size="10.00">map</text>
</a>
</g>
</g>
<!-- Node12&#45;&gt;Node19 -->
<g id="edge26" class="edge">
<title>Node12&#45;&gt;Node19</title>
<path fill="none" stroke="midnightblue" d="M518.65,-170.27C570.67,-163.23 651.92,-150.87 730.73,-132.02"/>
<polygon fill="midnightblue" stroke="midnightblue" points="731.93,-135.33 740.82,-129.57 730.28,-128.53 731.93,-135.33"/>
</g>
<!-- Node13&#45;&gt;Node14 -->
<g id="edge16" class="edge">
<title>Node13&#45;&gt;Node14</title>
<path fill="none" stroke="midnightblue" d="M442.82,-112.44C419.57,-103.48 382.85,-89.31 356.58,-79.18"/>
<polygon fill="midnightblue" stroke="midnightblue" points="357.67,-75.85 347.08,-75.52 355.15,-82.38 357.67,-75.85"/>
</g>
<!-- Node15 -->
<g id="node15" class="node">
<title>Node15</title>
<g id="a_node15"><a xlink:title=" ">
<polygon fill="none" stroke="#bfbfbf" points="499.5,-56.5 499.5,-75.5 552.5,-75.5 552.5,-56.5 499.5,-56.5"/>
<text text-anchor="middle" x="526" y="-63.5" font-family="Helvetica,sans-Serif" font-size="10.00">iterator</text>
</a>
</g>
</g>
<!-- Node13&#45;&gt;Node15 -->
<g id="edge17" class="edge">
<title>Node13&#45;&gt;Node15</title>
<path fill="none" stroke="midnightblue" d="M474.8,-112.32C483.82,-104.34 497.41,-92.31 508.32,-82.65"/>
<polygon fill="midnightblue" stroke="midnightblue" points="510.85,-85.08 516.02,-75.83 506.21,-79.84 510.85,-85.08"/>
</g>
<!-- Node16&#45;&gt;Node14 -->
<g id="edge19" class="edge">
<title>Node16&#45;&gt;Node14</title>
<path fill="none" stroke="midnightblue" d="M325,-112.08C325,-105.01 325,-94.86 325,-85.99"/>
<polygon fill="midnightblue" stroke="midnightblue" points="328.5,-85.75 325,-75.75 321.5,-85.75 328.5,-85.75"/>
</g>
<!-- Node16&#45;&gt;Node15 -->
<g id="edge20" class="edge">
<title>Node16&#45;&gt;Node15</title>
<path fill="none" stroke="midnightblue" d="M356.85,-112.44C392.87,-102.77 451.43,-87.03 489.33,-76.85"/>
<polygon fill="midnightblue" stroke="midnightblue" points="490.69,-80.11 499.44,-74.14 488.87,-73.35 490.69,-80.11"/>
</g>
<!-- Node17&#45;&gt;Node15 -->
<g id="edge22" class="edge">
<title>Node17&#45;&gt;Node15</title>
<path fill="none" stroke="midnightblue" d="M660.65,-112.44C633.73,-103.36 591,-88.94 560.91,-78.78"/>
<polygon fill="midnightblue" stroke="midnightblue" points="561.83,-75.4 551.23,-75.52 559.59,-82.03 561.83,-75.4"/>
</g>
<!-- Node18&#45;&gt;Node15 -->
<g id="edge24" class="edge">
<title>Node18&#45;&gt;Node15</title>
<path fill="none" stroke="midnightblue" d="M577.2,-112.32C568.18,-104.34 554.59,-92.31 543.68,-82.65"/>
<polygon fill="midnightblue" stroke="midnightblue" points="545.79,-79.84 535.98,-75.83 541.15,-85.08 545.79,-79.84"/>
</g>
<!-- Node21 -->
<g id="node21" class="node">
<title>Node21</title>
<g id="a_node21"><a xlink:href="../../d0/d34/prefix_8hpp.html" target="_top" xlink:title=" ">
<polygon fill="none" stroke="black" points="797.5,-112.5 797.5,-131.5 862.5,-131.5 862.5,-112.5 797.5,-112.5"/>
<text text-anchor="middle" x="830" y="-119.5" font-family="Helvetica,sans-Serif" font-size="10.00">prefix.hpp</text>
</a>
</g>
</g>
<!-- Node20&#45;&gt;Node21 -->
<g id="edge28" class="edge">
<title>Node20&#45;&gt;Node21</title>
<path fill="none" stroke="midnightblue" d="M725.65,-168.44C745.96,-159.6 777.9,-145.69 801.1,-135.59"/>
<polygon fill="midnightblue" stroke="midnightblue" points="802.67,-138.72 810.44,-131.52 799.88,-132.3 802.67,-138.72"/>
</g>
</g>
</svg>
