<?xml version="1.0" encoding="UTF-8" standalone="no"?>
<!DOCTYPE svg PUBLIC "-//W3C//DTD SVG 1.1//EN"
 "http://www.w3.org/Graphics/SVG/1.1/DTD/svg11.dtd">
<!-- Generated by graphviz version 5.0.1 (20220820.1526)
 -->
<!-- Title: uxn::patl::impl::primes::for Pages: 1 -->
<svg width="323pt" height="264pt"
 viewBox="0.00 0.00 323.00 263.50" xmlns="http://www.w3.org/2000/svg" xmlns:xlink="http://www.w3.org/1999/xlink">
<g id="graph0" class="graph" transform="scale(1 1) rotate(0) translate(4 259.5)">
<title>uxn::patl::impl::primes::for</title>
<!-- Node1 -->
<g id="node1" class="node">
<title>Node1</title>
<g id="a_node1"><a xlink:title=" ">
<polygon fill="#bfbfbf" stroke="black" points="0,-110.5 0,-129.5 146,-129.5 146,-110.5 0,-110.5"/>
<text text-anchor="middle" x="73" y="-117.5" font-family="Helvetica,sans-Serif" font-size="10.00">uxn::patl::impl::primes::for</text>
</a>
</g>
</g>
<!-- Node2 -->
<g id="node2" class="node">
<title>Node2</title>
<g id="a_node2"><a xlink:href="../../d6/dae/classuxn_1_1patl_1_1impl_1_1primes.html#a0c4256c44f17d969955cea787bc2b92d" target="_top" xlink:title=" ">
<polygon fill="none" stroke="black" points="185,-225 185,-255 312,-255 312,-225 185,-225"/>
<text text-anchor="start" x="193" y="-243" font-family="Helvetica,sans-Serif" font-size="10.00">uxn::patl::impl::primes</text>
<text text-anchor="middle" x="248.5" y="-232" font-family="Helvetica,sans-Serif" font-size="10.00">::corr0</text>
</a>
</g>
</g>
<!-- Node1&#45;&gt;Node2 -->
<g id="edge1" class="edge">
<title>Node1&#45;&gt;Node2</title>
<path fill="none" stroke="midnightblue" d="M82.59,-129.77C99.75,-148.77 140.23,-191.02 182,-216 184.67,-217.6 187.46,-219.11 190.32,-220.55"/>
<polygon fill="midnightblue" stroke="midnightblue" points="189.11,-223.84 199.65,-224.87 192.05,-217.49 189.11,-223.84"/>
</g>
<!-- Node3 -->
<g id="node3" class="node">
<title>Node3</title>
<g id="a_node3"><a xlink:href="../../d6/dae/classuxn_1_1patl_1_1impl_1_1primes.html#a4e62a4a053ddd1849b472923809c0e58" target="_top" xlink:title=" ">
<polygon fill="none" stroke="black" points="185,-176 185,-206 312,-206 312,-176 185,-176"/>
<text text-anchor="start" x="193" y="-194" font-family="Helvetica,sans-Serif" font-size="10.00">uxn::patl::impl::primes</text>
<text text-anchor="middle" x="248.5" y="-183" font-family="Helvetica,sans-Serif" font-size="10.00">::correct</text>
</a>
</g>
</g>
<!-- Node1&#45;&gt;Node3 -->
<g id="edge2" class="edge">
<title>Node1&#45;&gt;Node3</title>
<path fill="none" stroke="midnightblue" d="M94.95,-129.56C116.6,-139.33 151.44,-154.76 182,-167 186.41,-168.76 191,-170.55 195.62,-172.31"/>
<polygon fill="midnightblue" stroke="midnightblue" points="194.49,-175.63 205.08,-175.87 196.95,-169.07 194.49,-175.63"/>
</g>
<!-- Node4 -->
<g id="node4" class="node">
<title>Node4</title>
<g id="a_node4"><a xlink:href="../../dd/d0e/namespaceuxn_1_1patl_1_1impl.html#a7be41e4ec37eaed94f586793719618cd" target="_top" xlink:title=" ">
<polygon fill="none" stroke="black" points="194,-127 194,-157 303,-157 303,-127 194,-127"/>
<text text-anchor="start" x="202" y="-145" font-family="Helvetica,sans-Serif" font-size="10.00">uxn::patl::impl::get</text>
<text text-anchor="middle" x="248.5" y="-134" font-family="Helvetica,sans-Serif" font-size="10.00">_lowest_bit_id</text>
</a>
</g>
</g>
<!-- Node1&#45;&gt;Node4 -->
<g id="edge3" class="edge">
<title>Node1&#45;&gt;Node4</title>
<path fill="none" stroke="midnightblue" d="M146.07,-129.14C158.58,-130.73 171.51,-132.36 183.78,-133.92"/>
<polygon fill="midnightblue" stroke="midnightblue" points="183.55,-137.42 193.91,-135.2 184.43,-130.47 183.55,-137.42"/>
</g>
<!-- Node5 -->
<g id="node5" class="node">
<title>Node5</title>
<g id="a_node5"><a xlink:href="../../dd/d0e/namespaceuxn_1_1patl_1_1impl.html#ac8acd4c59fec5857a380b4885796f019" target="_top" xlink:title=" ">
<polygon fill="none" stroke="black" points="182,-88.5 182,-107.5 315,-107.5 315,-88.5 182,-88.5"/>
<text text-anchor="middle" x="248.5" y="-95.5" font-family="Helvetica,sans-Serif" font-size="10.00">uxn::patl::impl::get_min</text>
</a>
</g>
</g>
<!-- Node1&#45;&gt;Node5 -->
<g id="edge4" class="edge">
<title>Node1&#45;&gt;Node5</title>
<path fill="none" stroke="midnightblue" d="M146.07,-110.86C154.57,-109.78 163.26,-108.68 171.81,-107.6"/>
<polygon fill="midnightblue" stroke="midnightblue" points="172.28,-111.07 181.76,-106.34 171.39,-104.12 172.28,-111.07"/>
</g>
<!-- Node6 -->
<g id="node6" class="node">
<title>Node6</title>
<g id="a_node6"><a xlink:href="../../d6/dae/classuxn_1_1patl_1_1impl_1_1primes.html#ab9d36fb34b58e79c070f59eebc4d3197" target="_top" xlink:title=" ">
<polygon fill="none" stroke="black" points="185,-39 185,-69 312,-69 312,-39 185,-39"/>
<text text-anchor="start" x="193" y="-57" font-family="Helvetica,sans-Serif" font-size="10.00">uxn::patl::impl::primes</text>
<text text-anchor="middle" x="248.5" y="-46" font-family="Helvetica,sans-Serif" font-size="10.00">::primes</text>
</a>
</g>
</g>
<!-- Node1&#45;&gt;Node6 -->
<g id="edge5" class="edge">
<title>Node1&#45;&gt;Node6</title>
<path fill="none" stroke="midnightblue" d="M99.23,-110.4C125.04,-100.59 165.81,-85.08 198.07,-72.8"/>
<polygon fill="midnightblue" stroke="midnightblue" points="199.68,-75.93 207.79,-69.11 197.2,-69.39 199.68,-75.93"/>
</g>
<!-- Node7 -->
<g id="node7" class="node">
<title>Node7</title>
<g id="a_node7"><a xlink:href="../../dd/d0e/namespaceuxn_1_1patl_1_1impl.html#a365c954548b4694c1654a2fc98394b00" target="_top" xlink:title=" ">
<polygon fill="none" stroke="black" points="183.5,-0.5 183.5,-19.5 313.5,-19.5 313.5,-0.5 183.5,-0.5"/>
<text text-anchor="middle" x="248.5" y="-7.5" font-family="Helvetica,sans-Serif" font-size="10.00">uxn::patl::impl::sqrt_int</text>
</a>
</g>
</g>
<!-- Node1&#45;&gt;Node7 -->
<g id="edge6" class="edge">
<title>Node1&#45;&gt;Node7</title>
<path fill="none" stroke="midnightblue" d="M82.87,-110.4C100.22,-92.18 140.56,-52.4 182,-30 186.84,-27.39 192.07,-25.06 197.38,-23.01"/>
<polygon fill="midnightblue" stroke="midnightblue" points="198.73,-26.25 206.99,-19.61 196.4,-19.65 198.73,-26.25"/>
</g>
</g>
</svg>
