<?xml version="1.0" encoding="UTF-8" standalone="no"?>
<!DOCTYPE svg PUBLIC "-//W3C//DTD SVG 1.1//EN"
 "http://www.w3.org/Graphics/SVG/1.1/DTD/svg11.dtd">
<!-- Generated by graphviz version 5.0.1 (20220820.1526)
 -->
<!-- Title: uxn/patl/impl/partial_base.hpp Pages: 1 -->
<svg width="594pt" height="162pt"
 viewBox="0.00 0.00 593.50 162.00" xmlns="http://www.w3.org/2000/svg" xmlns:xlink="http://www.w3.org/1999/xlink">
<g id="graph0" class="graph" transform="scale(1 1) rotate(0) translate(4 158)">
<title>uxn/patl/impl/partial_base.hpp</title>
<!-- Node1 -->
<g id="node1" class="node">
<title>Node1</title>
<g id="a_node1"><a xlink:title=" ">
<polygon fill="#bfbfbf" stroke="black" points="243.5,-123.5 243.5,-153.5 359.5,-153.5 359.5,-123.5 243.5,-123.5"/>
<text text-anchor="start" x="251.5" y="-141.5" font-family="Helvetica,sans-Serif" font-size="10.00">uxn/patl/impl/partial</text>
<text text-anchor="middle" x="301.5" y="-130.5" font-family="Helvetica,sans-Serif" font-size="10.00">_base.hpp</text>
</a>
</g>
</g>
<!-- Node2 -->
<g id="node2" class="node">
<title>Node2</title>
<g id="a_node2"><a xlink:href="../../da/d42/levenshtein_8hpp.html" target="_top" xlink:title=" ">
<polygon fill="none" stroke="black" points="162,-67.5 162,-86.5 299,-86.5 299,-67.5 162,-67.5"/>
<text text-anchor="middle" x="230.5" y="-74.5" font-family="Helvetica,sans-Serif" font-size="10.00">uxn/patl/levenshtein.hpp</text>
</a>
</g>
</g>
<!-- Node1&#45;&gt;Node2 -->
<g id="edge1" class="edge">
<title>Node1&#45;&gt;Node2</title>
<path fill="none" stroke="midnightblue" d="M276.91,-116.89C264.56,-106.54 250.26,-94.56 240.83,-86.66"/>
<polygon fill="midnightblue" stroke="midnightblue" points="274.76,-119.66 284.67,-123.4 279.26,-114.29 274.76,-119.66"/>
</g>
<!-- Node5 -->
<g id="node5" class="node">
<title>Node5</title>
<g id="a_node5"><a xlink:href="../../d2/d92/partial_8hpp.html" target="_top" xlink:title=" ">
<polygon fill="none" stroke="black" points="325.5,-67.5 325.5,-86.5 437.5,-86.5 437.5,-67.5 325.5,-67.5"/>
<text text-anchor="middle" x="381.5" y="-74.5" font-family="Helvetica,sans-Serif" font-size="10.00">uxn/patl/partial.hpp</text>
</a>
</g>
</g>
<!-- Node1&#45;&gt;Node5 -->
<g id="edge4" class="edge">
<title>Node1&#45;&gt;Node5</title>
<path fill="none" stroke="midnightblue" d="M328.81,-117.19C342.82,-106.77 359.14,-94.63 369.86,-86.66"/>
<polygon fill="midnightblue" stroke="midnightblue" points="326.39,-114.62 320.46,-123.4 330.57,-120.24 326.39,-114.62"/>
</g>
<!-- Node3 -->
<g id="node3" class="node">
<title>Node3</title>
<g id="a_node3"><a xlink:href="../../d1/db2/insider_8cpp.html" target="_top" xlink:title=" ">
<polygon fill="none" stroke="black" points="149.5,-6 149.5,-25 311.5,-25 311.5,-6 149.5,-6"/>
<text text-anchor="middle" x="230.5" y="-13" font-family="Helvetica,sans-Serif" font-size="10.00">uxn/demos/insider/insider.cpp</text>
</a>
</g>
</g>
<!-- Node2&#45;&gt;Node3 -->
<g id="edge2" class="edge">
<title>Node2&#45;&gt;Node3</title>
<path fill="none" stroke="midnightblue" d="M230.5,-57.32C230.5,-46.5 230.5,-33.4 230.5,-25.01"/>
<polygon fill="midnightblue" stroke="midnightblue" points="227,-57.48 230.5,-67.48 234,-57.48 227,-57.48"/>
</g>
<!-- Node4 -->
<g id="node4" class="node">
<title>Node4</title>
<g id="a_node4"><a xlink:href="../../de/dd6/levenshtein_8cpp.html" target="_top" xlink:title=" ">
<polygon fill="none" stroke="black" points="0,-0.5 0,-30.5 131,-30.5 131,-0.5 0,-0.5"/>
<text text-anchor="start" x="8" y="-18.5" font-family="Helvetica,sans-Serif" font-size="10.00">uxn/demos/levenshtein</text>
<text text-anchor="middle" x="65.5" y="-7.5" font-family="Helvetica,sans-Serif" font-size="10.00">/levenshtein.cpp</text>
</a>
</g>
</g>
<!-- Node2&#45;&gt;Node4 -->
<g id="edge3" class="edge">
<title>Node2&#45;&gt;Node4</title>
<path fill="none" stroke="midnightblue" d="M197.15,-63.98C170.33,-54.3 132.59,-40.69 104.39,-30.52"/>
<polygon fill="midnightblue" stroke="midnightblue" points="196.27,-67.38 206.86,-67.48 198.64,-60.79 196.27,-67.38"/>
</g>
<!-- Node5&#45;&gt;Node3 -->
<g id="edge5" class="edge">
<title>Node5&#45;&gt;Node3</title>
<path fill="none" stroke="midnightblue" d="M350.49,-63.78C321.15,-52.22 277.87,-35.16 252.09,-25.01"/>
<polygon fill="midnightblue" stroke="midnightblue" points="349.28,-67.07 359.87,-67.48 351.84,-60.55 349.28,-67.07"/>
</g>
<!-- Node6 -->
<g id="node6" class="node">
<title>Node6</title>
<g id="a_node6"><a xlink:href="../../d6/de8/muxoclon_8cpp.html" target="_top" xlink:title=" ">
<polygon fill="none" stroke="black" points="330,-0.5 330,-30.5 451,-30.5 451,-0.5 330,-0.5"/>
<text text-anchor="start" x="338" y="-18.5" font-family="Helvetica,sans-Serif" font-size="10.00">uxn/demos/muxoclon</text>
<text text-anchor="middle" x="390.5" y="-7.5" font-family="Helvetica,sans-Serif" font-size="10.00">/muxoclon.cpp</text>
</a>
</g>
</g>
<!-- Node5&#45;&gt;Node6 -->
<g id="edge6" class="edge">
<title>Node5&#45;&gt;Node6</title>
<path fill="none" stroke="midnightblue" d="M384.29,-57.53C385.61,-48.81 387.16,-38.59 388.38,-30.52"/>
<polygon fill="midnightblue" stroke="midnightblue" points="380.82,-57.06 382.79,-67.48 387.75,-58.11 380.82,-57.06"/>
</g>
<!-- Node7 -->
<g id="node7" class="node">
<title>Node7</title>
<g id="a_node7"><a xlink:href="../../d5/d3f/patcont_8cpp.html" target="_top" xlink:title=" ">
<polygon fill="none" stroke="black" points="469.5,-6 469.5,-25 585.5,-25 585.5,-6 469.5,-6"/>
<text text-anchor="middle" x="527.5" y="-13" font-family="Helvetica,sans-Serif" font-size="10.00">uxn/patl/patcont.cpp</text>
</a>
</g>
</g>
<!-- Node5&#45;&gt;Node7 -->
<g id="edge7" class="edge">
<title>Node5&#45;&gt;Node7</title>
<path fill="none" stroke="midnightblue" d="M411.85,-63.63C440.21,-52.07 481.81,-35.12 506.62,-25.01"/>
<polygon fill="midnightblue" stroke="midnightblue" points="410.36,-60.46 402.42,-67.48 413,-66.94 410.36,-60.46"/>
</g>
</g>
</svg>
