<?xml version="1.0" encoding="UTF-8" standalone="no"?>
<!DOCTYPE svg PUBLIC "-//W3C//DTD SVG 1.1//EN"
 "http://www.w3.org/Graphics/SVG/1.1/DTD/svg11.dtd">
<!-- Generated by graphviz version 5.0.1 (20220820.1526)
 -->
<!-- Title: uxn/patl/super_maxrep_iterator.hpp Pages: 1 -->
<svg width="214pt" height="95pt"
 viewBox="0.00 0.00 214.00 95.00" xmlns="http://www.w3.org/2000/svg" xmlns:xlink="http://www.w3.org/1999/xlink">
<g id="graph0" class="graph" transform="scale(1 1) rotate(0) translate(4 91)">
<title>uxn/patl/super_maxrep_iterator.hpp</title>
<!-- Node1 -->
<g id="node1" class="node">
<title>Node1</title>
<g id="a_node1"><a xlink:title=" ">
<polygon fill="#bfbfbf" stroke="black" points="9.5,-56.5 9.5,-86.5 138.5,-86.5 138.5,-56.5 9.5,-56.5"/>
<text text-anchor="start" x="17.5" y="-74.5" font-family="Helvetica,sans-Serif" font-size="10.00">uxn/patl/super_maxrep</text>
<text text-anchor="middle" x="74" y="-63.5" font-family="Helvetica,sans-Serif" font-size="10.00">_iterator.hpp</text>
</a>
</g>
</g>
<!-- Node2 -->
<g id="node2" class="node">
<title>Node2</title>
<g id="a_node2"><a xlink:title=" ">
<polygon fill="none" stroke="#bfbfbf" points="0,-0.5 0,-19.5 32,-19.5 32,-0.5 0,-0.5"/>
<text text-anchor="middle" x="16" y="-7.5" font-family="Helvetica,sans-Serif" font-size="10.00">set</text>
</a>
</g>
</g>
<!-- Node1&#45;&gt;Node2 -->
<g id="edge1" class="edge">
<title>Node1&#45;&gt;Node2</title>
<path fill="none" stroke="midnightblue" d="M60.25,-56.4C51.65,-47.58 40.55,-36.18 31.61,-27.02"/>
<polygon fill="midnightblue" stroke="midnightblue" points="33.93,-24.38 24.44,-19.66 28.91,-29.26 33.93,-24.38"/>
</g>
<!-- Node3 -->
<g id="node3" class="node">
<title>Node3</title>
<g id="a_node3"><a xlink:title=" ">
<polygon fill="none" stroke="#bfbfbf" points="50.5,-0.5 50.5,-19.5 97.5,-19.5 97.5,-0.5 50.5,-0.5"/>
<text text-anchor="middle" x="74" y="-7.5" font-family="Helvetica,sans-Serif" font-size="10.00">vector</text>
</a>
</g>
</g>
<!-- Node1&#45;&gt;Node3 -->
<g id="edge2" class="edge">
<title>Node1&#45;&gt;Node3</title>
<path fill="none" stroke="midnightblue" d="M74,-56.4C74,-48.47 74,-38.46 74,-29.86"/>
<polygon fill="midnightblue" stroke="midnightblue" points="77.5,-29.66 74,-19.66 70.5,-29.66 77.5,-29.66"/>
</g>
<!-- Node4 -->
<g id="node4" class="node">
<title>Node4</title>
<g id="a_node4"><a xlink:href="../../d0/d34/prefix_8hpp.html" target="_top" xlink:title=" ">
<polygon fill="none" stroke="black" points="116,-0.5 116,-19.5 206,-19.5 206,-0.5 116,-0.5"/>
<text text-anchor="middle" x="161" y="-7.5" font-family="Helvetica,sans-Serif" font-size="10.00">impl/prefix.hpp</text>
</a>
</g>
</g>
<!-- Node1&#45;&gt;Node4 -->
<g id="edge3" class="edge">
<title>Node1&#45;&gt;Node4</title>
<path fill="none" stroke="midnightblue" d="M94.62,-56.4C108.3,-47.04 126.21,-34.79 139.98,-25.38"/>
<polygon fill="midnightblue" stroke="midnightblue" points="142.06,-28.19 148.34,-19.66 138.11,-22.41 142.06,-28.19"/>
</g>
</g>
</svg>
