<?xml version="1.0" encoding="UTF-8" standalone="no"?>
<!DOCTYPE svg PUBLIC "-//W3C//DTD SVG 1.1//EN"
 "http://www.w3.org/Graphics/SVG/1.1/DTD/svg11.dtd">
<!-- Generated by graphviz version 5.0.1 (20220820.1526)
 -->
<!-- Title: uxn::patl::impl::trie_generic::insert Pages: 1 -->
<svg width="385pt" height="373pt"
 viewBox="0.00 0.00 385.00 373.00" xmlns="http://www.w3.org/2000/svg" xmlns:xlink="http://www.w3.org/1999/xlink">
<g id="graph0" class="graph" transform="scale(1 1) rotate(0) translate(4 369)">
<title>uxn::patl::impl::trie_generic::insert</title>
<!-- Node1 -->
<g id="node1" class="node">
<title>Node1</title>
<g id="a_node1"><a xlink:title=" ">
<polygon fill="#bfbfbf" stroke="black" points="267,-172.5 267,-202.5 377,-202.5 377,-172.5 267,-172.5"/>
<text text-anchor="start" x="275" y="-190.5" font-family="Helvetica,sans-Serif" font-size="10.00">uxn::patl::impl::trie</text>
<text text-anchor="middle" x="322" y="-179.5" font-family="Helvetica,sans-Serif" font-size="10.00">_generic::insert</text>
</a>
</g>
</g>
<!-- Node2 -->
<g id="node2" class="node">
<title>Node2</title>
<g id="a_node2"><a xlink:href="../../d0/d55/classuxn_1_1patl_1_1impl_1_1trie__generic_3_01T_00_010_01_4.html#a6ab67a55ca01647d69a45cbb41059b95" target="_top" xlink:title="template of insert range">
<polygon fill="none" stroke="black" points="88,-334.5 88,-364.5 220,-364.5 220,-334.5 88,-334.5"/>
<text text-anchor="start" x="96" y="-352.5" font-family="Helvetica,sans-Serif" font-size="10.00">uxn::patl::impl::trie</text>
<text text-anchor="middle" x="154" y="-341.5" font-family="Helvetica,sans-Serif" font-size="10.00">_generic&lt; T, 0 &gt;::insert</text>
</a>
</g>
</g>
<!-- Node1&#45;&gt;Node2 -->
<g id="edge1" class="edge">
<title>Node1&#45;&gt;Node2</title>
<path fill="none" stroke="midnightblue" d="M311.06,-212.44C297.5,-243.38 270.3,-295.66 231,-325.5 226.48,-328.93 221.46,-331.88 216.22,-334.41"/>
<polygon fill="midnightblue" stroke="midnightblue" points="314.46,-213.41 315.14,-202.84 308.01,-210.68 314.46,-213.41"/>
</g>
<!-- Node3 -->
<g id="node3" class="node">
<title>Node3</title>
<g id="a_node3"><a xlink:href="../../db/dcd/classuxn_1_1patl_1_1impl_1_1trie__generic.html#acecaf24a53d260e2a70c3a1660ad721e" target="_top" xlink:title="just for backward compatibility with std assoc containers">
<polygon fill="none" stroke="black" points="99,-285.5 99,-315.5 209,-315.5 209,-285.5 99,-285.5"/>
<text text-anchor="start" x="107" y="-303.5" font-family="Helvetica,sans-Serif" font-size="10.00">uxn::patl::impl::trie</text>
<text text-anchor="middle" x="154" y="-292.5" font-family="Helvetica,sans-Serif" font-size="10.00">_generic::insert</text>
</a>
</g>
</g>
<!-- Node1&#45;&gt;Node3 -->
<g id="edge2" class="edge">
<title>Node1&#45;&gt;Node3</title>
<path fill="none" stroke="midnightblue" d="M302.65,-210.63C285.88,-230.37 259.43,-258.22 231,-275.5 224.23,-279.61 216.71,-283.13 209.11,-286.12"/>
<polygon fill="midnightblue" stroke="midnightblue" points="305.52,-212.65 309.22,-202.73 300.13,-208.18 305.52,-212.65"/>
</g>
<!-- Node4 -->
<g id="node4" class="node">
<title>Node4</title>
<g id="a_node4"><a xlink:href="../../d1/db2/insider_8cpp.html#ae66f6b31b5ad750f1fe042a706a4e3d4" target="_top" xlink:title=" ">
<polygon fill="none" stroke="black" points="133.5,-247 133.5,-266 174.5,-266 174.5,-247 133.5,-247"/>
<text text-anchor="middle" x="154" y="-254" font-family="Helvetica,sans-Serif" font-size="10.00">main</text>
</a>
</g>
</g>
<!-- Node1&#45;&gt;Node4 -->
<g id="edge3" class="edge">
<title>Node1&#45;&gt;Node4</title>
<path fill="none" stroke="midnightblue" d="M288.95,-208.01C272.2,-218.02 251.06,-229.58 231,-237.5 212.53,-244.79 190.41,-249.95 174.81,-253.03"/>
<polygon fill="midnightblue" stroke="midnightblue" points="291.05,-210.83 297.77,-202.64 287.41,-204.85 291.05,-210.83"/>
</g>
<!-- Node5 -->
<g id="node5" class="node">
<title>Node5</title>
<g id="a_node5"><a xlink:href="../../d0/d55/classuxn_1_1patl_1_1impl_1_1trie__generic_3_01T_00_010_01_4.html#ad08e0b6bcb306c000e90f512f8adf539" target="_top" xlink:title="merge two identical tries (instances of bit_compare must be equal)">
<polygon fill="none" stroke="black" points="86,-197.5 86,-227.5 222,-227.5 222,-197.5 86,-197.5"/>
<text text-anchor="start" x="94" y="-215.5" font-family="Helvetica,sans-Serif" font-size="10.00">uxn::patl::impl::trie</text>
<text text-anchor="middle" x="154" y="-204.5" font-family="Helvetica,sans-Serif" font-size="10.00">_generic&lt; T, 0 &gt;::merge</text>
</a>
</g>
</g>
<!-- Node1&#45;&gt;Node5 -->
<g id="edge4" class="edge">
<title>Node1&#45;&gt;Node5</title>
<path fill="none" stroke="midnightblue" d="M256.49,-197.22C245.26,-198.91 233.55,-200.67 222.24,-202.37"/>
<polygon fill="midnightblue" stroke="midnightblue" points="257.28,-200.64 266.65,-195.69 256.24,-193.71 257.28,-200.64"/>
</g>
<!-- Node6 -->
<g id="node6" class="node">
<title>Node6</title>
<g id="a_node6"><a xlink:href="../../d0/d55/classuxn_1_1patl_1_1impl_1_1trie__generic_3_01T_00_010_01_4.html#a6f500a7ecaca6f652065f8a17c608790" target="_top" xlink:title=" ">
<polygon fill="none" stroke="black" points="77,-148.5 77,-178.5 231,-178.5 231,-148.5 77,-148.5"/>
<text text-anchor="start" x="85" y="-166.5" font-family="Helvetica,sans-Serif" font-size="10.00">uxn::patl::impl::trie</text>
<text text-anchor="middle" x="154" y="-155.5" font-family="Helvetica,sans-Serif" font-size="10.00">_generic&lt; T, 0 &gt;::operator=</text>
</a>
</g>
</g>
<!-- Node1&#45;&gt;Node6 -->
<g id="edge5" class="edge">
<title>Node1&#45;&gt;Node6</title>
<path fill="none" stroke="midnightblue" d="M256.63,-178.19C248.28,-176.99 239.68,-175.74 231.17,-174.51"/>
<polygon fill="midnightblue" stroke="midnightblue" points="256.25,-181.67 266.65,-179.64 257.25,-174.75 256.25,-181.67"/>
</g>
<!-- Node7 -->
<g id="node7" class="node">
<title>Node7</title>
<g id="a_node7"><a xlink:href="../../d6/de8/muxoclon_8cpp.html#a8c4f4d8cc49976be28ff5ce5fef3015a" target="_top" xlink:title=" ">
<polygon fill="none" stroke="black" points="115,-110 115,-129 193,-129 193,-110 115,-110"/>
<text text-anchor="middle" x="154" y="-117" font-family="Helvetica,sans-Serif" font-size="10.00">search_work</text>
</a>
</g>
</g>
<!-- Node1&#45;&gt;Node7 -->
<g id="edge6" class="edge">
<title>Node1&#45;&gt;Node7</title>
<path fill="none" stroke="midnightblue" d="M287.75,-167.37C271.14,-157.94 250.47,-147.14 231,-139.5 218.93,-134.77 205.36,-130.8 193.05,-127.67"/>
<polygon fill="midnightblue" stroke="midnightblue" points="286.12,-170.47 296.53,-172.44 289.62,-164.41 286.12,-170.47"/>
</g>
<!-- Node9 -->
<g id="node9" class="node">
<title>Node9</title>
<g id="a_node9"><a xlink:href="../../d0/d55/classuxn_1_1patl_1_1impl_1_1trie__generic_3_01T_00_010_01_4.html#a6dd70b09913e4246f3d8e618c13ec183" target="_top" xlink:title=" ">
<polygon fill="none" stroke="black" points="93.5,-50 93.5,-91 214.5,-91 214.5,-50 93.5,-50"/>
<text text-anchor="start" x="101.5" y="-79" font-family="Helvetica,sans-Serif" font-size="10.00">uxn::patl::impl::trie</text>
<text text-anchor="start" x="101.5" y="-68" font-family="Helvetica,sans-Serif" font-size="10.00">_generic&lt; T, 0 &gt;::trie</text>
<text text-anchor="middle" x="154" y="-57" font-family="Helvetica,sans-Serif" font-size="10.00">_generic</text>
</a>
</g>
</g>
<!-- Node1&#45;&gt;Node9 -->
<g id="edge8" class="edge">
<title>Node1&#45;&gt;Node9</title>
<path fill="none" stroke="midnightblue" d="M302.05,-164.71C285.07,-145.48 258.66,-118.31 231,-100.5 225.63,-97.04 219.81,-93.88 213.84,-91"/>
<polygon fill="midnightblue" stroke="midnightblue" points="299.53,-167.15 308.72,-172.41 304.82,-162.56 299.53,-167.15"/>
</g>
<!-- Node10 -->
<g id="node10" class="node">
<title>Node10</title>
<g id="a_node10"><a xlink:href="../../de/d34/classstrings__from__merged__files__generator.html#a85dd314b7f28a6c9daeb4f0fe255508f" target="_top" xlink:title=" ">
<polygon fill="none" stroke="black" points="90.5,-0.5 90.5,-30.5 217.5,-30.5 217.5,-0.5 90.5,-0.5"/>
<text text-anchor="start" x="98.5" y="-18.5" font-family="Helvetica,sans-Serif" font-size="10.00">strings_from_merged</text>
<text text-anchor="middle" x="154" y="-7.5" font-family="Helvetica,sans-Serif" font-size="10.00">_files_generator::while</text>
</a>
</g>
</g>
<!-- Node1&#45;&gt;Node10 -->
<g id="edge9" class="edge">
<title>Node1&#45;&gt;Node10</title>
<path fill="none" stroke="midnightblue" d="M312.02,-162.46C299.06,-129.8 272.07,-73.01 231,-40.5 226.1,-36.62 220.57,-33.33 214.79,-30.55"/>
<polygon fill="midnightblue" stroke="midnightblue" points="308.88,-164.06 315.73,-172.15 315.42,-161.56 308.88,-164.06"/>
</g>
<!-- Node8 -->
<g id="node8" class="node">
<title>Node8</title>
<g id="a_node8"><a xlink:href="../../d6/de8/muxoclon_8cpp.html#a0ddf1224851353fc92bfbff6f499fa97" target="_top" xlink:title=" ">
<polygon fill="none" stroke="black" points="0,-110 0,-129 41,-129 41,-110 0,-110"/>
<text text-anchor="middle" x="20.5" y="-117" font-family="Helvetica,sans-Serif" font-size="10.00">main</text>
</a>
</g>
</g>
<!-- Node7&#45;&gt;Node8 -->
<g id="edge7" class="edge">
<title>Node7&#45;&gt;Node8</title>
<path fill="none" stroke="midnightblue" d="M104.77,-119.5C82.78,-119.5 57.97,-119.5 41.2,-119.5"/>
<polygon fill="midnightblue" stroke="midnightblue" points="104.96,-123 114.96,-119.5 104.96,-116 104.96,-123"/>
</g>
</g>
</svg>
