<?xml version="1.0" encoding="UTF-8" standalone="no"?>
<!DOCTYPE svg PUBLIC "-//W3C//DTD SVG 1.1//EN"
 "http://www.w3.org/Graphics/SVG/1.1/DTD/svg11.dtd">
<!-- Generated by graphviz version 5.0.1 (20220820.1526)
 -->
<!-- Title: main Pages: 1 -->
<svg width="403pt" height="548pt"
 viewBox="0.00 0.00 403.00 548.00" xmlns="http://www.w3.org/2000/svg" xmlns:xlink="http://www.w3.org/1999/xlink">
<g id="graph0" class="graph" transform="scale(1 1) rotate(0) translate(4 544)">
<title>main</title>
<!-- Node1 -->
<g id="node1" class="node">
<title>Node1</title>
<g id="a_node1"><a xlink:title=" ">
<polygon fill="#bfbfbf" stroke="black" points="0,-315 0,-334 41,-334 41,-315 0,-315"/>
<text text-anchor="middle" x="20.5" y="-322" font-family="Helvetica,sans-Serif" font-size="10.00">main</text>
</a>
</g>
</g>
<!-- Node2 -->
<g id="node2" class="node">
<title>Node2</title>
<g id="a_node2"><a xlink:href="../../dd/d0e/namespaceuxn_1_1patl_1_1impl.html#ac8acd4c59fec5857a380b4885796f019" target="_top" xlink:title=" ">
<polygon fill="none" stroke="black" points="77,-364 77,-383 210,-383 210,-364 77,-364"/>
<text text-anchor="middle" x="143.5" y="-371" font-family="Helvetica,sans-Serif" font-size="10.00">uxn::patl::impl::get_min</text>
</a>
</g>
</g>
<!-- Node1&#45;&gt;Node2 -->
<g id="edge1" class="edge">
<title>Node1&#45;&gt;Node2</title>
<path fill="none" stroke="midnightblue" d="M37.09,-334.09C47.98,-340.5 63.01,-348.77 77,-354.5 82.54,-356.77 88.46,-358.89 94.37,-360.82"/>
<polygon fill="midnightblue" stroke="midnightblue" points="93.69,-364.27 104.28,-363.9 95.76,-357.59 93.69,-364.27"/>
</g>
<!-- Node3 -->
<g id="node3" class="node">
<title>Node3</title>
<g id="a_node3"><a xlink:href="../../d3/d81/classuxn_1_1patl_1_1impl_1_1const__vertex__generic.html#a86f20dc60a82510d7d9aff138f15c273" target="_top" xlink:title=" ">
<polygon fill="none" stroke="black" points="79.5,-304 79.5,-345 207.5,-345 207.5,-304 79.5,-304"/>
<text text-anchor="start" x="87.5" y="-333" font-family="Helvetica,sans-Serif" font-size="10.00">uxn::patl::impl::const</text>
<text text-anchor="start" x="87.5" y="-322" font-family="Helvetica,sans-Serif" font-size="10.00">_vertex_generic::prefix</text>
<text text-anchor="middle" x="143.5" y="-311" font-family="Helvetica,sans-Serif" font-size="10.00">_length</text>
</a>
</g>
</g>
<!-- Node1&#45;&gt;Node3 -->
<g id="edge2" class="edge">
<title>Node1&#45;&gt;Node3</title>
<path fill="none" stroke="midnightblue" d="M41.21,-324.5C49.23,-324.5 59.04,-324.5 69.36,-324.5"/>
<polygon fill="midnightblue" stroke="midnightblue" points="69.37,-328 79.37,-324.5 69.37,-321 69.37,-328"/>
</g>
<!-- Node4 -->
<g id="node4" class="node">
<title>Node4</title>
<g id="a_node4"><a xlink:href="../../dd/dbb/classuxn_1_1patl_1_1suffix__set.html#ae50776c104b736774600b2977c86cc5a" target="_top" xlink:title=" ">
<polygon fill="none" stroke="black" points="87,-254.5 87,-284.5 200,-284.5 200,-254.5 87,-254.5"/>
<text text-anchor="start" x="95" y="-272.5" font-family="Helvetica,sans-Serif" font-size="10.00">uxn::patl::suffix_set</text>
<text text-anchor="middle" x="143.5" y="-261.5" font-family="Helvetica,sans-Serif" font-size="10.00">::push_back</text>
</a>
</g>
</g>
<!-- Node1&#45;&gt;Node4 -->
<g id="edge3" class="edge">
<title>Node1&#45;&gt;Node4</title>
<path fill="none" stroke="midnightblue" d="M37.73,-315C48.64,-308.79 63.46,-300.71 77,-294.5 81.58,-292.4 86.4,-290.32 91.25,-288.32"/>
<polygon fill="midnightblue" stroke="midnightblue" points="92.61,-291.54 100.58,-284.56 90,-285.05 92.61,-291.54"/>
</g>
<!-- Node5 -->
<g id="node5" class="node">
<title>Node5</title>
<g id="a_node5"><a xlink:href="../../db/db7/classuxn_1_1patl_1_1impl_1_1suffix__generic.html#a5f1a79ec8899f0e12680cb343470cc11" target="_top" xlink:title=" ">
<polygon fill="none" stroke="black" points="250.5,-465.5 250.5,-539.5 390.5,-539.5 390.5,-465.5 250.5,-465.5"/>
<text text-anchor="start" x="258.5" y="-527.5" font-family="Helvetica,sans-Serif" font-size="10.00">uxn::patl::impl::suffix</text>
<text text-anchor="start" x="258.5" y="-516.5" font-family="Helvetica,sans-Serif" font-size="10.00">_generic&lt; impl::suffix</text>
<text text-anchor="start" x="258.5" y="-505.5" font-family="Helvetica,sans-Serif" font-size="10.00">_set_traits&lt; Type, 0, 1,</text>
<text text-anchor="start" x="258.5" y="-494.5" font-family="Helvetica,sans-Serif" font-size="10.00"> bit_comparator&lt; Type, 0</text>
<text text-anchor="start" x="258.5" y="-483.5" font-family="Helvetica,sans-Serif" font-size="10.00"> &gt;, std::allocator&lt; Type</text>
<text text-anchor="middle" x="320.5" y="-472.5" font-family="Helvetica,sans-Serif" font-size="10.00"> &gt; &gt; &gt;::capacity</text>
</a>
</g>
</g>
<!-- Node4&#45;&gt;Node5 -->
<g id="edge4" class="edge">
<title>Node4&#45;&gt;Node5</title>
<path fill="none" stroke="midnightblue" d="M198.28,-284.59C202.65,-287.36 206.66,-290.63 210,-294.5 258.21,-350.32 203.44,-396.26 246,-456.5 246.2,-456.79 246.41,-457.07 246.62,-457.36"/>
<polygon fill="midnightblue" stroke="midnightblue" points="244.14,-459.86 253.27,-465.24 249.49,-455.34 244.14,-459.86"/>
</g>
<!-- Node6 -->
<g id="node6" class="node">
<title>Node6</title>
<g id="a_node6"><a xlink:href="../../db/db7/classuxn_1_1patl_1_1impl_1_1suffix__generic.html#a19845a4d480875e2b697c49d19bfa1ce" target="_top" xlink:title="return true if suffix_cont is empty OR full">
<polygon fill="none" stroke="black" points="250.5,-372.5 250.5,-446.5 390.5,-446.5 390.5,-372.5 250.5,-372.5"/>
<text text-anchor="start" x="258.5" y="-434.5" font-family="Helvetica,sans-Serif" font-size="10.00">uxn::patl::impl::suffix</text>
<text text-anchor="start" x="258.5" y="-423.5" font-family="Helvetica,sans-Serif" font-size="10.00">_generic&lt; impl::suffix</text>
<text text-anchor="start" x="258.5" y="-412.5" font-family="Helvetica,sans-Serif" font-size="10.00">_set_traits&lt; Type, 0, 1,</text>
<text text-anchor="start" x="258.5" y="-401.5" font-family="Helvetica,sans-Serif" font-size="10.00"> bit_comparator&lt; Type, 0</text>
<text text-anchor="start" x="258.5" y="-390.5" font-family="Helvetica,sans-Serif" font-size="10.00"> &gt;, std::allocator&lt; Type</text>
<text text-anchor="middle" x="320.5" y="-379.5" font-family="Helvetica,sans-Serif" font-size="10.00"> &gt; &gt; &gt;::endpoint</text>
</a>
</g>
</g>
<!-- Node4&#45;&gt;Node6 -->
<g id="edge5" class="edge">
<title>Node4&#45;&gt;Node6</title>
<path fill="none" stroke="midnightblue" d="M195.31,-284.5C200.61,-287.31 205.64,-290.62 210,-294.5 235.84,-317.5 222.52,-338.1 246,-363.5 246.63,-364.18 247.26,-364.85 247.91,-365.51"/>
<polygon fill="midnightblue" stroke="midnightblue" points="245.57,-368.11 255.25,-372.4 250.35,-363 245.57,-368.11"/>
</g>
<!-- Node7 -->
<g id="node7" class="node">
<title>Node7</title>
<g id="a_node7"><a xlink:href="../../db/db7/classuxn_1_1patl_1_1impl_1_1suffix__generic.html#a3758d1f5bf1e70bd5f67a7edb7d7971f" target="_top" xlink:title=" ">
<polygon fill="none" stroke="black" points="246,-279.5 246,-353.5 395,-353.5 395,-279.5 246,-279.5"/>
<text text-anchor="start" x="254" y="-341.5" font-family="Helvetica,sans-Serif" font-size="10.00">uxn::patl::impl::suffix</text>
<text text-anchor="start" x="254" y="-330.5" font-family="Helvetica,sans-Serif" font-size="10.00">_generic&lt; impl::suffix</text>
<text text-anchor="start" x="254" y="-319.5" font-family="Helvetica,sans-Serif" font-size="10.00">_set_traits&lt; Type, 0, 1,</text>
<text text-anchor="start" x="254" y="-308.5" font-family="Helvetica,sans-Serif" font-size="10.00"> bit_comparator&lt; Type, 0</text>
<text text-anchor="start" x="254" y="-297.5" font-family="Helvetica,sans-Serif" font-size="10.00"> &gt;, std::allocator&lt; Type</text>
<text text-anchor="middle" x="320.5" y="-286.5" font-family="Helvetica,sans-Serif" font-size="10.00"> &gt; &gt; &gt;::push_back_generic</text>
</a>
</g>
</g>
<!-- Node4&#45;&gt;Node7 -->
<g id="edge6" class="edge">
<title>Node4&#45;&gt;Node7</title>
<path fill="none" stroke="midnightblue" d="M200.35,-284.5C211.8,-287.57 224.08,-290.87 236.25,-294.14"/>
<polygon fill="midnightblue" stroke="midnightblue" points="235.4,-297.54 245.96,-296.75 237.21,-290.78 235.4,-297.54"/>
</g>
<!-- Node8 -->
<g id="node8" class="node">
<title>Node8</title>
<g id="a_node8"><a xlink:href="../../db/db7/classuxn_1_1patl_1_1impl_1_1suffix__generic.html#a52f5d589814ab7cf08b9840cb90f1377" target="_top" xlink:title=" ">
<polygon fill="none" stroke="black" points="250.5,-186.5 250.5,-260.5 390.5,-260.5 390.5,-186.5 250.5,-186.5"/>
<text text-anchor="start" x="258.5" y="-248.5" font-family="Helvetica,sans-Serif" font-size="10.00">uxn::patl::impl::suffix</text>
<text text-anchor="start" x="258.5" y="-237.5" font-family="Helvetica,sans-Serif" font-size="10.00">_generic&lt; impl::suffix</text>
<text text-anchor="start" x="258.5" y="-226.5" font-family="Helvetica,sans-Serif" font-size="10.00">_set_traits&lt; Type, 0, 1,</text>
<text text-anchor="start" x="258.5" y="-215.5" font-family="Helvetica,sans-Serif" font-size="10.00"> bit_comparator&lt; Type, 0</text>
<text text-anchor="start" x="258.5" y="-204.5" font-family="Helvetica,sans-Serif" font-size="10.00"> &gt;, std::allocator&lt; Type</text>
<text text-anchor="middle" x="320.5" y="-193.5" font-family="Helvetica,sans-Serif" font-size="10.00"> &gt; &gt; &gt;::push_back_root</text>
</a>
</g>
</g>
<!-- Node4&#45;&gt;Node8 -->
<g id="edge7" class="edge">
<title>Node4&#45;&gt;Node8</title>
<path fill="none" stroke="midnightblue" d="M200.35,-254.82C213.15,-251.45 226.99,-247.82 240.56,-244.25"/>
<polygon fill="midnightblue" stroke="midnightblue" points="241.59,-247.6 250.37,-241.67 239.81,-240.83 241.59,-247.6"/>
</g>
<!-- Node9 -->
<g id="node9" class="node">
<title>Node9</title>
<g id="a_node9"><a xlink:href="../../db/db7/classuxn_1_1patl_1_1impl_1_1suffix__generic.html#a3a8ccdc542ec789f363fbfacb3d3e344" target="_top" xlink:title=" ">
<polygon fill="none" stroke="black" points="250.5,-93.5 250.5,-167.5 390.5,-167.5 390.5,-93.5 250.5,-93.5"/>
<text text-anchor="start" x="258.5" y="-155.5" font-family="Helvetica,sans-Serif" font-size="10.00">uxn::patl::impl::suffix</text>
<text text-anchor="start" x="258.5" y="-144.5" font-family="Helvetica,sans-Serif" font-size="10.00">_generic&lt; impl::suffix</text>
<text text-anchor="start" x="258.5" y="-133.5" font-family="Helvetica,sans-Serif" font-size="10.00">_set_traits&lt; Type, 0, 1,</text>
<text text-anchor="start" x="258.5" y="-122.5" font-family="Helvetica,sans-Serif" font-size="10.00"> bit_comparator&lt; Type, 0</text>
<text text-anchor="start" x="258.5" y="-111.5" font-family="Helvetica,sans-Serif" font-size="10.00"> &gt;, std::allocator&lt; Type</text>
<text text-anchor="middle" x="320.5" y="-100.5" font-family="Helvetica,sans-Serif" font-size="10.00"> &gt; &gt; &gt;::reserve</text>
</a>
</g>
</g>
<!-- Node4&#45;&gt;Node9 -->
<g id="edge8" class="edge">
<title>Node4&#45;&gt;Node9</title>
<path fill="none" stroke="midnightblue" d="M159.62,-254.31C178.85,-235.33 213.5,-202.34 246,-177.5 247.76,-176.15 249.56,-174.81 251.39,-173.47"/>
<polygon fill="midnightblue" stroke="midnightblue" points="253.45,-176.3 259.55,-167.64 249.38,-170.6 253.45,-176.3"/>
</g>
<!-- Node10 -->
<g id="node10" class="node">
<title>Node10</title>
<g id="a_node10"><a xlink:href="../../db/db7/classuxn_1_1patl_1_1impl_1_1suffix__generic.html#aa40451084d31ec23114745757ca30371" target="_top" xlink:title=" ">
<polygon fill="none" stroke="black" points="250.5,-0.5 250.5,-74.5 390.5,-74.5 390.5,-0.5 250.5,-0.5"/>
<text text-anchor="start" x="258.5" y="-62.5" font-family="Helvetica,sans-Serif" font-size="10.00">uxn::patl::impl::suffix</text>
<text text-anchor="start" x="258.5" y="-51.5" font-family="Helvetica,sans-Serif" font-size="10.00">_generic&lt; impl::suffix</text>
<text text-anchor="start" x="258.5" y="-40.5" font-family="Helvetica,sans-Serif" font-size="10.00">_set_traits&lt; Type, 0, 1,</text>
<text text-anchor="start" x="258.5" y="-29.5" font-family="Helvetica,sans-Serif" font-size="10.00"> bit_comparator&lt; Type, 0</text>
<text text-anchor="start" x="258.5" y="-18.5" font-family="Helvetica,sans-Serif" font-size="10.00"> &gt;, std::allocator&lt; Type</text>
<text text-anchor="middle" x="320.5" y="-7.5" font-family="Helvetica,sans-Serif" font-size="10.00"> &gt; &gt; &gt;::size</text>
</a>
</g>
</g>
<!-- Node4&#45;&gt;Node10 -->
<g id="edge9" class="edge">
<title>Node4&#45;&gt;Node10</title>
<path fill="none" stroke="midnightblue" d="M149.76,-254.5C162.16,-220.83 195.96,-138.02 246,-84.5 246.9,-83.54 247.83,-82.58 248.77,-81.64"/>
<polygon fill="midnightblue" stroke="midnightblue" points="251.39,-83.99 256.4,-74.65 246.67,-78.83 251.39,-83.99"/>
</g>
</g>
</svg>
