<?xml version="1.0" encoding="UTF-8" standalone="no"?>
<!DOCTYPE svg PUBLIC "-//W3C//DTD SVG 1.1//EN"
 "http://www.w3.org/Graphics/SVG/1.1/DTD/svg11.dtd">
<!-- Generated by graphviz version 5.0.1 (20220820.1526)
 -->
<!-- Title: uxn/patl/unordered.hpp Pages: 1 -->
<svg width="466pt" height="196pt"
 viewBox="0.00 0.00 466.00 196.00" xmlns="http://www.w3.org/2000/svg" xmlns:xlink="http://www.w3.org/1999/xlink">
<g id="graph0" class="graph" transform="scale(1 1) rotate(0) translate(4 192)">
<title>uxn/patl/unordered.hpp</title>
<!-- Node1 -->
<g id="node1" class="node">
<title>Node1</title>
<g id="a_node1"><a xlink:title=" ">
<polygon fill="#bfbfbf" stroke="black" points="111,-168.5 111,-187.5 241,-187.5 241,-168.5 111,-168.5"/>
<text text-anchor="middle" x="176" y="-175.5" font-family="Helvetica,sans-Serif" font-size="10.00">uxn/patl/unordered.hpp</text>
</a>
</g>
</g>
<!-- Node2 -->
<g id="node2" class="node">
<title>Node2</title>
<g id="a_node2"><a xlink:title=" ">
<polygon fill="none" stroke="#bfbfbf" points="84,-112.5 84,-131.5 148,-131.5 148,-112.5 84,-112.5"/>
<text text-anchor="middle" x="116" y="-119.5" font-family="Helvetica,sans-Serif" font-size="10.00">algorithm</text>
</a>
</g>
</g>
<!-- Node1&#45;&gt;Node2 -->
<g id="edge1" class="edge">
<title>Node1&#45;&gt;Node2</title>
<path fill="none" stroke="midnightblue" d="M166.36,-168.32C157.49,-160.34 144.13,-148.31 133.39,-138.65"/>
<polygon fill="midnightblue" stroke="midnightblue" points="135.59,-135.92 125.82,-131.83 130.91,-141.13 135.59,-135.92"/>
</g>
<!-- Node3 -->
<g id="node3" class="node">
<title>Node3</title>
<g id="a_node3"><a xlink:href="../../d9/d3a/trivial_8hpp.html" target="_top" xlink:title=" ">
<polygon fill="none" stroke="black" points="122.5,-56.5 122.5,-75.5 213.5,-75.5 213.5,-56.5 122.5,-56.5"/>
<text text-anchor="middle" x="168" y="-63.5" font-family="Helvetica,sans-Serif" font-size="10.00">impl/trivial.hpp</text>
</a>
</g>
</g>
<!-- Node1&#45;&gt;Node3 -->
<g id="edge2" class="edge">
<title>Node1&#45;&gt;Node3</title>
<path fill="none" stroke="midnightblue" d="M175.37,-168.37C174.08,-150.62 171.1,-109.67 169.35,-85.6"/>
<polygon fill="midnightblue" stroke="midnightblue" points="172.84,-85.31 168.62,-75.59 165.86,-85.82 172.84,-85.31"/>
</g>
<!-- Node8 -->
<g id="node8" class="node">
<title>Node8</title>
<g id="a_node8"><a xlink:href="../../d3/dee/primes_8hpp.html" target="_top" xlink:title=" ">
<polygon fill="none" stroke="black" points="213,-112.5 213,-131.5 309,-131.5 309,-112.5 213,-112.5"/>
<text text-anchor="middle" x="261" y="-119.5" font-family="Helvetica,sans-Serif" font-size="10.00">impl/primes.hpp</text>
</a>
</g>
</g>
<!-- Node1&#45;&gt;Node8 -->
<g id="edge7" class="edge">
<title>Node1&#45;&gt;Node8</title>
<path fill="none" stroke="midnightblue" d="M189.66,-168.32C202.92,-159.9 223.27,-146.97 238.85,-137.07"/>
<polygon fill="midnightblue" stroke="midnightblue" points="240.81,-139.97 247.38,-131.65 237.06,-134.06 240.81,-139.97"/>
</g>
<!-- Node4 -->
<g id="node4" class="node">
<title>Node4</title>
<g id="a_node4"><a xlink:href="../../d8/dfd/config_8hpp.html" target="_top" xlink:title=" ">
<polygon fill="none" stroke="black" points="0,-0.5 0,-19.5 76,-19.5 76,-0.5 0,-0.5"/>
<text text-anchor="middle" x="38" y="-7.5" font-family="Helvetica,sans-Serif" font-size="10.00">../config.hpp</text>
</a>
</g>
</g>
<!-- Node3&#45;&gt;Node4 -->
<g id="edge3" class="edge">
<title>Node3&#45;&gt;Node4</title>
<path fill="none" stroke="midnightblue" d="M147.4,-56.44C126.01,-47.56 92.32,-33.56 67.98,-23.45"/>
<polygon fill="midnightblue" stroke="midnightblue" points="69.08,-20.12 58.5,-19.52 66.39,-26.58 69.08,-20.12"/>
</g>
<!-- Node5 -->
<g id="node5" class="node">
<title>Node5</title>
<g id="a_node5"><a xlink:title=" ">
<polygon fill="none" stroke="#bfbfbf" points="94.5,-0.5 94.5,-19.5 163.5,-19.5 163.5,-0.5 94.5,-0.5"/>
<text text-anchor="middle" x="129" y="-7.5" font-family="Helvetica,sans-Serif" font-size="10.00">type_traits</text>
</a>
</g>
</g>
<!-- Node3&#45;&gt;Node5 -->
<g id="edge4" class="edge">
<title>Node3&#45;&gt;Node5</title>
<path fill="none" stroke="midnightblue" d="M161.56,-56.08C156.05,-48.46 147.97,-37.26 141.24,-27.94"/>
<polygon fill="midnightblue" stroke="midnightblue" points="144.01,-25.81 135.32,-19.75 138.34,-29.91 144.01,-25.81"/>
</g>
<!-- Node6 -->
<g id="node6" class="node">
<title>Node6</title>
<g id="a_node6"><a xlink:title=" ">
<polygon fill="none" stroke="#bfbfbf" points="182,-0.5 182,-19.5 234,-19.5 234,-0.5 182,-0.5"/>
<text text-anchor="middle" x="208" y="-7.5" font-family="Helvetica,sans-Serif" font-size="10.00">cassert</text>
</a>
</g>
</g>
<!-- Node3&#45;&gt;Node6 -->
<g id="edge5" class="edge">
<title>Node3&#45;&gt;Node6</title>
<path fill="none" stroke="midnightblue" d="M174.61,-56.08C180.26,-48.46 188.54,-37.26 195.45,-27.94"/>
<polygon fill="midnightblue" stroke="midnightblue" points="198.38,-29.87 201.52,-19.75 192.75,-25.7 198.38,-29.87"/>
</g>
<!-- Node7 -->
<g id="node7" class="node">
<title>Node7</title>
<g id="a_node7"><a xlink:title=" ">
<polygon fill="none" stroke="#bfbfbf" points="252.5,-0.5 252.5,-19.5 303.5,-19.5 303.5,-0.5 252.5,-0.5"/>
<text text-anchor="middle" x="278" y="-7.5" font-family="Helvetica,sans-Serif" font-size="10.00">intrin.h</text>
</a>
</g>
</g>
<!-- Node3&#45;&gt;Node7 -->
<g id="edge6" class="edge">
<title>Node3&#45;&gt;Node7</title>
<path fill="none" stroke="midnightblue" d="M185.67,-56.32C203.39,-47.62 230.9,-34.12 251.29,-24.11"/>
<polygon fill="midnightblue" stroke="midnightblue" points="252.94,-27.2 260.37,-19.65 249.85,-20.92 252.94,-27.2"/>
</g>
<!-- Node8&#45;&gt;Node3 -->
<g id="edge11" class="edge">
<title>Node8&#45;&gt;Node3</title>
<path fill="none" stroke="midnightblue" d="M246.06,-112.32C231.41,-103.82 208.87,-90.73 191.76,-80.8"/>
<polygon fill="midnightblue" stroke="midnightblue" points="193.31,-77.65 182.9,-75.65 189.8,-83.7 193.31,-77.65"/>
</g>
<!-- Node9 -->
<g id="node9" class="node">
<title>Node9</title>
<g id="a_node9"><a xlink:title=" ">
<polygon fill="none" stroke="#bfbfbf" points="232,-56.5 232,-75.5 290,-75.5 290,-56.5 232,-56.5"/>
<text text-anchor="middle" x="261" y="-63.5" font-family="Helvetica,sans-Serif" font-size="10.00">memory</text>
</a>
</g>
</g>
<!-- Node8&#45;&gt;Node9 -->
<g id="edge8" class="edge">
<title>Node8&#45;&gt;Node9</title>
<path fill="none" stroke="midnightblue" d="M261,-112.08C261,-105.01 261,-94.86 261,-85.99"/>
<polygon fill="midnightblue" stroke="midnightblue" points="264.5,-85.75 261,-75.75 257.5,-85.75 264.5,-85.75"/>
</g>
<!-- Node10 -->
<g id="node10" class="node">
<title>Node10</title>
<g id="a_node10"><a xlink:title=" ">
<polygon fill="none" stroke="#bfbfbf" points="308.5,-56.5 308.5,-75.5 355.5,-75.5 355.5,-56.5 308.5,-56.5"/>
<text text-anchor="middle" x="332" y="-63.5" font-family="Helvetica,sans-Serif" font-size="10.00">cmath</text>
</a>
</g>
</g>
<!-- Node8&#45;&gt;Node10 -->
<g id="edge9" class="edge">
<title>Node8&#45;&gt;Node10</title>
<path fill="none" stroke="midnightblue" d="M272.41,-112.32C283.11,-104.18 299.34,-91.84 312.16,-82.09"/>
<polygon fill="midnightblue" stroke="midnightblue" points="314.54,-84.67 320.39,-75.83 310.31,-79.1 314.54,-84.67"/>
</g>
<!-- Node11 -->
<g id="node11" class="node">
<title>Node11</title>
<g id="a_node11"><a xlink:href="../../d6/d3c/generator_8hpp.html" target="_top" xlink:title=" ">
<polygon fill="none" stroke="black" points="374,-56.5 374,-75.5 458,-75.5 458,-56.5 374,-56.5"/>
<text text-anchor="middle" x="416" y="-63.5" font-family="Helvetica,sans-Serif" font-size="10.00">generator.hpp</text>
</a>
</g>
</g>
<!-- Node8&#45;&gt;Node11 -->
<g id="edge10" class="edge">
<title>Node8&#45;&gt;Node11</title>
<path fill="none" stroke="midnightblue" d="M285.56,-112.44C311.52,-103.4 352.67,-89.06 381.8,-78.92"/>
<polygon fill="midnightblue" stroke="midnightblue" points="383.26,-82.11 391.55,-75.52 380.96,-75.5 383.26,-82.11"/>
</g>
</g>
</svg>
