<?xml version="1.0" encoding="UTF-8" standalone="no"?>
<!DOCTYPE svg PUBLIC "-//W3C//DTD SVG 1.1//EN"
 "http://www.w3.org/Graphics/SVG/1.1/DTD/svg11.dtd">
<!-- Generated by graphviz version 5.0.1 (20220820.1526)
 -->
<!-- Title: uxn::patl::impl::suffix_generic::match_iterator::operator++ Pages: 1 -->
<svg width="315pt" height="225pt"
 viewBox="0.00 0.00 315.00 224.50" xmlns="http://www.w3.org/2000/svg" xmlns:xlink="http://www.w3.org/1999/xlink">
<g id="graph0" class="graph" transform="scale(1 1) rotate(0) translate(4 220.5)">
<title>uxn::patl::impl::suffix_generic::match_iterator::operator++</title>
<!-- Node1 -->
<g id="node1" class="node">
<title>Node1</title>
<g id="a_node1"><a xlink:title=" ">
<polygon fill="#bfbfbf" stroke="black" points="0,-82.5 0,-123.5 136,-123.5 136,-82.5 0,-82.5"/>
<text text-anchor="start" x="8" y="-111.5" font-family="Helvetica,sans-Serif" font-size="10.00">uxn::patl::impl::suffix</text>
<text text-anchor="start" x="8" y="-100.5" font-family="Helvetica,sans-Serif" font-size="10.00">_generic::match_iterator</text>
<text text-anchor="middle" x="68" y="-89.5" font-family="Helvetica,sans-Serif" font-size="10.00">::operator++</text>
</a>
</g>
</g>
<!-- Node2 -->
<g id="node2" class="node">
<title>Node2</title>
<g id="a_node2"><a xlink:href="../../d3/d81/classuxn_1_1patl_1_1impl_1_1const__vertex__generic.html#a49c99f57e0a6f4a19587545e591b5508" target="_top" xlink:title=" ">
<polygon fill="none" stroke="black" points="172,-186 172,-216 307,-216 307,-186 172,-186"/>
<text text-anchor="start" x="180" y="-204" font-family="Helvetica,sans-Serif" font-size="10.00">uxn::patl::impl::const</text>
<text text-anchor="middle" x="239.5" y="-193" font-family="Helvetica,sans-Serif" font-size="10.00">_vertex_generic::ascend</text>
</a>
</g>
</g>
<!-- Node1&#45;&gt;Node2 -->
<g id="edge1" class="edge">
<title>Node1&#45;&gt;Node2</title>
<path fill="none" stroke="midnightblue" d="M93.54,-123.62C113.65,-139.76 143.36,-161.92 172,-177 175.29,-178.73 178.73,-180.39 182.24,-181.97"/>
<polygon fill="midnightblue" stroke="midnightblue" points="181.07,-185.27 191.64,-185.95 183.8,-178.83 181.07,-185.27"/>
</g>
<!-- Node3 -->
<g id="node3" class="node">
<title>Node3</title>
<g id="a_node3"><a xlink:href="../../d7/ddc/classuxn_1_1patl_1_1impl_1_1ring__buffer.html#a91e3e603e6e1dba1912967bea3194b69" target="_top" xlink:title=" ">
<polygon fill="none" stroke="black" points="183.5,-137 183.5,-167 295.5,-167 295.5,-137 183.5,-137"/>
<text text-anchor="start" x="191.5" y="-155" font-family="Helvetica,sans-Serif" font-size="10.00">uxn::patl::impl::ring</text>
<text text-anchor="middle" x="239.5" y="-144" font-family="Helvetica,sans-Serif" font-size="10.00">_buffer::back</text>
</a>
</g>
</g>
<!-- Node1&#45;&gt;Node3 -->
<g id="edge2" class="edge">
<title>Node1&#45;&gt;Node3</title>
<path fill="none" stroke="midnightblue" d="M136.48,-122.51C149.72,-126.34 163.55,-130.33 176.6,-134.11"/>
<polygon fill="midnightblue" stroke="midnightblue" points="175.82,-137.52 186.4,-136.94 177.77,-130.8 175.82,-137.52"/>
</g>
<!-- Node4 -->
<g id="node4" class="node">
<title>Node4</title>
<g id="a_node4"><a xlink:href="../../d3/d81/classuxn_1_1patl_1_1impl_1_1const__vertex__generic.html#a38fcf0a25b383ffc9f67b0f23ec98c23" target="_top" xlink:title=" ">
<polygon fill="none" stroke="black" points="178.5,-88 178.5,-118 300.5,-118 300.5,-88 178.5,-88"/>
<text text-anchor="start" x="186.5" y="-106" font-family="Helvetica,sans-Serif" font-size="10.00">uxn::patl::impl::const</text>
<text text-anchor="middle" x="239.5" y="-95" font-family="Helvetica,sans-Serif" font-size="10.00">_vertex_generic::cont</text>
</a>
</g>
</g>
<!-- Node1&#45;&gt;Node4 -->
<g id="edge3" class="edge">
<title>Node1&#45;&gt;Node4</title>
<path fill="none" stroke="midnightblue" d="M136.48,-103C146.86,-103 157.61,-103 168.06,-103"/>
<polygon fill="midnightblue" stroke="midnightblue" points="168.38,-106.5 178.38,-103 168.38,-99.5 168.38,-106.5"/>
</g>
<!-- Node5 -->
<g id="node5" class="node">
<title>Node5</title>
<g id="a_node5"><a xlink:href="../../d7/ddc/classuxn_1_1patl_1_1impl_1_1ring__buffer.html#a46509d429ebd358e00f07e6f4dbfb13b" target="_top" xlink:title=" ">
<polygon fill="none" stroke="black" points="183.5,-39 183.5,-69 295.5,-69 295.5,-39 183.5,-39"/>
<text text-anchor="start" x="191.5" y="-57" font-family="Helvetica,sans-Serif" font-size="10.00">uxn::patl::impl::ring</text>
<text text-anchor="middle" x="239.5" y="-46" font-family="Helvetica,sans-Serif" font-size="10.00">_buffer::following</text>
</a>
</g>
</g>
<!-- Node1&#45;&gt;Node5 -->
<g id="edge4" class="edge">
<title>Node1&#45;&gt;Node5</title>
<path fill="none" stroke="midnightblue" d="M136.48,-83.49C149.72,-79.66 163.55,-75.67 176.6,-71.89"/>
<polygon fill="midnightblue" stroke="midnightblue" points="177.77,-75.2 186.4,-69.06 175.82,-68.48 177.77,-75.2"/>
</g>
<!-- Node6 -->
<g id="node6" class="node">
<title>Node6</title>
<g id="a_node6"><a xlink:href="../../dd/d0e/namespaceuxn_1_1patl_1_1impl.html#ab90f63027d43b408cc70d2f0db94c9fc" target="_top" xlink:title=" ">
<polygon fill="none" stroke="black" points="179,-0.5 179,-19.5 300,-19.5 300,-0.5 179,-0.5"/>
<text text-anchor="middle" x="239.5" y="-7.5" font-family="Helvetica,sans-Serif" font-size="10.00">uxn::patl::impl::max0</text>
</a>
</g>
</g>
<!-- Node1&#45;&gt;Node6 -->
<g id="edge5" class="edge">
<title>Node1&#45;&gt;Node6</title>
<path fill="none" stroke="midnightblue" d="M93.37,-82.26C113.39,-66.11 143.05,-44.14 172,-30 177.41,-27.36 183.25,-24.98 189.13,-22.87"/>
<polygon fill="midnightblue" stroke="midnightblue" points="190.64,-26.06 199.01,-19.58 188.42,-19.42 190.64,-26.06"/>
</g>
</g>
</svg>
