<?xml version="1.0" encoding="UTF-8" standalone="no"?>
<!DOCTYPE svg PUBLIC "-//W3C//DTD SVG 1.1//EN"
 "http://www.w3.org/Graphics/SVG/1.1/DTD/svg11.dtd">
<!-- Generated by graphviz version 5.0.1 (20220820.1526)
 -->
<!-- Title: uxn::patl::impl::lca_base::set_inode Pages: 1 -->
<svg width="560pt" height="61pt"
 viewBox="0.00 0.00 560.00 61.00" xmlns="http://www.w3.org/2000/svg" xmlns:xlink="http://www.w3.org/1999/xlink">
<g id="graph0" class="graph" transform="scale(1 1) rotate(0) translate(4 57)">
<title>uxn::patl::impl::lca_base::set_inode</title>
<!-- Node1 -->
<g id="node1" class="node">
<title>Node1</title>
<g id="a_node1"><a xlink:title=" ">
<polygon fill="#bfbfbf" stroke="black" points="445,-22.5 445,-52.5 552,-52.5 552,-22.5 445,-22.5"/>
<text text-anchor="start" x="453" y="-40.5" font-family="Helvetica,sans-Serif" font-size="10.00">uxn::patl::impl::lca</text>
<text text-anchor="middle" x="498.5" y="-29.5" font-family="Helvetica,sans-Serif" font-size="10.00">_base::set_inode</text>
</a>
</g>
</g>
<!-- Node2 -->
<g id="node2" class="node">
<title>Node2</title>
<g id="a_node2"><a xlink:href="../../da/dd4/classuxn_1_1patl_1_1lca__oracle.html#a3fcbb3309989696abb5902827675ef3e" target="_top" xlink:title=" ">
<polygon fill="none" stroke="black" points="151,-22.5 151,-52.5 266,-52.5 266,-22.5 151,-22.5"/>
<text text-anchor="start" x="159" y="-40.5" font-family="Helvetica,sans-Serif" font-size="10.00">uxn::patl::lca_oracle</text>
<text text-anchor="middle" x="208.5" y="-29.5" font-family="Helvetica,sans-Serif" font-size="10.00">::init</text>
</a>
</g>
</g>
<!-- Node1&#45;&gt;Node2 -->
<g id="edge1" class="edge">
<title>Node1&#45;&gt;Node2</title>
<path fill="none" stroke="midnightblue" d="M434.61,-39.89C426.01,-40.15 417.29,-40.36 409,-40.5 361.45,-41.31 349.55,-41.27 302,-40.5 290.43,-40.31 278.06,-39.99 266.24,-39.63"/>
<polygon fill="midnightblue" stroke="midnightblue" points="434.74,-43.39 444.63,-39.59 434.52,-36.4 434.74,-43.39"/>
</g>
<!-- Node4 -->
<g id="node4" class="node">
<title>Node4</title>
<g id="a_node4"><a xlink:href="../../d3/d99/classuxn_1_1patl_1_1impl_1_1lca__base.html#a0e8bd2ff48e9664e8c8346a330b574e4" target="_top" xlink:title=" ">
<polygon fill="none" stroke="black" points="302,-0.5 302,-30.5 409,-30.5 409,-0.5 302,-0.5"/>
<text text-anchor="start" x="310" y="-18.5" font-family="Helvetica,sans-Serif" font-size="10.00">uxn::patl::impl::lca</text>
<text text-anchor="middle" x="355.5" y="-7.5" font-family="Helvetica,sans-Serif" font-size="10.00">_base::setup_i</text>
</a>
</g>
</g>
<!-- Node1&#45;&gt;Node4 -->
<g id="edge3" class="edge">
<title>Node1&#45;&gt;Node4</title>
<path fill="none" stroke="midnightblue" d="M434.95,-27.74C426.3,-26.39 417.49,-25.02 409.05,-23.7"/>
<polygon fill="midnightblue" stroke="midnightblue" points="434.58,-31.22 445,-29.31 435.66,-24.31 434.58,-31.22"/>
</g>
<!-- Node3 -->
<g id="node3" class="node">
<title>Node3</title>
<g id="a_node3"><a xlink:href="../../da/dd4/classuxn_1_1patl_1_1lca__oracle.html#a71f8a48399f1618a14849c8a3006fbfe" target="_top" xlink:title="ctor">
<polygon fill="none" stroke="black" points="0,-22.5 0,-52.5 115,-52.5 115,-22.5 0,-22.5"/>
<text text-anchor="start" x="8" y="-40.5" font-family="Helvetica,sans-Serif" font-size="10.00">uxn::patl::lca_oracle</text>
<text text-anchor="middle" x="57.5" y="-29.5" font-family="Helvetica,sans-Serif" font-size="10.00">::lca_oracle</text>
</a>
</g>
</g>
<!-- Node2&#45;&gt;Node3 -->
<g id="edge2" class="edge">
<title>Node2&#45;&gt;Node3</title>
<path fill="none" stroke="midnightblue" d="M140.49,-37.5C132.01,-37.5 123.4,-37.5 115.1,-37.5"/>
<polygon fill="midnightblue" stroke="midnightblue" points="140.74,-41 150.74,-37.5 140.74,-34 140.74,-41"/>
</g>
<!-- Node4&#45;&gt;Node2 -->
<g id="edge4" class="edge">
<title>Node4&#45;&gt;Node2</title>
<path fill="none" stroke="midnightblue" d="M291.62,-25.04C283.23,-26.31 274.66,-27.61 266.38,-28.87"/>
<polygon fill="midnightblue" stroke="midnightblue" points="292.38,-28.47 301.74,-23.5 291.33,-21.54 292.38,-28.47"/>
</g>
</g>
</svg>
