<?xml version="1.0" encoding="UTF-8" standalone="no"?>
<!DOCTYPE svg PUBLIC "-//W3C//DTD SVG 1.1//EN"
 "http://www.w3.org/Graphics/SVG/1.1/DTD/svg11.dtd">
<!-- Generated by graphviz version 5.0.1 (20220820.1526)
 -->
<!-- Title: uxn::patl::impl::lca_base::is_inode Pages: 1 -->
<svg width="711pt" height="186pt"
 viewBox="0.00 0.00 711.00 186.00" xmlns="http://www.w3.org/2000/svg" xmlns:xlink="http://www.w3.org/1999/xlink">
<g id="graph0" class="graph" transform="scale(1 1) rotate(0) translate(4 182)">
<title>uxn::patl::impl::lca_base::is_inode</title>
<!-- Node1 -->
<g id="node1" class="node">
<title>Node1</title>
<g id="a_node1"><a xlink:title=" ">
<polygon fill="#bfbfbf" stroke="black" points="596,-122.5 596,-152.5 703,-152.5 703,-122.5 596,-122.5"/>
<text text-anchor="start" x="604" y="-140.5" font-family="Helvetica,sans-Serif" font-size="10.00">uxn::patl::impl::lca</text>
<text text-anchor="middle" x="649.5" y="-129.5" font-family="Helvetica,sans-Serif" font-size="10.00">_base::is_inode</text>
</a>
</g>
</g>
<!-- Node2 -->
<g id="node2" class="node">
<title>Node2</title>
<g id="a_node2"><a xlink:href="../../d3/d99/classuxn_1_1patl_1_1impl_1_1lca__base.html#afe6df803ecff06f201f1857c8a53e52e" target="_top" xlink:title=" ">
<polygon fill="none" stroke="black" points="453,-98.5 453,-128.5 560,-128.5 560,-98.5 453,-98.5"/>
<text text-anchor="start" x="461" y="-116.5" font-family="Helvetica,sans-Serif" font-size="10.00">uxn::patl::impl::lca</text>
<text text-anchor="middle" x="506.5" y="-105.5" font-family="Helvetica,sans-Serif" font-size="10.00">_base::get_i</text>
</a>
</g>
</g>
<!-- Node1&#45;&gt;Node2 -->
<g id="edge1" class="edge">
<title>Node1&#45;&gt;Node2</title>
<path fill="none" stroke="midnightblue" d="M585.95,-126.85C577.3,-125.38 568.49,-123.88 560.05,-122.44"/>
<polygon fill="midnightblue" stroke="midnightblue" points="585.55,-130.34 596,-128.56 586.73,-123.43 585.55,-130.34"/>
</g>
<!-- Node9 -->
<g id="node9" class="node">
<title>Node9</title>
<g id="a_node9"><a xlink:href="../../d3/d99/classuxn_1_1patl_1_1impl_1_1lca__base.html#a33c625fdec108b07361c5392264593d1" target="_top" xlink:title=" ">
<polygon fill="none" stroke="black" points="453,-147.5 453,-177.5 560,-177.5 560,-147.5 453,-147.5"/>
<text text-anchor="start" x="461" y="-165.5" font-family="Helvetica,sans-Serif" font-size="10.00">uxn::patl::impl::lca</text>
<text text-anchor="middle" x="506.5" y="-154.5" font-family="Helvetica,sans-Serif" font-size="10.00">_base::get_l_i</text>
</a>
</g>
</g>
<!-- Node1&#45;&gt;Node9 -->
<g id="edge10" class="edge">
<title>Node1&#45;&gt;Node9</title>
<path fill="none" stroke="midnightblue" d="M585.95,-148.59C577.3,-150.12 568.49,-151.69 560.05,-153.18"/>
<polygon fill="midnightblue" stroke="midnightblue" points="586.76,-152 596,-146.81 585.54,-145.11 586.76,-152"/>
</g>
<!-- Node3 -->
<g id="node3" class="node">
<title>Node3</title>
<g id="a_node3"><a xlink:href="../../da/dd4/classuxn_1_1patl_1_1lca__oracle.html#ad7b6f03a0f25ab9fbe69b78d3f772ee3" target="_top" xlink:title="return LCA(vx, vy)">
<polygon fill="none" stroke="black" points="302,-147.5 302,-177.5 417,-177.5 417,-147.5 302,-147.5"/>
<text text-anchor="start" x="310" y="-165.5" font-family="Helvetica,sans-Serif" font-size="10.00">uxn::patl::lca_oracle</text>
<text text-anchor="middle" x="359.5" y="-154.5" font-family="Helvetica,sans-Serif" font-size="10.00">::operator()</text>
</a>
</g>
</g>
<!-- Node2&#45;&gt;Node3 -->
<g id="edge2" class="edge">
<title>Node2&#45;&gt;Node3</title>
<path fill="none" stroke="midnightblue" d="M451.08,-131.89C435.98,-136.99 419.77,-142.47 405.29,-147.36"/>
<polygon fill="midnightblue" stroke="midnightblue" points="452.46,-135.12 460.81,-128.6 450.22,-128.49 452.46,-135.12"/>
</g>
<!-- Node4 -->
<g id="node4" class="node">
<title>Node4</title>
<g id="a_node4"><a xlink:href="../../d3/d99/classuxn_1_1patl_1_1impl_1_1lca__base.html#a3540be4c43efc2d73e6eb4fff29ca02f" target="_top" xlink:title=" ">
<polygon fill="none" stroke="black" points="306,-98.5 306,-128.5 413,-128.5 413,-98.5 306,-98.5"/>
<text text-anchor="start" x="314" y="-116.5" font-family="Helvetica,sans-Serif" font-size="10.00">uxn::patl::impl::lca</text>
<text text-anchor="middle" x="359.5" y="-105.5" font-family="Helvetica,sans-Serif" font-size="10.00">_base::set_root_a</text>
</a>
</g>
</g>
<!-- Node2&#45;&gt;Node4 -->
<g id="edge3" class="edge">
<title>Node2&#45;&gt;Node4</title>
<path fill="none" stroke="midnightblue" d="M442.7,-113.5C432.95,-113.5 422.96,-113.5 413.46,-113.5"/>
<polygon fill="midnightblue" stroke="midnightblue" points="442.74,-117 452.74,-113.5 442.74,-110 442.74,-117"/>
</g>
<!-- Node7 -->
<g id="node7" class="node">
<title>Node7</title>
<g id="a_node7"><a xlink:href="../../d3/d99/classuxn_1_1patl_1_1impl_1_1lca__base.html#a07985b19f37045ac194dfd36e51c98a8" target="_top" xlink:title=" ">
<polygon fill="none" stroke="black" points="306,-49.5 306,-79.5 413,-79.5 413,-49.5 306,-49.5"/>
<text text-anchor="start" x="314" y="-67.5" font-family="Helvetica,sans-Serif" font-size="10.00">uxn::patl::impl::lca</text>
<text text-anchor="middle" x="359.5" y="-56.5" font-family="Helvetica,sans-Serif" font-size="10.00">_base::setup_a</text>
</a>
</g>
</g>
<!-- Node2&#45;&gt;Node7 -->
<g id="edge6" class="edge">
<title>Node2&#45;&gt;Node7</title>
<path fill="none" stroke="midnightblue" d="M451.08,-95.11C435.98,-90.01 419.77,-84.53 405.29,-79.64"/>
<polygon fill="midnightblue" stroke="midnightblue" points="450.22,-98.51 460.81,-98.4 452.46,-91.88 450.22,-98.51"/>
</g>
<!-- Node8 -->
<g id="node8" class="node">
<title>Node8</title>
<g id="a_node8"><a xlink:href="../../d3/d99/classuxn_1_1patl_1_1impl_1_1lca__base.html#a0e8bd2ff48e9664e8c8346a330b574e4" target="_top" xlink:title=" ">
<polygon fill="none" stroke="black" points="306,-0.5 306,-30.5 413,-30.5 413,-0.5 306,-0.5"/>
<text text-anchor="start" x="314" y="-18.5" font-family="Helvetica,sans-Serif" font-size="10.00">uxn::patl::impl::lca</text>
<text text-anchor="middle" x="359.5" y="-7.5" font-family="Helvetica,sans-Serif" font-size="10.00">_base::setup_i</text>
</a>
</g>
</g>
<!-- Node2&#45;&gt;Node8 -->
<g id="edge8" class="edge">
<title>Node2&#45;&gt;Node8</title>
<path fill="none" stroke="midnightblue" d="M482.1,-91.17C465,-75.63 440.74,-55.16 417,-40.5 411.16,-36.89 404.71,-33.53 398.31,-30.51"/>
<polygon fill="midnightblue" stroke="midnightblue" points="480.16,-94.14 489.88,-98.35 484.91,-89 480.16,-94.14"/>
</g>
<!-- Node5 -->
<g id="node5" class="node">
<title>Node5</title>
<g id="a_node5"><a xlink:href="../../da/dd4/classuxn_1_1patl_1_1lca__oracle.html#a3fcbb3309989696abb5902827675ef3e" target="_top" xlink:title=" ">
<polygon fill="none" stroke="black" points="151,-49.5 151,-79.5 266,-79.5 266,-49.5 151,-49.5"/>
<text text-anchor="start" x="159" y="-67.5" font-family="Helvetica,sans-Serif" font-size="10.00">uxn::patl::lca_oracle</text>
<text text-anchor="middle" x="208.5" y="-56.5" font-family="Helvetica,sans-Serif" font-size="10.00">::init</text>
</a>
</g>
</g>
<!-- Node4&#45;&gt;Node5 -->
<g id="edge4" class="edge">
<title>Node4&#45;&gt;Node5</title>
<path fill="none" stroke="midnightblue" d="M302.98,-95.24C287.26,-90.07 270.34,-84.51 255.27,-79.55"/>
<polygon fill="midnightblue" stroke="midnightblue" points="301.99,-98.6 312.58,-98.4 304.17,-91.95 301.99,-98.6"/>
</g>
<!-- Node6 -->
<g id="node6" class="node">
<title>Node6</title>
<g id="a_node6"><a xlink:href="../../da/dd4/classuxn_1_1patl_1_1lca__oracle.html#a71f8a48399f1618a14849c8a3006fbfe" target="_top" xlink:title="ctor">
<polygon fill="none" stroke="black" points="0,-49.5 0,-79.5 115,-79.5 115,-49.5 0,-49.5"/>
<text text-anchor="start" x="8" y="-67.5" font-family="Helvetica,sans-Serif" font-size="10.00">uxn::patl::lca_oracle</text>
<text text-anchor="middle" x="57.5" y="-56.5" font-family="Helvetica,sans-Serif" font-size="10.00">::lca_oracle</text>
</a>
</g>
</g>
<!-- Node5&#45;&gt;Node6 -->
<g id="edge5" class="edge">
<title>Node5&#45;&gt;Node6</title>
<path fill="none" stroke="midnightblue" d="M140.49,-64.5C132.01,-64.5 123.4,-64.5 115.1,-64.5"/>
<polygon fill="midnightblue" stroke="midnightblue" points="140.74,-68 150.74,-64.5 140.74,-61 140.74,-68"/>
</g>
<!-- Node7&#45;&gt;Node5 -->
<g id="edge7" class="edge">
<title>Node7&#45;&gt;Node5</title>
<path fill="none" stroke="midnightblue" d="M295.83,-64.5C285.97,-64.5 275.82,-64.5 266.11,-64.5"/>
<polygon fill="midnightblue" stroke="midnightblue" points="295.97,-68 305.97,-64.5 295.97,-61 295.97,-68"/>
</g>
<!-- Node8&#45;&gt;Node5 -->
<g id="edge9" class="edge">
<title>Node8&#45;&gt;Node5</title>
<path fill="none" stroke="midnightblue" d="M302.98,-33.76C287.26,-38.93 270.34,-44.49 255.27,-49.45"/>
<polygon fill="midnightblue" stroke="midnightblue" points="304.17,-37.05 312.58,-30.6 301.99,-30.4 304.17,-37.05"/>
</g>
<!-- Node9&#45;&gt;Node3 -->
<g id="edge11" class="edge">
<title>Node9&#45;&gt;Node3</title>
<path fill="none" stroke="midnightblue" d="M442.62,-162.5C434.23,-162.5 425.66,-162.5 417.38,-162.5"/>
<polygon fill="midnightblue" stroke="midnightblue" points="442.74,-166 452.74,-162.5 442.74,-159 442.74,-166"/>
</g>
</g>
</svg>
