<?xml version="1.0" encoding="UTF-8" standalone="no"?>
<!DOCTYPE svg PUBLIC "-//W3C//DTD SVG 1.1//EN"
 "http://www.w3.org/Graphics/SVG/1.1/DTD/svg11.dtd">
<!-- Generated by graphviz version 5.0.1 (20220820.1526)
 -->
<!-- Title: uxn::patl::impl::lca_base::get_i Pages: 1 -->
<!--zoomable 186 -->
<svg id="main" version="1.1" xmlns="http://www.w3.org/2000/svg" xmlns:xlink="http://www.w3.org/1999/xlink" xml:space="preserve" onload="init(evt)">
<style type="text/css"><![CDATA[
.edge:hover path { stroke: red; }
.edge:hover polygon { stroke: red; fill: red; }
]]></style>
<script type="text/javascript"><![CDATA[
var edges = document.getElementsByTagName('g');
if (edges && edges.length) {
  for (var i=0;i<edges.length;i++) {
    if (edges[i].id.substr(0,4)=='edge') {
      edges[i].setAttribute('class','edge');
    }
  }
}
]]></script>
        <defs>
                <circle id="rim" cx="0" cy="0" r="7"/>
                <circle id="rim2" cx="0" cy="0" r="3.5"/>
                <g id="zoomPlus">
                        <use xlink:href="#rim" fill="#404040">
                                <set attributeName="fill" to="#808080" begin="zoomplus.mouseover" end="zoomplus.mouseout"/>
                        </use>
                        <path d="M-4,0h8M0,-4v8" fill="none" stroke="white" stroke-width="1.5" pointer-events="none"/>
                </g>
                <g id="zoomMin">
                        <use xlink:href="#rim" fill="#404040">
                                <set attributeName="fill" to="#808080" begin="zoomminus.mouseover" end="zoomminus.mouseout"/>
                        </use>
                        <path d="M-4,0h8" fill="none" stroke="white" stroke-width="1.5" pointer-events="none"/>
                </g>
                <g id="dirArrow">
                        <path fill="none" stroke="white" stroke-width="1.5" d="M0,-3.0v7 M-2.5,-0.5L0,-3.0L2.5,-0.5"/>
                </g>
               <g id="resetDef">
                       <use xlink:href="#rim2" fill="#404040">
                               <set attributeName="fill" to="#808080" begin="reset.mouseover" end="reset.mouseout"/>
                       </use>
               </g>
        </defs>

<script type="text/javascript">
var viewWidth = 568;
var viewHeight = 186;
var sectionId = 'dynsection-4';
</script>
<script xlink:href="../../svgpan.js"/>
<svg id="graph" class="graph">
<g id="viewport">
<title>uxn::patl::impl::lca_base::get_i</title>
<!-- Node1 -->
<g id="node1" class="node">
<title>Node1</title>
<g id="a_node1"><a xlink:title=" ">
<polygon fill="#bfbfbf" stroke="black" points="453,-73.5 453,-103.5 560,-103.5 560,-73.5 453,-73.5"/>
<text text-anchor="start" x="461" y="-91.5" font-family="Helvetica,sans-Serif" font-size="10.00">uxn::patl::impl::lca</text>
<text text-anchor="middle" x="506.5" y="-80.5" font-family="Helvetica,sans-Serif" font-size="10.00">_base::get_i</text>
</a>
</g>
</g>
<!-- Node2 -->
<g id="node2" class="node">
<title>Node2</title>
<g id="a_node2"><a xlink:href="../../da/dd4/classuxn_1_1patl_1_1lca__oracle.html#ad7b6f03a0f25ab9fbe69b78d3f772ee3" target="_top" xlink:title="return LCA(vx, vy)">
<polygon fill="none" stroke="black" points="302,-147.5 302,-177.5 417,-177.5 417,-147.5 302,-147.5"/>
<text text-anchor="start" x="310" y="-165.5" font-family="Helvetica,sans-Serif" font-size="10.00">uxn::patl::lca_oracle</text>
<text text-anchor="middle" x="359.5" y="-154.5" font-family="Helvetica,sans-Serif" font-size="10.00">::operator()</text>
</a>
</g>
</g>
<!-- Node1&#45;&gt;Node2 -->
<g id="edge1" class="edge">
<title>Node1&#45;&gt;Node2</title>
<path fill="none" stroke="midnightblue" d="M471.7,-108.78C455.4,-118.25 435.43,-129.42 417,-138.5 410.79,-141.56 404.09,-144.62 397.55,-147.47"/>
<polygon fill="midnightblue" stroke="midnightblue" points="473.49,-111.79 480.35,-103.71 469.95,-105.75 473.49,-111.79"/>
</g>
<!-- Node3 -->
<g id="node3" class="node">
<title>Node3</title>
<g id="a_node3"><a xlink:href="../../d3/d99/classuxn_1_1patl_1_1impl_1_1lca__base.html#a3540be4c43efc2d73e6eb4fff29ca02f" target="_top" xlink:title=" ">
<polygon fill="none" stroke="black" points="306,-98.5 306,-128.5 413,-128.5 413,-98.5 306,-98.5"/>
<text text-anchor="start" x="314" y="-116.5" font-family="Helvetica,sans-Serif" font-size="10.00">uxn::patl::impl::lca</text>
<text text-anchor="middle" x="359.5" y="-105.5" font-family="Helvetica,sans-Serif" font-size="10.00">_base::set_root_a</text>
</a>
</g>
</g>
<!-- Node1&#45;&gt;Node3 -->
<g id="edge2" class="edge">
<title>Node1&#45;&gt;Node3</title>
<path fill="none" stroke="midnightblue" d="M442.7,-99.33C432.95,-101.01 422.96,-102.73 413.46,-104.37"/>
<polygon fill="midnightblue" stroke="midnightblue" points="443.48,-102.74 452.74,-97.6 442.29,-95.85 443.48,-102.74"/>
</g>
<!-- Node6 -->
<g id="node6" class="node">
<title>Node6</title>
<g id="a_node6"><a xlink:href="../../d3/d99/classuxn_1_1patl_1_1impl_1_1lca__base.html#a07985b19f37045ac194dfd36e51c98a8" target="_top" xlink:title=" ">
<polygon fill="none" stroke="black" points="306,-49.5 306,-79.5 413,-79.5 413,-49.5 306,-49.5"/>
<text text-anchor="start" x="314" y="-67.5" font-family="Helvetica,sans-Serif" font-size="10.00">uxn::patl::impl::lca</text>
<text text-anchor="middle" x="359.5" y="-56.5" font-family="Helvetica,sans-Serif" font-size="10.00">_base::setup_a</text>
</a>
</g>
</g>
<!-- Node1&#45;&gt;Node6 -->
<g id="edge5" class="edge">
<title>Node1&#45;&gt;Node6</title>
<path fill="none" stroke="midnightblue" d="M442.7,-78.11C432.95,-76.49 422.96,-74.84 413.46,-73.27"/>
<polygon fill="midnightblue" stroke="midnightblue" points="442.3,-81.59 452.74,-79.77 443.45,-74.68 442.3,-81.59"/>
</g>
<!-- Node7 -->
<g id="node7" class="node">
<title>Node7</title>
<g id="a_node7"><a xlink:href="../../d3/d99/classuxn_1_1patl_1_1impl_1_1lca__base.html#a0e8bd2ff48e9664e8c8346a330b574e4" target="_top" xlink:title=" ">
<polygon fill="none" stroke="black" points="306,-0.5 306,-30.5 413,-30.5 413,-0.5 306,-0.5"/>
<text text-anchor="start" x="314" y="-18.5" font-family="Helvetica,sans-Serif" font-size="10.00">uxn::patl::impl::lca</text>
<text text-anchor="middle" x="359.5" y="-7.5" font-family="Helvetica,sans-Serif" font-size="10.00">_base::setup_i</text>
</a>
</g>
</g>
<!-- Node1&#45;&gt;Node7 -->
<g id="edge7" class="edge">
<title>Node1&#45;&gt;Node7</title>
<path fill="none" stroke="midnightblue" d="M470.04,-68.42C454,-59.56 434.7,-49.2 417,-40.5 410.17,-37.14 402.78,-33.72 395.66,-30.54"/>
<polygon fill="midnightblue" stroke="midnightblue" points="468.63,-71.64 479.07,-73.44 472.03,-65.52 468.63,-71.64"/>
</g>
<!-- Node4 -->
<g id="node4" class="node">
<title>Node4</title>
<g id="a_node4"><a xlink:href="../../da/dd4/classuxn_1_1patl_1_1lca__oracle.html#a3fcbb3309989696abb5902827675ef3e" target="_top" xlink:title=" ">
<polygon fill="none" stroke="black" points="151,-49.5 151,-79.5 266,-79.5 266,-49.5 151,-49.5"/>
<text text-anchor="start" x="159" y="-67.5" font-family="Helvetica,sans-Serif" font-size="10.00">uxn::patl::lca_oracle</text>
<text text-anchor="middle" x="208.5" y="-56.5" font-family="Helvetica,sans-Serif" font-size="10.00">::init</text>
</a>
</g>
</g>
<!-- Node3&#45;&gt;Node4 -->
<g id="edge3" class="edge">
<title>Node3&#45;&gt;Node4</title>
<path fill="none" stroke="midnightblue" d="M302.98,-95.24C287.26,-90.07 270.34,-84.51 255.27,-79.55"/>
<polygon fill="midnightblue" stroke="midnightblue" points="301.99,-98.6 312.58,-98.4 304.17,-91.95 301.99,-98.6"/>
</g>
<!-- Node5 -->
<g id="node5" class="node">
<title>Node5</title>
<g id="a_node5"><a xlink:href="../../da/dd4/classuxn_1_1patl_1_1lca__oracle.html#a71f8a48399f1618a14849c8a3006fbfe" target="_top" xlink:title="ctor">
<polygon fill="none" stroke="black" points="0,-49.5 0,-79.5 115,-79.5 115,-49.5 0,-49.5"/>
<text text-anchor="start" x="8" y="-67.5" font-family="Helvetica,sans-Serif" font-size="10.00">uxn::patl::lca_oracle</text>
<text text-anchor="middle" x="57.5" y="-56.5" font-family="Helvetica,sans-Serif" font-size="10.00">::lca_oracle</text>
</a>
</g>
</g>
<!-- Node4&#45;&gt;Node5 -->
<g id="edge4" class="edge">
<title>Node4&#45;&gt;Node5</title>
<path fill="none" stroke="midnightblue" d="M140.49,-64.5C132.01,-64.5 123.4,-64.5 115.1,-64.5"/>
<polygon fill="midnightblue" stroke="midnightblue" points="140.74,-68 150.74,-64.5 140.74,-61 140.74,-68"/>
</g>
<!-- Node6&#45;&gt;Node4 -->
<g id="edge6" class="edge">
<title>Node6&#45;&gt;Node4</title>
<path fill="none" stroke="midnightblue" d="M295.83,-64.5C285.97,-64.5 275.82,-64.5 266.11,-64.5"/>
<polygon fill="midnightblue" stroke="midnightblue" points="295.97,-68 305.97,-64.5 295.97,-61 295.97,-68"/>
</g>
<!-- Node7&#45;&gt;Node4 -->
<g id="edge8" class="edge">
<title>Node7&#45;&gt;Node4</title>
<path fill="none" stroke="midnightblue" d="M302.98,-33.76C287.26,-38.93 270.34,-44.49 255.27,-49.45"/>
<polygon fill="midnightblue" stroke="midnightblue" points="304.17,-37.05 312.58,-30.6 301.99,-30.4 304.17,-37.05"/>
</g>
</g>
</svg>
        <g id="navigator" transform="translate(0 0)" fill="#404254">
                <rect fill="#f2f5e9" fill-opacity="0.5" stroke="#606060" stroke-width=".5" x="0" y="0" width="60" height="60"/>
                <use id="zoomplus" xlink:href="#zoomPlus" x="17" y="9" onmousedown="handleZoom(evt,'in')"/>
                <use id="zoomminus" xlink:href="#zoomMin" x="42" y="9" onmousedown="handleZoom(evt,'out')"/>
                <use id="reset" xlink:href="#resetDef" x="30" y="36" onmousedown="handleReset()"/>
                <g id="arrowUp" xlink:href="#dirArrow" transform="translate(30 24)" onmousedown="handlePan(0,-1)">
                  <use xlink:href="#rim" fill="#404040">
                        <set attributeName="fill" to="#808080" begin="arrowUp.mouseover" end="arrowUp.mouseout"/>
                  </use>
                  <path fill="none" stroke="white" stroke-width="1.5" d="M0,-3.0v7 M-2.5,-0.5L0,-3.0L2.5,-0.5"/>
                </g>
                <g id="arrowRight" xlink:href="#dirArrow" transform="rotate(90) translate(36 -43)" onmousedown="handlePan(1,0)">
                  <use xlink:href="#rim" fill="#404040">
                        <set attributeName="fill" to="#808080" begin="arrowRight.mouseover" end="arrowRight.mouseout"/>
                  </use>
                  <path fill="none" stroke="white" stroke-width="1.5" d="M0,-3.0v7 M-2.5,-0.5L0,-3.0L2.5,-0.5"/>
                </g>
                <g id="arrowDown" xlink:href="#dirArrow" transform="rotate(180) translate(-30 -48)" onmousedown="handlePan(0,1)">
                  <use xlink:href="#rim" fill="#404040">
                        <set attributeName="fill" to="#808080" begin="arrowDown.mouseover" end="arrowDown.mouseout"/>
                  </use>
                  <path fill="none" stroke="white" stroke-width="1.5" d="M0,-3.0v7 M-2.5,-0.5L0,-3.0L2.5,-0.5"/>
                </g>
                <g id="arrowLeft" xlink:href="#dirArrow" transform="rotate(270) translate(-36 17)" onmousedown="handlePan(-1,0)">
                  <use xlink:href="#rim" fill="#404040">
                        <set attributeName="fill" to="#808080" begin="arrowLeft.mouseover" end="arrowLeft.mouseout"/>
                  </use>
                  <path fill="none" stroke="white" stroke-width="1.5" d="M0,-3.0v7 M-2.5,-0.5L0,-3.0L2.5,-0.5"/>
                </g>
        </g>
        <svg viewBox="0 0 15 15" width="100%" height="30px" preserveAspectRatio="xMaxYMin meet">
         <g id="arrow_out" transform="scale(0.3 0.3)">
          <a xlink:href="classuxn_1_1patl_1_1impl_1_1lca__base_afe6df803ecff06f201f1857c8a53e52e_icgraph_org.svg" target="_base">
           <rect id="button" ry="5" rx="5" y="6" x="6" height="38" width="38"
                fill="#f2f5e9" fill-opacity="0.5" stroke="#606060" stroke-width="1.0"/>
           <path id="arrow"
             d="M 11.500037,31.436501 C 11.940474,20.09759 22.043105,11.32322 32.158766,21.979434 L 37.068811,17.246167 C 37.068811,17.246167 37.088388,32 37.088388,32 L 22.160133,31.978069 C 22.160133,31.978069 26.997745,27.140456 26.997745,27.140456 C 18.528582,18.264221 13.291696,25.230495 11.500037,31.436501 z"
             style="fill:#404040;"/>
          </a>
         </g>
        </svg>
</svg>
