<?xml version="1.0" encoding="UTF-8" standalone="no"?>
<!DOCTYPE svg PUBLIC "-//W3C//DTD SVG 1.1//EN"
 "http://www.w3.org/Graphics/SVG/1.1/DTD/svg11.dtd">
<!-- Generated by graphviz version 5.0.1 (20220820.1526)
 -->
<!-- Title: uxn::patl::impl::lca_base::setup_i Pages: 1 -->
<svg width="403pt" height="235pt"
 viewBox="0.00 0.00 403.00 235.00" xmlns="http://www.w3.org/2000/svg" xmlns:xlink="http://www.w3.org/1999/xlink">
<g id="graph0" class="graph" transform="scale(1 1) rotate(0) translate(4 231)">
<title>uxn::patl::impl::lca_base::setup_i</title>
<!-- Node1 -->
<g id="node1" class="node">
<title>Node1</title>
<g id="a_node1"><a xlink:title=" ">
<polygon fill="#bfbfbf" stroke="black" points="0,-98.5 0,-128.5 107,-128.5 107,-98.5 0,-98.5"/>
<text text-anchor="start" x="8" y="-116.5" font-family="Helvetica,sans-Serif" font-size="10.00">uxn::patl::impl::lca</text>
<text text-anchor="middle" x="53.5" y="-105.5" font-family="Helvetica,sans-Serif" font-size="10.00">_base::setup_i</text>
</a>
</g>
</g>
<!-- Node2 -->
<g id="node2" class="node">
<title>Node2</title>
<g id="a_node2"><a xlink:href="../../d3/d99/classuxn_1_1patl_1_1impl_1_1lca__base.html#afe6df803ecff06f201f1857c8a53e52e" target="_top" xlink:title=" ">
<polygon fill="none" stroke="black" points="143,-196.5 143,-226.5 250,-226.5 250,-196.5 143,-196.5"/>
<text text-anchor="start" x="151" y="-214.5" font-family="Helvetica,sans-Serif" font-size="10.00">uxn::patl::impl::lca</text>
<text text-anchor="middle" x="196.5" y="-203.5" font-family="Helvetica,sans-Serif" font-size="10.00">_base::get_i</text>
</a>
</g>
</g>
<!-- Node1&#45;&gt;Node2 -->
<g id="edge1" class="edge">
<title>Node1&#45;&gt;Node2</title>
<path fill="none" stroke="midnightblue" d="M69.81,-128.51C86.71,-144.54 115.22,-169.98 143,-187.5 145.3,-188.95 147.71,-190.37 150.17,-191.74"/>
<polygon fill="midnightblue" stroke="midnightblue" points="148.76,-194.95 159.24,-196.48 152,-188.74 148.76,-194.95"/>
</g>
<!-- Node4 -->
<g id="node4" class="node">
<title>Node4</title>
<g id="a_node4"><a xlink:href="../../d3/d99/classuxn_1_1patl_1_1impl_1_1lca__base.html#a7831e83952fd7bae4bac103e7fb38b07" target="_top" xlink:title=" ">
<polygon fill="none" stroke="black" points="143,-147.5 143,-177.5 250,-177.5 250,-147.5 143,-147.5"/>
<text text-anchor="start" x="151" y="-165.5" font-family="Helvetica,sans-Serif" font-size="10.00">uxn::patl::impl::lca</text>
<text text-anchor="middle" x="196.5" y="-154.5" font-family="Helvetica,sans-Serif" font-size="10.00">_base::height</text>
</a>
</g>
</g>
<!-- Node1&#45;&gt;Node4 -->
<g id="edge3" class="edge">
<title>Node1&#45;&gt;Node4</title>
<path fill="none" stroke="midnightblue" d="M97.96,-128.6C112.03,-133.49 127.79,-138.97 142.48,-144.07"/>
<polygon fill="midnightblue" stroke="midnightblue" points="141.35,-147.39 151.95,-147.36 143.65,-140.78 141.35,-147.39"/>
</g>
<!-- Node6 -->
<g id="node6" class="node">
<title>Node6</title>
<g id="a_node6"><a xlink:href="../../d3/d99/classuxn_1_1patl_1_1impl_1_1lca__base.html#ac927d1598282aa180fedc5d441f7affb" target="_top" xlink:title=" ">
<polygon fill="none" stroke="black" points="143,-98.5 143,-128.5 250,-128.5 250,-98.5 143,-98.5"/>
<text text-anchor="start" x="151" y="-116.5" font-family="Helvetica,sans-Serif" font-size="10.00">uxn::patl::impl::lca</text>
<text text-anchor="middle" x="196.5" y="-105.5" font-family="Helvetica,sans-Serif" font-size="10.00">_base::set_i</text>
</a>
</g>
</g>
<!-- Node1&#45;&gt;Node6 -->
<g id="edge5" class="edge">
<title>Node1&#45;&gt;Node6</title>
<path fill="none" stroke="midnightblue" d="M107,-113.5C115.44,-113.5 124.26,-113.5 132.9,-113.5"/>
<polygon fill="midnightblue" stroke="midnightblue" points="132.95,-117 142.95,-113.5 132.95,-110 132.95,-117"/>
</g>
<!-- Node7 -->
<g id="node7" class="node">
<title>Node7</title>
<g id="a_node7"><a xlink:href="../../d3/d99/classuxn_1_1patl_1_1impl_1_1lca__base.html#ac9e29e943fcc064096d7afcbe5a49741" target="_top" xlink:title=" ">
<polygon fill="none" stroke="black" points="143,-49.5 143,-79.5 250,-79.5 250,-49.5 143,-49.5"/>
<text text-anchor="start" x="151" y="-67.5" font-family="Helvetica,sans-Serif" font-size="10.00">uxn::patl::impl::lca</text>
<text text-anchor="middle" x="196.5" y="-56.5" font-family="Helvetica,sans-Serif" font-size="10.00">_base::set_inode</text>
</a>
</g>
</g>
<!-- Node1&#45;&gt;Node7 -->
<g id="edge6" class="edge">
<title>Node1&#45;&gt;Node7</title>
<path fill="none" stroke="midnightblue" d="M97.96,-98.4C112.03,-93.51 127.79,-88.03 142.48,-82.93"/>
<polygon fill="midnightblue" stroke="midnightblue" points="143.65,-86.22 151.95,-79.64 141.35,-79.61 143.65,-86.22"/>
</g>
<!-- Node8 -->
<g id="node8" class="node">
<title>Node8</title>
<g id="a_node8"><a xlink:href="../../d3/d99/classuxn_1_1patl_1_1impl_1_1lca__base.html#a528df1ae1e7b91c5a6e87c7596f1f43a" target="_top" xlink:title=" ">
<polygon fill="none" stroke="black" points="143,-0.5 143,-30.5 250,-30.5 250,-0.5 143,-0.5"/>
<text text-anchor="start" x="151" y="-18.5" font-family="Helvetica,sans-Serif" font-size="10.00">uxn::patl::impl::lca</text>
<text text-anchor="middle" x="196.5" y="-7.5" font-family="Helvetica,sans-Serif" font-size="10.00">_base::set_l</text>
</a>
</g>
</g>
<!-- Node1&#45;&gt;Node8 -->
<g id="edge7" class="edge">
<title>Node1&#45;&gt;Node8</title>
<path fill="none" stroke="midnightblue" d="M70.53,-98.21C87.57,-82.46 115.78,-57.83 143,-40.5 145.77,-38.74 148.68,-37.02 151.65,-35.36"/>
<polygon fill="midnightblue" stroke="midnightblue" points="153.47,-38.36 160.68,-30.6 150.2,-32.17 153.47,-38.36"/>
</g>
<!-- Node3 -->
<g id="node3" class="node">
<title>Node3</title>
<g id="a_node3"><a xlink:href="../../d3/d99/classuxn_1_1patl_1_1impl_1_1lca__base.html#ae9986af28eb6d3033f21801e71820054" target="_top" xlink:title=" ">
<polygon fill="none" stroke="black" points="287,-196.5 287,-226.5 394,-226.5 394,-196.5 287,-196.5"/>
<text text-anchor="start" x="295" y="-214.5" font-family="Helvetica,sans-Serif" font-size="10.00">uxn::patl::impl::lca</text>
<text text-anchor="middle" x="340.5" y="-203.5" font-family="Helvetica,sans-Serif" font-size="10.00">_base::is_inode</text>
</a>
</g>
</g>
<!-- Node2&#45;&gt;Node3 -->
<g id="edge2" class="edge">
<title>Node2&#45;&gt;Node3</title>
<path fill="none" stroke="midnightblue" d="M250.38,-211.5C258.88,-211.5 267.75,-211.5 276.46,-211.5"/>
<polygon fill="midnightblue" stroke="midnightblue" points="276.58,-215 286.58,-211.5 276.58,-208 276.58,-215"/>
</g>
<!-- Node5 -->
<g id="node5" class="node">
<title>Node5</title>
<g id="a_node5"><a xlink:href="../../dd/d0e/namespaceuxn_1_1patl_1_1impl.html#a7be41e4ec37eaed94f586793719618cd" target="_top" xlink:title=" ">
<polygon fill="none" stroke="black" points="286,-147.5 286,-177.5 395,-177.5 395,-147.5 286,-147.5"/>
<text text-anchor="start" x="294" y="-165.5" font-family="Helvetica,sans-Serif" font-size="10.00">uxn::patl::impl::get</text>
<text text-anchor="middle" x="340.5" y="-154.5" font-family="Helvetica,sans-Serif" font-size="10.00">_lowest_bit_id</text>
</a>
</g>
</g>
<!-- Node4&#45;&gt;Node5 -->
<g id="edge4" class="edge">
<title>Node4&#45;&gt;Node5</title>
<path fill="none" stroke="midnightblue" d="M250.38,-162.5C258.56,-162.5 267.09,-162.5 275.49,-162.5"/>
<polygon fill="midnightblue" stroke="midnightblue" points="275.63,-166 285.63,-162.5 275.63,-159 275.63,-166"/>
</g>
</g>
</svg>
