<?xml version="1.0" encoding="UTF-8" standalone="no"?>
<!DOCTYPE svg PUBLIC "-//W3C//DTD SVG 1.1//EN"
 "http://www.w3.org/Graphics/SVG/1.1/DTD/svg11.dtd">
<!-- Generated by graphviz version 5.0.1 (20220820.1526)
 -->
<!-- Title: uxn/demos/muxoclon/muxoclon.cpp Pages: 1 -->
<!--zoomable 386 -->
<svg id="main" version="1.1" xmlns="http://www.w3.org/2000/svg" xmlns:xlink="http://www.w3.org/1999/xlink" xml:space="preserve" onload="init(evt)">
<style type="text/css"><![CDATA[
.edge:hover path { stroke: red; }
.edge:hover polygon { stroke: red; fill: red; }
]]></style>
<script type="text/javascript"><![CDATA[
var edges = document.getElementsByTagName('g');
if (edges && edges.length) {
  for (var i=0;i<edges.length;i++) {
    if (edges[i].id.substr(0,4)=='edge') {
      edges[i].setAttribute('class','edge');
    }
  }
}
]]></script>
        <defs>
                <circle id="rim" cx="0" cy="0" r="7"/>
                <circle id="rim2" cx="0" cy="0" r="3.5"/>
                <g id="zoomPlus">
                        <use xlink:href="#rim" fill="#404040">
                                <set attributeName="fill" to="#808080" begin="zoomplus.mouseover" end="zoomplus.mouseout"/>
                        </use>
                        <path d="M-4,0h8M0,-4v8" fill="none" stroke="white" stroke-width="1.5" pointer-events="none"/>
                </g>
                <g id="zoomMin">
                        <use xlink:href="#rim" fill="#404040">
                                <set attributeName="fill" to="#808080" begin="zoomminus.mouseover" end="zoomminus.mouseout"/>
                        </use>
                        <path d="M-4,0h8" fill="none" stroke="white" stroke-width="1.5" pointer-events="none"/>
                </g>
                <g id="dirArrow">
                        <path fill="none" stroke="white" stroke-width="1.5" d="M0,-3.0v7 M-2.5,-0.5L0,-3.0L2.5,-0.5"/>
                </g>
               <g id="resetDef">
                       <use xlink:href="#rim2" fill="#404040">
                               <set attributeName="fill" to="#808080" begin="reset.mouseover" end="reset.mouseout"/>
                       </use>
               </g>
        </defs>

<script type="text/javascript">
var viewWidth = 1317;
var viewHeight = 386;
var sectionId = 'dynsection-0';
</script>
<script xlink:href="../../svgpan.js"/>
<svg id="graph" class="graph">
<g id="viewport">
<title>uxn/demos/muxoclon/muxoclon.cpp</title>
<!-- Node1 -->
<g id="node1" class="node">
<title>Node1</title>
<g id="a_node1"><a xlink:title=" ">
<polygon fill="#bfbfbf" stroke="black" points="976,-347.5 976,-377.5 1097,-377.5 1097,-347.5 976,-347.5"/>
<text text-anchor="start" x="984" y="-365.5" font-family="Helvetica,sans-Serif" font-size="10.00">uxn/demos/muxoclon</text>
<text text-anchor="middle" x="1036.5" y="-354.5" font-family="Helvetica,sans-Serif" font-size="10.00">/muxoclon.cpp</text>
</a>
</g>
</g>
<!-- Node2 -->
<g id="node2" class="node">
<title>Node2</title>
<g id="a_node2"><a xlink:title=" ">
<polygon fill="none" stroke="#bfbfbf" points="729,-286 729,-305 784,-305 784,-286 729,-286"/>
<text text-anchor="middle" x="756.5" y="-293" font-family="Helvetica,sans-Serif" font-size="10.00">fstream</text>
</a>
</g>
</g>
<!-- Node1&#45;&gt;Node2 -->
<g id="edge1" class="edge">
<title>Node1&#45;&gt;Node2</title>
<path fill="none" stroke="midnightblue" d="M975.84,-352.05C926,-343.55 853.89,-329.55 792.5,-311 790.21,-310.31 787.87,-309.53 785.53,-308.71"/>
<polygon fill="midnightblue" stroke="midnightblue" points="786.67,-305.39 776.08,-305.12 784.19,-311.94 786.67,-305.39"/>
</g>
<!-- Node3 -->
<g id="node3" class="node">
<title>Node3</title>
<g id="a_node3"><a xlink:title=" ">
<polygon fill="none" stroke="#bfbfbf" points="956,-168.5 956,-187.5 1003,-187.5 1003,-168.5 956,-168.5"/>
<text text-anchor="middle" x="979.5" y="-175.5" font-family="Helvetica,sans-Serif" font-size="10.00">vector</text>
</a>
</g>
</g>
<!-- Node1&#45;&gt;Node3 -->
<g id="edge2" class="edge">
<title>Node1&#45;&gt;Node3</title>
<path fill="none" stroke="midnightblue" d="M1008.82,-347.31C995.14,-338.75 979.81,-326.49 971.5,-311 951.94,-274.55 963.88,-224.02 972.66,-197.29"/>
<polygon fill="midnightblue" stroke="midnightblue" points="976.02,-198.29 976.02,-187.69 969.42,-195.97 976.02,-198.29"/>
</g>
<!-- Node4 -->
<g id="node4" class="node">
<title>Node4</title>
<g id="a_node4"><a xlink:title=" ">
<polygon fill="none" stroke="#bfbfbf" points="1153.5,-286 1153.5,-305 1185.5,-305 1185.5,-286 1153.5,-286"/>
<text text-anchor="middle" x="1169.5" y="-293" font-family="Helvetica,sans-Serif" font-size="10.00">set</text>
</a>
</g>
</g>
<!-- Node1&#45;&gt;Node4 -->
<g id="edge3" class="edge">
<title>Node1&#45;&gt;Node4</title>
<path fill="none" stroke="midnightblue" d="M1065.36,-347.4C1088.78,-335.95 1121.5,-319.96 1143.98,-308.97"/>
<polygon fill="midnightblue" stroke="midnightblue" points="1145.78,-311.99 1153.22,-304.45 1142.7,-305.7 1145.78,-311.99"/>
</g>
<!-- Node5 -->
<g id="node5" class="node">
<title>Node5</title>
<g id="a_node5"><a xlink:title=" ">
<polygon fill="none" stroke="#bfbfbf" points="1050.5,-112.5 1050.5,-131.5 1088.5,-131.5 1088.5,-112.5 1050.5,-112.5"/>
<text text-anchor="middle" x="1069.5" y="-119.5" font-family="Helvetica,sans-Serif" font-size="10.00">map</text>
</a>
</g>
</g>
<!-- Node1&#45;&gt;Node5 -->
<g id="edge4" class="edge">
<title>Node1&#45;&gt;Node5</title>
<path fill="none" stroke="midnightblue" d="M1064.18,-347.31C1077.86,-338.75 1093.19,-326.49 1101.5,-311 1131.84,-254.44 1097.88,-175.73 1079.6,-140.85"/>
<polygon fill="midnightblue" stroke="midnightblue" points="1082.57,-138.99 1074.73,-131.87 1076.42,-142.33 1082.57,-138.99"/>
</g>
<!-- Node6 -->
<g id="node6" class="node">
<title>Node6</title>
<g id="a_node6"><a xlink:href="../../d4/db1/trie__set_8hpp.html" target="_top" xlink:title=" ">
<polygon fill="none" stroke="black" points="802,-286 802,-305 919,-305 919,-286 802,-286"/>
<text text-anchor="middle" x="860.5" y="-293" font-family="Helvetica,sans-Serif" font-size="10.00">uxn/patl/trie_set.hpp</text>
</a>
</g>
</g>
<!-- Node1&#45;&gt;Node6 -->
<g id="edge5" class="edge">
<title>Node1&#45;&gt;Node6</title>
<path fill="none" stroke="midnightblue" d="M998.31,-347.4C966.88,-335.79 922.82,-319.51 893.04,-308.52"/>
<polygon fill="midnightblue" stroke="midnightblue" points="894.13,-305.19 883.53,-305.01 891.7,-311.75 894.13,-305.19"/>
</g>
<!-- Node29 -->
<g id="node29" class="node">
<title>Node29</title>
<g id="a_node29"><a xlink:href="../../d2/d92/partial_8hpp.html" target="_top" xlink:title=" ">
<polygon fill="none" stroke="black" points="980.5,-286 980.5,-305 1092.5,-305 1092.5,-286 980.5,-286"/>
<text text-anchor="middle" x="1036.5" y="-293" font-family="Helvetica,sans-Serif" font-size="10.00">uxn/patl/partial.hpp</text>
</a>
</g>
</g>
<!-- Node1&#45;&gt;Node29 -->
<g id="edge39" class="edge">
<title>Node1&#45;&gt;Node29</title>
<path fill="none" stroke="midnightblue" d="M1036.5,-347.4C1036.5,-338.06 1036.5,-325.71 1036.5,-315.52"/>
<polygon fill="midnightblue" stroke="midnightblue" points="1040,-315.19 1036.5,-305.19 1033,-315.19 1040,-315.19"/>
</g>
<!-- Node31 -->
<g id="node31" class="node">
<title>Node31</title>
<g id="a_node31"><a xlink:href="../../d9/df3/perf__timer_8hpp.html" target="_top" xlink:title=" ">
<polygon fill="none" stroke="black" points="1204,-280.5 1204,-310.5 1309,-310.5 1309,-280.5 1204,-280.5"/>
<text text-anchor="start" x="1212" y="-298.5" font-family="Helvetica,sans-Serif" font-size="10.00">uxn/patl/aux_/perf</text>
<text text-anchor="middle" x="1256.5" y="-287.5" font-family="Helvetica,sans-Serif" font-size="10.00">_timer.hpp</text>
</a>
</g>
</g>
<!-- Node1&#45;&gt;Node31 -->
<g id="edge44" class="edge">
<title>Node1&#45;&gt;Node31</title>
<path fill="none" stroke="midnightblue" d="M1083.97,-347.48C1117.68,-337.51 1163.13,-324.09 1198.92,-313.51"/>
<polygon fill="midnightblue" stroke="midnightblue" points="1200.14,-316.8 1208.74,-310.61 1198.16,-310.09 1200.14,-316.8"/>
</g>
<!-- Node7 -->
<g id="node7" class="node">
<title>Node7</title>
<g id="a_node7"><a xlink:href="../../d9/d25/trie__generic_8hpp.html" target="_top" xlink:title=" ">
<polygon fill="none" stroke="black" points="603.5,-224.5 603.5,-243.5 723.5,-243.5 723.5,-224.5 603.5,-224.5"/>
<text text-anchor="middle" x="663.5" y="-231.5" font-family="Helvetica,sans-Serif" font-size="10.00">impl/trie_generic.hpp</text>
</a>
</g>
</g>
<!-- Node6&#45;&gt;Node7 -->
<g id="edge6" class="edge">
<title>Node6&#45;&gt;Node7</title>
<path fill="none" stroke="midnightblue" d="M832.27,-285.98C797.9,-275.59 739.69,-258.01 701.42,-246.45"/>
<polygon fill="midnightblue" stroke="midnightblue" points="702.26,-243.05 691.67,-243.51 700.23,-249.75 702.26,-243.05"/>
</g>
<!-- Node27 -->
<g id="node27" class="node">
<title>Node27</title>
<g id="a_node27"><a xlink:href="../../d1/dff/bit__comp_8hpp.html" target="_top" xlink:title=" ">
<polygon fill="none" stroke="black" points="836,-224.5 836,-243.5 919,-243.5 919,-224.5 836,-224.5"/>
<text text-anchor="middle" x="877.5" y="-231.5" font-family="Helvetica,sans-Serif" font-size="10.00">bit_comp.hpp</text>
</a>
</g>
</g>
<!-- Node6&#45;&gt;Node27 -->
<g id="edge35" class="edge">
<title>Node6&#45;&gt;Node27</title>
<path fill="none" stroke="midnightblue" d="M862.94,-285.98C865.36,-277.49 869.16,-264.2 872.27,-253.32"/>
<polygon fill="midnightblue" stroke="midnightblue" points="875.69,-254.09 875.07,-243.51 868.96,-252.16 875.69,-254.09"/>
</g>
<!-- Node8 -->
<g id="node8" class="node">
<title>Node8</title>
<g id="a_node8"><a xlink:title=" ">
<polygon fill="none" stroke="#bfbfbf" points="796.5,-112.5 796.5,-131.5 860.5,-131.5 860.5,-112.5 796.5,-112.5"/>
<text text-anchor="middle" x="828.5" y="-119.5" font-family="Helvetica,sans-Serif" font-size="10.00">algorithm</text>
</a>
</g>
</g>
<!-- Node7&#45;&gt;Node8 -->
<g id="edge7" class="edge">
<title>Node7&#45;&gt;Node8</title>
<path fill="none" stroke="midnightblue" d="M723.51,-227.42C752.63,-221.77 786.07,-210.49 808.5,-188 820.61,-175.86 825.41,-156.59 827.31,-142.17"/>
<polygon fill="midnightblue" stroke="midnightblue" points="830.82,-142.17 828.28,-131.88 823.85,-141.51 830.82,-142.17"/>
</g>
<!-- Node9 -->
<g id="node9" class="node">
<title>Node9</title>
<g id="a_node9"><a xlink:title=" ">
<polygon fill="none" stroke="#bfbfbf" points="525,-168.5 525,-187.5 590,-187.5 590,-168.5 525,-168.5"/>
<text text-anchor="middle" x="557.5" y="-175.5" font-family="Helvetica,sans-Serif" font-size="10.00">functional</text>
</a>
</g>
</g>
<!-- Node7&#45;&gt;Node9 -->
<g id="edge8" class="edge">
<title>Node7&#45;&gt;Node9</title>
<path fill="none" stroke="midnightblue" d="M646.47,-224.32C629.47,-215.66 603.12,-202.24 583.51,-192.25"/>
<polygon fill="midnightblue" stroke="midnightblue" points="584.99,-189.08 574.49,-187.65 581.81,-195.31 584.99,-189.08"/>
</g>
<!-- Node10 -->
<g id="node10" class="node">
<title>Node10</title>
<g id="a_node10"><a xlink:href="../../d3/d09/node_8hpp.html" target="_top" xlink:title=" ">
<polygon fill="none" stroke="black" points="737.5,-168.5 737.5,-187.5 799.5,-187.5 799.5,-168.5 737.5,-168.5"/>
<text text-anchor="middle" x="768.5" y="-175.5" font-family="Helvetica,sans-Serif" font-size="10.00">node.hpp</text>
</a>
</g>
</g>
<!-- Node7&#45;&gt;Node10 -->
<g id="edge9" class="edge">
<title>Node7&#45;&gt;Node10</title>
<path fill="none" stroke="midnightblue" d="M680.37,-224.32C697.21,-215.66 723.31,-202.24 742.74,-192.25"/>
<polygon fill="midnightblue" stroke="midnightblue" points="744.38,-195.34 751.67,-187.65 741.18,-189.12 744.38,-195.34"/>
</g>
<!-- Node12 -->
<g id="node12" class="node">
<title>Node12</title>
<g id="a_node12"><a xlink:href="../../d0/dd1/core__algorithm_8hpp.html" target="_top" xlink:title=" ">
<polygon fill="none" stroke="black" points="608,-168.5 608,-187.5 719,-187.5 719,-168.5 608,-168.5"/>
<text text-anchor="middle" x="663.5" y="-175.5" font-family="Helvetica,sans-Serif" font-size="10.00">core_algorithm.hpp</text>
</a>
</g>
</g>
<!-- Node7&#45;&gt;Node12 -->
<g id="edge12" class="edge">
<title>Node7&#45;&gt;Node12</title>
<path fill="none" stroke="midnightblue" d="M663.5,-224.08C663.5,-217.01 663.5,-206.86 663.5,-197.99"/>
<polygon fill="midnightblue" stroke="midnightblue" points="667,-197.75 663.5,-187.75 660,-197.75 667,-197.75"/>
</g>
<!-- Node18 -->
<g id="node18" class="node">
<title>Node18</title>
<g id="a_node18"><a xlink:href="../../de/d50/assoc__generic_8hpp.html" target="_top" xlink:title=" ">
<polygon fill="none" stroke="black" points="289,-168.5 289,-187.5 396,-187.5 396,-168.5 289,-168.5"/>
<text text-anchor="middle" x="342.5" y="-175.5" font-family="Helvetica,sans-Serif" font-size="10.00">assoc_generic.hpp</text>
</a>
</g>
</g>
<!-- Node7&#45;&gt;Node18 -->
<g id="edge20" class="edge">
<title>Node7&#45;&gt;Node18</title>
<path fill="none" stroke="midnightblue" d="M612.64,-224.44C555.82,-214.89 463.88,-199.42 403.31,-189.23"/>
<polygon fill="midnightblue" stroke="midnightblue" points="403.57,-185.72 393.13,-187.52 402.41,-192.63 403.57,-185.72"/>
</g>
<!-- Node25 -->
<g id="node25" class="node">
<title>Node25</title>
<g id="a_node25"><a xlink:href="../../d7/dd8/core__prefix_8hpp.html" target="_top" xlink:title=" ">
<polygon fill="none" stroke="black" points="414.5,-168.5 414.5,-187.5 506.5,-187.5 506.5,-168.5 414.5,-168.5"/>
<text text-anchor="middle" x="460.5" y="-175.5" font-family="Helvetica,sans-Serif" font-size="10.00">core_prefix.hpp</text>
</a>
</g>
</g>
<!-- Node7&#45;&gt;Node25 -->
<g id="edge33" class="edge">
<title>Node7&#45;&gt;Node25</title>
<path fill="none" stroke="midnightblue" d="M631.33,-224.44C596.44,-215.16 540.61,-200.31 502.33,-190.13"/>
<polygon fill="midnightblue" stroke="midnightblue" points="503.08,-186.7 492.52,-187.52 501.28,-193.47 503.08,-186.7"/>
</g>
<!-- Node10&#45;&gt;Node8 -->
<g id="edge10" class="edge">
<title>Node10&#45;&gt;Node8</title>
<path fill="none" stroke="midnightblue" d="M778.14,-168.32C787.01,-160.34 800.37,-148.31 811.11,-138.65"/>
<polygon fill="midnightblue" stroke="midnightblue" points="813.59,-141.13 818.68,-131.83 808.91,-135.92 813.59,-141.13"/>
</g>
<!-- Node11 -->
<g id="node11" class="node">
<title>Node11</title>
<g id="a_node11"><a xlink:href="../../d8/dfd/config_8hpp.html" target="_top" xlink:title=" ">
<polygon fill="none" stroke="black" points="710.5,-0.5 710.5,-19.5 786.5,-19.5 786.5,-0.5 710.5,-0.5"/>
<text text-anchor="middle" x="748.5" y="-7.5" font-family="Helvetica,sans-Serif" font-size="10.00">../config.hpp</text>
</a>
</g>
</g>
<!-- Node10&#45;&gt;Node11 -->
<g id="edge11" class="edge">
<title>Node10&#45;&gt;Node11</title>
<path fill="none" stroke="midnightblue" d="M767.42,-168.08C764.28,-141.95 755.03,-65.21 750.74,-29.58"/>
<polygon fill="midnightblue" stroke="midnightblue" points="754.2,-29.08 749.53,-19.57 747.25,-29.92 754.2,-29.08"/>
</g>
<!-- Node13 -->
<g id="node13" class="node">
<title>Node13</title>
<g id="a_node13"><a xlink:href="../../de/d55/algorithm_8hpp.html" target="_top" xlink:title=" ">
<polygon fill="none" stroke="black" points="655,-112.5 655,-131.5 740,-131.5 740,-112.5 655,-112.5"/>
<text text-anchor="middle" x="697.5" y="-119.5" font-family="Helvetica,sans-Serif" font-size="10.00">algorithm.hpp</text>
</a>
</g>
</g>
<!-- Node12&#45;&gt;Node13 -->
<g id="edge13" class="edge">
<title>Node12&#45;&gt;Node13</title>
<path fill="none" stroke="midnightblue" d="M669.11,-168.08C673.87,-160.53 680.82,-149.49 686.65,-140.23"/>
<polygon fill="midnightblue" stroke="midnightblue" points="689.62,-142.08 691.99,-131.75 683.7,-138.35 689.62,-142.08"/>
</g>
<!-- Node13&#45;&gt;Node11 -->
<g id="edge14" class="edge">
<title>Node13&#45;&gt;Node11</title>
<path fill="none" stroke="midnightblue" d="M701.5,-112.37C709.81,-94.46 729.06,-52.92 740.18,-28.95"/>
<polygon fill="midnightblue" stroke="midnightblue" points="743.49,-30.14 744.52,-19.59 737.14,-27.19 743.49,-30.14"/>
</g>
<!-- Node14 -->
<g id="node14" class="node">
<title>Node14</title>
<g id="a_node14"><a xlink:href="../../d9/d3a/trivial_8hpp.html" target="_top" xlink:title=" ">
<polygon fill="none" stroke="black" points="840.5,-56.5 840.5,-75.5 906.5,-75.5 906.5,-56.5 840.5,-56.5"/>
<text text-anchor="middle" x="873.5" y="-63.5" font-family="Helvetica,sans-Serif" font-size="10.00">trivial.hpp</text>
</a>
</g>
</g>
<!-- Node13&#45;&gt;Node14 -->
<g id="edge15" class="edge">
<title>Node13&#45;&gt;Node14</title>
<path fill="none" stroke="midnightblue" d="M725.39,-112.44C755.25,-103.28 802.81,-88.69 835.96,-78.52"/>
<polygon fill="midnightblue" stroke="midnightblue" points="837.21,-81.8 845.74,-75.52 835.16,-75.1 837.21,-81.8"/>
</g>
<!-- Node14&#45;&gt;Node11 -->
<g id="edge16" class="edge">
<title>Node14&#45;&gt;Node11</title>
<path fill="none" stroke="midnightblue" d="M853.69,-56.44C833.21,-47.6 801.02,-33.69 777.64,-23.59"/>
<polygon fill="midnightblue" stroke="midnightblue" points="778.78,-20.27 768.21,-19.52 776.01,-26.7 778.78,-20.27"/>
</g>
<!-- Node15 -->
<g id="node15" class="node">
<title>Node15</title>
<g id="a_node15"><a xlink:title=" ">
<polygon fill="none" stroke="#bfbfbf" points="944,-0.5 944,-19.5 1013,-19.5 1013,-0.5 944,-0.5"/>
<text text-anchor="middle" x="978.5" y="-7.5" font-family="Helvetica,sans-Serif" font-size="10.00">type_traits</text>
</a>
</g>
</g>
<!-- Node14&#45;&gt;Node15 -->
<g id="edge17" class="edge">
<title>Node14&#45;&gt;Node15</title>
<path fill="none" stroke="midnightblue" d="M890.37,-56.32C907.21,-47.66 933.31,-34.24 952.74,-24.25"/>
<polygon fill="midnightblue" stroke="midnightblue" points="954.38,-27.34 961.67,-19.65 951.18,-21.12 954.38,-27.34"/>
</g>
<!-- Node16 -->
<g id="node16" class="node">
<title>Node16</title>
<g id="a_node16"><a xlink:title=" ">
<polygon fill="none" stroke="#bfbfbf" points="804.5,-0.5 804.5,-19.5 856.5,-19.5 856.5,-0.5 804.5,-0.5"/>
<text text-anchor="middle" x="830.5" y="-7.5" font-family="Helvetica,sans-Serif" font-size="10.00">cassert</text>
</a>
</g>
</g>
<!-- Node14&#45;&gt;Node16 -->
<g id="edge18" class="edge">
<title>Node14&#45;&gt;Node16</title>
<path fill="none" stroke="midnightblue" d="M866.4,-56.08C860.26,-48.38 851.23,-37.03 843.76,-27.65"/>
<polygon fill="midnightblue" stroke="midnightblue" points="846.44,-25.39 837.47,-19.75 840.96,-29.75 846.44,-25.39"/>
</g>
<!-- Node17 -->
<g id="node17" class="node">
<title>Node17</title>
<g id="a_node17"><a xlink:title=" ">
<polygon fill="none" stroke="#bfbfbf" points="875,-0.5 875,-19.5 926,-19.5 926,-0.5 875,-0.5"/>
<text text-anchor="middle" x="900.5" y="-7.5" font-family="Helvetica,sans-Serif" font-size="10.00">intrin.h</text>
</a>
</g>
</g>
<!-- Node14&#45;&gt;Node17 -->
<g id="edge19" class="edge">
<title>Node14&#45;&gt;Node17</title>
<path fill="none" stroke="midnightblue" d="M877.96,-56.08C881.65,-48.69 887.02,-37.95 891.59,-28.81"/>
<polygon fill="midnightblue" stroke="midnightblue" points="894.78,-30.26 896.12,-19.75 888.52,-27.13 894.78,-30.26"/>
</g>
<!-- Node18&#45;&gt;Node5 -->
<g id="edge32" class="edge">
<title>Node18&#45;&gt;Node5</title>
<path fill="none" stroke="midnightblue" d="M396.08,-169.07C399.27,-168.68 402.42,-168.32 405.5,-168 650.33,-142.25 947.57,-128.19 1040.39,-124.2"/>
<polygon fill="midnightblue" stroke="midnightblue" points="1040.6,-127.69 1050.44,-123.77 1040.3,-120.7 1040.6,-127.69"/>
</g>
<!-- Node19 -->
<g id="node19" class="node">
<title>Node19</title>
<g id="a_node19"><a xlink:href="../../d5/db7/preorder__iterator_8hpp.html" target="_top" xlink:title=" ">
<polygon fill="none" stroke="black" points="198,-112.5 198,-131.5 317,-131.5 317,-112.5 198,-112.5"/>
<text text-anchor="middle" x="257.5" y="-119.5" font-family="Helvetica,sans-Serif" font-size="10.00">preorder_iterator.hpp</text>
</a>
</g>
</g>
<!-- Node18&#45;&gt;Node19 -->
<g id="edge21" class="edge">
<title>Node18&#45;&gt;Node19</title>
<path fill="none" stroke="midnightblue" d="M328.84,-168.32C315.58,-159.9 295.23,-146.97 279.65,-137.07"/>
<polygon fill="midnightblue" stroke="midnightblue" points="281.44,-134.06 271.12,-131.65 277.69,-139.97 281.44,-134.06"/>
</g>
<!-- Node20 -->
<g id="node20" class="node">
<title>Node20</title>
<g id="a_node20"><a xlink:href="../../d1/d2d/vertex_8hpp.html" target="_top" xlink:title=" ">
<polygon fill="none" stroke="black" points="363,-56.5 363,-75.5 432,-75.5 432,-56.5 363,-56.5"/>
<text text-anchor="middle" x="397.5" y="-63.5" font-family="Helvetica,sans-Serif" font-size="10.00">vertex.hpp</text>
</a>
</g>
</g>
<!-- Node18&#45;&gt;Node20 -->
<g id="edge31" class="edge">
<title>Node18&#45;&gt;Node20</title>
<path fill="none" stroke="midnightblue" d="M380.7,-168.46C413.84,-160.19 458.1,-146.76 468.5,-132 483.27,-111.04 454.84,-91.86 429.69,-79.85"/>
<polygon fill="midnightblue" stroke="midnightblue" points="430.86,-76.54 420.3,-75.61 427.97,-82.92 430.86,-76.54"/>
</g>
<!-- Node22 -->
<g id="node22" class="node">
<title>Node22</title>
<g id="a_node22"><a xlink:href="../../df/d24/postorder__iterator_8hpp.html" target="_top" xlink:title=" ">
<polygon fill="none" stroke="black" points="335,-112.5 335,-131.5 460,-131.5 460,-112.5 335,-112.5"/>
<text text-anchor="middle" x="397.5" y="-119.5" font-family="Helvetica,sans-Serif" font-size="10.00">postorder_iterator.hpp</text>
</a>
</g>
</g>
<!-- Node18&#45;&gt;Node22 -->
<g id="edge24" class="edge">
<title>Node18&#45;&gt;Node22</title>
<path fill="none" stroke="midnightblue" d="M351.58,-168.08C359.67,-160.14 371.7,-148.34 381.41,-138.8"/>
<polygon fill="midnightblue" stroke="midnightblue" points="383.9,-141.25 388.59,-131.75 379,-136.26 383.9,-141.25"/>
</g>
<!-- Node23 -->
<g id="node23" class="node">
<title>Node23</title>
<g id="a_node23"><a xlink:href="../../d9/dde/iterator_8hpp.html" target="_top" xlink:title=" ">
<polygon fill="none" stroke="black" points="0,-112.5 0,-131.5 73,-131.5 73,-112.5 0,-112.5"/>
<text text-anchor="middle" x="36.5" y="-119.5" font-family="Helvetica,sans-Serif" font-size="10.00">iterator.hpp</text>
</a>
</g>
</g>
<!-- Node18&#45;&gt;Node23 -->
<g id="edge27" class="edge">
<title>Node18&#45;&gt;Node23</title>
<path fill="none" stroke="midnightblue" d="M290.43,-168.44C239.86,-160.04 160.65,-146.62 83.24,-132.29"/>
<polygon fill="midnightblue" stroke="midnightblue" points="83.79,-128.83 73.32,-130.45 82.51,-135.72 83.79,-128.83"/>
</g>
<!-- Node24 -->
<g id="node24" class="node">
<title>Node24</title>
<g id="a_node24"><a xlink:href="../../d7/d8f/partimator_8hpp.html" target="_top" xlink:title=" ">
<polygon fill="none" stroke="black" points="91,-112.5 91,-131.5 180,-131.5 180,-112.5 91,-112.5"/>
<text text-anchor="middle" x="135.5" y="-119.5" font-family="Helvetica,sans-Serif" font-size="10.00">partimator.hpp</text>
</a>
</g>
</g>
<!-- Node18&#45;&gt;Node24 -->
<g id="edge29" class="edge">
<title>Node18&#45;&gt;Node24</title>
<path fill="none" stroke="midnightblue" d="M309.7,-168.44C274.12,-159.16 217.19,-144.31 178.15,-134.13"/>
<polygon fill="midnightblue" stroke="midnightblue" points="178.71,-130.65 168.15,-131.52 176.94,-137.43 178.71,-130.65"/>
</g>
<!-- Node19&#45;&gt;Node20 -->
<g id="edge22" class="edge">
<title>Node19&#45;&gt;Node20</title>
<path fill="none" stroke="midnightblue" d="M279.68,-112.44C302.93,-103.48 339.65,-89.31 365.92,-79.18"/>
<polygon fill="midnightblue" stroke="midnightblue" points="367.35,-82.38 375.42,-75.52 364.83,-75.85 367.35,-82.38"/>
</g>
<!-- Node21 -->
<g id="node21" class="node">
<title>Node21</title>
<g id="a_node21"><a xlink:title=" ">
<polygon fill="none" stroke="#bfbfbf" points="170,-56.5 170,-75.5 223,-75.5 223,-56.5 170,-56.5"/>
<text text-anchor="middle" x="196.5" y="-63.5" font-family="Helvetica,sans-Serif" font-size="10.00">iterator</text>
</a>
</g>
</g>
<!-- Node19&#45;&gt;Node21 -->
<g id="edge23" class="edge">
<title>Node19&#45;&gt;Node21</title>
<path fill="none" stroke="midnightblue" d="M247.7,-112.32C238.68,-104.34 225.09,-92.31 214.18,-82.65"/>
<polygon fill="midnightblue" stroke="midnightblue" points="216.29,-79.84 206.48,-75.83 211.65,-85.08 216.29,-79.84"/>
</g>
<!-- Node22&#45;&gt;Node20 -->
<g id="edge25" class="edge">
<title>Node22&#45;&gt;Node20</title>
<path fill="none" stroke="midnightblue" d="M397.5,-112.08C397.5,-105.01 397.5,-94.86 397.5,-85.99"/>
<polygon fill="midnightblue" stroke="midnightblue" points="401,-85.75 397.5,-75.75 394,-85.75 401,-85.75"/>
</g>
<!-- Node22&#45;&gt;Node21 -->
<g id="edge26" class="edge">
<title>Node22&#45;&gt;Node21</title>
<path fill="none" stroke="midnightblue" d="M365.65,-112.44C329.63,-102.77 271.07,-87.03 233.17,-76.85"/>
<polygon fill="midnightblue" stroke="midnightblue" points="233.63,-73.35 223.06,-74.14 231.81,-80.11 233.63,-73.35"/>
</g>
<!-- Node23&#45;&gt;Node21 -->
<g id="edge28" class="edge">
<title>Node23&#45;&gt;Node21</title>
<path fill="none" stroke="midnightblue" d="M61.85,-112.44C88.77,-103.36 131.5,-88.94 161.59,-78.78"/>
<polygon fill="midnightblue" stroke="midnightblue" points="162.91,-82.03 171.27,-75.52 160.67,-75.4 162.91,-82.03"/>
</g>
<!-- Node24&#45;&gt;Node21 -->
<g id="edge30" class="edge">
<title>Node24&#45;&gt;Node21</title>
<path fill="none" stroke="midnightblue" d="M145.3,-112.32C154.32,-104.34 167.91,-92.31 178.82,-82.65"/>
<polygon fill="midnightblue" stroke="midnightblue" points="181.35,-85.08 186.52,-75.83 176.71,-79.84 181.35,-85.08"/>
</g>
<!-- Node26 -->
<g id="node26" class="node">
<title>Node26</title>
<g id="a_node26"><a xlink:href="../../d0/d34/prefix_8hpp.html" target="_top" xlink:title=" ">
<polygon fill="none" stroke="black" points="517,-112.5 517,-131.5 582,-131.5 582,-112.5 517,-112.5"/>
<text text-anchor="middle" x="549.5" y="-119.5" font-family="Helvetica,sans-Serif" font-size="10.00">prefix.hpp</text>
</a>
</g>
</g>
<!-- Node25&#45;&gt;Node26 -->
<g id="edge34" class="edge">
<title>Node25&#45;&gt;Node26</title>
<path fill="none" stroke="midnightblue" d="M474.8,-168.32C488.68,-159.9 509.99,-146.97 526.3,-137.07"/>
<polygon fill="midnightblue" stroke="midnightblue" points="528.5,-139.83 535.24,-131.65 524.87,-133.85 528.5,-139.83"/>
</g>
<!-- Node27&#45;&gt;Node3 -->
<g id="edge37" class="edge">
<title>Node27&#45;&gt;Node3</title>
<path fill="none" stroke="midnightblue" d="M893.89,-224.32C910.17,-215.7 935.37,-202.36 954.22,-192.39"/>
<polygon fill="midnightblue" stroke="midnightblue" points="955.95,-195.43 963.15,-187.65 952.68,-189.24 955.95,-195.43"/>
</g>
<!-- Node27&#45;&gt;Node14 -->
<g id="edge38" class="edge">
<title>Node27&#45;&gt;Node14</title>
<path fill="none" stroke="midnightblue" d="M885.98,-224.23C893.55,-215.75 904.1,-202.13 908.5,-188 919.98,-151.11 898.95,-107.51 884.81,-84.03"/>
<polygon fill="midnightblue" stroke="midnightblue" points="887.75,-82.14 879.46,-75.54 881.83,-85.87 887.75,-82.14"/>
</g>
<!-- Node28 -->
<g id="node28" class="node">
<title>Node28</title>
<g id="a_node28"><a xlink:title=" ">
<polygon fill="none" stroke="#bfbfbf" points="855.5,-168.5 855.5,-187.5 899.5,-187.5 899.5,-168.5 855.5,-168.5"/>
<text text-anchor="middle" x="877.5" y="-175.5" font-family="Helvetica,sans-Serif" font-size="10.00">string</text>
</a>
</g>
</g>
<!-- Node27&#45;&gt;Node28 -->
<g id="edge36" class="edge">
<title>Node27&#45;&gt;Node28</title>
<path fill="none" stroke="midnightblue" d="M877.5,-224.08C877.5,-217.01 877.5,-206.86 877.5,-197.99"/>
<polygon fill="midnightblue" stroke="midnightblue" points="881,-197.75 877.5,-187.75 874,-197.75 881,-197.75"/>
</g>
<!-- Node30 -->
<g id="node30" class="node">
<title>Node30</title>
<g id="a_node30"><a xlink:href="../../d0/d40/partial__base_8hpp.html" target="_top" xlink:title=" ">
<polygon fill="none" stroke="black" points="975.5,-224.5 975.5,-243.5 1097.5,-243.5 1097.5,-224.5 975.5,-224.5"/>
<text text-anchor="middle" x="1036.5" y="-231.5" font-family="Helvetica,sans-Serif" font-size="10.00">impl/partial_base.hpp</text>
</a>
</g>
</g>
<!-- Node29&#45;&gt;Node30 -->
<g id="edge40" class="edge">
<title>Node29&#45;&gt;Node30</title>
<path fill="none" stroke="midnightblue" d="M1036.5,-285.98C1036.5,-277.58 1036.5,-264.48 1036.5,-253.66"/>
<polygon fill="midnightblue" stroke="midnightblue" points="1040,-253.51 1036.5,-243.51 1033,-253.51 1040,-253.51"/>
</g>
<!-- Node30&#45;&gt;Node3 -->
<g id="edge41" class="edge">
<title>Node30&#45;&gt;Node3</title>
<path fill="none" stroke="midnightblue" d="M1027.34,-224.32C1019,-216.42 1006.47,-204.55 996.32,-194.94"/>
<polygon fill="midnightblue" stroke="midnightblue" points="998.49,-192.17 988.82,-187.83 993.68,-197.25 998.49,-192.17"/>
</g>
<!-- Node30&#45;&gt;Node5 -->
<g id="edge42" class="edge">
<title>Node30&#45;&gt;Node5</title>
<path fill="none" stroke="midnightblue" d="M1039.09,-224.37C1044.44,-206.54 1056.81,-165.3 1064.02,-141.27"/>
<polygon fill="midnightblue" stroke="midnightblue" points="1067.4,-142.18 1066.92,-131.59 1060.7,-140.16 1067.4,-142.18"/>
</g>
<!-- Node30&#45;&gt;Node8 -->
<g id="edge43" class="edge">
<title>Node30&#45;&gt;Node8</title>
<path fill="none" stroke="midnightblue" d="M1035.84,-224.42C1034.3,-210.46 1029.2,-182.9 1012.5,-168 973.45,-133.16 911.84,-124.24 870.81,-122.49"/>
<polygon fill="midnightblue" stroke="midnightblue" points="870.7,-118.98 860.6,-122.18 870.49,-125.98 870.7,-118.98"/>
</g>
<!-- Node32 -->
<g id="node32" class="node">
<title>Node32</title>
<g id="a_node32"><a xlink:title=" ">
<polygon fill="none" stroke="#bfbfbf" points="1225.5,-224.5 1225.5,-243.5 1287.5,-243.5 1287.5,-224.5 1225.5,-224.5"/>
<text text-anchor="middle" x="1256.5" y="-231.5" font-family="Helvetica,sans-Serif" font-size="10.00">cinttypes</text>
</a>
</g>
</g>
<!-- Node31&#45;&gt;Node32 -->
<g id="edge45" class="edge">
<title>Node31&#45;&gt;Node32</title>
<path fill="none" stroke="midnightblue" d="M1256.5,-280.4C1256.5,-272.47 1256.5,-262.46 1256.5,-253.86"/>
<polygon fill="midnightblue" stroke="midnightblue" points="1260,-253.66 1256.5,-243.66 1253,-253.66 1260,-253.66"/>
</g>
</g>
</svg>
        <g id="navigator" transform="translate(0 0)" fill="#404254">
                <rect fill="#f2f5e9" fill-opacity="0.5" stroke="#606060" stroke-width=".5" x="0" y="0" width="60" height="60"/>
                <use id="zoomplus" xlink:href="#zoomPlus" x="17" y="9" onmousedown="handleZoom(evt,'in')"/>
                <use id="zoomminus" xlink:href="#zoomMin" x="42" y="9" onmousedown="handleZoom(evt,'out')"/>
                <use id="reset" xlink:href="#resetDef" x="30" y="36" onmousedown="handleReset()"/>
                <g id="arrowUp" xlink:href="#dirArrow" transform="translate(30 24)" onmousedown="handlePan(0,-1)">
                  <use xlink:href="#rim" fill="#404040">
                        <set attributeName="fill" to="#808080" begin="arrowUp.mouseover" end="arrowUp.mouseout"/>
                  </use>
                  <path fill="none" stroke="white" stroke-width="1.5" d="M0,-3.0v7 M-2.5,-0.5L0,-3.0L2.5,-0.5"/>
                </g>
                <g id="arrowRight" xlink:href="#dirArrow" transform="rotate(90) translate(36 -43)" onmousedown="handlePan(1,0)">
                  <use xlink:href="#rim" fill="#404040">
                        <set attributeName="fill" to="#808080" begin="arrowRight.mouseover" end="arrowRight.mouseout"/>
                  </use>
                  <path fill="none" stroke="white" stroke-width="1.5" d="M0,-3.0v7 M-2.5,-0.5L0,-3.0L2.5,-0.5"/>
                </g>
                <g id="arrowDown" xlink:href="#dirArrow" transform="rotate(180) translate(-30 -48)" onmousedown="handlePan(0,1)">
                  <use xlink:href="#rim" fill="#404040">
                        <set attributeName="fill" to="#808080" begin="arrowDown.mouseover" end="arrowDown.mouseout"/>
                  </use>
                  <path fill="none" stroke="white" stroke-width="1.5" d="M0,-3.0v7 M-2.5,-0.5L0,-3.0L2.5,-0.5"/>
                </g>
                <g id="arrowLeft" xlink:href="#dirArrow" transform="rotate(270) translate(-36 17)" onmousedown="handlePan(-1,0)">
                  <use xlink:href="#rim" fill="#404040">
                        <set attributeName="fill" to="#808080" begin="arrowLeft.mouseover" end="arrowLeft.mouseout"/>
                  </use>
                  <path fill="none" stroke="white" stroke-width="1.5" d="M0,-3.0v7 M-2.5,-0.5L0,-3.0L2.5,-0.5"/>
                </g>
        </g>
        <svg viewBox="0 0 15 15" width="100%" height="30px" preserveAspectRatio="xMaxYMin meet">
         <g id="arrow_out" transform="scale(0.3 0.3)">
          <a xlink:href="muxoclon_8cpp__incl_org.svg" target="_base">
           <rect id="button" ry="5" rx="5" y="6" x="6" height="38" width="38"
                fill="#f2f5e9" fill-opacity="0.5" stroke="#606060" stroke-width="1.0"/>
           <path id="arrow"
             d="M 11.500037,31.436501 C 11.940474,20.09759 22.043105,11.32322 32.158766,21.979434 L 37.068811,17.246167 C 37.068811,17.246167 37.088388,32 37.088388,32 L 22.160133,31.978069 C 22.160133,31.978069 26.997745,27.140456 26.997745,27.140456 C 18.528582,18.264221 13.291696,25.230495 11.500037,31.436501 z"
             style="fill:#404040;"/>
          </a>
         </g>
        </svg>
</svg>
