<?xml version="1.0" encoding="UTF-8" standalone="no"?>
<!DOCTYPE svg PUBLIC "-//W3C//DTD SVG 1.1//EN"
 "http://www.w3.org/Graphics/SVG/1.1/DTD/svg11.dtd">
<!-- Generated by graphviz version 5.0.1 (20220820.1526)
 -->
<!-- Title: uxn::patl::bit_comparator&lt; word_t, 16 &gt; Pages: 1 -->
<svg width="149pt" height="310pt"
 viewBox="0.00 0.00 149.00 310.00" xmlns="http://www.w3.org/2000/svg" xmlns:xlink="http://www.w3.org/1999/xlink">
<g id="graph0" class="graph" transform="scale(1 1) rotate(0) translate(4 306)">
<title>uxn::patl::bit_comparator&lt; word_t, 16 &gt;</title>
<!-- Node1 -->
<g id="node1" class="node">
<title>Node1</title>
<g id="a_node1"><a xlink:title=" ">
<polygon fill="#bfbfbf" stroke="black" points="0,-0.5 0,-79.5 140,-79.5 140,-0.5 0,-0.5"/>
<text text-anchor="start" x="8" y="-67.5" font-family="Helvetica,sans-Serif" font-size="10.00">uxn::patl::bit_comparator</text>
<text text-anchor="middle" x="70" y="-56.5" font-family="Helvetica,sans-Serif" font-size="10.00">&lt; word_t, 16 &gt;</text>
<polyline fill="none" stroke="black" points="0,-49.5 140,-49.5"/>
<text text-anchor="middle" x="70" y="-37.5" font-family="Helvetica,sans-Serif" font-size="10.00"> </text>
<polyline fill="none" stroke="black" points="0,-30.5 140,-30.5"/>
<text text-anchor="start" x="8" y="-18.5" font-family="Helvetica,sans-Serif" font-size="10.00">&#45; word_t get_bits(word</text>
<text text-anchor="start" x="8" y="-7.5" font-family="Helvetica,sans-Serif" font-size="10.00">_t val, word_t off) const</text>
</a>
</g>
</g>
<!-- Node2 -->
<g id="node2" class="node">
<title>Node2</title>
<g id="a_node2"><a xlink:href="../../d2/db7/classuxn_1_1patl_1_1bit__comparator.html" target="_top" xlink:title=" ">
<polygon fill="none" stroke="black" points="0,-117.5 0,-185.5 140,-185.5 140,-117.5 0,-117.5"/>
<text text-anchor="start" x="8" y="-173.5" font-family="Helvetica,sans-Serif" font-size="10.00">uxn::patl::bit_comparator</text>
<text text-anchor="middle" x="70" y="-162.5" font-family="Helvetica,sans-Serif" font-size="10.00">&lt; word_t, 0 &gt;</text>
<polyline fill="none" stroke="black" points="0,-155.5 140,-155.5"/>
<text text-anchor="middle" x="70" y="-143.5" font-family="Helvetica,sans-Serif" font-size="10.00"> </text>
<polyline fill="none" stroke="black" points="0,-136.5 140,-136.5"/>
<text text-anchor="middle" x="70" y="-124.5" font-family="Helvetica,sans-Serif" font-size="10.00"> </text>
</a>
</g>
</g>
<!-- Node2&#45;&gt;Node1 -->
<g id="edge1" class="edge">
<title>Node2&#45;&gt;Node1</title>
<path fill="none" stroke="midnightblue" d="M70,-107.34C70,-98.25 70,-88.72 70,-79.81"/>
<polygon fill="none" stroke="midnightblue" points="66.5,-107.35 70,-117.35 73.5,-107.35 66.5,-107.35"/>
</g>
<!-- Node3 -->
<g id="node3" class="node">
<title>Node3</title>
<g id="a_node3"><a xlink:href="../../d2/db7/classuxn_1_1patl_1_1bit__comparator.html" target="_top" xlink:title=" ">
<polygon fill="none" stroke="black" points="0,-233.5 0,-301.5 140,-301.5 140,-233.5 0,-233.5"/>
<text text-anchor="start" x="8" y="-289.5" font-family="Helvetica,sans-Serif" font-size="10.00">uxn::patl::bit_comparator</text>
<text text-anchor="middle" x="70" y="-278.5" font-family="Helvetica,sans-Serif" font-size="10.00">&lt; T, N &gt;</text>
<polyline fill="none" stroke="black" points="0,-271.5 140,-271.5"/>
<text text-anchor="middle" x="70" y="-259.5" font-family="Helvetica,sans-Serif" font-size="10.00"> </text>
<polyline fill="none" stroke="black" points="0,-252.5 140,-252.5"/>
<text text-anchor="middle" x="70" y="-240.5" font-family="Helvetica,sans-Serif" font-size="10.00"> </text>
</a>
</g>
</g>
<!-- Node3&#45;&gt;Node2 -->
<g id="edge2" class="edge">
<title>Node3&#45;&gt;Node2</title>
<path fill="none" stroke="orange" d="M70,-223.06C70,-210.64 70,-197.32 70,-185.62"/>
<polygon fill="orange" stroke="orange" points="66.5,-223.22 70,-233.22 73.5,-223.22 66.5,-223.22"/>
<text text-anchor="middle" x="105.5" y="-207" font-family="Helvetica,sans-Serif" font-size="10.00"> &lt; word_t, 0 &gt;</text>
</g>
</g>
</svg>
