<?xml version="1.0" encoding="UTF-8" standalone="no"?>
<!DOCTYPE svg PUBLIC "-//W3C//DTD SVG 1.1//EN"
 "http://www.w3.org/Graphics/SVG/1.1/DTD/svg11.dtd">
<!-- Generated by graphviz version 5.0.1 (20220820.1526)
 -->
<!-- Title: uxn::patl::unordered_map&lt; Key, Datum, HashFun, Pred, Alloc &gt; Pages: 1 -->
<!--zoomable 788 -->
<svg id="main" version="1.1" xmlns="http://www.w3.org/2000/svg" xmlns:xlink="http://www.w3.org/1999/xlink" xml:space="preserve" onload="init(evt)">
<style type="text/css"><![CDATA[
.edge:hover path { stroke: red; }
.edge:hover polygon { stroke: red; fill: red; }
]]></style>
<script type="text/javascript"><![CDATA[
var edges = document.getElementsByTagName('g');
if (edges && edges.length) {
  for (var i=0;i<edges.length;i++) {
    if (edges[i].id.substr(0,4)=='edge') {
      edges[i].setAttribute('class','edge');
    }
  }
}
]]></script>
        <defs>
                <circle id="rim" cx="0" cy="0" r="7"/>
                <circle id="rim2" cx="0" cy="0" r="3.5"/>
                <g id="zoomPlus">
                        <use xlink:href="#rim" fill="#404040">
                                <set attributeName="fill" to="#808080" begin="zoomplus.mouseover" end="zoomplus.mouseout"/>
                        </use>
                        <path d="M-4,0h8M0,-4v8" fill="none" stroke="white" stroke-width="1.5" pointer-events="none"/>
                </g>
                <g id="zoomMin">
                        <use xlink:href="#rim" fill="#404040">
                                <set attributeName="fill" to="#808080" begin="zoomminus.mouseover" end="zoomminus.mouseout"/>
                        </use>
                        <path d="M-4,0h8" fill="none" stroke="white" stroke-width="1.5" pointer-events="none"/>
                </g>
                <g id="dirArrow">
                        <path fill="none" stroke="white" stroke-width="1.5" d="M0,-3.0v7 M-2.5,-0.5L0,-3.0L2.5,-0.5"/>
                </g>
               <g id="resetDef">
                       <use xlink:href="#rim2" fill="#404040">
                               <set attributeName="fill" to="#808080" begin="reset.mouseover" end="reset.mouseout"/>
                       </use>
               </g>
        </defs>

<script type="text/javascript">
var viewWidth = 522;
var viewHeight = 788;
var sectionId = 'dynsection-0';
</script>
<script xlink:href="../../svgpan.js"/>
<svg id="graph" class="graph">
<g id="viewport">
<title>uxn::patl::unordered_map&lt; Key, Datum, HashFun, Pred, Alloc &gt;</title>
<!-- Node1 -->
<g id="node1" class="node">
<title>Node1</title>
<g id="a_node1"><a xlink:title=" ">
<polygon fill="#bfbfbf" stroke="black" points="160,-0.5 160,-277.5 327,-277.5 327,-0.5 160,-0.5"/>
<text text-anchor="start" x="168" y="-265.5" font-family="Helvetica,sans-Serif" font-size="10.00">uxn::patl::unordered</text>
<text text-anchor="start" x="168" y="-254.5" font-family="Helvetica,sans-Serif" font-size="10.00">_map&lt; Key, Datum, HashFun,</text>
<text text-anchor="middle" x="243.5" y="-243.5" font-family="Helvetica,sans-Serif" font-size="10.00"> Pred, Alloc &gt;</text>
<polyline fill="none" stroke="black" points="160,-236.5 327,-236.5"/>
<text text-anchor="start" x="168" y="-224.5" font-family="Helvetica,sans-Serif" font-size="10.00">&#45; hasher hf_</text>
<text text-anchor="start" x="168" y="-213.5" font-family="Helvetica,sans-Serif" font-size="10.00">&#45; key_equal eql_</text>
<text text-anchor="start" x="168" y="-202.5" font-family="Helvetica,sans-Serif" font-size="10.00">&#45; word_t size_</text>
<text text-anchor="start" x="168" y="-191.5" font-family="Helvetica,sans-Serif" font-size="10.00">&#45; word_t free_size_</text>
<text text-anchor="start" x="168" y="-180.5" font-family="Helvetica,sans-Serif" font-size="10.00">&#45; word_t free_list_</text>
<polyline fill="none" stroke="black" points="160,-173.5 327,-173.5"/>
<text text-anchor="start" x="168" y="-161.5" font-family="Helvetica,sans-Serif" font-size="10.00">+ unordered_map(word</text>
<text text-anchor="start" x="168" y="-150.5" font-family="Helvetica,sans-Serif" font-size="10.00">_t capacity=0, const</text>
<text text-anchor="start" x="168" y="-139.5" font-family="Helvetica,sans-Serif" font-size="10.00"> hasher &amp;hf=hasher(),</text>
<text text-anchor="start" x="168" y="-128.5" font-family="Helvetica,sans-Serif" font-size="10.00"> const key_equal &amp;eql</text>
<text text-anchor="start" x="168" y="-117.5" font-family="Helvetica,sans-Serif" font-size="10.00">=key_equal(), const allocator</text>
<text text-anchor="start" x="168" y="-106.5" font-family="Helvetica,sans-Serif" font-size="10.00">_type &amp;alloc=allocator_type())</text>
<text text-anchor="start" x="168" y="-95.5" font-family="Helvetica,sans-Serif" font-size="10.00">+ bool empty() const</text>
<text text-anchor="start" x="168" y="-84.5" font-family="Helvetica,sans-Serif" font-size="10.00">+ word_t size() const</text>
<text text-anchor="start" x="168" y="-73.5" font-family="Helvetica,sans-Serif" font-size="10.00">+ void clear()</text>
<text text-anchor="start" x="168" y="-62.5" font-family="Helvetica,sans-Serif" font-size="10.00">+ mapped_type &amp; operator</text>
<text text-anchor="start" x="168" y="-51.5" font-family="Helvetica,sans-Serif" font-size="10.00">[](const key_type &amp;key)</text>
<text text-anchor="start" x="168" y="-40.5" font-family="Helvetica,sans-Serif" font-size="10.00">+ size_type erase(const</text>
<text text-anchor="start" x="168" y="-29.5" font-family="Helvetica,sans-Serif" font-size="10.00"> key_type &amp;key)</text>
<text text-anchor="start" x="168" y="-18.5" font-family="Helvetica,sans-Serif" font-size="10.00">&#45; void init(word_t capacity)</text>
<text text-anchor="start" x="168" y="-7.5" font-family="Helvetica,sans-Serif" font-size="10.00">&#45; void resize()</text>
</a>
</g>
</g>
<!-- Node2 -->
<g id="node2" class="node">
<title>Node2</title>
<g id="a_node2"><a xlink:title=" ">
<polygon fill="none" stroke="black" points="0,-325.5 0,-404.5 161,-404.5 161,-325.5 0,-325.5"/>
<text text-anchor="start" x="8" y="-392.5" font-family="Helvetica,sans-Serif" font-size="10.00">std::allocator&lt; std</text>
<text text-anchor="middle" x="80.5" y="-381.5" font-family="Helvetica,sans-Serif" font-size="10.00">::pair&lt; const Key, Datum &gt; &gt;</text>
<polyline fill="none" stroke="black" points="0,-374.5 161,-374.5"/>
<text text-anchor="start" x="8" y="-362.5" font-family="Helvetica,sans-Serif" font-size="10.00">+ std::pair&lt; const Key,</text>
<text text-anchor="start" x="8" y="-351.5" font-family="Helvetica,sans-Serif" font-size="10.00"> Datum &gt; elements</text>
<polyline fill="none" stroke="black" points="0,-344.5 161,-344.5"/>
<text text-anchor="middle" x="80.5" y="-332.5" font-family="Helvetica,sans-Serif" font-size="10.00"> </text>
</a>
</g>
</g>
<!-- Node2&#45;&gt;Node1 -->
<g id="edge1" class="edge">
<title>Node2&#45;&gt;Node1</title>
<path fill="none" stroke="#404040" d="M108.52,-325.49C121.05,-308.28 136.59,-286.91 152.63,-264.87"/>
<polygon fill="none" stroke="#404040" points="152.71,-264.76 153.01,-257.56 159.77,-255.06 159.48,-262.26 152.71,-264.76"/>
<text text-anchor="middle" x="147.5" y="-299" font-family="Helvetica,sans-Serif" font-size="10.00"> &#45;alloc_</text>
</g>
<!-- Node3 -->
<g id="node3" class="node">
<title>Node3</title>
<g id="a_node3"><a xlink:title=" ">
<polygon fill="none" stroke="black" points="57,-540.5 57,-597.5 166,-597.5 166,-540.5 57,-540.5"/>
<text text-anchor="middle" x="111.5" y="-585.5" font-family="Helvetica,sans-Serif" font-size="10.00">std::allocator&lt; T &gt;</text>
<polyline fill="none" stroke="black" points="57,-578.5 166,-578.5"/>
<text text-anchor="middle" x="111.5" y="-566.5" font-family="Helvetica,sans-Serif" font-size="10.00"> </text>
<polyline fill="none" stroke="black" points="57,-559.5 166,-559.5"/>
<text text-anchor="middle" x="111.5" y="-547.5" font-family="Helvetica,sans-Serif" font-size="10.00"> </text>
</a>
</g>
</g>
<!-- Node3&#45;&gt;Node2 -->
<g id="edge2" class="edge">
<title>Node3&#45;&gt;Node2</title>
<path fill="none" stroke="orange" d="M105.71,-530.28C100.22,-494.47 91.99,-440.87 86.44,-404.73"/>
<polygon fill="orange" stroke="orange" points="102.28,-530.98 107.25,-540.34 109.2,-529.92 102.28,-530.98"/>
<text text-anchor="start" x="92.5" y="-437" font-family="Helvetica,sans-Serif" font-size="10.00"> &lt; std::pair&lt; const</text>
<text text-anchor="middle" x="138.5" y="-426" font-family="Helvetica,sans-Serif" font-size="10.00"> Key, Datum &gt; &gt;</text>
</g>
<!-- Node4 -->
<g id="node4" class="node">
<title>Node4</title>
<g id="a_node4"><a xlink:title=" ">
<polygon fill="none" stroke="black" points="157,-722.5 157,-779.5 186,-779.5 186,-722.5 157,-722.5"/>
<text text-anchor="middle" x="171.5" y="-767.5" font-family="Helvetica,sans-Serif" font-size="10.00">T</text>
<polyline fill="none" stroke="black" points="157,-760.5 186,-760.5"/>
<text text-anchor="middle" x="171.5" y="-748.5" font-family="Helvetica,sans-Serif" font-size="10.00"> </text>
<polyline fill="none" stroke="black" points="157,-741.5 186,-741.5"/>
<text text-anchor="middle" x="171.5" y="-729.5" font-family="Helvetica,sans-Serif" font-size="10.00"> </text>
</a>
</g>
</g>
<!-- Node4&#45;&gt;Node3 -->
<g id="edge3" class="edge">
<title>Node4&#45;&gt;Node3</title>
<path fill="none" stroke="#404040" d="M156.96,-730.19C151.77,-722.35 146.28,-713.06 142.5,-704 129.81,-673.56 121.79,-636.96 117.09,-609.7"/>
<polygon fill="none" stroke="#404040" points="117.04,-609.36 112.13,-604.09 115.11,-597.52 120.02,-602.8 117.04,-609.36"/>
<text text-anchor="middle" x="171.5" y="-696" font-family="Helvetica,sans-Serif" font-size="10.00"> +elements</text>
</g>
<!-- Node6 -->
<g id="node6" class="node">
<title>Node6</title>
<g id="a_node6"><a xlink:title=" ">
<polygon fill="none" stroke="black" points="189,-540.5 189,-597.5 286,-597.5 286,-540.5 189,-540.5"/>
<text text-anchor="middle" x="237.5" y="-585.5" font-family="Helvetica,sans-Serif" font-size="10.00">std::vector&lt; T &gt;</text>
<polyline fill="none" stroke="black" points="189,-578.5 286,-578.5"/>
<text text-anchor="middle" x="237.5" y="-566.5" font-family="Helvetica,sans-Serif" font-size="10.00"> </text>
<polyline fill="none" stroke="black" points="189,-559.5 286,-559.5"/>
<text text-anchor="middle" x="237.5" y="-547.5" font-family="Helvetica,sans-Serif" font-size="10.00"> </text>
</a>
</g>
</g>
<!-- Node4&#45;&gt;Node6 -->
<g id="edge6" class="edge">
<title>Node4&#45;&gt;Node6</title>
<path fill="none" stroke="#404040" d="M186.13,-729.65C191.21,-721.9 196.61,-712.81 200.5,-704 213.99,-673.46 223.7,-636.81 229.78,-609.56"/>
<polygon fill="none" stroke="#404040" points="229.8,-609.49 227.15,-602.78 232.32,-597.76 234.97,-604.46 229.8,-609.49"/>
<text text-anchor="middle" x="234.5" y="-696" font-family="Helvetica,sans-Serif" font-size="10.00"> +elements</text>
</g>
<!-- Node5 -->
<g id="node5" class="node">
<title>Node5</title>
<g id="a_node5"><a xlink:title=" ">
<polygon fill="none" stroke="black" points="179,-336.5 179,-393.5 308,-393.5 308,-336.5 179,-336.5"/>
<text text-anchor="middle" x="243.5" y="-381.5" font-family="Helvetica,sans-Serif" font-size="10.00">std::vector&lt; sword_t &gt;</text>
<polyline fill="none" stroke="black" points="179,-374.5 308,-374.5"/>
<text text-anchor="start" x="187" y="-362.5" font-family="Helvetica,sans-Serif" font-size="10.00">+ sword_t elements</text>
<polyline fill="none" stroke="black" points="179,-355.5 308,-355.5"/>
<text text-anchor="middle" x="243.5" y="-343.5" font-family="Helvetica,sans-Serif" font-size="10.00"> </text>
</a>
</g>
</g>
<!-- Node5&#45;&gt;Node1 -->
<g id="edge4" class="edge">
<title>Node5&#45;&gt;Node1</title>
<path fill="none" stroke="#404040" d="M243.5,-336.08C243.5,-323.35 243.5,-307.2 243.5,-289.65"/>
<polygon fill="none" stroke="#404040" points="243.5,-289.62 239.5,-283.62 243.5,-277.62 247.5,-283.62 243.5,-289.62"/>
<text text-anchor="middle" x="268.5" y="-299" font-family="Helvetica,sans-Serif" font-size="10.00"> &#45;buckets_</text>
</g>
<!-- Node6&#45;&gt;Node5 -->
<g id="edge5" class="edge">
<title>Node6&#45;&gt;Node5</title>
<path fill="none" stroke="orange" d="M236.93,-530.26C236.69,-500.98 236.78,-459.39 238.5,-423 238.95,-413.37 239.78,-402.86 240.64,-393.51"/>
<polygon fill="orange" stroke="orange" points="233.43,-530.49 237.03,-540.45 240.43,-530.42 233.43,-530.49"/>
<text text-anchor="middle" x="270.5" y="-431.5" font-family="Helvetica,sans-Serif" font-size="10.00"> &lt; sword_t &gt;</text>
</g>
<!-- Node7 -->
<g id="node7" class="node">
<title>Node7</title>
<g id="a_node7"><a xlink:title=" ">
<polygon fill="none" stroke="black" points="326.5,-331 326.5,-399 448.5,-399 448.5,-331 326.5,-331"/>
<text text-anchor="start" x="334.5" y="-387" font-family="Helvetica,sans-Serif" font-size="10.00">std::vector&lt; uxn::patl</text>
<text text-anchor="middle" x="387.5" y="-376" font-family="Helvetica,sans-Serif" font-size="10.00">::impl::hash_node &gt;</text>
<polyline fill="none" stroke="black" points="326.5,-369 448.5,-369"/>
<text text-anchor="middle" x="387.5" y="-357" font-family="Helvetica,sans-Serif" font-size="10.00"> </text>
<polyline fill="none" stroke="black" points="326.5,-350 448.5,-350"/>
<text text-anchor="middle" x="387.5" y="-338" font-family="Helvetica,sans-Serif" font-size="10.00"> </text>
</a>
</g>
</g>
<!-- Node6&#45;&gt;Node7 -->
<g id="edge9" class="edge">
<title>Node6&#45;&gt;Node7</title>
<path fill="none" stroke="orange" d="M254.47,-531.28C269.61,-500.6 293.67,-456.6 321.5,-423 328.36,-414.72 336.49,-406.65 344.66,-399.31"/>
<polygon fill="orange" stroke="orange" points="251.28,-529.83 250.06,-540.35 257.58,-532.89 251.28,-529.83"/>
<text text-anchor="start" x="321.5" y="-437" font-family="Helvetica,sans-Serif" font-size="10.00"> &lt; uxn::patl::impl::</text>
<text text-anchor="middle" x="367" y="-426" font-family="Helvetica,sans-Serif" font-size="10.00">hash_node &gt;</text>
</g>
<!-- Node7&#45;&gt;Node1 -->
<g id="edge7" class="edge">
<title>Node7&#45;&gt;Node1</title>
<path fill="none" stroke="#404040" d="M366.25,-330.95C357.1,-316.71 345.72,-299.01 333.61,-280.18"/>
<polygon fill="none" stroke="#404040" points="333.51,-280.02 326.9,-277.14 327.02,-269.93 333.63,-272.81 333.51,-280.02"/>
<text text-anchor="middle" x="370.5" y="-299" font-family="Helvetica,sans-Serif" font-size="10.00"> &#45;nodes_</text>
</g>
<!-- Node8 -->
<g id="node8" class="node">
<title>Node8</title>
<g id="a_node8"><a xlink:href="../../db/db2/classuxn_1_1patl_1_1impl_1_1hash__node.html" target="_top" xlink:title=" ">
<polygon fill="none" stroke="black" points="363,-463.5 363,-674.5 514,-674.5 514,-463.5 363,-463.5"/>
<text text-anchor="start" x="371" y="-662.5" font-family="Helvetica,sans-Serif" font-size="10.00">uxn::patl::impl::hash</text>
<text text-anchor="middle" x="438.5" y="-651.5" font-family="Helvetica,sans-Serif" font-size="10.00">_node&lt; Key, Value &gt;</text>
<polyline fill="none" stroke="black" points="363,-644.5 514,-644.5"/>
<text text-anchor="start" x="371" y="-632.5" font-family="Helvetica,sans-Serif" font-size="10.00">&#45; word_t hash_</text>
<text text-anchor="start" x="371" y="-621.5" font-family="Helvetica,sans-Serif" font-size="10.00">&#45; word_t next_</text>
<text text-anchor="start" x="371" y="-610.5" font-family="Helvetica,sans-Serif" font-size="10.00">&#45; value_type value_</text>
<polyline fill="none" stroke="black" points="363,-603.5 514,-603.5"/>
<text text-anchor="start" x="371" y="-591.5" font-family="Helvetica,sans-Serif" font-size="10.00">+ word_t get_hash() const</text>
<text text-anchor="start" x="371" y="-580.5" font-family="Helvetica,sans-Serif" font-size="10.00">+ word_t get_next() const</text>
<text text-anchor="start" x="371" y="-569.5" font-family="Helvetica,sans-Serif" font-size="10.00">+ const key_type &amp; get</text>
<text text-anchor="start" x="371" y="-558.5" font-family="Helvetica,sans-Serif" font-size="10.00">_key() const</text>
<text text-anchor="start" x="371" y="-547.5" font-family="Helvetica,sans-Serif" font-size="10.00">+ const value_type &amp;</text>
<text text-anchor="start" x="371" y="-536.5" font-family="Helvetica,sans-Serif" font-size="10.00"> get_value() const</text>
<text text-anchor="start" x="371" y="-525.5" font-family="Helvetica,sans-Serif" font-size="10.00">+ value_type &amp; get_value()</text>
<text text-anchor="start" x="371" y="-514.5" font-family="Helvetica,sans-Serif" font-size="10.00">+ void set_next(word</text>
<text text-anchor="start" x="371" y="-503.5" font-family="Helvetica,sans-Serif" font-size="10.00">_t next)</text>
<text text-anchor="start" x="371" y="-492.5" font-family="Helvetica,sans-Serif" font-size="10.00">+ void set_all(word_t</text>
<text text-anchor="start" x="371" y="-481.5" font-family="Helvetica,sans-Serif" font-size="10.00"> hash, word_t next,</text>
<text text-anchor="start" x="371" y="-470.5" font-family="Helvetica,sans-Serif" font-size="10.00"> const value_type &amp;value)</text>
</a>
</g>
</g>
<!-- Node8&#45;&gt;Node7 -->
<g id="edge8" class="edge">
<title>Node8&#45;&gt;Node7</title>
<path fill="none" stroke="#404040" d="M426.72,-463.31C423.98,-449.59 420.62,-435.85 416.5,-423 415.15,-418.79 413.51,-414.51 411.72,-410.28"/>
<polygon fill="none" stroke="#404040" points="411.68,-410.2 405.54,-406.42 406.67,-399.3 412.81,-403.08 411.68,-410.2"/>
<text text-anchor="middle" x="451.5" y="-431.5" font-family="Helvetica,sans-Serif" font-size="10.00"> +elements</text>
</g>
</g>
</svg>
        <g id="navigator" transform="translate(0 0)" fill="#404254">
                <rect fill="#f2f5e9" fill-opacity="0.5" stroke="#606060" stroke-width=".5" x="0" y="0" width="60" height="60"/>
                <use id="zoomplus" xlink:href="#zoomPlus" x="17" y="9" onmousedown="handleZoom(evt,'in')"/>
                <use id="zoomminus" xlink:href="#zoomMin" x="42" y="9" onmousedown="handleZoom(evt,'out')"/>
                <use id="reset" xlink:href="#resetDef" x="30" y="36" onmousedown="handleReset()"/>
                <g id="arrowUp" xlink:href="#dirArrow" transform="translate(30 24)" onmousedown="handlePan(0,-1)">
                  <use xlink:href="#rim" fill="#404040">
                        <set attributeName="fill" to="#808080" begin="arrowUp.mouseover" end="arrowUp.mouseout"/>
                  </use>
                  <path fill="none" stroke="white" stroke-width="1.5" d="M0,-3.0v7 M-2.5,-0.5L0,-3.0L2.5,-0.5"/>
                </g>
                <g id="arrowRight" xlink:href="#dirArrow" transform="rotate(90) translate(36 -43)" onmousedown="handlePan(1,0)">
                  <use xlink:href="#rim" fill="#404040">
                        <set attributeName="fill" to="#808080" begin="arrowRight.mouseover" end="arrowRight.mouseout"/>
                  </use>
                  <path fill="none" stroke="white" stroke-width="1.5" d="M0,-3.0v7 M-2.5,-0.5L0,-3.0L2.5,-0.5"/>
                </g>
                <g id="arrowDown" xlink:href="#dirArrow" transform="rotate(180) translate(-30 -48)" onmousedown="handlePan(0,1)">
                  <use xlink:href="#rim" fill="#404040">
                        <set attributeName="fill" to="#808080" begin="arrowDown.mouseover" end="arrowDown.mouseout"/>
                  </use>
                  <path fill="none" stroke="white" stroke-width="1.5" d="M0,-3.0v7 M-2.5,-0.5L0,-3.0L2.5,-0.5"/>
                </g>
                <g id="arrowLeft" xlink:href="#dirArrow" transform="rotate(270) translate(-36 17)" onmousedown="handlePan(-1,0)">
                  <use xlink:href="#rim" fill="#404040">
                        <set attributeName="fill" to="#808080" begin="arrowLeft.mouseover" end="arrowLeft.mouseout"/>
                  </use>
                  <path fill="none" stroke="white" stroke-width="1.5" d="M0,-3.0v7 M-2.5,-0.5L0,-3.0L2.5,-0.5"/>
                </g>
        </g>
        <svg viewBox="0 0 15 15" width="100%" height="30px" preserveAspectRatio="xMaxYMin meet">
         <g id="arrow_out" transform="scale(0.3 0.3)">
          <a xlink:href="classuxn_1_1patl_1_1unordered__map__coll__graph_org.svg" target="_base">
           <rect id="button" ry="5" rx="5" y="6" x="6" height="38" width="38"
                fill="#f2f5e9" fill-opacity="0.5" stroke="#606060" stroke-width="1.0"/>
           <path id="arrow"
             d="M 11.500037,31.436501 C 11.940474,20.09759 22.043105,11.32322 32.158766,21.979434 L 37.068811,17.246167 C 37.068811,17.246167 37.088388,32 37.088388,32 L 22.160133,31.978069 C 22.160133,31.978069 26.997745,27.140456 26.997745,27.140456 C 18.528582,18.264221 13.291696,25.230495 11.500037,31.436501 z"
             style="fill:#404040;"/>
          </a>
         </g>
        </svg>
</svg>
