<?xml version="1.0" encoding="UTF-8" standalone="no"?>
<!DOCTYPE svg PUBLIC "-//W3C//DTD SVG 1.1//EN"
 "http://www.w3.org/Graphics/SVG/1.1/DTD/svg11.dtd">
<!-- Generated by graphviz version 5.0.1 (20220820.1526)
 -->
<!-- Title: uxn/patl/patcont.cpp Pages: 1 -->
<svg width="1146pt" height="431pt"
 viewBox="0.00 0.00 1146.00 431.00" xmlns="http://www.w3.org/2000/svg" xmlns:xlink="http://www.w3.org/1999/xlink">
<g id="graph0" class="graph" transform="scale(1 1) rotate(0) translate(4 427)">
<title>uxn/patl/patcont.cpp</title>
<!-- Node1 -->
<g id="node1" class="node">
<title>Node1</title>
<g id="a_node1"><a xlink:title=" ">
<polygon fill="#bfbfbf" stroke="black" points="381,-403.5 381,-422.5 497,-422.5 497,-403.5 381,-403.5"/>
<text text-anchor="middle" x="439" y="-410.5" font-family="Helvetica,sans-Serif" font-size="10.00">uxn/patl/patcont.cpp</text>
</a>
</g>
</g>
<!-- Node2 -->
<g id="node2" class="node">
<title>Node2</title>
<g id="a_node2"><a xlink:title=" ">
<polygon fill="none" stroke="#bfbfbf" points="0,-168.5 0,-187.5 44,-187.5 44,-168.5 0,-168.5"/>
<text text-anchor="middle" x="22" y="-175.5" font-family="Helvetica,sans-Serif" font-size="10.00">string</text>
</a>
</g>
</g>
<!-- Node1&#45;&gt;Node2 -->
<g id="edge1" class="edge">
<title>Node1&#45;&gt;Node2</title>
<path fill="none" stroke="midnightblue" d="M380.88,-406.6C337.64,-400.93 278.06,-389.53 230,-367 149.74,-329.38 135.7,-306.66 73,-244 58,-229.01 43.31,-209.65 33.58,-195.97"/>
<polygon fill="midnightblue" stroke="midnightblue" points="36.28,-193.73 27.69,-187.53 30.54,-197.73 36.28,-193.73"/>
</g>
<!-- Node3 -->
<g id="node3" class="node">
<title>Node3</title>
<g id="a_node3"><a xlink:title=" ">
<polygon fill="none" stroke="#bfbfbf" points="438,-342 438,-361 498,-361 498,-342 438,-342"/>
<text text-anchor="middle" x="468" y="-349" font-family="Helvetica,sans-Serif" font-size="10.00">iostream</text>
</a>
</g>
</g>
<!-- Node1&#45;&gt;Node3 -->
<g id="edge2" class="edge">
<title>Node1&#45;&gt;Node3</title>
<path fill="none" stroke="midnightblue" d="M443.15,-403.48C447.38,-394.82 454.04,-381.15 459.4,-370.15"/>
<polygon fill="midnightblue" stroke="midnightblue" points="462.62,-371.53 463.85,-361.01 456.33,-368.46 462.62,-371.53"/>
</g>
<!-- Node4 -->
<g id="node4" class="node">
<title>Node4</title>
<g id="a_node4"><a xlink:title=" ">
<polygon fill="none" stroke="#bfbfbf" points="516.5,-342 516.5,-361 571.5,-361 571.5,-342 516.5,-342"/>
<text text-anchor="middle" x="544" y="-349" font-family="Helvetica,sans-Serif" font-size="10.00">fstream</text>
</a>
</g>
</g>
<!-- Node1&#45;&gt;Node4 -->
<g id="edge3" class="edge">
<title>Node1&#45;&gt;Node4</title>
<path fill="none" stroke="midnightblue" d="M454.04,-403.48C471.28,-393.71 499.74,-377.58 520.03,-366.08"/>
<polygon fill="midnightblue" stroke="midnightblue" points="522.01,-368.98 528.98,-361.01 518.56,-362.89 522.01,-368.98"/>
</g>
<!-- Node5 -->
<g id="node5" class="node">
<title>Node5</title>
<g id="a_node5"><a xlink:href="../../d9/df3/perf__timer_8hpp.html" target="_top" xlink:title=" ">
<polygon fill="none" stroke="black" points="589.5,-336.5 589.5,-366.5 694.5,-366.5 694.5,-336.5 589.5,-336.5"/>
<text text-anchor="start" x="597.5" y="-354.5" font-family="Helvetica,sans-Serif" font-size="10.00">uxn/patl/aux_/perf</text>
<text text-anchor="middle" x="642" y="-343.5" font-family="Helvetica,sans-Serif" font-size="10.00">_timer.hpp</text>
</a>
</g>
</g>
<!-- Node1&#45;&gt;Node5 -->
<g id="edge4" class="edge">
<title>Node1&#45;&gt;Node5</title>
<path fill="none" stroke="midnightblue" d="M468.08,-403.48C498.28,-394.63 546.3,-380.55 584.25,-369.43"/>
<polygon fill="midnightblue" stroke="midnightblue" points="585.55,-372.69 594.16,-366.52 583.58,-365.98 585.55,-372.69"/>
</g>
<!-- Node7 -->
<g id="node7" class="node">
<title>Node7</title>
<g id="a_node7"><a xlink:title=" ">
<polygon fill="none" stroke="#bfbfbf" points="713,-342 713,-361 745,-361 745,-342 713,-342"/>
<text text-anchor="middle" x="729" y="-349" font-family="Helvetica,sans-Serif" font-size="10.00">set</text>
</a>
</g>
</g>
<!-- Node1&#45;&gt;Node7 -->
<g id="edge6" class="edge">
<title>Node1&#45;&gt;Node7</title>
<path fill="none" stroke="midnightblue" d="M497.11,-408.12C551.84,-403.08 635.43,-391.79 704,-367 705.04,-366.62 706.08,-366.21 707.12,-365.76"/>
<polygon fill="midnightblue" stroke="midnightblue" points="708.9,-368.78 716.2,-361.1 705.7,-362.55 708.9,-368.78"/>
</g>
<!-- Node8 -->
<g id="node8" class="node">
<title>Node8</title>
<g id="a_node8"><a xlink:href="../../df/dc9/trie__map_8hpp.html" target="_top" xlink:title=" ">
<polygon fill="none" stroke="black" points="154,-280.5 154,-299.5 278,-299.5 278,-280.5 154,-280.5"/>
<text text-anchor="middle" x="216" y="-287.5" font-family="Helvetica,sans-Serif" font-size="10.00">uxn/patl/trie_map.hpp</text>
</a>
</g>
</g>
<!-- Node1&#45;&gt;Node8 -->
<g id="edge7" class="edge">
<title>Node1&#45;&gt;Node8</title>
<path fill="none" stroke="midnightblue" d="M380.83,-409.14C342.84,-404.65 293.99,-393.63 259,-367 239.82,-352.4 227.88,-326.62 221.58,-309.18"/>
<polygon fill="midnightblue" stroke="midnightblue" points="224.86,-307.95 218.38,-299.57 218.22,-310.16 224.86,-307.95"/>
</g>
<!-- Node32 -->
<g id="node32" class="node">
<title>Node32</title>
<g id="a_node32"><a xlink:href="../../d2/d92/partial_8hpp.html" target="_top" xlink:title=" ">
<polygon fill="none" stroke="black" points="459,-280.5 459,-299.5 571,-299.5 571,-280.5 459,-280.5"/>
<text text-anchor="middle" x="515" y="-287.5" font-family="Helvetica,sans-Serif" font-size="10.00">uxn/patl/partial.hpp</text>
</a>
</g>
</g>
<!-- Node1&#45;&gt;Node32 -->
<g id="edge41" class="edge">
<title>Node1&#45;&gt;Node32</title>
<path fill="none" stroke="midnightblue" d="M434.52,-403.29C427.51,-388.36 416.04,-357.4 429,-336 438.41,-320.46 455.15,-310.02 471.38,-303.15"/>
<polygon fill="midnightblue" stroke="midnightblue" points="472.75,-306.37 480.82,-299.51 470.23,-299.85 472.75,-306.37"/>
</g>
<!-- Node34 -->
<g id="node34" class="node">
<title>Node34</title>
<g id="a_node34"><a xlink:href="../../db/d8f/priority_8hpp.html" target="_top" xlink:title=" ">
<polygon fill="none" stroke="black" points="268,-342 268,-361 382,-361 382,-342 268,-342"/>
<text text-anchor="middle" x="325" y="-349" font-family="Helvetica,sans-Serif" font-size="10.00">uxn/patl/priority.hpp</text>
</a>
</g>
</g>
<!-- Node1&#45;&gt;Node34 -->
<g id="edge46" class="edge">
<title>Node1&#45;&gt;Node34</title>
<path fill="none" stroke="midnightblue" d="M422.67,-403.48C403.79,-393.62 372.49,-377.29 350.42,-365.77"/>
<polygon fill="midnightblue" stroke="midnightblue" points="351.79,-362.53 341.3,-361.01 348.55,-368.74 351.79,-362.53"/>
</g>
<!-- Node6 -->
<g id="node6" class="node">
<title>Node6</title>
<g id="a_node6"><a xlink:title=" ">
<polygon fill="none" stroke="#bfbfbf" points="611,-280.5 611,-299.5 673,-299.5 673,-280.5 611,-280.5"/>
<text text-anchor="middle" x="642" y="-287.5" font-family="Helvetica,sans-Serif" font-size="10.00">cinttypes</text>
</a>
</g>
</g>
<!-- Node5&#45;&gt;Node6 -->
<g id="edge5" class="edge">
<title>Node5&#45;&gt;Node6</title>
<path fill="none" stroke="midnightblue" d="M642,-336.4C642,-328.47 642,-318.46 642,-309.86"/>
<polygon fill="midnightblue" stroke="midnightblue" points="645.5,-309.66 642,-299.66 638.5,-309.66 645.5,-309.66"/>
</g>
<!-- Node9 -->
<g id="node9" class="node">
<title>Node9</title>
<g id="a_node9"><a xlink:href="../../d9/d25/trie__generic_8hpp.html" target="_top" xlink:title=" ">
<polygon fill="none" stroke="black" points="295,-224.5 295,-243.5 415,-243.5 415,-224.5 295,-224.5"/>
<text text-anchor="middle" x="355" y="-231.5" font-family="Helvetica,sans-Serif" font-size="10.00">impl/trie_generic.hpp</text>
</a>
</g>
</g>
<!-- Node8&#45;&gt;Node9 -->
<g id="edge8" class="edge">
<title>Node8&#45;&gt;Node9</title>
<path fill="none" stroke="midnightblue" d="M238.02,-280.44C261.1,-271.48 297.56,-257.31 323.64,-247.18"/>
<polygon fill="midnightblue" stroke="midnightblue" points="325.02,-250.4 333.08,-243.52 322.49,-243.88 325.02,-250.4"/>
</g>
<!-- Node30 -->
<g id="node30" class="node">
<title>Node30</title>
<g id="a_node30"><a xlink:href="../../d1/dff/bit__comp_8hpp.html" target="_top" xlink:title=" ">
<polygon fill="none" stroke="black" points="82.5,-224.5 82.5,-243.5 165.5,-243.5 165.5,-224.5 82.5,-224.5"/>
<text text-anchor="middle" x="124" y="-231.5" font-family="Helvetica,sans-Serif" font-size="10.00">bit_comp.hpp</text>
</a>
</g>
</g>
<!-- Node8&#45;&gt;Node30 -->
<g id="edge37" class="edge">
<title>Node8&#45;&gt;Node30</title>
<path fill="none" stroke="midnightblue" d="M201.22,-280.32C186.73,-271.82 164.43,-258.73 147.51,-248.8"/>
<polygon fill="midnightblue" stroke="midnightblue" points="149.14,-245.7 138.74,-243.65 145.6,-251.74 149.14,-245.7"/>
</g>
<!-- Node10 -->
<g id="node10" class="node">
<title>Node10</title>
<g id="a_node10"><a xlink:title=" ">
<polygon fill="none" stroke="#bfbfbf" points="501,-112.5 501,-131.5 565,-131.5 565,-112.5 501,-112.5"/>
<text text-anchor="middle" x="533" y="-119.5" font-family="Helvetica,sans-Serif" font-size="10.00">algorithm</text>
</a>
</g>
</g>
<!-- Node9&#45;&gt;Node10 -->
<g id="edge9" class="edge">
<title>Node9&#45;&gt;Node10</title>
<path fill="none" stroke="midnightblue" d="M415.22,-228.02C469.03,-222.16 542.07,-210.29 560,-188 571.54,-173.65 560.14,-153.67 548.8,-139.66"/>
<polygon fill="midnightblue" stroke="midnightblue" points="551.17,-137.05 541.96,-131.81 545.89,-141.65 551.17,-137.05"/>
</g>
<!-- Node11 -->
<g id="node11" class="node">
<title>Node11</title>
<g id="a_node11"><a xlink:title=" ">
<polygon fill="none" stroke="#bfbfbf" points="165.5,-168.5 165.5,-187.5 230.5,-187.5 230.5,-168.5 165.5,-168.5"/>
<text text-anchor="middle" x="198" y="-175.5" font-family="Helvetica,sans-Serif" font-size="10.00">functional</text>
</a>
</g>
</g>
<!-- Node9&#45;&gt;Node11 -->
<g id="edge10" class="edge">
<title>Node9&#45;&gt;Node11</title>
<path fill="none" stroke="midnightblue" d="M330.12,-224.44C303.71,-215.36 261.78,-200.94 232.26,-190.78"/>
<polygon fill="midnightblue" stroke="midnightblue" points="233.36,-187.46 222.76,-187.52 231.08,-194.08 233.36,-187.46"/>
</g>
<!-- Node12 -->
<g id="node12" class="node">
<title>Node12</title>
<g id="a_node12"><a xlink:href="../../d3/d09/node_8hpp.html" target="_top" xlink:title=" ">
<polygon fill="none" stroke="black" points="489,-168.5 489,-187.5 551,-187.5 551,-168.5 489,-168.5"/>
<text text-anchor="middle" x="520" y="-175.5" font-family="Helvetica,sans-Serif" font-size="10.00">node.hpp</text>
</a>
</g>
</g>
<!-- Node9&#45;&gt;Node12 -->
<g id="edge11" class="edge">
<title>Node9&#45;&gt;Node12</title>
<path fill="none" stroke="midnightblue" d="M381.14,-224.44C409.02,-215.32 453.35,-200.81 484.4,-190.65"/>
<polygon fill="midnightblue" stroke="midnightblue" points="485.56,-193.95 493.98,-187.52 483.38,-187.3 485.56,-193.95"/>
</g>
<!-- Node14 -->
<g id="node14" class="node">
<title>Node14</title>
<g id="a_node14"><a xlink:href="../../d0/dd1/core__algorithm_8hpp.html" target="_top" xlink:title=" ">
<polygon fill="none" stroke="black" points="359.5,-168.5 359.5,-187.5 470.5,-187.5 470.5,-168.5 359.5,-168.5"/>
<text text-anchor="middle" x="415" y="-175.5" font-family="Helvetica,sans-Serif" font-size="10.00">core_algorithm.hpp</text>
</a>
</g>
</g>
<!-- Node9&#45;&gt;Node14 -->
<g id="edge14" class="edge">
<title>Node9&#45;&gt;Node14</title>
<path fill="none" stroke="midnightblue" d="M364.64,-224.32C373.51,-216.34 386.87,-204.31 397.61,-194.65"/>
<polygon fill="midnightblue" stroke="midnightblue" points="400.09,-197.13 405.18,-187.83 395.41,-191.92 400.09,-197.13"/>
</g>
<!-- Node20 -->
<g id="node20" class="node">
<title>Node20</title>
<g id="a_node20"><a xlink:href="../../de/d50/assoc__generic_8hpp.html" target="_top" xlink:title=" ">
<polygon fill="none" stroke="black" points="770.5,-168.5 770.5,-187.5 877.5,-187.5 877.5,-168.5 770.5,-168.5"/>
<text text-anchor="middle" x="824" y="-175.5" font-family="Helvetica,sans-Serif" font-size="10.00">assoc_generic.hpp</text>
</a>
</g>
</g>
<!-- Node9&#45;&gt;Node20 -->
<g id="edge22" class="edge">
<title>Node9&#45;&gt;Node20</title>
<path fill="none" stroke="midnightblue" d="M415.35,-226.05C504.21,-215.82 669.49,-196.79 760.25,-186.34"/>
<polygon fill="midnightblue" stroke="midnightblue" points="760.87,-189.79 770.4,-185.17 760.07,-182.84 760.87,-189.79"/>
</g>
<!-- Node28 -->
<g id="node28" class="node">
<title>Node28</title>
<g id="a_node28"><a xlink:href="../../d7/dd8/core__prefix_8hpp.html" target="_top" xlink:title=" ">
<polygon fill="none" stroke="black" points="249,-168.5 249,-187.5 341,-187.5 341,-168.5 249,-168.5"/>
<text text-anchor="middle" x="295" y="-175.5" font-family="Helvetica,sans-Serif" font-size="10.00">core_prefix.hpp</text>
</a>
</g>
</g>
<!-- Node9&#45;&gt;Node28 -->
<g id="edge35" class="edge">
<title>Node9&#45;&gt;Node28</title>
<path fill="none" stroke="midnightblue" d="M345.36,-224.32C336.49,-216.34 323.13,-204.31 312.39,-194.65"/>
<polygon fill="midnightblue" stroke="midnightblue" points="314.59,-191.92 304.82,-187.83 309.91,-197.13 314.59,-191.92"/>
</g>
<!-- Node12&#45;&gt;Node10 -->
<g id="edge12" class="edge">
<title>Node12&#45;&gt;Node10</title>
<path fill="none" stroke="midnightblue" d="M522.15,-168.08C523.87,-160.93 526.35,-150.64 528.5,-141.69"/>
<polygon fill="midnightblue" stroke="midnightblue" points="531.96,-142.29 530.89,-131.75 525.15,-140.65 531.96,-142.29"/>
</g>
<!-- Node13 -->
<g id="node13" class="node">
<title>Node13</title>
<g id="a_node13"><a xlink:href="../../d8/dfd/config_8hpp.html" target="_top" xlink:title=" ">
<polygon fill="none" stroke="black" points="400,-0.5 400,-19.5 476,-19.5 476,-0.5 400,-0.5"/>
<text text-anchor="middle" x="438" y="-7.5" font-family="Helvetica,sans-Serif" font-size="10.00">../config.hpp</text>
</a>
</g>
</g>
<!-- Node12&#45;&gt;Node13 -->
<g id="edge13" class="edge">
<title>Node12&#45;&gt;Node13</title>
<path fill="none" stroke="midnightblue" d="M514.05,-168.25C508.12,-159.33 498.9,-145 492,-132 473.19,-96.59 454.96,-53.3 445.24,-29.28"/>
<polygon fill="midnightblue" stroke="midnightblue" points="448.37,-27.68 441.4,-19.7 441.87,-30.29 448.37,-27.68"/>
</g>
<!-- Node15 -->
<g id="node15" class="node">
<title>Node15</title>
<g id="a_node15"><a xlink:href="../../de/d55/algorithm_8hpp.html" target="_top" xlink:title=" ">
<polygon fill="none" stroke="black" points="359.5,-112.5 359.5,-131.5 444.5,-131.5 444.5,-112.5 359.5,-112.5"/>
<text text-anchor="middle" x="402" y="-119.5" font-family="Helvetica,sans-Serif" font-size="10.00">algorithm.hpp</text>
</a>
</g>
</g>
<!-- Node14&#45;&gt;Node15 -->
<g id="edge15" class="edge">
<title>Node14&#45;&gt;Node15</title>
<path fill="none" stroke="midnightblue" d="M412.85,-168.08C411.13,-160.93 408.65,-150.64 406.5,-141.69"/>
<polygon fill="midnightblue" stroke="midnightblue" points="409.85,-140.65 404.11,-131.75 403.04,-142.29 409.85,-140.65"/>
</g>
<!-- Node15&#45;&gt;Node13 -->
<g id="edge16" class="edge">
<title>Node15&#45;&gt;Node13</title>
<path fill="none" stroke="midnightblue" d="M404.82,-112.37C410.66,-94.54 424.16,-53.3 432.02,-29.27"/>
<polygon fill="midnightblue" stroke="midnightblue" points="435.4,-30.18 435.19,-19.59 428.75,-28.01 435.4,-30.18"/>
</g>
<!-- Node16 -->
<g id="node16" class="node">
<title>Node16</title>
<g id="a_node16"><a xlink:href="../../d9/d3a/trivial_8hpp.html" target="_top" xlink:title=" ">
<polygon fill="none" stroke="black" points="258,-56.5 258,-75.5 324,-75.5 324,-56.5 258,-56.5"/>
<text text-anchor="middle" x="291" y="-63.5" font-family="Helvetica,sans-Serif" font-size="10.00">trivial.hpp</text>
</a>
</g>
</g>
<!-- Node15&#45;&gt;Node16 -->
<g id="edge17" class="edge">
<title>Node15&#45;&gt;Node16</title>
<path fill="none" stroke="midnightblue" d="M384.17,-112.32C366.28,-103.62 338.52,-90.12 317.95,-80.11"/>
<polygon fill="midnightblue" stroke="midnightblue" points="319.31,-76.88 308.79,-75.65 316.25,-83.18 319.31,-76.88"/>
</g>
<!-- Node16&#45;&gt;Node13 -->
<g id="edge18" class="edge">
<title>Node16&#45;&gt;Node13</title>
<path fill="none" stroke="midnightblue" d="M314.29,-56.44C338.81,-47.44 377.6,-33.19 405.2,-23.05"/>
<polygon fill="midnightblue" stroke="midnightblue" points="406.64,-26.25 414.82,-19.52 404.22,-19.68 406.64,-26.25"/>
</g>
<!-- Node17 -->
<g id="node17" class="node">
<title>Node17</title>
<g id="a_node17"><a xlink:title=" ">
<polygon fill="none" stroke="#bfbfbf" points="242.5,-0.5 242.5,-19.5 311.5,-19.5 311.5,-0.5 242.5,-0.5"/>
<text text-anchor="middle" x="277" y="-7.5" font-family="Helvetica,sans-Serif" font-size="10.00">type_traits</text>
</a>
</g>
</g>
<!-- Node16&#45;&gt;Node17 -->
<g id="edge19" class="edge">
<title>Node16&#45;&gt;Node17</title>
<path fill="none" stroke="midnightblue" d="M288.69,-56.08C286.83,-48.93 284.16,-38.64 281.85,-29.69"/>
<polygon fill="midnightblue" stroke="midnightblue" points="285.17,-28.55 279.27,-19.75 278.39,-30.31 285.17,-28.55"/>
</g>
<!-- Node18 -->
<g id="node18" class="node">
<title>Node18</title>
<g id="a_node18"><a xlink:title=" ">
<polygon fill="none" stroke="#bfbfbf" points="330,-0.5 330,-19.5 382,-19.5 382,-0.5 330,-0.5"/>
<text text-anchor="middle" x="356" y="-7.5" font-family="Helvetica,sans-Serif" font-size="10.00">cassert</text>
</a>
</g>
</g>
<!-- Node16&#45;&gt;Node18 -->
<g id="edge20" class="edge">
<title>Node16&#45;&gt;Node18</title>
<path fill="none" stroke="midnightblue" d="M301.44,-56.32C311.15,-48.26 325.82,-36.08 337.5,-26.37"/>
<polygon fill="midnightblue" stroke="midnightblue" points="339.91,-28.92 345.37,-19.83 335.44,-23.53 339.91,-28.92"/>
</g>
<!-- Node19 -->
<g id="node19" class="node">
<title>Node19</title>
<g id="a_node19"><a xlink:title=" ">
<polygon fill="none" stroke="#bfbfbf" points="173.5,-0.5 173.5,-19.5 224.5,-19.5 224.5,-0.5 173.5,-0.5"/>
<text text-anchor="middle" x="199" y="-7.5" font-family="Helvetica,sans-Serif" font-size="10.00">intrin.h</text>
</a>
</g>
</g>
<!-- Node16&#45;&gt;Node19 -->
<g id="edge21" class="edge">
<title>Node16&#45;&gt;Node19</title>
<path fill="none" stroke="midnightblue" d="M276.22,-56.32C261.73,-47.82 239.43,-34.73 222.51,-24.8"/>
<polygon fill="midnightblue" stroke="midnightblue" points="224.14,-21.7 213.74,-19.65 220.6,-27.74 224.14,-21.7"/>
</g>
<!-- Node21 -->
<g id="node21" class="node">
<title>Node21</title>
<g id="a_node21"><a xlink:href="../../d5/db7/preorder__iterator_8hpp.html" target="_top" xlink:title=" ">
<polygon fill="none" stroke="black" points="764.5,-112.5 764.5,-131.5 883.5,-131.5 883.5,-112.5 764.5,-112.5"/>
<text text-anchor="middle" x="824" y="-119.5" font-family="Helvetica,sans-Serif" font-size="10.00">preorder_iterator.hpp</text>
</a>
</g>
</g>
<!-- Node20&#45;&gt;Node21 -->
<g id="edge23" class="edge">
<title>Node20&#45;&gt;Node21</title>
<path fill="none" stroke="midnightblue" d="M824,-168.08C824,-161.01 824,-150.86 824,-141.99"/>
<polygon fill="midnightblue" stroke="midnightblue" points="827.5,-141.75 824,-131.75 820.5,-141.75 827.5,-141.75"/>
</g>
<!-- Node22 -->
<g id="node22" class="node">
<title>Node22</title>
<g id="a_node22"><a xlink:href="../../d1/d2d/vertex_8hpp.html" target="_top" xlink:title=" ">
<polygon fill="none" stroke="black" points="649.5,-56.5 649.5,-75.5 718.5,-75.5 718.5,-56.5 649.5,-56.5"/>
<text text-anchor="middle" x="684" y="-63.5" font-family="Helvetica,sans-Serif" font-size="10.00">vertex.hpp</text>
</a>
</g>
</g>
<!-- Node20&#45;&gt;Node22 -->
<g id="edge33" class="edge">
<title>Node20&#45;&gt;Node22</title>
<path fill="none" stroke="midnightblue" d="M770.34,-173.09C714.47,-167.77 632.44,-156.02 613,-132 596.62,-111.75 626.5,-92.07 652.39,-79.76"/>
<polygon fill="midnightblue" stroke="midnightblue" points="653.98,-82.88 661.65,-75.58 651.09,-76.5 653.98,-82.88"/>
</g>
<!-- Node24 -->
<g id="node24" class="node">
<title>Node24</title>
<g id="a_node24"><a xlink:href="../../df/d24/postorder__iterator_8hpp.html" target="_top" xlink:title=" ">
<polygon fill="none" stroke="black" points="621.5,-112.5 621.5,-131.5 746.5,-131.5 746.5,-112.5 621.5,-112.5"/>
<text text-anchor="middle" x="684" y="-119.5" font-family="Helvetica,sans-Serif" font-size="10.00">postorder_iterator.hpp</text>
</a>
</g>
</g>
<!-- Node20&#45;&gt;Node24 -->
<g id="edge26" class="edge">
<title>Node20&#45;&gt;Node24</title>
<path fill="none" stroke="midnightblue" d="M801.82,-168.44C778.57,-159.48 741.85,-145.31 715.58,-135.18"/>
<polygon fill="midnightblue" stroke="midnightblue" points="716.67,-131.85 706.08,-131.52 714.15,-138.38 716.67,-131.85"/>
</g>
<!-- Node25 -->
<g id="node25" class="node">
<title>Node25</title>
<g id="a_node25"><a xlink:href="../../d9/dde/iterator_8hpp.html" target="_top" xlink:title=" ">
<polygon fill="none" stroke="black" points="1008.5,-112.5 1008.5,-131.5 1081.5,-131.5 1081.5,-112.5 1008.5,-112.5"/>
<text text-anchor="middle" x="1045" y="-119.5" font-family="Helvetica,sans-Serif" font-size="10.00">iterator.hpp</text>
</a>
</g>
</g>
<!-- Node20&#45;&gt;Node25 -->
<g id="edge29" class="edge">
<title>Node20&#45;&gt;Node25</title>
<path fill="none" stroke="midnightblue" d="M859.02,-168.44C897.25,-159.1 958.57,-144.12 1000.26,-133.93"/>
<polygon fill="midnightblue" stroke="midnightblue" points="1001.26,-137.29 1010.15,-131.52 999.6,-130.49 1001.26,-137.29"/>
</g>
<!-- Node26 -->
<g id="node26" class="node">
<title>Node26</title>
<g id="a_node26"><a xlink:href="../../d7/d8f/partimator_8hpp.html" target="_top" xlink:title=" ">
<polygon fill="none" stroke="black" points="901.5,-112.5 901.5,-131.5 990.5,-131.5 990.5,-112.5 901.5,-112.5"/>
<text text-anchor="middle" x="946" y="-119.5" font-family="Helvetica,sans-Serif" font-size="10.00">partimator.hpp</text>
</a>
</g>
</g>
<!-- Node20&#45;&gt;Node26 -->
<g id="edge31" class="edge">
<title>Node20&#45;&gt;Node26</title>
<path fill="none" stroke="midnightblue" d="M843.33,-168.44C863.32,-159.6 894.74,-145.69 917.56,-135.59"/>
<polygon fill="midnightblue" stroke="midnightblue" points="919.03,-138.76 926.76,-131.52 916.2,-132.36 919.03,-138.76"/>
</g>
<!-- Node27 -->
<g id="node27" class="node">
<title>Node27</title>
<g id="a_node27"><a xlink:title=" ">
<polygon fill="none" stroke="#bfbfbf" points="1100,-112.5 1100,-131.5 1138,-131.5 1138,-112.5 1100,-112.5"/>
<text text-anchor="middle" x="1119" y="-119.5" font-family="Helvetica,sans-Serif" font-size="10.00">map</text>
</a>
</g>
</g>
<!-- Node20&#45;&gt;Node27 -->
<g id="edge34" class="edge">
<title>Node20&#45;&gt;Node27</title>
<path fill="none" stroke="midnightblue" d="M877.65,-170.27C929.67,-163.23 1010.92,-150.87 1089.73,-132.02"/>
<polygon fill="midnightblue" stroke="midnightblue" points="1090.93,-135.33 1099.82,-129.57 1089.28,-128.53 1090.93,-135.33"/>
</g>
<!-- Node21&#45;&gt;Node22 -->
<g id="edge24" class="edge">
<title>Node21&#45;&gt;Node22</title>
<path fill="none" stroke="midnightblue" d="M801.82,-112.44C778.57,-103.48 741.85,-89.31 715.58,-79.18"/>
<polygon fill="midnightblue" stroke="midnightblue" points="716.67,-75.85 706.08,-75.52 714.15,-82.38 716.67,-75.85"/>
</g>
<!-- Node23 -->
<g id="node23" class="node">
<title>Node23</title>
<g id="a_node23"><a xlink:title=" ">
<polygon fill="none" stroke="#bfbfbf" points="858.5,-56.5 858.5,-75.5 911.5,-75.5 911.5,-56.5 858.5,-56.5"/>
<text text-anchor="middle" x="885" y="-63.5" font-family="Helvetica,sans-Serif" font-size="10.00">iterator</text>
</a>
</g>
</g>
<!-- Node21&#45;&gt;Node23 -->
<g id="edge25" class="edge">
<title>Node21&#45;&gt;Node23</title>
<path fill="none" stroke="midnightblue" d="M833.8,-112.32C842.82,-104.34 856.41,-92.31 867.32,-82.65"/>
<polygon fill="midnightblue" stroke="midnightblue" points="869.85,-85.08 875.02,-75.83 865.21,-79.84 869.85,-85.08"/>
</g>
<!-- Node24&#45;&gt;Node22 -->
<g id="edge27" class="edge">
<title>Node24&#45;&gt;Node22</title>
<path fill="none" stroke="midnightblue" d="M684,-112.08C684,-105.01 684,-94.86 684,-85.99"/>
<polygon fill="midnightblue" stroke="midnightblue" points="687.5,-85.75 684,-75.75 680.5,-85.75 687.5,-85.75"/>
</g>
<!-- Node24&#45;&gt;Node23 -->
<g id="edge28" class="edge">
<title>Node24&#45;&gt;Node23</title>
<path fill="none" stroke="midnightblue" d="M715.85,-112.44C751.87,-102.77 810.43,-87.03 848.33,-76.85"/>
<polygon fill="midnightblue" stroke="midnightblue" points="849.69,-80.11 858.44,-74.14 847.87,-73.35 849.69,-80.11"/>
</g>
<!-- Node25&#45;&gt;Node23 -->
<g id="edge30" class="edge">
<title>Node25&#45;&gt;Node23</title>
<path fill="none" stroke="midnightblue" d="M1019.65,-112.44C992.73,-103.36 950,-88.94 919.91,-78.78"/>
<polygon fill="midnightblue" stroke="midnightblue" points="920.83,-75.4 910.23,-75.52 918.59,-82.03 920.83,-75.4"/>
</g>
<!-- Node26&#45;&gt;Node23 -->
<g id="edge32" class="edge">
<title>Node26&#45;&gt;Node23</title>
<path fill="none" stroke="midnightblue" d="M936.2,-112.32C927.18,-104.34 913.59,-92.31 902.68,-82.65"/>
<polygon fill="midnightblue" stroke="midnightblue" points="904.79,-79.84 894.98,-75.83 900.15,-85.08 904.79,-79.84"/>
</g>
<!-- Node29 -->
<g id="node29" class="node">
<title>Node29</title>
<g id="a_node29"><a xlink:href="../../d0/d34/prefix_8hpp.html" target="_top" xlink:title=" ">
<polygon fill="none" stroke="black" points="262.5,-112.5 262.5,-131.5 327.5,-131.5 327.5,-112.5 262.5,-112.5"/>
<text text-anchor="middle" x="295" y="-119.5" font-family="Helvetica,sans-Serif" font-size="10.00">prefix.hpp</text>
</a>
</g>
</g>
<!-- Node28&#45;&gt;Node29 -->
<g id="edge36" class="edge">
<title>Node28&#45;&gt;Node29</title>
<path fill="none" stroke="midnightblue" d="M295,-168.08C295,-161.01 295,-150.86 295,-141.99"/>
<polygon fill="midnightblue" stroke="midnightblue" points="298.5,-141.75 295,-131.75 291.5,-141.75 298.5,-141.75"/>
</g>
<!-- Node30&#45;&gt;Node2 -->
<g id="edge38" class="edge">
<title>Node30&#45;&gt;Node2</title>
<path fill="none" stroke="midnightblue" d="M107.61,-224.32C91.33,-215.7 66.13,-202.36 47.28,-192.39"/>
<polygon fill="midnightblue" stroke="midnightblue" points="48.82,-189.24 38.35,-187.65 45.55,-195.43 48.82,-189.24"/>
</g>
<!-- Node30&#45;&gt;Node16 -->
<g id="edge40" class="edge">
<title>Node30&#45;&gt;Node16</title>
<path fill="none" stroke="midnightblue" d="M113.85,-224.35C100.23,-211.65 79.06,-187.4 91,-168 125.16,-112.48 200.3,-86.37 248.13,-74.95"/>
<polygon fill="midnightblue" stroke="midnightblue" points="248.92,-78.36 257.9,-72.74 247.37,-71.54 248.92,-78.36"/>
</g>
<!-- Node31 -->
<g id="node31" class="node">
<title>Node31</title>
<g id="a_node31"><a xlink:title=" ">
<polygon fill="none" stroke="#bfbfbf" points="100.5,-168.5 100.5,-187.5 147.5,-187.5 147.5,-168.5 100.5,-168.5"/>
<text text-anchor="middle" x="124" y="-175.5" font-family="Helvetica,sans-Serif" font-size="10.00">vector</text>
</a>
</g>
</g>
<!-- Node30&#45;&gt;Node31 -->
<g id="edge39" class="edge">
<title>Node30&#45;&gt;Node31</title>
<path fill="none" stroke="midnightblue" d="M124,-224.08C124,-217.01 124,-206.86 124,-197.99"/>
<polygon fill="midnightblue" stroke="midnightblue" points="127.5,-197.75 124,-187.75 120.5,-197.75 127.5,-197.75"/>
</g>
<!-- Node33 -->
<g id="node33" class="node">
<title>Node33</title>
<g id="a_node33"><a xlink:href="../../d0/d40/partial__base_8hpp.html" target="_top" xlink:title=" ">
<polygon fill="none" stroke="black" points="468,-224.5 468,-243.5 590,-243.5 590,-224.5 468,-224.5"/>
<text text-anchor="middle" x="529" y="-231.5" font-family="Helvetica,sans-Serif" font-size="10.00">impl/partial_base.hpp</text>
</a>
</g>
</g>
<!-- Node32&#45;&gt;Node33 -->
<g id="edge42" class="edge">
<title>Node32&#45;&gt;Node33</title>
<path fill="none" stroke="midnightblue" d="M517.31,-280.08C519.17,-272.93 521.84,-262.64 524.15,-253.69"/>
<polygon fill="midnightblue" stroke="midnightblue" points="527.61,-254.31 526.73,-243.75 520.83,-252.55 527.61,-254.31"/>
</g>
<!-- Node33&#45;&gt;Node10 -->
<g id="edge45" class="edge">
<title>Node33&#45;&gt;Node10</title>
<path fill="none" stroke="midnightblue" d="M550.48,-224.36C565.39,-217.09 584.11,-205.12 593,-188 603.67,-167.46 580.98,-148.58 560.52,-136.52"/>
<polygon fill="midnightblue" stroke="midnightblue" points="562.14,-133.42 551.69,-131.63 558.74,-139.54 562.14,-133.42"/>
</g>
<!-- Node33&#45;&gt;Node27 -->
<g id="edge44" class="edge">
<title>Node33&#45;&gt;Node27</title>
<path fill="none" stroke="midnightblue" d="M590.24,-227.99C661.86,-221.5 783.79,-208.54 887,-188 961.44,-173.18 1046.91,-146.71 1090.38,-132.56"/>
<polygon fill="midnightblue" stroke="midnightblue" points="1091.58,-135.84 1099.99,-129.4 1089.4,-129.19 1091.58,-135.84"/>
</g>
<!-- Node33&#45;&gt;Node31 -->
<g id="edge43" class="edge">
<title>Node33&#45;&gt;Node31</title>
<path fill="none" stroke="midnightblue" d="M467.74,-226.77C381.95,-217.85 229.3,-201.26 157.64,-188.02"/>
<polygon fill="midnightblue" stroke="midnightblue" points="158.15,-184.56 147.67,-186.1 156.82,-191.43 158.15,-184.56"/>
</g>
<!-- Node35 -->
<g id="node35" class="node">
<title>Node35</title>
<g id="a_node35"><a xlink:href="../../d4/db1/trie__set_8hpp.html" target="_top" xlink:title=" ">
<polygon fill="none" stroke="black" points="296,-280.5 296,-299.5 370,-299.5 370,-280.5 296,-280.5"/>
<text text-anchor="middle" x="333" y="-287.5" font-family="Helvetica,sans-Serif" font-size="10.00">trie_set.hpp</text>
</a>
</g>
</g>
<!-- Node34&#45;&gt;Node35 -->
<g id="edge47" class="edge">
<title>Node34&#45;&gt;Node35</title>
<path fill="none" stroke="midnightblue" d="M326.15,-341.98C327.27,-333.58 329.04,-320.48 330.49,-309.66"/>
<polygon fill="midnightblue" stroke="midnightblue" points="333.99,-309.89 331.86,-299.51 327.05,-308.95 333.99,-309.89"/>
</g>
<!-- Node35&#45;&gt;Node9 -->
<g id="edge48" class="edge">
<title>Node35&#45;&gt;Node9</title>
<path fill="none" stroke="midnightblue" d="M336.63,-280.08C339.61,-272.77 343.93,-262.18 347.62,-253.1"/>
<polygon fill="midnightblue" stroke="midnightblue" points="350.9,-254.33 351.43,-243.75 344.42,-251.69 350.9,-254.33"/>
</g>
<!-- Node35&#45;&gt;Node30 -->
<g id="edge49" class="edge">
<title>Node35&#45;&gt;Node30</title>
<path fill="none" stroke="midnightblue" d="M299.88,-280.44C263.88,-271.14 206.23,-256.25 166.81,-246.06"/>
<polygon fill="midnightblue" stroke="midnightblue" points="167.52,-242.63 156.96,-243.52 165.77,-249.41 167.52,-242.63"/>
</g>
</g>
</svg>
