<?xml version="1.0" encoding="UTF-8" standalone="no"?>
<!DOCTYPE svg PUBLIC "-//W3C//DTD SVG 1.1//EN"
 "http://www.w3.org/Graphics/SVG/1.1/DTD/svg11.dtd">
<!-- Generated by graphviz version 5.0.1 (20220820.1526)
 -->
<!-- Title: uxn::patl::impl::ring_buffer::capacity Pages: 1 -->
<svg width="277pt" height="88pt"
 viewBox="0.00 0.00 277.00 88.00" xmlns="http://www.w3.org/2000/svg" xmlns:xlink="http://www.w3.org/1999/xlink">
<g id="graph0" class="graph" transform="scale(1 1) rotate(0) translate(4 84)">
<title>uxn::patl::impl::ring_buffer::capacity</title>
<!-- Node1 -->
<g id="node1" class="node">
<title>Node1</title>
<g id="a_node1"><a xlink:title=" ">
<polygon fill="#bfbfbf" stroke="black" points="157,-24.5 157,-54.5 269,-54.5 269,-24.5 157,-24.5"/>
<text text-anchor="start" x="165" y="-42.5" font-family="Helvetica,sans-Serif" font-size="10.00">uxn::patl::impl::ring</text>
<text text-anchor="middle" x="213" y="-31.5" font-family="Helvetica,sans-Serif" font-size="10.00">_buffer::capacity</text>
</a>
</g>
</g>
<!-- Node2 -->
<g id="node2" class="node">
<title>Node2</title>
<g id="a_node2"><a xlink:href="../../db/db7/classuxn_1_1patl_1_1impl_1_1suffix__generic.html#a5f1a79ec8899f0e12680cb343470cc11" target="_top" xlink:title=" ">
<polygon fill="none" stroke="black" points="0.5,-49.5 0.5,-79.5 120.5,-79.5 120.5,-49.5 0.5,-49.5"/>
<text text-anchor="start" x="8.5" y="-67.5" font-family="Helvetica,sans-Serif" font-size="10.00">uxn::patl::impl::suffix</text>
<text text-anchor="middle" x="60.5" y="-56.5" font-family="Helvetica,sans-Serif" font-size="10.00">_generic::capacity</text>
</a>
</g>
</g>
<!-- Node1&#45;&gt;Node2 -->
<g id="edge1" class="edge">
<title>Node1&#45;&gt;Node2</title>
<path fill="none" stroke="midnightblue" d="M146.77,-50.34C138.11,-51.77 129.28,-53.24 120.73,-54.66"/>
<polygon fill="midnightblue" stroke="midnightblue" points="147.52,-53.76 156.81,-48.67 146.38,-46.85 147.52,-53.76"/>
</g>
<!-- Node3 -->
<g id="node3" class="node">
<title>Node3</title>
<g id="a_node3"><a xlink:href="../../d2/d13/classuxn_1_1patl_1_1ngram__stat.html#a6c2ca9d81b3e6c764730cc7842b7a8d5" target="_top" xlink:title=" ">
<polygon fill="none" stroke="black" points="0,-0.5 0,-30.5 121,-30.5 121,-0.5 0,-0.5"/>
<text text-anchor="start" x="8" y="-18.5" font-family="Helvetica,sans-Serif" font-size="10.00">uxn::patl::ngram_stat</text>
<text text-anchor="middle" x="60.5" y="-7.5" font-family="Helvetica,sans-Serif" font-size="10.00">::capacity</text>
</a>
</g>
</g>
<!-- Node1&#45;&gt;Node3 -->
<g id="edge2" class="edge">
<title>Node1&#45;&gt;Node3</title>
<path fill="none" stroke="midnightblue" d="M146.91,-29.12C138.38,-27.76 129.68,-26.37 121.24,-25.03"/>
<polygon fill="midnightblue" stroke="midnightblue" points="146.39,-32.58 156.81,-30.7 147.49,-25.67 146.39,-32.58"/>
</g>
</g>
</svg>
