<?xml version="1.0" encoding="UTF-8" standalone="no"?>
<!DOCTYPE svg PUBLIC "-//W3C//DTD SVG 1.1//EN"
 "http://www.w3.org/Graphics/SVG/1.1/DTD/svg11.dtd">
<!-- Generated by graphviz version 5.0.1 (20220820.1526)
 -->
<!-- Title: uxn::patl::impl::ring_buffer::index_of Pages: 1 -->
<!--zoomable 296 -->
<svg id="main" version="1.1" xmlns="http://www.w3.org/2000/svg" xmlns:xlink="http://www.w3.org/1999/xlink" xml:space="preserve" onload="init(evt)">
<style type="text/css"><![CDATA[
.edge:hover path { stroke: red; }
.edge:hover polygon { stroke: red; fill: red; }
]]></style>
<script type="text/javascript"><![CDATA[
var edges = document.getElementsByTagName('g');
if (edges && edges.length) {
  for (var i=0;i<edges.length;i++) {
    if (edges[i].id.substr(0,4)=='edge') {
      edges[i].setAttribute('class','edge');
    }
  }
}
]]></script>
        <defs>
                <circle id="rim" cx="0" cy="0" r="7"/>
                <circle id="rim2" cx="0" cy="0" r="3.5"/>
                <g id="zoomPlus">
                        <use xlink:href="#rim" fill="#404040">
                                <set attributeName="fill" to="#808080" begin="zoomplus.mouseover" end="zoomplus.mouseout"/>
                        </use>
                        <path d="M-4,0h8M0,-4v8" fill="none" stroke="white" stroke-width="1.5" pointer-events="none"/>
                </g>
                <g id="zoomMin">
                        <use xlink:href="#rim" fill="#404040">
                                <set attributeName="fill" to="#808080" begin="zoomminus.mouseover" end="zoomminus.mouseout"/>
                        </use>
                        <path d="M-4,0h8" fill="none" stroke="white" stroke-width="1.5" pointer-events="none"/>
                </g>
                <g id="dirArrow">
                        <path fill="none" stroke="white" stroke-width="1.5" d="M0,-3.0v7 M-2.5,-0.5L0,-3.0L2.5,-0.5"/>
                </g>
               <g id="resetDef">
                       <use xlink:href="#rim2" fill="#404040">
                               <set attributeName="fill" to="#808080" begin="reset.mouseover" end="reset.mouseout"/>
                       </use>
               </g>
        </defs>

<script type="text/javascript">
var viewWidth = 567;
var viewHeight = 296;
var sectionId = 'dynsection-11';
</script>
<script xlink:href="../../svgpan.js"/>
<svg id="graph" class="graph">
<g id="viewport">
<title>uxn::patl::impl::ring_buffer::index_of</title>
<!-- Node1 -->
<g id="node1" class="node">
<title>Node1</title>
<g id="a_node1"><a xlink:title=" ">
<polygon fill="#bfbfbf" stroke="black" points="447,-131.5 447,-161.5 559,-161.5 559,-131.5 447,-131.5"/>
<text text-anchor="start" x="455" y="-149.5" font-family="Helvetica,sans-Serif" font-size="10.00">uxn::patl::impl::ring</text>
<text text-anchor="middle" x="503" y="-138.5" font-family="Helvetica,sans-Serif" font-size="10.00">_buffer::index_of</text>
</a>
</g>
</g>
<!-- Node2 -->
<g id="node2" class="node">
<title>Node2</title>
<g id="a_node2"><a xlink:href="../../db/db7/classuxn_1_1patl_1_1impl_1_1suffix__generic.html#adfbf6945c5896f08d3acace2c26b2f49" target="_top" xlink:title=" ">
<polygon fill="none" stroke="black" points="279.5,-257.5 279.5,-287.5 399.5,-287.5 399.5,-257.5 279.5,-257.5"/>
<text text-anchor="start" x="287.5" y="-275.5" font-family="Helvetica,sans-Serif" font-size="10.00">uxn::patl::impl::suffix</text>
<text text-anchor="middle" x="339.5" y="-264.5" font-family="Helvetica,sans-Serif" font-size="10.00">_generic::get_key</text>
</a>
</g>
</g>
<!-- Node1&#45;&gt;Node2 -->
<g id="edge1" class="edge">
<title>Node1&#45;&gt;Node2</title>
<path fill="none" stroke="midnightblue" d="M486.5,-170.02C470.21,-193.02 442.61,-227.55 411,-248.5 405.93,-251.86 400.35,-254.79 394.61,-257.34"/>
<polygon fill="midnightblue" stroke="midnightblue" points="489.56,-171.74 492.36,-161.52 483.8,-167.76 489.56,-171.74"/>
</g>
<!-- Node4 -->
<g id="node4" class="node">
<title>Node4</title>
<g id="a_node4"><a xlink:href="../../d2/d13/classuxn_1_1patl_1_1ngram__stat.html#a1d38bcbd01c211cc4af8f72991e1cd00" target="_top" xlink:title=" ">
<polygon fill="none" stroke="black" points="279,-208.5 279,-238.5 400,-238.5 400,-208.5 279,-208.5"/>
<text text-anchor="start" x="287" y="-226.5" font-family="Helvetica,sans-Serif" font-size="10.00">uxn::patl::ngram_stat</text>
<text text-anchor="middle" x="339.5" y="-215.5" font-family="Helvetica,sans-Serif" font-size="10.00">::get_key</text>
</a>
</g>
</g>
<!-- Node1&#45;&gt;Node4 -->
<g id="edge3" class="edge">
<title>Node1&#45;&gt;Node4</title>
<path fill="none" stroke="midnightblue" d="M470.6,-166.88C453.44,-177.47 431.54,-190.14 411,-199.5 403.94,-202.72 396.32,-205.75 388.78,-208.5"/>
<polygon fill="midnightblue" stroke="midnightblue" points="472.49,-169.82 479.12,-161.55 468.78,-163.89 472.49,-169.82"/>
</g>
<!-- Node5 -->
<g id="node5" class="node">
<title>Node5</title>
<g id="a_node5"><a xlink:href="../../db/db7/classuxn_1_1patl_1_1impl_1_1suffix__generic.html#ae4ec39b298848d45053d53fb222d5d21" target="_top" xlink:title=" ">
<polygon fill="none" stroke="black" points="279.5,-159.5 279.5,-189.5 399.5,-189.5 399.5,-159.5 279.5,-159.5"/>
<text text-anchor="start" x="287.5" y="-177.5" font-family="Helvetica,sans-Serif" font-size="10.00">uxn::patl::impl::suffix</text>
<text text-anchor="middle" x="339.5" y="-166.5" font-family="Helvetica,sans-Serif" font-size="10.00">_generic::index_of</text>
</a>
</g>
</g>
<!-- Node1&#45;&gt;Node5 -->
<g id="edge4" class="edge">
<title>Node1&#45;&gt;Node5</title>
<path fill="none" stroke="midnightblue" d="M436.69,-157.82C424.4,-159.95 411.61,-162.17 399.52,-164.27"/>
<polygon fill="midnightblue" stroke="midnightblue" points="437.62,-161.21 446.87,-156.06 436.42,-154.32 437.62,-161.21"/>
</g>
<!-- Node9 -->
<g id="node9" class="node">
<title>Node9</title>
<g id="a_node9"><a xlink:href="../../d7/d6b/structuxn_1_1patl_1_1impl_1_1ring__buffer_1_1reserve__functor.html#aef16432e652af137d10989317ab9949d" target="_top" xlink:title=" ">
<polygon fill="none" stroke="black" points="273,-99 273,-140 406,-140 406,-99 273,-99"/>
<text text-anchor="start" x="281" y="-128" font-family="Helvetica,sans-Serif" font-size="10.00">uxn::patl::impl::ring</text>
<text text-anchor="start" x="281" y="-117" font-family="Helvetica,sans-Serif" font-size="10.00">_buffer::reserve_functor</text>
<text text-anchor="middle" x="339.5" y="-106" font-family="Helvetica,sans-Serif" font-size="10.00">::operator()</text>
</a>
</g>
</g>
<!-- Node1&#45;&gt;Node9 -->
<g id="edge9" class="edge">
<title>Node1&#45;&gt;Node9</title>
<path fill="none" stroke="midnightblue" d="M436.91,-135.62C426.81,-133.93 416.37,-132.18 406.25,-130.49"/>
<polygon fill="midnightblue" stroke="midnightblue" points="436.43,-139.09 446.87,-137.28 437.59,-132.18 436.43,-139.09"/>
</g>
<!-- Node10 -->
<g id="node10" class="node">
<title>Node10</title>
<g id="a_node10"><a xlink:href="../../db/db7/classuxn_1_1patl_1_1impl_1_1suffix__generic.html#a3a8ccdc542ec789f363fbfacb3d3e344" target="_top" xlink:title=" ">
<polygon fill="none" stroke="black" points="279.5,-49.5 279.5,-79.5 399.5,-79.5 399.5,-49.5 279.5,-49.5"/>
<text text-anchor="start" x="287.5" y="-67.5" font-family="Helvetica,sans-Serif" font-size="10.00">uxn::patl::impl::suffix</text>
<text text-anchor="middle" x="339.5" y="-56.5" font-family="Helvetica,sans-Serif" font-size="10.00">_generic::reserve</text>
</a>
</g>
</g>
<!-- Node1&#45;&gt;Node10 -->
<g id="edge10" class="edge">
<title>Node1&#45;&gt;Node10</title>
<path fill="none" stroke="midnightblue" d="M472.16,-125.48C454.84,-113.88 432.3,-99.79 411,-89.5 403.63,-85.94 395.62,-82.62 387.73,-79.63"/>
<polygon fill="midnightblue" stroke="midnightblue" points="470.46,-128.56 480.7,-131.29 474.4,-122.77 470.46,-128.56"/>
</g>
<!-- Node11 -->
<g id="node11" class="node">
<title>Node11</title>
<g id="a_node11"><a xlink:href="../../db/db7/classuxn_1_1patl_1_1impl_1_1suffix__generic.html#a18c197cfec4acd1dfeb132e607c023bb" target="_top" xlink:title=" ">
<polygon fill="none" stroke="black" points="268,-0.5 268,-30.5 411,-30.5 411,-0.5 268,-0.5"/>
<text text-anchor="start" x="276" y="-18.5" font-family="Helvetica,sans-Serif" font-size="10.00">uxn::patl::impl::suffix</text>
<text text-anchor="middle" x="339.5" y="-7.5" font-family="Helvetica,sans-Serif" font-size="10.00">_generic::vertex_index_of</text>
</a>
</g>
</g>
<!-- Node1&#45;&gt;Node11 -->
<g id="edge11" class="edge">
<title>Node1&#45;&gt;Node11</title>
<path fill="none" stroke="midnightblue" d="M487.5,-122.92C471.53,-98.78 443.72,-61.75 411,-39.5 405.97,-36.08 400.42,-33.11 394.69,-30.54"/>
<polygon fill="midnightblue" stroke="midnightblue" points="484.66,-124.98 493.02,-131.48 490.54,-121.18 484.66,-124.98"/>
</g>
<!-- Node3 -->
<g id="node3" class="node">
<title>Node3</title>
<g id="a_node3"><a xlink:href="../../db/db7/classuxn_1_1patl_1_1impl_1_1suffix__generic.html#a13c44778e878a37e350ff853f6706942" target="_top" xlink:title="erase back suffix">
<polygon fill="none" stroke="black" points="94.5,-257.5 94.5,-287.5 214.5,-287.5 214.5,-257.5 94.5,-257.5"/>
<text text-anchor="start" x="102.5" y="-275.5" font-family="Helvetica,sans-Serif" font-size="10.00">uxn::patl::impl::suffix</text>
<text text-anchor="middle" x="154.5" y="-264.5" font-family="Helvetica,sans-Serif" font-size="10.00">_generic::pop_back</text>
</a>
</g>
</g>
<!-- Node2&#45;&gt;Node3 -->
<g id="edge2" class="edge">
<title>Node2&#45;&gt;Node3</title>
<path fill="none" stroke="midnightblue" d="M269.23,-272.5C251.29,-272.5 232.14,-272.5 214.77,-272.5"/>
<polygon fill="midnightblue" stroke="midnightblue" points="269.34,-276 279.34,-272.5 269.34,-269 269.34,-276"/>
</g>
<!-- Node6 -->
<g id="node6" class="node">
<title>Node6</title>
<g id="a_node6"><a xlink:href="../../d1/db2/insider_8cpp.html#ae66f6b31b5ad750f1fe042a706a4e3d4" target="_top" xlink:title=" ">
<polygon fill="none" stroke="black" points="134,-165 134,-184 175,-184 175,-165 134,-165"/>
<text text-anchor="middle" x="154.5" y="-172" font-family="Helvetica,sans-Serif" font-size="10.00">main</text>
</a>
</g>
</g>
<!-- Node5&#45;&gt;Node6 -->
<g id="edge5" class="edge">
<title>Node5&#45;&gt;Node6</title>
<path fill="none" stroke="midnightblue" d="M269.06,-174.5C235.41,-174.5 197.54,-174.5 175.15,-174.5"/>
<polygon fill="midnightblue" stroke="midnightblue" points="269.34,-178 279.34,-174.5 269.34,-171 269.34,-178"/>
</g>
<!-- Node7 -->
<g id="node7" class="node">
<title>Node7</title>
<g id="a_node7"><a xlink:href="../../d2/d55/multi__align_8cpp.html#a8bb6226b18c9169ccad9269f94d55e27" target="_top" xlink:title=" ">
<polygon fill="none" stroke="black" points="77,-58 77,-77 232,-77 232,-58 77,-58"/>
<text text-anchor="middle" x="154.5" y="-65" font-family="Helvetica,sans-Serif" font-size="10.00">multiple_common_substring</text>
</a>
</g>
</g>
<!-- Node5&#45;&gt;Node7 -->
<g id="edge6" class="edge">
<title>Node5&#45;&gt;Node7</title>
<path fill="none" stroke="midnightblue" d="M280.47,-155.46C276.18,-153.59 271.98,-151.6 268,-149.5 227.6,-128.19 185.53,-93.65 166.28,-77.03"/>
<polygon fill="midnightblue" stroke="midnightblue" points="279.34,-158.79 289.92,-159.37 282.02,-152.32 279.34,-158.79"/>
</g>
<!-- Node7&#45;&gt;Node7 -->
<g id="edge8" class="edge">
<title>Node7&#45;&gt;Node7</title>
<path fill="none" stroke="midnightblue" d="M179.43,-86.53C178.07,-91.63 169.76,-95.5 154.5,-95.5 130.68,-95.5 123.8,-86.07 133.85,-77.26"/>
<polygon fill="midnightblue" stroke="midnightblue" points="182.52,-84.87 175.15,-77.26 176.16,-87.8 182.52,-84.87"/>
</g>
<!-- Node8 -->
<g id="node8" class="node">
<title>Node8</title>
<g id="a_node8"><a xlink:href="../../d2/d55/multi__align_8cpp.html#a0ddf1224851353fc92bfbff6f499fa97" target="_top" xlink:title=" ">
<polygon fill="none" stroke="black" points="0,-58 0,-77 41,-77 41,-58 0,-58"/>
<text text-anchor="middle" x="20.5" y="-65" font-family="Helvetica,sans-Serif" font-size="10.00">main</text>
</a>
</g>
</g>
<!-- Node7&#45;&gt;Node8 -->
<g id="edge7" class="edge">
<title>Node7&#45;&gt;Node8</title>
<path fill="none" stroke="midnightblue" d="M66.69,-67.5C57.26,-67.5 48.46,-67.5 41.17,-67.5"/>
<polygon fill="midnightblue" stroke="midnightblue" points="66.72,-71 76.72,-67.5 66.72,-64 66.72,-71"/>
</g>
<!-- Node11&#45;&gt;Node7 -->
<g id="edge12" class="edge">
<title>Node11&#45;&gt;Node7</title>
<path fill="none" stroke="midnightblue" d="M275.87,-33.3C246.74,-41.57 213.25,-51.09 189.01,-57.98"/>
<polygon fill="midnightblue" stroke="midnightblue" points="276.91,-36.64 285.57,-30.54 274.99,-29.91 276.91,-36.64"/>
</g>
</g>
</svg>
        <g id="navigator" transform="translate(0 0)" fill="#404254">
                <rect fill="#f2f5e9" fill-opacity="0.5" stroke="#606060" stroke-width=".5" x="0" y="0" width="60" height="60"/>
                <use id="zoomplus" xlink:href="#zoomPlus" x="17" y="9" onmousedown="handleZoom(evt,'in')"/>
                <use id="zoomminus" xlink:href="#zoomMin" x="42" y="9" onmousedown="handleZoom(evt,'out')"/>
                <use id="reset" xlink:href="#resetDef" x="30" y="36" onmousedown="handleReset()"/>
                <g id="arrowUp" xlink:href="#dirArrow" transform="translate(30 24)" onmousedown="handlePan(0,-1)">
                  <use xlink:href="#rim" fill="#404040">
                        <set attributeName="fill" to="#808080" begin="arrowUp.mouseover" end="arrowUp.mouseout"/>
                  </use>
                  <path fill="none" stroke="white" stroke-width="1.5" d="M0,-3.0v7 M-2.5,-0.5L0,-3.0L2.5,-0.5"/>
                </g>
                <g id="arrowRight" xlink:href="#dirArrow" transform="rotate(90) translate(36 -43)" onmousedown="handlePan(1,0)">
                  <use xlink:href="#rim" fill="#404040">
                        <set attributeName="fill" to="#808080" begin="arrowRight.mouseover" end="arrowRight.mouseout"/>
                  </use>
                  <path fill="none" stroke="white" stroke-width="1.5" d="M0,-3.0v7 M-2.5,-0.5L0,-3.0L2.5,-0.5"/>
                </g>
                <g id="arrowDown" xlink:href="#dirArrow" transform="rotate(180) translate(-30 -48)" onmousedown="handlePan(0,1)">
                  <use xlink:href="#rim" fill="#404040">
                        <set attributeName="fill" to="#808080" begin="arrowDown.mouseover" end="arrowDown.mouseout"/>
                  </use>
                  <path fill="none" stroke="white" stroke-width="1.5" d="M0,-3.0v7 M-2.5,-0.5L0,-3.0L2.5,-0.5"/>
                </g>
                <g id="arrowLeft" xlink:href="#dirArrow" transform="rotate(270) translate(-36 17)" onmousedown="handlePan(-1,0)">
                  <use xlink:href="#rim" fill="#404040">
                        <set attributeName="fill" to="#808080" begin="arrowLeft.mouseover" end="arrowLeft.mouseout"/>
                  </use>
                  <path fill="none" stroke="white" stroke-width="1.5" d="M0,-3.0v7 M-2.5,-0.5L0,-3.0L2.5,-0.5"/>
                </g>
        </g>
        <svg viewBox="0 0 15 15" width="100%" height="30px" preserveAspectRatio="xMaxYMin meet">
         <g id="arrow_out" transform="scale(0.3 0.3)">
          <a xlink:href="classuxn_1_1patl_1_1impl_1_1ring__buffer_a0cb9f62a800a2b3f636ef598d5547df9_icgraph_org.svg" target="_base">
           <rect id="button" ry="5" rx="5" y="6" x="6" height="38" width="38"
                fill="#f2f5e9" fill-opacity="0.5" stroke="#606060" stroke-width="1.0"/>
           <path id="arrow"
             d="M 11.500037,31.436501 C 11.940474,20.09759 22.043105,11.32322 32.158766,21.979434 L 37.068811,17.246167 C 37.068811,17.246167 37.088388,32 37.088388,32 L 22.160133,31.978069 C 22.160133,31.978069 26.997745,27.140456 26.997745,27.140456 C 18.528582,18.264221 13.291696,25.230495 11.500037,31.436501 z"
             style="fill:#404040;"/>
          </a>
         </g>
        </svg>
</svg>
