<?xml version="1.0" encoding="UTF-8" standalone="no"?>
<!DOCTYPE svg PUBLIC "-//W3C//DTD SVG 1.1//EN"
 "http://www.w3.org/Graphics/SVG/1.1/DTD/svg11.dtd">
<!-- Generated by graphviz version 5.0.1 (20220820.1526)
 -->
<!-- Title: uxn::patl::impl::ring_buffer::back Pages: 1 -->
<svg width="313pt" height="247pt"
 viewBox="0.00 0.00 313.00 246.50" xmlns="http://www.w3.org/2000/svg" xmlns:xlink="http://www.w3.org/1999/xlink">
<g id="graph0" class="graph" transform="scale(1 1) rotate(0) translate(4 242.5)">
<title>uxn::patl::impl::ring_buffer::back</title>
<!-- Node1 -->
<g id="node1" class="node">
<title>Node1</title>
<g id="a_node1"><a xlink:title=" ">
<polygon fill="#bfbfbf" stroke="black" points="193,-98.5 193,-128.5 305,-128.5 305,-98.5 193,-98.5"/>
<text text-anchor="start" x="201" y="-116.5" font-family="Helvetica,sans-Serif" font-size="10.00">uxn::patl::impl::ring</text>
<text text-anchor="middle" x="249" y="-105.5" font-family="Helvetica,sans-Serif" font-size="10.00">_buffer::back</text>
</a>
</g>
</g>
<!-- Node2 -->
<g id="node2" class="node">
<title>Node2</title>
<g id="a_node2"><a xlink:href="../../dc/d4b/classuxn_1_1patl_1_1impl_1_1suffix__generic_1_1match__iterator.html#a178c99287b12e933bad30cac538486dc" target="_top" xlink:title=" ">
<polygon fill="none" stroke="black" points="10.5,-197 10.5,-238 146.5,-238 146.5,-197 10.5,-197"/>
<text text-anchor="start" x="18.5" y="-226" font-family="Helvetica,sans-Serif" font-size="10.00">uxn::patl::impl::suffix</text>
<text text-anchor="start" x="18.5" y="-215" font-family="Helvetica,sans-Serif" font-size="10.00">_generic::match_iterator</text>
<text text-anchor="middle" x="78.5" y="-204" font-family="Helvetica,sans-Serif" font-size="10.00">::operator++</text>
</a>
</g>
</g>
<!-- Node1&#45;&gt;Node2 -->
<g id="edge1" class="edge">
<title>Node1&#45;&gt;Node2</title>
<path fill="none" stroke="midnightblue" d="M225.21,-135.45C207.66,-151.48 182.2,-172.87 157,-187.5 151.14,-190.9 144.81,-194.07 138.4,-196.97"/>
<polygon fill="midnightblue" stroke="midnightblue" points="227.74,-137.88 232.69,-128.51 222.98,-132.75 227.74,-137.88"/>
</g>
<!-- Node3 -->
<g id="node3" class="node">
<title>Node3</title>
<g id="a_node3"><a xlink:href="../../db/db7/classuxn_1_1patl_1_1impl_1_1suffix__generic.html#a13c44778e878a37e350ff853f6706942" target="_top" xlink:title="erase back suffix">
<polygon fill="none" stroke="black" points="18.5,-147.5 18.5,-177.5 138.5,-177.5 138.5,-147.5 18.5,-147.5"/>
<text text-anchor="start" x="26.5" y="-165.5" font-family="Helvetica,sans-Serif" font-size="10.00">uxn::patl::impl::suffix</text>
<text text-anchor="middle" x="78.5" y="-154.5" font-family="Helvetica,sans-Serif" font-size="10.00">_generic::pop_back</text>
</a>
</g>
</g>
<!-- Node1&#45;&gt;Node3 -->
<g id="edge2" class="edge">
<title>Node1&#45;&gt;Node3</title>
<path fill="none" stroke="midnightblue" d="M186.47,-131.39C168.34,-136.66 148.7,-142.38 131.26,-147.45"/>
<polygon fill="midnightblue" stroke="midnightblue" points="187.44,-134.75 196.07,-128.6 185.49,-128.03 187.44,-134.75"/>
</g>
<!-- Node4 -->
<g id="node4" class="node">
<title>Node4</title>
<g id="a_node4"><a xlink:href="../../d2/d13/classuxn_1_1patl_1_1ngram__stat.html#aa119be8638f9a54fcc21d2f5e77fc588" target="_top" xlink:title=" ">
<polygon fill="none" stroke="black" points="18,-98.5 18,-128.5 139,-128.5 139,-98.5 18,-98.5"/>
<text text-anchor="start" x="26" y="-116.5" font-family="Helvetica,sans-Serif" font-size="10.00">uxn::patl::ngram_stat</text>
<text text-anchor="middle" x="78.5" y="-105.5" font-family="Helvetica,sans-Serif" font-size="10.00">::push_back</text>
</a>
</g>
</g>
<!-- Node1&#45;&gt;Node4 -->
<g id="edge3" class="edge">
<title>Node1&#45;&gt;Node4</title>
<path fill="none" stroke="midnightblue" d="M182.57,-113.5C168.28,-113.5 153.21,-113.5 139.16,-113.5"/>
<polygon fill="midnightblue" stroke="midnightblue" points="182.83,-117 192.83,-113.5 182.83,-110 182.83,-117"/>
</g>
<!-- Node5 -->
<g id="node5" class="node">
<title>Node5</title>
<g id="a_node5"><a xlink:href="../../db/db7/classuxn_1_1patl_1_1impl_1_1suffix__generic.html#a3758d1f5bf1e70bd5f67a7edb7d7971f" target="_top" xlink:title=" ">
<polygon fill="none" stroke="black" points="0,-49.5 0,-79.5 157,-79.5 157,-49.5 0,-49.5"/>
<text text-anchor="start" x="8" y="-67.5" font-family="Helvetica,sans-Serif" font-size="10.00">uxn::patl::impl::suffix</text>
<text text-anchor="middle" x="78.5" y="-56.5" font-family="Helvetica,sans-Serif" font-size="10.00">_generic::push_back_generic</text>
</a>
</g>
</g>
<!-- Node1&#45;&gt;Node5 -->
<g id="edge4" class="edge">
<title>Node1&#45;&gt;Node5</title>
<path fill="none" stroke="midnightblue" d="M186.47,-95.61C168.34,-90.34 148.7,-84.62 131.26,-79.55"/>
<polygon fill="midnightblue" stroke="midnightblue" points="185.49,-98.97 196.07,-98.4 187.44,-92.25 185.49,-98.97"/>
</g>
<!-- Node6 -->
<g id="node6" class="node">
<title>Node6</title>
<g id="a_node6"><a xlink:href="../../db/db7/classuxn_1_1patl_1_1impl_1_1suffix__generic.html#a52f5d589814ab7cf08b9840cb90f1377" target="_top" xlink:title=" ">
<polygon fill="none" stroke="black" points="8.5,-0.5 8.5,-30.5 148.5,-30.5 148.5,-0.5 8.5,-0.5"/>
<text text-anchor="start" x="16.5" y="-18.5" font-family="Helvetica,sans-Serif" font-size="10.00">uxn::patl::impl::suffix</text>
<text text-anchor="middle" x="78.5" y="-7.5" font-family="Helvetica,sans-Serif" font-size="10.00">_generic::push_back_root</text>
</a>
</g>
</g>
<!-- Node1&#45;&gt;Node6 -->
<g id="edge5" class="edge">
<title>Node1&#45;&gt;Node6</title>
<path fill="none" stroke="midnightblue" d="M225.4,-91.44C207.94,-75.43 182.51,-54.24 157,-40.5 150.03,-36.75 142.4,-33.44 134.73,-30.56"/>
<polygon fill="midnightblue" stroke="midnightblue" points="223.14,-94.12 232.83,-98.39 227.92,-89.01 223.14,-94.12"/>
</g>
</g>
</svg>
