<?xml version="1.0" encoding="UTF-8" standalone="no"?>
<!DOCTYPE svg PUBLIC "-//W3C//DTD SVG 1.1//EN"
 "http://www.w3.org/Graphics/SVG/1.1/DTD/svg11.dtd">
<!-- Generated by graphviz version 5.0.1 (20220820.1526)
 -->
<!-- Title: uxn::patl::impl::ring_buffer::following Pages: 1 -->
<svg width="313pt" height="100pt"
 viewBox="0.00 0.00 313.00 99.50" xmlns="http://www.w3.org/2000/svg" xmlns:xlink="http://www.w3.org/1999/xlink">
<g id="graph0" class="graph" transform="scale(1 1) rotate(0) translate(4 95.5)">
<title>uxn::patl::impl::ring_buffer::following</title>
<!-- Node1 -->
<g id="node1" class="node">
<title>Node1</title>
<g id="a_node1"><a xlink:title=" ">
<polygon fill="#bfbfbf" stroke="black" points="193,-27.5 193,-57.5 305,-57.5 305,-27.5 193,-27.5"/>
<text text-anchor="start" x="201" y="-45.5" font-family="Helvetica,sans-Serif" font-size="10.00">uxn::patl::impl::ring</text>
<text text-anchor="middle" x="249" y="-34.5" font-family="Helvetica,sans-Serif" font-size="10.00">_buffer::following</text>
</a>
</g>
</g>
<!-- Node2 -->
<g id="node2" class="node">
<title>Node2</title>
<g id="a_node2"><a xlink:href="../../dc/d4b/classuxn_1_1patl_1_1impl_1_1suffix__generic_1_1match__iterator.html#a178c99287b12e933bad30cac538486dc" target="_top" xlink:title=" ">
<polygon fill="none" stroke="black" points="10.5,-50 10.5,-91 146.5,-91 146.5,-50 10.5,-50"/>
<text text-anchor="start" x="18.5" y="-79" font-family="Helvetica,sans-Serif" font-size="10.00">uxn::patl::impl::suffix</text>
<text text-anchor="start" x="18.5" y="-68" font-family="Helvetica,sans-Serif" font-size="10.00">_generic::match_iterator</text>
<text text-anchor="middle" x="78.5" y="-57" font-family="Helvetica,sans-Serif" font-size="10.00">::operator++</text>
</a>
</g>
</g>
<!-- Node1&#45;&gt;Node2 -->
<g id="edge1" class="edge">
<title>Node1&#45;&gt;Node2</title>
<path fill="none" stroke="midnightblue" d="M182.95,-53.31C171.02,-55.29 158.55,-57.36 146.56,-59.36"/>
<polygon fill="midnightblue" stroke="midnightblue" points="183.54,-56.76 192.83,-51.67 182.39,-49.85 183.54,-56.76"/>
</g>
<!-- Node3 -->
<g id="node3" class="node">
<title>Node3</title>
<g id="a_node3"><a xlink:href="../../db/db7/classuxn_1_1patl_1_1impl_1_1suffix__generic.html#a3758d1f5bf1e70bd5f67a7edb7d7971f" target="_top" xlink:title=" ">
<polygon fill="none" stroke="black" points="0,-0.5 0,-30.5 157,-30.5 157,-0.5 0,-0.5"/>
<text text-anchor="start" x="8" y="-18.5" font-family="Helvetica,sans-Serif" font-size="10.00">uxn::patl::impl::suffix</text>
<text text-anchor="middle" x="78.5" y="-7.5" font-family="Helvetica,sans-Serif" font-size="10.00">_generic::push_back_generic</text>
</a>
</g>
</g>
<!-- Node1&#45;&gt;Node3 -->
<g id="edge2" class="edge">
<title>Node1&#45;&gt;Node3</title>
<path fill="none" stroke="midnightblue" d="M182.74,-32.04C174.35,-30.7 165.69,-29.31 157.12,-27.94"/>
<polygon fill="midnightblue" stroke="midnightblue" points="182.4,-35.53 192.83,-33.66 183.51,-28.62 182.4,-35.53"/>
</g>
</g>
</svg>
