<?xml version="1.0" encoding="UTF-8" standalone="no"?>
<!DOCTYPE svg PUBLIC "-//W3C//DTD SVG 1.1//EN"
 "http://www.w3.org/Graphics/SVG/1.1/DTD/svg11.dtd">
<!-- Generated by graphviz version 5.0.1 (20220820.1526)
 -->
<!-- Title: uxn/patl/patricia_dot_creator.hpp Pages: 1 -->
<svg width="316pt" height="106pt"
 viewBox="0.00 0.00 316.00 106.00" xmlns="http://www.w3.org/2000/svg" xmlns:xlink="http://www.w3.org/1999/xlink">
<g id="graph0" class="graph" transform="scale(1 1) rotate(0) translate(4 102)">
<title>uxn/patl/patricia_dot_creator.hpp</title>
<!-- Node1 -->
<g id="node1" class="node">
<title>Node1</title>
<g id="a_node1"><a xlink:title=" ">
<polygon fill="#bfbfbf" stroke="black" points="103.5,-67.5 103.5,-97.5 220.5,-97.5 220.5,-67.5 103.5,-67.5"/>
<text text-anchor="start" x="111.5" y="-85.5" font-family="Helvetica,sans-Serif" font-size="10.00">uxn/patl/patricia_dot</text>
<text text-anchor="middle" x="162" y="-74.5" font-family="Helvetica,sans-Serif" font-size="10.00">_creator.hpp</text>
</a>
</g>
</g>
<!-- Node2 -->
<g id="node2" class="node">
<title>Node2</title>
<g id="a_node2"><a xlink:href="../../d1/db2/insider_8cpp.html" target="_top" xlink:title=" ">
<polygon fill="none" stroke="black" points="0,-6 0,-25 162,-25 162,-6 0,-6"/>
<text text-anchor="middle" x="81" y="-13" font-family="Helvetica,sans-Serif" font-size="10.00">uxn/demos/insider/insider.cpp</text>
</a>
</g>
</g>
<!-- Node1&#45;&gt;Node2 -->
<g id="edge1" class="edge">
<title>Node1&#45;&gt;Node2</title>
<path fill="none" stroke="midnightblue" d="M136.46,-61.01C121.43,-48.94 103.19,-34.3 91.83,-25.19"/>
<polygon fill="midnightblue" stroke="midnightblue" points="134.43,-63.87 144.42,-67.4 138.82,-58.41 134.43,-63.87"/>
</g>
<!-- Node3 -->
<g id="node3" class="node">
<title>Node3</title>
<g id="a_node3"><a xlink:href="../../d2/d55/multi__align_8cpp.html" target="_top" xlink:title=" ">
<polygon fill="none" stroke="black" points="180,-0.5 180,-30.5 308,-30.5 308,-0.5 180,-0.5"/>
<text text-anchor="start" x="188" y="-18.5" font-family="Helvetica,sans-Serif" font-size="10.00">uxn/demos/multi_align</text>
<text text-anchor="middle" x="244" y="-7.5" font-family="Helvetica,sans-Serif" font-size="10.00">/multi_align.cpp</text>
</a>
</g>
</g>
<!-- Node1&#45;&gt;Node3 -->
<g id="edge2" class="edge">
<title>Node1&#45;&gt;Node3</title>
<path fill="none" stroke="midnightblue" d="M187.65,-61.17C200.19,-51.23 214.97,-39.51 226.24,-30.58"/>
<polygon fill="midnightblue" stroke="midnightblue" points="185.46,-58.44 179.79,-67.4 189.8,-63.93 185.46,-58.44"/>
</g>
</g>
</svg>
