<?xml version="1.0" encoding="UTF-8" standalone="no"?>
<!DOCTYPE svg PUBLIC "-//W3C//DTD SVG 1.1//EN"
 "http://www.w3.org/Graphics/SVG/1.1/DTD/svg11.dtd">
<!-- Generated by graphviz version 5.0.1 (20220820.1526)
 -->
<!-- Title: main Pages: 1 -->
<svg width="538pt" height="1040pt"
 viewBox="0.00 0.00 538.00 1040.00" xmlns="http://www.w3.org/2000/svg" xmlns:xlink="http://www.w3.org/1999/xlink">
<g id="graph0" class="graph" transform="scale(1 1) rotate(0) translate(4 1036)">
<title>main</title>
<!-- Node1 -->
<g id="node1" class="node">
<title>Node1</title>
<g id="a_node1"><a xlink:title=" ">
<polygon fill="#bfbfbf" stroke="black" points="0,-585 0,-604 41,-604 41,-585 0,-585"/>
<text text-anchor="middle" x="20.5" y="-592" font-family="Helvetica,sans-Serif" font-size="10.00">main</text>
</a>
</g>
</g>
<!-- Node2 -->
<g id="node2" class="node">
<title>Node2</title>
<g id="a_node2"><a xlink:href="../../db/db7/classuxn_1_1patl_1_1impl_1_1suffix__generic.html#a6b5ce975ed960d22158f993ac18729cc" target="_top" xlink:title=" ">
<polygon fill="none" stroke="black" points="77,-954.5 77,-984.5 197,-984.5 197,-954.5 77,-954.5"/>
<text text-anchor="start" x="85" y="-972.5" font-family="Helvetica,sans-Serif" font-size="10.00">uxn::patl::impl::suffix</text>
<text text-anchor="middle" x="137" y="-961.5" font-family="Helvetica,sans-Serif" font-size="10.00">_generic::clear</text>
</a>
</g>
</g>
<!-- Node1&#45;&gt;Node2 -->
<g id="edge1" class="edge">
<title>Node1&#45;&gt;Node2</title>
<path fill="none" stroke="midnightblue" d="M21.82,-604.04C23.38,-641.67 32.07,-782.83 77,-887.5 86.34,-909.26 102.24,-930.87 115.18,-946.44"/>
<polygon fill="midnightblue" stroke="midnightblue" points="112.85,-949.1 122,-954.43 118.17,-944.56 112.85,-949.1"/>
</g>
<!-- Node6 -->
<g id="node6" class="node">
<title>Node6</title>
<g id="a_node6"><a xlink:href="../../d3/de9/classuxn_1_1patl_1_1patricia__dot__creator.html#a716cc8895d276b9480e251127334d0cd" target="_top" xlink:title=" ">
<polygon fill="none" stroke="black" points="80,-847.5 80,-877.5 194,-877.5 194,-847.5 80,-847.5"/>
<text text-anchor="start" x="88" y="-865.5" font-family="Helvetica,sans-Serif" font-size="10.00">uxn::patl::patricia</text>
<text text-anchor="middle" x="137" y="-854.5" font-family="Helvetica,sans-Serif" font-size="10.00">_dot_creator::create</text>
</a>
</g>
</g>
<!-- Node1&#45;&gt;Node6 -->
<g id="edge5" class="edge">
<title>Node1&#45;&gt;Node6</title>
<path fill="none" stroke="midnightblue" d="M21.73,-604.25C22.93,-636.98 30.42,-744.9 77,-816.5 83.24,-826.09 92.16,-834.52 101.19,-841.46"/>
<polygon fill="midnightblue" stroke="midnightblue" points="99.28,-844.39 109.43,-847.4 103.37,-838.72 99.28,-844.39"/>
</g>
<!-- Node10 -->
<g id="node10" class="node">
<title>Node10</title>
<g id="a_node10"><a xlink:href="../../db/db7/classuxn_1_1patl_1_1impl_1_1suffix__generic.html#a19845a4d480875e2b697c49d19bfa1ce" target="_top" xlink:title="return true if suffix_cont is empty OR full">
<polygon fill="none" stroke="black" points="247.5,-465.5 247.5,-495.5 367.5,-495.5 367.5,-465.5 247.5,-465.5"/>
<text text-anchor="start" x="255.5" y="-483.5" font-family="Helvetica,sans-Serif" font-size="10.00">uxn::patl::impl::suffix</text>
<text text-anchor="middle" x="307.5" y="-472.5" font-family="Helvetica,sans-Serif" font-size="10.00">_generic::endpoint</text>
</a>
</g>
</g>
<!-- Node1&#45;&gt;Node10 -->
<g id="edge10" class="edge">
<title>Node1&#45;&gt;Node10</title>
<path fill="none" stroke="midnightblue" d="M22.58,-584.86C25.82,-561.22 37.78,-500.49 77,-475.5 128.57,-442.65 200.76,-450.97 250.33,-462.91"/>
<polygon fill="midnightblue" stroke="midnightblue" points="249.69,-466.36 260.24,-465.42 251.41,-459.57 249.69,-466.36"/>
</g>
<!-- Node12 -->
<g id="node12" class="node">
<title>Node12</title>
<g id="a_node12"><a xlink:href="../../db/db7/classuxn_1_1patl_1_1impl_1_1suffix__generic.html#ae4ec39b298848d45053d53fb222d5d21" target="_top" xlink:title=" ">
<polygon fill="none" stroke="black" points="77,-776.5 77,-806.5 197,-806.5 197,-776.5 77,-776.5"/>
<text text-anchor="start" x="85" y="-794.5" font-family="Helvetica,sans-Serif" font-size="10.00">uxn::patl::impl::suffix</text>
<text text-anchor="middle" x="137" y="-783.5" font-family="Helvetica,sans-Serif" font-size="10.00">_generic::index_of</text>
</a>
</g>
</g>
<!-- Node1&#45;&gt;Node12 -->
<g id="edge12" class="edge">
<title>Node1&#45;&gt;Node12</title>
<path fill="none" stroke="midnightblue" d="M23.85,-604.35C29.87,-628.21 47.47,-690.4 77,-734.5 85.67,-747.45 97.71,-759.75 108.66,-769.58"/>
<polygon fill="midnightblue" stroke="midnightblue" points="106.52,-772.36 116.37,-776.28 111.11,-767.08 106.52,-772.36"/>
</g>
<!-- Node14 -->
<g id="node14" class="node">
<title>Node14</title>
<g id="a_node14"><a xlink:href="../../db/dcd/classuxn_1_1patl_1_1impl_1_1trie__generic.html#a49134514a564c6c69cfbb52268ba45ae" target="_top" xlink:title=" ">
<polygon fill="none" stroke="black" points="82,-694.5 82,-724.5 192,-724.5 192,-694.5 82,-694.5"/>
<text text-anchor="start" x="90" y="-712.5" font-family="Helvetica,sans-Serif" font-size="10.00">uxn::patl::impl::trie</text>
<text text-anchor="middle" x="137" y="-701.5" font-family="Helvetica,sans-Serif" font-size="10.00">_generic::insert</text>
</a>
</g>
</g>
<!-- Node1&#45;&gt;Node14 -->
<g id="edge14" class="edge">
<title>Node1&#45;&gt;Node14</title>
<path fill="none" stroke="midnightblue" d="M27.46,-604.39C36.79,-619.37 55.96,-648.21 77,-668.5 84.54,-675.77 93.49,-682.69 102.1,-688.7"/>
<polygon fill="midnightblue" stroke="midnightblue" points="100.29,-691.7 110.54,-694.38 104.2,-685.89 100.29,-691.7"/>
</g>
<!-- Node17 -->
<g id="node17" class="node">
<title>Node17</title>
<g id="a_node17"><a xlink:href="../../db/db7/classuxn_1_1patl_1_1impl_1_1suffix__generic.html#a755ff4d1ad4df54f258c3e09d32f23f0" target="_top" xlink:title=" ">
<polygon fill="none" stroke="black" points="247.5,-514.5 247.5,-544.5 367.5,-544.5 367.5,-514.5 247.5,-514.5"/>
<text text-anchor="start" x="255.5" y="-532.5" font-family="Helvetica,sans-Serif" font-size="10.00">uxn::patl::impl::suffix</text>
<text text-anchor="middle" x="307.5" y="-521.5" font-family="Helvetica,sans-Serif" font-size="10.00">_generic::keys</text>
</a>
</g>
</g>
<!-- Node1&#45;&gt;Node17 -->
<g id="edge17" class="edge">
<title>Node1&#45;&gt;Node17</title>
<path fill="none" stroke="midnightblue" d="M40.61,-584.93C51.12,-580 64.54,-574.25 77,-570.5 129.61,-554.66 190.94,-544.09 236.97,-537.66"/>
<polygon fill="midnightblue" stroke="midnightblue" points="237.7,-541.09 247.14,-536.27 236.76,-534.15 237.7,-541.09"/>
</g>
<!-- Node18 -->
<g id="node18" class="node">
<title>Node18</title>
<g id="a_node18"><a xlink:href="../../db/db7/classuxn_1_1patl_1_1impl_1_1suffix__generic.html#a571add68de0b08a9c3e375d4c3dd8ea6" target="_top" xlink:title="erase front suffix">
<polygon fill="none" stroke="black" points="77,-628.5 77,-658.5 197,-658.5 197,-628.5 77,-628.5"/>
<text text-anchor="start" x="85" y="-646.5" font-family="Helvetica,sans-Serif" font-size="10.00">uxn::patl::impl::suffix</text>
<text text-anchor="middle" x="137" y="-635.5" font-family="Helvetica,sans-Serif" font-size="10.00">_generic::pop_front</text>
</a>
</g>
</g>
<!-- Node1&#45;&gt;Node18 -->
<g id="edge18" class="edge">
<title>Node1&#45;&gt;Node18</title>
<path fill="none" stroke="midnightblue" d="M41.2,-603.59C51.77,-608.41 65.05,-614.38 77,-619.5 80.89,-621.17 84.93,-622.87 89,-624.56"/>
<polygon fill="midnightblue" stroke="midnightblue" points="87.88,-627.89 98.46,-628.47 90.55,-621.42 87.88,-627.89"/>
</g>
<!-- Node21 -->
<g id="node21" class="node">
<title>Node21</title>
<g id="a_node21"><a xlink:href="../../d1/db2/insider_8cpp.html#a470d6a4cde9e5eeee1e5716b937ec443" target="_top" xlink:title=" ">
<polygon fill="none" stroke="black" points="98,-485 98,-504 176,-504 176,-485 98,-485"/>
<text text-anchor="middle" x="137" y="-492" font-family="Helvetica,sans-Serif" font-size="10.00">print_regexp</text>
</a>
</g>
</g>
<!-- Node1&#45;&gt;Node21 -->
<g id="edge22" class="edge">
<title>Node1&#45;&gt;Node21</title>
<path fill="none" stroke="midnightblue" d="M29.65,-584.93C40.05,-572.97 58.87,-552.18 77,-536.5 88.11,-526.9 101.36,-517.31 112.49,-509.73"/>
<polygon fill="midnightblue" stroke="midnightblue" points="114.51,-512.59 120.87,-504.12 110.62,-506.77 114.51,-512.59"/>
</g>
<!-- Node22 -->
<g id="node22" class="node">
<title>Node22</title>
<g id="a_node22"><a xlink:href="../../dd/dbb/classuxn_1_1patl_1_1suffix__set.html#ae50776c104b736774600b2977c86cc5a" target="_top" xlink:title=" ">
<polygon fill="none" stroke="black" points="80.5,-301.5 80.5,-331.5 193.5,-331.5 193.5,-301.5 80.5,-301.5"/>
<text text-anchor="start" x="88.5" y="-319.5" font-family="Helvetica,sans-Serif" font-size="10.00">uxn::patl::suffix_set</text>
<text text-anchor="middle" x="137" y="-308.5" font-family="Helvetica,sans-Serif" font-size="10.00">::push_back</text>
</a>
</g>
</g>
<!-- Node1&#45;&gt;Node22 -->
<g id="edge24" class="edge">
<title>Node1&#45;&gt;Node22</title>
<path fill="none" stroke="midnightblue" d="M24.72,-584.78C32.82,-560.52 55,-495.42 77,-442.5 91.9,-406.66 111.34,-366.18 123.75,-341"/>
<polygon fill="midnightblue" stroke="midnightblue" points="126.99,-342.34 128.29,-331.82 120.72,-339.23 126.99,-342.34"/>
</g>
<!-- Node27 -->
<g id="node27" class="node">
<title>Node27</title>
<g id="a_node27"><a xlink:href="../../db/db7/classuxn_1_1patl_1_1impl_1_1suffix__generic.html#aa40451084d31ec23114745757ca30371" target="_top" xlink:title=" ">
<polygon fill="none" stroke="black" points="237.5,-0.5 237.5,-74.5 377.5,-74.5 377.5,-0.5 237.5,-0.5"/>
<text text-anchor="start" x="245.5" y="-62.5" font-family="Helvetica,sans-Serif" font-size="10.00">uxn::patl::impl::suffix</text>
<text text-anchor="start" x="245.5" y="-51.5" font-family="Helvetica,sans-Serif" font-size="10.00">_generic&lt; impl::suffix</text>
<text text-anchor="start" x="245.5" y="-40.5" font-family="Helvetica,sans-Serif" font-size="10.00">_set_traits&lt; Type, 0, 1,</text>
<text text-anchor="start" x="245.5" y="-29.5" font-family="Helvetica,sans-Serif" font-size="10.00"> bit_comparator&lt; Type, 0</text>
<text text-anchor="start" x="245.5" y="-18.5" font-family="Helvetica,sans-Serif" font-size="10.00"> &gt;, std::allocator&lt; Type</text>
<text text-anchor="middle" x="307.5" y="-7.5" font-family="Helvetica,sans-Serif" font-size="10.00"> &gt; &gt; &gt;::size</text>
</a>
</g>
</g>
<!-- Node1&#45;&gt;Node27 -->
<g id="edge33" class="edge">
<title>Node1&#45;&gt;Node27</title>
<path fill="none" stroke="midnightblue" d="M21.68,-584.87C22.72,-546.26 29.74,-399.54 77,-291.5 123.31,-185.63 147.92,-161.69 233,-83.5 233.83,-82.74 234.68,-81.98 235.54,-81.22"/>
<polygon fill="midnightblue" stroke="midnightblue" points="238.07,-83.67 243.57,-74.61 233.62,-78.27 238.07,-83.67"/>
</g>
<!-- Node28 -->
<g id="node28" class="node">
<title>Node28</title>
<g id="a_node28"><a xlink:href="../../db/db7/classuxn_1_1patl_1_1impl_1_1suffix__generic.html#a4911ef44eacdb8fd9169fa7327941b3b" target="_top" xlink:title=" ">
<polygon fill="none" stroke="black" points="77,-579.5 77,-609.5 197,-609.5 197,-579.5 77,-579.5"/>
<text text-anchor="start" x="85" y="-597.5" font-family="Helvetica,sans-Serif" font-size="10.00">uxn::patl::impl::suffix</text>
<text text-anchor="middle" x="137" y="-586.5" font-family="Helvetica,sans-Serif" font-size="10.00">_generic::rebind</text>
</a>
</g>
</g>
<!-- Node1&#45;&gt;Node28 -->
<g id="edge31" class="edge">
<title>Node1&#45;&gt;Node28</title>
<path fill="none" stroke="midnightblue" d="M41.18,-594.5C48.51,-594.5 57.3,-594.5 66.54,-594.5"/>
<polygon fill="midnightblue" stroke="midnightblue" points="66.69,-598 76.69,-594.5 66.69,-591 66.69,-598"/>
</g>
<!-- Node3 -->
<g id="node3" class="node">
<title>Node3</title>
<g id="a_node3"><a xlink:href="../../d7/ddc/classuxn_1_1patl_1_1impl_1_1ring__buffer.html#a2eb00ee56651ba51dbba4ead8547ea6f" target="_top" xlink:title=" ">
<polygon fill="none" stroke="black" points="251.5,-1001.5 251.5,-1031.5 363.5,-1031.5 363.5,-1001.5 251.5,-1001.5"/>
<text text-anchor="start" x="259.5" y="-1019.5" font-family="Helvetica,sans-Serif" font-size="10.00">uxn::patl::impl::ring</text>
<text text-anchor="middle" x="307.5" y="-1008.5" font-family="Helvetica,sans-Serif" font-size="10.00">_buffer::clear</text>
</a>
</g>
</g>
<!-- Node2&#45;&gt;Node3 -->
<g id="edge2" class="edge">
<title>Node2&#45;&gt;Node3</title>
<path fill="none" stroke="midnightblue" d="M191.78,-984.5C208.04,-989.04 226.06,-994.06 242.9,-998.76"/>
<polygon fill="midnightblue" stroke="midnightblue" points="242.08,-1002.17 252.66,-1001.48 243.96,-995.42 242.08,-1002.17"/>
</g>
<!-- Node4 -->
<g id="node4" class="node">
<title>Node4</title>
<g id="a_node4"><a xlink:href="../../d7/ddc/classuxn_1_1patl_1_1impl_1_1ring__buffer.html#abde8c78c58d86d1f1b222608c1cb0323" target="_top" xlink:title=" ">
<polygon fill="none" stroke="black" points="418,-1001.5 418,-1031.5 530,-1031.5 530,-1001.5 418,-1001.5"/>
<text text-anchor="start" x="426" y="-1019.5" font-family="Helvetica,sans-Serif" font-size="10.00">uxn::patl::impl::ring</text>
<text text-anchor="middle" x="474" y="-1008.5" font-family="Helvetica,sans-Serif" font-size="10.00">_buffer::empty</text>
</a>
</g>
</g>
<!-- Node3&#45;&gt;Node4 -->
<g id="edge3" class="edge">
<title>Node3&#45;&gt;Node4</title>
<path fill="none" stroke="midnightblue" d="M363.73,-1016.5C377.78,-1016.5 393.01,-1016.5 407.51,-1016.5"/>
<polygon fill="midnightblue" stroke="midnightblue" points="407.91,-1020 417.91,-1016.5 407.91,-1013 407.91,-1020"/>
</g>
<!-- Node5 -->
<g id="node5" class="node">
<title>Node5</title>
<g id="a_node5"><a xlink:href="../../d7/ddc/classuxn_1_1patl_1_1impl_1_1ring__buffer.html#ad17b73a9b9df7e9be22cc93006afbcb5" target="_top" xlink:title=" ">
<polygon fill="none" stroke="black" points="418,-804.5 418,-834.5 530,-834.5 530,-804.5 418,-804.5"/>
<text text-anchor="start" x="426" y="-822.5" font-family="Helvetica,sans-Serif" font-size="10.00">uxn::patl::impl::ring</text>
<text text-anchor="middle" x="474" y="-811.5" font-family="Helvetica,sans-Serif" font-size="10.00">_buffer::pop_front</text>
</a>
</g>
</g>
<!-- Node3&#45;&gt;Node5 -->
<g id="edge4" class="edge">
<title>Node3&#45;&gt;Node5</title>
<path fill="none" stroke="midnightblue" d="M363.6,-1003.82C370.23,-1000.81 376.56,-997.09 382,-992.5 429.29,-952.58 455.38,-881.75 466.48,-844.3"/>
<polygon fill="midnightblue" stroke="midnightblue" points="469.85,-845.26 469.22,-834.68 463.12,-843.34 469.85,-845.26"/>
</g>
<!-- Node7 -->
<g id="node7" class="node">
<title>Node7</title>
<g id="a_node7"><a xlink:href="../../d3/de9/classuxn_1_1patl_1_1patricia__dot__creator.html#aa3f10e15f9934fbd9c96fdb091756cd9" target="_top" xlink:title=" ">
<polygon fill="none" stroke="black" points="239,-836.5 239,-866.5 376,-866.5 376,-836.5 239,-836.5"/>
<text text-anchor="start" x="247" y="-854.5" font-family="Helvetica,sans-Serif" font-size="10.00">uxn::patl::patricia</text>
<text text-anchor="middle" x="307.5" y="-843.5" font-family="Helvetica,sans-Serif" font-size="10.00">_dot_creator::out_cluster</text>
</a>
</g>
</g>
<!-- Node6&#45;&gt;Node7 -->
<g id="edge6" class="edge">
<title>Node6&#45;&gt;Node7</title>
<path fill="none" stroke="midnightblue" d="M194.11,-858.84C205.21,-858.11 217.06,-857.34 228.74,-856.58"/>
<polygon fill="midnightblue" stroke="midnightblue" points="229.18,-860.06 238.93,-855.91 228.72,-853.07 229.18,-860.06"/>
</g>
<!-- Node8 -->
<g id="node8" class="node">
<title>Node8</title>
<g id="a_node8"><a xlink:href="../../d3/de9/classuxn_1_1patl_1_1patricia__dot__creator.html#a530f1ed6d8b237536f13e9c61c4d6a99" target="_top" xlink:title=" ">
<polygon fill="none" stroke="black" points="243.5,-952.5 243.5,-982.5 371.5,-982.5 371.5,-952.5 243.5,-952.5"/>
<text text-anchor="start" x="251.5" y="-970.5" font-family="Helvetica,sans-Serif" font-size="10.00">uxn::patl::patricia</text>
<text text-anchor="middle" x="307.5" y="-959.5" font-family="Helvetica,sans-Serif" font-size="10.00">_dot_creator::out_edge</text>
</a>
</g>
</g>
<!-- Node6&#45;&gt;Node8 -->
<g id="edge8" class="edge">
<title>Node6&#45;&gt;Node8</title>
<path fill="none" stroke="midnightblue" d="M152.08,-877.68C169.51,-895.68 200.86,-925.49 233,-943.5 236.08,-945.23 239.3,-946.85 242.6,-948.38"/>
<polygon fill="midnightblue" stroke="midnightblue" points="241.51,-951.71 252.08,-952.42 244.25,-945.27 241.51,-951.71"/>
</g>
<!-- Node9 -->
<g id="node9" class="node">
<title>Node9</title>
<g id="a_node9"><a xlink:href="../../d3/de9/classuxn_1_1patl_1_1patricia__dot__creator.html#af434dfc7f6e99faea9c765f01855524a" target="_top" xlink:title=" ">
<polygon fill="none" stroke="black" points="243.5,-903.5 243.5,-933.5 371.5,-933.5 371.5,-903.5 243.5,-903.5"/>
<text text-anchor="start" x="251.5" y="-921.5" font-family="Helvetica,sans-Serif" font-size="10.00">uxn::patl::patricia</text>
<text text-anchor="middle" x="307.5" y="-910.5" font-family="Helvetica,sans-Serif" font-size="10.00">_dot_creator::out_node</text>
</a>
</g>
</g>
<!-- Node6&#45;&gt;Node9 -->
<g id="edge9" class="edge">
<title>Node6&#45;&gt;Node9</title>
<path fill="none" stroke="midnightblue" d="M182.44,-877.56C198.37,-882.94 216.48,-889.02 233,-894.5 238.63,-896.37 244.51,-898.31 250.38,-900.24"/>
<polygon fill="midnightblue" stroke="midnightblue" points="249.62,-903.67 260.21,-903.46 251.8,-897.02 249.62,-903.67"/>
</g>
<!-- Node7&#45;&gt;Node7 -->
<g id="edge7" class="edge">
<title>Node7&#45;&gt;Node7</title>
<path fill="none" stroke="midnightblue" d="M278.57,-866.66C271.6,-876.06 281.24,-885 307.5,-885 323.5,-885 333.34,-881.68 337,-876.96"/>
<polygon fill="midnightblue" stroke="midnightblue" points="340.47,-876.45 336.43,-866.66 333.48,-876.84 340.47,-876.45"/>
</g>
<!-- Node11 -->
<g id="node11" class="node">
<title>Node11</title>
<g id="a_node11"><a xlink:href="../../d7/ddc/classuxn_1_1patl_1_1impl_1_1ring__buffer.html#a3cca6b23bc6d2da06c113e892af24d2c" target="_top" xlink:title=" ">
<polygon fill="none" stroke="black" points="418,-465.5 418,-495.5 530,-495.5 530,-465.5 418,-465.5"/>
<text text-anchor="start" x="426" y="-483.5" font-family="Helvetica,sans-Serif" font-size="10.00">uxn::patl::impl::ring</text>
<text text-anchor="middle" x="474" y="-472.5" font-family="Helvetica,sans-Serif" font-size="10.00">_buffer::endpoint</text>
</a>
</g>
</g>
<!-- Node10&#45;&gt;Node11 -->
<g id="edge11" class="edge">
<title>Node10&#45;&gt;Node11</title>
<path fill="none" stroke="midnightblue" d="M367.89,-480.5C380.74,-480.5 394.4,-480.5 407.48,-480.5"/>
<polygon fill="midnightblue" stroke="midnightblue" points="407.81,-484 417.81,-480.5 407.81,-477 407.81,-484"/>
</g>
<!-- Node13 -->
<g id="node13" class="node">
<title>Node13</title>
<g id="a_node13"><a xlink:href="../../d7/ddc/classuxn_1_1patl_1_1impl_1_1ring__buffer.html#a0cb9f62a800a2b3f636ef598d5547df9" target="_top" xlink:title=" ">
<polygon fill="none" stroke="black" points="251.5,-787.5 251.5,-817.5 363.5,-817.5 363.5,-787.5 251.5,-787.5"/>
<text text-anchor="start" x="259.5" y="-805.5" font-family="Helvetica,sans-Serif" font-size="10.00">uxn::patl::impl::ring</text>
<text text-anchor="middle" x="307.5" y="-794.5" font-family="Helvetica,sans-Serif" font-size="10.00">_buffer::index_of</text>
</a>
</g>
</g>
<!-- Node12&#45;&gt;Node13 -->
<g id="edge13" class="edge">
<title>Node12&#45;&gt;Node13</title>
<path fill="none" stroke="midnightblue" d="M197.41,-795.38C211.51,-796.3 226.64,-797.29 241,-798.22"/>
<polygon fill="midnightblue" stroke="midnightblue" points="241.09,-801.74 251.29,-798.9 241.54,-794.75 241.09,-801.74"/>
</g>
<!-- Node15 -->
<g id="node15" class="node">
<title>Node15</title>
<g id="a_node15"><a xlink:href="../../dd/d0e/namespaceuxn_1_1patl_1_1impl.html#ab90f63027d43b408cc70d2f0db94c9fc" target="_top" xlink:title=" ">
<polygon fill="none" stroke="black" points="247,-700 247,-719 368,-719 368,-700 247,-700"/>
<text text-anchor="middle" x="307.5" y="-707" font-family="Helvetica,sans-Serif" font-size="10.00">uxn::patl::impl::max0</text>
</a>
</g>
</g>
<!-- Node14&#45;&gt;Node15 -->
<g id="edge15" class="edge">
<title>Node14&#45;&gt;Node15</title>
<path fill="none" stroke="midnightblue" d="M192.24,-709.5C206.39,-709.5 221.84,-709.5 236.67,-709.5"/>
<polygon fill="midnightblue" stroke="midnightblue" points="236.82,-713 246.82,-709.5 236.82,-706 236.82,-713"/>
</g>
<!-- Node16 -->
<g id="node16" class="node">
<title>Node16</title>
<g id="a_node16"><a xlink:href="../../d3/d81/classuxn_1_1patl_1_1impl_1_1const__vertex__generic.html#aea777dfc1baa0c2ccc8566c7e613a91d" target="_top" xlink:title=" ">
<polygon fill="none" stroke="black" points="247,-738.5 247,-768.5 368,-768.5 368,-738.5 247,-738.5"/>
<text text-anchor="start" x="255" y="-756.5" font-family="Helvetica,sans-Serif" font-size="10.00">uxn::patl::impl::const</text>
<text text-anchor="middle" x="307.5" y="-745.5" font-family="Helvetica,sans-Serif" font-size="10.00">_vertex_generic::skip</text>
</a>
</g>
</g>
<!-- Node14&#45;&gt;Node16 -->
<g id="edge16" class="edge">
<title>Node14&#45;&gt;Node16</title>
<path fill="none" stroke="midnightblue" d="M192.24,-723.66C207.08,-727.54 223.34,-731.79 238.83,-735.83"/>
<polygon fill="midnightblue" stroke="midnightblue" points="238.31,-739.31 248.87,-738.45 240.08,-732.54 238.31,-739.31"/>
</g>
<!-- Node18&#45;&gt;Node5 -->
<g id="edge21" class="edge">
<title>Node18&#45;&gt;Node5</title>
<path fill="none" stroke="midnightblue" d="M197.24,-649.78C259.38,-657.25 352.1,-671.19 382,-690.5 421.51,-716.01 448.94,-765.29 462.73,-795"/>
<polygon fill="midnightblue" stroke="midnightblue" points="459.6,-796.57 466.88,-804.27 465.99,-793.71 459.6,-796.57"/>
</g>
<!-- Node19 -->
<g id="node19" class="node">
<title>Node19</title>
<g id="a_node19"><a xlink:href="../../db/db7/classuxn_1_1patl_1_1impl_1_1suffix__generic.html#a571330e184188a382f424ee06908bb1b" target="_top" xlink:title=" ">
<polygon fill="none" stroke="black" points="247.5,-612.5 247.5,-642.5 367.5,-642.5 367.5,-612.5 247.5,-612.5"/>
<text text-anchor="start" x="255.5" y="-630.5" font-family="Helvetica,sans-Serif" font-size="10.00">uxn::patl::impl::suffix</text>
<text text-anchor="middle" x="307.5" y="-619.5" font-family="Helvetica,sans-Serif" font-size="10.00">_generic::erase_node</text>
</a>
</g>
</g>
<!-- Node18&#45;&gt;Node19 -->
<g id="edge19" class="edge">
<title>Node18&#45;&gt;Node19</title>
<path fill="none" stroke="midnightblue" d="M197.41,-637.86C210.32,-636.63 224.08,-635.33 237.34,-634.07"/>
<polygon fill="midnightblue" stroke="midnightblue" points="237.72,-637.55 247.35,-633.12 237.06,-630.58 237.72,-637.55"/>
</g>
<!-- Node20 -->
<g id="node20" class="node">
<title>Node20</title>
<g id="a_node20"><a xlink:href="../../d7/ddc/classuxn_1_1patl_1_1impl_1_1ring__buffer.html#ae46bef720f3ea4f608af0c0a0946ca9b" target="_top" xlink:title=" ">
<polygon fill="none" stroke="black" points="251.5,-563.5 251.5,-593.5 363.5,-593.5 363.5,-563.5 251.5,-563.5"/>
<text text-anchor="start" x="259.5" y="-581.5" font-family="Helvetica,sans-Serif" font-size="10.00">uxn::patl::impl::ring</text>
<text text-anchor="middle" x="307.5" y="-570.5" font-family="Helvetica,sans-Serif" font-size="10.00">_buffer::front</text>
</a>
</g>
</g>
<!-- Node18&#45;&gt;Node20 -->
<g id="edge20" class="edge">
<title>Node18&#45;&gt;Node20</title>
<path fill="none" stroke="midnightblue" d="M175.53,-628.44C182.67,-625.52 190.08,-622.44 197,-619.5 213.11,-612.64 216.7,-609.88 233,-603.5 238.55,-601.33 244.37,-599.16 250.21,-597.06"/>
<polygon fill="midnightblue" stroke="midnightblue" points="251.74,-600.23 260,-593.6 249.41,-593.63 251.74,-600.23"/>
</g>
<!-- Node21&#45;&gt;Node21 -->
<g id="edge23" class="edge">
<title>Node21&#45;&gt;Node21</title>
<path fill="none" stroke="midnightblue" d="M119.12,-504.26C110.42,-513.07 116.38,-522.5 137,-522.5 149.89,-522.5 157.05,-518.81 158.48,-513.9"/>
<polygon fill="midnightblue" stroke="midnightblue" points="161.66,-512.4 154.88,-504.26 155.1,-514.85 161.66,-512.4"/>
</g>
<!-- Node22&#45;&gt;Node10 -->
<g id="edge26" class="edge">
<title>Node22&#45;&gt;Node10</title>
<path fill="none" stroke="midnightblue" d="M144.46,-331.85C157.22,-360.34 188.31,-421.56 233,-455.5 235.44,-457.36 238.03,-459.08 240.73,-460.68"/>
<polygon fill="midnightblue" stroke="midnightblue" points="239.13,-463.8 249.61,-465.38 242.41,-457.61 239.13,-463.8"/>
</g>
<!-- Node23 -->
<g id="node23" class="node">
<title>Node23</title>
<g id="a_node23"><a xlink:href="../../db/db7/classuxn_1_1patl_1_1impl_1_1suffix__generic.html#a5f1a79ec8899f0e12680cb343470cc11" target="_top" xlink:title=" ">
<polygon fill="none" stroke="black" points="237.5,-279.5 237.5,-353.5 377.5,-353.5 377.5,-279.5 237.5,-279.5"/>
<text text-anchor="start" x="245.5" y="-341.5" font-family="Helvetica,sans-Serif" font-size="10.00">uxn::patl::impl::suffix</text>
<text text-anchor="start" x="245.5" y="-330.5" font-family="Helvetica,sans-Serif" font-size="10.00">_generic&lt; impl::suffix</text>
<text text-anchor="start" x="245.5" y="-319.5" font-family="Helvetica,sans-Serif" font-size="10.00">_set_traits&lt; Type, 0, 1,</text>
<text text-anchor="start" x="245.5" y="-308.5" font-family="Helvetica,sans-Serif" font-size="10.00"> bit_comparator&lt; Type, 0</text>
<text text-anchor="start" x="245.5" y="-297.5" font-family="Helvetica,sans-Serif" font-size="10.00"> &gt;, std::allocator&lt; Type</text>
<text text-anchor="middle" x="307.5" y="-286.5" font-family="Helvetica,sans-Serif" font-size="10.00"> &gt; &gt; &gt;::capacity</text>
</a>
</g>
</g>
<!-- Node22&#45;&gt;Node23 -->
<g id="edge25" class="edge">
<title>Node22&#45;&gt;Node23</title>
<path fill="none" stroke="midnightblue" d="M193.64,-316.5C204.36,-316.5 215.77,-316.5 227.07,-316.5"/>
<polygon fill="midnightblue" stroke="midnightblue" points="227.39,-320 237.39,-316.5 227.39,-313 227.39,-320"/>
</g>
<!-- Node24 -->
<g id="node24" class="node">
<title>Node24</title>
<g id="a_node24"><a xlink:href="../../db/db7/classuxn_1_1patl_1_1impl_1_1suffix__generic.html#a3758d1f5bf1e70bd5f67a7edb7d7971f" target="_top" xlink:title=" ">
<polygon fill="none" stroke="black" points="233,-186.5 233,-260.5 382,-260.5 382,-186.5 233,-186.5"/>
<text text-anchor="start" x="241" y="-248.5" font-family="Helvetica,sans-Serif" font-size="10.00">uxn::patl::impl::suffix</text>
<text text-anchor="start" x="241" y="-237.5" font-family="Helvetica,sans-Serif" font-size="10.00">_generic&lt; impl::suffix</text>
<text text-anchor="start" x="241" y="-226.5" font-family="Helvetica,sans-Serif" font-size="10.00">_set_traits&lt; Type, 0, 1,</text>
<text text-anchor="start" x="241" y="-215.5" font-family="Helvetica,sans-Serif" font-size="10.00"> bit_comparator&lt; Type, 0</text>
<text text-anchor="start" x="241" y="-204.5" font-family="Helvetica,sans-Serif" font-size="10.00"> &gt;, std::allocator&lt; Type</text>
<text text-anchor="middle" x="307.5" y="-193.5" font-family="Helvetica,sans-Serif" font-size="10.00"> &gt; &gt; &gt;::push_back_generic</text>
</a>
</g>
</g>
<!-- Node22&#45;&gt;Node24 -->
<g id="edge27" class="edge">
<title>Node22&#45;&gt;Node24</title>
<path fill="none" stroke="midnightblue" d="M165.45,-301.35C183.23,-291.54 207.32,-278.24 230.56,-265.41"/>
<polygon fill="midnightblue" stroke="midnightblue" points="232.35,-268.42 239.42,-260.53 228.97,-262.29 232.35,-268.42"/>
</g>
<!-- Node25 -->
<g id="node25" class="node">
<title>Node25</title>
<g id="a_node25"><a xlink:href="../../db/db7/classuxn_1_1patl_1_1impl_1_1suffix__generic.html#a52f5d589814ab7cf08b9840cb90f1377" target="_top" xlink:title=" ">
<polygon fill="none" stroke="black" points="237.5,-93.5 237.5,-167.5 377.5,-167.5 377.5,-93.5 237.5,-93.5"/>
<text text-anchor="start" x="245.5" y="-155.5" font-family="Helvetica,sans-Serif" font-size="10.00">uxn::patl::impl::suffix</text>
<text text-anchor="start" x="245.5" y="-144.5" font-family="Helvetica,sans-Serif" font-size="10.00">_generic&lt; impl::suffix</text>
<text text-anchor="start" x="245.5" y="-133.5" font-family="Helvetica,sans-Serif" font-size="10.00">_set_traits&lt; Type, 0, 1,</text>
<text text-anchor="start" x="245.5" y="-122.5" font-family="Helvetica,sans-Serif" font-size="10.00"> bit_comparator&lt; Type, 0</text>
<text text-anchor="start" x="245.5" y="-111.5" font-family="Helvetica,sans-Serif" font-size="10.00"> &gt;, std::allocator&lt; Type</text>
<text text-anchor="middle" x="307.5" y="-100.5" font-family="Helvetica,sans-Serif" font-size="10.00"> &gt; &gt; &gt;::push_back_root</text>
</a>
</g>
</g>
<!-- Node22&#45;&gt;Node25 -->
<g id="edge28" class="edge">
<title>Node22&#45;&gt;Node25</title>
<path fill="none" stroke="midnightblue" d="M145.67,-301.1C159.95,-273.59 192.81,-215.23 233,-176.5 233.79,-175.74 234.59,-174.99 235.4,-174.25"/>
<polygon fill="midnightblue" stroke="midnightblue" points="237.71,-176.88 243.03,-167.72 233.16,-171.56 237.71,-176.88"/>
</g>
<!-- Node26 -->
<g id="node26" class="node">
<title>Node26</title>
<g id="a_node26"><a xlink:href="../../db/db7/classuxn_1_1patl_1_1impl_1_1suffix__generic.html#a3a8ccdc542ec789f363fbfacb3d3e344" target="_top" xlink:title=" ">
<polygon fill="none" stroke="black" points="237.5,-372.5 237.5,-446.5 377.5,-446.5 377.5,-372.5 237.5,-372.5"/>
<text text-anchor="start" x="245.5" y="-434.5" font-family="Helvetica,sans-Serif" font-size="10.00">uxn::patl::impl::suffix</text>
<text text-anchor="start" x="245.5" y="-423.5" font-family="Helvetica,sans-Serif" font-size="10.00">_generic&lt; impl::suffix</text>
<text text-anchor="start" x="245.5" y="-412.5" font-family="Helvetica,sans-Serif" font-size="10.00">_set_traits&lt; Type, 0, 1,</text>
<text text-anchor="start" x="245.5" y="-401.5" font-family="Helvetica,sans-Serif" font-size="10.00"> bit_comparator&lt; Type, 0</text>
<text text-anchor="start" x="245.5" y="-390.5" font-family="Helvetica,sans-Serif" font-size="10.00"> &gt;, std::allocator&lt; Type</text>
<text text-anchor="middle" x="307.5" y="-379.5" font-family="Helvetica,sans-Serif" font-size="10.00"> &gt; &gt; &gt;::reserve</text>
</a>
</g>
</g>
<!-- Node22&#45;&gt;Node26 -->
<g id="edge29" class="edge">
<title>Node22&#45;&gt;Node26</title>
<path fill="none" stroke="midnightblue" d="M165.45,-331.65C183.23,-341.46 207.32,-354.76 230.56,-367.59"/>
<polygon fill="midnightblue" stroke="midnightblue" points="228.97,-370.71 239.42,-372.47 232.35,-364.58 228.97,-370.71"/>
</g>
<!-- Node22&#45;&gt;Node27 -->
<g id="edge30" class="edge">
<title>Node22&#45;&gt;Node27</title>
<path fill="none" stroke="midnightblue" d="M144.09,-301.38C164.77,-250.08 231.1,-85.76 233,-83.5 233.49,-82.92 233.99,-82.34 234.5,-81.77"/>
<polygon fill="midnightblue" stroke="midnightblue" points="237.03,-84.18 241.56,-74.61 232.05,-79.27 237.03,-84.18"/>
</g>
<!-- Node28&#45;&gt;Node17 -->
<g id="edge32" class="edge">
<title>Node28&#45;&gt;Node17</title>
<path fill="none" stroke="midnightblue" d="M172.06,-579.47C190.06,-571.7 212.59,-562.26 233,-554.5 238.79,-552.3 244.87,-550.09 250.94,-547.93"/>
<polygon fill="midnightblue" stroke="midnightblue" points="252.16,-551.21 260.45,-544.61 249.85,-544.6 252.16,-551.21"/>
</g>
</g>
</svg>
