<?xml version="1.0" encoding="UTF-8" standalone="no"?>
<!DOCTYPE svg PUBLIC "-//W3C//DTD SVG 1.1//EN"
 "http://www.w3.org/Graphics/SVG/1.1/DTD/svg11.dtd">
<!-- Generated by graphviz version 5.0.1 (20220820.1526)
 -->
<!-- Title: uxn::patl::bit_comparator&lt; T, 0 &gt; Pages: 1 -->
<!--zoomable 529 -->
<svg id="main" version="1.1" xmlns="http://www.w3.org/2000/svg" xmlns:xlink="http://www.w3.org/1999/xlink" xml:space="preserve" onload="init(evt)">
<style type="text/css"><![CDATA[
.edge:hover path { stroke: red; }
.edge:hover polygon { stroke: red; fill: red; }
]]></style>
<script type="text/javascript"><![CDATA[
var edges = document.getElementsByTagName('g');
if (edges && edges.length) {
  for (var i=0;i<edges.length;i++) {
    if (edges[i].id.substr(0,4)=='edge') {
      edges[i].setAttribute('class','edge');
    }
  }
}
]]></script>
        <defs>
                <circle id="rim" cx="0" cy="0" r="7"/>
                <circle id="rim2" cx="0" cy="0" r="3.5"/>
                <g id="zoomPlus">
                        <use xlink:href="#rim" fill="#404040">
                                <set attributeName="fill" to="#808080" begin="zoomplus.mouseover" end="zoomplus.mouseout"/>
                        </use>
                        <path d="M-4,0h8M0,-4v8" fill="none" stroke="white" stroke-width="1.5" pointer-events="none"/>
                </g>
                <g id="zoomMin">
                        <use xlink:href="#rim" fill="#404040">
                                <set attributeName="fill" to="#808080" begin="zoomminus.mouseover" end="zoomminus.mouseout"/>
                        </use>
                        <path d="M-4,0h8" fill="none" stroke="white" stroke-width="1.5" pointer-events="none"/>
                </g>
                <g id="dirArrow">
                        <path fill="none" stroke="white" stroke-width="1.5" d="M0,-3.0v7 M-2.5,-0.5L0,-3.0L2.5,-0.5"/>
                </g>
               <g id="resetDef">
                       <use xlink:href="#rim2" fill="#404040">
                               <set attributeName="fill" to="#808080" begin="reset.mouseover" end="reset.mouseout"/>
                       </use>
               </g>
        </defs>

<script type="text/javascript">
var viewWidth = 1294;
var viewHeight = 529;
var sectionId = 'dynsection-0';
</script>
<script xlink:href="../../svgpan.js"/>
<svg id="graph" class="graph">
<g id="viewport">
<title>uxn::patl::bit_comparator&lt; T, 0 &gt;</title>
<!-- Node1 -->
<g id="node1" class="node">
<title>Node1</title>
<g id="a_node1"><a xlink:title="restriction: NO key CAN BE a prefix of any other key">
<polygon fill="#bfbfbf" stroke="black" points="583.5,-375.5 583.5,-520.5 723.5,-520.5 723.5,-375.5 583.5,-375.5"/>
<text text-anchor="start" x="591.5" y="-508.5" font-family="Helvetica,sans-Serif" font-size="10.00">uxn::patl::bit_comparator</text>
<text text-anchor="middle" x="653.5" y="-497.5" font-family="Helvetica,sans-Serif" font-size="10.00">&lt; T, 0 &gt;</text>
<polyline fill="none" stroke="black" points="583.5,-490.5 723.5,-490.5"/>
<text text-anchor="start" x="591.5" y="-478.5" font-family="Helvetica,sans-Serif" font-size="10.00">+ static const word_t</text>
<text text-anchor="start" x="591.5" y="-467.5" font-family="Helvetica,sans-Serif" font-size="10.00"> bit_size</text>
<polyline fill="none" stroke="black" points="583.5,-460.5 723.5,-460.5"/>
<text text-anchor="start" x="591.5" y="-448.5" font-family="Helvetica,sans-Serif" font-size="10.00">+ word_t bit_length(T)</text>
<text text-anchor="start" x="591.5" y="-437.5" font-family="Helvetica,sans-Serif" font-size="10.00"> const</text>
<text text-anchor="start" x="591.5" y="-426.5" font-family="Helvetica,sans-Serif" font-size="10.00">+ word_t get_bit(T val,</text>
<text text-anchor="start" x="591.5" y="-415.5" font-family="Helvetica,sans-Serif" font-size="10.00"> word_t id) const</text>
<text text-anchor="start" x="591.5" y="-404.5" font-family="Helvetica,sans-Serif" font-size="10.00">+ word_t bit_mismatch</text>
<text text-anchor="start" x="591.5" y="-393.5" font-family="Helvetica,sans-Serif" font-size="10.00">(T a, T b, word_t=0)</text>
<text text-anchor="start" x="591.5" y="-382.5" font-family="Helvetica,sans-Serif" font-size="10.00"> const</text>
</a>
</g>
</g>
<!-- Node2 -->
<g id="node2" class="node">
<title>Node2</title>
<g id="a_node2"><a xlink:href="../../dd/d2e/classuxn_1_1patl_1_1bit__comparator_3_01T_01_5_00_010_01_4.html" target="_top" xlink:title="simple infinite (T*) string">
<polygon fill="none" stroke="black" points="0,-149.5 0,-316.5 143,-316.5 143,-149.5 0,-149.5"/>
<text text-anchor="start" x="8" y="-304.5" font-family="Helvetica,sans-Serif" font-size="10.00">uxn::patl::bit_comparator</text>
<text text-anchor="middle" x="71.5" y="-293.5" font-family="Helvetica,sans-Serif" font-size="10.00">&lt; T *, 0 &gt;</text>
<polyline fill="none" stroke="black" points="0,-286.5 143,-286.5"/>
<text text-anchor="start" x="8" y="-274.5" font-family="Helvetica,sans-Serif" font-size="10.00">+ static const word_t</text>
<text text-anchor="start" x="8" y="-263.5" font-family="Helvetica,sans-Serif" font-size="10.00"> bit_size</text>
<polyline fill="none" stroke="black" points="0,-256.5 143,-256.5"/>
<text text-anchor="start" x="8" y="-244.5" font-family="Helvetica,sans-Serif" font-size="10.00">+ word_t bit_length(const</text>
<text text-anchor="start" x="8" y="-233.5" font-family="Helvetica,sans-Serif" font-size="10.00"> T *) const</text>
<text text-anchor="start" x="8" y="-222.5" font-family="Helvetica,sans-Serif" font-size="10.00">+ word_t get_bit(const</text>
<text text-anchor="start" x="8" y="-211.5" font-family="Helvetica,sans-Serif" font-size="10.00"> T *s, word_t id) const</text>
<text text-anchor="start" x="8" y="-200.5" font-family="Helvetica,sans-Serif" font-size="10.00">+ word_t bit_mismatch</text>
<text text-anchor="start" x="8" y="-189.5" font-family="Helvetica,sans-Serif" font-size="10.00">(const T *a, const T</text>
<text text-anchor="start" x="8" y="-178.5" font-family="Helvetica,sans-Serif" font-size="10.00"> *b, word_t skip=0) const</text>
<text text-anchor="start" x="8" y="-167.5" font-family="Helvetica,sans-Serif" font-size="10.00">+ word_t get_bits(const</text>
<text text-anchor="start" x="8" y="-156.5" font-family="Helvetica,sans-Serif" font-size="10.00"> T *s, word_t off) const</text>
</a>
</g>
</g>
<!-- Node1&#45;&gt;Node2 -->
<g id="edge1" class="edge">
<title>Node1&#45;&gt;Node2</title>
<path fill="none" stroke="midnightblue" d="M573.31,-446.32C468.76,-441.93 283.76,-421.84 152.5,-339 142.77,-332.86 133.74,-325.11 125.53,-316.61"/>
<polygon fill="none" stroke="midnightblue" points="573.36,-449.83 583.49,-446.71 573.63,-442.83 573.36,-449.83"/>
</g>
<!-- Node4 -->
<g id="node4" class="node">
<title>Node4</title>
<g id="a_node4"><a xlink:href="../../d2/d6e/classuxn_1_1patl_1_1bit__comparator_3_01T_00_018_01_4.html" target="_top" xlink:title=" ">
<polygon fill="none" stroke="black" points="161.5,-193.5 161.5,-272.5 301.5,-272.5 301.5,-193.5 161.5,-193.5"/>
<text text-anchor="start" x="169.5" y="-260.5" font-family="Helvetica,sans-Serif" font-size="10.00">uxn::patl::bit_comparator</text>
<text text-anchor="middle" x="231.5" y="-249.5" font-family="Helvetica,sans-Serif" font-size="10.00">&lt; T, 8 &gt;</text>
<polyline fill="none" stroke="black" points="161.5,-242.5 301.5,-242.5"/>
<text text-anchor="middle" x="231.5" y="-230.5" font-family="Helvetica,sans-Serif" font-size="10.00"> </text>
<polyline fill="none" stroke="black" points="161.5,-223.5 301.5,-223.5"/>
<text text-anchor="start" x="169.5" y="-211.5" font-family="Helvetica,sans-Serif" font-size="10.00">+ word_t get_bits(T val,</text>
<text text-anchor="start" x="169.5" y="-200.5" font-family="Helvetica,sans-Serif" font-size="10.00"> word_t off) const</text>
</a>
</g>
</g>
<!-- Node1&#45;&gt;Node4 -->
<g id="edge3" class="edge">
<title>Node1&#45;&gt;Node4</title>
<path fill="none" stroke="midnightblue" d="M573.29,-435.87C499.79,-422.55 390.67,-394.67 311.5,-339 287.03,-321.8 266.72,-294.85 252.69,-272.56"/>
<polygon fill="none" stroke="midnightblue" points="572.97,-439.36 583.42,-437.65 574.18,-432.47 572.97,-439.36"/>
</g>
<!-- Node5 -->
<g id="node5" class="node">
<title>Node5</title>
<g id="a_node5"><a xlink:href="../../d1/d1c/classuxn_1_1patl_1_1bit__comparator_3_01std_1_1basic__string_3_01T_01_4_00_010_01_4.html" target="_top" xlink:title="standard finite std::basic_string">
<polygon fill="none" stroke="black" points="320,-127.5 320,-338.5 479,-338.5 479,-127.5 320,-127.5"/>
<text text-anchor="start" x="328" y="-326.5" font-family="Helvetica,sans-Serif" font-size="10.00">uxn::patl::bit_comparator</text>
<text text-anchor="middle" x="399.5" y="-315.5" font-family="Helvetica,sans-Serif" font-size="10.00">&lt; std::basic_string&lt; T &gt;, 0 &gt;</text>
<polyline fill="none" stroke="black" points="320,-308.5 479,-308.5"/>
<text text-anchor="start" x="328" y="-296.5" font-family="Helvetica,sans-Serif" font-size="10.00">+ static const word_t</text>
<text text-anchor="start" x="328" y="-285.5" font-family="Helvetica,sans-Serif" font-size="10.00"> bit_size</text>
<polyline fill="none" stroke="black" points="320,-278.5 479,-278.5"/>
<text text-anchor="start" x="328" y="-266.5" font-family="Helvetica,sans-Serif" font-size="10.00">+ word_t bit_length(const</text>
<text text-anchor="start" x="328" y="-255.5" font-family="Helvetica,sans-Serif" font-size="10.00"> value_type &amp;s) const</text>
<text text-anchor="start" x="328" y="-244.5" font-family="Helvetica,sans-Serif" font-size="10.00">+ word_t get_bit(const</text>
<text text-anchor="start" x="328" y="-233.5" font-family="Helvetica,sans-Serif" font-size="10.00"> value_type &amp;s, word</text>
<text text-anchor="start" x="328" y="-222.5" font-family="Helvetica,sans-Serif" font-size="10.00">_t id) const</text>
<text text-anchor="start" x="328" y="-211.5" font-family="Helvetica,sans-Serif" font-size="10.00">+ word_t bit_mismatch</text>
<text text-anchor="start" x="328" y="-200.5" font-family="Helvetica,sans-Serif" font-size="10.00">(const value_type &amp;a,</text>
<text text-anchor="start" x="328" y="-189.5" font-family="Helvetica,sans-Serif" font-size="10.00"> const value_type &amp;b,</text>
<text text-anchor="start" x="328" y="-178.5" font-family="Helvetica,sans-Serif" font-size="10.00"> word_t skip=0) const</text>
<text text-anchor="start" x="328" y="-167.5" font-family="Helvetica,sans-Serif" font-size="10.00">&#45; word_t mismatch_intern</text>
<text text-anchor="start" x="328" y="-156.5" font-family="Helvetica,sans-Serif" font-size="10.00">(const value_type &amp;a,</text>
<text text-anchor="start" x="328" y="-145.5" font-family="Helvetica,sans-Serif" font-size="10.00"> const value_type &amp;b, word</text>
<text text-anchor="start" x="328" y="-134.5" font-family="Helvetica,sans-Serif" font-size="10.00">_t skip) const</text>
</a>
</g>
</g>
<!-- Node1&#45;&gt;Node5 -->
<g id="edge4" class="edge">
<title>Node1&#45;&gt;Node5</title>
<path fill="none" stroke="midnightblue" d="M574.58,-401.85C546.15,-383.94 514.66,-362.11 488.5,-339 485.37,-336.23 482.24,-333.35 479.15,-330.39"/>
<polygon fill="none" stroke="midnightblue" points="572.96,-404.96 583.3,-407.28 576.66,-399.02 572.96,-404.96"/>
</g>
<!-- Node7 -->
<g id="node7" class="node">
<title>Node7</title>
<g id="a_node7"><a xlink:href="../../d4/da5/classuxn_1_1patl_1_1bit__comparator_3_01std_1_1vector_3_01T_01_4_00_010_01_4.html" target="_top" xlink:title="standard finite std::vector">
<polygon fill="none" stroke="black" points="497,-127.5 497,-338.5 646,-338.5 646,-127.5 497,-127.5"/>
<text text-anchor="start" x="505" y="-326.5" font-family="Helvetica,sans-Serif" font-size="10.00">uxn::patl::bit_comparator</text>
<text text-anchor="middle" x="571.5" y="-315.5" font-family="Helvetica,sans-Serif" font-size="10.00">&lt; std::vector&lt; T &gt;, 0 &gt;</text>
<polyline fill="none" stroke="black" points="497,-308.5 646,-308.5"/>
<text text-anchor="start" x="505" y="-296.5" font-family="Helvetica,sans-Serif" font-size="10.00">+ static const word_t</text>
<text text-anchor="start" x="505" y="-285.5" font-family="Helvetica,sans-Serif" font-size="10.00"> bit_size</text>
<polyline fill="none" stroke="black" points="497,-278.5 646,-278.5"/>
<text text-anchor="start" x="505" y="-266.5" font-family="Helvetica,sans-Serif" font-size="10.00">+ word_t bit_length(const</text>
<text text-anchor="start" x="505" y="-255.5" font-family="Helvetica,sans-Serif" font-size="10.00"> value_type &amp;v) const</text>
<text text-anchor="start" x="505" y="-244.5" font-family="Helvetica,sans-Serif" font-size="10.00">+ word_t get_bit(const</text>
<text text-anchor="start" x="505" y="-233.5" font-family="Helvetica,sans-Serif" font-size="10.00"> value_type &amp;v, word</text>
<text text-anchor="start" x="505" y="-222.5" font-family="Helvetica,sans-Serif" font-size="10.00">_t id) const</text>
<text text-anchor="start" x="505" y="-211.5" font-family="Helvetica,sans-Serif" font-size="10.00">+ word_t bit_mismatch</text>
<text text-anchor="start" x="505" y="-200.5" font-family="Helvetica,sans-Serif" font-size="10.00">(const value_type &amp;a,</text>
<text text-anchor="start" x="505" y="-189.5" font-family="Helvetica,sans-Serif" font-size="10.00"> const value_type &amp;b,</text>
<text text-anchor="start" x="505" y="-178.5" font-family="Helvetica,sans-Serif" font-size="10.00"> word_t skip=0) const</text>
<text text-anchor="start" x="505" y="-167.5" font-family="Helvetica,sans-Serif" font-size="10.00">&#45; word_t mismatch_intern</text>
<text text-anchor="start" x="505" y="-156.5" font-family="Helvetica,sans-Serif" font-size="10.00">(const value_type &amp;a,</text>
<text text-anchor="start" x="505" y="-145.5" font-family="Helvetica,sans-Serif" font-size="10.00"> const value_type &amp;b, word</text>
<text text-anchor="start" x="505" y="-134.5" font-family="Helvetica,sans-Serif" font-size="10.00">_t skip) const</text>
</a>
</g>
</g>
<!-- Node1&#45;&gt;Node7 -->
<g id="edge6" class="edge">
<title>Node1&#45;&gt;Node7</title>
<path fill="none" stroke="midnightblue" d="M622.29,-365.92C618.85,-357 615.32,-347.83 611.8,-338.68"/>
<polygon fill="none" stroke="midnightblue" points="619.11,-367.41 625.97,-375.48 625.64,-364.89 619.11,-367.41"/>
</g>
<!-- Node9 -->
<g id="node9" class="node">
<title>Node9</title>
<g id="a_node9"><a xlink:href="../../db/d1b/classuxn_1_1patl_1_1bit__comparator__0_3_01T_00_010_01_4.html" target="_top" xlink:title=" ">
<polygon fill="none" stroke="black" points="664,-160.5 664,-305.5 807,-305.5 807,-160.5 664,-160.5"/>
<text text-anchor="start" x="672" y="-293.5" font-family="Helvetica,sans-Serif" font-size="10.00">uxn::patl::bit_comparator</text>
<text text-anchor="middle" x="735.5" y="-282.5" font-family="Helvetica,sans-Serif" font-size="10.00">_0&lt; T, 0 &gt;</text>
<polyline fill="none" stroke="black" points="664,-275.5 807,-275.5"/>
<text text-anchor="start" x="672" y="-263.5" font-family="Helvetica,sans-Serif" font-size="10.00">+ static const word_t</text>
<text text-anchor="start" x="672" y="-252.5" font-family="Helvetica,sans-Serif" font-size="10.00"> bit_size</text>
<polyline fill="none" stroke="black" points="664,-245.5 807,-245.5"/>
<text text-anchor="start" x="672" y="-233.5" font-family="Helvetica,sans-Serif" font-size="10.00">+ word_t bit_length(const</text>
<text text-anchor="start" x="672" y="-222.5" font-family="Helvetica,sans-Serif" font-size="10.00"> T *) const</text>
<text text-anchor="start" x="672" y="-211.5" font-family="Helvetica,sans-Serif" font-size="10.00">+ word_t get_bit(const</text>
<text text-anchor="start" x="672" y="-200.5" font-family="Helvetica,sans-Serif" font-size="10.00"> T *s, word_t id) const</text>
<text text-anchor="start" x="672" y="-189.5" font-family="Helvetica,sans-Serif" font-size="10.00">+ word_t bit_mismatch</text>
<text text-anchor="start" x="672" y="-178.5" font-family="Helvetica,sans-Serif" font-size="10.00">(const T *a, const T</text>
<text text-anchor="start" x="672" y="-167.5" font-family="Helvetica,sans-Serif" font-size="10.00"> *b, word_t skip=0) const</text>
</a>
</g>
</g>
<!-- Node1&#45;&gt;Node9 -->
<g id="edge8" class="edge">
<title>Node1&#45;&gt;Node9</title>
<path fill="none" stroke="midnightblue" d="M684.63,-366.14C692.28,-346.26 700.43,-325.11 707.9,-305.69"/>
<polygon fill="none" stroke="midnightblue" points="681.36,-364.89 681.03,-375.48 687.89,-367.41 681.36,-364.89"/>
</g>
<!-- Node10 -->
<g id="node10" class="node">
<title>Node10</title>
<g id="a_node10"><a xlink:href="../../d0/d83/classuxn_1_1patl_1_1bounded__bit__comparator_3_01T_00_01Q_00_010_00_01Delta_01_4.html" target="_top" xlink:title=" ">
<polygon fill="none" stroke="black" points="825,-155 825,-311 968,-311 968,-155 825,-155"/>
<text text-anchor="start" x="833" y="-299" font-family="Helvetica,sans-Serif" font-size="10.00">uxn::patl::bounded</text>
<text text-anchor="start" x="833" y="-288" font-family="Helvetica,sans-Serif" font-size="10.00">_bit_comparator&lt; T,</text>
<text text-anchor="middle" x="896.5" y="-277" font-family="Helvetica,sans-Serif" font-size="10.00"> Q, 0, Delta &gt;</text>
<polyline fill="none" stroke="black" points="825,-270 968,-270"/>
<text text-anchor="start" x="833" y="-258" font-family="Helvetica,sans-Serif" font-size="10.00">+ static const word_t</text>
<text text-anchor="start" x="833" y="-247" font-family="Helvetica,sans-Serif" font-size="10.00"> bit_size</text>
<polyline fill="none" stroke="black" points="825,-240 968,-240"/>
<text text-anchor="start" x="833" y="-228" font-family="Helvetica,sans-Serif" font-size="10.00">+ word_t bit_length(const</text>
<text text-anchor="start" x="833" y="-217" font-family="Helvetica,sans-Serif" font-size="10.00"> T *) const</text>
<text text-anchor="start" x="833" y="-206" font-family="Helvetica,sans-Serif" font-size="10.00">+ word_t get_bit(const</text>
<text text-anchor="start" x="833" y="-195" font-family="Helvetica,sans-Serif" font-size="10.00"> T *s, word_t id) const</text>
<text text-anchor="start" x="833" y="-184" font-family="Helvetica,sans-Serif" font-size="10.00">+ word_t bit_mismatch</text>
<text text-anchor="start" x="833" y="-173" font-family="Helvetica,sans-Serif" font-size="10.00">(const T *a, const T</text>
<text text-anchor="start" x="833" y="-162" font-family="Helvetica,sans-Serif" font-size="10.00"> *b, word_t skip=0) const</text>
</a>
</g>
</g>
<!-- Node1&#45;&gt;Node10 -->
<g id="edge9" class="edge">
<title>Node1&#45;&gt;Node10</title>
<path fill="none" stroke="midnightblue" d="M732.46,-402.2C760.52,-384.4 791.35,-362.55 816.5,-339 825.53,-330.54 834.32,-320.98 842.55,-311.16"/>
<polygon fill="none" stroke="midnightblue" points="730.47,-399.32 723.86,-407.59 734.19,-405.25 730.47,-399.32"/>
</g>
<!-- Node11 -->
<g id="node11" class="node">
<title>Node11</title>
<g id="a_node11"><a xlink:href="../../d3/d0d/classuxn_1_1patl_1_1ptr__bit__comparator.html" target="_top" xlink:title="keys dereferenced from pointers">
<polygon fill="none" stroke="black" points="986,-155 986,-311 1129,-311 1129,-155 986,-155"/>
<text text-anchor="start" x="994" y="-299" font-family="Helvetica,sans-Serif" font-size="10.00">uxn::patl::ptr_bit</text>
<text text-anchor="middle" x="1057.5" y="-288" font-family="Helvetica,sans-Serif" font-size="10.00">_comparator&lt; T, N &gt;</text>
<polyline fill="none" stroke="black" points="986,-281 1129,-281"/>
<text text-anchor="middle" x="1057.5" y="-269" font-family="Helvetica,sans-Serif" font-size="10.00"> </text>
<polyline fill="none" stroke="black" points="986,-262 1129,-262"/>
<text text-anchor="start" x="994" y="-250" font-family="Helvetica,sans-Serif" font-size="10.00">+ word_t bit_length(const</text>
<text text-anchor="start" x="994" y="-239" font-family="Helvetica,sans-Serif" font-size="10.00"> T *p) const</text>
<text text-anchor="start" x="994" y="-228" font-family="Helvetica,sans-Serif" font-size="10.00">+ word_t get_bit(const</text>
<text text-anchor="start" x="994" y="-217" font-family="Helvetica,sans-Serif" font-size="10.00"> T *s, word_t id) const</text>
<text text-anchor="start" x="994" y="-206" font-family="Helvetica,sans-Serif" font-size="10.00">+ word_t bit_mismatch</text>
<text text-anchor="start" x="994" y="-195" font-family="Helvetica,sans-Serif" font-size="10.00">(const T *a, const T</text>
<text text-anchor="start" x="994" y="-184" font-family="Helvetica,sans-Serif" font-size="10.00"> *b, word_t skip=0) const</text>
<text text-anchor="start" x="994" y="-173" font-family="Helvetica,sans-Serif" font-size="10.00">+ word_t get_bits(const</text>
<text text-anchor="start" x="994" y="-162" font-family="Helvetica,sans-Serif" font-size="10.00"> T *s, word_t off) const</text>
</a>
</g>
</g>
<!-- Node1&#45;&gt;Node11 -->
<g id="edge10" class="edge">
<title>Node1&#45;&gt;Node11</title>
<path fill="none" stroke="midnightblue" d="M733.81,-434.04C803.37,-419.76 904.06,-391.51 977.5,-339 988.41,-331.2 998.5,-321.49 1007.6,-311.13"/>
<polygon fill="none" stroke="midnightblue" points="732.91,-430.65 723.79,-436.04 734.28,-437.51 732.91,-430.65"/>
</g>
<!-- Node12 -->
<g id="node12" class="node">
<title>Node12</title>
<g id="a_node12"><a xlink:href="../../dc/dfe/classuxn_1_1patl_1_1reverse__bit__comparator.html" target="_top" xlink:title="bit&#45;comparator for reversed lexicographical ordering">
<polygon fill="none" stroke="black" points="1147.5,-182.5 1147.5,-283.5 1285.5,-283.5 1285.5,-182.5 1147.5,-182.5"/>
<text text-anchor="start" x="1155.5" y="-271.5" font-family="Helvetica,sans-Serif" font-size="10.00">uxn::patl::reverse</text>
<text text-anchor="middle" x="1216.5" y="-260.5" font-family="Helvetica,sans-Serif" font-size="10.00">_bit_comparator&lt; T, N &gt;</text>
<polyline fill="none" stroke="black" points="1147.5,-253.5 1285.5,-253.5"/>
<text text-anchor="middle" x="1216.5" y="-241.5" font-family="Helvetica,sans-Serif" font-size="10.00"> </text>
<polyline fill="none" stroke="black" points="1147.5,-234.5 1285.5,-234.5"/>
<text text-anchor="start" x="1155.5" y="-222.5" font-family="Helvetica,sans-Serif" font-size="10.00">+ word_t get_bit(const</text>
<text text-anchor="start" x="1155.5" y="-211.5" font-family="Helvetica,sans-Serif" font-size="10.00"> T &amp;val, word_t id) const</text>
<text text-anchor="start" x="1155.5" y="-200.5" font-family="Helvetica,sans-Serif" font-size="10.00">+ word_t get_bits(const</text>
<text text-anchor="start" x="1155.5" y="-189.5" font-family="Helvetica,sans-Serif" font-size="10.00"> T &amp;s, word_t off) const</text>
</a>
</g>
</g>
<!-- Node1&#45;&gt;Node12 -->
<g id="edge11" class="edge">
<title>Node1&#45;&gt;Node12</title>
<path fill="none" stroke="midnightblue" d="M733.81,-445.92C835.71,-441 1013.26,-420.25 1138.5,-339 1159.65,-325.28 1177.12,-303.72 1190.13,-283.69"/>
<polygon fill="none" stroke="midnightblue" points="733.42,-442.44 723.58,-446.37 733.72,-449.43 733.42,-442.44"/>
</g>
<!-- Node3 -->
<g id="node3" class="node">
<title>Node3</title>
<g id="a_node3"><a xlink:href="../../d0/d7a/classuxn_1_1patl_1_1bit__comparator_3_01T_01_5_00_018_01_4.html" target="_top" xlink:title=" ">
<polygon fill="none" stroke="black" points="1.5,-6 1.5,-85 141.5,-85 141.5,-6 1.5,-6"/>
<text text-anchor="start" x="9.5" y="-73" font-family="Helvetica,sans-Serif" font-size="10.00">uxn::patl::bit_comparator</text>
<text text-anchor="middle" x="71.5" y="-62" font-family="Helvetica,sans-Serif" font-size="10.00">&lt; T *, 8 &gt;</text>
<polyline fill="none" stroke="black" points="1.5,-55 141.5,-55"/>
<text text-anchor="middle" x="71.5" y="-43" font-family="Helvetica,sans-Serif" font-size="10.00"> </text>
<polyline fill="none" stroke="black" points="1.5,-36 141.5,-36"/>
<text text-anchor="start" x="9.5" y="-24" font-family="Helvetica,sans-Serif" font-size="10.00">+ word_t get_bits(const</text>
<text text-anchor="start" x="9.5" y="-13" font-family="Helvetica,sans-Serif" font-size="10.00"> T *s, word_t off) const</text>
</a>
</g>
</g>
<!-- Node2&#45;&gt;Node3 -->
<g id="edge2" class="edge">
<title>Node2&#45;&gt;Node3</title>
<path fill="none" stroke="midnightblue" d="M71.5,-139.09C71.5,-120.16 71.5,-101.23 71.5,-85.47"/>
<polygon fill="none" stroke="midnightblue" points="68,-139.29 71.5,-149.29 75,-139.29 68,-139.29"/>
</g>
<!-- Node6 -->
<g id="node6" class="node">
<title>Node6</title>
<g id="a_node6"><a xlink:href="../../d8/d92/classuxn_1_1patl_1_1bit__comparator_3_01std_1_1basic__string_3_01T_01_4_00_018_01_4.html" target="_top" xlink:title=" ">
<polygon fill="none" stroke="black" points="320,-0.5 320,-90.5 479,-90.5 479,-0.5 320,-0.5"/>
<text text-anchor="start" x="328" y="-78.5" font-family="Helvetica,sans-Serif" font-size="10.00">uxn::patl::bit_comparator</text>
<text text-anchor="middle" x="399.5" y="-67.5" font-family="Helvetica,sans-Serif" font-size="10.00">&lt; std::basic_string&lt; T &gt;, 8 &gt;</text>
<polyline fill="none" stroke="black" points="320,-60.5 479,-60.5"/>
<text text-anchor="middle" x="399.5" y="-48.5" font-family="Helvetica,sans-Serif" font-size="10.00"> </text>
<polyline fill="none" stroke="black" points="320,-41.5 479,-41.5"/>
<text text-anchor="start" x="328" y="-29.5" font-family="Helvetica,sans-Serif" font-size="10.00">+ word_t get_bits(const</text>
<text text-anchor="start" x="328" y="-18.5" font-family="Helvetica,sans-Serif" font-size="10.00"> value_type &amp;s, word</text>
<text text-anchor="start" x="328" y="-7.5" font-family="Helvetica,sans-Serif" font-size="10.00">_t off) const</text>
</a>
</g>
</g>
<!-- Node5&#45;&gt;Node6 -->
<g id="edge5" class="edge">
<title>Node5&#45;&gt;Node6</title>
<path fill="none" stroke="midnightblue" d="M399.5,-117.19C399.5,-107.95 399.5,-99.02 399.5,-90.79"/>
<polygon fill="none" stroke="midnightblue" points="396,-117.32 399.5,-127.32 403,-117.32 396,-117.32"/>
</g>
<!-- Node8 -->
<g id="node8" class="node">
<title>Node8</title>
<g id="a_node8"><a xlink:href="../../de/d0d/classuxn_1_1patl_1_1bit__comparator_3_01std_1_1vector_3_01T_01_4_00_018_01_4.html" target="_top" xlink:title=" ">
<polygon fill="none" stroke="black" points="501.5,-0.5 501.5,-90.5 641.5,-90.5 641.5,-0.5 501.5,-0.5"/>
<text text-anchor="start" x="509.5" y="-78.5" font-family="Helvetica,sans-Serif" font-size="10.00">uxn::patl::bit_comparator</text>
<text text-anchor="middle" x="571.5" y="-67.5" font-family="Helvetica,sans-Serif" font-size="10.00">&lt; std::vector&lt; T &gt;, 8 &gt;</text>
<polyline fill="none" stroke="black" points="501.5,-60.5 641.5,-60.5"/>
<text text-anchor="middle" x="571.5" y="-48.5" font-family="Helvetica,sans-Serif" font-size="10.00"> </text>
<polyline fill="none" stroke="black" points="501.5,-41.5 641.5,-41.5"/>
<text text-anchor="start" x="509.5" y="-29.5" font-family="Helvetica,sans-Serif" font-size="10.00">+ word_t get_bits(const</text>
<text text-anchor="start" x="509.5" y="-18.5" font-family="Helvetica,sans-Serif" font-size="10.00"> std::vector&lt; T &gt; &amp;s,</text>
<text text-anchor="start" x="509.5" y="-7.5" font-family="Helvetica,sans-Serif" font-size="10.00"> word_t off) const</text>
</a>
</g>
</g>
<!-- Node7&#45;&gt;Node8 -->
<g id="edge7" class="edge">
<title>Node7&#45;&gt;Node8</title>
<path fill="none" stroke="midnightblue" d="M571.5,-117.19C571.5,-107.95 571.5,-99.02 571.5,-90.79"/>
<polygon fill="none" stroke="midnightblue" points="568,-117.32 571.5,-127.32 575,-117.32 568,-117.32"/>
</g>
</g>
</svg>
        <g id="navigator" transform="translate(0 0)" fill="#404254">
                <rect fill="#f2f5e9" fill-opacity="0.5" stroke="#606060" stroke-width=".5" x="0" y="0" width="60" height="60"/>
                <use id="zoomplus" xlink:href="#zoomPlus" x="17" y="9" onmousedown="handleZoom(evt,'in')"/>
                <use id="zoomminus" xlink:href="#zoomMin" x="42" y="9" onmousedown="handleZoom(evt,'out')"/>
                <use id="reset" xlink:href="#resetDef" x="30" y="36" onmousedown="handleReset()"/>
                <g id="arrowUp" xlink:href="#dirArrow" transform="translate(30 24)" onmousedown="handlePan(0,-1)">
                  <use xlink:href="#rim" fill="#404040">
                        <set attributeName="fill" to="#808080" begin="arrowUp.mouseover" end="arrowUp.mouseout"/>
                  </use>
                  <path fill="none" stroke="white" stroke-width="1.5" d="M0,-3.0v7 M-2.5,-0.5L0,-3.0L2.5,-0.5"/>
                </g>
                <g id="arrowRight" xlink:href="#dirArrow" transform="rotate(90) translate(36 -43)" onmousedown="handlePan(1,0)">
                  <use xlink:href="#rim" fill="#404040">
                        <set attributeName="fill" to="#808080" begin="arrowRight.mouseover" end="arrowRight.mouseout"/>
                  </use>
                  <path fill="none" stroke="white" stroke-width="1.5" d="M0,-3.0v7 M-2.5,-0.5L0,-3.0L2.5,-0.5"/>
                </g>
                <g id="arrowDown" xlink:href="#dirArrow" transform="rotate(180) translate(-30 -48)" onmousedown="handlePan(0,1)">
                  <use xlink:href="#rim" fill="#404040">
                        <set attributeName="fill" to="#808080" begin="arrowDown.mouseover" end="arrowDown.mouseout"/>
                  </use>
                  <path fill="none" stroke="white" stroke-width="1.5" d="M0,-3.0v7 M-2.5,-0.5L0,-3.0L2.5,-0.5"/>
                </g>
                <g id="arrowLeft" xlink:href="#dirArrow" transform="rotate(270) translate(-36 17)" onmousedown="handlePan(-1,0)">
                  <use xlink:href="#rim" fill="#404040">
                        <set attributeName="fill" to="#808080" begin="arrowLeft.mouseover" end="arrowLeft.mouseout"/>
                  </use>
                  <path fill="none" stroke="white" stroke-width="1.5" d="M0,-3.0v7 M-2.5,-0.5L0,-3.0L2.5,-0.5"/>
                </g>
        </g>
        <svg viewBox="0 0 15 15" width="100%" height="30px" preserveAspectRatio="xMaxYMin meet">
         <g id="arrow_out" transform="scale(0.3 0.3)">
          <a xlink:href="classuxn_1_1patl_1_1bit__comparator_3_01T_00_010_01_4__inherit__graph_org.svg" target="_base">
           <rect id="button" ry="5" rx="5" y="6" x="6" height="38" width="38"
                fill="#f2f5e9" fill-opacity="0.5" stroke="#606060" stroke-width="1.0"/>
           <path id="arrow"
             d="M 11.500037,31.436501 C 11.940474,20.09759 22.043105,11.32322 32.158766,21.979434 L 37.068811,17.246167 C 37.068811,17.246167 37.088388,32 37.088388,32 L 22.160133,31.978069 C 22.160133,31.978069 26.997745,27.140456 26.997745,27.140456 C 18.528582,18.264221 13.291696,25.230495 11.500037,31.436501 z"
             style="fill:#404040;"/>
          </a>
         </g>
        </svg>
</svg>
