<?xml version="1.0" encoding="UTF-8" standalone="no"?>
<!DOCTYPE svg PUBLIC "-//W3C//DTD SVG 1.1//EN"
 "http://www.w3.org/Graphics/SVG/1.1/DTD/svg11.dtd">
<!-- Generated by graphviz version 5.0.1 (20220820.1526)
 -->
<!-- Title: uxn/patl/trie_map.hpp Pages: 1 -->
<svg width="1027pt" height="308pt"
 viewBox="0.00 0.00 1026.77 308.00" xmlns="http://www.w3.org/2000/svg" xmlns:xlink="http://www.w3.org/1999/xlink">
<g id="graph0" class="graph" transform="scale(1 1) rotate(0) translate(4 304)">
<title>uxn/patl/trie_map.hpp</title>
<!-- Node1 -->
<g id="node1" class="node">
<title>Node1</title>
<g id="a_node1"><a xlink:title=" ">
<polygon fill="#bfbfbf" stroke="black" points="669.27,-280.5 669.27,-299.5 793.27,-299.5 793.27,-280.5 669.27,-280.5"/>
<text text-anchor="middle" x="731.27" y="-287.5" font-family="Helvetica,sans-Serif" font-size="10.00">uxn/patl/trie_map.hpp</text>
</a>
</g>
</g>
<!-- Node2 -->
<g id="node2" class="node">
<title>Node2</title>
<g id="a_node2"><a xlink:href="../../d9/d25/trie__generic_8hpp.html" target="_top" xlink:title=" ">
<polygon fill="none" stroke="black" points="522.27,-224.5 522.27,-243.5 642.27,-243.5 642.27,-224.5 522.27,-224.5"/>
<text text-anchor="middle" x="582.27" y="-231.5" font-family="Helvetica,sans-Serif" font-size="10.00">impl/trie_generic.hpp</text>
</a>
</g>
</g>
<!-- Node1&#45;&gt;Node2 -->
<g id="edge1" class="edge">
<title>Node1&#45;&gt;Node2</title>
<path fill="none" stroke="midnightblue" d="M707.66,-280.44C682.81,-271.44 643.49,-257.19 615.51,-247.05"/>
<polygon fill="midnightblue" stroke="midnightblue" points="616.36,-243.63 605.76,-243.52 613.97,-250.21 616.36,-243.63"/>
</g>
<!-- Node23 -->
<g id="node23" class="node">
<title>Node23</title>
<g id="a_node23"><a xlink:href="../../d1/dff/bit__comp_8hpp.html" target="_top" xlink:title=" ">
<polygon fill="none" stroke="black" points="864.77,-224.5 864.77,-243.5 947.77,-243.5 947.77,-224.5 864.77,-224.5"/>
<text text-anchor="middle" x="906.27" y="-231.5" font-family="Helvetica,sans-Serif" font-size="10.00">bit_comp.hpp</text>
</a>
</g>
</g>
<!-- Node1&#45;&gt;Node23 -->
<g id="edge30" class="edge">
<title>Node1&#45;&gt;Node23</title>
<path fill="none" stroke="midnightblue" d="M758.99,-280.44C788.69,-271.28 835.98,-256.69 868.94,-246.52"/>
<polygon fill="midnightblue" stroke="midnightblue" points="870.14,-249.81 878.67,-243.52 868.08,-243.12 870.14,-249.81"/>
</g>
<!-- Node3 -->
<g id="node3" class="node">
<title>Node3</title>
<g id="a_node3"><a xlink:title=" ">
<polygon fill="none" stroke="#bfbfbf" points="550.27,-112.5 550.27,-131.5 614.27,-131.5 614.27,-112.5 550.27,-112.5"/>
<text text-anchor="middle" x="582.27" y="-119.5" font-family="Helvetica,sans-Serif" font-size="10.00">algorithm</text>
</a>
</g>
</g>
<!-- Node2&#45;&gt;Node3 -->
<g id="edge2" class="edge">
<title>Node2&#45;&gt;Node3</title>
<path fill="none" stroke="midnightblue" d="M571,-224.43C561.3,-216.27 547.99,-203.05 542.27,-188 535.34,-169.78 549.58,-151.03 562.96,-138.38"/>
<polygon fill="midnightblue" stroke="midnightblue" points="565.37,-140.92 570.56,-131.69 560.74,-135.67 565.37,-140.92"/>
</g>
<!-- Node4 -->
<g id="node4" class="node">
<title>Node4</title>
<g id="a_node4"><a xlink:title=" ">
<polygon fill="none" stroke="#bfbfbf" points="243.77,-168.5 243.77,-187.5 308.77,-187.5 308.77,-168.5 243.77,-168.5"/>
<text text-anchor="middle" x="276.27" y="-175.5" font-family="Helvetica,sans-Serif" font-size="10.00">functional</text>
</a>
</g>
</g>
<!-- Node2&#45;&gt;Node4 -->
<g id="edge3" class="edge">
<title>Node2&#45;&gt;Node4</title>
<path fill="none" stroke="midnightblue" d="M527.57,-224.5C476.09,-216.32 396.61,-203.23 318.87,-188.25"/>
<polygon fill="midnightblue" stroke="midnightblue" points="319.39,-184.78 308.91,-186.31 318.06,-191.65 319.39,-184.78"/>
</g>
<!-- Node5 -->
<g id="node5" class="node">
<title>Node5</title>
<g id="a_node5"><a xlink:href="../../d3/d09/node_8hpp.html" target="_top" xlink:title=" ">
<polygon fill="none" stroke="black" points="551.27,-168.5 551.27,-187.5 613.27,-187.5 613.27,-168.5 551.27,-168.5"/>
<text text-anchor="middle" x="582.27" y="-175.5" font-family="Helvetica,sans-Serif" font-size="10.00">node.hpp</text>
</a>
</g>
</g>
<!-- Node2&#45;&gt;Node5 -->
<g id="edge4" class="edge">
<title>Node2&#45;&gt;Node5</title>
<path fill="none" stroke="midnightblue" d="M582.27,-224.08C582.27,-217.01 582.27,-206.86 582.27,-197.99"/>
<polygon fill="midnightblue" stroke="midnightblue" points="585.77,-197.75 582.27,-187.75 578.77,-197.75 585.77,-197.75"/>
</g>
<!-- Node7 -->
<g id="node7" class="node">
<title>Node7</title>
<g id="a_node7"><a xlink:href="../../d0/dd1/core__algorithm_8hpp.html" target="_top" xlink:title=" ">
<polygon fill="none" stroke="black" points="741.77,-168.5 741.77,-187.5 852.77,-187.5 852.77,-168.5 741.77,-168.5"/>
<text text-anchor="middle" x="797.27" y="-175.5" font-family="Helvetica,sans-Serif" font-size="10.00">core_algorithm.hpp</text>
</a>
</g>
</g>
<!-- Node2&#45;&gt;Node7 -->
<g id="edge7" class="edge">
<title>Node2&#45;&gt;Node7</title>
<path fill="none" stroke="midnightblue" d="M616.33,-224.44C653.45,-215.12 712.93,-200.18 753.48,-190"/>
<polygon fill="midnightblue" stroke="midnightblue" points="754.51,-193.35 763.36,-187.52 752.81,-186.56 754.51,-193.35"/>
</g>
<!-- Node13 -->
<g id="node13" class="node">
<title>Node13</title>
<g id="a_node13"><a xlink:href="../../de/d50/assoc__generic_8hpp.html" target="_top" xlink:title=" ">
<polygon fill="none" stroke="black" points="326.77,-168.5 326.77,-187.5 433.77,-187.5 433.77,-168.5 326.77,-168.5"/>
<text text-anchor="middle" x="380.27" y="-175.5" font-family="Helvetica,sans-Serif" font-size="10.00">assoc_generic.hpp</text>
</a>
</g>
</g>
<!-- Node2&#45;&gt;Node13 -->
<g id="edge15" class="edge">
<title>Node2&#45;&gt;Node13</title>
<path fill="none" stroke="midnightblue" d="M550.26,-224.44C515.54,-215.16 459.98,-200.31 421.89,-190.13"/>
<polygon fill="midnightblue" stroke="midnightblue" points="422.69,-186.72 412.12,-187.52 420.88,-193.48 422.69,-186.72"/>
</g>
<!-- Node21 -->
<g id="node21" class="node">
<title>Node21</title>
<g id="a_node21"><a xlink:href="../../d7/dd8/core__prefix_8hpp.html" target="_top" xlink:title=" ">
<polygon fill="none" stroke="black" points="631.27,-168.5 631.27,-187.5 723.27,-187.5 723.27,-168.5 631.27,-168.5"/>
<text text-anchor="middle" x="677.27" y="-175.5" font-family="Helvetica,sans-Serif" font-size="10.00">core_prefix.hpp</text>
</a>
</g>
</g>
<!-- Node2&#45;&gt;Node21 -->
<g id="edge28" class="edge">
<title>Node2&#45;&gt;Node21</title>
<path fill="none" stroke="midnightblue" d="M597.53,-224.32C612.49,-215.82 635.52,-202.73 652.99,-192.8"/>
<polygon fill="midnightblue" stroke="midnightblue" points="655.08,-195.64 662.04,-187.65 651.62,-189.55 655.08,-195.64"/>
</g>
<!-- Node5&#45;&gt;Node3 -->
<g id="edge5" class="edge">
<title>Node5&#45;&gt;Node3</title>
<path fill="none" stroke="midnightblue" d="M582.27,-168.08C582.27,-161.01 582.27,-150.86 582.27,-141.99"/>
<polygon fill="midnightblue" stroke="midnightblue" points="585.77,-141.75 582.27,-131.75 578.77,-141.75 585.77,-141.75"/>
</g>
<!-- Node6 -->
<g id="node6" class="node">
<title>Node6</title>
<g id="a_node6"><a xlink:href="../../d8/dfd/config_8hpp.html" target="_top" xlink:title=" ">
<polygon fill="none" stroke="black" points="680.27,-0.5 680.27,-19.5 756.27,-19.5 756.27,-0.5 680.27,-0.5"/>
<text text-anchor="middle" x="718.27" y="-7.5" font-family="Helvetica,sans-Serif" font-size="10.00">../config.hpp</text>
</a>
</g>
</g>
<!-- Node5&#45;&gt;Node6 -->
<g id="edge6" class="edge">
<title>Node5&#45;&gt;Node6</title>
<path fill="none" stroke="midnightblue" d="M590.63,-168.21C599.06,-159.26 612.34,-144.91 623.27,-132 653.88,-95.82 687.7,-51.66 705.57,-27.97"/>
<polygon fill="midnightblue" stroke="midnightblue" points="708.59,-29.78 711.8,-19.68 702.99,-25.57 708.59,-29.78"/>
</g>
<!-- Node8 -->
<g id="node8" class="node">
<title>Node8</title>
<g id="a_node8"><a xlink:href="../../de/d55/algorithm_8hpp.html" target="_top" xlink:title=" ">
<polygon fill="none" stroke="black" points="754.77,-112.5 754.77,-131.5 839.77,-131.5 839.77,-112.5 754.77,-112.5"/>
<text text-anchor="middle" x="797.27" y="-119.5" font-family="Helvetica,sans-Serif" font-size="10.00">algorithm.hpp</text>
</a>
</g>
</g>
<!-- Node7&#45;&gt;Node8 -->
<g id="edge8" class="edge">
<title>Node7&#45;&gt;Node8</title>
<path fill="none" stroke="midnightblue" d="M797.27,-168.08C797.27,-161.01 797.27,-150.86 797.27,-141.99"/>
<polygon fill="midnightblue" stroke="midnightblue" points="800.77,-141.75 797.27,-131.75 793.77,-141.75 800.77,-141.75"/>
</g>
<!-- Node8&#45;&gt;Node6 -->
<g id="edge9" class="edge">
<title>Node8&#45;&gt;Node6</title>
<path fill="none" stroke="midnightblue" d="M791.07,-112.37C778.03,-94.22 747.57,-51.8 730.47,-27.99"/>
<polygon fill="midnightblue" stroke="midnightblue" points="733.11,-25.67 724.44,-19.59 727.43,-29.76 733.11,-25.67"/>
</g>
<!-- Node9 -->
<g id="node9" class="node">
<title>Node9</title>
<g id="a_node9"><a xlink:href="../../d9/d3a/trivial_8hpp.html" target="_top" xlink:title=" ">
<polygon fill="none" stroke="black" points="806.27,-56.5 806.27,-75.5 872.27,-75.5 872.27,-56.5 806.27,-56.5"/>
<text text-anchor="middle" x="839.27" y="-63.5" font-family="Helvetica,sans-Serif" font-size="10.00">trivial.hpp</text>
</a>
</g>
</g>
<!-- Node8&#45;&gt;Node9 -->
<g id="edge10" class="edge">
<title>Node8&#45;&gt;Node9</title>
<path fill="none" stroke="midnightblue" d="M804.2,-112.08C810.19,-104.38 819.02,-93.03 826.31,-83.65"/>
<polygon fill="midnightblue" stroke="midnightblue" points="829.08,-85.79 832.46,-75.75 823.56,-81.5 829.08,-85.79"/>
</g>
<!-- Node9&#45;&gt;Node6 -->
<g id="edge11" class="edge">
<title>Node9&#45;&gt;Node6</title>
<path fill="none" stroke="midnightblue" d="M820.09,-56.44C800.36,-47.64 769.38,-33.81 746.77,-23.72"/>
<polygon fill="midnightblue" stroke="midnightblue" points="747.91,-20.4 737.35,-19.52 745.05,-26.79 747.91,-20.4"/>
</g>
<!-- Node10 -->
<g id="node10" class="node">
<title>Node10</title>
<g id="a_node10"><a xlink:title=" ">
<polygon fill="none" stroke="#bfbfbf" points="913.77,-0.5 913.77,-19.5 982.77,-19.5 982.77,-0.5 913.77,-0.5"/>
<text text-anchor="middle" x="948.27" y="-7.5" font-family="Helvetica,sans-Serif" font-size="10.00">type_traits</text>
</a>
</g>
</g>
<!-- Node9&#45;&gt;Node10 -->
<g id="edge12" class="edge">
<title>Node9&#45;&gt;Node10</title>
<path fill="none" stroke="midnightblue" d="M856.78,-56.32C874.34,-47.62 901.6,-34.12 921.8,-24.11"/>
<polygon fill="midnightblue" stroke="midnightblue" points="923.39,-27.23 930.8,-19.65 920.28,-20.96 923.39,-27.23"/>
</g>
<!-- Node11 -->
<g id="node11" class="node">
<title>Node11</title>
<g id="a_node11"><a xlink:title=" ">
<polygon fill="none" stroke="#bfbfbf" points="774.27,-0.5 774.27,-19.5 826.27,-19.5 826.27,-0.5 774.27,-0.5"/>
<text text-anchor="middle" x="800.27" y="-7.5" font-family="Helvetica,sans-Serif" font-size="10.00">cassert</text>
</a>
</g>
</g>
<!-- Node9&#45;&gt;Node11 -->
<g id="edge13" class="edge">
<title>Node9&#45;&gt;Node11</title>
<path fill="none" stroke="midnightblue" d="M832.83,-56.08C827.32,-48.46 819.23,-37.26 812.5,-27.94"/>
<polygon fill="midnightblue" stroke="midnightblue" points="815.28,-25.81 806.59,-19.75 809.6,-29.91 815.28,-25.81"/>
</g>
<!-- Node12 -->
<g id="node12" class="node">
<title>Node12</title>
<g id="a_node12"><a xlink:title=" ">
<polygon fill="none" stroke="#bfbfbf" points="844.77,-0.5 844.77,-19.5 895.77,-19.5 895.77,-0.5 844.77,-0.5"/>
<text text-anchor="middle" x="870.27" y="-7.5" font-family="Helvetica,sans-Serif" font-size="10.00">intrin.h</text>
</a>
</g>
</g>
<!-- Node9&#45;&gt;Node12 -->
<g id="edge14" class="edge">
<title>Node9&#45;&gt;Node12</title>
<path fill="none" stroke="midnightblue" d="M844.38,-56.08C848.67,-48.61 854.92,-37.72 860.21,-28.52"/>
<polygon fill="midnightblue" stroke="midnightblue" points="863.3,-30.17 865.24,-19.75 857.23,-26.68 863.3,-30.17"/>
</g>
<!-- Node14 -->
<g id="node14" class="node">
<title>Node14</title>
<g id="a_node14"><a xlink:href="../../d5/db7/preorder__iterator_8hpp.html" target="_top" xlink:title=" ">
<polygon fill="none" stroke="black" points="14.77,-112.5 14.77,-131.5 133.77,-131.5 133.77,-112.5 14.77,-112.5"/>
<text text-anchor="middle" x="74.27" y="-119.5" font-family="Helvetica,sans-Serif" font-size="10.00">preorder_iterator.hpp</text>
</a>
</g>
</g>
<!-- Node13&#45;&gt;Node14 -->
<g id="edge16" class="edge">
<title>Node13&#45;&gt;Node14</title>
<path fill="none" stroke="midnightblue" d="M331.78,-168.44C277.73,-158.9 190.34,-143.48 132.59,-133.29"/>
<polygon fill="midnightblue" stroke="midnightblue" points="132.98,-129.81 122.53,-131.52 131.77,-136.7 132.98,-129.81"/>
</g>
<!-- Node15 -->
<g id="node15" class="node">
<title>Node15</title>
<g id="a_node15"><a xlink:href="../../d1/d2d/vertex_8hpp.html" target="_top" xlink:title=" ">
<polygon fill="none" stroke="black" points="39.77,-56.5 39.77,-75.5 108.77,-75.5 108.77,-56.5 39.77,-56.5"/>
<text text-anchor="middle" x="74.27" y="-63.5" font-family="Helvetica,sans-Serif" font-size="10.00">vertex.hpp</text>
</a>
</g>
</g>
<!-- Node13&#45;&gt;Node15 -->
<g id="edge26" class="edge">
<title>Node13&#45;&gt;Node15</title>
<path fill="none" stroke="midnightblue" d="M326.66,-169.24C323.48,-168.81 320.33,-168.4 317.27,-168 248.05,-159.06 51.7,-184.1 5.27,-132 -12,-112.63 18.17,-92.47 43.89,-79.84"/>
<polygon fill="midnightblue" stroke="midnightblue" points="45.5,-82.95 53.07,-75.54 42.53,-76.61 45.5,-82.95"/>
</g>
<!-- Node17 -->
<g id="node17" class="node">
<title>Node17</title>
<g id="a_node17"><a xlink:href="../../df/d24/postorder__iterator_8hpp.html" target="_top" xlink:title=" ">
<polygon fill="none" stroke="black" points="151.77,-112.5 151.77,-131.5 276.77,-131.5 276.77,-112.5 151.77,-112.5"/>
<text text-anchor="middle" x="214.27" y="-119.5" font-family="Helvetica,sans-Serif" font-size="10.00">postorder_iterator.hpp</text>
</a>
</g>
</g>
<!-- Node13&#45;&gt;Node17 -->
<g id="edge19" class="edge">
<title>Node13&#45;&gt;Node17</title>
<path fill="none" stroke="midnightblue" d="M353.96,-168.44C325.91,-159.32 281.32,-144.81 250.08,-134.65"/>
<polygon fill="midnightblue" stroke="midnightblue" points="251.04,-131.28 240.45,-131.52 248.87,-137.94 251.04,-131.28"/>
</g>
<!-- Node18 -->
<g id="node18" class="node">
<title>Node18</title>
<g id="a_node18"><a xlink:href="../../d9/dde/iterator_8hpp.html" target="_top" xlink:title=" ">
<polygon fill="none" stroke="black" points="458.77,-112.5 458.77,-131.5 531.77,-131.5 531.77,-112.5 458.77,-112.5"/>
<text text-anchor="middle" x="495.27" y="-119.5" font-family="Helvetica,sans-Serif" font-size="10.00">iterator.hpp</text>
</a>
</g>
</g>
<!-- Node13&#45;&gt;Node18 -->
<g id="edge22" class="edge">
<title>Node13&#45;&gt;Node18</title>
<path fill="none" stroke="midnightblue" d="M398.49,-168.44C417.16,-159.68 446.42,-145.94 467.88,-135.86"/>
<polygon fill="midnightblue" stroke="midnightblue" points="469.56,-138.93 477.13,-131.52 466.59,-132.6 469.56,-138.93"/>
</g>
<!-- Node19 -->
<g id="node19" class="node">
<title>Node19</title>
<g id="a_node19"><a xlink:href="../../d7/d8f/partimator_8hpp.html" target="_top" xlink:title=" ">
<polygon fill="none" stroke="black" points="294.77,-112.5 294.77,-131.5 383.77,-131.5 383.77,-112.5 294.77,-112.5"/>
<text text-anchor="middle" x="339.27" y="-119.5" font-family="Helvetica,sans-Serif" font-size="10.00">partimator.hpp</text>
</a>
</g>
</g>
<!-- Node13&#45;&gt;Node19 -->
<g id="edge24" class="edge">
<title>Node13&#45;&gt;Node19</title>
<path fill="none" stroke="midnightblue" d="M373.5,-168.08C367.7,-160.46 359.21,-149.26 352.13,-139.94"/>
<polygon fill="midnightblue" stroke="midnightblue" points="354.74,-137.6 345.91,-131.75 349.17,-141.83 354.74,-137.6"/>
</g>
<!-- Node20 -->
<g id="node20" class="node">
<title>Node20</title>
<g id="a_node20"><a xlink:title=" ">
<polygon fill="none" stroke="#bfbfbf" points="402.27,-112.5 402.27,-131.5 440.27,-131.5 440.27,-112.5 402.27,-112.5"/>
<text text-anchor="middle" x="421.27" y="-119.5" font-family="Helvetica,sans-Serif" font-size="10.00">map</text>
</a>
</g>
</g>
<!-- Node13&#45;&gt;Node20 -->
<g id="edge27" class="edge">
<title>Node13&#45;&gt;Node20</title>
<path fill="none" stroke="midnightblue" d="M387.04,-168.08C392.83,-160.46 401.32,-149.26 408.4,-139.94"/>
<polygon fill="midnightblue" stroke="midnightblue" points="411.36,-141.83 414.62,-131.75 405.79,-137.6 411.36,-141.83"/>
</g>
<!-- Node14&#45;&gt;Node15 -->
<g id="edge17" class="edge">
<title>Node14&#45;&gt;Node15</title>
<path fill="none" stroke="midnightblue" d="M74.27,-112.08C74.27,-105.01 74.27,-94.86 74.27,-85.99"/>
<polygon fill="midnightblue" stroke="midnightblue" points="77.77,-85.75 74.27,-75.75 70.77,-85.75 77.77,-85.75"/>
</g>
<!-- Node16 -->
<g id="node16" class="node">
<title>Node16</title>
<g id="a_node16"><a xlink:title=" ">
<polygon fill="none" stroke="#bfbfbf" points="249.77,-56.5 249.77,-75.5 302.77,-75.5 302.77,-56.5 249.77,-56.5"/>
<text text-anchor="middle" x="276.27" y="-63.5" font-family="Helvetica,sans-Serif" font-size="10.00">iterator</text>
</a>
</g>
</g>
<!-- Node14&#45;&gt;Node16 -->
<g id="edge18" class="edge">
<title>Node14&#45;&gt;Node16</title>
<path fill="none" stroke="midnightblue" d="M106.27,-112.44C142.63,-102.72 201.83,-86.9 239.9,-76.72"/>
<polygon fill="midnightblue" stroke="midnightblue" points="240.81,-80.1 249.57,-74.14 239,-73.34 240.81,-80.1"/>
</g>
<!-- Node17&#45;&gt;Node15 -->
<g id="edge20" class="edge">
<title>Node17&#45;&gt;Node15</title>
<path fill="none" stroke="midnightblue" d="M192.08,-112.44C168.84,-103.48 132.12,-89.31 105.85,-79.18"/>
<polygon fill="midnightblue" stroke="midnightblue" points="106.93,-75.85 96.35,-75.52 104.42,-82.38 106.93,-75.85"/>
</g>
<!-- Node17&#45;&gt;Node16 -->
<g id="edge21" class="edge">
<title>Node17&#45;&gt;Node16</title>
<path fill="none" stroke="midnightblue" d="M224.23,-112.32C233.39,-104.34 247.2,-92.31 258.29,-82.65"/>
<polygon fill="midnightblue" stroke="midnightblue" points="260.88,-85.04 266.12,-75.83 256.28,-79.76 260.88,-85.04"/>
</g>
<!-- Node18&#45;&gt;Node16 -->
<g id="edge23" class="edge">
<title>Node18&#45;&gt;Node16</title>
<path fill="none" stroke="midnightblue" d="M460.56,-112.44C420.2,-102.49 353.87,-86.14 312.76,-76"/>
<polygon fill="midnightblue" stroke="midnightblue" points="313.43,-72.56 302.88,-73.56 311.75,-79.36 313.43,-72.56"/>
</g>
<!-- Node19&#45;&gt;Node16 -->
<g id="edge25" class="edge">
<title>Node19&#45;&gt;Node16</title>
<path fill="none" stroke="midnightblue" d="M329.14,-112.32C319.74,-104.26 305.52,-92.08 294.2,-82.37"/>
<polygon fill="midnightblue" stroke="midnightblue" points="296.44,-79.68 286.57,-75.83 291.89,-85 296.44,-79.68"/>
</g>
<!-- Node22 -->
<g id="node22" class="node">
<title>Node22</title>
<g id="a_node22"><a xlink:href="../../d0/d34/prefix_8hpp.html" target="_top" xlink:title=" ">
<polygon fill="none" stroke="black" points="670.77,-112.5 670.77,-131.5 735.77,-131.5 735.77,-112.5 670.77,-112.5"/>
<text text-anchor="middle" x="703.27" y="-119.5" font-family="Helvetica,sans-Serif" font-size="10.00">prefix.hpp</text>
</a>
</g>
</g>
<!-- Node21&#45;&gt;Node22 -->
<g id="edge29" class="edge">
<title>Node21&#45;&gt;Node22</title>
<path fill="none" stroke="midnightblue" d="M681.56,-168.08C685.12,-160.69 690.29,-149.95 694.69,-140.81"/>
<polygon fill="midnightblue" stroke="midnightblue" points="697.87,-142.28 699.05,-131.75 691.56,-139.24 697.87,-142.28"/>
</g>
<!-- Node23&#45;&gt;Node9 -->
<g id="edge33" class="edge">
<title>Node23&#45;&gt;Node9</title>
<path fill="none" stroke="midnightblue" d="M902.66,-224.08C892.07,-197.83 860.88,-120.55 846.58,-85.12"/>
<polygon fill="midnightblue" stroke="midnightblue" points="849.71,-83.53 842.72,-75.57 843.22,-86.15 849.71,-83.53"/>
</g>
<!-- Node24 -->
<g id="node24" class="node">
<title>Node24</title>
<g id="a_node24"><a xlink:title=" ">
<polygon fill="none" stroke="#bfbfbf" points="909.27,-168.5 909.27,-187.5 953.27,-187.5 953.27,-168.5 909.27,-168.5"/>
<text text-anchor="middle" x="931.27" y="-175.5" font-family="Helvetica,sans-Serif" font-size="10.00">string</text>
</a>
</g>
</g>
<!-- Node23&#45;&gt;Node24 -->
<g id="edge31" class="edge">
<title>Node23&#45;&gt;Node24</title>
<path fill="none" stroke="midnightblue" d="M910.39,-224.08C913.78,-216.77 918.68,-206.18 922.88,-197.1"/>
<polygon fill="midnightblue" stroke="midnightblue" points="926.19,-198.3 927.21,-187.75 919.84,-195.36 926.19,-198.3"/>
</g>
<!-- Node25 -->
<g id="node25" class="node">
<title>Node25</title>
<g id="a_node25"><a xlink:title=" ">
<polygon fill="none" stroke="#bfbfbf" points="971.77,-168.5 971.77,-187.5 1018.77,-187.5 1018.77,-168.5 971.77,-168.5"/>
<text text-anchor="middle" x="995.27" y="-175.5" font-family="Helvetica,sans-Serif" font-size="10.00">vector</text>
</a>
</g>
</g>
<!-- Node23&#45;&gt;Node25 -->
<g id="edge32" class="edge">
<title>Node23&#45;&gt;Node25</title>
<path fill="none" stroke="midnightblue" d="M920.57,-224.32C934.45,-215.9 955.76,-202.97 972.07,-193.07"/>
<polygon fill="midnightblue" stroke="midnightblue" points="974.27,-195.83 981,-187.65 970.64,-189.85 974.27,-195.83"/>
</g>
</g>
</svg>
