<?xml version="1.0" encoding="UTF-8" standalone="no"?>
<!DOCTYPE svg PUBLIC "-//W3C//DTD SVG 1.1//EN"
 "http://www.w3.org/Graphics/SVG/1.1/DTD/svg11.dtd">
<!-- Generated by graphviz version 5.0.1 (20220820.1526)
 -->
<!-- Title: uxn::patl::range_decoder&lt; In &gt; Pages: 1 -->
<svg width="146pt" height="270pt"
 viewBox="0.00 0.00 146.00 270.00" xmlns="http://www.w3.org/2000/svg" xmlns:xlink="http://www.w3.org/1999/xlink">
<g id="graph0" class="graph" transform="scale(1 1) rotate(0) translate(4 266)">
<title>uxn::patl::range_decoder&lt; In &gt;</title>
<!-- Node1 -->
<g id="node1" class="node">
<title>Node1</title>
<g id="a_node1"><a xlink:title=" ">
<polygon fill="#bfbfbf" stroke="black" points="0,-0.5 0,-156.5 138,-156.5 138,-0.5 0,-0.5"/>
<text text-anchor="start" x="8" y="-144.5" font-family="Helvetica,sans-Serif" font-size="10.00">uxn::patl::range_decoder</text>
<text text-anchor="middle" x="69" y="-133.5" font-family="Helvetica,sans-Serif" font-size="10.00">&lt; In &gt;</text>
<polyline fill="none" stroke="black" points="0,-126.5 138,-126.5"/>
<text text-anchor="start" x="8" y="-114.5" font-family="Helvetica,sans-Serif" font-size="10.00">&#45; In in_</text>
<text text-anchor="start" x="8" y="-103.5" font-family="Helvetica,sans-Serif" font-size="10.00">&#45; word_t code_</text>
<polyline fill="none" stroke="black" points="0,-96.5 138,-96.5"/>
<text text-anchor="start" x="8" y="-84.5" font-family="Helvetica,sans-Serif" font-size="10.00">+ range_decoder(In in)</text>
<text text-anchor="start" x="8" y="-73.5" font-family="Helvetica,sans-Serif" font-size="10.00">+ word_t get_rng_freq</text>
<text text-anchor="start" x="8" y="-62.5" font-family="Helvetica,sans-Serif" font-size="10.00">(word_t tot_freq)</text>
<text text-anchor="start" x="8" y="-51.5" font-family="Helvetica,sans-Serif" font-size="10.00">+ void decode(word_t</text>
<text text-anchor="start" x="8" y="-40.5" font-family="Helvetica,sans-Serif" font-size="10.00"> cum_freq, word_t freq,</text>
<text text-anchor="start" x="8" y="-29.5" font-family="Helvetica,sans-Serif" font-size="10.00"> word_t tot_freq)</text>
<text text-anchor="start" x="8" y="-18.5" font-family="Helvetica,sans-Serif" font-size="10.00">+ word_t decode_bit()</text>
<text text-anchor="start" x="8" y="-7.5" font-family="Helvetica,sans-Serif" font-size="10.00">+ void inner_normalize()</text>
</a>
</g>
</g>
<!-- Node2 -->
<g id="node2" class="node">
<title>Node2</title>
<g id="a_node2"><a xlink:title=" ">
<polygon fill="none" stroke="black" points="11,-193.5 11,-261.5 127,-261.5 127,-193.5 11,-193.5"/>
<text text-anchor="start" x="19" y="-249.5" font-family="Helvetica,sans-Serif" font-size="10.00">range_coder&lt; range</text>
<text text-anchor="middle" x="69" y="-238.5" font-family="Helvetica,sans-Serif" font-size="10.00">_decoder&lt; In &gt; &gt;</text>
<polyline fill="none" stroke="black" points="11,-231.5 127,-231.5"/>
<text text-anchor="middle" x="69" y="-219.5" font-family="Helvetica,sans-Serif" font-size="10.00"> </text>
<polyline fill="none" stroke="black" points="11,-212.5 127,-212.5"/>
<text text-anchor="middle" x="69" y="-200.5" font-family="Helvetica,sans-Serif" font-size="10.00"> </text>
</a>
</g>
</g>
<!-- Node2&#45;&gt;Node1 -->
<g id="edge1" class="edge">
<title>Node2&#45;&gt;Node1</title>
<path fill="none" stroke="midnightblue" d="M69,-183C69,-174.7 69,-165.78 69,-156.79"/>
<polygon fill="none" stroke="midnightblue" points="65.5,-183.14 69,-193.14 72.5,-183.14 65.5,-183.14"/>
</g>
</g>
</svg>
